*
*
G04 PowerPCB (Build Number 500.281.2.20) generated Gerber (RS-274-X) file*
G04 PC Version=2.1*
*
%IN "Untitled"*%
*
%MOIN*%
*
%FSLAX35Y35*%
*
*
*
*
G04 PC Standard Apertures*
*
*
G04 Thermal Relief Aperture macro.*
%AMTER*
1,1,$1,0,0*
1,0,$1-$2,0,0*
21,0,$3,$4,0,0,45*
21,0,$3,$4,0,0,135*
%
*
*
G04 Annular Aperture macro.*
%AMANN*
1,1,$1,0,0*
1,0,$2,0,0*
%
*
*
G04 Odd Aperture macro.*
%AMODD*
1,1,$1,0,0*
1,0,$1-0.005,0,0*
%
*
*
G04 PC Custom Aperture Macros*
*
*
*
*
*
*
G04 PC Aperture Table*
*
%ADD012R,0.07X0.07*%
%ADD023C,0.007*%
%ADD025C,0.01*%
%ADD030R,0.049X0.049*%
%ADD032R,0.08X0.08*%
%ADD035C,0.065*%
%ADD040R,0.06X0.06*%
%ADD046R,0.05X0.05*%
%ADD054R,0.09X0.09*%
%ADD055C,0.09*%
%ADD056R,0.053X0.053*%
%ADD057R,0.13X0.13*%
%ADD058C,0.13*%
%ADD059R,0.023X0.023*%
%ADD060C,0.085*%
%ADD061C,0.027*%
%ADD062C,0.035*%
*
*
*
*
G04 PC Custom Flashes*
G04 Layer Name Untitled - flashes*
%LPD*%
*
*
G04 PC Circuitry*
G04 Layer Name Untitled - circuitry*
%LPD*%
*
G54D12*
G01X00127500Y00167500D03*
Y00157500D03*
Y00137500D03*
Y00127500D03*
X00305000Y00157500D03*
Y00167500D03*
Y00127500D03*
Y00137500D03*
Y00187500D03*
Y00197500D03*
X00292500Y00209000D03*
X00282500D03*
X00272500D03*
X00252500D03*
X00242500D03*
G54D23*
X00110000Y00110000D02*
Y00110500D01*
Y00110000D02*
X00110500D01*
X00110000D02*
Y00109500D01*
Y00110000D02*
X00109500D01*
X00111500D02*
X00116500D01*
X00110000Y00108500D02*
Y00105100D01*
Y00111500D02*
Y00116000D01*
X00104000Y00110000D02*
X00108500D01*
X00113000D02*
G75*
G03X00113000I-00003000D01*
G01X00112000D02*
G03X00112000I-00002000D01*
G01X00322500D02*
Y00110500D01*
Y00110000D02*
X00323000D01*
X00322500D02*
Y00109500D01*
Y00110000D02*
X00322000D01*
X00324000D02*
X00329000D01*
X00322500Y00108500D02*
Y00105100D01*
Y00111500D02*
Y00116000D01*
X00316500Y00110000D02*
X00321000D01*
X00325500D02*
G03X00325500I-00003000D01*
G01X00324500D02*
G03X00324500I-00002000D01*
G01X00322500Y00250000D02*
Y00250500D01*
Y00250000D02*
X00323000D01*
X00322500D02*
Y00249500D01*
Y00250000D02*
X00322000D01*
X00324000D02*
X00329000D01*
X00322500Y00248500D02*
Y00245100D01*
Y00251500D02*
Y00256000D01*
X00316500Y00250000D02*
X00321000D01*
X00325500D02*
G03X00325500I-00003000D01*
G01X00324500D02*
G03X00324500I-00002000D01*
G54D25*
G01X00249400Y00229300D02*
Y00220700D01*
X00244300*
Y00229300*
X00249400*
X00283900D02*
Y00220700D01*
X00278800*
Y00229300*
X00283900*
X00244300Y00228798D02*
X00249400D01*
X00244300Y00227898D02*
X00249400D01*
X00244300Y00226998D02*
X00249400D01*
X00244300Y00226098D02*
X00249400D01*
X00244300Y00225198D02*
X00249400D01*
X00244300Y00224298D02*
X00249400D01*
X00244300Y00223398D02*
X00249400D01*
X00244300Y00222498D02*
X00249400D01*
X00244300Y00221598D02*
X00249400D01*
X00278800Y00228798D02*
X00283900D01*
X00278800Y00227898D02*
X00283900D01*
X00278800Y00226998D02*
X00283900D01*
X00278800Y00226098D02*
X00283900D01*
X00278800Y00225198D02*
X00283900D01*
X00278800Y00224298D02*
X00283900D01*
X00278800Y00223398D02*
X00283900D01*
X00278800Y00222498D02*
X00283900D01*
X00278800Y00221598D02*
X00283900D01*
G54D30*
X00192650Y00177300D02*
X00194350D01*
X00192650Y00169700D02*
X00194350D01*
X00161850Y00228000D02*
X00160150D01*
X00161850Y00235600D02*
X00160150D01*
X00183900Y00169300D02*
X00185100D01*
X00183900Y00161700D02*
X00185100D01*
X00185200Y00144500D02*
X00184000D01*
X00185200Y00152100D02*
X00184000D01*
X00210900Y00164300D02*
X00212100D01*
X00210900Y00156700D02*
X00212100D01*
Y00141200D02*
X00210900D01*
X00212100Y00148800D02*
X00210900D01*
X00161100Y00212700D02*
X00159900D01*
X00161100Y00220300D02*
X00159900D01*
X00156400Y00205300D02*
X00157600D01*
X00156400Y00197700D02*
X00157600D01*
X00136800Y00202900D02*
X00138000D01*
X00136800Y00195300D02*
X00138000D01*
X00244200Y00199200D02*
X00245400D01*
X00244200Y00191600D02*
X00245400D01*
X00235800Y00186700D02*
X00237000D01*
X00235800Y00179100D02*
X00237000D01*
X00221150Y00226800D02*
X00222850D01*
X00221150Y00219200D02*
X00222850D01*
X00256150Y00226800D02*
X00257850D01*
X00256150Y00219200D02*
X00257850D01*
G54D32*
X00240800Y00128500D02*
X00235200D01*
X00240800Y00155500D02*
X00235200D01*
X00286800Y00128000D02*
X00281200D01*
X00286800Y00155000D02*
X00281200D01*
G54D35*
X00228500Y00212500D03*
Y00202500D03*
G54D40*
X00136250Y00161900D02*
X00138750D01*
X00136250Y00148100D02*
X00138750D01*
Y00125600D02*
X00136250D01*
X00138750Y00139400D02*
X00136250D01*
X00154350Y00181000D02*
X00156850D01*
X00154350Y00167200D02*
X00156850D01*
X00136250Y00186900D02*
X00138750D01*
X00136250Y00173100D02*
X00138750D01*
G54D46*
X00230600Y00230300D02*
X00234600D01*
X00230600Y00219700D02*
X00234600D01*
X00230600Y00225000D02*
X00234600D01*
X00265100Y00230300D02*
X00269100D01*
X00265100Y00219700D02*
X00269100D01*
X00265100Y00225000D02*
X00269100D01*
X00200800Y00156600D02*
Y00148600D01*
X00195600Y00156600D02*
Y00148600D01*
X00287700Y00168100D03*
X00295700D03*
X00291700Y00176100D03*
X00295300Y00188100D02*
X00287300D01*
X00295300Y00198100D02*
X00287300D01*
X00261500D02*
X00253500D01*
X00261500Y00188100D02*
X00253500D01*
G54D54*
X00151000Y00145400D03*
G54D55*
Y00131600D03*
X00173500Y00174500D03*
X00217500D03*
Y00130500D03*
X00173500D03*
G54D56*
X00166100Y00145800D02*
X00159900D01*
X00166100Y00157200D02*
X00159900D01*
Y00137700D02*
X00166100D01*
X00159900Y00126300D02*
X00166100D01*
G54D57*
X00260600Y00143000D03*
G54D58*
Y00173000D03*
G54D59*
X00194400Y00141200D02*
Y00138000D01*
X00196900Y00141200D02*
Y00138000D01*
X00199500Y00141200D02*
Y00138000D01*
X00202000Y00141200D02*
Y00138000D01*
G54D60*
X00129000Y00202600D03*
X00146000D03*
Y00177400D03*
X00129000D03*
G54D61*
X00167300Y00229200D02*
X00173100D01*
X00167300Y00224200D02*
X00173100D01*
X00167300Y00219200D02*
X00173100D01*
X00167300Y00214200D02*
X00173100D01*
X00167300Y00209200D02*
X00173100D01*
X00167300Y00204200D02*
X00173100D01*
X00167300Y00199200D02*
X00173100D01*
X00167300Y00194200D02*
X00173100D01*
X00167300Y00189200D02*
X00173100D01*
X00206300D02*
X00212100D01*
X00206300Y00194200D02*
X00212100D01*
X00206300Y00199200D02*
X00212100D01*
X00206300Y00204200D02*
X00212100D01*
X00206300Y00209200D02*
X00212100D01*
X00206300Y00214200D02*
X00212100D01*
X00206300Y00219200D02*
X00212100D01*
X00206300Y00224200D02*
X00212100D01*
X00206300Y00229200D02*
X00212100D01*
G54D62*
X00126250Y00232500D02*
X00130750D01*
X00126250Y00227500D02*
X00130750D01*
X00126250Y00222500D02*
X00130750D01*
X00126250Y00217500D02*
X00130750D01*
X00147650D02*
X00152150D01*
X00147650Y00222500D02*
X00152150D01*
X00147650Y00227500D02*
X00152150D01*
X00147650Y00232500D02*
X00152150D01*
G74*
X00000000Y00000000D02*
M02*
