*
*
G04 PowerPCB (Build Number 500.281.2.20) generated Gerber (RS-274-X) file*
G04 PC Version=2.1*
*
%IN "Untitled"*%
*
%MOIN*%
*
%FSLAX35Y35*%
*
*
*
*
G04 PC Standard Apertures*
*
*
G04 Thermal Relief Aperture macro.*
%AMTER*
1,1,$1,0,0*
1,0,$1-$2,0,0*
21,0,$3,$4,0,0,45*
21,0,$3,$4,0,0,135*
%
*
*
G04 Annular Aperture macro.*
%AMANN*
1,1,$1,0,0*
1,0,$2,0,0*
%
*
*
G04 Odd Aperture macro.*
%AMODD*
1,1,$1,0,0*
1,0,$1-0.005,0,0*
%
*
*
G04 PC Custom Aperture Macros*
*
*
*
*
*
*
G04 PC Aperture Table*
*
%ADD018C,0.015*%
%ADD023C,0.007*%
%ADD025C,0.01*%
%ADD038R,0.035X0.035*%
%ADD063R,0.037X0.037*%
%ADD064R,0.046X0.046*%
%ADD065R,0.066X0.066*%
%ADD066R,0.036X0.036*%
%ADD067C,0.023*%
*
*
*
*
G04 PC Custom Flashes*
G04 Layer Name Untitled - flashes*
%LPD*%
*
*
G04 PC Circuitry*
G04 Layer Name Untitled - circuitry*
%LPD*%
*
G54D18*
G01X00167600Y00229200D02*
X00172800D01*
X00167600Y00224200D02*
X00172800D01*
X00167600Y00219200D02*
X00172800D01*
X00167600Y00214200D02*
X00172800D01*
X00167600Y00209200D02*
X00172800D01*
X00167600Y00204200D02*
X00172800D01*
X00167600Y00199200D02*
X00172800D01*
X00167600Y00194200D02*
X00172800D01*
X00167600Y00189200D02*
X00172800D01*
X00206600D02*
X00211800D01*
X00206600Y00194200D02*
X00211800D01*
X00206600Y00199200D02*
X00211800D01*
X00206600Y00204200D02*
X00211800D01*
X00206600Y00209200D02*
X00211800D01*
X00206600Y00214200D02*
X00211800D01*
X00206600Y00219200D02*
X00211800D01*
X00206600Y00224200D02*
X00211800D01*
X00206600Y00229200D02*
X00211800D01*
G54D23*
X00110000Y00110000D02*
Y00110500D01*
Y00110000D02*
X00110500D01*
X00110000D02*
Y00109500D01*
Y00110000D02*
X00109500D01*
X00111500D02*
X00116500D01*
X00110000Y00108500D02*
Y00105100D01*
Y00111500D02*
Y00116000D01*
X00104000Y00110000D02*
X00108500D01*
X00113000D02*
G75*
G03X00113000I-00003000D01*
G01X00112000D02*
G03X00112000I-00002000D01*
G01X00322500D02*
Y00110500D01*
Y00110000D02*
X00323000D01*
X00322500D02*
Y00109500D01*
Y00110000D02*
X00322000D01*
X00324000D02*
X00329000D01*
X00322500Y00108500D02*
Y00105100D01*
Y00111500D02*
Y00116000D01*
X00316500Y00110000D02*
X00321000D01*
X00325500D02*
G03X00325500I-00003000D01*
G01X00324500D02*
G03X00324500I-00002000D01*
G01X00322500Y00250000D02*
Y00250500D01*
Y00250000D02*
X00323000D01*
X00322500D02*
Y00249500D01*
Y00250000D02*
X00322000D01*
X00324000D02*
X00329000D01*
X00322500Y00248500D02*
Y00245100D01*
Y00251500D02*
Y00256000D01*
X00316500Y00250000D02*
X00321000D01*
X00325500D02*
G03X00325500I-00003000D01*
G01X00324500D02*
G03X00324500I-00002000D01*
G54D25*
G01X00248600Y00228300D02*
Y00221700D01*
X00245000*
Y00228300*
X00248600*
X00283100D02*
Y00221700D01*
X00279500*
Y00228300*
X00283100*
X00245000Y00227998D02*
X00248600D01*
X00245000Y00227098D02*
X00248600D01*
X00245000Y00226198D02*
X00248600D01*
X00245000Y00225298D02*
X00248600D01*
X00245000Y00224398D02*
X00248600D01*
X00245000Y00223498D02*
X00248600D01*
X00245000Y00222598D02*
X00248600D01*
X00279500Y00227998D02*
X00283100D01*
X00279500Y00227098D02*
X00283100D01*
X00279500Y00226198D02*
X00283100D01*
X00279500Y00225298D02*
X00283100D01*
X00279500Y00224398D02*
X00283100D01*
X00279500Y00223498D02*
X00283100D01*
X00279500Y00222598D02*
X00283100D01*
G54D38*
X00192650Y00177300D02*
X00194350D01*
X00192650Y00169700D02*
X00194350D01*
X00161850Y00228000D02*
X00160150D01*
X00161850Y00235600D02*
X00160150D01*
X00230550Y00230300D02*
X00234650D01*
X00230550Y00219700D02*
X00234650D01*
X00230550Y00225000D02*
X00234650D01*
X00265050Y00230300D02*
X00269150D01*
X00265050Y00219700D02*
X00269150D01*
X00265050Y00225000D02*
X00269150D01*
X00183900Y00169300D02*
X00185100D01*
X00183900Y00161700D02*
X00185100D01*
X00185200Y00144500D02*
X00184000D01*
X00185200Y00152100D02*
X00184000D01*
X00210900Y00164300D02*
X00212100D01*
X00210900Y00156700D02*
X00212100D01*
Y00141200D02*
X00210900D01*
X00212100Y00148800D02*
X00210900D01*
X00161100Y00212700D02*
X00159900D01*
X00161100Y00220300D02*
X00159900D01*
X00156400Y00205300D02*
X00157600D01*
X00156400Y00197700D02*
X00157600D01*
X00136800Y00202900D02*
X00138000D01*
X00136800Y00195300D02*
X00138000D01*
X00244200Y00199200D02*
X00245400D01*
X00244200Y00191600D02*
X00245400D01*
X00235800Y00186700D02*
X00237000D01*
X00235800Y00179100D02*
X00237000D01*
X00221150Y00226800D02*
X00222850D01*
X00221150Y00219200D02*
X00222850D01*
X00256150Y00226800D02*
X00257850D01*
X00256150Y00219200D02*
X00257850D01*
G54D63*
X00166200Y00145800D02*
X00159800D01*
X00166200Y00157200D02*
X00159800D01*
Y00137700D02*
X00166200D01*
X00159800Y00126300D02*
X00166200D01*
G54D64*
X00136250Y00161900D02*
X00138750D01*
X00136250Y00148100D02*
X00138750D01*
Y00125600D02*
X00136250D01*
X00138750Y00139400D02*
X00136250D01*
X00154350Y00181000D02*
X00156850D01*
X00154350Y00167200D02*
X00156850D01*
X00136250Y00186900D02*
X00138750D01*
X00136250Y00173100D02*
X00138750D01*
G54D65*
X00240800Y00128500D02*
X00235200D01*
X00240800Y00155500D02*
X00235200D01*
X00286800Y00128000D02*
X00281200D01*
X00286800Y00155000D02*
X00281200D01*
G54D66*
X00287700Y00168100D03*
X00295700D03*
X00291700Y00176100D03*
X00295300Y00188100D02*
X00287300D01*
X00295300Y00198100D02*
X00287300D01*
X00261500D02*
X00253500D01*
X00261500Y00188100D02*
X00253500D01*
G54D67*
X00126550Y00232500D02*
X00130450D01*
X00126550Y00227500D02*
X00130450D01*
X00126550Y00222500D02*
X00130450D01*
X00126550Y00217500D02*
X00130450D01*
X00147950D02*
X00151850D01*
X00147950Y00222500D02*
X00151850D01*
X00147950Y00227500D02*
X00151850D01*
X00147950Y00232500D02*
X00151850D01*
G74*
X00000000Y00000000D02*
M02*
