*
*
G04 PowerPCB (Build Number 500.281.2.20) generated Gerber (RS-274-X) file*
G04 PC Version=2.1*
*
%IN "Untitled"*%
*
%MOIN*%
*
%FSLAX35Y35*%
*
*
*
*
G04 PC Standard Apertures*
*
*
G04 Thermal Relief Aperture macro.*
%AMTER*
1,1,$1,0,0*
1,0,$1-$2,0,0*
21,0,$3,$4,0,0,45*
21,0,$3,$4,0,0,135*
%
*
*
G04 Annular Aperture macro.*
%AMANN*
1,1,$1,0,0*
1,0,$2,0,0*
%
*
*
G04 Odd Aperture macro.*
%AMODD*
1,1,$1,0,0*
1,0,$1-0.005,0,0*
%
*
*
G04 PC Custom Aperture Macros*
*
*
*
*
*
*
G04 PC Aperture Table*
*
%ADD023C,0.007*%
%ADD025C,0.01*%
%ADD026C,0.00787*%
%ADD036C,0.008*%
%ADD060C,0.0315*%
%ADD061C,0.01575*%
*
*
*
*
G04 PC Custom Flashes*
G04 Layer Name Untitled - flashes*
%LPD*%
*
*
G04 PC Circuitry*
G04 Layer Name Untitled - circuitry*
%LPD*%
*
G54D23*
G01X00110000Y00110000D02*
Y00110500D01*
Y00110000D02*
X00110500D01*
X00110000D02*
Y00109500D01*
Y00110000D02*
X00109500D01*
X00111500D02*
X00116500D01*
X00110000Y00108500D02*
Y00105100D01*
Y00111500D02*
Y00116000D01*
X00104000Y00110000D02*
X00108500D01*
X00113000D02*
G75*
G03X00113000I-00003000D01*
G01X00112000D02*
G03X00112000I-00002000D01*
G01X00530000D02*
Y00110500D01*
Y00110000D02*
X00530500D01*
X00530000D02*
Y00109500D01*
Y00110000D02*
X00529500D01*
X00531500D02*
X00536500D01*
X00530000Y00108500D02*
Y00105100D01*
Y00111500D02*
Y00116000D01*
X00524000Y00110000D02*
X00528500D01*
X00533000D02*
G03X00533000I-00003000D01*
G01X00532000D02*
G03X00532000I-00002000D01*
G01X00530000Y00450000D02*
Y00450500D01*
Y00450000D02*
X00530500D01*
X00530000D02*
Y00449500D01*
Y00450000D02*
X00529500D01*
X00531500D02*
X00536500D01*
X00530000Y00448500D02*
Y00445100D01*
Y00451500D02*
Y00456000D01*
X00524000Y00450000D02*
X00528500D01*
X00533000D02*
G03X00533000I-00003000D01*
G01X00532000D02*
G03X00532000I-00002000D01*
G54D25*
G01X00493500Y00236545D02*
X00493000Y00236181D01*
X00493000D02*
X00492750Y00235636D01*
Y00234909*
X00493000Y00234363*
X00493000D02*
X00493500Y00234000D01*
X00494000*
X00494500Y00234181*
X00494500D02*
X00494750Y00234363D01*
X00494750D02*
X00495000Y00234727D01*
X00495500Y00235818*
X00495750Y00236181*
X00495750D02*
X00496000Y00236363D01*
X00496000D02*
X00496500Y00236545D01*
X00497250*
X00497750Y00236181*
X00497750D02*
X00498000Y00235636D01*
Y00234909*
X00497750Y00234363*
X00497750D02*
X00497250Y00234000D01*
X00492750Y00239454D02*
X00498000D01*
X00492750Y00238181D02*
Y00240727D01*
Y00243454D02*
X00493000Y00243090D01*
X00493000D02*
X00493500Y00242727D01*
X00494000Y00242545*
X00494750Y00242363*
X00494750D02*
X00496000D01*
X00496000D02*
X00496750Y00242545D01*
X00497250Y00242727*
X00497750Y00243090*
X00497750D02*
X00498000Y00243454D01*
X00498000D02*
Y00244181D01*
X00498000D02*
X00497750Y00244545D01*
X00497250Y00244909*
X00496750Y00245090*
X00496750D02*
X00496000Y00245272D01*
X00496000D02*
X00494750D01*
X00494750D02*
X00494000Y00245090D01*
X00494000D02*
X00493500Y00244909D01*
X00493000Y00244545*
X00492750Y00244181*
X00492750D02*
Y00243454D01*
Y00246909D02*
X00498000D01*
X00492750D02*
Y00248545D01*
X00493000Y00249090*
X00493000D02*
X00493250Y00249272D01*
X00493250D02*
X00493750Y00249454D01*
X00493750D02*
X00494500D01*
X00494500D02*
X00495000Y00249272D01*
X00495000D02*
X00495250Y00249090D01*
X00495250D02*
X00495500Y00248545D01*
Y00246909*
X00492750Y00251090D02*
X00498000Y00252000D01*
X00492750Y00252909D02*
X00498000Y00252000D01*
X00492750Y00252909D02*
X00498000Y00253818D01*
X00492750Y00254727D02*
X00498000Y00253818D01*
X00492750Y00257818D02*
X00498000Y00256363D01*
X00492750Y00257818D02*
X00498000Y00259272D01*
X00496250Y00256909D02*
Y00258727D01*
X00492750Y00262181D02*
X00498000D01*
X00492750Y00260909D02*
Y00263454D01*
X00494000Y00267818D02*
X00493500Y00267636D01*
X00493000Y00267272*
X00493000D02*
X00492750Y00266909D01*
Y00266181*
X00492750D02*
X00493000Y00265818D01*
X00493500Y00265454*
X00493500D02*
X00494000Y00265272D01*
X00494000D02*
X00494750Y00265090D01*
X00494750D02*
X00496000D01*
X00496000D02*
X00496750Y00265272D01*
X00496750D02*
X00497250Y00265454D01*
X00497250D02*
X00497750Y00265818D01*
X00498000Y00266181*
X00498000D02*
Y00266909D01*
X00497750Y00267272*
X00497750D02*
X00497250Y00267636D01*
X00496750Y00267818*
X00492750Y00269454D02*
X00498000D01*
X00492750Y00272000D02*
X00498000D01*
X00495250Y00269454D02*
Y00272000D01*
X00492750Y00274727D02*
X00493000Y00274181D01*
X00493000D02*
X00493750Y00273818D01*
X00495000Y00273636*
X00495750*
X00497000Y00273818*
X00497750Y00274181*
X00497750D02*
X00498000Y00274727D01*
Y00275090*
X00498000D02*
X00497750Y00275636D01*
X00497000Y00276000*
X00495750Y00276181*
X00495750D02*
X00495000D01*
X00495000D02*
X00493750Y00276000D01*
X00493000Y00275636*
X00492750Y00275090*
X00492750D02*
Y00274727D01*
X00493750Y00277818D02*
X00493500Y00278181D01*
X00493500D02*
X00492750Y00278727D01*
X00498000*
X00492750Y00281818D02*
X00498000Y00280363D01*
X00492750Y00281818D02*
X00498000Y00283272D01*
X00496250Y00280909D02*
Y00282727D01*
X00501750Y00237272D02*
X00502250Y00236909D01*
X00503000Y00236545*
X00504000Y00236181*
X00504000D02*
X00505250Y00236000D01*
X00506250*
X00507500Y00236181*
X00507500D02*
X00508500Y00236545D01*
X00509250Y00236909*
X00509750Y00237272*
X00505250Y00241090D02*
X00504750Y00240727D01*
X00504500Y00240363*
X00504500D02*
Y00239818D01*
X00504750Y00239454*
X00504750D02*
X00505250Y00239090D01*
X00505250D02*
X00506000Y00238909D01*
X00506500*
X00507250Y00239090*
X00507250D02*
X00507750Y00239454D01*
X00507750D02*
X00508000Y00239818D01*
Y00240363*
X00508000D02*
X00507750Y00240727D01*
X00507250Y00241090*
X00501750Y00242727D02*
X00502250Y00243090D01*
X00502250D02*
X00503000Y00243454D01*
X00503000D02*
X00504000Y00243818D01*
X00505250Y00244000*
X00506250*
X00507500Y00243818*
X00508500Y00243454*
X00508500D02*
X00509250Y00243090D01*
X00509250D02*
X00509750Y00242727D01*
X00504500Y00245636D02*
X00508000D01*
X00505500D02*
X00504750Y00246181D01*
X00504750D02*
X00504500Y00246545D01*
Y00247090*
X00504500D02*
X00504750Y00247454D01*
X00504750D02*
X00505500Y00247636D01*
X00508000*
X00505500D02*
X00504750Y00248181D01*
X00504750D02*
X00504500Y00248545D01*
Y00249090*
X00504500D02*
X00504750Y00249454D01*
X00504750D02*
X00505500Y00249636D01*
X00508000*
X00502750Y00251272D02*
X00503000Y00251454D01*
X00503000D02*
X00502750Y00251636D01*
X00502500Y00251454*
X00502500D02*
X00502750Y00251272D01*
X00504500Y00251454D02*
X00508000D01*
X00502750Y00253272D02*
X00508000D01*
X00505500D02*
X00504750Y00253818D01*
X00504500Y00254181*
X00504500D02*
Y00254727D01*
X00504750Y00255090*
X00504750D02*
X00505500Y00255272D01*
X00505500D02*
X00508000D01*
X00504500Y00257818D02*
X00504750Y00257454D01*
X00504750D02*
X00505250Y00257090D01*
X00505250D02*
X00506000Y00256909D01*
X00506500*
X00507250Y00257090*
X00507250D02*
X00507750Y00257454D01*
X00507750D02*
X00508000Y00257818D01*
Y00258363*
X00508000D02*
X00507750Y00258727D01*
X00507250Y00259090*
X00507250D02*
X00506500Y00259272D01*
X00506500D02*
X00506000D01*
X00506000D02*
X00505250Y00259090D01*
X00505250D02*
X00504750Y00258727D01*
X00504500Y00258363*
X00504500D02*
Y00257818D01*
X00504000Y00264363D02*
X00503750D01*
X00503750D02*
X00503250Y00264545D01*
X00503000Y00264727*
X00502750Y00265090*
X00502750D02*
Y00265818D01*
X00503000Y00266181*
X00503000D02*
X00503250Y00266363D01*
X00503250D02*
X00503750Y00266545D01*
X00504250*
X00504750Y00266363*
X00504750D02*
X00505500Y00266000D01*
X00508000Y00264181*
X00508000D02*
Y00266727D01*
X00502750Y00269454D02*
X00503000Y00268909D01*
X00503750Y00268545*
X00505000Y00268363*
X00505000D02*
X00505750D01*
X00505750D02*
X00507000Y00268545D01*
X00507750Y00268909*
X00508000Y00269454*
X00508000D02*
Y00269818D01*
X00507750Y00270363*
X00507750D02*
X00507000Y00270727D01*
X00505750Y00270909*
X00505000*
X00503750Y00270727*
X00503000Y00270363*
X00503000D02*
X00502750Y00269818D01*
Y00269454*
Y00273636D02*
X00503000Y00273090D01*
X00503000D02*
X00503750Y00272727D01*
X00505000Y00272545*
X00505750*
X00507000Y00272727*
X00507750Y00273090*
X00507750D02*
X00508000Y00273636D01*
Y00274000*
X00507750Y00274545*
X00507000Y00274909*
X00505750Y00275090*
X00505750D02*
X00505000D01*
X00505000D02*
X00503750Y00274909D01*
X00503000Y00274545*
X00502750Y00274000*
Y00273636*
Y00278545D02*
X00506250Y00276727D01*
Y00279454*
X00502750Y00278545D02*
X00508000D01*
X00248545Y00151500D02*
X00248181Y00152000D01*
X00248181D02*
X00247636Y00152250D01*
X00246909*
X00246363Y00152000*
X00246363D02*
X00246000Y00151500D01*
Y00151000*
X00246181Y00150500*
X00246181D02*
X00246363Y00150250D01*
X00246363D02*
X00246727Y00150000D01*
X00247818Y00149500*
X00248181Y00149250*
X00248181D02*
X00248363Y00149000D01*
X00248363D02*
X00248545Y00148500D01*
Y00147750*
X00248181Y00147250*
X00248181D02*
X00247636Y00147000D01*
X00246909*
X00246363Y00147250*
X00246363D02*
X00246000Y00147750D01*
X00251454Y00152250D02*
Y00147000D01*
X00250181Y00152250D02*
X00252727D01*
X00255818D02*
X00254363Y00147000D01*
X00255818Y00152250D02*
X00257272Y00147000D01*
X00254909Y00148750D02*
X00256727D01*
X00258909Y00152250D02*
Y00147000D01*
Y00152250D02*
X00260545D01*
X00261090Y00152000*
X00261090D02*
X00261272Y00151750D01*
X00261272D02*
X00261454Y00151250D01*
X00261454D02*
Y00150750D01*
X00261454D02*
X00261272Y00150250D01*
X00261272D02*
X00261090Y00150000D01*
X00261090D02*
X00260545Y00149750D01*
X00258909*
X00260181D02*
X00261454Y00147000D01*
X00264363Y00152250D02*
Y00147000D01*
X00263090Y00152250D02*
X00265636D01*
X00349545Y00151500D02*
X00349181Y00152000D01*
X00349181D02*
X00348636Y00152250D01*
X00347909*
X00347363Y00152000*
X00347363D02*
X00347000Y00151500D01*
Y00151000*
X00347181Y00150500*
X00347181D02*
X00347363Y00150250D01*
X00347363D02*
X00347727Y00150000D01*
X00348818Y00149500*
X00349181Y00149250*
X00349181D02*
X00349363Y00149000D01*
X00349363D02*
X00349545Y00148500D01*
Y00147750*
X00349181Y00147250*
X00349181D02*
X00348636Y00147000D01*
X00347909*
X00347363Y00147250*
X00347363D02*
X00347000Y00147750D01*
X00352454Y00152250D02*
Y00147000D01*
X00351181Y00152250D02*
X00353727D01*
X00356454D02*
X00356090Y00152000D01*
X00356090D02*
X00355727Y00151500D01*
X00355545Y00151000*
X00355363Y00150250*
X00355363D02*
Y00149000D01*
X00355363D02*
X00355545Y00148250D01*
X00355727Y00147750*
X00356090Y00147250*
X00356090D02*
X00356454Y00147000D01*
X00356454D02*
X00357181D01*
X00357181D02*
X00357545Y00147250D01*
X00357909Y00147750*
X00358090Y00148250*
X00358090D02*
X00358272Y00149000D01*
X00358272D02*
Y00150250D01*
X00358272D02*
X00358090Y00151000D01*
X00358090D02*
X00357909Y00151500D01*
X00357545Y00152000*
X00357181Y00152250*
X00357181D02*
X00356454D01*
X00359909D02*
Y00147000D01*
Y00152250D02*
X00361545D01*
X00362090Y00152000*
X00362090D02*
X00362272Y00151750D01*
X00362272D02*
X00362454Y00151250D01*
X00362454D02*
Y00150500D01*
X00362454D02*
X00362272Y00150000D01*
X00362272D02*
X00362090Y00149750D01*
X00362090D02*
X00361545Y00149500D01*
X00359909*
X00447272Y00152250D02*
Y00147000D01*
X00446000Y00152250D02*
X00448545D01*
X00450181D02*
Y00147000D01*
Y00152250D02*
X00452545D01*
X00450181Y00149750D02*
X00451636D01*
X00450181Y00147000D02*
X00452545D01*
X00456727Y00151500D02*
X00456363Y00152000D01*
X00456363D02*
X00455818Y00152250D01*
X00455090*
X00455090D02*
X00454545Y00152000D01*
X00454181Y00151500*
X00454181D02*
Y00151000D01*
X00454181D02*
X00454363Y00150500D01*
X00454363D02*
X00454545Y00150250D01*
X00454909Y00150000*
X00456000Y00149500*
X00456363Y00149250*
X00456363D02*
X00456545Y00149000D01*
X00456727Y00148500*
Y00147750*
X00456363Y00147250*
X00456363D02*
X00455818Y00147000D01*
X00455090*
X00455090D02*
X00454545Y00147250D01*
X00454181Y00147750*
X00459636Y00152250D02*
Y00147000D01*
X00458363Y00152250D02*
X00460909D01*
X00162000Y00434250D02*
Y00429000D01*
Y00434250D02*
X00163636D01*
X00164181Y00434000*
X00164181D02*
X00164363Y00433750D01*
X00164363D02*
X00164545Y00433250D01*
Y00432500*
X00164363Y00432000*
X00164363D02*
X00164181Y00431750D01*
X00164181D02*
X00163636Y00431500D01*
X00162000*
X00167272Y00434250D02*
X00166909Y00434000D01*
X00166545Y00433500*
X00166363Y00433000*
X00166363D02*
X00166181Y00432250D01*
X00166181D02*
Y00431000D01*
X00166181D02*
X00166363Y00430250D01*
X00166363D02*
X00166545Y00429750D01*
X00166909Y00429250*
X00167272Y00429000*
X00167272D02*
X00168000D01*
X00168363Y00429250*
X00168363D02*
X00168727Y00429750D01*
X00168909Y00430250*
X00169090Y00431000*
X00169090D02*
Y00432250D01*
X00169090D02*
X00168909Y00433000D01*
X00168727Y00433500*
X00168363Y00434000*
X00168363D02*
X00168000Y00434250D01*
X00167272*
X00170727D02*
X00171636Y00429000D01*
X00172545Y00434250D02*
X00171636Y00429000D01*
X00172545Y00434250D02*
X00173454Y00429000D01*
X00174363Y00434250D02*
X00173454Y00429000D01*
X00176000Y00434250D02*
Y00429000D01*
Y00434250D02*
X00178363D01*
X00176000Y00431750D02*
X00177454D01*
X00176000Y00429000D02*
X00178363D01*
X00180000Y00434250D02*
Y00429000D01*
Y00434250D02*
X00181636D01*
X00182181Y00434000*
X00182181D02*
X00182363Y00433750D01*
X00182363D02*
X00182545Y00433250D01*
Y00432750*
X00182363Y00432250*
X00182363D02*
X00182181Y00432000D01*
X00182181D02*
X00181636Y00431750D01*
X00180000*
X00181272D02*
X00182545Y00429000D01*
X00163636Y00424500D02*
Y00420000D01*
X00162000Y00422250D02*
X00165272D01*
X00169272Y00423500D02*
X00169090Y00422750D01*
X00169090D02*
X00168727Y00422250D01*
X00168181Y00422000*
X00168181D02*
X00168000D01*
X00167454Y00422250*
X00167454D02*
X00167090Y00422750D01*
X00167090D02*
X00166909Y00423500D01*
Y00423750*
X00167090Y00424500*
X00167090D02*
X00167454Y00425000D01*
X00167454D02*
X00168000Y00425250D01*
X00168181*
X00168181D02*
X00168727Y00425000D01*
X00169090Y00424500*
X00169090D02*
X00169272Y00423500D01*
X00169272D02*
Y00422250D01*
X00169272D02*
X00169090Y00421000D01*
X00169090D02*
X00168727Y00420250D01*
X00168181Y00420000*
X00168181D02*
X00167818D01*
X00167272Y00420250*
X00167272D02*
X00167090Y00420750D01*
X00171090Y00420500D02*
X00170909Y00420250D01*
X00171090Y00420000*
X00171090D02*
X00171272Y00420250D01*
X00171272D02*
X00171090Y00420500D01*
X00173090D02*
X00172909Y00420250D01*
X00173090Y00420000*
X00173090D02*
X00173272Y00420250D01*
X00173272D02*
X00173090Y00420500D01*
X00174909Y00424250D02*
X00175272Y00424500D01*
X00175272D02*
X00175818Y00425250D01*
Y00420000*
X00177636Y00424000D02*
Y00424250D01*
X00177818Y00424750*
X00178000Y00425000*
X00178363Y00425250*
X00178363D02*
X00179090D01*
X00179090D02*
X00179454Y00425000D01*
X00179454D02*
X00179636Y00424750D01*
X00179818Y00424250*
Y00423750*
X00179636Y00423250*
X00179272Y00422500*
X00179272D02*
X00177454Y00420000D01*
X00177454D02*
X00180000D01*
X00181636Y00425250D02*
X00183090Y00420000D01*
X00184545Y00425250D02*
X00183090Y00420000D01*
X00133000Y00274250D02*
Y00269000D01*
Y00274250D02*
X00134636D01*
X00135181Y00274000*
X00135181D02*
X00135363Y00273750D01*
X00135363D02*
X00135545Y00273250D01*
Y00272750*
X00135363Y00272250*
X00135363D02*
X00135181Y00272000D01*
X00135181D02*
X00134636Y00271750D01*
X00133000*
X00134272D02*
X00135545Y00269000D01*
X00137181Y00274250D02*
Y00269000D01*
Y00274250D02*
X00139545D01*
X00137181Y00271750D02*
X00138636D01*
X00137181Y00269000D02*
X00139545D01*
X00143727Y00273500D02*
X00143363Y00274000D01*
X00143363D02*
X00142818Y00274250D01*
X00142090*
X00142090D02*
X00141545Y00274000D01*
X00141181Y00273500*
X00141181D02*
Y00273000D01*
X00141181D02*
X00141363Y00272500D01*
X00141363D02*
X00141545Y00272250D01*
X00141909Y00272000*
X00143000Y00271500*
X00143363Y00271250*
X00143363D02*
X00143545Y00271000D01*
X00143727Y00270500*
Y00269750*
X00143363Y00269250*
X00143363D02*
X00142818Y00269000D01*
X00142090*
X00142090D02*
X00141545Y00269250D01*
X00141181Y00269750*
X00145363Y00274250D02*
Y00269000D01*
Y00274250D02*
X00147727D01*
X00145363Y00271750D02*
X00146818D01*
X00145363Y00269000D02*
X00147727D01*
X00150636Y00274250D02*
Y00269000D01*
X00149363Y00274250D02*
X00151909D01*
X00140750Y00228000D02*
X00146000D01*
X00140750D02*
Y00229636D01*
X00141000Y00230181*
X00141000D02*
X00141250Y00230363D01*
X00141250D02*
X00141750Y00230545D01*
X00142500*
X00143000Y00230363*
X00143000D02*
X00143250Y00230181D01*
X00143250D02*
X00143500Y00229636D01*
Y00228000*
X00140750Y00232181D02*
X00146000D01*
X00142000Y00236545D02*
X00141500Y00236363D01*
X00141500D02*
X00141000Y00236000D01*
X00140750Y00235636*
Y00234909*
X00141000Y00234545*
X00141500Y00234181*
X00141500D02*
X00142000Y00234000D01*
X00142750Y00233818*
X00144000*
X00144750Y00234000*
X00145250Y00234181*
X00145250D02*
X00145750Y00234545D01*
X00146000Y00234909*
Y00235636*
X00145750Y00236000*
X00145250Y00236363*
X00145250D02*
X00144750Y00236545D01*
X00147000Y00238181D02*
Y00242000D01*
X00140750Y00243090D02*
X00146000D01*
X00141500Y00247272D02*
X00141000Y00246909D01*
X00140750Y00246363*
X00140750D02*
Y00245636D01*
X00141000Y00245090*
X00141000D02*
X00141500Y00244727D01*
X00142000*
X00142500Y00244909*
X00142750Y00245090*
X00142750D02*
X00143000Y00245454D01*
X00143000D02*
X00143500Y00246545D01*
X00143750Y00246909*
X00144000Y00247090*
X00144000D02*
X00144500Y00247272D01*
X00144500D02*
X00145250D01*
X00145250D02*
X00145750Y00246909D01*
X00146000Y00246363*
X00146000D02*
Y00245636D01*
X00145750Y00245090*
X00145750D02*
X00145250Y00244727D01*
X00140750Y00248909D02*
X00146000D01*
X00140750D02*
Y00250545D01*
X00141000Y00251090*
X00141000D02*
X00141250Y00251272D01*
X00141250D02*
X00141750Y00251454D01*
X00141750D02*
X00142500D01*
X00142500D02*
X00143000Y00251272D01*
X00143000D02*
X00143250Y00251090D01*
X00143250D02*
X00143500Y00250545D01*
Y00248909*
X00140750Y00180000D02*
X00146000D01*
X00140750D02*
Y00181636D01*
X00141000Y00182181*
X00141000D02*
X00141250Y00182363D01*
X00141250D02*
X00141750Y00182545D01*
X00142250*
X00142750Y00182363*
X00142750D02*
X00143000Y00182181D01*
X00143000D02*
X00143250Y00181636D01*
Y00180000D02*
Y00181636D01*
X00143500Y00182181*
X00143500D02*
X00143750Y00182363D01*
X00143750D02*
X00144250Y00182545D01*
X00145000*
X00145500Y00182363*
X00145500D02*
X00145750Y00182181D01*
X00145750D02*
X00146000Y00181636D01*
Y00180000*
X00140750Y00184181D02*
X00146000D01*
X00140750D02*
Y00186545D01*
X00143250Y00184181D02*
Y00185636D01*
X00146000Y00184181D02*
Y00186545D01*
X00140750Y00188181D02*
X00146000D01*
X00140750D02*
Y00190545D01*
X00143250Y00188181D02*
Y00189636D01*
X00146000Y00188181D02*
Y00190545D01*
X00140750Y00192181D02*
X00146000D01*
X00140750D02*
Y00193818D01*
X00141000Y00194363*
X00141000D02*
X00141250Y00194545D01*
X00141750Y00194727*
X00142500*
X00143000Y00194545*
X00143250Y00194363*
X00143250D02*
X00143500Y00193818D01*
Y00192181*
X00270000Y00400250D02*
Y00395000D01*
X00272181*
X00275272Y00400250D02*
X00273818Y00395000D01*
X00275272Y00400250D02*
X00276727Y00395000D01*
X00274363Y00396750D02*
X00276181D01*
X00280909Y00399500D02*
X00280545Y00400000D01*
X00280000Y00400250*
X00279272*
X00279272D02*
X00278727Y00400000D01*
X00278363Y00399500*
X00278363D02*
Y00399000D01*
X00278363D02*
X00278545Y00398500D01*
X00278727Y00398250*
X00279090Y00398000*
X00279090D02*
X00280181Y00397500D01*
X00280181D02*
X00280545Y00397250D01*
X00280727Y00397000*
X00280909Y00396500*
Y00395750*
X00280545Y00395250*
X00280000Y00395000*
X00279272*
X00279272D02*
X00278727Y00395250D01*
X00278363Y00395750*
X00282545Y00400250D02*
Y00395000D01*
Y00400250D02*
X00284909D01*
X00282545Y00397750D02*
X00284000D01*
X00282545Y00395000D02*
X00284909D01*
X00286545Y00400250D02*
Y00395000D01*
Y00400250D02*
X00288181D01*
X00288181D02*
X00288727Y00400000D01*
X00288909Y00399750*
X00289090Y00399250*
X00289090D02*
Y00398750D01*
X00289090D02*
X00288909Y00398250D01*
X00288727Y00398000*
X00288181Y00397750*
X00288181D02*
X00286545D01*
X00287818D02*
X00289090Y00395000D01*
X00315000Y00400250D02*
Y00395000D01*
Y00400250D02*
X00316636D01*
X00317181Y00400000*
X00317181D02*
X00317363Y00399750D01*
X00317363D02*
X00317545Y00399250D01*
Y00398500*
X00317363Y00398000*
X00317363D02*
X00317181Y00397750D01*
X00317181D02*
X00316636Y00397500D01*
X00315000*
X00319181Y00400250D02*
Y00395000D01*
X00321727Y00400250D02*
Y00395000D01*
X00319181Y00397750D02*
X00321727D01*
X00324454Y00400250D02*
X00324090Y00400000D01*
X00324090D02*
X00323727Y00399500D01*
X00323545Y00399000*
X00323363Y00398250*
X00323363D02*
Y00397000D01*
X00323363D02*
X00323545Y00396250D01*
X00323727Y00395750*
X00324090Y00395250*
X00324090D02*
X00324454Y00395000D01*
X00324454D02*
X00325181D01*
X00325181D02*
X00325545Y00395250D01*
X00325909Y00395750*
X00326090Y00396250*
X00326090D02*
X00326272Y00397000D01*
X00326272D02*
Y00398250D01*
X00326272D02*
X00326090Y00399000D01*
X00326090D02*
X00325909Y00399500D01*
X00325545Y00400000*
X00325181Y00400250*
X00325181D02*
X00324454D01*
X00329181D02*
Y00395000D01*
X00327909Y00400250D02*
X00330454D01*
X00333181D02*
X00332818Y00400000D01*
X00332454Y00399500*
X00332454D02*
X00332272Y00399000D01*
X00332272D02*
X00332090Y00398250D01*
X00332090D02*
Y00397000D01*
X00332090D02*
X00332272Y00396250D01*
X00332272D02*
X00332454Y00395750D01*
X00332454D02*
X00332818Y00395250D01*
X00333181Y00395000*
X00333181D02*
X00333909D01*
X00334272Y00395250*
X00334272D02*
X00334636Y00395750D01*
X00334818Y00396250*
X00335000Y00397000*
Y00398250*
X00334818Y00399000*
X00334636Y00399500*
X00334272Y00400000*
X00334272D02*
X00333909Y00400250D01*
X00333181*
X00281727Y00330000D02*
X00281545Y00330500D01*
X00281181Y00331000*
X00281181D02*
X00280818Y00331250D01*
X00280090*
X00280090D02*
X00279727Y00331000D01*
X00279363Y00330500*
X00279363D02*
X00279181Y00330000D01*
X00279181D02*
X00279000Y00329250D01*
Y00328000*
X00279181Y00327250*
X00279181D02*
X00279363Y00326750D01*
X00279363D02*
X00279727Y00326250D01*
X00280090Y00326000*
X00280090D02*
X00280818D01*
X00281181Y00326250*
X00281181D02*
X00281545Y00326750D01*
X00281727Y00327250*
X00284454Y00331250D02*
X00284090Y00331000D01*
X00284090D02*
X00283727Y00330500D01*
X00283545Y00330000*
X00283363Y00329250*
X00283363D02*
Y00328000D01*
X00283363D02*
X00283545Y00327250D01*
X00283727Y00326750*
X00284090Y00326250*
X00284090D02*
X00284454Y00326000D01*
X00284454D02*
X00285181D01*
X00285181D02*
X00285545Y00326250D01*
X00285909Y00326750*
X00286090Y00327250*
X00286090D02*
X00286272Y00328000D01*
X00286272D02*
Y00329250D01*
X00286272D02*
X00286090Y00330000D01*
X00286090D02*
X00285909Y00330500D01*
X00285545Y00331000*
X00285181Y00331250*
X00285181D02*
X00284454D01*
X00287909D02*
Y00326000D01*
Y00331250D02*
X00290454Y00326000D01*
Y00331250D02*
Y00326000D01*
X00293363Y00331250D02*
Y00326000D01*
X00292090Y00331250D02*
X00294636D01*
X00296272D02*
Y00326000D01*
Y00331250D02*
X00297909D01*
X00298454Y00331000*
X00298454D02*
X00298636Y00330750D01*
X00298818Y00330250*
Y00329750*
X00298636Y00329250*
X00298454Y00329000*
X00298454D02*
X00297909Y00328750D01*
X00296272*
X00297545D02*
X00298818Y00326000D01*
X00301909Y00331250D02*
X00300454Y00326000D01*
X00301909Y00331250D02*
X00303363Y00326000D01*
X00301000Y00327750D02*
X00302818D01*
X00307545Y00330500D02*
X00307181Y00331000D01*
X00307181D02*
X00306636Y00331250D01*
X00305909*
X00305363Y00331000*
X00305363D02*
X00305000Y00330500D01*
Y00330000*
X00305181Y00329500*
X00305181D02*
X00305363Y00329250D01*
X00305363D02*
X00305727Y00329000D01*
X00306818Y00328500*
X00307181Y00328250*
X00307181D02*
X00307363Y00328000D01*
X00307363D02*
X00307545Y00327500D01*
Y00326750*
X00307181Y00326250*
X00307181D02*
X00306636Y00326000D01*
X00305909*
X00305363Y00326250*
X00305363D02*
X00305000Y00326750D01*
X00310454Y00331250D02*
Y00326000D01*
X00309181Y00331250D02*
X00311727D01*
X00331000D02*
Y00326000D01*
X00333181*
X00336272Y00331250D02*
X00334818Y00326000D01*
X00336272Y00331250D02*
X00337727Y00326000D01*
X00335363Y00327750D02*
X00337181D01*
X00341909Y00330500D02*
X00341545Y00331000D01*
X00341000Y00331250*
X00340272*
X00340272D02*
X00339727Y00331000D01*
X00339363Y00330500*
X00339363D02*
Y00330000D01*
X00339363D02*
X00339545Y00329500D01*
X00339727Y00329250*
X00340090Y00329000*
X00340090D02*
X00341181Y00328500D01*
X00341181D02*
X00341545Y00328250D01*
X00341727Y00328000*
X00341909Y00327500*
Y00326750*
X00341545Y00326250*
X00341000Y00326000*
X00340272*
X00340272D02*
X00339727Y00326250D01*
X00339363Y00326750*
X00343545Y00331250D02*
Y00326000D01*
Y00331250D02*
X00345909D01*
X00343545Y00328750D02*
X00345000D01*
X00343545Y00326000D02*
X00345909D01*
X00347545Y00331250D02*
Y00326000D01*
Y00331250D02*
X00349181D01*
X00349181D02*
X00349727Y00331000D01*
X00349909Y00330750*
X00350090Y00330250*
X00350090D02*
Y00329750D01*
X00350090D02*
X00349909Y00329250D01*
X00349727Y00329000*
X00349181Y00328750*
X00349181D02*
X00347545D01*
X00348818D02*
X00350090Y00326000D01*
X00351727Y00330250D02*
X00352090Y00330500D01*
X00352090D02*
X00352636Y00331250D01*
Y00326000*
X00374000Y00331250D02*
Y00326000D01*
X00376181*
X00379272Y00331250D02*
X00377818Y00326000D01*
X00379272Y00331250D02*
X00380727Y00326000D01*
X00378363Y00327750D02*
X00380181D01*
X00384909Y00330500D02*
X00384545Y00331000D01*
X00384000Y00331250*
X00383272*
X00383272D02*
X00382727Y00331000D01*
X00382363Y00330500*
X00382363D02*
Y00330000D01*
X00382363D02*
X00382545Y00329500D01*
X00382727Y00329250*
X00383090Y00329000*
X00383090D02*
X00384181Y00328500D01*
X00384181D02*
X00384545Y00328250D01*
X00384727Y00328000*
X00384909Y00327500*
Y00326750*
X00384545Y00326250*
X00384000Y00326000*
X00383272*
X00383272D02*
X00382727Y00326250D01*
X00382363Y00326750*
X00386545Y00331250D02*
Y00326000D01*
Y00331250D02*
X00388909D01*
X00386545Y00328750D02*
X00388000D01*
X00386545Y00326000D02*
X00388909D01*
X00390545Y00331250D02*
Y00326000D01*
Y00331250D02*
X00392181D01*
X00392181D02*
X00392727Y00331000D01*
X00392909Y00330750*
X00393090Y00330250*
X00393090D02*
Y00329750D01*
X00393090D02*
X00392909Y00329250D01*
X00392727Y00329000*
X00392181Y00328750*
X00392181D02*
X00390545D01*
X00391818D02*
X00393090Y00326000D01*
X00394909Y00330000D02*
Y00330250D01*
X00395090Y00330750*
X00395090D02*
X00395272Y00331000D01*
X00395272D02*
X00395636Y00331250D01*
X00396363*
X00396363D02*
X00396727Y00331000D01*
X00396909Y00330750*
X00397090Y00330250*
X00397090D02*
Y00329750D01*
X00397090D02*
X00396909Y00329250D01*
X00396545Y00328500*
X00394727Y00326000*
X00397272*
X00481750Y00399000D02*
X00487000D01*
X00481750D02*
Y00400636D01*
X00482000Y00401181*
X00482000D02*
X00482250Y00401363D01*
X00482250D02*
X00482750Y00401545D01*
X00483250*
X00483750Y00401363*
X00483750D02*
X00484000Y00401181D01*
X00484000D02*
X00484250Y00400636D01*
Y00399000*
Y00400272D02*
X00487000Y00401545D01*
X00482500Y00405727D02*
X00482000Y00405363D01*
X00482000D02*
X00481750Y00404818D01*
Y00404090*
X00481750D02*
X00482000Y00403545D01*
X00482500Y00403181*
X00482500D02*
X00483000D01*
X00483000D02*
X00483500Y00403363D01*
X00483500D02*
X00483750Y00403545D01*
X00484000Y00403909*
X00484500Y00405000*
X00484750Y00405363*
X00484750D02*
X00485000Y00405545D01*
X00485500Y00405727*
X00486250*
X00486750Y00405363*
X00486750D02*
X00487000Y00404818D01*
Y00404090*
X00487000D02*
X00486750Y00403545D01*
X00486250Y00403181*
X00483000Y00407545D02*
X00482750D01*
X00482250Y00407727*
X00482000Y00407909*
X00481750Y00408272*
X00481750D02*
Y00409000D01*
X00482000Y00409363*
X00482000D02*
X00482250Y00409545D01*
X00482750Y00409727*
X00483250*
X00483750Y00409545*
X00484500Y00409181*
X00484500D02*
X00487000Y00407363D01*
X00487000D02*
Y00409909D01*
X00481750Y00411909D02*
Y00413909D01*
X00483750Y00412818*
Y00413363*
X00483750D02*
X00484000Y00413727D01*
X00484250Y00413909*
X00485000Y00414090*
X00485000D02*
X00485500D01*
X00485500D02*
X00486250Y00413909D01*
X00486750Y00413545*
X00487000Y00413000*
Y00412454*
X00487000D02*
X00486750Y00411909D01*
X00486500Y00411727*
X00486000Y00411545*
X00483000Y00415909D02*
X00482750D01*
X00482250Y00416090*
X00482250D02*
X00482000Y00416272D01*
X00482000D02*
X00481750Y00416636D01*
Y00417363*
X00481750D02*
X00482000Y00417727D01*
X00482250Y00417909*
X00482750Y00418090*
X00482750D02*
X00483250D01*
X00483250D02*
X00483750Y00417909D01*
X00484500Y00417545*
X00487000Y00415727*
Y00418272*
X00492750Y00334000D02*
X00498000D01*
X00492750D02*
Y00335636D01*
X00493000Y00336181*
X00493000D02*
X00493250Y00336363D01*
X00493250D02*
X00493750Y00336545D01*
X00494500*
X00495000Y00336363*
X00495000D02*
X00495250Y00336181D01*
X00495250D02*
X00495500Y00335636D01*
Y00334000*
X00492750Y00338181D02*
X00498000D01*
X00492750Y00340727D02*
X00498000D01*
X00495250Y00338181D02*
Y00340727D01*
X00492750Y00343454D02*
X00493000Y00343090D01*
X00493000D02*
X00493500Y00342727D01*
X00494000Y00342545*
X00494750Y00342363*
X00494750D02*
X00496000D01*
X00496000D02*
X00496750Y00342545D01*
X00497250Y00342727*
X00497750Y00343090*
X00497750D02*
X00498000Y00343454D01*
X00498000D02*
Y00344181D01*
X00498000D02*
X00497750Y00344545D01*
X00497250Y00344909*
X00496750Y00345090*
X00496750D02*
X00496000Y00345272D01*
X00496000D02*
X00494750D01*
X00494750D02*
X00494000Y00345090D01*
X00494000D02*
X00493500Y00344909D01*
X00493000Y00344545*
X00492750Y00344181*
X00492750D02*
Y00343454D01*
Y00348181D02*
X00498000D01*
X00492750Y00346909D02*
Y00349454D01*
Y00352181D02*
X00493000Y00351818D01*
X00493500Y00351454*
X00493500D02*
X00494000Y00351272D01*
X00494000D02*
X00494750Y00351090D01*
X00494750D02*
X00496000D01*
X00496000D02*
X00496750Y00351272D01*
X00496750D02*
X00497250Y00351454D01*
X00497250D02*
X00497750Y00351818D01*
X00498000Y00352181*
X00498000D02*
Y00352909D01*
X00497750Y00353272*
X00497750D02*
X00497250Y00353636D01*
X00496750Y00353818*
X00496000Y00354000*
X00494750*
X00494000Y00353818*
X00493500Y00353636*
X00493000Y00353272*
X00493000D02*
X00492750Y00352909D01*
Y00352181*
X00493500Y00361454D02*
X00493000Y00361090D01*
X00493000D02*
X00492750Y00360545D01*
Y00359818*
X00493000Y00359272*
X00493000D02*
X00493500Y00358909D01*
X00494000*
X00494500Y00359090*
X00494500D02*
X00494750Y00359272D01*
X00494750D02*
X00495000Y00359636D01*
X00495500Y00360727*
X00495750Y00361090*
X00495750D02*
X00496000Y00361272D01*
X00496000D02*
X00496500Y00361454D01*
X00496500D02*
X00497250D01*
X00497250D02*
X00497750Y00361090D01*
X00497750D02*
X00498000Y00360545D01*
Y00359818*
X00497750Y00359272*
X00497750D02*
X00497250Y00358909D01*
X00492750Y00364363D02*
X00498000D01*
X00492750Y00363090D02*
Y00365636D01*
Y00368727D02*
X00498000Y00367272D01*
X00492750Y00368727D02*
X00498000Y00370181D01*
X00496250Y00367818D02*
Y00369636D01*
X00492750Y00371818D02*
X00498000D01*
X00492750D02*
Y00373454D01*
X00492750D02*
X00493000Y00374000D01*
X00493250Y00374181*
X00493250D02*
X00493750Y00374363D01*
X00493750D02*
X00494250D01*
X00494250D02*
X00494750Y00374181D01*
X00494750D02*
X00495000Y00374000D01*
X00495250Y00373454*
X00495250D02*
Y00371818D01*
Y00373090D02*
X00498000Y00374363D01*
X00492750Y00377272D02*
X00498000D01*
X00492750Y00376000D02*
Y00378545D01*
X00502750Y00334000D02*
X00508000D01*
X00502750D02*
Y00335636D01*
X00503000Y00336181*
X00503000D02*
X00503250Y00336363D01*
X00503250D02*
X00503750Y00336545D01*
X00504500*
X00505000Y00336363*
X00505000D02*
X00505250Y00336181D01*
X00505250D02*
X00505500Y00335636D01*
Y00334000*
X00502750Y00338181D02*
X00508000D01*
X00502750Y00340727D02*
X00508000D01*
X00505250Y00338181D02*
Y00340727D01*
X00502750Y00343454D02*
X00503000Y00343090D01*
X00503000D02*
X00503500Y00342727D01*
X00504000Y00342545*
X00504750Y00342363*
X00504750D02*
X00506000D01*
X00506000D02*
X00506750Y00342545D01*
X00507250Y00342727*
X00507750Y00343090*
X00507750D02*
X00508000Y00343454D01*
X00508000D02*
Y00344181D01*
X00508000D02*
X00507750Y00344545D01*
X00507250Y00344909*
X00506750Y00345090*
X00506750D02*
X00506000Y00345272D01*
X00506000D02*
X00504750D01*
X00504750D02*
X00504000Y00345090D01*
X00504000D02*
X00503500Y00344909D01*
X00503000Y00344545*
X00502750Y00344181*
X00502750D02*
Y00343454D01*
Y00348181D02*
X00508000D01*
X00502750Y00346909D02*
Y00349454D01*
Y00352181D02*
X00503000Y00351818D01*
X00503500Y00351454*
X00503500D02*
X00504000Y00351272D01*
X00504000D02*
X00504750Y00351090D01*
X00504750D02*
X00506000D01*
X00506000D02*
X00506750Y00351272D01*
X00506750D02*
X00507250Y00351454D01*
X00507250D02*
X00507750Y00351818D01*
X00508000Y00352181*
X00508000D02*
Y00352909D01*
X00507750Y00353272*
X00507750D02*
X00507250Y00353636D01*
X00506750Y00353818*
X00506000Y00354000*
X00504750*
X00504000Y00353818*
X00503500Y00353636*
X00503000Y00353272*
X00503000D02*
X00502750Y00352909D01*
Y00352181*
X00503500Y00361454D02*
X00503000Y00361090D01*
X00503000D02*
X00502750Y00360545D01*
Y00359818*
X00503000Y00359272*
X00503000D02*
X00503500Y00358909D01*
X00504000*
X00504500Y00359090*
X00504500D02*
X00504750Y00359272D01*
X00504750D02*
X00505000Y00359636D01*
X00505500Y00360727*
X00505750Y00361090*
X00505750D02*
X00506000Y00361272D01*
X00506000D02*
X00506500Y00361454D01*
X00506500D02*
X00507250D01*
X00507250D02*
X00507750Y00361090D01*
X00507750D02*
X00508000Y00360545D01*
Y00359818*
X00507750Y00359272*
X00507750D02*
X00507250Y00358909D01*
X00502750Y00364363D02*
X00508000D01*
X00502750Y00363090D02*
Y00365636D01*
Y00368363D02*
X00503000Y00368000D01*
X00503500Y00367636*
X00504000Y00367454*
X00504000D02*
X00504750Y00367272D01*
X00504750D02*
X00506000D01*
X00506000D02*
X00506750Y00367454D01*
X00506750D02*
X00507250Y00367636D01*
X00507750Y00368000*
X00508000Y00368363*
X00508000D02*
Y00369090D01*
X00508000D02*
X00507750Y00369454D01*
X00507750D02*
X00507250Y00369818D01*
X00506750Y00370000*
X00506000Y00370181*
X00506000D02*
X00504750D01*
X00504750D02*
X00504000Y00370000D01*
X00503500Y00369818*
X00503000Y00369454*
X00503000D02*
X00502750Y00369090D01*
X00502750D02*
Y00368363D01*
Y00371818D02*
X00508000D01*
X00502750D02*
Y00373454D01*
X00502750D02*
X00503000Y00374000D01*
X00503250Y00374181*
X00503250D02*
X00503750Y00374363D01*
X00503750D02*
X00504500D01*
X00504500D02*
X00505000Y00374181D01*
X00505000D02*
X00505250Y00374000D01*
X00505500Y00373454*
X00505500D02*
Y00371818D01*
X00174636Y00342500D02*
Y00338000D01*
X00173000Y00340250D02*
X00176272D01*
G54D26*
X00140220Y00393905D02*
X00167779D01*
X00167779D02*
Y00382094D01*
X00167779D02*
X00140220D01*
Y00393905*
X00144000Y00393900D02*
Y00382300D01*
X00478417Y00389326D02*
X00355582D01*
X00355582D02*
Y00438933D01*
X00355582D02*
X00478417D01*
Y00389326*
X00451645Y00438933D02*
Y00464917D01*
X00451645D02*
X00382354D01*
Y00438933*
X00275653Y00387251D02*
Y00324259D01*
X00275653D02*
X00232346D01*
X00232346D02*
Y00387251D01*
X00232346D02*
X00275653D01*
X00173157Y00165811D02*
Y00142188D01*
X00192842Y00165811D02*
Y00142188D01*
X00173157D02*
G03X00192842I00009843J00000000D01*
G01Y00165811D02*
G03X00173157I-00009842J00000000D01*
G01X00148000Y00389937D02*
Y00386000D01*
Y00389937D02*
X00148954D01*
X00148954D02*
X00149363Y00389750D01*
X00149363D02*
X00149636Y00389375D01*
X00149772Y00389000*
X00149772D02*
X00149909Y00388437D01*
X00149909D02*
Y00387500D01*
X00149772Y00386937*
X00149772D02*
X00149636Y00386562D01*
X00149636D02*
X00149363Y00386187D01*
X00149363D02*
X00148954Y00386000D01*
X00148954D02*
X00148000D01*
X00151136Y00389187D02*
X00151409Y00389375D01*
X00151818Y00389937*
X00151818D02*
Y00386000D01*
X00416363Y00430937D02*
Y00427937D01*
X00416363D02*
X00416227Y00427375D01*
X00416090Y00427187*
X00416090D02*
X00415818Y00427000D01*
X00415545*
X00415272Y00427187*
X00415272D02*
X00415136Y00427375D01*
X00415000Y00427937*
X00415000D02*
Y00428312D01*
X00417863Y00430937D02*
X00419363D01*
X00419363D02*
X00418545Y00429437D01*
X00418545D02*
X00418954D01*
X00418954D02*
X00419227Y00429250D01*
X00419363Y00429062*
X00419363D02*
X00419500Y00428500D01*
Y00428125*
X00419363Y00427562*
X00419363D02*
X00419090Y00427187D01*
X00419090D02*
X00418681Y00427000D01*
X00418681D02*
X00418272D01*
X00418272D02*
X00417863Y00427187D01*
X00417863D02*
X00417727Y00427375D01*
X00417590Y00427750*
X00251000Y00360937D02*
Y00358125D01*
X00251136Y00357562*
X00251136D02*
X00251409Y00357187D01*
X00251409D02*
X00251818Y00357000D01*
X00252090*
X00252090D02*
X00252500Y00357187D01*
X00252500D02*
X00252772Y00357562D01*
X00252772D02*
X00252909Y00358125D01*
Y00360937*
X00254136Y00360187D02*
X00254409Y00360375D01*
X00254818Y00360937*
X00254818D02*
Y00357000D01*
X00180000Y00155937D02*
X00181909Y00152000D01*
Y00155937D02*
X00180000Y00152000D01*
X00183136Y00155187D02*
X00183409Y00155375D01*
X00183818Y00155937*
X00183818D02*
Y00152000D01*
G54D36*
X00169000Y00329000D02*
Y00370800D01*
X00230200*
Y00329000*
X00169000*
X00166000Y00340000D02*
X00169000D01*
X00166000Y00360000D02*
X00169000D01*
X00186000Y00402500D02*
Y00439000D01*
X00222000*
Y00381500*
X00213500*
X00194500D02*
X00186000D01*
Y00383500*
X00222000Y00424500D02*
X00186000D01*
X00349000Y00408000D02*
X00249000D01*
Y00439000*
X00349000*
Y00408000*
Y00428000D02*
X00249000D01*
X00437000Y00333000D02*
Y00323000D01*
X00417000*
Y00333000*
X00437000*
X00480000D02*
Y00323000D01*
X00460000*
Y00333000*
X00480000*
X00160000Y00197000D02*
Y00177000D01*
X00150000*
Y00197000*
X00160000*
X00150000Y00207000D02*
Y00267000D01*
X00160000*
Y00207000*
X00150000*
X00110000Y00110000D02*
Y00110500D01*
Y00110000D02*
X00110500D01*
X00110000D02*
Y00109500D01*
Y00110000D02*
X00109500D01*
X00111500D02*
X00116500D01*
X00110000Y00108500D02*
Y00105100D01*
Y00111500D02*
Y00116000D01*
X00104000Y00110000D02*
X00108500D01*
X00113000D02*
G03X00113000I-00003000D01*
G01X00112000D02*
G03X00112000I-00002000D01*
G01X00530000D02*
Y00110500D01*
Y00110000D02*
X00530500D01*
X00530000D02*
Y00109500D01*
Y00110000D02*
X00529500D01*
X00531500D02*
X00536500D01*
X00530000Y00108500D02*
Y00105100D01*
Y00111500D02*
Y00116000D01*
X00524000Y00110000D02*
X00528500D01*
X00533000D02*
G03X00533000I-00003000D01*
G01X00532000D02*
G03X00532000I-00002000D01*
G01X00530000Y00450000D02*
Y00450500D01*
Y00450000D02*
X00530500D01*
X00530000D02*
Y00449500D01*
Y00450000D02*
X00529500D01*
X00531500D02*
X00536500D01*
X00530000Y00448500D02*
Y00445100D01*
Y00451500D02*
Y00456000D01*
X00524000Y00450000D02*
X00528500D01*
X00533000D02*
G03X00533000I-00003000D01*
G01X00532000D02*
G03X00532000I-00002000D01*
G01X00336700Y00385000D02*
G03X00320700Y00369000I00000000J-00016000D01*
G01X00336700Y00385000D02*
X00345300D01*
X00361300Y00369000D02*
G03X00345300Y00385000I-00016000J00000000D01*
G01X00361300Y00369000D02*
Y00335000D01*
X00320700*
Y00369000*
X00352528Y00360000D02*
G03X00352528I-00011528D01*
G01X00351042Y00365280D02*
X00335676Y00349914D01*
X00346495Y00370103D02*
X00331059Y00354668D01*
X00379700Y00385000D02*
G03X00363700Y00369000I00000000J-00016000D01*
G01X00379700Y00385000D02*
X00388300D01*
X00404300Y00369000D02*
G03X00388300Y00385000I-00016000J00000000D01*
G01X00404300Y00369000D02*
Y00335000D01*
X00363700*
Y00369000*
X00395528Y00360000D02*
G03X00395528I-00011528D01*
G01X00394042Y00365280D02*
X00378676Y00349914D01*
X00389495Y00370103D02*
X00374059Y00354668D01*
X00422700Y00385000D02*
G03X00406700Y00369000I00000000J-00016000D01*
G01X00422700Y00385000D02*
X00431300D01*
X00447300Y00369000D02*
G03X00431300Y00385000I-00016000J00000000D01*
G01X00447300Y00369000D02*
Y00335000D01*
X00406700*
Y00369000*
X00438528Y00360000D02*
G03X00438528I-00011528D01*
G01X00437042Y00365280D02*
X00421676Y00349914D01*
X00432495Y00370103D02*
X00417059Y00354668D01*
X00465700Y00385000D02*
G03X00449700Y00369000I00000000J-00016000D01*
G01X00465700Y00385000D02*
X00474300D01*
X00490300Y00369000D02*
G03X00474300Y00385000I-00016000J00000000D01*
G01X00490300Y00369000D02*
Y00335000D01*
X00449700*
Y00369000*
X00481528Y00360000D02*
G03X00481528I-00011528D01*
G01X00480042Y00365280D02*
X00464676Y00349914D01*
X00475495Y00370103D02*
X00460059Y00354668D01*
X00293700Y00385000D02*
G03X00277700Y00369000I00000000J-00016000D01*
G01X00293700Y00385000D02*
X00302300D01*
X00318300Y00369000D02*
G03X00302300Y00385000I-00016000J00000000D01*
G01X00318300Y00369000D02*
Y00335000D01*
X00277700*
Y00369000*
X00309528Y00360000D02*
G03X00309528I-00011528D01*
G01X00308042Y00365280D02*
X00292676Y00349914D01*
X00303495Y00370103D02*
X00288059Y00354668D01*
X00152000Y00361000D02*
Y00365500D01*
X00121000*
Y00320500*
X00152000*
Y00325000*
X00120500Y00358000D02*
X00110500D01*
Y00349000*
X00120500*
X00238000Y00150000D02*
G03X00238000I-00018000D01*
G01X00242488Y00160026D02*
G03X00242506Y00140013I-00022948J-00010026D01*
G01X00242500Y00140000D02*
Y00160000D01*
X00338000Y00150000D02*
G03X00338000I-00018000D01*
G01X00342488Y00160026D02*
G03X00342506Y00140013I-00022948J-00010026D01*
G01X00342500Y00140000D02*
Y00160000D01*
X00438000Y00150000D02*
G03X00438000I-00018000D01*
G01X00442488Y00160026D02*
G03X00442506Y00140013I-00022948J-00010026D01*
G01X00442500Y00140000D02*
Y00160000D01*
X00130700Y00286000D02*
Y00306000D01*
X00153300*
Y00286000*
X00130700*
X00147500Y00296000D02*
G03X00147500I-00005500D01*
G01X00162000Y00321500D02*
X00478000D01*
Y00178500*
X00162000*
Y00321500*
X00182000Y00298000D02*
X00462000D01*
Y00198000*
X00182000*
Y00298000*
X00198000Y00278000D02*
X00446000D01*
Y00218000*
X00198000*
Y00278000*
X00162000Y00350045D02*
X00161625Y00349909D01*
X00161250Y00349636*
X00161062Y00349363*
X00161062D02*
Y00348818D01*
X00161062D02*
X00161250Y00348545D01*
X00161625Y00348272*
X00161625D02*
X00162000Y00348136D01*
X00162562Y00348000*
X00162562D02*
X00163500D01*
X00164062Y00348136*
X00164062D02*
X00164437Y00348272D01*
X00164437D02*
X00164812Y00348545D01*
X00164812D02*
X00165000Y00348818D01*
Y00349363*
X00165000D02*
X00164812Y00349636D01*
X00164812D02*
X00164437Y00349909D01*
X00164437D02*
X00164062Y00350045D01*
X00161812Y00351272D02*
X00161625Y00351545D01*
X00161062Y00351954*
X00161062D02*
X00165000D01*
X00201363Y00432937D02*
Y00429937D01*
X00201363D02*
X00201227Y00429375D01*
X00201090Y00429187*
X00201090D02*
X00200818Y00429000D01*
X00200545*
X00200272Y00429187*
X00200272D02*
X00200136Y00429375D01*
X00200000Y00429937*
X00200000D02*
Y00430312D01*
X00202590Y00432187D02*
X00202863Y00432375D01*
X00202863D02*
X00203272Y00432937D01*
X00203272D02*
Y00429000D01*
X00297363Y00435937D02*
Y00432937D01*
X00297363D02*
X00297227Y00432375D01*
X00297090Y00432187*
X00297090D02*
X00296818Y00432000D01*
X00296545*
X00296272Y00432187*
X00296272D02*
X00296136Y00432375D01*
X00296000Y00432937*
X00296000D02*
Y00433312D01*
X00298727Y00435000D02*
Y00435187D01*
X00298727D02*
X00298863Y00435562D01*
X00298863D02*
X00299000Y00435750D01*
X00299272Y00435937*
X00299272D02*
X00299818D01*
X00299818D02*
X00300090Y00435750D01*
X00300090D02*
X00300227Y00435562D01*
X00300227D02*
X00300363Y00435187D01*
X00300363D02*
Y00434812D01*
X00300363D02*
X00300227Y00434437D01*
X00300227D02*
X00299954Y00433875D01*
X00299954D02*
X00298590Y00432000D01*
X00298590D02*
X00300500D01*
X00411363Y00329937D02*
Y00326937D01*
X00411363D02*
X00411227Y00326375D01*
X00411090Y00326187*
X00411090D02*
X00410818Y00326000D01*
X00410545*
X00410272Y00326187*
X00410272D02*
X00410136Y00326375D01*
X00410000Y00326937*
X00410000D02*
Y00327312D01*
X00413954Y00329937D02*
X00412590Y00327312D01*
X00412590D02*
X00414636D01*
X00413954Y00329937D02*
Y00326000D01*
X00454363Y00329937D02*
Y00326937D01*
X00454363D02*
X00454227Y00326375D01*
X00454090Y00326187*
X00454090D02*
X00453818Y00326000D01*
X00453545*
X00453272Y00326187*
X00453272D02*
X00453136Y00326375D01*
X00453000Y00326937*
X00453000D02*
Y00327312D01*
X00457363Y00329937D02*
X00456000D01*
X00456000D02*
X00455863Y00328250D01*
X00455863D02*
X00456000Y00328437D01*
X00456000D02*
X00456409Y00328625D01*
X00456818*
X00457227Y00328437*
X00457227D02*
X00457500Y00328062D01*
X00457500D02*
X00457636Y00327500D01*
X00457500Y00327125*
X00457363Y00326562*
X00457363D02*
X00457090Y00326187D01*
X00457090D02*
X00456681Y00326000D01*
X00456681D02*
X00456272D01*
X00456272D02*
X00455863Y00326187D01*
X00455863D02*
X00455727Y00326375D01*
X00455590Y00326750*
X00144363Y00188937D02*
Y00185937D01*
X00144363D02*
X00144227Y00185375D01*
X00144090Y00185187*
X00144090D02*
X00143818Y00185000D01*
X00143545*
X00143272Y00185187*
X00143272D02*
X00143136Y00185375D01*
X00143000Y00185937*
X00143000D02*
Y00186312D01*
X00147227Y00188375D02*
X00147090Y00188750D01*
X00147090D02*
X00146681Y00188937D01*
X00146681D02*
X00146409D01*
X00146409D02*
X00146000Y00188750D01*
X00145727Y00188187*
X00145727D02*
X00145590Y00187250D01*
X00145590D02*
Y00186312D01*
X00145590D02*
X00145727Y00185562D01*
X00145727D02*
X00146000Y00185187D01*
X00146000D02*
X00146409Y00185000D01*
X00146545*
X00146954Y00185187*
X00146954D02*
X00147227Y00185562D01*
X00147227D02*
X00147363Y00186125D01*
X00147363D02*
Y00186312D01*
X00147363D02*
X00147227Y00186875D01*
X00146954Y00187250*
X00146954D02*
X00146545Y00187437D01*
X00146545D02*
X00146409D01*
X00146409D02*
X00146000Y00187250D01*
X00145727Y00186875*
X00145590Y00186312*
X00153363Y00243937D02*
Y00240937D01*
X00153363D02*
X00153227Y00240374D01*
X00153227D02*
X00153090Y00240187D01*
X00153090D02*
X00152818Y00239999D01*
X00152818D02*
X00152545D01*
X00152545D02*
X00152272Y00240187D01*
X00152272D02*
X00152136Y00240374D01*
X00152136D02*
X00152000Y00240937D01*
Y00241312*
X00156500Y00243937D02*
X00155136Y00239999D01*
X00154590Y00243937D02*
X00156500D01*
X00330000Y00376937D02*
Y00373000D01*
Y00376937D02*
X00331227D01*
X00331227D02*
X00331636Y00376750D01*
X00331772Y00376562*
X00331772D02*
X00331909Y00376187D01*
X00331909D02*
Y00375625D01*
X00331772Y00375250*
X00331772D02*
X00331636Y00375062D01*
X00331636D02*
X00331227Y00374875D01*
X00330000*
X00333136Y00376187D02*
X00333409Y00376375D01*
X00333818Y00376937*
X00333818D02*
Y00373000D01*
X00372000Y00376937D02*
Y00373000D01*
Y00376937D02*
X00373227D01*
X00373227D02*
X00373636Y00376750D01*
X00373772Y00376562*
X00373772D02*
X00373909Y00376187D01*
X00373909D02*
Y00375625D01*
X00373772Y00375250*
X00373772D02*
X00373636Y00375062D01*
X00373636D02*
X00373227Y00374875D01*
X00372000*
X00375272Y00376000D02*
Y00376187D01*
X00375272D02*
X00375409Y00376562D01*
X00375409D02*
X00375545Y00376750D01*
X00375818Y00376937*
X00375818D02*
X00376363D01*
X00376363D02*
X00376636Y00376750D01*
X00376772Y00376562*
X00376772D02*
X00376909Y00376187D01*
X00376909D02*
Y00375812D01*
X00376909D02*
X00376772Y00375437D01*
X00376772D02*
X00376500Y00374875D01*
X00375136Y00373000*
X00377045*
X00414000Y00377937D02*
Y00374000D01*
Y00377937D02*
X00415227D01*
X00415227D02*
X00415636Y00377750D01*
X00415772Y00377562*
X00415772D02*
X00415909Y00377187D01*
X00415909D02*
Y00376625D01*
X00415772Y00376250*
X00415772D02*
X00415636Y00376062D01*
X00415636D02*
X00415227Y00375875D01*
X00414000*
X00417409Y00377937D02*
X00418909D01*
X00418909D02*
X00418090Y00376437D01*
X00418090D02*
X00418500D01*
X00418500D02*
X00418772Y00376250D01*
X00418772D02*
X00418909Y00376062D01*
X00418909D02*
X00419045Y00375500D01*
Y00375125*
X00418909Y00374562*
X00418909D02*
X00418636Y00374187D01*
X00418636D02*
X00418227Y00374000D01*
X00417818*
X00417409Y00374187*
X00417409D02*
X00417272Y00374375D01*
X00417272D02*
X00417136Y00374750D01*
X00456000Y00376937D02*
Y00373000D01*
Y00376937D02*
X00457227D01*
X00457227D02*
X00457636Y00376750D01*
X00457772Y00376562*
X00457772D02*
X00457909Y00376187D01*
X00457909D02*
Y00375625D01*
X00457772Y00375250*
X00457772D02*
X00457636Y00375062D01*
X00457636D02*
X00457227Y00374875D01*
X00456000*
X00460500Y00376937D02*
X00459136Y00374312D01*
X00459136D02*
X00461181D01*
X00460500Y00376937D02*
Y00373000D01*
X00285000Y00378937D02*
Y00375000D01*
Y00378937D02*
X00286227D01*
X00286227D02*
X00286636Y00378750D01*
X00286772Y00378562*
X00286772D02*
X00286909Y00378187D01*
X00286909D02*
Y00377625D01*
X00286772Y00377250*
X00286772D02*
X00286636Y00377062D01*
X00286636D02*
X00286227Y00376875D01*
X00285000*
X00289909Y00378937D02*
X00288545D01*
X00288545D02*
X00288409Y00377250D01*
X00288545Y00377437*
X00288545D02*
X00288954Y00377625D01*
X00288954D02*
X00289363D01*
X00289363D02*
X00289772Y00377437D01*
X00289772D02*
X00290045Y00377062D01*
X00290045D02*
X00290181Y00376500D01*
X00290181D02*
X00290045Y00376125D01*
X00289909Y00375562*
X00289909D02*
X00289636Y00375187D01*
X00289636D02*
X00289227Y00375000D01*
X00288818*
X00288409Y00375187*
X00288409D02*
X00288272Y00375375D01*
X00288272D02*
X00288136Y00375750D01*
X00131909Y00359374D02*
X00131636Y00359749D01*
X00131636D02*
X00131227Y00359937D01*
X00130681*
X00130681D02*
X00130272Y00359749D01*
X00130272D02*
X00130000Y00359374D01*
X00130000D02*
Y00358999D01*
X00130000D02*
X00130136Y00358624D01*
X00130136D02*
X00130272Y00358437D01*
X00130272D02*
X00130545Y00358249D01*
X00130545D02*
X00131363Y00357874D01*
X00131363D02*
X00131636Y00357687D01*
X00131772Y00357499*
X00131772D02*
X00131909Y00357124D01*
X00131909D02*
Y00356562D01*
X00131636Y00356187*
X00131227Y00355999*
X00131227D02*
X00130681D01*
X00130681D02*
X00130272Y00356187D01*
X00130272D02*
X00130000Y00356562D01*
X00133136Y00359937D02*
X00133818Y00355999D01*
X00134500Y00359937D02*
X00133818Y00355999D01*
X00134500Y00359937D02*
X00135181Y00355999D01*
X00135863Y00359937D02*
X00135181Y00355999D01*
X00137909Y00359937D02*
X00137500Y00359749D01*
X00137500D02*
X00137227Y00359187D01*
X00137090Y00358249*
X00137090D02*
Y00357687D01*
X00137090D02*
X00137227Y00356749D01*
X00137227D02*
X00137500Y00356187D01*
X00137909Y00355999*
X00137909D02*
X00138181D01*
X00138181D02*
X00138590Y00356187D01*
X00138590D02*
X00138863Y00356749D01*
X00138863D02*
X00139000Y00357687D01*
Y00358249*
X00139000D02*
X00138863Y00359187D01*
X00138863D02*
X00138590Y00359749D01*
X00138590D02*
X00138181Y00359937D01*
X00138181D02*
X00137909D01*
X00217909Y00151375D02*
X00217636Y00151750D01*
X00217227Y00151937*
X00217227D02*
X00216681D01*
X00216681D02*
X00216272Y00151750D01*
X00216272D02*
X00216000Y00151375D01*
Y00151000*
X00216136Y00150625*
X00216272Y00150437*
X00216272D02*
X00216545Y00150250D01*
X00217363Y00149875*
X00217363D02*
X00217636Y00149687D01*
X00217636D02*
X00217772Y00149500D01*
X00217772D02*
X00217909Y00149125D01*
Y00148562*
X00217909D02*
X00217636Y00148187D01*
X00217636D02*
X00217227Y00148000D01*
X00216681*
X00216681D02*
X00216272Y00148187D01*
X00216272D02*
X00216000Y00148562D01*
X00219136Y00151937D02*
X00219818Y00148000D01*
X00220500Y00151937D02*
X00219818Y00148000D01*
X00220500Y00151937D02*
X00221181Y00148000D01*
X00221863Y00151937D02*
X00221181Y00148000D01*
X00223090Y00151187D02*
X00223363Y00151375D01*
X00223363D02*
X00223772Y00151937D01*
X00223772D02*
Y00148000D01*
X00317909Y00151375D02*
X00317636Y00151750D01*
X00317227Y00151937*
X00317227D02*
X00316681D01*
X00316681D02*
X00316272Y00151750D01*
X00316272D02*
X00316000Y00151375D01*
Y00151000*
X00316136Y00150625*
X00316272Y00150437*
X00316272D02*
X00316545Y00150250D01*
X00317363Y00149875*
X00317363D02*
X00317636Y00149687D01*
X00317636D02*
X00317772Y00149500D01*
X00317772D02*
X00317909Y00149125D01*
Y00148562*
X00317909D02*
X00317636Y00148187D01*
X00317636D02*
X00317227Y00148000D01*
X00316681*
X00316681D02*
X00316272Y00148187D01*
X00316272D02*
X00316000Y00148562D01*
X00319136Y00151937D02*
X00319818Y00148000D01*
X00320500Y00151937D02*
X00319818Y00148000D01*
X00320500Y00151937D02*
X00321181Y00148000D01*
X00321863Y00151937D02*
X00321181Y00148000D01*
X00323227Y00151000D02*
Y00151187D01*
X00323227D02*
X00323363Y00151562D01*
X00323363D02*
X00323500Y00151750D01*
X00323772Y00151937*
X00323772D02*
X00324318D01*
X00324318D02*
X00324590Y00151750D01*
X00324590D02*
X00324727Y00151562D01*
X00324727D02*
X00324863Y00151187D01*
X00324863D02*
Y00150812D01*
X00324863D02*
X00324727Y00150437D01*
X00324727D02*
X00324454Y00149875D01*
X00324454D02*
X00323090Y00148000D01*
X00323090D02*
X00325000D01*
X00417909Y00151375D02*
X00417636Y00151750D01*
X00417227Y00151937*
X00417227D02*
X00416681D01*
X00416681D02*
X00416272Y00151750D01*
X00416272D02*
X00416000Y00151375D01*
Y00151000*
X00416136Y00150625*
X00416272Y00150437*
X00416272D02*
X00416545Y00150250D01*
X00417363Y00149875*
X00417363D02*
X00417636Y00149687D01*
X00417636D02*
X00417772Y00149500D01*
X00417772D02*
X00417909Y00149125D01*
Y00148562*
X00417909D02*
X00417636Y00148187D01*
X00417636D02*
X00417227Y00148000D01*
X00416681*
X00416681D02*
X00416272Y00148187D01*
X00416272D02*
X00416000Y00148562D01*
X00419136Y00151937D02*
X00419818Y00148000D01*
X00420500Y00151937D02*
X00419818Y00148000D01*
X00420500Y00151937D02*
X00421181Y00148000D01*
X00421863Y00151937D02*
X00421181Y00148000D01*
X00423363Y00151937D02*
X00424863D01*
X00424863D02*
X00424045Y00150437D01*
X00424045D02*
X00424454D01*
X00424454D02*
X00424727Y00150250D01*
X00424863Y00150062*
X00424863D02*
X00425000Y00149500D01*
Y00149125*
X00424863Y00148562*
X00424863D02*
X00424590Y00148187D01*
X00424590D02*
X00424181Y00148000D01*
X00424181D02*
X00423772D01*
X00423772D02*
X00423363Y00148187D01*
X00423363D02*
X00423227Y00148375D01*
X00423090Y00148750*
X00139909Y00317374D02*
X00139636Y00317749D01*
X00139636D02*
X00139227Y00317937D01*
X00138681*
X00138681D02*
X00138272Y00317749D01*
X00138272D02*
X00138000Y00317374D01*
X00138000D02*
Y00316999D01*
X00138000D02*
X00138136Y00316624D01*
X00138136D02*
X00138272Y00316437D01*
X00138272D02*
X00138545Y00316249D01*
X00138545D02*
X00139363Y00315874D01*
X00139363D02*
X00139636Y00315687D01*
X00139772Y00315499*
X00139772D02*
X00139909Y00315124D01*
X00139909D02*
Y00314562D01*
X00139636Y00314187*
X00139227Y00313999*
X00139227D02*
X00138681D01*
X00138681D02*
X00138272Y00314187D01*
X00138272D02*
X00138000Y00314562D01*
X00141136Y00317937D02*
X00141818Y00313999D01*
X00142500Y00317937D02*
X00141818Y00313999D01*
X00142500Y00317937D02*
X00143181Y00313999D01*
X00143863Y00317937D02*
X00143181Y00313999D01*
X00146454Y00317937D02*
X00145090Y00315312D01*
X00145090D02*
X00147136D01*
X00146454Y00317937D02*
Y00313999D01*
X00192000Y00303937D02*
Y00301125D01*
X00192136Y00300562*
X00192136D02*
X00192409Y00300187D01*
X00192409D02*
X00192818Y00300000D01*
X00193090*
X00193090D02*
X00193500Y00300187D01*
X00193500D02*
X00193772Y00300562D01*
X00193772D02*
X00193909Y00301125D01*
Y00303937*
X00195272Y00303000D02*
Y00303187D01*
X00195272D02*
X00195409Y00303562D01*
X00195409D02*
X00195545Y00303750D01*
X00195818Y00303937*
X00195818D02*
X00196363D01*
X00196363D02*
X00196636Y00303750D01*
X00196772Y00303562*
X00196772D02*
X00196909Y00303187D01*
X00196909D02*
Y00302812D01*
X00196909D02*
X00196772Y00302437D01*
X00196772D02*
X00196500Y00301875D01*
X00195136Y00300000*
X00197045*
G54D60*
X00274472Y00349850D02*
X00233527D01*
G54D61*
X00264039Y00387645D02*
Y00396307D01*
X00254000Y00387645D02*
Y00396307D01*
X00243881Y00387645D02*
Y00396307D01*
G74*
X00000000Y00000000D02*
M02*
