*
*
G04 PowerPCB (Build Number 500.281.2.20) generated Gerber (RS-274-X) file*
G04 PC Version=2.1*
*
%IN "Untitled"*%
*
%MOIN*%
*
%FSLAX35Y35*%
*
*
*
*
G04 PC Standard Apertures*
*
*
G04 Thermal Relief Aperture macro.*
%AMTER*
1,1,$1,0,0*
1,0,$1-$2,0,0*
21,0,$3,$4,0,0,45*
21,0,$3,$4,0,0,135*
%
*
*
G04 Annular Aperture macro.*
%AMANN*
1,1,$1,0,0*
1,0,$2,0,0*
%
*
*
G04 Odd Aperture macro.*
%AMODD*
1,1,$1,0,0*
1,0,$1-0.005,0,0*
%
*
*
G04 PC Custom Aperture Macros*
*
*
*
*
*
*
G04 PC Aperture Table*
*
%ADD023C,0.007*%
%ADD025C,0.01*%
%ADD026C,0.00787*%
%ADD027C,0.00787*%
%ADD036C,0.008*%
*
*
*
*
G04 PC Custom Flashes*
G04 Layer Name Untitled - flashes*
%LPD*%
*
*
G04 PC Circuitry*
G04 Layer Name Untitled - circuitry*
%LPD*%
*
G54D23*
G01X00110000Y00110000D02*
Y00110500D01*
Y00110000D02*
X00110500D01*
X00110000D02*
Y00109500D01*
Y00110000D02*
X00109500D01*
X00111500D02*
X00116500D01*
X00110000Y00108500D02*
Y00105100D01*
Y00111500D02*
Y00116000D01*
X00104000Y00110000D02*
X00108500D01*
X00113000D02*
G75*
G03X00113000I-00003000D01*
G01X00112000D02*
G03X00112000I-00002000D01*
G01X00410000D02*
Y00110500D01*
Y00110000D02*
X00410500D01*
X00410000D02*
Y00109500D01*
Y00110000D02*
X00409500D01*
X00411500D02*
X00416500D01*
X00410000Y00108500D02*
Y00105100D01*
Y00111500D02*
Y00116000D01*
X00404000Y00110000D02*
X00408500D01*
X00413000D02*
G03X00413000I-00003000D01*
G01X00412000D02*
G03X00412000I-00002000D01*
G01X00410000Y00370000D02*
Y00370500D01*
Y00370000D02*
X00410500D01*
X00410000D02*
Y00369500D01*
Y00370000D02*
X00409500D01*
X00411500D02*
X00416500D01*
X00410000Y00368500D02*
Y00365100D01*
Y00371500D02*
Y00376000D01*
X00404000Y00370000D02*
X00408500D01*
X00413000D02*
G03X00413000I-00003000D01*
G01X00412000D02*
G03X00412000I-00002000D01*
G54D25*
G01X00243636Y00200500D02*
Y00196000D01*
X00242000Y00198250D02*
X00245272D01*
X00322636Y00174500D02*
Y00170000D01*
X00321000Y00172250D02*
X00324272D01*
X00237636Y00229500D02*
Y00225000D01*
X00236000Y00227250D02*
X00239272D01*
X00287636Y00143500D02*
Y00139000D01*
X00286000Y00141250D02*
X00289272D01*
X00230000Y00146250D02*
Y00141000D01*
Y00146250D02*
X00231454Y00141000D01*
X00232909Y00146250D02*
X00231454Y00141000D01*
X00232909Y00146250D02*
Y00141000D01*
X00234545Y00146250D02*
Y00141000D01*
Y00146250D02*
X00236181D01*
X00236181D02*
X00236727Y00146000D01*
X00236909Y00145750*
X00237090Y00145250*
X00237090D02*
Y00144750D01*
X00237090D02*
X00236909Y00144250D01*
X00236727Y00144000*
X00236181Y00143750*
X00234545D02*
X00236181D01*
X00236181D02*
X00236727Y00143500D01*
X00236909Y00143250*
X00237090Y00142750*
X00237090D02*
Y00142000D01*
X00237090D02*
X00236909Y00141500D01*
X00236727Y00141250*
X00236181Y00141000*
X00236181D02*
X00234545D01*
X00239818Y00146250D02*
X00239272Y00146000D01*
X00239272D02*
X00238909Y00145250D01*
X00238727Y00144000*
Y00143250*
X00238909Y00142000*
X00239272Y00141250*
X00239272D02*
X00239818Y00141000D01*
X00240181*
X00240181D02*
X00240727Y00141250D01*
X00241090Y00142000*
X00241090D02*
X00241272Y00143250D01*
X00241272D02*
Y00144000D01*
X00241272D02*
X00241090Y00145250D01*
X00241090D02*
X00240727Y00146000D01*
X00240181Y00146250*
X00240181D02*
X00239818D01*
X00242909Y00145250D02*
X00243272Y00145500D01*
X00243272D02*
X00243818Y00146250D01*
Y00141000*
X00245454Y00146250D02*
Y00141000D01*
Y00146250D02*
X00247090D01*
X00247090D02*
X00247636Y00146000D01*
X00247818Y00145750*
X00248000Y00145250*
Y00144750*
X00247818Y00144250*
X00247636Y00144000*
X00247090Y00143750*
X00245454D02*
X00247090D01*
X00247090D02*
X00247636Y00143500D01*
X00247818Y00143250*
X00248000Y00142750*
Y00142000*
X00247818Y00141500*
X00247636Y00141250*
X00247090Y00141000*
X00247090D02*
X00245454D01*
X00231272Y00137250D02*
X00230909Y00136750D01*
X00230545Y00136000*
X00230181Y00135000*
X00230181D02*
X00230000Y00133750D01*
Y00132750*
X00230181Y00131500*
X00230181D02*
X00230545Y00130500D01*
X00230909Y00129750*
X00231272Y00129250*
X00235090Y00133750D02*
X00234727Y00134250D01*
X00234363Y00134500*
X00234363D02*
X00233818D01*
X00233454Y00134250*
X00233454D02*
X00233090Y00133750D01*
X00233090D02*
X00232909Y00133000D01*
Y00132500*
X00233090Y00131750*
X00233090D02*
X00233454Y00131250D01*
X00233454D02*
X00233818Y00131000D01*
X00234363*
X00234363D02*
X00234727Y00131250D01*
X00235090Y00131750*
X00236727Y00137250D02*
X00237090Y00136750D01*
X00237090D02*
X00237454Y00136000D01*
X00237454D02*
X00237818Y00135000D01*
X00238000Y00133750*
Y00132750*
X00237818Y00131500*
X00237454Y00130500*
X00237454D02*
X00237090Y00129750D01*
X00237090D02*
X00236727Y00129250D01*
X00239636Y00134500D02*
Y00131000D01*
Y00133500D02*
X00240181Y00134250D01*
X00240181D02*
X00240545Y00134500D01*
X00241090*
X00241090D02*
X00241454Y00134250D01*
X00241454D02*
X00241636Y00133500D01*
Y00131000*
Y00133500D02*
X00242181Y00134250D01*
X00242181D02*
X00242545Y00134500D01*
X00243090*
X00243090D02*
X00243454Y00134250D01*
X00243454D02*
X00243636Y00133500D01*
Y00131000*
X00245272Y00136250D02*
X00245454Y00136000D01*
X00245454D02*
X00245636Y00136250D01*
X00245454Y00136500*
X00245454D02*
X00245272Y00136250D01*
X00245454Y00134500D02*
Y00131000D01*
X00247272Y00136250D02*
Y00131000D01*
Y00133500D02*
X00247818Y00134250D01*
X00248181Y00134500*
X00248181D02*
X00248727D01*
X00249090Y00134250*
X00249090D02*
X00249272Y00133500D01*
X00249272D02*
Y00131000D01*
X00251818Y00134500D02*
X00251454Y00134250D01*
X00251454D02*
X00251090Y00133750D01*
X00251090D02*
X00250909Y00133000D01*
Y00132500*
X00251090Y00131750*
X00251090D02*
X00251454Y00131250D01*
X00251454D02*
X00251818Y00131000D01*
X00252363*
X00252363D02*
X00252727Y00131250D01*
X00253090Y00131750*
X00253090D02*
X00253272Y00132500D01*
X00253272D02*
Y00133000D01*
X00253272D02*
X00253090Y00133750D01*
X00253090D02*
X00252727Y00134250D01*
X00252363Y00134500*
X00252363D02*
X00251818D01*
X00258363Y00135000D02*
Y00135250D01*
X00258363D02*
X00258545Y00135750D01*
X00258727Y00136000*
X00259090Y00136250*
X00259090D02*
X00259818D01*
X00260181Y00136000*
X00260181D02*
X00260363Y00135750D01*
X00260363D02*
X00260545Y00135250D01*
Y00134750*
X00260363Y00134250*
X00260363D02*
X00260000Y00133500D01*
X00258181Y00131000*
X00258181D02*
X00260727D01*
X00263454Y00136250D02*
X00262909Y00136000D01*
X00262545Y00135250*
X00262363Y00134000*
X00262363D02*
Y00133250D01*
X00262363D02*
X00262545Y00132000D01*
X00262909Y00131250*
X00263454Y00131000*
X00263454D02*
X00263818D01*
X00264363Y00131250*
X00264363D02*
X00264727Y00132000D01*
X00264909Y00133250*
Y00134000*
X00264727Y00135250*
X00264363Y00136000*
X00264363D02*
X00263818Y00136250D01*
X00263454*
X00267636D02*
X00267090Y00136000D01*
X00267090D02*
X00266727Y00135250D01*
X00266545Y00134000*
Y00133250*
X00266727Y00132000*
X00267090Y00131250*
X00267090D02*
X00267636Y00131000D01*
X00268000*
X00268545Y00131250*
X00268909Y00132000*
X00269090Y00133250*
X00269090D02*
Y00134000D01*
X00269090D02*
X00268909Y00135250D01*
X00268545Y00136000*
X00268000Y00136250*
X00267636*
X00272545D02*
X00270727Y00132750D01*
X00273454*
X00272545Y00136250D02*
Y00131000D01*
X00159000Y00355250D02*
Y00350000D01*
Y00355250D02*
X00160636D01*
X00161181Y00355000*
X00161181D02*
X00161363Y00354750D01*
X00161363D02*
X00161545Y00354250D01*
Y00353500*
X00161363Y00353000*
X00161363D02*
X00161181Y00352750D01*
X00161181D02*
X00160636Y00352500D01*
X00159000*
X00164272Y00355250D02*
X00163909Y00355000D01*
X00163545Y00354500*
X00163363Y00354000*
X00163363D02*
X00163181Y00353250D01*
X00163181D02*
Y00352000D01*
X00163181D02*
X00163363Y00351250D01*
X00163363D02*
X00163545Y00350750D01*
X00163909Y00350250*
X00164272Y00350000*
X00164272D02*
X00165000D01*
X00165363Y00350250*
X00165363D02*
X00165727Y00350750D01*
X00165909Y00351250*
X00166090Y00352000*
X00166090D02*
Y00353250D01*
X00166090D02*
X00165909Y00354000D01*
X00165727Y00354500*
X00165363Y00355000*
X00165363D02*
X00165000Y00355250D01*
X00164272*
X00167727D02*
X00168636Y00350000D01*
X00169545Y00355250D02*
X00168636Y00350000D01*
X00169545Y00355250D02*
X00170454Y00350000D01*
X00171363Y00355250D02*
X00170454Y00350000D01*
X00173000Y00355250D02*
Y00350000D01*
Y00355250D02*
X00175363D01*
X00173000Y00352750D02*
X00174454D01*
X00173000Y00350000D02*
X00175363D01*
X00177000Y00355250D02*
Y00350000D01*
Y00355250D02*
X00178636D01*
X00179181Y00355000*
X00179181D02*
X00179363Y00354750D01*
X00179363D02*
X00179545Y00354250D01*
Y00353750*
X00179363Y00353250*
X00179363D02*
X00179181Y00353000D01*
X00179181D02*
X00178636Y00352750D01*
X00177000*
X00178272D02*
X00179545Y00350000D01*
X00186818Y00353500D02*
X00186636Y00352750D01*
X00186272Y00352250*
X00186272D02*
X00185727Y00352000D01*
X00185545*
X00185000Y00352250*
X00184636Y00352750*
X00184454Y00353500*
X00184454D02*
Y00353750D01*
X00184454D02*
X00184636Y00354500D01*
X00185000Y00355000*
X00185545Y00355250*
X00185727*
X00186272Y00355000*
X00186272D02*
X00186636Y00354500D01*
X00186818Y00353500*
Y00352250*
X00186636Y00351000*
X00186272Y00350250*
X00186272D02*
X00185727Y00350000D01*
X00185363*
X00185363D02*
X00184818Y00350250D01*
X00184636Y00350750*
X00188454Y00355250D02*
X00189909Y00350000D01*
X00191363Y00355250D02*
X00189909Y00350000D01*
X00315000Y00318250D02*
Y00313000D01*
X00316636Y00318250D02*
Y00313000D01*
Y00318250D02*
X00319181Y00313000D01*
Y00318250D02*
Y00313000D01*
X00320818Y00318250D02*
Y00313000D01*
Y00318250D02*
X00322454D01*
X00322454D02*
X00323000Y00318000D01*
X00323181Y00317750*
X00323181D02*
X00323363Y00317250D01*
X00323363D02*
Y00316500D01*
X00323363D02*
X00323181Y00316000D01*
X00323181D02*
X00323000Y00315750D01*
X00322454Y00315500*
X00322454D02*
X00320818D01*
X00325000Y00318250D02*
Y00314500D01*
X00325181Y00313750*
X00325181D02*
X00325545Y00313250D01*
X00326090Y00313000*
X00326090D02*
X00326454D01*
X00326454D02*
X00327000Y00313250D01*
X00327363Y00313750*
X00327363D02*
X00327545Y00314500D01*
Y00318250*
X00330454D02*
Y00313000D01*
X00329181Y00318250D02*
X00331727D01*
X00325090Y00129250D02*
X00324727Y00129000D01*
X00324363Y00128500*
X00324363D02*
X00324181Y00128000D01*
X00324181D02*
X00324000Y00127250D01*
Y00126000*
X00324181Y00125250*
X00324181D02*
X00324363Y00124750D01*
X00324363D02*
X00324727Y00124250D01*
X00325090Y00124000*
X00325090D02*
X00325818D01*
X00326181Y00124250*
X00326181D02*
X00326545Y00124750D01*
X00326727Y00125250*
X00326909Y00126000*
Y00127250*
X00326727Y00128000*
X00326545Y00128500*
X00326181Y00129000*
X00326181D02*
X00325818Y00129250D01*
X00325090*
X00328545D02*
Y00125500D01*
X00328727Y00124750*
X00329090Y00124250*
X00329090D02*
X00329636Y00124000D01*
X00330000*
X00330545Y00124250*
X00330909Y00124750*
X00331090Y00125500*
X00331090D02*
Y00129250D01*
X00334000D02*
Y00124000D01*
X00332727Y00129250D02*
X00335272D01*
X00336909D02*
Y00124000D01*
Y00129250D02*
X00338545D01*
X00339090Y00129000*
X00339090D02*
X00339272Y00128750D01*
X00339272D02*
X00339454Y00128250D01*
X00339454D02*
Y00127500D01*
X00339454D02*
X00339272Y00127000D01*
X00339272D02*
X00339090Y00126750D01*
X00339090D02*
X00338545Y00126500D01*
X00336909*
X00341090Y00129250D02*
Y00125500D01*
X00341090D02*
X00341272Y00124750D01*
X00341272D02*
X00341636Y00124250D01*
X00342181Y00124000*
X00342181D02*
X00342545D01*
X00343090Y00124250*
X00343090D02*
X00343454Y00124750D01*
X00343454D02*
X00343636Y00125500D01*
Y00129250*
X00346545D02*
Y00124000D01*
X00345272Y00129250D02*
X00347818D01*
X00144750Y00323000D02*
X00150000D01*
X00144750Y00325545D02*
X00148250Y00323000D01*
X00147000Y00323909D02*
X00150000Y00325545D01*
X00390750Y00179000D02*
X00390500Y00179363D01*
X00390500D02*
X00389750Y00179909D01*
X00395000*
X00391000Y00219181D02*
X00390750D01*
X00390750D02*
X00390250Y00219363D01*
X00390250D02*
X00390000Y00219545D01*
X00389750Y00219909*
Y00220636*
X00390000Y00221000*
X00390250Y00221181*
X00390250D02*
X00390750Y00221363D01*
X00390750D02*
X00391250D01*
X00391250D02*
X00391750Y00221181D01*
X00391750D02*
X00392500Y00220818D01*
X00395000Y00219000*
Y00221545*
X00389750Y00259363D02*
Y00261363D01*
X00389750D02*
X00391750Y00260272D01*
X00391750D02*
Y00260818D01*
X00392000Y00261181*
X00392000D02*
X00392250Y00261363D01*
X00392250D02*
X00393000Y00261545D01*
X00393500*
X00394250Y00261363*
X00394250D02*
X00394750Y00261000D01*
X00395000Y00260454*
X00395000D02*
Y00259909D01*
X00394750Y00259363*
X00394750D02*
X00394500Y00259181D01*
X00394500D02*
X00394000Y00259000D01*
X00389750Y00300818D02*
X00393250Y00299000D01*
Y00301727*
X00389750Y00300818D02*
X00395000D01*
X00126000Y00164250D02*
Y00159000D01*
Y00164250D02*
X00127636D01*
X00128181Y00164000*
X00128181D02*
X00128363Y00163750D01*
X00128363D02*
X00128545Y00163250D01*
Y00162750*
X00128363Y00162250*
X00128363D02*
X00128181Y00162000D01*
X00128181D02*
X00127636Y00161750D01*
X00126000*
X00127272D02*
X00128545Y00159000D01*
X00132727Y00163500D02*
X00132363Y00164000D01*
X00132363D02*
X00131818Y00164250D01*
X00131090*
X00131090D02*
X00130545Y00164000D01*
X00130181Y00163500*
X00130181D02*
Y00163000D01*
X00130181D02*
X00130363Y00162500D01*
X00130363D02*
X00130545Y00162250D01*
X00130909Y00162000*
X00132000Y00161500*
X00132363Y00161250*
X00132363D02*
X00132545Y00161000D01*
X00132727Y00160500*
Y00159750*
X00132363Y00159250*
X00132363D02*
X00131818Y00159000D01*
X00131090*
X00131090D02*
X00130545Y00159250D01*
X00130181Y00159750*
X00134545Y00163000D02*
Y00163250D01*
X00134727Y00163750*
X00134909Y00164000*
X00135272Y00164250*
X00135272D02*
X00136000D01*
X00136363Y00164000*
X00136363D02*
X00136545Y00163750D01*
X00136727Y00163250*
Y00162750*
X00136545Y00162250*
X00136181Y00161500*
X00136181D02*
X00134363Y00159000D01*
X00134363D02*
X00136909D01*
X00138909Y00164250D02*
X00140909D01*
X00139818Y00162250*
X00140363*
X00140363D02*
X00140727Y00162000D01*
X00140909Y00161750*
X00141090Y00161000*
X00141090D02*
Y00160500D01*
X00141090D02*
X00140909Y00159750D01*
X00140545Y00159250*
X00140000Y00159000*
X00139454*
X00139454D02*
X00138909Y00159250D01*
X00138727Y00159500*
X00138545Y00160000*
X00142909Y00163000D02*
Y00163250D01*
X00143090Y00163750*
X00143090D02*
X00143272Y00164000D01*
X00143272D02*
X00143636Y00164250D01*
X00144363*
X00144363D02*
X00144727Y00164000D01*
X00144909Y00163750*
X00145090Y00163250*
X00145090D02*
Y00162750D01*
X00145090D02*
X00144909Y00162250D01*
X00144545Y00161500*
X00142727Y00159000*
X00145272*
X00209000Y00355250D02*
Y00350000D01*
Y00355250D02*
X00210636D01*
X00211181Y00355000*
X00211181D02*
X00211363Y00354750D01*
X00211363D02*
X00211545Y00354250D01*
Y00353500*
X00211363Y00353000*
X00211363D02*
X00211181Y00352750D01*
X00211181D02*
X00210636Y00352500D01*
X00209000*
X00215909Y00354000D02*
X00215727Y00354500D01*
X00215363Y00355000*
X00215363D02*
X00215000Y00355250D01*
X00214272*
X00214272D02*
X00213909Y00355000D01*
X00213545Y00354500*
X00213363Y00354000*
X00213363D02*
X00213181Y00353250D01*
X00213181D02*
Y00352000D01*
X00213181D02*
X00213363Y00351250D01*
X00213363D02*
X00213545Y00350750D01*
X00213909Y00350250*
X00214272Y00350000*
X00214272D02*
X00215000D01*
X00215363Y00350250*
X00215363D02*
X00215727Y00350750D01*
X00215909Y00351250*
Y00352000*
X00215000D02*
X00215909D01*
X00217545Y00355250D02*
Y00350000D01*
Y00355250D02*
X00219000Y00350000D01*
X00220454Y00355250D02*
X00219000Y00350000D01*
X00220454Y00355250D02*
Y00350000D01*
X00303000Y00262250D02*
Y00257000D01*
X00307181Y00261500D02*
X00306818Y00262000D01*
X00306272Y00262250*
X00306272D02*
X00305545D01*
X00305000Y00262000*
X00304636Y00261500*
Y00261000*
X00304818Y00260500*
X00305000Y00260250*
X00305363Y00260000*
X00305363D02*
X00306454Y00259500D01*
X00306454D02*
X00306818Y00259250D01*
X00307000Y00259000*
X00307181Y00258500*
X00307181D02*
Y00257750D01*
X00307181D02*
X00306818Y00257250D01*
X00306272Y00257000*
X00306272D02*
X00305545D01*
X00305000Y00257250*
X00304636Y00257750*
X00308818Y00262250D02*
Y00257000D01*
Y00262250D02*
X00310454D01*
X00310454D02*
X00311000Y00262000D01*
X00311181Y00261750*
X00311181D02*
X00311363Y00261250D01*
X00311363D02*
Y00260500D01*
X00311363D02*
X00311181Y00260000D01*
X00311181D02*
X00311000Y00259750D01*
X00310454Y00259500*
X00310454D02*
X00308818D01*
G54D26*
X00148905Y00295763D02*
Y00316236D01*
X00137094Y00295763D02*
Y00316236D01*
X00189763Y00176094D02*
X00210236D01*
X00189763Y00187905D02*
X00210236D01*
X00328905Y00184763D02*
Y00205236D01*
X00317094Y00184763D02*
Y00205236D01*
X00333094D02*
Y00184763D01*
X00344905Y00205236D02*
Y00184763D01*
X00248763Y00241094D02*
X00269236D01*
X00248763Y00252905D02*
X00269236D01*
X00338094Y00346236D02*
Y00325763D01*
X00349905Y00346236D02*
Y00325763D01*
X00334236Y00335905D02*
X00313763D01*
X00334236Y00324094D02*
X00313763D01*
X00334236Y00349905D02*
X00313763D01*
X00334236Y00338094D02*
X00313763D01*
X00338094Y00256236D02*
Y00235763D01*
X00349905Y00256236D02*
Y00235763D01*
X00338094Y00286236D02*
Y00265763D01*
X00349905Y00286236D02*
Y00265763D01*
X00338094Y00316236D02*
Y00295763D01*
X00349905Y00316236D02*
Y00295763D01*
X00266905Y00179763D02*
Y00200236D01*
X00255094Y00179763D02*
Y00200236D01*
X00163905Y00326779D02*
Y00299220D01*
X00163905D02*
X00152094D01*
Y00326779*
X00152094D02*
X00163905D01*
X00163900Y00323000D02*
X00152300D01*
X00265905Y00230062D02*
X00254094D01*
X00254094D02*
Y00237937D01*
X00265905*
X00265905D02*
Y00230062D01*
X00264000Y00230100D02*
Y00237700D01*
X00223850Y00310157D02*
G03Y00329842I00000000J00009843D01*
G01X00223850D02*
X00219900Y00329800D01*
X00219913Y00329842D02*
Y00310157D01*
X00223900*
X00230157Y00288149D02*
G03X00249842I00009843J00000000D01*
G01X00249842D02*
X00249800Y00292100D01*
X00249842Y00292086D02*
X00230157D01*
X00230157D02*
Y00288100D01*
X00188094Y00269220D02*
Y00296779D01*
X00188094D02*
X00199905D01*
X00199905D02*
Y00269220D01*
X00199905D02*
X00188094D01*
X00216094D02*
Y00296779D01*
X00216094D02*
X00227905D01*
X00227905D02*
Y00269220D01*
X00227905D02*
X00216094D01*
X00181220Y00244905D02*
X00208779D01*
X00208779D02*
Y00233094D01*
X00208779D02*
X00181220D01*
Y00244905*
X00208779Y00205094D02*
X00181220D01*
Y00216905*
X00181220D02*
X00208779D01*
X00208779D02*
Y00205094D01*
X00181220Y00202905D02*
X00208779D01*
X00208779D02*
Y00191094D01*
X00208779D02*
X00181220D01*
Y00202905*
X00280220Y00207905D02*
X00307779D01*
X00307779D02*
Y00196094D01*
X00307779D02*
X00280220D01*
Y00207905*
X00335779Y00211094D02*
X00308220D01*
Y00222905*
X00308220D02*
X00335779D01*
X00335779D02*
Y00211094D01*
X00184220Y00317905D02*
X00211779D01*
X00211779D02*
Y00306094D01*
X00211779D02*
X00184220D01*
Y00317905*
X00211779Y00320094D02*
X00184220D01*
Y00331905*
X00184220D02*
X00211779D01*
X00211779D02*
Y00320094D01*
X00202094Y00269220D02*
Y00296779D01*
X00202094D02*
X00213905D01*
X00213905D02*
Y00269220D01*
X00213905D02*
X00202094D01*
X00181220Y00230905D02*
X00208779D01*
X00208779D02*
Y00219094D01*
X00208779D02*
X00181220D01*
Y00230905*
X00285220Y00237905D02*
X00312779D01*
X00312779D02*
Y00226094D01*
X00312779D02*
X00285220D01*
Y00237905*
X00174094Y00269220D02*
Y00296779D01*
X00174094D02*
X00185905D01*
X00185905D02*
Y00269220D01*
X00185905D02*
X00174094D01*
X00289779Y00211094D02*
X00262220D01*
Y00222905*
X00262220D02*
X00289779D01*
X00289779D02*
Y00211094D01*
X00290157Y00343811D02*
Y00320188D01*
X00309842Y00343811D02*
Y00320188D01*
X00290157D02*
G03X00309842I00009843J00000000D01*
G01Y00343811D02*
G03X00290157I-00009842J00000000D01*
G01X00204842Y00250850D02*
G03X00185157I-00009842J00000000D01*
G01X00185200Y00246900*
X00185157Y00246913D02*
X00204842D01*
X00204842D02*
Y00250900D01*
X00234094Y00275236D02*
Y00254763D01*
X00245905Y00275236D02*
Y00254763D01*
X00312905Y00270062D02*
X00301094D01*
X00301094D02*
Y00277937D01*
X00312905*
X00312905D02*
Y00270062D01*
X00311000Y00270100D02*
Y00277700D01*
X00312905Y00280062D02*
X00301094D01*
X00301094D02*
Y00287937D01*
X00312905*
X00312905D02*
Y00280062D01*
X00311000Y00280100D02*
Y00287700D01*
X00312905Y00290062D02*
X00301094D01*
X00301094D02*
Y00297937D01*
X00312905*
X00312905D02*
Y00290062D01*
X00311000Y00290100D02*
Y00297700D01*
X00312905Y00300062D02*
X00301094D01*
X00301094D02*
Y00307937D01*
X00312905*
X00312905D02*
Y00300062D01*
X00311000Y00300100D02*
Y00307700D01*
X00236094Y00310220D02*
Y00337779D01*
X00236094D02*
X00247905D01*
X00247905D02*
Y00310220D01*
X00247905D02*
X00236094D01*
X00142000Y00306045D02*
X00141625Y00305909D01*
X00141250Y00305636*
X00141062Y00305363*
X00141062D02*
Y00304818D01*
X00141062D02*
X00141250Y00304545D01*
X00141625Y00304272*
X00141625D02*
X00142000Y00304136D01*
X00142562Y00304000*
X00142562D02*
X00143500D01*
X00144062Y00304136*
X00144062D02*
X00144437Y00304272D01*
X00144437D02*
X00144812Y00304545D01*
X00144812D02*
X00145000Y00304818D01*
Y00305363*
X00145000D02*
X00144812Y00305636D01*
X00144812D02*
X00144437Y00305909D01*
X00144437D02*
X00144062Y00306045D01*
X00141812Y00307272D02*
X00141625Y00307545D01*
X00141062Y00307954*
X00141062D02*
X00145000D01*
X00198045Y00183000D02*
X00197909Y00183375D01*
X00197636Y00183750*
X00197363Y00183937*
X00197363D02*
X00196818D01*
X00196818D02*
X00196545Y00183750D01*
X00196272Y00183375*
X00196272D02*
X00196136Y00183000D01*
X00196000Y00182437*
X00196000D02*
Y00181500D01*
X00196136Y00180937*
X00196136D02*
X00196272Y00180562D01*
X00196272D02*
X00196545Y00180187D01*
X00196545D02*
X00196818Y00180000D01*
X00197363*
X00197363D02*
X00197636Y00180187D01*
X00197636D02*
X00197909Y00180562D01*
X00197909D02*
X00198045Y00180937D01*
X00199272Y00183187D02*
X00199545Y00183375D01*
X00199954Y00183937*
X00199954D02*
Y00180000D01*
X00202545Y00183937D02*
X00201181Y00181312D01*
X00201181D02*
X00203227D01*
X00202545Y00183937D02*
Y00180000D01*
X00322000Y00193045D02*
X00321625Y00192909D01*
X00321250Y00192636*
X00321062Y00192363*
X00321062D02*
Y00191818D01*
X00321062D02*
X00321250Y00191545D01*
X00321625Y00191272*
X00321625D02*
X00322000Y00191136D01*
X00322562Y00191000*
X00322562D02*
X00323500D01*
X00324062Y00191136*
X00324062D02*
X00324437Y00191272D01*
X00324437D02*
X00324812Y00191545D01*
X00324812D02*
X00325000Y00191818D01*
Y00192363*
X00325000D02*
X00324812Y00192636D01*
X00324812D02*
X00324437Y00192909D01*
X00324437D02*
X00324062Y00193045D01*
X00321812Y00194272D02*
X00321625Y00194545D01*
X00321062Y00194954*
X00321062D02*
X00325000D01*
X00321062Y00197954D02*
Y00196590D01*
X00321062D02*
X00322750Y00196454D01*
X00322750D02*
X00322562Y00196590D01*
X00322562D02*
X00322375Y00197000D01*
Y00197409*
X00322562Y00197818*
X00322562D02*
X00322937Y00198090D01*
X00322937D02*
X00323500Y00198227D01*
X00323875Y00198090*
X00323875D02*
X00324437Y00197954D01*
X00324437D02*
X00324812Y00197681D01*
X00324812D02*
X00325000Y00197272D01*
X00325000D02*
Y00196863D01*
X00325000D02*
X00324812Y00196454D01*
X00324812D02*
X00324625Y00196318D01*
X00324250Y00196181*
X00338000Y00194045D02*
X00337625Y00193909D01*
X00337250Y00193636*
X00337062Y00193363*
X00337062D02*
Y00192818D01*
X00337062D02*
X00337250Y00192545D01*
X00337625Y00192272*
X00337625D02*
X00338000Y00192136D01*
X00338562Y00192000*
X00338562D02*
X00339500D01*
X00340062Y00192136*
X00340062D02*
X00340437Y00192272D01*
X00340437D02*
X00340812Y00192545D01*
X00340812D02*
X00341000Y00192818D01*
Y00193363*
X00341000D02*
X00340812Y00193636D01*
X00340812D02*
X00340437Y00193909D01*
X00340437D02*
X00340062Y00194045D01*
X00337812Y00195272D02*
X00337625Y00195545D01*
X00337062Y00195954*
X00337062D02*
X00341000D01*
X00337625Y00198818D02*
X00337250Y00198681D01*
X00337250D02*
X00337062Y00198272D01*
X00337062D02*
Y00198000D01*
X00337062D02*
X00337250Y00197590D01*
X00337250D02*
X00337812Y00197318D01*
X00337812D02*
X00338750Y00197181D01*
X00338750D02*
X00339687D01*
X00339687D02*
X00340437Y00197318D01*
X00340437D02*
X00340812Y00197590D01*
X00340812D02*
X00341000Y00198000D01*
Y00198136*
X00340812Y00198545*
X00340812D02*
X00340437Y00198818D01*
X00340437D02*
X00339875Y00198954D01*
X00339875D02*
X00339687D01*
X00339687D02*
X00339125Y00198818D01*
X00338750Y00198545*
X00338562Y00198136*
X00338562D02*
Y00198000D01*
X00338562D02*
X00338750Y00197590D01*
X00338750D02*
X00339125Y00197318D01*
X00339687Y00197181*
X00259045Y00248000D02*
X00258909Y00248375D01*
X00258636Y00248750*
X00258363Y00248937*
X00258363D02*
X00257818D01*
X00257818D02*
X00257545Y00248750D01*
X00257272Y00248375*
X00257272D02*
X00257136Y00248000D01*
X00257000Y00247437*
X00257000D02*
Y00246500D01*
X00257136Y00245937*
X00257136D02*
X00257272Y00245562D01*
X00257272D02*
X00257545Y00245187D01*
X00257545D02*
X00257818Y00245000D01*
X00258363*
X00258363D02*
X00258636Y00245187D01*
X00258636D02*
X00258909Y00245562D01*
X00258909D02*
X00259045Y00245937D01*
X00260409Y00248000D02*
Y00248187D01*
X00260409D02*
X00260545Y00248562D01*
X00260545D02*
X00260681Y00248750D01*
X00260681D02*
X00260954Y00248937D01*
X00260954D02*
X00261500D01*
X00261500D02*
X00261772Y00248750D01*
X00261772D02*
X00261909Y00248562D01*
X00261909D02*
X00262045Y00248187D01*
X00262045D02*
Y00247812D01*
X00262045D02*
X00261909Y00247437D01*
X00261909D02*
X00261636Y00246875D01*
X00260272Y00245000*
X00260272D02*
X00262181D01*
X00345000Y00335954D02*
X00345375Y00336090D01*
X00345375D02*
X00345750Y00336363D01*
X00345750D02*
X00345937Y00336636D01*
X00345937D02*
Y00337181D01*
X00345937D02*
X00345750Y00337454D01*
X00345750D02*
X00345375Y00337727D01*
X00345000Y00337863*
X00345000D02*
X00344437Y00337999D01*
X00344437D02*
X00343500D01*
X00343500D02*
X00342937Y00337863D01*
X00342937D02*
X00342562Y00337727D01*
X00342562D02*
X00342187Y00337454D01*
X00342187D02*
X00342000Y00337181D01*
X00342000D02*
Y00336636D01*
X00342187Y00336363*
X00342187D02*
X00342562Y00336090D01*
X00342562D02*
X00342937Y00335954D01*
X00344625Y00332954D02*
X00344062Y00333090D01*
X00344062D02*
X00343687Y00333363D01*
X00343687D02*
X00343500Y00333772D01*
X00343500D02*
Y00333909D01*
X00343687Y00334318*
X00343687D02*
X00344062Y00334590D01*
X00344062D02*
X00344625Y00334727D01*
X00344812*
X00344812D02*
X00345375Y00334590D01*
X00345375D02*
X00345750Y00334318D01*
X00345937Y00333909*
X00345937D02*
Y00333772D01*
X00345937D02*
X00345750Y00333363D01*
X00345750D02*
X00345375Y00333090D01*
X00345375D02*
X00344625Y00332954D01*
X00344625D02*
X00343687D01*
X00343687D02*
X00342750Y00333090D01*
X00342750D02*
X00342187Y00333363D01*
X00342187D02*
X00342000Y00333772D01*
X00342000D02*
Y00334045D01*
X00342187Y00334454*
X00342187D02*
X00342562Y00334590D01*
X00324045Y00331000D02*
X00323909Y00331375D01*
X00323636Y00331750*
X00323363Y00331937*
X00323363D02*
X00322818D01*
X00322818D02*
X00322545Y00331750D01*
X00322272Y00331375*
X00322272D02*
X00322136Y00331000D01*
X00322000Y00330437*
X00322000D02*
Y00329500D01*
X00322136Y00328937*
X00322136D02*
X00322272Y00328562D01*
X00322272D02*
X00322545Y00328187D01*
X00322545D02*
X00322818Y00328000D01*
X00323363*
X00323363D02*
X00323636Y00328187D01*
X00323636D02*
X00323909Y00328562D01*
X00323909D02*
X00324045Y00328937D01*
X00326636Y00331937D02*
X00325272Y00329312D01*
X00325272D02*
X00327318D01*
X00326636Y00331937D02*
Y00328000D01*
X00324954Y00343000D02*
X00325090Y00342625D01*
X00325090D02*
X00325363Y00342250D01*
X00325363D02*
X00325636Y00342062D01*
X00325636D02*
X00326181D01*
X00326181D02*
X00326454Y00342250D01*
X00326454D02*
X00326727Y00342625D01*
X00326863Y00343000*
X00326863D02*
X00326999Y00343562D01*
X00326999D02*
Y00344500D01*
X00326999D02*
X00326863Y00345062D01*
X00326863D02*
X00326727Y00345437D01*
X00326727D02*
X00326454Y00345812D01*
X00326454D02*
X00326181Y00346000D01*
X00326181D02*
X00325636D01*
X00325363Y00345812*
X00325363D02*
X00325090Y00345437D01*
X00325090D02*
X00324954Y00345062D01*
X00321954Y00342062D02*
X00323318D01*
X00323318D02*
X00323454Y00343750D01*
X00323454D02*
X00323318Y00343562D01*
X00323318D02*
X00322909Y00343375D01*
X00322499*
X00322499D02*
X00322090Y00343562D01*
X00322090D02*
X00321818Y00343937D01*
X00321818D02*
X00321681Y00344500D01*
X00321681D02*
X00321818Y00344875D01*
X00321954Y00345437*
X00321954D02*
X00322227Y00345812D01*
X00322227D02*
X00322636Y00346000D01*
X00323045*
X00323454Y00345812*
X00323454D02*
X00323590Y00345625D01*
X00323590D02*
X00323727Y00345250D01*
X00343000Y00246045D02*
X00342625Y00245909D01*
X00342250Y00245636*
X00342062Y00245363*
X00342062D02*
Y00244818D01*
X00342062D02*
X00342250Y00244545D01*
X00342625Y00244272*
X00342625D02*
X00343000Y00244136D01*
X00343562Y00244000*
X00343562D02*
X00344500D01*
X00345062Y00244136*
X00345062D02*
X00345437Y00244272D01*
X00345437D02*
X00345812Y00244545D01*
X00345812D02*
X00346000Y00244818D01*
Y00245363*
X00346000D02*
X00345812Y00245636D01*
X00345812D02*
X00345437Y00245909D01*
X00345437D02*
X00345062Y00246045D01*
X00342625Y00248909D02*
X00342250Y00248772D01*
X00342250D02*
X00342062Y00248363D01*
X00342062D02*
Y00248090D01*
X00342062D02*
X00342250Y00247681D01*
X00342250D02*
X00342812Y00247409D01*
X00342812D02*
X00343750Y00247272D01*
X00343750D02*
X00344687D01*
X00344687D02*
X00345437Y00247409D01*
X00345437D02*
X00345812Y00247681D01*
X00345812D02*
X00346000Y00248090D01*
X00346000D02*
Y00248227D01*
X00345812Y00248636*
X00345812D02*
X00345437Y00248909D01*
X00345437D02*
X00344875Y00249045D01*
X00344687*
X00344687D02*
X00344125Y00248909D01*
X00343750Y00248636*
X00343562Y00248227*
X00343562D02*
Y00248090D01*
X00343562D02*
X00343750Y00247681D01*
X00343750D02*
X00344125Y00247409D01*
X00344687Y00247272*
X00345000Y00275954D02*
X00345375Y00276090D01*
X00345375D02*
X00345750Y00276363D01*
X00345750D02*
X00345937Y00276636D01*
X00345937D02*
Y00277181D01*
X00345937D02*
X00345750Y00277454D01*
X00345750D02*
X00345375Y00277727D01*
X00345000Y00277863*
X00345000D02*
X00344437Y00277999D01*
X00344437D02*
X00343500D01*
X00343500D02*
X00342937Y00277863D01*
X00342937D02*
X00342562Y00277727D01*
X00342562D02*
X00342187Y00277454D01*
X00342187D02*
X00342000Y00277181D01*
X00342000D02*
Y00276636D01*
X00342187Y00276363*
X00342187D02*
X00342562Y00276090D01*
X00342562D02*
X00342937Y00275954D01*
X00345937Y00272818D02*
X00342000Y00274181D01*
X00345937Y00274727D02*
Y00272818D01*
X00343000Y00305045D02*
X00342625Y00304909D01*
X00342250Y00304636*
X00342062Y00304363*
X00342062D02*
Y00303818D01*
X00342062D02*
X00342250Y00303545D01*
X00342625Y00303272*
X00342625D02*
X00343000Y00303136D01*
X00343562Y00303000*
X00343562D02*
X00344500D01*
X00345062Y00303136*
X00345062D02*
X00345437Y00303272D01*
X00345437D02*
X00345812Y00303545D01*
X00345812D02*
X00346000Y00303818D01*
Y00304363*
X00346000D02*
X00345812Y00304636D01*
X00345812D02*
X00345437Y00304909D01*
X00345437D02*
X00345062Y00305045D01*
X00342062Y00306954D02*
X00342250Y00306545D01*
X00342625Y00306409*
X00343000*
X00343375Y00306545*
X00343562Y00306818*
X00343562D02*
X00343750Y00307363D01*
X00343750D02*
X00343937Y00307772D01*
X00343937D02*
X00344312Y00308045D01*
X00344312D02*
X00344687Y00308181D01*
X00344687D02*
X00345250D01*
X00345250D02*
X00345625Y00308045D01*
X00345812Y00307909*
X00345812D02*
X00346000Y00307500D01*
Y00306954*
X00346000D02*
X00345812Y00306545D01*
X00345812D02*
X00345625Y00306409D01*
X00345250Y00306272*
X00345250D02*
X00344687D01*
X00344687D02*
X00344312Y00306409D01*
X00344312D02*
X00343937Y00306681D01*
X00343937D02*
X00343750Y00307090D01*
X00343750D02*
X00343562Y00307636D01*
X00343562D02*
X00343375Y00307909D01*
X00343000Y00308045*
X00342625*
X00342250Y00307909*
X00342062Y00307500*
X00342062D02*
Y00306954D01*
X00260000Y00189045D02*
X00259625Y00188909D01*
X00259250Y00188636*
X00259062Y00188363*
X00259062D02*
Y00187818D01*
X00259062D02*
X00259250Y00187545D01*
X00259625Y00187272*
X00259625D02*
X00260000Y00187136D01*
X00260562Y00187000*
X00260562D02*
X00261500D01*
X00262062Y00187136*
X00262062D02*
X00262437Y00187272D01*
X00262437D02*
X00262812Y00187545D01*
X00262812D02*
X00263000Y00187818D01*
Y00188363*
X00263000D02*
X00262812Y00188636D01*
X00262812D02*
X00262437Y00188909D01*
X00262437D02*
X00262062Y00189045D01*
X00259812Y00190272D02*
X00259625Y00190545D01*
X00259062Y00190954*
X00259062D02*
X00263000D01*
X00259062Y00193000D02*
X00259250Y00192590D01*
X00259250D02*
X00259812Y00192318D01*
X00259812D02*
X00260750Y00192181D01*
X00260750D02*
X00261312D01*
X00261312D02*
X00262250Y00192318D01*
X00262812Y00192590*
X00262812D02*
X00263000Y00193000D01*
Y00193272*
X00263000D02*
X00262812Y00193681D01*
X00262812D02*
X00262250Y00193954D01*
X00262250D02*
X00261312Y00194090D01*
X00261312D02*
X00260750D01*
X00260750D02*
X00259812Y00193954D01*
X00259812D02*
X00259250Y00193681D01*
X00259250D02*
X00259062Y00193272D01*
X00259062D02*
Y00193000D01*
X00156062Y00310000D02*
X00160000D01*
X00156062D02*
Y00310954D01*
X00156062D02*
X00156250Y00311363D01*
X00156250D02*
X00156625Y00311636D01*
X00157000Y00311772*
X00157000D02*
X00157562Y00311909D01*
X00157562D02*
X00158500D01*
X00159062Y00311772*
X00159062D02*
X00159437Y00311636D01*
X00159437D02*
X00159812Y00311363D01*
X00159812D02*
X00160000Y00310954D01*
X00160000D02*
Y00310000D01*
X00156812Y00313136D02*
X00156625Y00313409D01*
X00156062Y00313818*
X00156062D02*
X00160000D01*
X00257000Y00235937D02*
Y00232000D01*
Y00235937D02*
X00257954D01*
X00257954D02*
X00258363Y00235750D01*
X00258363D02*
X00258636Y00235375D01*
X00258772Y00235000*
X00258772D02*
X00258909Y00234437D01*
X00258909D02*
Y00233500D01*
X00258772Y00232937*
X00258772D02*
X00258636Y00232562D01*
X00258636D02*
X00258363Y00232187D01*
X00258363D02*
X00257954Y00232000D01*
X00257954D02*
X00257000D01*
X00260272Y00235000D02*
Y00235187D01*
X00260272D02*
X00260409Y00235562D01*
X00260409D02*
X00260545Y00235750D01*
X00260818Y00235937*
X00260818D02*
X00261363D01*
X00261363D02*
X00261636Y00235750D01*
X00261772Y00235562*
X00261772D02*
X00261909Y00235187D01*
X00261909D02*
Y00234812D01*
X00261909D02*
X00261772Y00234437D01*
X00261772D02*
X00261500Y00233875D01*
X00260136Y00232000*
X00262045*
X00159263Y00164937D02*
Y00161937D01*
X00159263D02*
X00159127Y00161375D01*
X00158990Y00161187*
X00158990D02*
X00158718Y00161000D01*
X00158445*
X00158172Y00161187*
X00158172D02*
X00158036Y00161375D01*
X00157900Y00161937*
X00157900D02*
Y00162312D01*
X00161854Y00164937D02*
X00160490Y00162312D01*
X00160490D02*
X00162536D01*
X00161854Y00164937D02*
Y00161000D01*
X00220818Y00335937D02*
X00220545Y00335750D01*
X00220272Y00335375*
X00220272D02*
X00220136Y00335000D01*
X00220000Y00334437*
X00220000D02*
Y00333500D01*
X00220136Y00332937*
X00220136D02*
X00220272Y00332562D01*
X00220272D02*
X00220545Y00332187D01*
X00220545D02*
X00220818Y00332000D01*
X00221363*
X00221363D02*
X00221636Y00332187D01*
X00221636D02*
X00221909Y00332562D01*
X00221909D02*
X00222045Y00332937D01*
X00222045D02*
X00222181Y00333500D01*
X00222181D02*
Y00334437D01*
X00222181D02*
X00222045Y00335000D01*
X00221909Y00335375*
X00221636Y00335750*
X00221363Y00335937*
X00221363D02*
X00220818D01*
X00221227Y00332750D02*
X00222045Y00331625D01*
X00223409Y00335187D02*
X00223681Y00335375D01*
X00223681D02*
X00224090Y00335937D01*
X00224090D02*
Y00332000D01*
X00231818Y00298937D02*
X00231545Y00298750D01*
X00231272Y00298375*
X00231272D02*
X00231136Y00298000D01*
X00231000Y00297437*
X00231000D02*
Y00296500D01*
X00231136Y00295937*
X00231136D02*
X00231272Y00295562D01*
X00231272D02*
X00231545Y00295187D01*
X00231545D02*
X00231818Y00295000D01*
X00232363*
X00232363D02*
X00232636Y00295187D01*
X00232636D02*
X00232909Y00295562D01*
X00232909D02*
X00233045Y00295937D01*
X00233045D02*
X00233181Y00296500D01*
X00233181D02*
Y00297437D01*
X00233181D02*
X00233045Y00298000D01*
X00232909Y00298375*
X00232636Y00298750*
X00232363Y00298937*
X00232363D02*
X00231818D01*
X00232227Y00295750D02*
X00233045Y00294625D01*
X00234545Y00298000D02*
Y00298187D01*
X00234545D02*
X00234681Y00298562D01*
X00234681D02*
X00234818Y00298750D01*
X00235090Y00298937*
X00235090D02*
X00235636D01*
X00235636D02*
X00235909Y00298750D01*
X00236045Y00298562*
X00236045D02*
X00236181Y00298187D01*
X00236181D02*
Y00297812D01*
X00236181D02*
X00236045Y00297437D01*
X00236045D02*
X00235772Y00296875D01*
X00235772D02*
X00234409Y00295000D01*
X00236318*
X00192062Y00281000D02*
X00196000D01*
X00192062D02*
Y00282227D01*
X00192062D02*
X00192250Y00282636D01*
X00192437Y00282772*
X00192437D02*
X00192812Y00282909D01*
X00192812D02*
X00193187D01*
X00193187D02*
X00193562Y00282772D01*
X00193562D02*
X00193750Y00282636D01*
X00193937Y00282227*
X00193937D02*
Y00281000D01*
Y00281954D02*
X00196000Y00282909D01*
X00192812Y00284136D02*
X00192625Y00284409D01*
X00192062Y00284818*
X00192062D02*
X00196000D01*
X00220062Y00281000D02*
X00224000D01*
X00220062D02*
Y00282227D01*
X00220062D02*
X00220250Y00282636D01*
X00220437Y00282772*
X00220437D02*
X00220812Y00282909D01*
X00220812D02*
X00221187D01*
X00221187D02*
X00221562Y00282772D01*
X00221562D02*
X00221750Y00282636D01*
X00221937Y00282227*
X00221937D02*
Y00281000D01*
Y00281954D02*
X00224000Y00282909D01*
X00220812Y00284136D02*
X00220625Y00284409D01*
X00220062Y00284818*
X00220062D02*
X00224000D01*
X00220812Y00286045D02*
X00220625Y00286318D01*
X00220062Y00286727*
X00220062D02*
X00224000D01*
X00191000Y00240937D02*
Y00237000D01*
Y00240937D02*
X00192227D01*
X00192227D02*
X00192636Y00240750D01*
X00192772Y00240562*
X00192772D02*
X00192909Y00240187D01*
X00192909D02*
Y00239812D01*
X00192909D02*
X00192772Y00239437D01*
X00192772D02*
X00192636Y00239250D01*
X00192227Y00239062*
X00192227D02*
X00191000D01*
X00191954D02*
X00192909Y00237000D01*
X00194136Y00240187D02*
X00194409Y00240375D01*
X00194818Y00240937*
X00194818D02*
Y00237000D01*
X00196863Y00240937D02*
X00196454Y00240750D01*
X00196454D02*
X00196181Y00240187D01*
X00196181D02*
X00196045Y00239250D01*
Y00238687*
X00196045D02*
X00196181Y00237750D01*
X00196181D02*
X00196454Y00237187D01*
X00196454D02*
X00196863Y00237000D01*
X00196863D02*
X00197136D01*
X00197545Y00237187*
X00197545D02*
X00197818Y00237750D01*
X00197954Y00238687*
X00197954D02*
Y00239250D01*
X00197954D02*
X00197818Y00240187D01*
X00197818D02*
X00197545Y00240750D01*
X00197136Y00240937*
X00197136D02*
X00196863D01*
X00191000Y00212937D02*
Y00209000D01*
Y00212937D02*
X00192227D01*
X00192227D02*
X00192636Y00212750D01*
X00192772Y00212562*
X00192772D02*
X00192909Y00212187D01*
X00192909D02*
Y00211812D01*
X00192909D02*
X00192772Y00211437D01*
X00192772D02*
X00192636Y00211250D01*
X00192227Y00211062*
X00192227D02*
X00191000D01*
X00191954D02*
X00192909Y00209000D01*
X00194136Y00212187D02*
X00194409Y00212375D01*
X00194818Y00212937*
X00194818D02*
Y00209000D01*
X00196181Y00212000D02*
Y00212187D01*
X00196181D02*
X00196318Y00212562D01*
X00196318D02*
X00196454Y00212750D01*
X00196454D02*
X00196727Y00212937D01*
X00196727D02*
X00197272D01*
X00197272D02*
X00197545Y00212750D01*
X00197681Y00212562*
X00197681D02*
X00197818Y00212187D01*
X00197818D02*
Y00211812D01*
X00197818D02*
X00197681Y00211437D01*
X00197681D02*
X00197409Y00210875D01*
X00196045Y00209000*
X00197954*
X00191000Y00198937D02*
Y00195000D01*
Y00198937D02*
X00192227D01*
X00192227D02*
X00192636Y00198750D01*
X00192772Y00198562*
X00192772D02*
X00192909Y00198187D01*
X00192909D02*
Y00197812D01*
X00192909D02*
X00192772Y00197437D01*
X00192772D02*
X00192636Y00197250D01*
X00192227Y00197062*
X00192227D02*
X00191000D01*
X00191954D02*
X00192909Y00195000D01*
X00194136Y00198187D02*
X00194409Y00198375D01*
X00194818Y00198937*
X00194818D02*
Y00195000D01*
X00196318Y00198937D02*
X00197818D01*
X00197818D02*
X00197000Y00197437D01*
X00197000D02*
X00197409D01*
X00197409D02*
X00197681Y00197250D01*
X00197681D02*
X00197818Y00197062D01*
X00197818D02*
X00197954Y00196500D01*
X00197954D02*
Y00196125D01*
X00197954D02*
X00197818Y00195562D01*
X00197818D02*
X00197545Y00195187D01*
X00197545D02*
X00197136Y00195000D01*
X00196727*
X00196318Y00195187*
X00196318D02*
X00196181Y00195375D01*
X00196181D02*
X00196045Y00195750D01*
X00291000Y00203937D02*
Y00200000D01*
Y00203937D02*
X00292227D01*
X00292227D02*
X00292636Y00203750D01*
X00292772Y00203562*
X00292772D02*
X00292909Y00203187D01*
X00292909D02*
Y00202812D01*
X00292909D02*
X00292772Y00202437D01*
X00292772D02*
X00292636Y00202250D01*
X00292227Y00202062*
X00292227D02*
X00291000D01*
X00291954D02*
X00292909Y00200000D01*
X00294136Y00203187D02*
X00294409Y00203375D01*
X00294818Y00203937*
X00294818D02*
Y00200000D01*
X00297409Y00203937D02*
X00296045Y00201312D01*
X00296045D02*
X00298090D01*
X00297409Y00203937D02*
Y00200000D01*
X00319000Y00218937D02*
Y00215000D01*
Y00218937D02*
X00320227D01*
X00320227D02*
X00320636Y00218750D01*
X00320772Y00218562*
X00320772D02*
X00320909Y00218187D01*
X00320909D02*
Y00217812D01*
X00320909D02*
X00320772Y00217437D01*
X00320772D02*
X00320636Y00217250D01*
X00320227Y00217062*
X00320227D02*
X00319000D01*
X00319954D02*
X00320909Y00215000D01*
X00322136Y00218187D02*
X00322409Y00218375D01*
X00322818Y00218937*
X00322818D02*
Y00215000D01*
X00325818Y00218937D02*
X00324454D01*
X00324454D02*
X00324318Y00217250D01*
X00324454Y00217437*
X00324454D02*
X00324863Y00217625D01*
X00324863D02*
X00325272D01*
X00325272D02*
X00325681Y00217437D01*
X00325681D02*
X00325954Y00217062D01*
X00325954D02*
X00326090Y00216500D01*
X00326090D02*
X00325954Y00216125D01*
X00325954D02*
X00325818Y00215562D01*
X00325818D02*
X00325545Y00215187D01*
X00325545D02*
X00325136Y00215000D01*
X00324727*
X00324318Y00215187*
X00324318D02*
X00324181Y00215375D01*
X00324181D02*
X00324045Y00215750D01*
X00195000Y00313937D02*
Y00310000D01*
Y00313937D02*
X00196227D01*
X00196227D02*
X00196636Y00313750D01*
X00196772Y00313562*
X00196772D02*
X00196909Y00313187D01*
X00196909D02*
Y00312812D01*
X00196909D02*
X00196772Y00312437D01*
X00196772D02*
X00196636Y00312250D01*
X00196227Y00312062*
X00196227D02*
X00195000D01*
X00195954D02*
X00196909Y00310000D01*
X00198272Y00313000D02*
Y00313187D01*
X00198272D02*
X00198409Y00313562D01*
X00198409D02*
X00198545Y00313750D01*
X00198818Y00313937*
X00198818D02*
X00199363D01*
X00199363D02*
X00199636Y00313750D01*
X00199772Y00313562*
X00199772D02*
X00199909Y00313187D01*
X00199909D02*
Y00312812D01*
X00199909D02*
X00199772Y00312437D01*
X00199772D02*
X00199500Y00311875D01*
X00198136Y00310000*
X00200045*
X00195000Y00327937D02*
Y00324000D01*
Y00327937D02*
X00196227D01*
X00196227D02*
X00196636Y00327750D01*
X00196772Y00327562*
X00196772D02*
X00196909Y00327187D01*
X00196909D02*
Y00326812D01*
X00196909D02*
X00196772Y00326437D01*
X00196772D02*
X00196636Y00326250D01*
X00196227Y00326062*
X00196227D02*
X00195000D01*
X00195954D02*
X00196909Y00324000D01*
X00199500Y00327937D02*
X00198136Y00325312D01*
X00198136D02*
X00200181D01*
X00199500Y00327937D02*
Y00324000D01*
X00206062Y00281000D02*
X00210000D01*
X00206062D02*
Y00282227D01*
X00206062D02*
X00206250Y00282636D01*
X00206437Y00282772*
X00206437D02*
X00206812Y00282909D01*
X00206812D02*
X00207187D01*
X00207187D02*
X00207562Y00282772D01*
X00207562D02*
X00207750Y00282636D01*
X00207937Y00282227*
X00207937D02*
Y00281000D01*
Y00281954D02*
X00210000Y00282909D01*
X00206062Y00285909D02*
Y00284545D01*
X00206062D02*
X00207750Y00284409D01*
X00207562Y00284545*
X00207562D02*
X00207375Y00284954D01*
X00207375D02*
Y00285363D01*
X00207375D02*
X00207562Y00285772D01*
X00207562D02*
X00207937Y00286045D01*
X00207937D02*
X00208500Y00286181D01*
X00208500D02*
X00208875Y00286045D01*
X00209437Y00285909*
X00209437D02*
X00209812Y00285636D01*
X00209812D02*
X00210000Y00285227D01*
Y00284818*
X00209812Y00284409*
X00209812D02*
X00209625Y00284272D01*
X00209625D02*
X00209250Y00284136D01*
X00192000Y00227937D02*
Y00224000D01*
Y00227937D02*
X00193227D01*
X00193227D02*
X00193636Y00227750D01*
X00193772Y00227562*
X00193772D02*
X00193909Y00227187D01*
X00193909D02*
Y00226812D01*
X00193909D02*
X00193772Y00226437D01*
X00193772D02*
X00193636Y00226250D01*
X00193227Y00226062*
X00193227D02*
X00192000D01*
X00192954D02*
X00193909Y00224000D01*
X00197045Y00227937D02*
X00195681Y00224000D01*
X00195136Y00227937D02*
X00197045D01*
X00295000Y00233937D02*
Y00230000D01*
Y00233937D02*
X00296227D01*
X00296227D02*
X00296636Y00233750D01*
X00296772Y00233562*
X00296772D02*
X00296909Y00233187D01*
X00296909D02*
Y00232812D01*
X00296909D02*
X00296772Y00232437D01*
X00296772D02*
X00296636Y00232250D01*
X00296227Y00232062*
X00296227D02*
X00295000D01*
X00295954D02*
X00296909Y00230000D01*
X00299772Y00233375D02*
X00299636Y00233750D01*
X00299227Y00233937*
X00299227D02*
X00298954D01*
X00298954D02*
X00298545Y00233750D01*
X00298272Y00233187*
X00298272D02*
X00298136Y00232250D01*
Y00231312*
X00298136D02*
X00298272Y00230562D01*
X00298272D02*
X00298545Y00230187D01*
X00298545D02*
X00298954Y00230000D01*
X00298954D02*
X00299090D01*
X00299090D02*
X00299500Y00230187D01*
X00299500D02*
X00299772Y00230562D01*
X00299772D02*
X00299909Y00231125D01*
Y00231312*
X00299909D02*
X00299772Y00231875D01*
X00299772D02*
X00299500Y00232250D01*
X00299090Y00232437*
X00299090D02*
X00298954D01*
X00298954D02*
X00298545Y00232250D01*
X00298272Y00231875*
X00298272D02*
X00298136Y00231312D01*
X00178062Y00281000D02*
X00182000D01*
X00178062D02*
Y00282227D01*
X00178062D02*
X00178250Y00282636D01*
X00178437Y00282772*
X00178437D02*
X00178812Y00282909D01*
X00178812D02*
X00179187D01*
X00179187D02*
X00179562Y00282772D01*
X00179562D02*
X00179750Y00282636D01*
X00179937Y00282227*
X00179937D02*
Y00281000D01*
Y00281954D02*
X00182000Y00282909D01*
X00178062Y00284818D02*
X00178250Y00284409D01*
X00178625Y00284272*
X00178625D02*
X00179000D01*
X00179000D02*
X00179375Y00284409D01*
X00179562Y00284681*
X00179562D02*
X00179750Y00285227D01*
X00179937Y00285636*
X00179937D02*
X00180312Y00285909D01*
X00180312D02*
X00180687Y00286045D01*
X00180687D02*
X00181250D01*
X00181625Y00285909*
X00181812Y00285772*
X00181812D02*
X00182000Y00285363D01*
X00182000D02*
Y00284818D01*
X00181812Y00284409*
X00181812D02*
X00181625Y00284272D01*
X00181625D02*
X00181250Y00284136D01*
X00180687*
X00180687D02*
X00180312Y00284272D01*
X00180312D02*
X00179937Y00284545D01*
X00179937D02*
X00179750Y00284954D01*
X00179750D02*
X00179562Y00285500D01*
X00179562D02*
X00179375Y00285772D01*
X00179375D02*
X00179000Y00285909D01*
X00178625*
X00178250Y00285772*
X00178250D02*
X00178062Y00285363D01*
X00178062D02*
Y00284818D01*
X00273000Y00218937D02*
Y00215000D01*
Y00218937D02*
X00274227D01*
X00274227D02*
X00274636Y00218750D01*
X00274772Y00218562*
X00274772D02*
X00274909Y00218187D01*
X00274909D02*
Y00217812D01*
X00274909D02*
X00274772Y00217437D01*
X00274772D02*
X00274636Y00217250D01*
X00274227Y00217062*
X00274227D02*
X00273000D01*
X00273954D02*
X00274909Y00215000D01*
X00277909Y00217625D02*
X00277772Y00217062D01*
X00277772D02*
X00277500Y00216687D01*
X00277500D02*
X00277090Y00216500D01*
X00277090D02*
X00276954D01*
X00276954D02*
X00276545Y00216687D01*
X00276545D02*
X00276272Y00217062D01*
X00276272D02*
X00276136Y00217625D01*
Y00217812*
X00276136D02*
X00276272Y00218375D01*
X00276272D02*
X00276545Y00218750D01*
X00276954Y00218937*
X00276954D02*
X00277090D01*
X00277090D02*
X00277500Y00218750D01*
X00277772Y00218375*
X00277772D02*
X00277909Y00217625D01*
Y00216687*
X00277909D02*
X00277772Y00215750D01*
X00277772D02*
X00277500Y00215187D01*
X00277500D02*
X00277090Y00215000D01*
X00277090D02*
X00276818D01*
X00276409Y00215187*
X00276409D02*
X00276272Y00215562D01*
X00298062Y00330000D02*
X00302000Y00331909D01*
X00298062D02*
X00302000Y00330000D01*
X00298812Y00333136D02*
X00298625Y00333409D01*
X00298062Y00333818*
X00298062D02*
X00302000D01*
X00179818Y00257937D02*
X00179545Y00257750D01*
X00179272Y00257375*
X00179272D02*
X00179136Y00257000D01*
X00179000Y00256437*
X00179000D02*
Y00255500D01*
X00179136Y00254937*
X00179136D02*
X00179272Y00254562D01*
X00179272D02*
X00179545Y00254187D01*
X00179545D02*
X00179818Y00254000D01*
X00180363*
X00180363D02*
X00180636Y00254187D01*
X00180636D02*
X00180909Y00254562D01*
X00180909D02*
X00181045Y00254937D01*
X00181045D02*
X00181181Y00255500D01*
X00181181D02*
Y00256437D01*
X00181181D02*
X00181045Y00257000D01*
X00180909Y00257375*
X00180636Y00257750*
X00180363Y00257937*
X00180363D02*
X00179818D01*
X00180227Y00254750D02*
X00181045Y00253625D01*
X00182681Y00257937D02*
X00184181D01*
X00184181D02*
X00183363Y00256437D01*
X00183363D02*
X00183772D01*
X00183772D02*
X00184045Y00256250D01*
X00184181Y00256062*
X00184181D02*
X00184318Y00255500D01*
Y00255125*
X00184181Y00254562*
X00184181D02*
X00183909Y00254187D01*
X00183909D02*
X00183500Y00254000D01*
X00183090*
X00183090D02*
X00182681Y00254187D01*
X00182681D02*
X00182545Y00254375D01*
X00182409Y00254750*
X00239000Y00264045D02*
X00238625Y00263909D01*
X00238250Y00263636*
X00238062Y00263363*
X00238062D02*
Y00262818D01*
X00238062D02*
X00238250Y00262545D01*
X00238625Y00262272*
X00238625D02*
X00239000Y00262136D01*
X00239562Y00262000*
X00239562D02*
X00240500D01*
X00241062Y00262136*
X00241062D02*
X00241437Y00262272D01*
X00241437D02*
X00241812Y00262545D01*
X00241812D02*
X00242000Y00262818D01*
Y00263363*
X00242000D02*
X00241812Y00263636D01*
X00241812D02*
X00241437Y00263909D01*
X00241437D02*
X00241062Y00264045D01*
X00238062Y00265545D02*
Y00267045D01*
X00238062D02*
X00239562Y00266227D01*
X00239562D02*
Y00266636D01*
X00239562D02*
X00239750Y00266909D01*
X00239937Y00267045*
X00239937D02*
X00240500Y00267181D01*
X00240500D02*
X00240875D01*
X00240875D02*
X00241437Y00267045D01*
X00241437D02*
X00241812Y00266772D01*
X00241812D02*
X00242000Y00266363D01*
X00242000D02*
Y00265954D01*
X00242000D02*
X00241812Y00265545D01*
X00241812D02*
X00241625Y00265409D01*
X00241250Y00265272*
X00304000Y00275937D02*
Y00272000D01*
Y00275937D02*
X00304954D01*
X00304954D02*
X00305363Y00275750D01*
X00305363D02*
X00305636Y00275375D01*
X00305772Y00275000*
X00305772D02*
X00305909Y00274437D01*
X00305909D02*
Y00273500D01*
X00305772Y00272937*
X00305772D02*
X00305636Y00272562D01*
X00305636D02*
X00305363Y00272187D01*
X00305363D02*
X00304954Y00272000D01*
X00304954D02*
X00304000D01*
X00307409Y00275937D02*
X00308909D01*
X00308909D02*
X00308090Y00274437D01*
X00308090D02*
X00308500D01*
X00308500D02*
X00308772Y00274250D01*
X00308772D02*
X00308909Y00274062D01*
X00308909D02*
X00309045Y00273500D01*
Y00273125*
X00308909Y00272562*
X00308909D02*
X00308636Y00272187D01*
X00308636D02*
X00308227Y00272000D01*
X00307818*
X00307409Y00272187*
X00307409D02*
X00307272Y00272375D01*
X00307272D02*
X00307136Y00272750D01*
X00304000Y00285937D02*
Y00282000D01*
Y00285937D02*
X00304954D01*
X00304954D02*
X00305363Y00285750D01*
X00305363D02*
X00305636Y00285375D01*
X00305772Y00285000*
X00305772D02*
X00305909Y00284437D01*
X00305909D02*
Y00283500D01*
X00305772Y00282937*
X00305772D02*
X00305636Y00282562D01*
X00305636D02*
X00305363Y00282187D01*
X00305363D02*
X00304954Y00282000D01*
X00304954D02*
X00304000D01*
X00308500Y00285937D02*
X00307136Y00283312D01*
X00307136D02*
X00309181D01*
X00308500Y00285937D02*
Y00282000D01*
X00304000Y00295937D02*
Y00292000D01*
Y00295937D02*
X00304954D01*
X00304954D02*
X00305363Y00295750D01*
X00305363D02*
X00305636Y00295375D01*
X00305772Y00295000*
X00305772D02*
X00305909Y00294437D01*
X00305909D02*
Y00293500D01*
X00305772Y00292937*
X00305772D02*
X00305636Y00292562D01*
X00305636D02*
X00305363Y00292187D01*
X00305363D02*
X00304954Y00292000D01*
X00304954D02*
X00304000D01*
X00308909Y00295937D02*
X00307545D01*
X00307545D02*
X00307409Y00294250D01*
X00307545Y00294437*
X00307545D02*
X00307954Y00294625D01*
X00307954D02*
X00308363D01*
X00308363D02*
X00308772Y00294437D01*
X00308772D02*
X00309045Y00294062D01*
X00309045D02*
X00309181Y00293500D01*
X00309181D02*
X00309045Y00293125D01*
X00308909Y00292562*
X00308909D02*
X00308636Y00292187D01*
X00308636D02*
X00308227Y00292000D01*
X00307818*
X00307409Y00292187*
X00307409D02*
X00307272Y00292375D01*
X00307272D02*
X00307136Y00292750D01*
X00304000Y00305937D02*
Y00302000D01*
Y00305937D02*
X00304954D01*
X00304954D02*
X00305363Y00305750D01*
X00305363D02*
X00305636Y00305375D01*
X00305772Y00305000*
X00305772D02*
X00305909Y00304437D01*
X00305909D02*
Y00303500D01*
X00305772Y00302937*
X00305772D02*
X00305636Y00302562D01*
X00305636D02*
X00305363Y00302187D01*
X00305363D02*
X00304954Y00302000D01*
X00304954D02*
X00304000D01*
X00308772Y00305375D02*
X00308636Y00305750D01*
X00308227Y00305937*
X00308227D02*
X00307954D01*
X00307954D02*
X00307545Y00305750D01*
X00307272Y00305187*
X00307272D02*
X00307136Y00304250D01*
Y00303312*
X00307136D02*
X00307272Y00302562D01*
X00307272D02*
X00307545Y00302187D01*
X00307545D02*
X00307954Y00302000D01*
X00307954D02*
X00308090D01*
X00308090D02*
X00308500Y00302187D01*
X00308500D02*
X00308772Y00302562D01*
X00308772D02*
X00308909Y00303125D01*
Y00303312*
X00308909D02*
X00308772Y00303875D01*
X00308772D02*
X00308500Y00304250D01*
X00308090Y00304437*
X00308090D02*
X00307954D01*
X00307954D02*
X00307545Y00304250D01*
X00307272Y00303875*
X00307272D02*
X00307136Y00303312D01*
X00240062Y00321000D02*
X00244000D01*
X00240062D02*
Y00322227D01*
X00240062D02*
X00240250Y00322636D01*
X00240437Y00322772*
X00240437D02*
X00240812Y00322909D01*
X00240812D02*
X00241187D01*
X00241187D02*
X00241562Y00322772D01*
X00241562D02*
X00241750Y00322636D01*
X00241937Y00322227*
X00241937D02*
Y00321000D01*
Y00321954D02*
X00244000Y00322909D01*
X00240062Y00324409D02*
Y00325909D01*
X00240062D02*
X00241562Y00325090D01*
X00241562D02*
Y00325500D01*
X00241562D02*
X00241750Y00325772D01*
X00241750D02*
X00241937Y00325909D01*
X00241937D02*
X00242500Y00326045D01*
X00242875*
X00243437Y00325909*
X00243437D02*
X00243812Y00325636D01*
X00243812D02*
X00244000Y00325227D01*
Y00324818*
X00243812Y00324409*
X00243812D02*
X00243625Y00324272D01*
X00243625D02*
X00243250Y00324136D01*
G54D27*
X00172173Y00291417D02*
Y00168582D01*
X00172173D02*
X00120874D01*
X00120874D02*
Y00291417D01*
X00172173*
X00120874Y00264645D02*
X00094889D01*
X00094889D02*
Y00195354D01*
X00094889D02*
X00120874D01*
G54D36*
X00253000Y00191000D02*
G03X00253000I-00017000D01*
G01X00304500Y00137000D02*
G03X00304500I-00010500D01*
G01X00243500Y00221000D02*
G03X00243500I-00010500D01*
G01X00348000Y00164000D02*
G03X00348000I-00017000D01*
G01X00265905Y00234000D02*
X00268661D01*
X00254094D02*
X00251338D01*
X00160000Y00348000D02*
X00190000D01*
Y00338000*
X00160000*
Y00348000*
X00320000Y00142000D02*
X00350000D01*
Y00132000*
X00320000*
Y00142000*
X00325000Y00259000D02*
Y00309000D01*
X00335000*
Y00259000*
X00325000*
X00205000Y00348000D02*
X00225000D01*
Y00338000*
X00205000*
Y00348000*
X00274000Y00253000D02*
X00334000D01*
Y00243000*
X00274000*
Y00253000*
X00110000Y00110000D02*
Y00110500D01*
Y00110000D02*
X00110500D01*
X00110000D02*
Y00109500D01*
Y00110000D02*
X00109500D01*
X00111500D02*
X00116500D01*
X00110000Y00108500D02*
Y00105100D01*
Y00111500D02*
Y00116000D01*
X00104000Y00110000D02*
X00108500D01*
X00113000D02*
G03X00113000I-00003000D01*
G01X00112000D02*
G03X00112000I-00002000D01*
G01X00410000D02*
Y00110500D01*
Y00110000D02*
X00410500D01*
X00410000D02*
Y00109500D01*
Y00110000D02*
X00409500D01*
X00411500D02*
X00416500D01*
X00410000Y00108500D02*
Y00105100D01*
Y00111500D02*
Y00116000D01*
X00404000Y00110000D02*
X00408500D01*
X00413000D02*
G03X00413000I-00003000D01*
G01X00412000D02*
G03X00412000I-00002000D01*
G01X00410000Y00370000D02*
Y00370500D01*
Y00370000D02*
X00410500D01*
X00410000D02*
Y00369500D01*
Y00370000D02*
X00409500D01*
X00411500D02*
X00416500D01*
X00410000Y00368500D02*
Y00365100D01*
Y00371500D02*
Y00376000D01*
X00404000Y00370000D02*
X00408500D01*
X00413000D02*
G03X00413000I-00003000D01*
G01X00412000D02*
G03X00412000I-00002000D01*
G01X00174000Y00146700D02*
G03X00190000Y00130700I00016000J00000000D01*
G01X00174000Y00146700D02*
Y00155300D01*
X00190000Y00171300D02*
G03X00174000Y00155300I00000000J-00016000D01*
G01X00190000Y00171300D02*
X00224000D01*
Y00130700*
X00190000*
X00210528Y00151000D02*
G03X00210528I-00011528D01*
G01X00193719Y00161042D02*
X00209085Y00145676D01*
X00188896Y00156495D02*
X00204331Y00141059D01*
X00380500Y00180000D02*
G03X00380500I-00005500D01*
G01X00362900Y00184500D02*
Y00175500D01*
X00387100Y00184500D02*
Y00175500D01*
X00386200Y00167900D02*
X00363800D01*
X00386200Y00192100D02*
X00363800D01*
X00380500Y00220000D02*
G03X00380500I-00005500D01*
G01X00362900Y00224500D02*
Y00215500D01*
X00387100Y00224500D02*
Y00215500D01*
X00386200Y00207900D02*
X00363800D01*
X00386200Y00232100D02*
X00363800D01*
X00380500Y00260000D02*
G03X00380500I-00005500D01*
G01X00362900Y00264500D02*
Y00255500D01*
X00387100Y00264500D02*
Y00255500D01*
X00386200Y00247900D02*
X00363800D01*
X00386200Y00272100D02*
X00363800D01*
X00380500Y00300000D02*
G03X00380500I-00005500D01*
G01X00362900Y00304500D02*
Y00295500D01*
X00387100Y00304500D02*
Y00295500D01*
X00386200Y00287900D02*
X00363800D01*
X00386200Y00312100D02*
X00363800D01*
X00260000Y00350000D02*
X00267000D01*
Y00344000*
X00273000*
Y00350000*
X00280000*
Y00260000*
X00260000*
Y00350000*
X00282000Y00190000D02*
X00289000D01*
Y00184000*
X00295000*
Y00190000*
X00302000*
Y00150000*
X00282000*
Y00190000*
X00312905Y00274000D02*
X00315661D01*
X00301094D02*
X00298338D01*
X00312905Y00284000D02*
X00315661D01*
X00301094D02*
X00298338D01*
X00312905Y00294000D02*
X00315661D01*
X00301094D02*
X00298338D01*
X00312905Y00304000D02*
X00315661D01*
X00301094D02*
X00298338D01*
X00228045Y00192000D02*
X00227909Y00192375D01*
X00227636Y00192750*
X00227363Y00192937*
X00227363D02*
X00226818D01*
X00226818D02*
X00226545Y00192750D01*
X00226272Y00192375*
X00226272D02*
X00226136Y00192000D01*
X00226000Y00191437*
X00226000D02*
Y00190500D01*
X00226136Y00189937*
X00226136D02*
X00226272Y00189562D01*
X00226272D02*
X00226545Y00189187D01*
X00226545D02*
X00226818Y00189000D01*
X00227363*
X00227363D02*
X00227636Y00189187D01*
X00227636D02*
X00227909Y00189562D01*
X00227909D02*
X00228045Y00189937D01*
X00229272Y00192187D02*
X00229545Y00192375D01*
X00229954Y00192937*
X00229954D02*
Y00189000D01*
X00231181Y00192187D02*
X00231454Y00192375D01*
X00231454D02*
X00231863Y00192937D01*
X00231863D02*
Y00189000D01*
X00307045Y00145000D02*
X00306909Y00145375D01*
X00306636Y00145750*
X00306363Y00145937*
X00306363D02*
X00305818D01*
X00305818D02*
X00305545Y00145750D01*
X00305272Y00145375*
X00305272D02*
X00305136Y00145000D01*
X00304999Y00144437*
X00304999D02*
Y00143500D01*
X00304999D02*
X00305136Y00142937D01*
X00305136D02*
X00305272Y00142562D01*
X00305272D02*
X00305545Y00142187D01*
X00305545D02*
X00305818Y00142000D01*
X00306363*
X00306363D02*
X00306636Y00142187D01*
X00306636D02*
X00306909Y00142562D01*
X00306909D02*
X00307045Y00142937D01*
X00308272Y00145187D02*
X00308545Y00145375D01*
X00308954Y00145937*
X00308954D02*
Y00142000D01*
X00310318Y00145000D02*
Y00145187D01*
X00310318D02*
X00310454Y00145562D01*
X00310454D02*
X00310590Y00145750D01*
X00310590D02*
X00310863Y00145937D01*
X00310863D02*
X00311409D01*
X00311409D02*
X00311681Y00145750D01*
X00311681D02*
X00311818Y00145562D01*
X00311818D02*
X00311954Y00145187D01*
X00311954D02*
Y00144812D01*
X00311954D02*
X00311818Y00144437D01*
X00311818D02*
X00311545Y00143875D01*
X00310181Y00142000*
X00310181D02*
X00312090D01*
X00245045Y00213000D02*
X00244909Y00213375D01*
X00244636Y00213750*
X00244363Y00213937*
X00244363D02*
X00243818D01*
X00243818D02*
X00243545Y00213750D01*
X00243272Y00213375*
X00243272D02*
X00243136Y00213000D01*
X00243000Y00212437*
X00243000D02*
Y00211500D01*
X00243136Y00210937*
X00243136D02*
X00243272Y00210562D01*
X00243272D02*
X00243545Y00210187D01*
X00243545D02*
X00243818Y00210000D01*
X00244363*
X00244363D02*
X00244636Y00210187D01*
X00244636D02*
X00244909Y00210562D01*
X00244909D02*
X00245045Y00210937D01*
X00246272Y00213187D02*
X00246545Y00213375D01*
X00246954Y00213937*
X00246954D02*
Y00210000D01*
X00248454Y00213937D02*
X00249954D01*
X00249954D02*
X00249136Y00212437D01*
X00249136D02*
X00249545D01*
X00249545D02*
X00249818Y00212250D01*
X00249954Y00212062*
X00249954D02*
X00250090Y00211500D01*
X00250090D02*
Y00211125D01*
X00250090D02*
X00249954Y00210562D01*
X00249954D02*
X00249681Y00210187D01*
X00249681D02*
X00249272Y00210000D01*
X00249272D02*
X00248863D01*
X00248863D02*
X00248454Y00210187D01*
X00248454D02*
X00248318Y00210375D01*
X00248181Y00210750*
X00330045Y00171000D02*
X00329909Y00171375D01*
X00329636Y00171750*
X00329363Y00171937*
X00329363D02*
X00328818D01*
X00328818D02*
X00328545Y00171750D01*
X00328272Y00171375*
X00328272D02*
X00328136Y00171000D01*
X00328000Y00170437*
X00328000D02*
Y00169500D01*
X00328136Y00168937*
X00328136D02*
X00328272Y00168562D01*
X00328272D02*
X00328545Y00168187D01*
X00328545D02*
X00328818Y00168000D01*
X00329363*
X00329363D02*
X00329636Y00168187D01*
X00329636D02*
X00329909Y00168562D01*
X00329909D02*
X00330045Y00168937D01*
X00331272Y00171187D02*
X00331545Y00171375D01*
X00331954Y00171937*
X00331954D02*
Y00168000D01*
X00335090Y00171937D02*
X00333727Y00168000D01*
X00333181Y00171937D02*
X00335090D01*
X00156363Y00344937D02*
Y00341937D01*
X00156363D02*
X00156227Y00341375D01*
X00156090Y00341187*
X00156090D02*
X00155818Y00341000D01*
X00155545*
X00155272Y00341187*
X00155272D02*
X00155136Y00341375D01*
X00155000Y00341937*
X00155000D02*
Y00342312D01*
X00157590Y00344187D02*
X00157863Y00344375D01*
X00157863D02*
X00158272Y00344937D01*
X00158272D02*
Y00341000D01*
X00314363Y00138937D02*
Y00135937D01*
X00314363D02*
X00314227Y00135375D01*
X00314090Y00135187*
X00314090D02*
X00313818Y00135000D01*
X00313545*
X00313272Y00135187*
X00313272D02*
X00313136Y00135375D01*
X00313000Y00135937*
X00313000D02*
Y00136312D01*
X00315727Y00138000D02*
Y00138187D01*
X00315727D02*
X00315863Y00138562D01*
X00315863D02*
X00316000Y00138750D01*
X00316272Y00138937*
X00316272D02*
X00316818D01*
X00316818D02*
X00317090Y00138750D01*
X00317090D02*
X00317227Y00138562D01*
X00317227D02*
X00317363Y00138187D01*
X00317363D02*
Y00137812D01*
X00317363D02*
X00317227Y00137437D01*
X00317227D02*
X00316954Y00136875D01*
X00316954D02*
X00315590Y00135000D01*
X00315590D02*
X00317500D01*
X00318062Y00263363D02*
X00321062D01*
X00321062D02*
X00321625Y00263227D01*
X00321812Y00263090*
X00321812D02*
X00322000Y00262818D01*
Y00262545*
X00321812Y00262272*
X00321812D02*
X00321625Y00262136D01*
X00321062Y00262000*
X00321062D02*
X00320687D01*
X00318062Y00264863D02*
Y00266363D01*
X00318062D02*
X00319562Y00265545D01*
X00319562D02*
Y00265954D01*
X00319562D02*
X00319750Y00266227D01*
X00319937Y00266363*
X00319937D02*
X00320500Y00266500D01*
X00320875*
X00321437Y00266363*
X00321437D02*
X00321812Y00266090D01*
X00321812D02*
X00322000Y00265681D01*
X00322000D02*
Y00265272D01*
X00322000D02*
X00321812Y00264863D01*
X00321812D02*
X00321625Y00264727D01*
X00321250Y00264590*
X00199363Y00344937D02*
Y00341937D01*
X00199363D02*
X00199227Y00341375D01*
X00199090Y00341187*
X00199090D02*
X00198818Y00341000D01*
X00198545*
X00198272Y00341187*
X00198272D02*
X00198136Y00341375D01*
X00198000Y00341937*
X00198000D02*
Y00342312D01*
X00202363Y00344937D02*
X00201000D01*
X00201000D02*
X00200863Y00343250D01*
X00200863D02*
X00201000Y00343437D01*
X00201000D02*
X00201409Y00343625D01*
X00201818*
X00202227Y00343437*
X00202227D02*
X00202500Y00343062D01*
X00202500D02*
X00202636Y00342500D01*
X00202500Y00342125*
X00202363Y00341562*
X00202363D02*
X00202090Y00341187D01*
X00202090D02*
X00201681Y00341000D01*
X00201681D02*
X00201272D01*
X00201272D02*
X00200863Y00341187D01*
X00200863D02*
X00200727Y00341375D01*
X00200590Y00341750*
X00289363Y00259937D02*
Y00256937D01*
X00289363D02*
X00289227Y00256375D01*
X00289090Y00256187*
X00289090D02*
X00288818Y00256000D01*
X00288545*
X00288272Y00256187*
X00288272D02*
X00288136Y00256375D01*
X00288000Y00256937*
X00288000D02*
Y00257312D01*
X00292227Y00259375D02*
X00292090Y00259750D01*
X00292090D02*
X00291681Y00259937D01*
X00291681D02*
X00291409D01*
X00291409D02*
X00291000Y00259750D01*
X00290727Y00259187*
X00290727D02*
X00290590Y00258250D01*
X00290590D02*
Y00257312D01*
X00290590D02*
X00290727Y00256562D01*
X00290727D02*
X00291000Y00256187D01*
X00291000D02*
X00291409Y00256000D01*
X00291545*
X00291954Y00256187*
X00291954D02*
X00292227Y00256562D01*
X00292227D02*
X00292363Y00257125D01*
X00292363D02*
Y00257312D01*
X00292363D02*
X00292227Y00257875D01*
X00291954Y00258250*
X00291954D02*
X00291545Y00258437D01*
X00291545D02*
X00291409D01*
X00291409D02*
X00291000Y00258250D01*
X00290727Y00257875*
X00290590Y00257312*
X00167000Y00152937D02*
Y00149000D01*
Y00152937D02*
X00168227D01*
X00168227D02*
X00168636Y00152750D01*
X00168772Y00152562*
X00168772D02*
X00168909Y00152187D01*
X00168909D02*
Y00151625D01*
X00168772Y00151250*
X00168772D02*
X00168636Y00151062D01*
X00168636D02*
X00168227Y00150875D01*
X00167000*
X00170136Y00152187D02*
X00170409Y00152375D01*
X00170818Y00152937*
X00170818D02*
Y00149000D01*
X00372909Y00197375D02*
X00372636Y00197750D01*
X00372227Y00197937*
X00372227D02*
X00371681D01*
X00371681D02*
X00371272Y00197750D01*
X00371272D02*
X00371000Y00197375D01*
Y00197000*
X00371136Y00196625*
X00371272Y00196437*
X00371272D02*
X00371545Y00196250D01*
X00372363Y00195875*
X00372363D02*
X00372636Y00195687D01*
X00372636D02*
X00372772Y00195500D01*
X00372772D02*
X00372909Y00195125D01*
Y00194562*
X00372909D02*
X00372636Y00194187D01*
X00372636D02*
X00372227Y00194000D01*
X00371681*
X00371681D02*
X00371272Y00194187D01*
X00371272D02*
X00371000Y00194562D01*
X00374136Y00197937D02*
X00374818Y00194000D01*
X00375500Y00197937D02*
X00374818Y00194000D01*
X00375500Y00197937D02*
X00376181Y00194000D01*
X00376863Y00197937D02*
X00376181Y00194000D01*
X00378090Y00197187D02*
X00378363Y00197375D01*
X00378363D02*
X00378772Y00197937D01*
X00378772D02*
Y00194000D01*
X00372909Y00237375D02*
X00372636Y00237750D01*
X00372227Y00237937*
X00372227D02*
X00371681D01*
X00371681D02*
X00371272Y00237750D01*
X00371272D02*
X00371000Y00237375D01*
Y00237000*
X00371136Y00236625*
X00371272Y00236437*
X00371272D02*
X00371545Y00236250D01*
X00372363Y00235875*
X00372363D02*
X00372636Y00235687D01*
X00372636D02*
X00372772Y00235500D01*
X00372772D02*
X00372909Y00235125D01*
Y00234562*
X00372909D02*
X00372636Y00234187D01*
X00372636D02*
X00372227Y00234000D01*
X00371681*
X00371681D02*
X00371272Y00234187D01*
X00371272D02*
X00371000Y00234562D01*
X00374136Y00237937D02*
X00374818Y00234000D01*
X00375500Y00237937D02*
X00374818Y00234000D01*
X00375500Y00237937D02*
X00376181Y00234000D01*
X00376863Y00237937D02*
X00376181Y00234000D01*
X00378227Y00237000D02*
Y00237187D01*
X00378227D02*
X00378363Y00237562D01*
X00378363D02*
X00378500Y00237750D01*
X00378772Y00237937*
X00378772D02*
X00379318D01*
X00379318D02*
X00379590Y00237750D01*
X00379590D02*
X00379727Y00237562D01*
X00379727D02*
X00379863Y00237187D01*
X00379863D02*
Y00236812D01*
X00379863D02*
X00379727Y00236437D01*
X00379727D02*
X00379454Y00235875D01*
X00379454D02*
X00378090Y00234000D01*
X00378090D02*
X00380000D01*
X00372909Y00277375D02*
X00372636Y00277750D01*
X00372227Y00277937*
X00372227D02*
X00371681D01*
X00371681D02*
X00371272Y00277750D01*
X00371272D02*
X00371000Y00277375D01*
Y00277000*
X00371136Y00276625*
X00371272Y00276437*
X00371272D02*
X00371545Y00276250D01*
X00372363Y00275875*
X00372363D02*
X00372636Y00275687D01*
X00372636D02*
X00372772Y00275500D01*
X00372772D02*
X00372909Y00275125D01*
Y00274562*
X00372909D02*
X00372636Y00274187D01*
X00372636D02*
X00372227Y00274000D01*
X00371681*
X00371681D02*
X00371272Y00274187D01*
X00371272D02*
X00371000Y00274562D01*
X00374136Y00277937D02*
X00374818Y00274000D01*
X00375500Y00277937D02*
X00374818Y00274000D01*
X00375500Y00277937D02*
X00376181Y00274000D01*
X00376863Y00277937D02*
X00376181Y00274000D01*
X00378363Y00277937D02*
X00379863D01*
X00379863D02*
X00379045Y00276437D01*
X00379045D02*
X00379454D01*
X00379454D02*
X00379727Y00276250D01*
X00379863Y00276062*
X00379863D02*
X00380000Y00275500D01*
Y00275125*
X00379863Y00274562*
X00379863D02*
X00379590Y00274187D01*
X00379590D02*
X00379181Y00274000D01*
X00379181D02*
X00378772D01*
X00378772D02*
X00378363Y00274187D01*
X00378363D02*
X00378227Y00274375D01*
X00378090Y00274750*
X00372909Y00317375D02*
X00372636Y00317750D01*
X00372227Y00317937*
X00372227D02*
X00371681D01*
X00371681D02*
X00371272Y00317750D01*
X00371272D02*
X00371000Y00317375D01*
Y00317000*
X00371136Y00316625*
X00371272Y00316437*
X00371272D02*
X00371545Y00316250D01*
X00372363Y00315875*
X00372363D02*
X00372636Y00315687D01*
X00372636D02*
X00372772Y00315500D01*
X00372772D02*
X00372909Y00315125D01*
Y00314562*
X00372909D02*
X00372636Y00314187D01*
X00372636D02*
X00372227Y00314000D01*
X00371681*
X00371681D02*
X00371272Y00314187D01*
X00371272D02*
X00371000Y00314562D01*
X00374136Y00317937D02*
X00374818Y00314000D01*
X00375500Y00317937D02*
X00374818Y00314000D01*
X00375500Y00317937D02*
X00376181Y00314000D01*
X00376863Y00317937D02*
X00376181Y00314000D01*
X00379454Y00317937D02*
X00378090Y00315312D01*
X00378090D02*
X00380136D01*
X00379454Y00317937D02*
Y00314000D01*
X00268000Y00355937D02*
Y00353125D01*
X00268136Y00352562*
X00268136D02*
X00268409Y00352187D01*
X00268409D02*
X00268818Y00352000D01*
X00269090*
X00269090D02*
X00269500Y00352187D01*
X00269500D02*
X00269772Y00352562D01*
X00269772D02*
X00269909Y00353125D01*
Y00355937*
X00271136Y00355187D02*
X00271409Y00355375D01*
X00271818Y00355937*
X00271818D02*
Y00352000D01*
X00290100Y00180937D02*
Y00178125D01*
X00290236Y00177562*
X00290236D02*
X00290509Y00177187D01*
X00290509D02*
X00290918Y00177000D01*
X00291190*
X00291190D02*
X00291600Y00177187D01*
X00291600D02*
X00291872Y00177562D01*
X00291872D02*
X00292009Y00178125D01*
Y00180937*
X00293372Y00180000D02*
Y00180187D01*
X00293372D02*
X00293509Y00180562D01*
X00293509D02*
X00293645Y00180750D01*
X00293918Y00180937*
X00293918D02*
X00294463D01*
X00294463D02*
X00294736Y00180750D01*
X00294872Y00180562*
X00294872D02*
X00295009Y00180187D01*
X00295009D02*
Y00179812D01*
X00295009D02*
X00294872Y00179437D01*
X00294872D02*
X00294600Y00178875D01*
X00293236Y00177000*
X00295145*
G74*
X00000000Y00000000D02*
M02*
