*
*
G04 PowerPCB (Build Number 500.281.2.20) generated Gerber (RS-274-X) file*
G04 PC Version=2.1*
*
%IN "Untitled"*%
*
%MOIN*%
*
%FSLAX35Y35*%
*
*
*
*
G04 PC Standard Apertures*
*
*
G04 Thermal Relief Aperture macro.*
%AMTER*
1,1,$1,0,0*
1,0,$1-$2,0,0*
21,0,$3,$4,0,0,45*
21,0,$3,$4,0,0,135*
%
*
*
G04 Annular Aperture macro.*
%AMANN*
1,1,$1,0,0*
1,0,$2,0,0*
%
*
*
G04 Odd Aperture macro.*
%AMODD*
1,1,$1,0,0*
1,0,$1-0.005,0,0*
%
*
*
G04 PC Custom Aperture Macros*
*
*
*
*
*
*
G04 PC Aperture Table*
*
%ADD011C,0.06*%
%ADD013C,0.23622*%
%ADD014C,0.05*%
%ADD017C,0.02*%
%ADD018C,0.015*%
%ADD023C,0.007*%
%ADD025C,0.01*%
%ADD031C,0.07*%
%ADD035C,0.065*%
%ADD040R,0.06X0.06*%
%ADD042C,0.045*%
%ADD043C,0.177*%
%ADD044C,0.081*%
*
*
*
*
G04 PC Custom Flashes*
G04 Layer Name Untitled - flashes*
%LPD*%
*
*
G04 PC Circuitry*
G04 Layer Name Untitled - circuitry*
%LPD*%
*
G54D11*
G01X00143000Y00315858D03*
Y00296141D03*
X00236000Y00184100D03*
X00294000Y00133000D03*
X00229000Y00221000D03*
X00209858Y00182000D03*
X00190141D03*
X00323000Y00204858D03*
Y00185141D03*
X00339000D03*
Y00204858D03*
X00337900Y00164000D03*
X00268858Y00247000D03*
X00249141D03*
X00344000Y00326141D03*
Y00345858D03*
X00314141Y00330000D03*
X00333858D03*
X00314141Y00344000D03*
X00333858D03*
X00344000Y00236141D03*
Y00255858D03*
Y00266141D03*
Y00285858D03*
Y00296141D03*
Y00315858D03*
X00261000Y00199858D03*
Y00180141D03*
X00158000Y00330500D03*
Y00295500D03*
X00272500Y00234000D03*
X00247500D03*
X00175000Y00343000D03*
X00185000D03*
X00335000Y00137000D03*
X00345000D03*
X00330000Y00274000D03*
Y00284000D03*
Y00294000D03*
Y00304000D03*
X00220000Y00343000D03*
X00289000Y00248000D03*
X00299000D03*
X00319000D03*
X00329000D03*
X00224500Y00325000D03*
Y00315000D03*
X00229500Y00320000D03*
X00245000Y00287500D03*
X00235000D03*
X00240000Y00282500D03*
X00194000Y00265500D03*
Y00300500D03*
X00222000Y00265500D03*
Y00300500D03*
X00177500Y00239000D03*
X00212500D03*
Y00211000D03*
X00177500D03*
Y00197000D03*
X00212500D03*
X00276500Y00202000D03*
X00311500D03*
X00339500Y00217000D03*
X00304500D03*
X00180500Y00312000D03*
X00215500D03*
Y00326000D03*
X00180500D03*
X00208000Y00265500D03*
Y00300500D03*
X00177500Y00225000D03*
X00212500D03*
X00281500Y00232000D03*
X00316500D03*
X00180000Y00265500D03*
Y00300500D03*
X00293500Y00217000D03*
X00258500D03*
X00255000Y00335000D03*
Y00325000D03*
Y00315000D03*
Y00305000D03*
Y00295000D03*
Y00285000D03*
Y00275000D03*
Y00265000D03*
X00285000D03*
Y00275000D03*
Y00285000D03*
Y00295000D03*
Y00305000D03*
Y00315000D03*
Y00325000D03*
Y00335000D03*
Y00345000D03*
X00277000Y00175000D03*
Y00165000D03*
Y00155000D03*
X00307000D03*
Y00165000D03*
Y00175000D03*
Y00185000D03*
X00300000Y00322141D03*
Y00341858D03*
X00190000Y00251500D03*
X00200000D03*
X00195000Y00256500D03*
X00240000Y00255141D03*
Y00274858D03*
X00319500Y00274000D03*
X00294500D03*
X00319500Y00284000D03*
X00294500D03*
X00319500Y00294000D03*
X00294500D03*
X00319500Y00304000D03*
X00294500D03*
X00242000Y00306500D03*
Y00341500D03*
G54D13*
X00140000Y00140000D03*
X00380000D03*
Y00340000D03*
X00140000D03*
G54D14*
X00250000Y00140000D03*
X00331000Y00229000D03*
G54D17*
X00335000Y00137000D02*
Y00149000D01*
X00337900Y00151900*
Y00164000*
X00177500Y00197000D02*
Y00211000D01*
X00179000Y00151000D02*
X00232000D01*
X00246000Y00165000*
X00277000*
X00249000Y00217000D02*
X00245000Y00221000D01*
X00237000*
X00258500Y00217000D02*
X00249000D01*
X00212500Y00211000D02*
X00217500Y00216000D01*
X00224000*
X00229000Y00221000*
X00219000Y00161000D02*
Y00183300D01*
X00212500Y00189800*
Y00197000*
X00209858Y00182000D02*
X00194858Y00197000D01*
X00177500*
X00236000Y00197900D02*
X00247900D01*
X00249858Y00199858*
X00261000*
X00236000Y00197900D02*
X00225100D01*
X00219000Y00204000*
X00211000*
X00207000Y00208000*
Y00228000*
X00211000Y00232000*
X00214000*
X00220000Y00238000*
Y00255000*
X00228000Y00263000*
Y00268000*
X00225000Y00271000*
X00222000*
X00307000Y00165000D02*
X00313000Y00171000D01*
Y00187000*
X00292000Y00208000*
X00276500*
X00307000Y00155000D02*
X00316000Y00164000D01*
X00324100*
X00277000Y00185000D02*
Y00193000D01*
X00276500Y00193500*
Y00202000*
X00293500Y00217000D02*
X00271000D01*
X00261000Y00227000*
X00254500*
X00247500Y00234000*
X00311500Y00202000D02*
X00316999D01*
X00316999D02*
X00317000D01*
Y00203858*
X00318000Y00204858*
X00323000*
X00261000Y00199858D02*
X00269141Y00208000D01*
X00269141D02*
X00276500D01*
X00324100Y00164000D02*
Y00173900D01*
X00323000Y00175000*
Y00185141*
X00339000Y00204858D02*
Y00211000D01*
X00339500Y00211500*
Y00217000*
X00323000Y00185141D02*
Y00194000D01*
X00329000Y00200000*
Y00207000*
X00319000Y00217000*
X00304500*
X00294000Y00141000D02*
Y00162000D01*
X00307000Y00175000*
X00362400Y00211500D02*
X00356000Y00217900D01*
Y00243000*
X00352000Y00247000*
Y00258000*
X00344000Y00266000*
Y00266141*
X00362400Y00171500D02*
X00351000Y00182900D01*
Y00188000*
X00347000Y00192000*
Y00233141*
X00347000D02*
X00344000Y00236141D01*
X00177500Y00225000D02*
X00172000D01*
X00170000Y00227000*
Y00228999*
X00170000D02*
X00168999Y00230000D01*
X00168999D02*
X00163590D01*
X00177500Y00239000D02*
X00190000Y00251500D01*
X00163590Y00230000D02*
Y00239949D01*
X00163590D02*
X00164000Y00240359D01*
X00163590Y00240826D02*
X00173000Y00250236D01*
Y00258500*
X00180000Y00265500*
X00249000Y00255141D02*
X00253141D01*
X00253141D02*
X00261000Y00263000D01*
Y00299000*
X00255000Y00305000*
X00212500Y00253000D02*
Y00256000D01*
X00222000Y00265500*
X00240000Y00274858D02*
X00230141D01*
X00230141D02*
X00230000Y00275000D01*
X00222000*
X00240000Y00274858D02*
Y00282500D01*
Y00255141D02*
X00249000D01*
X00195000Y00256500D02*
X00198500Y00260000D01*
X00211000*
X00215000Y00264000*
Y00267000*
X00219000Y00271000*
X00222000*
X00200000Y00251500D02*
X00211000D01*
X00212500Y00253000*
X00190000Y00251500D02*
X00186500Y00255000D01*
Y00258000*
X00194000Y00265500*
X00212500Y00225000D02*
X00224000Y00236500D01*
Y00254000*
X00239000Y00269000*
X00244000*
X00248000Y00273000*
Y00278000*
X00255000Y00285000*
X00208000Y00265500D02*
X00217500Y00275000D01*
X00222000*
X00208000Y00265500D02*
X00194500Y00279000D01*
X00184000*
X00168000Y00295000*
Y00317000*
X00175000Y00324000*
X00178500*
X00180500Y00326000*
X00212500Y00239000D02*
Y00253000D01*
X00194000Y00265500D02*
X00184500Y00275000D01*
X00183000*
X00164000Y00294000*
Y00298000*
X00156000Y00306000*
X00152858*
X00143000Y00315858*
X00245000Y00287500D02*
Y00295000D01*
X00255000Y00305000*
X00247500Y00234000D02*
Y00239500D01*
X00249141Y00241141*
X00249141D02*
Y00247000D01*
X00249141D02*
Y00255000D01*
X00249141D02*
X00249000Y00255141D01*
X00237000Y00221000D02*
Y00238000D01*
X00234000Y00241000*
Y00257000*
X00242000Y00265000*
X00255000*
X00281500Y00226000D02*
X00272000D01*
X00263000Y00235000*
Y00255000*
X00265000Y00257000*
Y00305000*
X00255000Y00315000*
X00281500Y00226000D02*
X00295000D01*
X00301000Y00232000*
X00316500*
X00285000Y00295000D02*
X00290000Y00300000D01*
X00290500*
X00294500Y00304000*
X00285000Y00285000D02*
X00290000Y00290000D01*
X00290500*
X00294500Y00294000*
X00285000Y00275000D02*
X00290000Y00280000D01*
X00290500*
X00294500Y00284000*
X00285000Y00265000D02*
X00290000Y00270000D01*
X00290500*
X00294500Y00274000*
X00316500Y00232000D02*
X00322000Y00237500D01*
Y00241000*
X00329000Y00248000*
X00281500Y00232000D02*
X00289500Y00240000D01*
X00291000*
X00299000Y00248000*
X00281500Y00232000D02*
X00274500D01*
X00272500Y00234000*
X00289000Y00248000D02*
X00304000Y00263000D01*
Y00294500*
X00294500Y00304000*
X00279000Y00248000D02*
X00300000Y00269000D01*
Y00288500*
X00294500Y00294000*
X00330000D02*
X00336000D01*
X00338141Y00296141*
X00338141D02*
X00344000D01*
X00330000Y00294000D02*
X00319500D01*
X00330000Y00284000D02*
X00319500D01*
X00330000Y00274000D02*
X00319500D01*
X00272500Y00234000D02*
Y00240500D01*
X00272858Y00240858*
Y00243000*
X00268858Y00247000*
Y00255858*
X00274000Y00261000*
Y00294000*
X00285000Y00305000*
X00362400Y00291500D02*
Y00297000D01*
X00353000Y00306400*
Y00317141*
X00353000D02*
X00344000Y00326141D01*
X00362400Y00251500D02*
Y00259600D01*
X00356000Y00266000*
Y00281000*
X00350000Y00287000*
Y00290141*
X00350000D02*
X00344000Y00296141D01*
Y00266141D02*
Y00270000D01*
X00330000Y00284000*
X00344000Y00236141D02*
X00338141Y00242000D01*
X00338141D02*
X00336000D01*
Y00258000*
X00337000Y00259000*
Y00267000*
X00330000Y00274000*
X00242000Y00341500D02*
X00231500D01*
X00230000Y00343000*
X00220000*
X00242000Y00306500D02*
X00237500Y00311000D01*
X00228500*
X00224500Y00315000*
X00255000Y00335000D02*
X00248500Y00341500D01*
X00242000*
X00180000Y00300500D02*
Y00306000D01*
X00180500Y00306500*
Y00312000*
X00180000Y00300500D02*
X00194000D01*
X00215500Y00312000D02*
X00221500D01*
X00224500Y00315000*
X00222000Y00300500D02*
X00244500D01*
X00248000Y00304000*
Y00318000*
X00255000Y00325000*
X00194000Y00300500D02*
Y00312500D01*
X00197500Y00316000*
Y00347000*
X00201500Y00351000*
X00259000*
X00229500Y00320000D02*
X00233000Y00323500D01*
Y00330000*
X00220000Y00343000*
X00224500Y00325000D02*
X00216500D01*
X00215500Y00326000*
X00300000Y00341858D02*
X00305858D01*
X00308000Y00344000*
X00314141*
X00300000Y00322141D02*
X00307858Y00330000D01*
X00314141*
X00285000Y00325000D02*
X00293000Y00333000D01*
Y00334858*
X00300000Y00341858*
X00285000Y00315000D02*
X00292141Y00322141D01*
X00292141D02*
X00300000D01*
X00285000Y00305000D02*
X00270000Y00320000D01*
Y00340000*
X00259000Y00351000*
X00330000Y00304000D02*
X00336000Y00310000D01*
Y00318141*
X00336000D02*
X00344000Y00326141D01*
X00330000Y00304000D02*
X00319500D01*
G54D18*
X00188889Y00346889D02*
X00187121Y00345121D01*
X00181110Y00346889D02*
X00182878Y00345121D01*
X00181110Y00339110D02*
X00182878Y00340878D01*
X00188889Y00339110D02*
X00187121Y00340878D01*
X00214767Y00338232D02*
X00212121Y00340878D01*
X00205232Y00338232D02*
X00207878Y00340878D01*
X00340110Y00311969D02*
X00341878Y00313736D01*
X00347889Y00311969D02*
X00346121Y00313736D01*
X00337747Y00333889D02*
X00335979Y00332121D01*
X00329969Y00333889D02*
X00331736Y00332121D01*
X00329969Y00326110D02*
X00331736Y00327878D01*
X00231110Y00291389D02*
X00232878Y00289621D01*
X00231110Y00283610D02*
X00232878Y00285378D01*
X00238889Y00291389D02*
X00237121Y00289621D01*
X00204110Y00304389D02*
X00205878Y00302621D01*
X00204110Y00296610D02*
X00205878Y00298378D01*
X00211889Y00296610D02*
X00210121Y00298378D01*
X00211889Y00304389D02*
X00210121Y00302621D01*
X00340110Y00289747D02*
X00341878Y00287979D01*
X00340110Y00281969D02*
X00341878Y00283736D01*
X00347889Y00281969D02*
X00346121Y00283736D01*
X00340110Y00251969D02*
X00341878Y00253736D01*
X00347889Y00251969D02*
X00346121Y00253736D01*
X00325232Y00268767D02*
X00327878Y00266121D01*
X00325232Y00259232D02*
X00327878Y00261878D01*
X00214368Y00145631D02*
X00216136Y00143863D01*
X00214368Y00136368D02*
X00216136Y00138136D01*
X00223631Y00136368D02*
X00221863Y00138136D01*
X00223631Y00145631D02*
X00221863Y00143863D01*
X00239889Y00180210D02*
X00238121Y00181978D01*
X00239889Y00187989D02*
X00238121Y00186221D01*
X00232110Y00187989D02*
X00233878Y00186221D01*
X00232110Y00180210D02*
X00233878Y00181978D01*
X00150119Y00150119D02*
X00148351Y00148351D01*
X00129880Y00150119D02*
X00131648Y00148351D01*
X00129880Y00129880D02*
X00131648Y00131648D01*
X00150119Y00129880D02*
X00148351Y00131648D01*
X00166025Y00173470D02*
X00164257Y00175238D01*
X00166025Y00189521D02*
X00164257Y00187753D01*
X00149974Y00189521D02*
X00151742Y00187753D01*
X00149974Y00173470D02*
X00151742Y00175238D01*
X00390119Y00350119D02*
X00388351Y00348351D01*
X00369880Y00350119D02*
X00371648Y00348351D01*
X00369880Y00329880D02*
X00371648Y00331648D01*
X00390119Y00329880D02*
X00388351Y00331648D01*
X00340110Y00349747D02*
X00341878Y00347979D01*
X00340110Y00341969D02*
X00341878Y00343736D01*
X00347889Y00341969D02*
X00346121Y00343736D01*
X00347889Y00349747D02*
X00346121Y00347979D01*
X00337747Y00347889D02*
X00335979Y00346121D01*
X00329969Y00347889D02*
X00331736Y00346121D01*
X00329969Y00340110D02*
X00331736Y00341878D01*
X00337747Y00340110D02*
X00335979Y00341878D01*
X00322889Y00251889D02*
X00321121Y00250121D01*
X00315110Y00251889D02*
X00316878Y00250121D01*
X00315110Y00244110D02*
X00316878Y00245878D01*
X00366465Y00192565D02*
X00364698Y00190798D01*
X00358334Y00192565D02*
X00360101Y00190798D01*
X00358334Y00184434D02*
X00360101Y00186201D01*
X00366465Y00184434D02*
X00364698Y00186201D01*
X00335110Y00189030D02*
X00336878Y00187263D01*
X00335110Y00181252D02*
X00336878Y00183020D01*
X00342889Y00181252D02*
X00341121Y00183020D01*
X00342889Y00189030D02*
X00341121Y00187263D01*
X00348889Y00140889D02*
X00347121Y00139121D01*
X00341110Y00140889D02*
X00342878Y00139121D01*
X00341110Y00133110D02*
X00342878Y00134878D01*
X00348889Y00133110D02*
X00347121Y00134878D01*
X00390119Y00150119D02*
X00388351Y00148351D01*
X00369880Y00150119D02*
X00371648Y00148351D01*
X00369880Y00129880D02*
X00371648Y00131648D01*
X00390119Y00129880D02*
X00388351Y00131648D01*
X00329767Y00141767D02*
X00327121Y00139121D01*
X00329767Y00132232D02*
X00327121Y00134878D01*
X00320232Y00132232D02*
X00322878Y00134878D01*
X00320232Y00141767D02*
X00322878Y00139121D01*
X00297889Y00129110D02*
X00296121Y00130878D01*
X00290110Y00129110D02*
X00291878Y00130878D01*
X00280889Y00158889D02*
X00279121Y00157121D01*
X00273110Y00158889D02*
X00274878Y00157121D01*
X00273110Y00151110D02*
X00274878Y00152878D01*
X00280889Y00151110D02*
X00279121Y00152878D01*
X00280889Y00178889D02*
X00279121Y00177121D01*
X00280889Y00171110D02*
X00279121Y00172878D01*
X00273110Y00178889D02*
X00274878Y00177121D01*
X00273110Y00171110D02*
X00274878Y00172878D01*
X00264889Y00176252D02*
X00263121Y00178020D01*
X00264889Y00184030D02*
X00263121Y00182263D01*
X00257110Y00184030D02*
X00258878Y00182263D01*
X00257110Y00176252D02*
X00258878Y00178020D01*
X00186252Y00178110D02*
X00188020Y00179878D01*
X00194030Y00178110D02*
X00192263Y00179878D01*
X00194030Y00185889D02*
X00192263Y00184121D01*
X00186252Y00185889D02*
X00188020Y00184121D01*
X00167833Y00204103D02*
X00166065Y00205871D01*
X00167833Y00212589D02*
X00166065Y00210821D01*
X00159347Y00204103D02*
X00161115Y00205871D01*
X00159347Y00212589D02*
X00161115Y00210821D01*
X00166025Y00270478D02*
X00164257Y00272246D01*
X00149974Y00286529D02*
X00151742Y00284761D01*
X00149974Y00270478D02*
X00151742Y00272246D01*
X00154110Y00299389D02*
X00155878Y00297621D01*
X00154110Y00291610D02*
X00155878Y00293378D01*
X00146889Y00292252D02*
X00145121Y00294020D01*
X00146889Y00300030D02*
X00145121Y00298263D01*
X00139110Y00300030D02*
X00140878Y00298263D01*
X00139110Y00292252D02*
X00140878Y00294020D01*
X00150119Y00350119D02*
X00148351Y00348351D01*
X00129880Y00350119D02*
X00131648Y00348351D01*
X00129880Y00329880D02*
X00131648Y00331648D01*
X00169767Y00347767D02*
X00167121Y00345121D01*
X00169767Y00338232D02*
X00167121Y00340878D01*
X00160232Y00338232D02*
X00162878Y00340878D01*
X00160232Y00347767D02*
X00162878Y00345121D01*
X00366465Y00312565D02*
X00364698Y00310798D01*
X00358334Y00312565D02*
X00360101Y00310798D01*
X00366465Y00304434D02*
X00364698Y00306201D01*
X00366465Y00272565D02*
X00364698Y00270798D01*
X00366465Y00264434D02*
X00364698Y00266201D01*
X00366465Y00232565D02*
X00364698Y00230798D01*
X00366465Y00224434D02*
X00364698Y00226201D01*
G54D23*
X00110000Y00110000D02*
Y00110500D01*
Y00110000D02*
X00110500D01*
X00110000D02*
Y00109500D01*
Y00110000D02*
X00109500D01*
X00111500D02*
X00116500D01*
X00110000Y00108500D02*
Y00105100D01*
Y00111500D02*
Y00116000D01*
X00104000Y00110000D02*
X00108500D01*
X00113000D02*
G75*
G03X00113000I-00003000D01*
G01X00112000D02*
G03X00112000I-00002000D01*
G01X00410000D02*
Y00110500D01*
Y00110000D02*
X00410500D01*
X00410000D02*
Y00109500D01*
Y00110000D02*
X00409500D01*
X00411500D02*
X00416500D01*
X00410000Y00108500D02*
Y00105100D01*
Y00111500D02*
Y00116000D01*
X00404000Y00110000D02*
X00408500D01*
X00413000D02*
G03X00413000I-00003000D01*
G01X00412000D02*
G03X00412000I-00002000D01*
G01X00410000Y00370000D02*
Y00370500D01*
Y00370000D02*
X00410500D01*
X00410000D02*
Y00369500D01*
Y00370000D02*
X00409500D01*
X00411500D02*
X00416500D01*
X00410000Y00368500D02*
Y00365100D01*
Y00371500D02*
Y00376000D01*
X00404000Y00370000D02*
X00408500D01*
X00413000D02*
G03X00413000I-00003000D01*
G01X00412000D02*
G03X00412000I-00002000D01*
G54D25*
G01X00128750Y00276000D02*
X00134000D01*
X00128750D02*
X00134000Y00274545D01*
X00128750Y00273090D02*
X00134000Y00274545D01*
X00128750Y00273090D02*
X00134000D01*
X00128750Y00271454D02*
X00134000D01*
X00128750D02*
Y00269818D01*
X00129000Y00269272*
X00129000D02*
X00129250Y00269090D01*
X00129250D02*
X00129750Y00268909D01*
X00130250*
X00130750Y00269090*
X00130750D02*
X00131000Y00269272D01*
X00131000D02*
X00131250Y00269818D01*
Y00271454D02*
Y00269818D01*
X00131500Y00269272*
X00131500D02*
X00131750Y00269090D01*
X00131750D02*
X00132250Y00268909D01*
X00133000*
X00133500Y00269090*
X00133500D02*
X00133750Y00269272D01*
X00133750D02*
X00134000Y00269818D01*
Y00271454*
X00128750Y00266181D02*
X00129000Y00266727D01*
X00129750Y00267090*
X00129750D02*
X00131000Y00267272D01*
X00131000D02*
X00131750D01*
X00131750D02*
X00133000Y00267090D01*
X00133000D02*
X00133750Y00266727D01*
X00134000Y00266181*
X00134000D02*
Y00265818D01*
X00133750Y00265272*
X00133750D02*
X00133000Y00264909D01*
X00131750Y00264727*
X00131000*
X00129750Y00264909*
X00129000Y00265272*
X00129000D02*
X00128750Y00265818D01*
Y00266181*
X00129750Y00263090D02*
X00129500Y00262727D01*
X00128750Y00262181*
X00128750D02*
X00134000D01*
X00128750Y00260545D02*
X00134000D01*
X00128750D02*
Y00258909D01*
X00129000Y00258363*
X00129000D02*
X00129250Y00258181D01*
X00129250D02*
X00129750Y00258000D01*
X00130250*
X00130750Y00258181*
X00130750D02*
X00131000Y00258363D01*
X00131000D02*
X00131250Y00258909D01*
Y00260545D02*
Y00258909D01*
X00131500Y00258363*
X00131500D02*
X00131750Y00258181D01*
X00131750D02*
X00132250Y00258000D01*
X00133000*
X00133500Y00258181*
X00133500D02*
X00133750Y00258363D01*
X00133750D02*
X00134000Y00258909D01*
Y00260545*
X00127750Y00246727D02*
X00128250Y00247090D01*
X00128250D02*
X00129000Y00247454D01*
X00129000D02*
X00130000Y00247818D01*
X00131250Y00248000*
X00132250*
X00133500Y00247818*
X00134500Y00247454*
X00134500D02*
X00135250Y00247090D01*
X00135250D02*
X00135750Y00246727D01*
X00131250Y00242909D02*
X00130750Y00243272D01*
X00130750D02*
X00130500Y00243636D01*
Y00244181*
X00130500D02*
X00130750Y00244545D01*
X00131250Y00244909*
X00132000Y00245090*
X00132000D02*
X00132500D01*
X00132500D02*
X00133250Y00244909D01*
X00133750Y00244545*
X00134000Y00244181*
X00134000D02*
Y00243636D01*
X00133750Y00243272*
X00133750D02*
X00133250Y00242909D01*
X00127750Y00241272D02*
X00128250Y00240909D01*
X00129000Y00240545*
X00130000Y00240181*
X00130000D02*
X00131250Y00240000D01*
X00132250*
X00133500Y00240181*
X00133500D02*
X00134500Y00240545D01*
X00135250Y00240909*
X00135750Y00241272*
X00130500Y00238363D02*
X00134000D01*
X00131500D02*
X00130750Y00237818D01*
X00130500Y00237454*
X00130500D02*
Y00236909D01*
X00130750Y00236545*
X00131500Y00236363*
X00131500D02*
X00134000D01*
X00131500D02*
X00130750Y00235818D01*
X00130500Y00235454*
X00130500D02*
Y00234909D01*
X00130750Y00234545*
X00131500Y00234363*
X00131500D02*
X00134000D01*
X00128750Y00232727D02*
X00129000Y00232545D01*
X00128750Y00232363*
X00128750D02*
X00128500Y00232545D01*
X00128750Y00232727*
X00130500Y00232545D02*
X00134000D01*
X00128750Y00230727D02*
X00134000D01*
X00131500D02*
X00130750Y00230181D01*
X00130750D02*
X00130500Y00229818D01*
Y00229272*
X00130500D02*
X00130750Y00228909D01*
X00131500Y00228727*
X00134000*
X00130500Y00226181D02*
X00130750Y00226545D01*
X00131250Y00226909*
X00132000Y00227090*
X00132000D02*
X00132500D01*
X00132500D02*
X00133250Y00226909D01*
X00133750Y00226545*
X00134000Y00226181*
X00134000D02*
Y00225636D01*
X00133750Y00225272*
X00133750D02*
X00133250Y00224909D01*
X00132500Y00224727*
X00132000*
X00131250Y00224909*
X00130750Y00225272*
X00130750D02*
X00130500Y00225636D01*
Y00226181*
X00130000Y00219636D02*
X00129750D01*
X00129250Y00219454*
X00129250D02*
X00129000Y00219272D01*
X00129000D02*
X00128750Y00218909D01*
Y00218181*
X00128750D02*
X00129000Y00217818D01*
X00129250Y00217636*
X00129750Y00217454*
X00129750D02*
X00130250D01*
X00130250D02*
X00130750Y00217636D01*
X00131500Y00218000*
X00134000Y00219818*
Y00217272*
X00128750Y00214545D02*
X00129000Y00215090D01*
X00129000D02*
X00129750Y00215454D01*
X00129750D02*
X00131000Y00215636D01*
X00131750*
X00133000Y00215454*
X00133000D02*
X00133750Y00215090D01*
X00133750D02*
X00134000Y00214545D01*
Y00214181*
X00134000D02*
X00133750Y00213636D01*
X00133000Y00213272*
X00133000D02*
X00131750Y00213090D01*
X00131750D02*
X00131000D01*
X00131000D02*
X00129750Y00213272D01*
X00129750D02*
X00129000Y00213636D01*
X00128750Y00214181*
X00128750D02*
Y00214545D01*
Y00210363D02*
X00129000Y00210909D01*
X00129750Y00211272*
X00129750D02*
X00131000Y00211454D01*
X00131000D02*
X00131750D01*
X00131750D02*
X00133000Y00211272D01*
X00133000D02*
X00133750Y00210909D01*
X00134000Y00210363*
X00134000D02*
Y00210000D01*
X00133750Y00209454*
X00133750D02*
X00133000Y00209090D01*
X00133000D02*
X00131750Y00208909D01*
X00131000*
X00129750Y00209090*
X00129750D02*
X00129000Y00209454D01*
X00129000D02*
X00128750Y00210000D01*
Y00210363*
Y00205454D02*
X00132250Y00207272D01*
X00132250D02*
Y00204545D01*
X00128750Y00205454D02*
X00134000D01*
X00394311Y00140000D02*
G03X00394311I-00014311D01*
G01X00393350Y00171500D02*
G03X00393350I-00005750D01*
G01Y00188500D02*
G03X00393350I-00005750D01*
G01Y00211500D02*
G03X00393350I-00005750D01*
G01Y00228500D02*
G03X00393350I-00005750D01*
G01Y00251500D02*
G03X00393350I-00005750D01*
G01Y00268500D02*
G03X00393350I-00005750D01*
G01Y00291500D02*
G03X00393350I-00005750D01*
G01Y00308500D02*
G03X00393350I-00005750D01*
G01X00368150Y00188500D02*
G03X00368150I-00005750D01*
G01X00394311Y00340000D02*
G03X00394311I-00014311D01*
G01X00148500Y00296141D02*
G03X00148500I-00005500D01*
G01X00195641Y00182000D02*
G03X00195641I-00005499D01*
G01X00154311Y00140000D02*
G03X00154311I-00014311D01*
G01X00169350Y00181496D02*
G03X00169350I-00011350D01*
G01X00213500Y00300500D02*
G03X00213500I-00005500D01*
G01X00261130Y00140000D02*
G03X00261130I-00011130D01*
G01X00344500Y00185141D02*
G03X00344500I-00005500D01*
G01X00266500Y00180141D02*
G03X00266500I-00005500D01*
G01X00241500Y00184100D02*
G03X00241500I-00005500D01*
G01X00397500Y00123000D02*
Y00357000D01*
G03X00397000Y00357500I-00000500J00000000*
G01X00123000*
G03X00122500Y00357000I00000000J-00000500*
G01Y00123000*
G03X00123000Y00122500I00000500J00000000*
G01X00397000*
G03X00397500Y00123000I00000000J00000500*
G01X00273959Y00169583D02*
G03Y00170416I-00000275J00000417D01*
G01X00273127Y00178906D02*
G03X00273959Y00170416I00003873J-00003906D01*
G01X00273127Y00178906D02*
G03X00272979Y00179717I-00000351J00000355D01*
G01X00271499Y00182000D02*
G03X00272979Y00179717I00002501J00000000D01*
G01X00271499Y00182000D02*
Y00188000D01*
X00273166Y00190357D02*
G03X00271499Y00188000I00000834J-00002357D01*
G01X00273166Y00190357D02*
G03X00273499Y00190828I-00000166J00000471D01*
G01X00273499D02*
Y00191563D01*
X00273499D02*
G03X00273437Y00191805I-00000499J00000000D01*
G01X00272999Y00193500D02*
G03X00273437Y00191805I00003501J00000000D01*
G01X00272999Y00193500D02*
Y00197527D01*
X00272999D02*
G03X00272833Y00197900I-00000499J00000000D01*
G01X00271314Y00203833D02*
G03X00272833Y00197900I00005186J-00001833D01*
G01X00271314Y00203833D02*
G03X00270843Y00204499I-00000470J00000166D01*
G01X00270843D02*
X00270798D01*
X00270798D02*
G03X00270445Y00204353I00000000J-00000499D01*
G01X00270445D02*
X00266637Y00200545D01*
X00266637D02*
G03X00266491Y00200164I00000353J-00000352D01*
G01X00256900Y00196191D02*
G03X00266491Y00200164I00004100J00003667D01*
G01X00256900Y00196191D02*
G03X00256527Y00196358I-00000372J-00000332D01*
G01X00256527D02*
X00251515D01*
G03X00251161Y00196211I00000000J-00000499*
G01X00251161D02*
X00250374Y00195425D01*
X00247900Y00194399D02*
G03X00250374Y00195425I00000000J00003501D01*
G01X00247900Y00194399D02*
X00241828D01*
X00241828D02*
G03X00241357Y00194066I00000000J-00000499D01*
G01X00239000Y00192399D02*
G03X00241357Y00194066I00000000J00002501D01*
G01X00239000Y00192399D02*
X00233000D01*
X00230642Y00194066D02*
G03X00233000Y00192399I00002358J00000834D01*
G01X00230642Y00194066D02*
G03X00230171Y00194399I-00000470J-00000166D01*
G01X00230171D02*
X00225100D01*
X00222625Y00195425D02*
G03X00225100Y00194399I00002475J00002475D01*
G01X00222625Y00195425D02*
X00218394Y00199656D01*
G03X00217578Y00199110I-00000353J-00000353*
G01X00216166Y00192900D02*
G03X00217578Y00199110I-00003666J00004100D01*
G01X00216166Y00192900D02*
G03X00216000Y00192527I00000334J-00000372D01*
G01X00216000D02*
Y00191456D01*
X00216000D02*
G03X00216146Y00191103I00000500J00000000D01*
G01X00221474Y00185774*
X00222500Y00183300D02*
G03X00221474Y00185774I-00003500J00000000D01*
G01X00222500Y00183300D02*
Y00166805D01*
G03X00222716Y00166393I00000500J00000000*
G01X00222439Y00155425D02*
G03X00222716Y00166393I-00003439J00005575D01*
G01X00222439Y00155425D02*
G03X00222701Y00154500I00000262J-00000424D01*
G01X00222701D02*
X00230343D01*
G03X00230696Y00154646I00000000J00000500*
G01X00230696D02*
X00243525Y00167474D01*
X00246000Y00168500D02*
G03X00243525Y00167474I00000000J-00003500D01*
G01X00246000Y00168500D02*
X00272527D01*
X00272527D02*
G03X00272900Y00168666I00000000J00000500D01*
G01X00273959Y00169583D02*
G03X00272900Y00168666I00003041J-00004583D01*
G01X00160269Y00213343D02*
G03Y00214176I-00000276J00000416D01*
G01X00159200Y00215083D02*
G03X00160269Y00214176I00004390J00004090D01*
G01X00159200Y00215083D02*
G03X00158340Y00214666I-00000365J-00000340D01*
G01Y00212852D02*
G03Y00214666I-00005930J00000907D01*
G01Y00212852D02*
G03X00159200Y00212436I00000494J-00000074D01*
G01X00160269Y00213343D02*
G03X00159200Y00212436I00003321J-00004996D01*
G01X00394311Y00140000D02*
G03X00394311I-00014311D01*
G01X00393350Y00171500D02*
G03X00393350I-00005750D01*
G01Y00188500D02*
G03X00393350I-00005750D01*
G01Y00211500D02*
G03X00393350I-00005750D01*
G01Y00228500D02*
G03X00393350I-00005750D01*
G01Y00251500D02*
G03X00393350I-00005750D01*
G01Y00268500D02*
G03X00393350I-00005750D01*
G01Y00291500D02*
G03X00393350I-00005750D01*
G01Y00308500D02*
G03X00393350I-00005750D01*
G01X00368150Y00188500D02*
G03X00368150I-00005750D01*
G01X00362762Y00302761D02*
G03X00357432Y00311395I-00000362J00005739D01*
G01X00362762Y00302761D02*
G03X00362440Y00301908I00000032J-00000498D01*
G01X00362440D02*
X00364874Y00299474D01*
X00365900Y00297000D02*
G03X00364874Y00299474I-00003500J00000000D01*
G01X00365900Y00297000D02*
Y00296302D01*
G03X00366080Y00295918I00000500J00000000*
G01X00358262Y00295493D02*
G03X00366080Y00295918I00004138J-00003993D01*
G01X00358262Y00295493D02*
G03X00358256Y00296193I-00000359J00000347D01*
G01X00358256D02*
X00350525Y00303925D01*
X00349499Y00306400D02*
G03X00350525Y00303925I00003501J00000000D01*
G01X00349499Y00306400D02*
Y00312541D01*
X00349499D02*
G03X00348583Y00312817I-00000499J00000000D01*
G01X00340333Y00311758D02*
G03X00348583Y00312817I00003667J00004100D01*
G01X00340333Y00311758D02*
G03X00339500Y00311386I-00000332J-00000371D01*
G01Y00310000*
X00338474Y00307525D02*
G03X00339500Y00310000I-00002474J00002475D01*
G01X00338474Y00307525D02*
X00335637Y00304687D01*
G03X00335491Y00304306I00000353J-00000353*
G01X00333040Y00299416D02*
G03X00335491Y00304306I-00003040J00004584D01*
G01X00333040Y00299416D02*
G03Y00298583I00000276J-00000416D01*
G01X00334043Y00297728D02*
G03X00333040Y00298583I-00004043J-00003728D01*
G01X00334043Y00297728D02*
G03X00334764Y00297714I00000367J00000339D01*
G01X00335666Y00298616*
X00338141Y00299641D02*
G03X00335666Y00298616I00000000J-00003499D01*
G01X00338141Y00299641D02*
X00339527D01*
X00339527D02*
G03X00339900Y00299808I00000000J00000500D01*
G01X00349491Y00295835D02*
G03X00339900Y00299808I-00005491J00000306D01*
G01X00349491Y00295835D02*
G03X00349637Y00295454I00000499J-00000027D01*
G01X00352474Y00292616*
X00353500Y00290141D02*
G03X00352474Y00292616I-00003500J00000000D01*
G01X00353500Y00290141D02*
Y00288656D01*
X00353500D02*
G03X00353646Y00288303I00000500J00000000D01*
G01X00358474Y00283474*
X00359500Y00281000D02*
G03X00358474Y00283474I-00003500J00000000D01*
G01X00359500Y00281000D02*
Y00274270D01*
X00359500D02*
G03X00360192Y00273809I00000500J00000000D01*
G01X00364690Y00263225D02*
G03X00360192Y00273809I-00002290J00005275D01*
G01X00364690Y00263225D02*
G03X00364536Y00262413I00000199J-00000457D01*
G01X00364536D02*
X00364874Y00262074D01*
X00365900Y00259600D02*
G03X00364874Y00262074I-00003500J00000000D01*
G01X00365900Y00259600D02*
Y00256302D01*
G03X00366080Y00255918I00000500J00000000*
G01X00358719D02*
G03X00366080I00003681J-00004418D01*
G01X00358719D02*
G03X00358899Y00256302I-00000319J00000384D01*
G01X00358899D02*
Y00257943D01*
X00358899D02*
G03X00358753Y00258296I-00000499J00000000D01*
G01X00358753D02*
X00353525Y00263525D01*
X00352499Y00266000D02*
G03X00353525Y00263525I00003501J00000000D01*
G01X00352499Y00266000D02*
Y00279343D01*
X00352499D02*
G03X00352353Y00279696I-00000499J00000000D01*
G01X00352353D02*
X00349273Y00282777D01*
G03X00348509Y00282709I-00000353J-00000353*
G01X00341165Y00290571D02*
G03X00348509Y00282709I00002835J-00004712D01*
G01X00341165Y00290571D02*
G03Y00291428I-00000257J00000429D01*
G01X00340019Y00292346D02*
G03X00341165Y00291428I00003981J00003795D01*
G01X00340019Y00292346D02*
G03X00339304Y00292354I-00000361J-00000345D01*
G01X00339304D02*
X00338474Y00291525D01*
X00336000Y00290499D02*
G03X00338474Y00291525I00000000J00003501D01*
G01X00336000Y00290499D02*
X00334472D01*
X00334472D02*
G03X00334099Y00290333I00000000J-00000499D01*
G01X00333040Y00289416D02*
G03X00334099Y00290333I-00003040J00004584D01*
G01X00333040Y00289416D02*
G03Y00288583I00000276J-00000416D01*
G01X00335491Y00283693D02*
G03X00333040Y00288583I-00005491J00000307D01*
G01X00335491Y00283693D02*
G03X00335637Y00283312I00000499J-00000026D01*
G01X00335637D02*
X00346474Y00272474D01*
X00347451Y00270579D02*
G03X00346474Y00272474I-00003451J-00000579D01*
G01X00347451Y00270579D02*
G03X00347616Y00270285I00000493J00000083D01*
G01X00349483Y00265713D02*
G03X00347616Y00270285I-00005483J00000428D01*
G01X00349483Y00265713D02*
G03X00349628Y00265321I00000498J-00000037D01*
G01X00354474Y00260474*
X00355500Y00258000D02*
G03X00354474Y00260474I-00003500J00000000D01*
G01X00355500Y00258000D02*
Y00248656D01*
X00355500D02*
G03X00355646Y00248303I00000500J00000000D01*
G01X00358474Y00245474*
X00359500Y00243000D02*
G03X00358474Y00245474I-00003500J00000000D01*
G01X00359500Y00243000D02*
Y00234270D01*
X00359500D02*
G03X00360192Y00233809I00000500J00000000D01*
G01Y00223190D02*
G03Y00233809I00002208J00005310D01*
G01Y00223190D02*
G03X00359500Y00222729I-00000191J-00000460D01*
G01Y00219556*
X00359500D02*
G03X00359646Y00219203I00000500J00000000D01*
G01X00361479Y00217370*
X00361479D02*
G03X00361878Y00217226I00000353J00000354D01*
G01X00356673Y00212021D02*
G03X00361878Y00217226I00005727J-00000521D01*
G01X00356673Y00212021D02*
G03X00356529Y00212420I-00000497J00000046D01*
G01X00356529D02*
X00353525Y00215425D01*
X00352499Y00217900D02*
G03X00353525Y00215425I00003501J00000000D01*
G01X00352499Y00217900D02*
Y00241343D01*
X00352499D02*
G03X00352353Y00241696I-00000499J00000000D01*
G01X00352353D02*
X00349525Y00244525D01*
X00348499Y00247000D02*
G03X00349525Y00244525I00003501J00000000D01*
G01X00348499Y00247000D02*
Y00251386D01*
X00348499D02*
G03X00347666Y00251758I-00000499J00000000D01*
G01X00340333D02*
G03X00347666I00003667J00004100D01*
G01X00340333D02*
G03X00339500Y00251386I-00000332J-00000371D01*
G01Y00245542*
G03X00339767Y00245099I00000500J00000000*
G01X00340616Y00244474D02*
G03X00339767Y00245099I-00002474J-00002474D01*
G01X00340616Y00244474D02*
X00343312Y00241778D01*
X00343312D02*
G03X00343693Y00241633I00000354J00000354D01*
G01X00349491Y00235827D02*
G03X00343693Y00241633I-00005491J00000314D01*
G01X00349491Y00235827D02*
G03X00349616Y00235466I00000499J-00000028D01*
G01X00350500Y00233141D02*
G03X00349616Y00235466I-00003500J00000000D01*
G01X00350500Y00233141D02*
Y00193656D01*
X00350500D02*
G03X00350646Y00193303I00000500J00000000D01*
G01X00353474Y00190474*
X00354500Y00188000D02*
G03X00353474Y00190474I-00003500J00000000D01*
G01X00354500Y00188000D02*
Y00184556D01*
X00354500D02*
G03X00354646Y00184203I00000500J00000000D01*
G01X00361479Y00177370*
X00361479D02*
G03X00361878Y00177226I00000353J00000354D01*
G01X00356673Y00172021D02*
G03X00361878Y00177226I00005727J-00000521D01*
G01X00356673Y00172021D02*
G03X00356529Y00172420I-00000497J00000046D01*
G01X00356529D02*
X00348525Y00180425D01*
X00347499Y00182900D02*
G03X00348525Y00180425I00003501J00000000D01*
G01X00347499Y00182900D02*
Y00186343D01*
X00347499D02*
G03X00347353Y00186696I-00000499J00000000D01*
G01X00347353D02*
X00344525Y00189525D01*
X00343499Y00192000D02*
G03X00344525Y00189525I00003501J00000000D01*
G01X00343499Y00192000D02*
Y00200386D01*
X00343499D02*
G03X00342666Y00200758I-00000499J00000000D01*
G01X00333500Y00204837D02*
G03X00342666Y00200758I00005500J00000021D01*
G01X00333500Y00204837D02*
G03X00333499Y00204858I-00000499J-00000001D01*
G01X00333499D02*
G03X00333500Y00204878I-00000498J00000022D01*
G01X00335333Y00208957D02*
G03X00333500Y00204878I00003667J-00004098D01*
G01X00335333Y00208957D02*
G03X00335499Y00209330I-00000333J00000373D01*
G01X00335499D02*
Y00211000D01*
X00335814Y00212450D02*
G03X00335499Y00211000I00003186J-00001450D01*
G01X00335814Y00212450D02*
G03X00335704Y00213019I-00000454J00000207D01*
G01X00334032Y00217595D02*
G03X00335704Y00213019I00005468J-00000595D01*
G01X00334032Y00217595D02*
G03X00333426Y00218137I-00000496J00000054D01*
G01X00320062Y00226938D02*
G03X00333426Y00218137I00010938J00002062D01*
G01X00320062Y00226938D02*
G03X00319315Y00227275I-00000490J-00000092D01*
G01X00312400Y00228333D02*
G03X00319315Y00227275I00004100J00003667D01*
G01X00312400Y00228333D02*
G03X00312027Y00228499I-00000372J-00000333D01*
G01X00312027D02*
X00302656D01*
X00302656D02*
G03X00302303Y00228353I00000000J-00000499D01*
G01X00302303D02*
X00297474Y00223525D01*
X00296224Y00222721D02*
G03X00297474Y00223525I-00001224J00003279D01*
G01X00296224Y00222721D02*
G03X00296158Y00221815I00000175J-00000468D01*
G01X00298541Y00219198D02*
G03X00296158Y00221815I-00005041J-00002198D01*
G01X00298541Y00219198D02*
G03X00299458I00000459J00000199D01*
G01X00308599Y00220666D02*
G03X00299458Y00219198I-00004099J-00003666D01*
G01X00308599Y00220666D02*
G03X00308972Y00220500I00000373J00000334D01*
G01X00319000*
X00321474Y00219474D02*
G03X00319000Y00220500I-00002474J-00002474D01*
G01X00321474Y00219474D02*
X00331474Y00209474D01*
X00332500Y00207000D02*
G03X00331474Y00209474I-00003500J00000000D01*
G01X00332500Y00207000D02*
Y00204880D01*
X00332500D02*
G03Y00204858I00000500J00000000D01*
G01X00332500D02*
G03Y00204835I00000500J-00000022D01*
G01X00332500D02*
Y00200000D01*
X00331474Y00197525D02*
G03X00332500Y00200000I-00002474J00002475D01*
G01X00331474Y00197525D02*
X00326646Y00192696D01*
X00326646D02*
G03X00326500Y00192343I00000354J-00000352D01*
G01Y00189613*
X00326500D02*
G03X00326666Y00189241I00000500J00000000D01*
G01Y00181042D02*
G03Y00189241I-00003666J00004099D01*
G01Y00181042D02*
G03X00326500Y00180669I00000334J-00000372D01*
G01X00326500D02*
Y00176655D01*
G03X00326637Y00176310I00000500J00000000*
G01X00327600Y00173900D02*
G03X00326637Y00176310I-00003500J00000000D01*
G01X00327600Y00173900D02*
Y00169828D01*
G03X00327933Y00169357I00000500J00000000*
G01X00329600Y00167000D02*
G03X00327933Y00169357I-00002500J00000000D01*
G01X00329600Y00167000D02*
Y00161000D01*
X00327100Y00158499D02*
G03X00329600Y00161000I00000000J00002501D01*
G01X00327100Y00158499D02*
X00321100D01*
X00318742Y00160166D02*
G03X00321100Y00158499I00002358J00000834D01*
G01X00318742Y00160166D02*
G03X00318271Y00160499I-00000470J-00000166D01*
G01X00318271D02*
X00317656D01*
X00317656D02*
G03X00317303Y00160353I00000000J-00000499D01*
G01X00317303D02*
X00312637Y00155687D01*
G03X00312491Y00155306I00000353J-00000353*
G01X00303959Y00159583D02*
G03X00312491Y00155306I00003041J-00004583D01*
G01X00303959Y00159583D02*
G03Y00160416I-00000275J00000417D01*
G01X00301668Y00163649D02*
G03X00303959Y00160416I00005332J00001351D01*
G01X00301668Y00163649D02*
G03X00300830Y00163880I-00000484J-00000122D01*
G01X00297646Y00160696*
X00297646D02*
G03X00297500Y00160343I00000354J-00000352D01*
G01Y00146828*
G03X00297833Y00146357I00000500J00000000*
G01X00299500Y00144000D02*
G03X00297833Y00146357I-00002500J00000000D01*
G01X00299500Y00144000D02*
Y00138000D01*
X00298843Y00136310D02*
G03X00299500Y00138000I-00001843J00001690D01*
G01X00298843Y00136310D02*
G03X00298777Y00135725I00000368J-00000336D01*
G01X00289222D02*
G03X00298777I00004778J-00002725D01*
G01X00289222D02*
G03X00289156Y00136310I-00000433J00000248D01*
G01X00288499Y00138000D02*
G03X00289156Y00136310I00002501J00000000D01*
G01X00288499Y00138000D02*
Y00144000D01*
X00290166Y00146357D02*
G03X00288499Y00144000I00000834J-00002357D01*
G01X00290166Y00146357D02*
G03X00290499Y00146828I-00000166J00000471D01*
G01X00290499D02*
Y00162000D01*
X00291525Y00164474D02*
G03X00290499Y00162000I00002475J-00002474D01*
G01X00291525Y00164474D02*
X00301362Y00174312D01*
X00301362D02*
G03X00301508Y00174693I-00000352J00000354D01*
G01X00303959Y00179583D02*
G03X00301508Y00174693I00003041J-00004583D01*
G01X00303959Y00179583D02*
G03Y00180416I-00000275J00000417D01*
G01X00304336Y00189811D02*
G03X00303959Y00180416I00002664J-00004811D01*
G01X00304336Y00189811D02*
G03X00304447Y00190602I-00000242J00000438D01*
G01X00304447D02*
X00290696Y00204353D01*
X00290696D02*
G03X00290343Y00204499I-00000352J-00000353D01*
G01X00290343D02*
X00282156D01*
X00282156D02*
G03X00281685Y00203833I00000000J-00000499D01*
G01X00280166Y00197900D02*
G03X00281685Y00203833I-00003666J00004100D01*
G01X00280166Y00197900D02*
G03X00280000Y00197527I00000334J-00000372D01*
G01X00280000D02*
Y00194936D01*
G03X00280062Y00194694I00000500J00000000*
G01X00280500Y00193000D02*
G03X00280062Y00194694I-00003500J00000000D01*
G01X00280500Y00193000D02*
Y00190828D01*
G03X00280833Y00190357I00000500J00000000*
G01X00282500Y00188000D02*
G03X00280833Y00190357I-00002500J00000000D01*
G01X00282500Y00188000D02*
Y00182000D01*
X00281020Y00179717D02*
G03X00282500Y00182000I-00001020J00002283D01*
G01X00281020Y00179717D02*
G03X00280872Y00178906I00000204J-00000455D01*
G01X00280040Y00170416D02*
G03X00280872Y00178906I-00003040J00004584D01*
G01X00280040Y00170416D02*
G03Y00169583I00000276J-00000416D01*
G01Y00160416D02*
G03Y00169583I-00003040J00004584D01*
G01Y00160416D02*
G03Y00159583I00000276J-00000416D01*
G01X00273959D02*
G03X00280040I00003041J-00004583D01*
G01X00273959D02*
G03Y00160416I-00000275J00000417D01*
G01X00272900Y00161333D02*
G03X00273959Y00160416I00004100J00003667D01*
G01X00272900Y00161333D02*
G03X00272527Y00161499I-00000372J-00000333D01*
G01X00272527D02*
X00247656D01*
X00247656D02*
G03X00247303Y00161353I00000000J-00000499D01*
G01X00247303D02*
X00234474Y00148525D01*
X00232000Y00147499D02*
G03X00234474Y00148525I00000000J00003501D01*
G01X00232000Y00147499D02*
X00222701D01*
X00222701D02*
G03X00222439Y00146574I00000000J-00000499D01*
G01X00215560D02*
G03X00222439I00003440J-00005574D01*
G01X00215560D02*
G03X00215298Y00147499I-00000261J00000425D01*
G01X00215298D02*
X00184805D01*
X00184805D02*
G03X00184393Y00147283I00000000J-00000499D01*
G01Y00154716D02*
G03Y00147283I-00005393J-00003716D01*
G01Y00154716D02*
G03X00184805Y00154500I00000412J00000284D01*
G01X00215298*
G03X00215560Y00155425I00000000J00000500*
G01X00215283Y00166393D02*
G03X00215560Y00155425I00003717J-00005393D01*
G01X00215283Y00166393D02*
G03X00215499Y00166805I-00000283J00000412D01*
G01X00215499D02*
Y00178907D01*
X00215499D02*
G03X00214571Y00179165I-00000499J00000000D01*
G01X00204366Y00182306D02*
G03X00214571Y00179165I00005492J-00000306D01*
G01X00204366Y00182306D02*
G03X00204221Y00182687I-00000498J00000027D01*
G01X00193554Y00193353*
X00193554D02*
G03X00193201Y00193499I-00000352J-00000353D01*
G01X00193201D02*
X00181972D01*
X00181972D02*
G03X00181599Y00193333I00000000J-00000499D01*
G01X00173833Y00201099D02*
G03X00181599Y00193333I00003667J-00004099D01*
G01X00173833Y00201099D02*
G03X00173999Y00201472I-00000333J00000373D01*
G01X00173999D02*
Y00206527D01*
X00173999D02*
G03X00173833Y00206900I-00000499J00000000D01*
G01X00181166D02*
G03X00173833I-00003666J00004100D01*
G01X00181166D02*
G03X00181000Y00206527I00000334J-00000372D01*
G01X00181000D02*
Y00201472D01*
G03X00181166Y00201099I00000500J00000000*
G01X00181599Y00200666D02*
G03X00181166Y00201099I-00004099J-00003666D01*
G01X00181599Y00200666D02*
G03X00181972Y00200500I00000373J00000334D01*
G01X00194858*
X00197333Y00199474D02*
G03X00194858Y00200500I-00002474J-00002474D01*
G01X00197333Y00199474D02*
X00208245Y00188562D01*
X00208245D02*
G03X00209086Y00189026I00000353J00000354D01*
G01X00208999Y00189800D02*
G03X00209086Y00189026I00003501J00000000D01*
G01X00208999Y00189800D02*
Y00192527D01*
X00208999D02*
G03X00208833Y00192900I-00000499J00000000D01*
G01X00208539Y00200816D02*
G03X00208833Y00192900I00003961J-00003816D01*
G01X00208539Y00200816D02*
G03X00208532Y00201518I-00000359J00000347D01*
G01X00208525Y00201525D02*
G03X00208532Y00201518I00002475J00002475D01*
G01X00208525Y00201525D02*
X00204525Y00205525D01*
X00203499Y00208000D02*
G03X00204525Y00205525I00003501J00000000D01*
G01X00203499Y00208000D02*
Y00228000D01*
X00204525Y00230474D02*
G03X00203499Y00228000I00002475J-00002474D01*
G01X00204525Y00230474D02*
X00208525Y00234474D01*
X00208532Y00234481D02*
G03X00208525Y00234474I00002468J-00002481D01*
G01X00208532Y00234481D02*
G03X00208539Y00235183I-00000352J00000355D01*
G01X00208833Y00243099D02*
G03X00208539Y00235183I00003667J-00004099D01*
G01X00208833Y00243099D02*
G03X00208999Y00243472I-00000333J00000373D01*
G01X00208999D02*
Y00247499D01*
X00208999D02*
G03X00208499Y00247999I-00000499J00000000D01*
G01X00208499D02*
X00204472D01*
X00204472D02*
G03X00204099Y00247833I00000000J-00000499D01*
G01X00195416Y00248459D02*
G03X00204099Y00247833I00004584J00003041D01*
G01X00195416Y00248459D02*
G03X00194583I-00000416J-00000275D01*
G01X00189693Y00246008D02*
G03X00194583Y00248459I00000307J00005492D01*
G01X00189693Y00246008D02*
G03X00189312Y00245862I-00000026J-00000498D01*
G01X00189312D02*
X00183137Y00239687D01*
G03X00182991Y00239306I00000353J-00000353*
G01X00177806Y00244491D02*
G03X00182991Y00239306I-00000306J-00005491D01*
G01X00177806Y00244491D02*
G03X00178187Y00244637I00000027J00000499D01*
G01X00184362Y00250812*
X00184362D02*
G03X00184508Y00251193I-00000352J00000354D01*
G01Y00251806D02*
G03Y00251193I00005492J-00000306D01*
G01Y00251806D02*
G03X00184362Y00252187I-00000498J00000027D01*
G01X00184362D02*
X00184025Y00252525D01*
X00182999Y00255000D02*
G03X00184025Y00252525I00003501J00000000D01*
G01X00182999Y00255000D02*
Y00258000D01*
X00183836Y00260271D02*
G03X00182999Y00258000I00002664J-00002271D01*
G01X00183836Y00260271D02*
G03X00183168Y00261004I-00000379J00000324D01*
G01X00179693Y00260008D02*
G03X00183168Y00261004I00000307J00005492D01*
G01X00179693Y00260008D02*
G03X00179312Y00259862I-00000026J-00000498D01*
G01X00179312D02*
X00176646Y00257196D01*
X00176646D02*
G03X00176500Y00256843I00000354J-00000352D01*
G01Y00250236*
X00175474Y00247761D02*
G03X00176500Y00250236I-00002474J00002475D01*
G01X00175474Y00247761D02*
X00169688Y00241974D01*
X00169688D02*
G03X00169545Y00241560I00000353J-00000352D01*
G01X00167282Y00236097D02*
G03X00169545Y00241560I-00003691J00004729D01*
G01X00167282Y00236097D02*
G03X00167090Y00235703I00000308J-00000393D01*
G01X00167090D02*
Y00235123D01*
X00167090D02*
G03X00167282Y00234729I00000500J00000000D01*
G01X00168319Y00233692D02*
G03X00167282Y00234729I-00004728J-00003692D01*
G01X00168319Y00233692D02*
G03X00168714Y00233500I00000395J00000308D01*
G01X00168999*
X00171474Y00232474D02*
G03X00168999Y00233500I-00002474J-00002474D01*
G01X00171474Y00232474D02*
X00172474Y00231474D01*
X00173427Y00229710D02*
G03X00172474Y00231474I-00003427J-00000710D01*
G01X00173427Y00229710D02*
G03X00174215Y00229411I00000489J00000102D01*
G01X00173400Y00221333D02*
G03X00174215Y00229411I00004100J00003667D01*
G01X00173400Y00221333D02*
G03X00173027Y00221499I-00000372J-00000333D01*
G01X00173027D02*
X00172000D01*
X00169814Y00222266D02*
G03X00172000Y00221499I00002186J00002734D01*
G01X00169814Y00222266D02*
G03X00169047Y00221667I-00000311J-00000390D01*
G01X00166911Y00214176D02*
G03X00169047Y00221667I-00003320J00004997D01*
G01X00166911Y00214176D02*
G03Y00213343I00000277J-00000416D01*
G01X00157659Y00209253D02*
G03X00166911Y00213343I00005931J-00000906D01*
G01X00157659Y00209253D02*
G03X00156799Y00209669I-00000493J00000075D01*
G01X00149088Y00218756D02*
G03X00156799Y00209669I00003321J-00004996D01*
G01X00149088Y00218756D02*
G03Y00219589I-00000276J00000417D01*
G01Y00229583D02*
G03Y00219589I00003321J-00004996D01*
G01Y00229583D02*
G03Y00230416I-00000276J00000417D01*
G01Y00240410D02*
G03Y00230416I00003321J-00004996D01*
G01Y00240410D02*
G03Y00241243I-00000276J00000416D01*
G01X00156799Y00250330D02*
G03X00149088Y00241243I-00004389J-00004089D01*
G01X00156799Y00250330D02*
G03X00157659Y00250746I00000366J00000341D01*
G01X00168583Y00254980D02*
G03X00157659Y00250746I-00004992J-00003326D01*
G01X00168583Y00254980D02*
G03X00169499Y00255257I00000416J00000277D01*
G01X00169499D02*
Y00258500D01*
X00170525Y00260974D02*
G03X00169499Y00258500I00002475J-00002474D01*
G01X00170525Y00260974D02*
X00174362Y00264812D01*
X00174362D02*
G03X00174508Y00265193I-00000352J00000354D01*
G01X00181281Y00270848D02*
G03X00174508Y00265193I-00001281J-00005348D01*
G01X00181281Y00270848D02*
G03X00181722Y00270955I00000116J00000486D01*
G01X00181722D02*
G03X00182023Y00270614I00000485J00000124D01*
G01X00183114Y00270032D02*
G03X00182023Y00270614I-00003114J-00004532D01*
G01X00183114Y00270032D02*
G03X00183751Y00270798I00000284J00000413D01*
G01X00183751D02*
X00183193Y00271356D01*
X00183193D02*
G03X00182859Y00271502I-00000353J-00000352D01*
G01X00182306Y00271569D02*
G03X00182859Y00271502I00000694J00003431D01*
G01X00182306Y00271569D02*
G03X00181881Y00271459I-00000098J-00000489D01*
G01X00181881D02*
G03X00181597Y00271793I-00000483J-00000124D01*
G01X00180525Y00272525D02*
G03X00181597Y00271793I00002475J00002475D01*
G01X00180525Y00272525D02*
X00169010Y00284040D01*
G03X00168207Y00283467I-00000353J-00000353*
G01X00155547Y00289585D02*
G03X00168207Y00283467I00002453J-00011081D01*
G01X00155547Y00289585D02*
G03X00155652Y00290526I-00000107J00000488D01*
G01X00155638Y00300467D02*
G03X00155652Y00290526I00002362J-00004967D01*
G01X00155638Y00300467D02*
G03X00155777Y00301272I-00000213J00000451D01*
G01X00155777D02*
X00154696Y00302353D01*
X00154696D02*
G03X00154343Y00302499I-00000352J-00000353D01*
G01X00154343D02*
X00152858D01*
X00150383Y00303525D02*
G03X00152858Y00302499I00002475J00002475D01*
G01X00150383Y00303525D02*
X00143687Y00310221D01*
G03X00143306Y00310366I-00000353J-00000353*
G01X00141479Y00321144D02*
G03X00143306Y00310366I00001521J-00005285D01*
G01X00141479Y00321144D02*
G03X00141695Y00321271I-00000137J00000480D01*
G01X00146677Y00326253*
X00146677D02*
G03X00146110Y00327059I-00000352J00000353D01*
G01X00153428Y00335050D02*
G03X00146110Y00327059I-00013428J00004950D01*
G01X00153428Y00335050D02*
G03X00154239Y00334513I00000469J-00000171D01*
G01X00160662Y00335312D02*
G03X00154239Y00334513I-00002662J-00004812D01*
G01X00160662Y00335312D02*
G03X00160904Y00335250I00000242J00000438D01*
G01X00160904D02*
X00169749D01*
X00169749D02*
G03X00170249Y00335750I00000000J00000500D01*
G01X00170249D02*
Y00337563D01*
X00170249D02*
G03X00169458Y00337969I-00000499J00000000D01*
G01X00168000Y00337499D02*
G03X00169458Y00337969I00000000J00002501D01*
G01X00168000Y00337499D02*
X00162000D01*
X00159499Y00340000D02*
G03X00162000Y00337499I00002501J00000000D01*
G01X00159499Y00340000D02*
Y00346000D01*
X00162000Y00348500D02*
G03X00159499Y00346000I00000000J-00002500D01*
G01X00162000Y00348500D02*
X00168000D01*
X00170282Y00347020D02*
G03X00168000Y00348500I-00002282J-00001020D01*
G01X00170282Y00347020D02*
G03X00171093Y00346872I00000456J00000204D01*
G01X00179583Y00346040D02*
G03X00171094Y00346872I-00004583J-00003040D01*
G01X00179583Y00346040D02*
G03X00180416I00000417J00000276D01*
G01X00180645Y00339639D02*
G03X00180416Y00346040I00004355J00003361D01*
G01X00180645Y00339639D02*
G03X00179750Y00339334I-00000394J-00000304D01*
G01Y00331994*
X00179750D02*
G03X00180270Y00331495I00000500J00000000D01*
G01X00179489Y00320593D02*
G03X00180270Y00331495I00001011J00005407D01*
G01X00179489Y00320593D02*
G03X00179285Y00320589I-00000091J-00000490D01*
G01X00178500Y00320499D02*
G03X00179285Y00320589I00000000J00003501D01*
G01X00178500Y00320499D02*
X00176656D01*
X00176656D02*
G03X00176303Y00320353I00000000J-00000499D01*
G01X00176303D02*
X00171646Y00315696D01*
X00171646D02*
G03X00171500Y00315343I00000354J-00000352D01*
G01Y00296656*
X00171500D02*
G03X00171646Y00296303I00000500J00000000D01*
G01X00185303Y00282646*
G03X00185656Y00282500I00000353J00000354*
G01X00185656D02*
X00194500D01*
X00196974Y00281474D02*
G03X00194500Y00282500I-00002474J-00002474D01*
G01X00196974Y00281474D02*
X00207312Y00271137D01*
X00207312D02*
G03X00207693Y00270991I00000354J00000353D01*
G01X00208306D02*
G03X00207693I-00000306J-00005491D01*
G01X00208306D02*
G03X00208687Y00271137I00000027J00000499D01*
G01X00215025Y00277474*
X00217500Y00278500D02*
G03X00215025Y00277474I00000000J-00003500D01*
G01X00217500Y00278500D02*
X00222000D01*
X00230000*
X00230923Y00278376D02*
G03X00230000Y00278500I-00000923J-00003376D01*
G01X00230923Y00278376D02*
G03X00231055Y00278358I00000132J00000482D01*
G01X00235231*
X00235231D02*
G03X00235628Y00279161I00000000J00000500D01*
G01X00234566Y00281649D02*
G03X00235628Y00279161I00005434J00000851D01*
G01X00234566Y00281649D02*
G03X00234149Y00282066I-00000493J-00000076D01*
G01X00239583Y00290540D02*
G03X00234149Y00282066I-00004583J-00003040D01*
G01X00239583Y00290540D02*
G03X00240416I00000417J00000276D01*
G01X00241333Y00291599D02*
G03X00240416Y00290540I00003667J-00004099D01*
G01X00241333Y00291599D02*
G03X00241499Y00291972I-00000333J00000373D01*
G01X00241499D02*
Y00295000D01*
X00241755Y00296312D02*
G03X00241499Y00295000I00003245J-00001312D01*
G01X00241755Y00296312D02*
G03X00241291Y00296999I-00000463J00000187D01*
G01X00241291D02*
X00226472D01*
X00226472D02*
G03X00226099Y00296833I00000000J-00000499D01*
G01Y00304166D02*
G03Y00296833I-00004099J-00003666D01*
G01Y00304166D02*
G03X00226472Y00304000I00000373J00000334D01*
G01X00236343*
G03X00236814Y00304666I00000000J00000500*
G01X00236508Y00306806D02*
G03X00236814Y00304666I00005492J-00000306D01*
G01X00236508Y00306806D02*
G03X00236362Y00307187I-00000498J00000027D01*
G01X00236362D02*
X00236196Y00307353D01*
X00236196D02*
G03X00235843Y00307499I-00000352J-00000353D01*
G01X00235843D02*
X00228500D01*
X00226025Y00308525D02*
G03X00228500Y00307499I00002475J00002475D01*
G01X00226025Y00308525D02*
X00225187Y00309362D01*
X00225187D02*
G03X00224806Y00309508I-00000353J-00000352D01*
G01X00224185D02*
G03X00224806I00000315J00005492D01*
G01X00224185D02*
G03X00223824Y00309383I-00000028J-00000498D01*
G01X00221500Y00308499D02*
G03X00223824Y00309383I00000000J00003501D01*
G01X00221500Y00308499D02*
X00219972D01*
X00219972D02*
G03X00219599Y00308333I00000000J-00000499D01*
G01X00218559Y00316570D02*
G03X00219599Y00308333I-00003059J-00004570D01*
G01X00218559Y00316570D02*
G03X00219309Y00316820I00000279J00000415D01*
G01X00221459Y00319583D02*
G03X00219309Y00316820I00003041J-00004583D01*
G01X00221459Y00319583D02*
G03Y00320416I-00000275J00000417D01*
G01X00220400Y00321333D02*
G03X00221459Y00320416I00004100J00003667D01*
G01X00220400Y00321333D02*
G03X00220027Y00321499I-00000372J-00000333D01*
G01X00220027D02*
X00218816D01*
X00218816D02*
G03X00218540Y00321416I00000000J-00000499D01*
G01X00220023Y00329128D02*
G03X00218540Y00321416I-00004523J-00003128D01*
G01X00220023Y00329128D02*
G03X00220773Y00329045I00000411J00000284D01*
G01X00226610Y00330078D02*
G03X00220773Y00329045I-00002110J-00005078D01*
G01X00226610Y00330078D02*
G03X00227156Y00330894I00000192J00000462D01*
G01X00220687Y00337362*
X00220687D02*
G03X00220306Y00337508I-00000353J-00000352D01*
G01X00216093Y00339127D02*
G03X00220306Y00337508I00003907J00003873D01*
G01X00216093Y00339127D02*
G03X00215282Y00338979I-00000354J-00000351D01*
G01X00213000Y00337499D02*
G03X00215282Y00338979I00000000J00002501D01*
G01X00213000Y00337499D02*
X00207000D01*
X00204499Y00340000D02*
G03X00207000Y00337499I00002501J00000000D01*
G01X00204499Y00340000D02*
Y00346000D01*
X00204642Y00346833D02*
G03X00204499Y00346000I00002358J-00000833D01*
G01X00204642Y00346833D02*
G03X00204171Y00347499I-00000470J00000166D01*
G01X00204171D02*
X00203156D01*
X00203156D02*
G03X00202803Y00347353I00000000J-00000499D01*
G01X00202803D02*
X00201146Y00345696D01*
X00201146D02*
G03X00201000Y00345343I00000354J-00000352D01*
G01Y00316000*
X00199974Y00313525D02*
G03X00201000Y00316000I-00002474J00002475D01*
G01X00199974Y00313525D02*
X00197646Y00311196D01*
X00197646D02*
G03X00197500Y00310843I00000354J-00000352D01*
G01Y00304972*
G03X00197666Y00304599I00000500J00000000*
G01X00189900Y00296833D02*
G03X00197666Y00304599I00004100J00003667D01*
G01X00189900Y00296833D02*
G03X00189527Y00296999I-00000372J-00000333D01*
G01X00189527D02*
X00184472D01*
X00184472D02*
G03X00184099Y00296833I00000000J-00000499D01*
G01X00176333Y00304599D02*
G03X00184099Y00296833I00003667J-00004099D01*
G01X00176333Y00304599D02*
G03X00176499Y00304972I-00000333J00000373D01*
G01X00176499D02*
Y00306000D01*
X00176814Y00307450D02*
G03X00176499Y00306000I00003186J-00001450D01*
G01X00176814Y00307450D02*
G03X00176704Y00308019I-00000454J00000207D01*
G01X00184166Y00307900D02*
G03X00176704Y00308019I-00003666J00004100D01*
G01X00184166Y00307900D02*
G03X00184000Y00307527I00000334J-00000372D01*
G01X00184000D02*
Y00306500D01*
X00183685Y00305049D02*
G03X00184000Y00306500I-00003185J00001451D01*
G01X00183685Y00305049D02*
G03X00183795Y00304480I00000455J-00000206D01*
G01X00184099Y00304166D02*
G03X00183795Y00304480I-00004099J-00003666D01*
G01X00184099Y00304166D02*
G03X00184472Y00304000I00000373J00000334D01*
G01X00189527*
X00189527D02*
G03X00189900Y00304166I00000000J00000500D01*
G01X00190333Y00304599D02*
G03X00189900Y00304166I00003667J-00004099D01*
G01X00190333Y00304599D02*
G03X00190499Y00304972I-00000333J00000373D01*
G01X00190499D02*
Y00312500D01*
X00191525Y00314974D02*
G03X00190499Y00312500I00002475J-00002474D01*
G01X00191525Y00314974D02*
X00193853Y00317303D01*
X00193853D02*
G03X00193999Y00317656I-00000353J00000353D01*
G01X00193999D02*
Y00347000D01*
X00195025Y00349474D02*
G03X00193999Y00347000I00002475J-00002474D01*
G01X00195025Y00349474D02*
X00199025Y00353474D01*
X00201500Y00354500D02*
G03X00199025Y00353474I00000000J-00003500D01*
G01X00201500Y00354500D02*
X00259000D01*
X00261474Y00353474D02*
G03X00259000Y00354500I-00002474J-00002474D01*
G01X00261474Y00353474D02*
X00272474Y00342474D01*
X00273500Y00340000D02*
G03X00272474Y00342474I-00003500J00000000D01*
G01X00273500Y00340000D02*
Y00321656D01*
X00273500D02*
G03X00273646Y00321303I00000500J00000000D01*
G01X00278830Y00316119*
X00278830D02*
G03X00279668Y00316350I00000353J00000354D01*
G01X00281959Y00319583D02*
G03X00279668Y00316350I00003041J-00004583D01*
G01X00281959Y00319583D02*
G03Y00320416I-00000275J00000417D01*
G01Y00329583D02*
G03Y00320416I00003041J-00004583D01*
G01Y00329583D02*
G03Y00330416I-00000275J00000417D01*
G01Y00339583D02*
G03Y00330416I00003041J-00004583D01*
G01Y00339583D02*
G03Y00340416I-00000275J00000417D01*
G01X00288040D02*
G03X00281959I-00003040J00004584D01*
G01X00288040D02*
G03Y00339583I00000276J-00000416D01*
G01X00289857Y00337579D02*
G03X00288040Y00339583I-00004857J-00002579D01*
G01X00289857Y00337579D02*
G03X00290652Y00337460I00000442J00000235D01*
G01X00290652D02*
X00294362Y00341170D01*
X00294362D02*
G03X00294508Y00341552I-00000352J00000354D01*
G01X00303980Y00345653D02*
G03X00294508Y00341552I-00003980J-00003794D01*
G01X00303980Y00345653D02*
G03X00304695Y00345645I00000362J00000346D01*
G01X00304695D02*
X00305525Y00346474D01*
X00308000Y00347500D02*
G03X00305525Y00346474I00000000J-00003500D01*
G01X00308000Y00347500D02*
X00309669D01*
X00309669D02*
G03X00310042Y00347666I00000000J00000500D01*
G01Y00340333D02*
G03Y00347666I00004099J00003667D01*
G01Y00340333D02*
G03X00309669Y00340499I-00000372J-00000333D01*
G01X00309669D02*
X00309656D01*
X00309656D02*
G03X00309303Y00340353I00000000J-00000499D01*
G01X00309303D02*
X00308333Y00339383D01*
X00305858Y00338358D02*
G03X00308333Y00339383I00000000J00003500D01*
G01X00305858Y00338358D02*
X00304472D01*
G03X00304099Y00338191I00000000J-00000499*
G01X00299693Y00336366D02*
G03X00304099Y00338191I00000307J00005492D01*
G01X00299693Y00336366D02*
G03X00299312Y00336221I-00000026J-00000498D01*
G01X00299312D02*
X00296646Y00333554D01*
X00296646D02*
G03X00296500Y00333201I00000354J-00000352D01*
G01Y00333000*
X00295474Y00330525D02*
G03X00296500Y00333000I-00002474J00002475D01*
G01X00295474Y00330525D02*
X00291428Y00326479D01*
X00291428D02*
G03X00291827Y00325627I00000354J-00000353D01*
G01X00292141Y00325641D02*
G03X00291827Y00325627I00000000J-00003499D01*
G01X00292141Y00325641D02*
X00295527D01*
X00295527D02*
G03X00295900Y00325808I00000000J00000500D01*
G01X00300306Y00327633D02*
G03X00295900Y00325808I-00000306J-00005491D01*
G01X00300306Y00327633D02*
G03X00300687Y00327778I00000027J00000499D01*
G01X00300687D02*
X00305383Y00332474D01*
X00307858Y00333500D02*
G03X00305383Y00332474I00000000J-00003500D01*
G01X00307858Y00333500D02*
X00309669D01*
X00309669D02*
G03X00310042Y00333666I00000000J00000500D01*
G01Y00326333D02*
G03Y00333666I00004099J00003667D01*
G01Y00326333D02*
G03X00309669Y00326499I-00000372J-00000333D01*
G01X00309669D02*
X00309515D01*
X00309515D02*
G03X00309161Y00326353I00000000J-00000499D01*
G01X00309161D02*
X00305637Y00322829D01*
G03X00305491Y00322447I00000353J-00000353*
G01X00295900Y00318475D02*
G03X00305491Y00322447I00004100J00003666D01*
G01X00295900Y00318475D02*
G03X00295527Y00318641I-00000372J-00000333D01*
G01X00295527D02*
X00293798D01*
X00293798D02*
G03X00293445Y00318495I00000000J-00000499D01*
G01X00290637Y00315687*
G03X00290491Y00315306I00000353J-00000353*
G01X00288040Y00310416D02*
G03X00290491Y00315306I-00003040J00004584D01*
G01X00288040Y00310416D02*
G03Y00309583I00000276J-00000416D01*
G01X00289702Y00307852D02*
G03X00288040Y00309583I-00004702J-00002852D01*
G01X00289702Y00307852D02*
G03X00290494Y00307768I00000428J00000259D01*
G01X00299991Y00303693D02*
G03X00290494Y00307768I-00005491J00000307D01*
G01X00299991Y00303693D02*
G03X00300137Y00303312I00000499J-00000026D01*
G01X00300137D02*
X00306474Y00296974D01*
X00307500Y00294500D02*
G03X00306474Y00296974I-00003500J00000000D01*
G01X00307500Y00294500D02*
Y00263000D01*
X00306474Y00260525D02*
G03X00307500Y00263000I-00002474J00002475D01*
G01X00306474Y00260525D02*
X00300119Y00254169D01*
X00300119D02*
G03X00300350Y00253331I00000354J-00000352D01*
G01X00298693Y00242508D02*
G03X00300350Y00253331I00000307J00005492D01*
G01X00298693Y00242508D02*
G03X00298312Y00242362I-00000026J-00000498D01*
G01X00298312D02*
X00293474Y00237525D01*
X00291140Y00236502D02*
G03X00293474Y00237525I-00000140J00003498D01*
G01X00291140Y00236502D02*
G03X00290806Y00236356I00000020J-00000498D01*
G01X00290806D02*
X00287137Y00232687D01*
G03X00286991Y00232306I00000353J-00000353*
G01X00286685Y00230166D02*
G03X00286991Y00232306I-00005185J00001834D01*
G01X00286685Y00230166D02*
G03X00287156Y00229500I00000471J-00000165D01*
G01X00287156D02*
X00293343D01*
G03X00293696Y00229646I00000000J00000500*
G01X00293696D02*
X00298525Y00234474D01*
X00301000Y00235500D02*
G03X00298525Y00234474I00000000J-00003500D01*
G01X00301000Y00235500D02*
X00312027D01*
X00312027D02*
G03X00312400Y00235666I00000000J00000500D01*
G01X00316806Y00237491D02*
G03X00312400Y00235666I-00000306J-00005491D01*
G01X00316806Y00237491D02*
G03X00317187Y00237637I00000027J00000499D01*
G01X00318353Y00238803*
X00318353D02*
G03X00318499Y00239156I-00000353J00000353D01*
G01X00318499D02*
Y00241000D01*
X00318625Y00241928D02*
G03X00318499Y00241000I00003375J-00000928D01*
G01X00318625Y00241928D02*
G03X00318214Y00242556I-00000481J00000133D01*
G01X00323583Y00251040D02*
G03X00318214Y00242556I-00004583J-00003040D01*
G01X00323583Y00251040D02*
G03X00324416I00000417J00000276D01*
G01X00331749Y00252763D02*
G03X00324416Y00251040I-00002749J-00004763D01*
G01X00331749Y00252763D02*
G03X00332499Y00253196I00000250J00000433D01*
G01X00332499D02*
Y00257999D01*
X00332499D02*
G03X00331999Y00258499I-00000499J00000000D01*
G01X00331999D02*
X00327000D01*
X00324499Y00261000D02*
G03X00327000Y00258499I00002501J00000000D01*
G01X00324499Y00261000D02*
Y00267000D01*
X00325979Y00269282D02*
G03X00324499Y00267000I00001021J-00002282D01*
G01X00325979Y00269282D02*
G03X00326127Y00270093I-00000203J00000456D01*
G01X00325900Y00270333D02*
G03X00326127Y00270094I00004100J00003667D01*
G01X00325900Y00270333D02*
G03X00325527Y00270499I-00000372J-00000333D01*
G01X00325527D02*
X00323972D01*
X00323972D02*
G03X00323599Y00270333I00000000J-00000499D01*
G01X00316459Y00278583D02*
G03X00323599Y00270333I00003041J-00004583D01*
G01X00316459Y00278583D02*
G03Y00279416I-00000275J00000417D01*
G01Y00288583D02*
G03Y00279416I00003041J-00004583D01*
G01Y00288583D02*
G03Y00289416I-00000275J00000417D01*
G01Y00298583D02*
G03Y00289416I00003041J-00004583D01*
G01Y00298583D02*
G03Y00299416I-00000275J00000417D01*
G01X00323599Y00307666D02*
G03X00316459Y00299416I-00004099J-00003666D01*
G01X00323599Y00307666D02*
G03X00323972Y00307500I00000373J00000334D01*
G01X00325527*
X00325527D02*
G03X00325900Y00307666I00000000J00000500D01*
G01X00330306Y00309491D02*
G03X00325900Y00307666I-00000306J-00005491D01*
G01X00330306Y00309491D02*
G03X00330687Y00309637I00000027J00000499D01*
G01X00332353Y00311303*
X00332353D02*
G03X00332499Y00311656I-00000353J00000353D01*
G01X00332499D02*
Y00318141D01*
X00333525Y00320616D02*
G03X00332499Y00318141I00002475J-00002474D01*
G01X00333525Y00320616D02*
X00337609Y00324701D01*
X00337609D02*
G03X00336973Y00325467I-00000352J00000353D01*
G01X00339341Y00330426D02*
G03X00336973Y00325467I-00005482J-00000426D01*
G01X00339341Y00330426D02*
G03X00340186Y00330105I00000499J00000039D01*
G01X00349491Y00325835D02*
G03X00340186Y00330105I-00005491J00000306D01*
G01X00349491Y00325835D02*
G03X00349637Y00325454I00000499J-00000027D01*
G01X00355474Y00319616*
X00356500Y00317141D02*
G03X00355474Y00319616I-00003500J00000000D01*
G01X00356500Y00317141D02*
Y00311646D01*
X00356500D02*
G03X00357432Y00311395I00000500J00000000D01*
G01X00266500Y00180141D02*
G03X00266500I-00005500D01*
G01X00241500Y00184100D02*
G03X00241500I-00005500D01*
G01X00394311Y00340000D02*
G03X00394311I-00014311D01*
G01X00339858Y00342238D02*
G03X00338844Y00347774I00004142J00003620D01*
G01X00339858Y00342238D02*
G03X00339013Y00342083I-00000375J-00000328D01*
G01X00337999Y00347619D02*
G03X00339013Y00342083I-00004140J-00003619D01*
G01X00337999Y00347619D02*
G03X00338844Y00347774I00000376J00000329D01*
G01X00138250Y00248500D02*
Y00202409D01*
X00136250Y00200409D02*
G03X00138250Y00202409I00000000J00002000D01*
G01X00136250Y00200409D02*
X00127250D01*
X00125249Y00202409D02*
G03X00127250Y00200409I00002001J00000000D01*
G01X00125249Y00202409D02*
Y00248500D01*
X00127250Y00250500D02*
G03X00125249Y00248500I00000000J-00002000D01*
G01X00127250Y00250500D02*
X00136250D01*
X00138250Y00248500D02*
G03X00136250Y00250500I-00002000J00000000D01*
G01X00138250Y00276500D02*
Y00256772D01*
X00136250Y00254772D02*
G03X00138250Y00256772I00000000J00002000D01*
G01X00136250Y00254772D02*
X00127250D01*
X00125249Y00256772D02*
G03X00127250Y00254772I00002001J00000000D01*
G01X00125249Y00256772D02*
Y00276500D01*
X00127250Y00278500D02*
G03X00125249Y00276500I00000000J-00002000D01*
G01X00127250Y00278500D02*
X00136250D01*
X00138250Y00276500D02*
G03X00136250Y00278500I-00002000J00000000D01*
G01X00148500Y00296141D02*
G03X00148500I-00005500D01*
G01X00195641Y00182000D02*
G03X00195641I-00005499D01*
G01X00154311Y00140000D02*
G03X00154311I-00014311D01*
G01X00169350Y00181496D02*
G03X00169350I-00011350D01*
G01X00213500Y00300500D02*
G03X00213500I-00005500D01*
G01X00261130Y00140000D02*
G03X00261130I-00011130D01*
G01X00344500Y00185141D02*
G03X00344500I-00005500D01*
G01X00340416Y00133959D02*
G03Y00140040I00004584J00003041D01*
G01Y00133959D02*
G03X00339583I-00000416J-00000275D01*
G01X00331093Y00133127D02*
G03X00339583Y00133959I00003907J00003873D01*
G01X00331093Y00133127D02*
G03X00330282Y00132979I-00000354J-00000351D01*
G01X00328000Y00131499D02*
G03X00330282Y00132979I00000000J00002501D01*
G01X00328000Y00131499D02*
X00322000D01*
X00319499Y00134000D02*
G03X00322000Y00131499I00002501J00000000D01*
G01X00319499Y00134000D02*
Y00140000D01*
X00322000Y00142500D02*
G03X00319499Y00140000I00000000J-00002500D01*
G01X00322000Y00142500D02*
X00328000D01*
X00330282Y00141020D02*
G03X00328000Y00142500I-00002282J-00001020D01*
G01X00330282Y00141020D02*
G03X00331093Y00140872I00000456J00000204D01*
G01X00331333Y00141099D02*
G03X00331094Y00140872I00003667J-00004099D01*
G01X00331333Y00141099D02*
G03X00331499Y00141472I-00000333J00000373D01*
G01X00331499D02*
Y00149000D01*
X00332525Y00151474D02*
G03X00331499Y00149000I00002475J-00002474D01*
G01X00332525Y00151474D02*
X00334253Y00153203D01*
X00334253D02*
G03X00334399Y00153556I-00000353J00000353D01*
G01X00334399D02*
Y00159527D01*
X00334399D02*
G03X00334233Y00159900I-00000499J00000000D01*
G01X00341566D02*
G03X00334233I-00003666J00004100D01*
G01X00341566D02*
G03X00341400Y00159527I00000334J-00000372D01*
G01X00341400D02*
Y00151900D01*
X00340374Y00149425D02*
G03X00341400Y00151900I-00002474J00002475D01*
G01X00340374Y00149425D02*
X00338646Y00147696D01*
X00338646D02*
G03X00338500Y00147343I00000354J-00000352D01*
G01Y00141472*
G03X00338666Y00141099I00000500J00000000*
G01X00339583Y00140040D02*
G03X00338666Y00141099I-00004583J-00003040D01*
G01X00339583Y00140040D02*
G03X00340416I00000417J00000276D01*
G01X00158398Y00213398D02*
X00160338D01*
X00158385Y00214298D02*
X00160092D01*
X00158419Y00212498D02*
X00159259D01*
X00158630Y00215198D02*
X00159039D01*
X00222500Y00170198D02*
X00274142D01*
X00222500Y00169298D02*
X00273569D01*
X00216351Y00190898D02*
X00273499D01*
X00216000Y00191798D02*
X00273441D01*
X00266418Y00179198D02*
X00273271D01*
X00222500Y00171098D02*
X00273123D01*
X00240185Y00192698D02*
X00273092D01*
X00265814Y00197198D02*
X00272999D01*
X00265192Y00196298D02*
X00272999D01*
X00264219Y00195398D02*
X00272999D01*
X00262234Y00194498D02*
X00272999D01*
X00241134Y00193598D02*
X00272999D01*
X00266210Y00198098D02*
X00272623D01*
X00266182Y00178298D02*
X00272598D01*
X00217251Y00189998D02*
X00272498D01*
X00222500Y00171998D02*
X00272391D01*
X00266499Y00180098D02*
X00272376D01*
X00265767Y00177398D02*
X00272050D01*
X00222500Y00172898D02*
X00271917D01*
X00266432Y00198998D02*
X00271891D01*
X00238294Y00189098D02*
X00271754D01*
X00266432Y00180998D02*
X00271709D01*
X00265120Y00176498D02*
X00271708D01*
X00222500Y00173798D02*
X00271632D01*
X00264100Y00175598D02*
X00271532D01*
X00261789Y00174698D02*
X00271508D01*
X00239667Y00188198D02*
X00271507D01*
X00266211Y00181898D02*
X00271502D01*
X00240474Y00187298D02*
X00271499D01*
X00240996Y00186398D02*
X00271499D01*
X00262246Y00185498D02*
X00271499D01*
X00264222Y00184598D02*
X00271499D01*
X00265195Y00183698D02*
X00271499D01*
X00265815Y00182798D02*
X00271499D01*
X00266499Y00199898D02*
X00271417D01*
X00269590Y00203498D02*
X00271208D01*
X00270496Y00204398D02*
X00271144D01*
X00266890Y00200798D02*
X00271132D01*
X00268690Y00202598D02*
X00271032D01*
X00267790Y00201698D02*
X00271008D01*
X00222500Y00174698D02*
X00260210D01*
X00248725Y00194498D02*
X00259765D01*
X00241319Y00185498D02*
X00259753D01*
X00222500Y00175598D02*
X00257899D01*
X00250348Y00195398D02*
X00257780D01*
X00241477Y00184598D02*
X00257777D01*
X00222500Y00176498D02*
X00256879D01*
X00241485Y00183698D02*
X00256804D01*
X00251278Y00196298D02*
X00256764D01*
X00222500Y00177398D02*
X00256232D01*
X00241343Y00182798D02*
X00256184D01*
X00222500Y00178298D02*
X00255817D01*
X00241040Y00181898D02*
X00255788D01*
X00238495Y00179198D02*
X00255581D01*
X00240542Y00180998D02*
X00255567D01*
X00239773Y00180098D02*
X00255500D01*
X00222500Y00168398D02*
X00245163D01*
X00222500Y00167498D02*
X00243549D01*
X00222544Y00166598D02*
X00242648D01*
X00223563Y00165698D02*
X00241748D01*
X00224335Y00164798D02*
X00240848D01*
X00224873Y00163898D02*
X00239948D01*
X00225237Y00162998D02*
X00239048D01*
X00225457Y00162098D02*
X00238148D01*
X00225547Y00161198D02*
X00237248D01*
X00225512Y00160298D02*
X00236348D01*
X00225351Y00159398D02*
X00235448D01*
X00225053Y00158498D02*
X00234548D01*
X00218151Y00189098D02*
X00233705D01*
X00224597Y00157598D02*
X00233648D01*
X00222500Y00179198D02*
X00233504D01*
X00223939Y00156698D02*
X00232748D01*
X00219051Y00188198D02*
X00232332D01*
X00222500Y00180098D02*
X00232226D01*
X00222981Y00155798D02*
X00231848D01*
X00216030Y00192698D02*
X00231814D01*
X00219951Y00187298D02*
X00231525D01*
X00222500Y00180998D02*
X00231457D01*
X00220851Y00186398D02*
X00231003D01*
X00222500Y00181898D02*
X00230959D01*
X00222212Y00154898D02*
X00230948D01*
X00216822Y00193598D02*
X00230865D01*
X00221723Y00185498D02*
X00230680D01*
X00222500Y00182798D02*
X00230656D01*
X00222250Y00184598D02*
X00230522D01*
X00222477Y00183698D02*
X00230514D01*
X00217398Y00194498D02*
X00224274D01*
X00217761Y00195398D02*
X00222651D01*
X00217955Y00196298D02*
X00221751D01*
X00217996Y00197198D02*
X00220851D01*
X00217889Y00198098D02*
X00219951D01*
X00217624Y00198998D02*
X00219051D01*
X00122500Y00356498D02*
X00397500D01*
X00122500Y00355598D02*
X00397500D01*
X00122500Y00354698D02*
X00397500D01*
X00383795Y00353798D02*
X00397500D01*
X00386199Y00352898D02*
X00397500D01*
X00387799Y00351998D02*
X00397500D01*
X00389034Y00351098D02*
X00397500D01*
X00390039Y00350198D02*
X00397500D01*
X00390878Y00349298D02*
X00397500D01*
X00391587Y00348398D02*
X00397500D01*
X00392189Y00347498D02*
X00397500D01*
X00392698Y00346598D02*
X00397500D01*
X00393127Y00345698D02*
X00397500D01*
X00393482Y00344798D02*
X00397500D01*
X00393769Y00343898D02*
X00397500D01*
X00393993Y00342998D02*
X00397500D01*
X00394156Y00342098D02*
X00397500D01*
X00394260Y00341198D02*
X00397500D01*
X00394307Y00340298D02*
X00397500D01*
X00394298Y00339398D02*
X00397500D01*
X00394232Y00338498D02*
X00397500D01*
X00394108Y00337598D02*
X00397500D01*
X00393925Y00336698D02*
X00397500D01*
X00393680Y00335798D02*
X00397500D01*
X00393370Y00334898D02*
X00397500D01*
X00392991Y00333998D02*
X00397500D01*
X00392537Y00333098D02*
X00397500D01*
X00391997Y00332198D02*
X00397500D01*
X00391361Y00331298D02*
X00397500D01*
X00390612Y00330398D02*
X00397500D01*
X00389722Y00329498D02*
X00397500D01*
X00388649Y00328598D02*
X00397500D01*
X00387313Y00327698D02*
X00397500D01*
X00385525Y00326798D02*
X00397500D01*
X00382441Y00325898D02*
X00397500D01*
X00350092Y00324998D02*
X00397500D01*
X00350992Y00324098D02*
X00397500D01*
X00351892Y00323198D02*
X00397500D01*
X00352792Y00322298D02*
X00397500D01*
X00353692Y00321398D02*
X00397500D01*
X00354592Y00320498D02*
X00397500D01*
X00355492Y00319598D02*
X00397500D01*
X00356134Y00318698D02*
X00397500D01*
X00356437Y00317798D02*
X00397500D01*
X00356500Y00316898D02*
X00397500D01*
X00356500Y00315998D02*
X00397500D01*
X00356500Y00315098D02*
X00397500D01*
X00388366Y00314198D02*
X00397500D01*
X00390767Y00313298D02*
X00397500D01*
X00391826Y00312398D02*
X00397500D01*
X00392506Y00311498D02*
X00397500D01*
X00392953Y00310598D02*
X00397500D01*
X00393223Y00309698D02*
X00397500D01*
X00393342Y00308798D02*
X00397500D01*
X00393318Y00307898D02*
X00397500D01*
X00393150Y00306998D02*
X00397500D01*
X00392824Y00306098D02*
X00397500D01*
X00392307Y00305198D02*
X00397500D01*
X00391525Y00304298D02*
X00397500D01*
X00390253Y00303398D02*
X00397500D01*
X00362353Y00302498D02*
X00397500D01*
X00362751Y00301598D02*
X00397500D01*
X00363651Y00300698D02*
X00397500D01*
X00364551Y00299798D02*
X00397500D01*
X00365340Y00298898D02*
X00397500D01*
X00365754Y00297998D02*
X00397500D01*
X00388910Y00297098D02*
X00397500D01*
X00390914Y00296198D02*
X00397500D01*
X00391916Y00295298D02*
X00397500D01*
X00392565Y00294398D02*
X00397500D01*
X00392991Y00293498D02*
X00397500D01*
X00393244Y00292598D02*
X00397500D01*
X00393346Y00291698D02*
X00397500D01*
X00393307Y00290798D02*
X00397500D01*
X00393122Y00289898D02*
X00397500D01*
X00392777Y00288998D02*
X00397500D01*
X00392236Y00288098D02*
X00397500D01*
X00391415Y00287198D02*
X00397500D01*
X00390051Y00286298D02*
X00397500D01*
X00356551Y00285398D02*
X00397500D01*
X00357451Y00284498D02*
X00397500D01*
X00358351Y00283598D02*
X00397500D01*
X00359060Y00282698D02*
X00397500D01*
X00359407Y00281798D02*
X00397500D01*
X00359500Y00280898D02*
X00397500D01*
X00359500Y00279998D02*
X00397500D01*
X00359500Y00279098D02*
X00397500D01*
X00359500Y00278198D02*
X00397500D01*
X00359500Y00277298D02*
X00397500D01*
X00359500Y00276398D02*
X00397500D01*
X00359500Y00275498D02*
X00397500D01*
X00359500Y00274598D02*
X00397500D01*
X00390056Y00273698D02*
X00397500D01*
X00391418Y00272798D02*
X00397500D01*
X00392238Y00271898D02*
X00397500D01*
X00392778Y00270998D02*
X00397500D01*
X00393123Y00270098D02*
X00397500D01*
X00393307Y00269198D02*
X00397500D01*
X00393346Y00268298D02*
X00397500D01*
X00393243Y00267398D02*
X00397500D01*
X00392990Y00266498D02*
X00397500D01*
X00392564Y00265598D02*
X00397500D01*
X00391914Y00264698D02*
X00397500D01*
X00390910Y00263798D02*
X00397500D01*
X00388899Y00262898D02*
X00397500D01*
X00364948Y00261998D02*
X00397500D01*
X00365562Y00261098D02*
X00397500D01*
X00365848Y00260198D02*
X00397500D01*
X00365900Y00259298D02*
X00397500D01*
X00365900Y00258398D02*
X00397500D01*
X00365900Y00257498D02*
X00397500D01*
X00390258Y00256598D02*
X00397500D01*
X00391528Y00255698D02*
X00397500D01*
X00392309Y00254798D02*
X00397500D01*
X00392825Y00253898D02*
X00397500D01*
X00393151Y00252998D02*
X00397500D01*
X00393318Y00252098D02*
X00397500D01*
X00393342Y00251198D02*
X00397500D01*
X00393223Y00250298D02*
X00397500D01*
X00392952Y00249398D02*
X00397500D01*
X00392504Y00248498D02*
X00397500D01*
X00391824Y00247598D02*
X00397500D01*
X00390763Y00246698D02*
X00397500D01*
X00388346Y00245798D02*
X00397500D01*
X00358940Y00244898D02*
X00397500D01*
X00359354Y00243998D02*
X00397500D01*
X00359498Y00243098D02*
X00397500D01*
X00359500Y00242198D02*
X00397500D01*
X00359500Y00241298D02*
X00397500D01*
X00359500Y00240398D02*
X00397500D01*
X00359500Y00239498D02*
X00397500D01*
X00359500Y00238598D02*
X00397500D01*
X00359500Y00237698D02*
X00397500D01*
X00359500Y00236798D02*
X00397500D01*
X00359500Y00235898D02*
X00397500D01*
X00359500Y00234998D02*
X00397500D01*
X00388910Y00234098D02*
X00397500D01*
X00390914Y00233198D02*
X00397500D01*
X00391916Y00232298D02*
X00397500D01*
X00392565Y00231398D02*
X00397500D01*
X00392991Y00230498D02*
X00397500D01*
X00393244Y00229598D02*
X00397500D01*
X00393346Y00228698D02*
X00397500D01*
X00393307Y00227798D02*
X00397500D01*
X00393122Y00226898D02*
X00397500D01*
X00392777Y00225998D02*
X00397500D01*
X00392236Y00225098D02*
X00397500D01*
X00391415Y00224198D02*
X00397500D01*
X00390051Y00223298D02*
X00397500D01*
X00359500Y00222398D02*
X00397500D01*
X00359500Y00221498D02*
X00397500D01*
X00359500Y00220598D02*
X00397500D01*
X00359500Y00219698D02*
X00397500D01*
X00360051Y00218798D02*
X00397500D01*
X00360951Y00217898D02*
X00397500D01*
X00389281Y00216998D02*
X00397500D01*
X00391051Y00216098D02*
X00397500D01*
X00392002Y00215198D02*
X00397500D01*
X00392622Y00214298D02*
X00397500D01*
X00393027Y00213398D02*
X00397500D01*
X00393262Y00212498D02*
X00397500D01*
X00393349Y00211598D02*
X00397500D01*
X00393293Y00210698D02*
X00397500D01*
X00393092Y00209798D02*
X00397500D01*
X00392727Y00208898D02*
X00397500D01*
X00392161Y00207998D02*
X00397500D01*
X00391300Y00207098D02*
X00397500D01*
X00389826Y00206198D02*
X00397500D01*
X00350500Y00205298D02*
X00397500D01*
X00350500Y00204398D02*
X00397500D01*
X00350500Y00203498D02*
X00397500D01*
X00350500Y00202598D02*
X00397500D01*
X00350500Y00201698D02*
X00397500D01*
X00350500Y00200798D02*
X00397500D01*
X00350500Y00199898D02*
X00397500D01*
X00350500Y00198998D02*
X00397500D01*
X00350500Y00198098D02*
X00397500D01*
X00350500Y00197198D02*
X00397500D01*
X00350500Y00196298D02*
X00397500D01*
X00350500Y00195398D02*
X00397500D01*
X00350500Y00194498D02*
X00397500D01*
X00390258Y00193598D02*
X00397500D01*
X00391528Y00192698D02*
X00397500D01*
X00392309Y00191798D02*
X00397500D01*
X00392825Y00190898D02*
X00397500D01*
X00393151Y00189998D02*
X00397500D01*
X00393318Y00189098D02*
X00397500D01*
X00393342Y00188198D02*
X00397500D01*
X00393223Y00187298D02*
X00397500D01*
X00392952Y00186398D02*
X00397500D01*
X00392504Y00185498D02*
X00397500D01*
X00391824Y00184598D02*
X00397500D01*
X00390763Y00183698D02*
X00397500D01*
X00388346Y00182798D02*
X00397500D01*
X00356951Y00181898D02*
X00397500D01*
X00357851Y00180998D02*
X00397500D01*
X00358751Y00180098D02*
X00397500D01*
X00359651Y00179198D02*
X00397500D01*
X00360551Y00178298D02*
X00397500D01*
X00361451Y00177398D02*
X00397500D01*
X00390441Y00176498D02*
X00397500D01*
X00391632Y00175598D02*
X00397500D01*
X00392378Y00174698D02*
X00397500D01*
X00392870Y00173798D02*
X00397500D01*
X00393177Y00172898D02*
X00397500D01*
X00393328Y00171998D02*
X00397500D01*
X00393336Y00171098D02*
X00397500D01*
X00393200Y00170198D02*
X00397500D01*
X00392911Y00169298D02*
X00397500D01*
X00392441Y00168398D02*
X00397500D01*
X00391729Y00167498D02*
X00397500D01*
X00390606Y00166598D02*
X00397500D01*
X00343131Y00165698D02*
X00397500D01*
X00343341Y00164798D02*
X00397500D01*
X00343399Y00163898D02*
X00397500D01*
X00343308Y00162998D02*
X00397500D01*
X00343060Y00162098D02*
X00397500D01*
X00342633Y00161198D02*
X00397500D01*
X00341968Y00160298D02*
X00397500D01*
X00341400Y00159398D02*
X00397500D01*
X00341400Y00158498D02*
X00397500D01*
X00341400Y00157598D02*
X00397500D01*
X00341400Y00156698D02*
X00397500D01*
X00341400Y00155798D02*
X00397500D01*
X00341400Y00154898D02*
X00397500D01*
X00382973Y00153998D02*
X00397500D01*
X00385764Y00153098D02*
X00397500D01*
X00387483Y00152198D02*
X00397500D01*
X00388783Y00151298D02*
X00397500D01*
X00389832Y00150398D02*
X00397500D01*
X00390704Y00149498D02*
X00397500D01*
X00391439Y00148598D02*
X00397500D01*
X00392063Y00147698D02*
X00397500D01*
X00392593Y00146798D02*
X00397500D01*
X00393038Y00145898D02*
X00397500D01*
X00393409Y00144998D02*
X00397500D01*
X00393711Y00144098D02*
X00397500D01*
X00393948Y00143198D02*
X00397500D01*
X00394125Y00142298D02*
X00397500D01*
X00394242Y00141398D02*
X00397500D01*
X00394302Y00140498D02*
X00397500D01*
X00394305Y00139598D02*
X00397500D01*
X00394251Y00138698D02*
X00397500D01*
X00394140Y00137798D02*
X00397500D01*
X00393970Y00136898D02*
X00397500D01*
X00393740Y00135998D02*
X00397500D01*
X00393445Y00135098D02*
X00397500D01*
X00393082Y00134198D02*
X00397500D01*
X00392645Y00133298D02*
X00397500D01*
X00392125Y00132398D02*
X00397500D01*
X00391512Y00131498D02*
X00397500D01*
X00390789Y00130598D02*
X00397500D01*
X00389934Y00129698D02*
X00397500D01*
X00388907Y00128798D02*
X00397500D01*
X00387639Y00127898D02*
X00397500D01*
X00385980Y00126998D02*
X00397500D01*
X00383399Y00126098D02*
X00397500D01*
X00122500Y00125198D02*
X00397500D01*
X00122500Y00124298D02*
X00397500D01*
X00122500Y00123398D02*
X00397500D01*
X00122698Y00357398D02*
X00397301D01*
X00363146Y00245798D02*
X00386853D01*
X00363146Y00182798D02*
X00386853D01*
X00363166Y00314198D02*
X00386833D01*
X00364407Y00262898D02*
X00386300D01*
X00365898Y00297098D02*
X00386289D01*
X00363710Y00234098D02*
X00386289D01*
X00364081Y00216998D02*
X00385918D01*
X00364626Y00206198D02*
X00385373D01*
X00364851Y00286298D02*
X00385148D01*
X00364851Y00223298D02*
X00385148D01*
X00364856Y00273698D02*
X00385143D01*
X00365053Y00303398D02*
X00384946D01*
X00365900Y00256598D02*
X00384941D01*
X00365058Y00193598D02*
X00384941D01*
X00365241Y00176498D02*
X00384758D01*
X00365406Y00166598D02*
X00384593D01*
X00365563Y00246698D02*
X00384436D01*
X00365563Y00183698D02*
X00384436D01*
X00365567Y00313298D02*
X00384432D01*
X00365710Y00263798D02*
X00384289D01*
X00365910Y00296198D02*
X00384285D01*
X00365714Y00233198D02*
X00384285D01*
X00365851Y00216098D02*
X00384148D01*
X00366100Y00207098D02*
X00383899D01*
X00366215Y00287198D02*
X00383784D01*
X00366215Y00224198D02*
X00383784D01*
X00366218Y00272798D02*
X00383781D01*
X00366325Y00304298D02*
X00383674D01*
X00366328Y00255698D02*
X00383671D01*
X00366328Y00192698D02*
X00383671D01*
X00366432Y00175598D02*
X00383567D01*
X00366529Y00167498D02*
X00383470D01*
X00366624Y00247598D02*
X00383375D01*
X00366624Y00184598D02*
X00383375D01*
X00366626Y00312398D02*
X00383373D01*
X00366714Y00264698D02*
X00383285D01*
X00366716Y00295298D02*
X00383283D01*
X00366716Y00232298D02*
X00383283D01*
X00366802Y00215198D02*
X00383197D01*
X00366961Y00207998D02*
X00383038D01*
X00367036Y00288098D02*
X00382963D01*
X00367036Y00225098D02*
X00382963D01*
X00367038Y00271898D02*
X00382961D01*
X00367107Y00305198D02*
X00382892D01*
X00367109Y00254798D02*
X00382890D01*
X00367109Y00191798D02*
X00382890D01*
X00367178Y00174698D02*
X00382821D01*
X00367241Y00168398D02*
X00382758D01*
X00367304Y00248498D02*
X00382695D01*
X00367304Y00185498D02*
X00382695D01*
X00367306Y00311498D02*
X00382693D01*
X00367364Y00265598D02*
X00382635D01*
X00367365Y00294398D02*
X00382634D01*
X00367365Y00231398D02*
X00382634D01*
X00367422Y00214298D02*
X00382577D01*
X00367527Y00208898D02*
X00382472D01*
X00367577Y00288998D02*
X00382422D01*
X00367577Y00225998D02*
X00382422D01*
X00367578Y00270998D02*
X00382421D01*
X00367624Y00306098D02*
X00382375D01*
X00367625Y00253898D02*
X00382374D01*
X00367625Y00190898D02*
X00382374D01*
X00367670Y00173798D02*
X00382329D01*
X00367711Y00169298D02*
X00382288D01*
X00367752Y00249398D02*
X00382247D01*
X00367752Y00186398D02*
X00382247D01*
X00367753Y00310598D02*
X00382246D01*
X00367790Y00266498D02*
X00382209D01*
X00367791Y00293498D02*
X00382208D01*
X00367791Y00230498D02*
X00382208D01*
X00367827Y00213398D02*
X00382172D01*
X00367892Y00209798D02*
X00382107D01*
X00367922Y00289898D02*
X00382077D01*
X00367922Y00226898D02*
X00382077D01*
X00367923Y00270098D02*
X00382076D01*
X00367950Y00306998D02*
X00382049D01*
X00367951Y00252998D02*
X00382048D01*
X00367951Y00189998D02*
X00382048D01*
X00367977Y00172898D02*
X00382022D01*
X00368000Y00170198D02*
X00381999D01*
X00368023Y00250298D02*
X00381976D01*
X00368023Y00187298D02*
X00381976D01*
X00368023Y00309698D02*
X00381976D01*
X00368043Y00267398D02*
X00381956D01*
X00368044Y00292598D02*
X00381955D01*
X00368044Y00229598D02*
X00381955D01*
X00368062Y00212498D02*
X00381937D01*
X00368093Y00210698D02*
X00381906D01*
X00368107Y00290798D02*
X00381892D01*
X00368107Y00227798D02*
X00381892D01*
X00368107Y00269198D02*
X00381892D01*
X00368118Y00307898D02*
X00381881D01*
X00368118Y00252098D02*
X00381881D01*
X00368118Y00189098D02*
X00381881D01*
X00368128Y00171998D02*
X00381871D01*
X00368136Y00171098D02*
X00381864D01*
X00368142Y00251198D02*
X00381857D01*
X00368142Y00188198D02*
X00381857D01*
X00368142Y00308798D02*
X00381857D01*
X00368146Y00268298D02*
X00381853D01*
X00368146Y00291698D02*
X00381853D01*
X00368146Y00228698D02*
X00381853D01*
X00368149Y00211598D02*
X00381850D01*
X00349494Y00325898D02*
X00377558D01*
X00341400Y00153998D02*
X00377026D01*
X00143399Y00126098D02*
X00376600D01*
X00261101Y00353798D02*
X00376204D01*
X00349460Y00326798D02*
X00374474D01*
X00341400Y00153098D02*
X00374235D01*
X00145980Y00126998D02*
X00374019D01*
X00262051Y00352898D02*
X00373800D01*
X00349275Y00327698D02*
X00372686D01*
X00341400Y00152198D02*
X00372516D01*
X00296055Y00127898D02*
X00372360D01*
X00262951Y00351998D02*
X00372200D01*
X00348920Y00328598D02*
X00371350D01*
X00341347Y00151298D02*
X00371216D01*
X00297549Y00128798D02*
X00371092D01*
X00345669Y00351098D02*
X00370965D01*
X00348356Y00329498D02*
X00370277D01*
X00341061Y00150398D02*
X00370167D01*
X00298399Y00129698D02*
X00370065D01*
X00347378Y00350198D02*
X00369960D01*
X00347482Y00330398D02*
X00369387D01*
X00340446Y00149498D02*
X00369295D01*
X00298948Y00130598D02*
X00369210D01*
X00348291Y00349298D02*
X00369121D01*
X00345912Y00331298D02*
X00368638D01*
X00339548Y00148598D02*
X00368560D01*
X00299291Y00131498D02*
X00368487D01*
X00348878Y00348398D02*
X00368412D01*
X00338899Y00332198D02*
X00368002D01*
X00338648Y00147698D02*
X00367936D01*
X00348012Y00132398D02*
X00367874D01*
X00349249Y00347498D02*
X00367810D01*
X00338402Y00333098D02*
X00367462D01*
X00338500Y00146798D02*
X00367406D01*
X00349068Y00133298D02*
X00367354D01*
X00349449Y00346598D02*
X00367301D01*
X00337634Y00333998D02*
X00367008D01*
X00338500Y00145898D02*
X00366961D01*
X00349733Y00134198D02*
X00366917D01*
X00349497Y00345698D02*
X00366872D01*
X00336358Y00334898D02*
X00366629D01*
X00338500Y00144998D02*
X00366590D01*
X00350160Y00135098D02*
X00366554D01*
X00349396Y00344798D02*
X00366517D01*
X00298890Y00335798D02*
X00366319D01*
X00338500Y00144098D02*
X00366288D01*
X00350408Y00135998D02*
X00366259D01*
X00349139Y00343898D02*
X00366230D01*
X00301904Y00336698D02*
X00366074D01*
X00338500Y00143198D02*
X00366051D01*
X00350499Y00136898D02*
X00366029D01*
X00348698Y00342998D02*
X00366006D01*
X00303479Y00337598D02*
X00365891D01*
X00346474Y00142298D02*
X00365874D01*
X00350441Y00137798D02*
X00365859D01*
X00348014Y00342098D02*
X00365843D01*
X00306839Y00338498D02*
X00365767D01*
X00348301Y00141398D02*
X00365757D01*
X00350231Y00138698D02*
X00365748D01*
X00346922Y00341198D02*
X00365739D01*
X00336871Y00339398D02*
X00365701D01*
X00349243Y00140498D02*
X00365697D01*
X00349847Y00139598D02*
X00365694D01*
X00337926Y00340298D02*
X00365692D01*
X00358151Y00245798D02*
X00361653D01*
X00356051Y00182798D02*
X00361653D01*
X00356500Y00314198D02*
X00361633D01*
X00359530Y00234098D02*
X00361089D01*
X00350500Y00206198D02*
X00360173D01*
X00355651Y00286298D02*
X00359948D01*
X00350503Y00193598D02*
X00359741D01*
X00342747Y00166598D02*
X00359393D01*
X00357251Y00246698D02*
X00359236D01*
X00355151Y00183698D02*
X00359236D01*
X00356500Y00313298D02*
X00359232D01*
X00355500Y00257498D02*
X00358899D01*
X00355500Y00256598D02*
X00358899D01*
X00350500Y00207098D02*
X00358699D01*
X00355477Y00258398D02*
X00358651D01*
X00354751Y00287198D02*
X00358584D01*
X00355500Y00255698D02*
X00358471D01*
X00351251Y00192698D02*
X00358471D01*
X00342143Y00167498D02*
X00358270D01*
X00349499Y00296198D02*
X00358251D01*
X00356351Y00247598D02*
X00358175D01*
X00354500Y00184598D02*
X00358175D01*
X00356500Y00312398D02*
X00358173D01*
X00349792Y00295298D02*
X00358083D01*
X00350500Y00207998D02*
X00357838D01*
X00353851Y00288098D02*
X00357763D01*
X00355250Y00259298D02*
X00357751D01*
X00355500Y00254798D02*
X00357690D01*
X00352151Y00191798D02*
X00357690D01*
X00341201Y00168398D02*
X00357558D01*
X00355525Y00248498D02*
X00357495D01*
X00354500Y00185498D02*
X00357495D01*
X00356522Y00311498D02*
X00357493D01*
X00350692Y00294398D02*
X00357434D01*
X00349416Y00297098D02*
X00357351D01*
X00350500Y00208898D02*
X00357272D01*
X00353500Y00288998D02*
X00357222D01*
X00355500Y00253898D02*
X00357174D01*
X00353051Y00190898D02*
X00357174D01*
X00339374Y00169298D02*
X00357088D01*
X00355500Y00249398D02*
X00357047D01*
X00354500Y00186398D02*
X00357047D01*
X00351592Y00293498D02*
X00357008D01*
X00350500Y00209798D02*
X00356907D01*
X00353500Y00289898D02*
X00356877D01*
X00354723Y00260198D02*
X00356851D01*
X00355500Y00252998D02*
X00356848D01*
X00353873Y00189998D02*
X00356848D01*
X00327600Y00170198D02*
X00356799D01*
X00355500Y00250298D02*
X00356776D01*
X00354500Y00187298D02*
X00356776D01*
X00352492Y00292598D02*
X00356755D01*
X00350500Y00210698D02*
X00356706D01*
X00353437Y00290798D02*
X00356692D01*
X00355500Y00252098D02*
X00356681D01*
X00354323Y00189098D02*
X00356681D01*
X00327600Y00171998D02*
X00356671D01*
X00327600Y00171098D02*
X00356664D01*
X00355500Y00251198D02*
X00356657D01*
X00354494Y00188198D02*
X00356657D01*
X00353134Y00291698D02*
X00356653D01*
X00350500Y00211598D02*
X00356650D01*
X00349177Y00297998D02*
X00356451D01*
X00350500Y00212498D02*
X00356451D01*
X00327600Y00172898D02*
X00356051D01*
X00353851Y00261098D02*
X00355951D01*
X00348759Y00298898D02*
X00355551D01*
X00350500Y00213398D02*
X00355551D01*
X00327600Y00173798D02*
X00355151D01*
X00352951Y00261998D02*
X00355051D01*
X00348108Y00299798D02*
X00354651D01*
X00350500Y00214298D02*
X00354651D01*
X00327507Y00174698D02*
X00354251D01*
X00352051Y00262898D02*
X00354151D01*
X00347079Y00300698D02*
X00353751D01*
X00350500Y00215198D02*
X00353751D01*
X00327160Y00175598D02*
X00353351D01*
X00351151Y00263798D02*
X00353278D01*
X00350500Y00216098D02*
X00352999D01*
X00344686Y00301598D02*
X00352851D01*
X00350251Y00264698D02*
X00352750D01*
X00350500Y00216998D02*
X00352618D01*
X00349487Y00265598D02*
X00352523D01*
X00339851Y00279098D02*
X00352499D01*
X00340751Y00278198D02*
X00352499D01*
X00341651Y00277298D02*
X00352499D01*
X00342551Y00276398D02*
X00352499D01*
X00343451Y00275498D02*
X00352499D01*
X00344351Y00274598D02*
X00352499D01*
X00345251Y00273698D02*
X00352499D01*
X00346151Y00272798D02*
X00352499D01*
X00346940Y00271898D02*
X00352499D01*
X00347354Y00270998D02*
X00352499D01*
X00347820Y00270098D02*
X00352499D01*
X00348572Y00269198D02*
X00352499D01*
X00349059Y00268298D02*
X00352499D01*
X00349354Y00267398D02*
X00352499D01*
X00349488Y00266498D02*
X00352499D01*
X00345912Y00241298D02*
X00352499D01*
X00347482Y00240398D02*
X00352499D01*
X00348356Y00239498D02*
X00352499D01*
X00348920Y00238598D02*
X00352499D01*
X00349275Y00237698D02*
X00352499D01*
X00349460Y00236798D02*
X00352499D01*
X00349494Y00235898D02*
X00352499D01*
X00349966Y00234998D02*
X00352499D01*
X00350366Y00234098D02*
X00352499D01*
X00350499Y00233198D02*
X00352499D01*
X00350500Y00232298D02*
X00352499D01*
X00350500Y00231398D02*
X00352499D01*
X00350500Y00230498D02*
X00352499D01*
X00350500Y00229598D02*
X00352499D01*
X00350500Y00228698D02*
X00352499D01*
X00350500Y00227798D02*
X00352499D01*
X00350500Y00226898D02*
X00352499D01*
X00350500Y00225998D02*
X00352499D01*
X00350500Y00225098D02*
X00352499D01*
X00350500Y00224198D02*
X00352499D01*
X00350500Y00223298D02*
X00352499D01*
X00350500Y00222398D02*
X00352499D01*
X00350500Y00221498D02*
X00352499D01*
X00350500Y00220598D02*
X00352499D01*
X00350500Y00219698D02*
X00352499D01*
X00350500Y00218798D02*
X00352499D01*
X00350500Y00217898D02*
X00352499D01*
X00326525Y00176498D02*
X00352451D01*
X00338951Y00279998D02*
X00352051D01*
X00335291Y00302498D02*
X00351951D01*
X00342892Y00242198D02*
X00351851D01*
X00326500Y00177398D02*
X00351551D01*
X00346377Y00280898D02*
X00351151D01*
X00335467Y00303398D02*
X00351051D01*
X00341992Y00243098D02*
X00350951D01*
X00326500Y00178298D02*
X00350651D01*
X00347710Y00281798D02*
X00350251D01*
X00335491Y00304298D02*
X00350200D01*
X00341092Y00243998D02*
X00350051D01*
X00326500Y00179198D02*
X00349751D01*
X00336148Y00305198D02*
X00349712D01*
X00337048Y00306098D02*
X00349512D01*
X00348275Y00312398D02*
X00349499D01*
X00347353Y00311498D02*
X00349499D01*
X00345608Y00310598D02*
X00349499D01*
X00339487Y00309698D02*
X00349499D01*
X00339287Y00308798D02*
X00349499D01*
X00338799Y00307898D02*
X00349499D01*
X00337948Y00306998D02*
X00349499D01*
X00348501Y00282698D02*
X00349351D01*
X00340103Y00244898D02*
X00349200D01*
X00341194Y00180098D02*
X00348851D01*
X00339500Y00245798D02*
X00348712D01*
X00339500Y00246698D02*
X00348512D01*
X00346922Y00251198D02*
X00348499D01*
X00339500Y00250298D02*
X00348499D01*
X00339500Y00249398D02*
X00348499D01*
X00339500Y00248498D02*
X00348499D01*
X00339500Y00247598D02*
X00348499D01*
X00342617Y00180998D02*
X00348061D01*
X00343442Y00181898D02*
X00347646D01*
X00343975Y00182798D02*
X00347501D01*
X00344488Y00185498D02*
X00347499D01*
X00344473Y00184598D02*
X00347499D01*
X00344307Y00183698D02*
X00347499D01*
X00344354Y00186398D02*
X00347496D01*
X00344059Y00187298D02*
X00346751D01*
X00343572Y00188198D02*
X00345851D01*
X00342820Y00189098D02*
X00344951D01*
X00341580Y00189998D02*
X00344128D01*
X00326500Y00190898D02*
X00343677D01*
X00338500Y00142298D02*
X00343525D01*
X00326500Y00191798D02*
X00343505D01*
X00341377Y00199898D02*
X00343499D01*
X00332353Y00198998D02*
X00343499D01*
X00331938Y00198098D02*
X00343499D01*
X00331148Y00197198D02*
X00343499D01*
X00330248Y00196298D02*
X00343499D01*
X00329348Y00195398D02*
X00343499D01*
X00328448Y00194498D02*
X00343499D01*
X00327548Y00193598D02*
X00343499D01*
X00326648Y00192698D02*
X00343499D01*
X00334948Y00301598D02*
X00343313D01*
X00342717Y00200798D02*
X00343282D01*
X00339500Y00310598D02*
X00342391D01*
X00263851Y00351098D02*
X00342330D01*
X00339202Y00331298D02*
X00342087D01*
X00338012Y00132398D02*
X00341987D01*
X00338505Y00141398D02*
X00341698D01*
X00338051Y00280898D02*
X00341622D01*
X00337414Y00290798D02*
X00341365D01*
X00338591Y00341198D02*
X00341077D01*
X00339500Y00251198D02*
X00341077D01*
X00339068Y00133298D02*
X00340931D01*
X00334399Y00300698D02*
X00340920D01*
X00338648Y00291698D02*
X00340758D01*
X00339243Y00140498D02*
X00340756D01*
X00339512Y00311498D02*
X00340646D01*
X00286795Y00350198D02*
X00340621D01*
X00339344Y00330398D02*
X00340517D01*
X00337151Y00281798D02*
X00340289D01*
X00333664Y00289898D02*
X00340268D01*
X00339019Y00342098D02*
X00339985D01*
X00333549Y00299798D02*
X00339891D01*
X00335332Y00349298D02*
X00339708D01*
X00336251Y00282698D02*
X00339498D01*
X00332816Y00288998D02*
X00339484D01*
X00337160Y00348398D02*
X00339121D01*
X00335495Y00283598D02*
X00338985D01*
X00333667Y00288098D02*
X00338976D01*
X00335477Y00284498D02*
X00338670D01*
X00334474Y00287198D02*
X00338665D01*
X00338157Y00347498D02*
X00338594D01*
X00335319Y00285398D02*
X00338519D01*
X00334996Y00286298D02*
X00338517D01*
X00336146Y00324998D02*
X00337753D01*
X00306906Y00324098D02*
X00337007D01*
X00326500Y00180098D02*
X00336805D01*
X00332498Y00199898D02*
X00336622D01*
X00328082Y00169298D02*
X00336425D01*
X00326500Y00189998D02*
X00336419D01*
X00306006Y00323198D02*
X00336107D01*
X00332827Y00298898D02*
X00335985D01*
X00328451Y00212498D02*
X00335833D01*
X00329351Y00211598D02*
X00335551D01*
X00330251Y00210698D02*
X00335499D01*
X00331151Y00209798D02*
X00335499D01*
X00326623Y00180998D02*
X00335382D01*
X00327551Y00213398D02*
X00335342D01*
X00332500Y00200798D02*
X00335289D01*
X00331940Y00208898D02*
X00335268D01*
X00305497Y00322298D02*
X00335207D01*
X00326820Y00189098D02*
X00335179D01*
X00333776Y00297998D02*
X00335048D01*
X00326651Y00214298D02*
X00334709D01*
X00329172Y00168398D02*
X00334598D01*
X00327442Y00181898D02*
X00334557D01*
X00332500Y00201698D02*
X00334498D01*
X00332354Y00207998D02*
X00334484D01*
X00327572Y00188198D02*
X00334427D01*
X00329019Y00159398D02*
X00334399D01*
X00315448Y00158498D02*
X00334399D01*
X00314548Y00157598D02*
X00334399D01*
X00313648Y00156698D02*
X00334399D01*
X00312748Y00155798D02*
X00334399D01*
X00312499Y00154898D02*
X00334399D01*
X00312408Y00153998D02*
X00334399D01*
X00305449Y00321398D02*
X00334307D01*
X00325751Y00215198D02*
X00334303D01*
X00312160Y00153098D02*
X00334148D01*
X00324851Y00216098D02*
X00334074D01*
X00327975Y00182798D02*
X00334024D01*
X00323951Y00216998D02*
X00333999D01*
X00332500Y00202598D02*
X00333985D01*
X00332498Y00207098D02*
X00333976D01*
X00331800Y00217898D02*
X00333968D01*
X00328059Y00187298D02*
X00333940D01*
X00329499Y00160298D02*
X00333831D01*
X00328307Y00183698D02*
X00333692D01*
X00332500Y00203498D02*
X00333670D01*
X00332500Y00206198D02*
X00333665D01*
X00329549Y00167498D02*
X00333656D01*
X00328354Y00186398D02*
X00333645D01*
X00328473Y00184598D02*
X00333526D01*
X00332500Y00204398D02*
X00333519D01*
X00332500Y00205298D02*
X00333517D01*
X00328488Y00185498D02*
X00333511D01*
X00305248Y00320498D02*
X00333412D01*
X00311733Y00152198D02*
X00333248D01*
X00329600Y00161198D02*
X00333166D01*
X00329600Y00166598D02*
X00333052D01*
X00304876Y00319598D02*
X00332817D01*
X00329600Y00162098D02*
X00332739D01*
X00329600Y00165698D02*
X00332668D01*
X00304289Y00318698D02*
X00332544D01*
X00303374Y00317798D02*
X00332499D01*
X00301661Y00316898D02*
X00332499D01*
X00290948Y00315998D02*
X00332499D01*
X00290499Y00315098D02*
X00332499D01*
X00290441Y00314198D02*
X00332499D01*
X00290230Y00313298D02*
X00332499D01*
X00289845Y00312398D02*
X00332499D01*
X00303448Y00257498D02*
X00332499D01*
X00302548Y00256598D02*
X00332499D01*
X00301648Y00255698D02*
X00332499D01*
X00300748Y00254798D02*
X00332499D01*
X00299980Y00253898D02*
X00332499D01*
X00329600Y00162998D02*
X00332491D01*
X00289241Y00311498D02*
X00332474D01*
X00331294Y00252998D02*
X00332459D01*
X00329600Y00164798D02*
X00332458D01*
X00329600Y00163898D02*
X00332400D01*
X00315616Y00349298D02*
X00332383D01*
X00311068Y00151298D02*
X00332360D01*
X00304348Y00258398D02*
X00332301D01*
X00329919Y00132398D02*
X00331987D01*
X00310012Y00150398D02*
X00331791D01*
X00288298Y00310598D02*
X00331648D01*
X00316430Y00324998D02*
X00331569D01*
X00297500Y00149498D02*
X00331535D01*
X00297500Y00148598D02*
X00331499D01*
X00297500Y00147698D02*
X00331499D01*
X00297500Y00146798D02*
X00331499D01*
X00298626Y00145898D02*
X00331499D01*
X00299291Y00144998D02*
X00331499D01*
X00299498Y00144098D02*
X00331499D01*
X00299500Y00143198D02*
X00331499D01*
X00328982Y00142298D02*
X00331499D01*
X00330072Y00141398D02*
X00331494D01*
X00316642Y00334898D02*
X00331357D01*
X00317154Y00339398D02*
X00330845D01*
X00287917Y00309698D02*
X00330748D01*
X00317443Y00348398D02*
X00330556D01*
X00323051Y00217898D02*
X00330199D01*
X00317806Y00325898D02*
X00330193D01*
X00317918Y00333998D02*
X00330081D01*
X00318209Y00340298D02*
X00329790D01*
X00318385Y00347498D02*
X00329614D01*
X00318614Y00326798D02*
X00329385D01*
X00318685Y00333098D02*
X00329314D01*
X00318874Y00341198D02*
X00329125D01*
X00318989Y00346598D02*
X00329010D01*
X00319137Y00327698D02*
X00328862D01*
X00319183Y00332198D02*
X00328816D01*
X00319302Y00342098D02*
X00328697D01*
X00319372Y00345698D02*
X00328627D01*
X00319460Y00328598D02*
X00328539D01*
X00319486Y00331298D02*
X00328513D01*
X00319549Y00342998D02*
X00328450D01*
X00319583Y00344798D02*
X00328416D01*
X00319618Y00329498D02*
X00328381D01*
X00319627Y00330398D02*
X00328372D01*
X00319640Y00343898D02*
X00328359D01*
X00322187Y00308798D02*
X00327312D01*
X00321294Y00252998D02*
X00326705D01*
X00322151Y00218798D02*
X00326548D01*
X00323376Y00270098D02*
X00326123D01*
X00323379Y00307898D02*
X00326120D01*
X00322182Y00269198D02*
X00325810D01*
X00322667Y00252098D02*
X00325332D01*
X00305248Y00259298D02*
X00325168D01*
X00321228Y00219698D02*
X00324887D01*
X00307500Y00268298D02*
X00324863D01*
X00306148Y00260198D02*
X00324631D01*
X00307500Y00267398D02*
X00324531D01*
X00323474Y00251198D02*
X00324525D01*
X00307500Y00266498D02*
X00324499D01*
X00307500Y00265598D02*
X00324499D01*
X00307500Y00264698D02*
X00324499D01*
X00307500Y00263798D02*
X00324499D01*
X00307498Y00262898D02*
X00324499D01*
X00307353Y00261998D02*
X00324499D01*
X00306938Y00261098D02*
X00324499D01*
X00308673Y00220598D02*
X00323699D01*
X00307664Y00221498D02*
X00322777D01*
X00305550Y00222398D02*
X00322038D01*
X00297225Y00223298D02*
X00321440D01*
X00299500Y00142298D02*
X00321017D01*
X00298148Y00224198D02*
X00320958D01*
X00299048Y00225098D02*
X00320575D01*
X00299948Y00225998D02*
X00320282D01*
X00299467Y00132398D02*
X00320080D01*
X00318555Y00226898D02*
X00320069D01*
X00299500Y00141398D02*
X00319927D01*
X00299491Y00133298D02*
X00319600D01*
X00299500Y00140498D02*
X00319550D01*
X00299500Y00139598D02*
X00319499D01*
X00299500Y00138698D02*
X00319499D01*
X00299491Y00137798D02*
X00319499D01*
X00299244Y00136898D02*
X00319499D01*
X00298712Y00135998D02*
X00319499D01*
X00299083Y00135098D02*
X00319499D01*
X00299367Y00134198D02*
X00319499D01*
X00316348Y00159398D02*
X00319180D01*
X00317248Y00160298D02*
X00318672D01*
X00298148Y00242198D02*
X00318624D01*
X00297248Y00241298D02*
X00318512D01*
X00296348Y00240398D02*
X00318499D01*
X00295448Y00239498D02*
X00318499D01*
X00294548Y00238598D02*
X00318148D01*
X00293648Y00237698D02*
X00317248D01*
X00307500Y00269198D02*
X00316817D01*
X00297187Y00308798D02*
X00316812D01*
X00301294Y00252998D02*
X00316705D01*
X00307500Y00288998D02*
X00316683D01*
X00307500Y00279098D02*
X00316673D01*
X00304551Y00298898D02*
X00316672D01*
X00301495Y00243098D02*
X00316504D01*
X00303651Y00299798D02*
X00315950D01*
X00307500Y00278198D02*
X00315947D01*
X00307500Y00289898D02*
X00315835D01*
X00307500Y00288098D02*
X00315832D01*
X00307500Y00279998D02*
X00315726D01*
X00305451Y00297998D02*
X00315723D01*
X00307500Y00270098D02*
X00315623D01*
X00298379Y00307898D02*
X00315620D01*
X00302667Y00252098D02*
X00315332D01*
X00302773Y00243998D02*
X00315226D01*
X00302751Y00300698D02*
X00315100D01*
X00307500Y00277298D02*
X00315098D01*
X00307500Y00290798D02*
X00315027D01*
X00307500Y00287198D02*
X00315025D01*
X00307500Y00280898D02*
X00314957D01*
X00306351Y00297098D02*
X00314955D01*
X00307500Y00270998D02*
X00314891D01*
X00299110Y00306998D02*
X00314889D01*
X00301851Y00301598D02*
X00314551D01*
X00307500Y00276398D02*
X00314550D01*
X00303474Y00251198D02*
X00314525D01*
X00307500Y00291698D02*
X00314504D01*
X00307500Y00286298D02*
X00314503D01*
X00307500Y00281798D02*
X00314459D01*
X00307060Y00296198D02*
X00314458D01*
X00303542Y00244898D02*
X00314457D01*
X00300848Y00226898D02*
X00314444D01*
X00307500Y00271898D02*
X00314417D01*
X00299583Y00306098D02*
X00314416D01*
X00300951Y00302498D02*
X00314208D01*
X00307500Y00275498D02*
X00314208D01*
X00307500Y00292598D02*
X00314181D01*
X00307500Y00285398D02*
X00314180D01*
X00307500Y00282698D02*
X00314156D01*
X00307407Y00295298D02*
X00314155D01*
X00307500Y00272798D02*
X00314132D01*
X00299867Y00305198D02*
X00314132D01*
X00300068Y00303398D02*
X00314032D01*
X00307500Y00274598D02*
X00314032D01*
X00307500Y00293498D02*
X00314022D01*
X00307500Y00284498D02*
X00314022D01*
X00307500Y00283598D02*
X00314014D01*
X00307500Y00294398D02*
X00314014D01*
X00307500Y00273698D02*
X00314008D01*
X00299991Y00304298D02*
X00314008D01*
X00303996Y00250298D02*
X00314003D01*
X00304040Y00245798D02*
X00313959D01*
X00292414Y00236798D02*
X00313812D01*
X00304319Y00249398D02*
X00313680D01*
X00304343Y00246698D02*
X00313656D01*
X00304477Y00248498D02*
X00313522D01*
X00304485Y00247598D02*
X00313514D01*
X00301748Y00227798D02*
X00312950D01*
X00288430Y00349298D02*
X00312667D01*
X00290348Y00235898D02*
X00312620D01*
X00307806Y00324998D02*
X00311853D01*
X00297990Y00334898D02*
X00311641D01*
X00308348Y00339398D02*
X00311128D01*
X00289324Y00348398D02*
X00310839D01*
X00308706Y00325898D02*
X00310477D01*
X00297090Y00333998D02*
X00310365D01*
X00309248Y00340298D02*
X00310073D01*
X00289899Y00347498D02*
X00307903D01*
X00296500Y00333098D02*
X00306230D01*
X00302789Y00346598D02*
X00305655D01*
X00296407Y00332198D02*
X00305107D01*
X00303937Y00345698D02*
X00304748D01*
X00281501Y00189998D02*
X00304526D01*
X00296058Y00331298D02*
X00304207D01*
X00281623Y00180098D02*
X00304173D01*
X00280500Y00190898D02*
X00304151D01*
X00297500Y00160298D02*
X00304084D01*
X00297500Y00150398D02*
X00303987D01*
X00297500Y00159398D02*
X00303698D01*
X00295921Y00222398D02*
X00303449D01*
X00280728Y00179198D02*
X00303447D01*
X00282245Y00189098D02*
X00303332D01*
X00295348Y00330398D02*
X00303307D01*
X00280500Y00191798D02*
X00303251D01*
X00282290Y00180998D02*
X00303226D01*
X00298148Y00161198D02*
X00303025D01*
X00297500Y00151298D02*
X00302931D01*
X00297500Y00158498D02*
X00302756D01*
X00281401Y00178298D02*
X00302598D01*
X00282492Y00188198D02*
X00302525D01*
X00282497Y00181898D02*
X00302457D01*
X00294448Y00329498D02*
X00302407D01*
X00280500Y00192698D02*
X00302351D01*
X00299048Y00162098D02*
X00302327D01*
X00297500Y00152198D02*
X00302266D01*
X00297500Y00157598D02*
X00302152D01*
X00281949Y00177398D02*
X00302050D01*
X00282500Y00187298D02*
X00302003D01*
X00282500Y00182798D02*
X00301959D01*
X00299948Y00162998D02*
X00301877D01*
X00297500Y00153098D02*
X00301839D01*
X00297500Y00156698D02*
X00301768D01*
X00282291Y00176498D02*
X00301708D01*
X00282500Y00186398D02*
X00301680D01*
X00282500Y00183698D02*
X00301656D01*
X00297500Y00153998D02*
X00301591D01*
X00297500Y00155798D02*
X00301558D01*
X00282467Y00175598D02*
X00301532D01*
X00282500Y00185498D02*
X00301522D01*
X00300849Y00163898D02*
X00301517D01*
X00282500Y00184598D02*
X00301514D01*
X00282491Y00174698D02*
X00301508D01*
X00293548Y00328598D02*
X00301507D01*
X00297500Y00154898D02*
X00301500D01*
X00280448Y00193598D02*
X00301451D01*
X00296664Y00221498D02*
X00301335D01*
X00282367Y00173798D02*
X00300848D01*
X00292648Y00327698D02*
X00300582D01*
X00280162Y00194498D02*
X00300551D01*
X00297659Y00220598D02*
X00300340D01*
X00282082Y00172898D02*
X00299948D01*
X00298292Y00219698D02*
X00299707D01*
X00280000Y00195398D02*
X00299651D01*
X00289448Y00234998D02*
X00299195D01*
X00281608Y00171998D02*
X00299048D01*
X00280000Y00196298D02*
X00298751D01*
X00291848Y00316898D02*
X00298338D01*
X00288548Y00234098D02*
X00298148D01*
X00280876Y00171098D02*
X00298148D01*
X00280000Y00197198D02*
X00297851D01*
X00287648Y00233198D02*
X00297248D01*
X00279857Y00170198D02*
X00297248D01*
X00290262Y00346598D02*
X00297210D01*
X00291748Y00326798D02*
X00297073D01*
X00280376Y00198098D02*
X00296951D01*
X00292748Y00317798D02*
X00296625D01*
X00286991Y00232298D02*
X00296348D01*
X00280430Y00169298D02*
X00296348D01*
X00290455Y00345698D02*
X00296062D01*
X00281108Y00198998D02*
X00296051D01*
X00291336Y00325898D02*
X00295983D01*
X00286967Y00231398D02*
X00295448D01*
X00281324Y00168398D02*
X00295448D01*
X00290496Y00344798D02*
X00295351D01*
X00281582Y00199898D02*
X00295151D01*
X00290388Y00343898D02*
X00294892D01*
X00290122Y00342998D02*
X00294619D01*
X00286791Y00230498D02*
X00294548D01*
X00281899Y00167498D02*
X00294548D01*
X00289672Y00342098D02*
X00294505D01*
X00288974Y00341198D02*
X00294388D01*
X00281867Y00200798D02*
X00294251D01*
X00282262Y00166598D02*
X00293648D01*
X00286858Y00229598D02*
X00293641D01*
X00287915Y00340298D02*
X00293490D01*
X00281991Y00201698D02*
X00293351D01*
X00282455Y00165698D02*
X00292748D01*
X00288301Y00339398D02*
X00292590D01*
X00281967Y00202598D02*
X00292451D01*
X00147639Y00127898D02*
X00291944D01*
X00282496Y00164798D02*
X00291848D01*
X00288977Y00308798D02*
X00291812D01*
X00289243Y00338498D02*
X00291690D01*
X00281791Y00203498D02*
X00291551D01*
X00282388Y00163898D02*
X00291059D01*
X00289847Y00337598D02*
X00290790D01*
X00282122Y00162998D02*
X00290645D01*
X00281855Y00204398D02*
X00290644D01*
X00289674Y00307898D02*
X00290620D01*
X00281672Y00162098D02*
X00290501D01*
X00280974Y00161198D02*
X00290499D01*
X00279915Y00160298D02*
X00290499D01*
X00280301Y00159398D02*
X00290499D01*
X00281243Y00158498D02*
X00290499D01*
X00281847Y00157598D02*
X00290499D01*
X00282231Y00156698D02*
X00290499D01*
X00282441Y00155798D02*
X00290499D01*
X00282499Y00154898D02*
X00290499D01*
X00282408Y00153998D02*
X00290499D01*
X00282160Y00153098D02*
X00290499D01*
X00281733Y00152198D02*
X00290499D01*
X00281068Y00151298D02*
X00290499D01*
X00280012Y00150398D02*
X00290499D01*
X00255801Y00149498D02*
X00290499D01*
X00257067Y00148598D02*
X00290499D01*
X00258038Y00147698D02*
X00290499D01*
X00258812Y00146798D02*
X00290499D01*
X00148907Y00128798D02*
X00290450D01*
X00254214Y00129698D02*
X00289600D01*
X00259438Y00145898D02*
X00289373D01*
X00260386Y00135998D02*
X00289287D01*
X00255957Y00130598D02*
X00289051D01*
X00259992Y00135098D02*
X00288916D01*
X00260689Y00136898D02*
X00288755D01*
X00257183Y00131498D02*
X00288708D01*
X00259944Y00144998D02*
X00288708D01*
X00259498Y00134198D02*
X00288632D01*
X00258130Y00132398D02*
X00288532D01*
X00260910Y00137798D02*
X00288508D01*
X00258886Y00133298D02*
X00288508D01*
X00260348Y00144098D02*
X00288501D01*
X00260660Y00143198D02*
X00288499D01*
X00260890Y00142298D02*
X00288499D01*
X00261041Y00141398D02*
X00288499D01*
X00261118Y00140498D02*
X00288499D01*
X00261122Y00139598D02*
X00288499D01*
X00261053Y00138698D02*
X00288499D01*
X00264751Y00350198D02*
X00283204D01*
X00273487Y00340298D02*
X00282084D01*
X00273500Y00330398D02*
X00281985D01*
X00275351Y00319598D02*
X00281981D01*
X00274451Y00320498D02*
X00281839D01*
X00273500Y00329498D02*
X00281835D01*
X00273500Y00339398D02*
X00281698D01*
X00265651Y00349298D02*
X00281569D01*
X00273288Y00341198D02*
X00281025D01*
X00273500Y00331298D02*
X00280931D01*
X00276251Y00318698D02*
X00280929D01*
X00273571Y00321398D02*
X00280842D01*
X00273500Y00328598D02*
X00280840D01*
X00273500Y00338498D02*
X00280756D01*
X00266551Y00348398D02*
X00280675D01*
X00272801Y00342098D02*
X00280327D01*
X00273500Y00332198D02*
X00280266D01*
X00277151Y00317798D02*
X00280265D01*
X00273500Y00322298D02*
X00280209D01*
X00273500Y00327698D02*
X00280207D01*
X00273500Y00337598D02*
X00280152D01*
X00267451Y00347498D02*
X00280100D01*
X00271951Y00342998D02*
X00279877D01*
X00273500Y00333098D02*
X00279839D01*
X00278051Y00316898D02*
X00279838D01*
X00273500Y00323198D02*
X00279803D01*
X00273500Y00326798D02*
X00279802D01*
X00273500Y00336698D02*
X00279768D01*
X00268351Y00346598D02*
X00279737D01*
X00271051Y00343898D02*
X00279611D01*
X00273500Y00333998D02*
X00279591D01*
X00273500Y00324098D02*
X00279574D01*
X00273500Y00325898D02*
X00279573D01*
X00273500Y00335798D02*
X00279558D01*
X00269251Y00345698D02*
X00279544D01*
X00270151Y00344798D02*
X00279503D01*
X00273500Y00334898D02*
X00279500D01*
X00273500Y00324998D02*
X00279499D01*
X00279026Y00315998D02*
X00279341D01*
X00246248Y00160298D02*
X00274084D01*
X00253968Y00150398D02*
X00273987D01*
X00245348Y00159398D02*
X00273698D01*
X00247148Y00161198D02*
X00273025D01*
X00237248Y00151298D02*
X00272931D01*
X00244448Y00158498D02*
X00272756D01*
X00238148Y00152198D02*
X00272266D01*
X00243548Y00157598D02*
X00272152D01*
X00239048Y00153098D02*
X00271839D01*
X00242648Y00156698D02*
X00271768D01*
X00239948Y00153998D02*
X00271591D01*
X00241748Y00155798D02*
X00271558D01*
X00240848Y00154898D02*
X00271500D01*
X00236348Y00150398D02*
X00246031D01*
X00149934Y00129698D02*
X00245785D01*
X00235448Y00149498D02*
X00244198D01*
X00150789Y00130598D02*
X00244042D01*
X00234548Y00148598D02*
X00242932D01*
X00151512Y00131498D02*
X00242816D01*
X00233162Y00147698D02*
X00241961D01*
X00152125Y00132398D02*
X00241869D01*
X00225427Y00296198D02*
X00241711D01*
X00223787Y00295298D02*
X00241512D01*
X00173551Y00294398D02*
X00241499D01*
X00174451Y00293498D02*
X00241499D01*
X00237062Y00292598D02*
X00241499D01*
X00238552Y00291698D02*
X00241418D01*
X00222244Y00146798D02*
X00241187D01*
X00152645Y00133298D02*
X00241113D01*
X00239401Y00290798D02*
X00240598D01*
X00223348Y00145898D02*
X00240561D01*
X00153082Y00134198D02*
X00240501D01*
X00224187Y00144998D02*
X00240055D01*
X00221842Y00135098D02*
X00240007D01*
X00224770Y00144098D02*
X00239651D01*
X00223229Y00135998D02*
X00239613D01*
X00225169Y00143198D02*
X00239339D01*
X00224107Y00136898D02*
X00239310D01*
X00225419Y00142298D02*
X00239109D01*
X00224714Y00137798D02*
X00239089D01*
X00225537Y00141398D02*
X00238958D01*
X00225132Y00138698D02*
X00238946D01*
X00225530Y00140498D02*
X00238881D01*
X00225398Y00139598D02*
X00238877D01*
X00225977Y00304298D02*
X00236800D01*
X00224858Y00305198D02*
X00236656D01*
X00197500Y00306098D02*
X00236514D01*
X00217788Y00306998D02*
X00236481D01*
X00199351Y00279098D02*
X00235669D01*
X00198451Y00279998D02*
X00235101D01*
X00197551Y00280898D02*
X00234738D01*
X00196601Y00281798D02*
X00234517D01*
X00175351Y00292598D02*
X00232937D01*
X00185251Y00282698D02*
X00232317D01*
X00176251Y00291698D02*
X00231447D01*
X00184351Y00283598D02*
X00231123D01*
X00177151Y00290798D02*
X00230598D01*
X00183451Y00284498D02*
X00230391D01*
X00178051Y00289898D02*
X00230050D01*
X00182551Y00285398D02*
X00229917D01*
X00178951Y00288998D02*
X00229708D01*
X00181651Y00286298D02*
X00229632D01*
X00179851Y00288098D02*
X00229532D01*
X00180751Y00287198D02*
X00229508D01*
X00225550Y00330398D02*
X00227281D01*
X00219164Y00307898D02*
X00226877D01*
X00216974Y00331298D02*
X00226751D01*
X00201000Y00332198D02*
X00225851D01*
X00222914Y00308798D02*
X00225751D01*
X00201000Y00333098D02*
X00224951D01*
X00201000Y00333998D02*
X00224051D01*
X00218801Y00330398D02*
X00223449D01*
X00201000Y00334898D02*
X00223151D01*
X00201000Y00335798D02*
X00222251D01*
X00201000Y00319598D02*
X00221481D01*
X00201000Y00336698D02*
X00221351D01*
X00201000Y00320498D02*
X00221339D01*
X00219743Y00329498D02*
X00221335D01*
X00201000Y00318698D02*
X00220429D01*
X00218512Y00321398D02*
X00220329D01*
X00209787Y00295298D02*
X00220212D01*
X00201000Y00317798D02*
X00219765D01*
X00218000Y00316898D02*
X00219338D01*
X00210858Y00305198D02*
X00219141D01*
X00213695Y00337598D02*
X00218962D01*
X00211427Y00296198D02*
X00218572D01*
X00211977Y00304298D02*
X00218022D01*
X00212322Y00297098D02*
X00217677D01*
X00212674Y00303398D02*
X00217325D01*
X00212898Y00297998D02*
X00217101D01*
X00213124Y00302498D02*
X00216875D01*
X00214999Y00338498D02*
X00216839D01*
X00213261Y00298898D02*
X00216738D01*
X00213389Y00301598D02*
X00216610D01*
X00213455Y00299798D02*
X00216544D01*
X00213496Y00300698D02*
X00216503D01*
X00153445Y00135098D02*
X00216157D01*
X00200251Y00278198D02*
X00216079D01*
X00184263Y00154898D02*
X00215787D01*
X00184025Y00146798D02*
X00215755D01*
X00213926Y00178298D02*
X00215499D01*
X00212871Y00177398D02*
X00215499D01*
X00168190Y00176498D02*
X00215499D01*
X00167697Y00175598D02*
X00215499D01*
X00167089Y00174698D02*
X00215499D01*
X00166341Y00173798D02*
X00215499D01*
X00165410Y00172898D02*
X00215499D01*
X00164214Y00171998D02*
X00215499D01*
X00162551Y00171098D02*
X00215499D01*
X00159091Y00170198D02*
X00215499D01*
X00122500Y00169298D02*
X00215499D01*
X00122500Y00168398D02*
X00215499D01*
X00122500Y00167498D02*
X00215499D01*
X00122500Y00166598D02*
X00215455D01*
X00214593Y00179198D02*
X00215406D01*
X00183458Y00155798D02*
X00215018D01*
X00201151Y00277298D02*
X00214848D01*
X00153740Y00135998D02*
X00214770D01*
X00183108Y00145898D02*
X00214651D01*
X00122500Y00165698D02*
X00214436D01*
X00182229Y00156698D02*
X00214060D01*
X00201000Y00331298D02*
X00214025D01*
X00202051Y00276398D02*
X00213948D01*
X00153970Y00136898D02*
X00213892D01*
X00181624Y00144998D02*
X00213812D01*
X00122500Y00164798D02*
X00213664D01*
X00122500Y00157598D02*
X00213402D01*
X00154140Y00137798D02*
X00213285D01*
X00153711Y00144098D02*
X00213229D01*
X00197500Y00306998D02*
X00213211D01*
X00122500Y00163898D02*
X00213126D01*
X00202951Y00275498D02*
X00213048D01*
X00201000Y00316898D02*
X00212999D01*
X00122500Y00158498D02*
X00212946D01*
X00154251Y00138698D02*
X00212867D01*
X00153948Y00143198D02*
X00212830D01*
X00122500Y00162998D02*
X00212762D01*
X00122500Y00159398D02*
X00212648D01*
X00154305Y00139598D02*
X00212601D01*
X00154125Y00142298D02*
X00212580D01*
X00122500Y00162098D02*
X00212542D01*
X00122500Y00160298D02*
X00212487D01*
X00201000Y00321398D02*
X00212487D01*
X00154302Y00140498D02*
X00212469D01*
X00154242Y00141398D02*
X00212462D01*
X00122500Y00161198D02*
X00212452D01*
X00201000Y00330398D02*
X00212198D01*
X00203851Y00274598D02*
X00212148D01*
X00197500Y00307898D02*
X00211835D01*
X00201000Y00315998D02*
X00211723D01*
X00201000Y00322298D02*
X00211431D01*
X00201000Y00329498D02*
X00211256D01*
X00204751Y00273698D02*
X00211248D01*
X00197500Y00308798D02*
X00211027D01*
X00200881Y00315098D02*
X00210955D01*
X00201000Y00323198D02*
X00210766D01*
X00201000Y00328598D02*
X00210652D01*
X00197500Y00309698D02*
X00210504D01*
X00200500Y00314198D02*
X00210458D01*
X00205651Y00272798D02*
X00210348D01*
X00201000Y00324098D02*
X00210339D01*
X00201000Y00327698D02*
X00210268D01*
X00197500Y00310598D02*
X00210181D01*
X00199748Y00313298D02*
X00210155D01*
X00201000Y00324998D02*
X00210091D01*
X00201000Y00326798D02*
X00210058D01*
X00197948Y00311498D02*
X00210022D01*
X00198848Y00312398D02*
X00210014D01*
X00201000Y00325898D02*
X00210000D01*
X00206551Y00271898D02*
X00209448D01*
X00207709Y00189098D02*
X00209070D01*
X00202682Y00246698D02*
X00208999D01*
X00189248Y00245798D02*
X00208999D01*
X00188348Y00244898D02*
X00208999D01*
X00187448Y00243998D02*
X00208999D01*
X00205009Y00191798D02*
X00208999D01*
X00205909Y00190898D02*
X00208999D01*
X00206809Y00189998D02*
X00208999D01*
X00203876Y00247598D02*
X00208990D01*
X00204109Y00192698D02*
X00208969D01*
X00186548Y00243098D02*
X00208832D01*
X00181273Y00234998D02*
X00208652D01*
X00181477Y00200798D02*
X00208522D01*
X00208121Y00270998D02*
X00208422D01*
X00181000Y00201698D02*
X00208351D01*
X00203209Y00193598D02*
X00208177D01*
X00179995Y00234098D02*
X00208148D01*
X00185648Y00242198D02*
X00208025D01*
X00182042Y00235898D02*
X00207957D01*
X00207577Y00270998D02*
X00207878D01*
X00196819Y00199898D02*
X00207825D01*
X00202309Y00194498D02*
X00207601D01*
X00184748Y00241298D02*
X00207503D01*
X00182540Y00236798D02*
X00207459D01*
X00181000Y00202598D02*
X00207451D01*
X00197809Y00198998D02*
X00207375D01*
X00170420Y00233198D02*
X00207248D01*
X00201409Y00195398D02*
X00207238D01*
X00183848Y00240398D02*
X00207180D01*
X00182843Y00237698D02*
X00207156D01*
X00198709Y00198098D02*
X00207110D01*
X00200509Y00196298D02*
X00207044D01*
X00183018Y00239498D02*
X00207022D01*
X00182985Y00238598D02*
X00207014D01*
X00199609Y00197198D02*
X00207003D01*
X00193154Y00177398D02*
X00206845D01*
X00181000Y00203498D02*
X00206551D01*
X00171651Y00232298D02*
X00206348D01*
X00201000Y00337598D02*
X00206304D01*
X00195787Y00295298D02*
X00206212D01*
X00194209Y00178298D02*
X00205790D01*
X00181000Y00204398D02*
X00205651D01*
X00172548Y00231398D02*
X00205448D01*
X00197500Y00305198D02*
X00205141D01*
X00194874Y00179198D02*
X00205125D01*
X00201000Y00338498D02*
X00205000D01*
X00181000Y00205298D02*
X00204751D01*
X00195302Y00180098D02*
X00204697D01*
X00201000Y00339398D02*
X00204573D01*
X00202048Y00346598D02*
X00204572D01*
X00197427Y00296198D02*
X00204572D01*
X00177621Y00230498D02*
X00204548D01*
X00201148Y00345698D02*
X00204499D01*
X00201000Y00344798D02*
X00204499D01*
X00201000Y00343898D02*
X00204499D01*
X00201000Y00342998D02*
X00204499D01*
X00201000Y00342098D02*
X00204499D01*
X00201000Y00341198D02*
X00204499D01*
X00201000Y00340298D02*
X00204499D01*
X00195549Y00180998D02*
X00204450D01*
X00195640Y00181898D02*
X00204359D01*
X00203120Y00347498D02*
X00204207D01*
X00195583Y00182798D02*
X00204109D01*
X00197977Y00304298D02*
X00204022D01*
X00181000Y00206198D02*
X00203999D01*
X00180517Y00229598D02*
X00203886D01*
X00198322Y00297098D02*
X00203677D01*
X00181376Y00207098D02*
X00203618D01*
X00181570Y00228698D02*
X00203570D01*
X00182234Y00227798D02*
X00203499D01*
X00182661Y00226898D02*
X00203499D01*
X00182908Y00225998D02*
X00203499D01*
X00182999Y00225098D02*
X00203499D01*
X00182941Y00224198D02*
X00203499D01*
X00182730Y00223298D02*
X00203499D01*
X00182345Y00222398D02*
X00203499D01*
X00181741Y00221498D02*
X00203499D01*
X00180798Y00220598D02*
X00203499D01*
X00178965Y00219698D02*
X00203499D01*
X00169578Y00218798D02*
X00203499D01*
X00169453Y00217898D02*
X00203499D01*
X00169182Y00216998D02*
X00203499D01*
X00179562Y00216098D02*
X00203499D01*
X00181052Y00215198D02*
X00203499D01*
X00181901Y00214298D02*
X00203499D01*
X00182449Y00213398D02*
X00203499D01*
X00182791Y00212498D02*
X00203499D01*
X00182967Y00211598D02*
X00203499D01*
X00182991Y00210698D02*
X00203499D01*
X00182867Y00209798D02*
X00203499D01*
X00182582Y00208898D02*
X00203499D01*
X00182108Y00207998D02*
X00203499D01*
X00198674Y00303398D02*
X00203325D01*
X00195372Y00183698D02*
X00203209D01*
X00198898Y00297998D02*
X00203101D01*
X00199124Y00302498D02*
X00202875D01*
X00199261Y00298898D02*
X00202738D01*
X00199389Y00301598D02*
X00202610D01*
X00199455Y00299798D02*
X00202544D01*
X00199496Y00300698D02*
X00202503D01*
X00194989Y00184598D02*
X00202309D01*
X00194385Y00185498D02*
X00201409D01*
X00193443Y00186398D02*
X00200509D01*
X00191616Y00187298D02*
X00199609D01*
X00143795Y00353798D02*
X00199398D01*
X00167159Y00188198D02*
X00198709D01*
X00146199Y00352898D02*
X00198448D01*
X00166427Y00189098D02*
X00197809D01*
X00147799Y00351998D02*
X00197548D01*
X00192682Y00246698D02*
X00197317D01*
X00165518Y00189998D02*
X00196909D01*
X00149034Y00351098D02*
X00196648D01*
X00193876Y00247598D02*
X00196123D01*
X00164357Y00190898D02*
X00196009D01*
X00150039Y00350198D02*
X00195748D01*
X00194611Y00248498D02*
X00195388D01*
X00179287Y00191798D02*
X00195109D01*
X00150878Y00349298D02*
X00194860D01*
X00186050Y00348398D02*
X00194291D01*
X00180927Y00192698D02*
X00194209D01*
X00188164Y00347498D02*
X00194035D01*
X00189159Y00346598D02*
X00193999D01*
X00189792Y00345698D02*
X00193999D01*
X00190197Y00344798D02*
X00193999D01*
X00190426Y00343898D02*
X00193999D01*
X00190500Y00342998D02*
X00193999D01*
X00190425Y00342098D02*
X00193999D01*
X00190196Y00341198D02*
X00193999D01*
X00189790Y00340298D02*
X00193999D01*
X00189157Y00339398D02*
X00193999D01*
X00188160Y00338498D02*
X00193999D01*
X00186037Y00337598D02*
X00193999D01*
X00179750Y00336698D02*
X00193999D01*
X00179750Y00335798D02*
X00193999D01*
X00179750Y00334898D02*
X00193999D01*
X00179750Y00333998D02*
X00193999D01*
X00179750Y00333098D02*
X00193999D01*
X00179750Y00332198D02*
X00193999D01*
X00181974Y00331298D02*
X00193999D01*
X00183801Y00330398D02*
X00193999D01*
X00184743Y00329498D02*
X00193999D01*
X00185347Y00328598D02*
X00193999D01*
X00185731Y00327698D02*
X00193999D01*
X00185941Y00326798D02*
X00193999D01*
X00185999Y00325898D02*
X00193999D01*
X00185908Y00324998D02*
X00193999D01*
X00185660Y00324098D02*
X00193999D01*
X00185233Y00323198D02*
X00193999D01*
X00184568Y00322298D02*
X00193999D01*
X00183512Y00321398D02*
X00193999D01*
X00176620Y00320498D02*
X00193999D01*
X00175548Y00319598D02*
X00193999D01*
X00174648Y00318698D02*
X00193999D01*
X00173748Y00317798D02*
X00193999D01*
X00183000Y00316898D02*
X00193448D01*
X00184276Y00315998D02*
X00192548D01*
X00181787Y00295298D02*
X00192212D01*
X00185044Y00315098D02*
X00191648D01*
X00185541Y00314198D02*
X00190939D01*
X00185844Y00313298D02*
X00190592D01*
X00183427Y00296198D02*
X00190572D01*
X00185985Y00312398D02*
X00190499D01*
X00185977Y00311498D02*
X00190499D01*
X00185818Y00310598D02*
X00190499D01*
X00185495Y00309698D02*
X00190499D01*
X00184972Y00308798D02*
X00190499D01*
X00184164Y00307898D02*
X00190499D01*
X00184000Y00306998D02*
X00190499D01*
X00183976Y00306098D02*
X00190499D01*
X00183749Y00305198D02*
X00190499D01*
X00183977Y00304298D02*
X00190022D01*
X00167754Y00187298D02*
X00188667D01*
X00168584Y00177398D02*
X00187128D01*
X00168236Y00186398D02*
X00186839D01*
X00168890Y00178298D02*
X00186073D01*
X00168620Y00185498D02*
X00185897D01*
X00169115Y00179198D02*
X00185408D01*
X00168917Y00184598D02*
X00185294D01*
X00169263Y00180098D02*
X00184980D01*
X00169134Y00183698D02*
X00184910D01*
X00169339Y00180998D02*
X00184733D01*
X00169275Y00182798D02*
X00184700D01*
X00169342Y00181898D02*
X00184642D01*
X00176500Y00251198D02*
X00184508D01*
X00176500Y00252098D02*
X00184433D01*
X00179750Y00337598D02*
X00183962D01*
X00176050Y00348398D02*
X00183949D01*
X00176500Y00250298D02*
X00183848D01*
X00181465Y00260198D02*
X00183776D01*
X00183017Y00270098D02*
X00183758D01*
X00176500Y00252998D02*
X00183628D01*
X00180121Y00270998D02*
X00183551D01*
X00178748Y00259298D02*
X00183249D01*
X00176500Y00253898D02*
X00183177D01*
X00177848Y00258398D02*
X00183022D01*
X00176500Y00254798D02*
X00183005D01*
X00176948Y00257498D02*
X00182999D01*
X00176500Y00256598D02*
X00182999D01*
X00176500Y00255698D02*
X00182999D01*
X00176398Y00249398D02*
X00182948D01*
X00176038Y00248498D02*
X00182048D01*
X00179750Y00338498D02*
X00181839D01*
X00178164Y00347498D02*
X00181835D01*
X00167230Y00271898D02*
X00181377D01*
X00175312Y00247598D02*
X00181148D01*
X00179754Y00339398D02*
X00180842D01*
X00179159Y00346598D02*
X00180840D01*
X00167811Y00272798D02*
X00180251D01*
X00174412Y00246698D02*
X00180248D01*
X00166514Y00270998D02*
X00179878D01*
X00168282Y00273698D02*
X00179351D01*
X00173512Y00245798D02*
X00179348D01*
X00168657Y00274598D02*
X00178451D01*
X00172612Y00244898D02*
X00178448D01*
X00172651Y00295298D02*
X00178212D01*
X00172848Y00316898D02*
X00177999D01*
X00168944Y00275498D02*
X00177551D01*
X00173162Y00230498D02*
X00177378D01*
X00165627Y00270098D02*
X00176982D01*
X00171500Y00307898D02*
X00176797D01*
X00171948Y00315998D02*
X00176723D01*
X00169153Y00276398D02*
X00176651D01*
X00171500Y00306998D02*
X00176645D01*
X00171751Y00296198D02*
X00176572D01*
X00171500Y00306098D02*
X00176501D01*
X00171500Y00305198D02*
X00176499D01*
X00153409Y00144998D02*
X00176375D01*
X00169567Y00219698D02*
X00176034D01*
X00171500Y00308798D02*
X00176027D01*
X00171500Y00304298D02*
X00176022D01*
X00171500Y00315098D02*
X00175955D01*
X00164498Y00269198D02*
X00175929D01*
X00122500Y00156698D02*
X00175770D01*
X00169285Y00277298D02*
X00175751D01*
X00162762Y00191798D02*
X00175712D01*
X00171500Y00297098D02*
X00175677D01*
X00171500Y00309698D02*
X00175504D01*
X00171500Y00314198D02*
X00175458D01*
X00168742Y00216098D02*
X00175437D01*
X00171500Y00303398D02*
X00175325D01*
X00162967Y00268298D02*
X00175265D01*
X00171712Y00243998D02*
X00175205D01*
X00171500Y00310598D02*
X00175181D01*
X00171500Y00313298D02*
X00175155D01*
X00171500Y00297998D02*
X00175101D01*
X00171500Y00311498D02*
X00175022D01*
X00171500Y00312398D02*
X00175014D01*
X00167972Y00234098D02*
X00175004D01*
X00153038Y00145898D02*
X00174891D01*
X00171500Y00302498D02*
X00174875D01*
X00169345Y00278198D02*
X00174851D01*
X00160344Y00267398D02*
X00174838D01*
X00171500Y00298898D02*
X00174738D01*
X00171500Y00301598D02*
X00174610D01*
X00138250Y00266498D02*
X00174591D01*
X00171500Y00299798D02*
X00174544D01*
X00122500Y00155798D02*
X00174541D01*
X00171500Y00300698D02*
X00174503D01*
X00138250Y00265598D02*
X00174500D01*
X00173464Y00229598D02*
X00174482D01*
X00138250Y00264698D02*
X00174248D01*
X00169418Y00220598D02*
X00174201D01*
X00159823Y00192698D02*
X00174072D01*
X00169192Y00206198D02*
X00173999D01*
X00168758Y00205298D02*
X00173999D01*
X00168108Y00204398D02*
X00173999D01*
X00167125Y00203498D02*
X00173999D01*
X00165312Y00202598D02*
X00173999D01*
X00138119Y00201698D02*
X00173999D01*
X00152593Y00146798D02*
X00173974D01*
X00169334Y00279098D02*
X00173951D01*
X00168704Y00348398D02*
X00173949D01*
X00168085Y00215198D02*
X00173947D01*
X00170812Y00243098D02*
X00173832D01*
X00122500Y00154898D02*
X00173736D01*
X00167106Y00234998D02*
X00173726D01*
X00169459Y00207098D02*
X00173623D01*
X00137436Y00200798D02*
X00173522D01*
X00138250Y00263798D02*
X00173348D01*
X00152063Y00147698D02*
X00173342D01*
X00122500Y00193598D02*
X00173177D01*
X00142973Y00153998D02*
X00173176D01*
X00167088Y00214298D02*
X00173098D01*
X00169121Y00221498D02*
X00173063D01*
X00169251Y00279998D02*
X00173051D01*
X00169912Y00242198D02*
X00173025D01*
X00167130Y00235898D02*
X00172957D01*
X00151439Y00148598D02*
X00172906D01*
X00169580Y00207998D02*
X00172891D01*
X00122500Y00199898D02*
X00172825D01*
X00145764Y00153098D02*
X00172795D01*
X00150704Y00149498D02*
X00172624D01*
X00122500Y00194498D02*
X00172601D01*
X00147483Y00152198D02*
X00172560D01*
X00166842Y00213398D02*
X00172550D01*
X00169571Y00241298D02*
X00172503D01*
X00149832Y00150398D02*
X00172477D01*
X00168037Y00236798D02*
X00172459D01*
X00148783Y00151298D02*
X00172456D01*
X00138250Y00262898D02*
X00172448D01*
X00169565Y00208898D02*
X00172417D01*
X00122500Y00198998D02*
X00172375D01*
X00122500Y00195398D02*
X00172238D01*
X00167921Y00212498D02*
X00172208D01*
X00169575Y00240398D02*
X00172180D01*
X00168710Y00237698D02*
X00172156D01*
X00169094Y00280898D02*
X00172151D01*
X00169412Y00209798D02*
X00172132D01*
X00122500Y00198098D02*
X00172110D01*
X00122500Y00196298D02*
X00172044D01*
X00168632Y00211598D02*
X00172032D01*
X00169441Y00239498D02*
X00172022D01*
X00169161Y00238598D02*
X00172014D01*
X00169110Y00210698D02*
X00172008D01*
X00122500Y00197198D02*
X00172003D01*
X00170001Y00347498D02*
X00171835D01*
X00138250Y00261998D02*
X00171548D01*
X00168861Y00281798D02*
X00171251D01*
X00138250Y00261098D02*
X00170648D01*
X00168546Y00282698D02*
X00170351D01*
X00153925Y00336698D02*
X00170249D01*
X00159474Y00335798D02*
X00170249D01*
X00168695Y00337598D02*
X00170248D01*
X00138250Y00260198D02*
X00169939D01*
X00138250Y00259298D02*
X00169592D01*
X00138250Y00258398D02*
X00169499D01*
X00164945Y00257498D02*
X00169499D01*
X00166988Y00256598D02*
X00169499D01*
X00168021Y00255698D02*
X00169499D01*
X00168164Y00283598D02*
X00169451D01*
X00168801Y00254798D02*
X00169198D01*
X00138250Y00257498D02*
X00162236D01*
X00138250Y00202598D02*
X00161869D01*
X00154108Y00337598D02*
X00161304D01*
X00151587Y00348398D02*
X00161295D01*
X00138242Y00256598D02*
X00160192D01*
X00138250Y00203498D02*
X00160055D01*
X00154232Y00338498D02*
X00160000D01*
X00152189Y00347498D02*
X00159998D01*
X00154298Y00339398D02*
X00159573D01*
X00152698Y00346598D02*
X00159572D01*
X00153127Y00345698D02*
X00159499D01*
X00153482Y00344798D02*
X00159499D01*
X00153769Y00343898D02*
X00159499D01*
X00153993Y00342998D02*
X00159499D01*
X00154156Y00342098D02*
X00159499D01*
X00154260Y00341198D02*
X00159499D01*
X00154307Y00340298D02*
X00159499D01*
X00137937Y00255698D02*
X00159159D01*
X00138250Y00204398D02*
X00159072D01*
X00136571Y00254798D02*
X00158480D01*
X00138250Y00205298D02*
X00158422D01*
X00122500Y00253898D02*
X00158026D01*
X00138250Y00206198D02*
X00157988D01*
X00122500Y00252998D02*
X00157743D01*
X00138250Y00207098D02*
X00157721D01*
X00155926Y00208898D02*
X00157615D01*
X00155787Y00251198D02*
X00157607D01*
X00153704Y00252098D02*
X00157607D01*
X00154085Y00207998D02*
X00157600D01*
X00156831Y00250298D02*
X00157498D01*
X00156993Y00209798D02*
X00157336D01*
X00122500Y00170198D02*
X00156908D01*
X00153680Y00335798D02*
X00156525D01*
X00122500Y00192698D02*
X00156176D01*
X00122500Y00289898D02*
X00155907D01*
X00146079Y00300698D02*
X00155873D01*
X00138250Y00267398D02*
X00155655D01*
X00143686Y00301598D02*
X00155451D01*
X00144304Y00290798D02*
X00155145D01*
X00153397Y00334898D02*
X00154698D01*
X00147108Y00299798D02*
X00154569D01*
X00122500Y00302498D02*
X00154379D01*
X00146241Y00291698D02*
X00154025D01*
X00122500Y00288998D02*
X00153677D01*
X00147759Y00298898D02*
X00153675D01*
X00122500Y00171098D02*
X00153448D01*
X00147206Y00292598D02*
X00153327D01*
X00122500Y00191798D02*
X00153237D01*
X00148177Y00297998D02*
X00153100D01*
X00138250Y00268298D02*
X00153032D01*
X00147823Y00293498D02*
X00152877D01*
X00148416Y00297098D02*
X00152737D01*
X00148216Y00294398D02*
X00152611D01*
X00148499Y00296198D02*
X00152544D01*
X00148435Y00295298D02*
X00152503D01*
X00122500Y00288098D02*
X00151936D01*
X00122500Y00171998D02*
X00151785D01*
X00122500Y00190898D02*
X00151642D01*
X00138250Y00269198D02*
X00151501D01*
X00122500Y00252098D02*
X00151114D01*
X00138250Y00207998D02*
X00150733D01*
X00122500Y00287198D02*
X00150704D01*
X00122500Y00172898D02*
X00150590D01*
X00122500Y00303398D02*
X00150516D01*
X00122500Y00189998D02*
X00150481D01*
X00138250Y00270098D02*
X00150372D01*
X00122500Y00286298D02*
X00149749D01*
X00122500Y00173798D02*
X00149658D01*
X00122500Y00304298D02*
X00149609D01*
X00122500Y00189098D02*
X00149572D01*
X00138250Y00270998D02*
X00149485D01*
X00138250Y00218798D02*
X00149142D01*
X00138250Y00229598D02*
X00149109D01*
X00138250Y00240398D02*
X00149070D01*
X00122500Y00251198D02*
X00149031D01*
X00138250Y00241298D02*
X00149006D01*
X00122500Y00285398D02*
X00148984D01*
X00138250Y00230498D02*
X00148967D01*
X00138250Y00219698D02*
X00148929D01*
X00122500Y00174698D02*
X00148910D01*
X00138250Y00208898D02*
X00148892D01*
X00122500Y00188198D02*
X00148840D01*
X00138250Y00271898D02*
X00148769D01*
X00122500Y00305198D02*
X00148709D01*
X00122500Y00284498D02*
X00148362D01*
X00122500Y00175598D02*
X00148302D01*
X00122500Y00187298D02*
X00148245D01*
X00138250Y00272798D02*
X00148188D01*
X00138250Y00217898D02*
X00148065D01*
X00138250Y00228698D02*
X00148040D01*
X00138250Y00239498D02*
X00148015D01*
X00137124Y00250298D02*
X00147990D01*
X00138250Y00242198D02*
X00147974D01*
X00138250Y00231398D02*
X00147950D01*
X00138250Y00220598D02*
X00147926D01*
X00138250Y00209798D02*
X00147902D01*
X00122500Y00283598D02*
X00147857D01*
X00122500Y00306098D02*
X00147809D01*
X00122500Y00176498D02*
X00147809D01*
X00122500Y00186398D02*
X00147763D01*
X00138250Y00273698D02*
X00147717D01*
X00122500Y00282698D02*
X00147453D01*
X00122500Y00177398D02*
X00147415D01*
X00122500Y00185498D02*
X00147379D01*
X00138250Y00216998D02*
X00147358D01*
X00138250Y00274598D02*
X00147342D01*
X00138250Y00227798D02*
X00147341D01*
X00138250Y00238598D02*
X00147324D01*
X00138036Y00249398D02*
X00147308D01*
X00138250Y00243098D02*
X00147297D01*
X00138250Y00232298D02*
X00147281D01*
X00138250Y00221498D02*
X00147265D01*
X00138250Y00210698D02*
X00147249D01*
X00122500Y00281798D02*
X00147138D01*
X00122500Y00178298D02*
X00147109D01*
X00122500Y00184598D02*
X00147082D01*
X00138250Y00275498D02*
X00147055D01*
X00122500Y00306998D02*
X00146909D01*
X00122500Y00280898D02*
X00146905D01*
X00122500Y00179198D02*
X00146884D01*
X00138250Y00216098D02*
X00146884D01*
X00138250Y00226898D02*
X00146872D01*
X00122500Y00183698D02*
X00146865D01*
X00138250Y00237698D02*
X00146861D01*
X00138250Y00248498D02*
X00146850D01*
X00138250Y00276398D02*
X00146846D01*
X00138250Y00243998D02*
X00146843D01*
X00138250Y00233198D02*
X00146833D01*
X00138250Y00222398D02*
X00146822D01*
X00138250Y00211598D02*
X00146812D01*
X00145525Y00326798D02*
X00146785D01*
X00122500Y00279998D02*
X00146748D01*
X00122500Y00180098D02*
X00146736D01*
X00122500Y00182798D02*
X00146724D01*
X00138083Y00277298D02*
X00146714D01*
X00122500Y00279098D02*
X00146665D01*
X00122500Y00180998D02*
X00146660D01*
X00122500Y00181898D02*
X00146657D01*
X00137305Y00278198D02*
X00146654D01*
X00138250Y00215198D02*
X00146584D01*
X00138250Y00225998D02*
X00146577D01*
X00138250Y00236798D02*
X00146571D01*
X00138250Y00247598D02*
X00146565D01*
X00138250Y00244898D02*
X00146561D01*
X00138250Y00234098D02*
X00146555D01*
X00138250Y00223298D02*
X00146549D01*
X00138250Y00212498D02*
X00146543D01*
X00138250Y00214298D02*
X00146433D01*
X00138250Y00225098D02*
X00146431D01*
X00138250Y00235898D02*
X00146429D01*
X00138250Y00246698D02*
X00146426D01*
X00138250Y00245798D02*
X00146425D01*
X00138250Y00234998D02*
X00146423D01*
X00138250Y00224198D02*
X00146421D01*
X00138250Y00213398D02*
X00146420D01*
X00142441Y00325898D02*
X00146322D01*
X00122500Y00307898D02*
X00146009D01*
X00122500Y00324998D02*
X00145422D01*
X00122500Y00308798D02*
X00145109D01*
X00122500Y00324098D02*
X00144522D01*
X00122500Y00309698D02*
X00144209D01*
X00122500Y00323198D02*
X00143622D01*
X00122500Y00322298D02*
X00142722D01*
X00122500Y00301598D02*
X00142313D01*
X00122500Y00321398D02*
X00141822D01*
X00122500Y00290798D02*
X00141695D01*
X00122500Y00310598D02*
X00141391D01*
X00122500Y00320498D02*
X00140047D01*
X00122500Y00300698D02*
X00139920D01*
X00122500Y00291698D02*
X00139758D01*
X00122500Y00311498D02*
X00139646D01*
X00122500Y00319598D02*
X00138967D01*
X00122500Y00299798D02*
X00138891D01*
X00122500Y00292598D02*
X00138793D01*
X00122500Y00312398D02*
X00138724D01*
X00122500Y00318698D02*
X00138290D01*
X00122500Y00298898D02*
X00138240D01*
X00122500Y00293498D02*
X00138176D01*
X00122500Y00313298D02*
X00138131D01*
X00122500Y00317798D02*
X00137853D01*
X00122500Y00297998D02*
X00137822D01*
X00122500Y00294398D02*
X00137783D01*
X00122500Y00314198D02*
X00137756D01*
X00122500Y00316898D02*
X00137599D01*
X00122500Y00297098D02*
X00137583D01*
X00122500Y00295298D02*
X00137564D01*
X00122500Y00325898D02*
X00137558D01*
X00122500Y00315098D02*
X00137552D01*
X00122500Y00315998D02*
X00137501D01*
X00122500Y00296198D02*
X00137500D01*
X00122500Y00153998D02*
X00137026D01*
X00122500Y00126098D02*
X00136600D01*
X00122500Y00353798D02*
X00136204D01*
X00122500Y00326798D02*
X00134474D01*
X00122500Y00153098D02*
X00134235D01*
X00122500Y00126998D02*
X00134019D01*
X00122500Y00352898D02*
X00133800D01*
X00122500Y00327698D02*
X00132686D01*
X00122500Y00152198D02*
X00132516D01*
X00122500Y00127898D02*
X00132360D01*
X00122500Y00351998D02*
X00132200D01*
X00122500Y00328598D02*
X00131350D01*
X00122500Y00151298D02*
X00131216D01*
X00122500Y00128798D02*
X00131092D01*
X00122500Y00351098D02*
X00130965D01*
X00122500Y00329498D02*
X00130277D01*
X00122500Y00150398D02*
X00130167D01*
X00122500Y00129698D02*
X00130065D01*
X00122500Y00350198D02*
X00129960D01*
X00122500Y00330398D02*
X00129387D01*
X00122500Y00149498D02*
X00129295D01*
X00122500Y00130598D02*
X00129210D01*
X00122500Y00349298D02*
X00129121D01*
X00122500Y00331298D02*
X00128638D01*
X00122500Y00148598D02*
X00128560D01*
X00122500Y00131498D02*
X00128487D01*
X00122500Y00348398D02*
X00128412D01*
X00122500Y00332198D02*
X00128002D01*
X00122500Y00147698D02*
X00127936D01*
X00122500Y00132398D02*
X00127874D01*
X00122500Y00347498D02*
X00127810D01*
X00122500Y00333098D02*
X00127462D01*
X00122500Y00146798D02*
X00127406D01*
X00122500Y00133298D02*
X00127354D01*
X00122500Y00346598D02*
X00127301D01*
X00122500Y00333998D02*
X00127008D01*
X00122500Y00145898D02*
X00126961D01*
X00122500Y00254798D02*
X00126928D01*
X00122500Y00134198D02*
X00126917D01*
X00122500Y00345698D02*
X00126872D01*
X00122500Y00334898D02*
X00126629D01*
X00122500Y00144998D02*
X00126590D01*
X00122500Y00135098D02*
X00126554D01*
X00122500Y00344798D02*
X00126517D01*
X00122500Y00250298D02*
X00126375D01*
X00122500Y00335798D02*
X00126319D01*
X00122500Y00144098D02*
X00126288D01*
X00122500Y00135998D02*
X00126259D01*
X00122500Y00343898D02*
X00126230D01*
X00122500Y00278198D02*
X00126194D01*
X00122500Y00336698D02*
X00126074D01*
X00122500Y00200798D02*
X00126063D01*
X00122500Y00143198D02*
X00126051D01*
X00122500Y00136898D02*
X00126029D01*
X00122500Y00342998D02*
X00126006D01*
X00122500Y00337598D02*
X00125891D01*
X00122500Y00142298D02*
X00125874D01*
X00122500Y00137798D02*
X00125859D01*
X00122500Y00342098D02*
X00125843D01*
X00122500Y00338498D02*
X00125767D01*
X00122500Y00141398D02*
X00125757D01*
X00122500Y00138698D02*
X00125748D01*
X00122500Y00341198D02*
X00125739D01*
X00122500Y00339398D02*
X00125701D01*
X00122500Y00140498D02*
X00125697D01*
X00122500Y00139598D02*
X00125694D01*
X00122500Y00340298D02*
X00125692D01*
X00122500Y00255698D02*
X00125562D01*
X00122500Y00249398D02*
X00125463D01*
X00122500Y00277298D02*
X00125416D01*
X00122500Y00201698D02*
X00125380D01*
X00122500Y00256598D02*
X00125257D01*
X00122500Y00276398D02*
X00125249D01*
X00122500Y00275498D02*
X00125249D01*
X00122500Y00274598D02*
X00125249D01*
X00122500Y00273698D02*
X00125249D01*
X00122500Y00272798D02*
X00125249D01*
X00122500Y00271898D02*
X00125249D01*
X00122500Y00270998D02*
X00125249D01*
X00122500Y00270098D02*
X00125249D01*
X00122500Y00269198D02*
X00125249D01*
X00122500Y00268298D02*
X00125249D01*
X00122500Y00267398D02*
X00125249D01*
X00122500Y00266498D02*
X00125249D01*
X00122500Y00265598D02*
X00125249D01*
X00122500Y00264698D02*
X00125249D01*
X00122500Y00263798D02*
X00125249D01*
X00122500Y00262898D02*
X00125249D01*
X00122500Y00261998D02*
X00125249D01*
X00122500Y00261098D02*
X00125249D01*
X00122500Y00260198D02*
X00125249D01*
X00122500Y00259298D02*
X00125249D01*
X00122500Y00258398D02*
X00125249D01*
X00122500Y00257498D02*
X00125249D01*
X00122500Y00248498D02*
X00125249D01*
X00122500Y00247598D02*
X00125249D01*
X00122500Y00246698D02*
X00125249D01*
X00122500Y00245798D02*
X00125249D01*
X00122500Y00244898D02*
X00125249D01*
X00122500Y00243998D02*
X00125249D01*
X00122500Y00243098D02*
X00125249D01*
X00122500Y00242198D02*
X00125249D01*
X00122500Y00241298D02*
X00125249D01*
X00122500Y00240398D02*
X00125249D01*
X00122500Y00239498D02*
X00125249D01*
X00122500Y00238598D02*
X00125249D01*
X00122500Y00237698D02*
X00125249D01*
X00122500Y00236798D02*
X00125249D01*
X00122500Y00235898D02*
X00125249D01*
X00122500Y00234998D02*
X00125249D01*
X00122500Y00234098D02*
X00125249D01*
X00122500Y00233198D02*
X00125249D01*
X00122500Y00232298D02*
X00125249D01*
X00122500Y00231398D02*
X00125249D01*
X00122500Y00230498D02*
X00125249D01*
X00122500Y00229598D02*
X00125249D01*
X00122500Y00228698D02*
X00125249D01*
X00122500Y00227798D02*
X00125249D01*
X00122500Y00226898D02*
X00125249D01*
X00122500Y00225998D02*
X00125249D01*
X00122500Y00225098D02*
X00125249D01*
X00122500Y00224198D02*
X00125249D01*
X00122500Y00223298D02*
X00125249D01*
X00122500Y00222398D02*
X00125249D01*
X00122500Y00221498D02*
X00125249D01*
X00122500Y00220598D02*
X00125249D01*
X00122500Y00219698D02*
X00125249D01*
X00122500Y00218798D02*
X00125249D01*
X00122500Y00217898D02*
X00125249D01*
X00122500Y00216998D02*
X00125249D01*
X00122500Y00216098D02*
X00125249D01*
X00122500Y00215198D02*
X00125249D01*
X00122500Y00214298D02*
X00125249D01*
X00122500Y00213398D02*
X00125249D01*
X00122500Y00212498D02*
X00125249D01*
X00122500Y00211598D02*
X00125249D01*
X00122500Y00210698D02*
X00125249D01*
X00122500Y00209798D02*
X00125249D01*
X00122500Y00208898D02*
X00125249D01*
X00122500Y00207998D02*
X00125249D01*
X00122500Y00207098D02*
X00125249D01*
X00122500Y00206198D02*
X00125249D01*
X00122500Y00205298D02*
X00125249D01*
X00122500Y00204398D02*
X00125249D01*
X00122500Y00203498D02*
X00125249D01*
X00122500Y00202598D02*
X00125249D01*
G54D31*
X00163590Y00251653D03*
Y00240826D03*
Y00230000D03*
Y00219173D03*
Y00208346D03*
X00152409Y00246240D03*
Y00235413D03*
Y00224586D03*
Y00213759D03*
G54D35*
X00362400Y00188500D03*
Y00171500D03*
X00387600D03*
Y00188500D03*
X00362400Y00228500D03*
Y00211500D03*
X00387600D03*
Y00228500D03*
X00362400Y00268500D03*
Y00251500D03*
X00387600D03*
Y00268500D03*
X00362400Y00308500D03*
Y00291500D03*
X00387600D03*
Y00308500D03*
G54D40*
X00236000Y00197900D03*
X00294000Y00141000D03*
X00237000Y00221000D03*
X00324100Y00164000D03*
X00165000Y00343000D03*
X00325000Y00137000D03*
X00330000Y00264000D03*
X00210000Y00343000D03*
X00279000Y00248000D03*
X00255000Y00345000D03*
X00277000Y00185000D03*
G54D42*
X00158000Y00330500D02*
X00175000D01*
Y00343000*
X00143000Y00315858D02*
X00150141Y00323000D01*
X00150141D02*
X00150500D01*
X00158000Y00330500*
G54D43*
Y00278503D03*
Y00181496D03*
G54D44*
X00219000Y00141000D03*
Y00161000D03*
X00179000Y00151000D03*
G74*
X00000000Y00000000D02*
M02*
