*
*
G04 PowerPCB (Build Number 500.281.2.20) generated Gerber (RS-274-X) file*
G04 PC Version=2.1*
*
%IN "Untitled"*%
*
%MOIN*%
*
%FSLAX35Y35*%
*
*
*
*
G04 PC Standard Apertures*
*
*
G04 Thermal Relief Aperture macro.*
%AMTER*
1,1,$1,0,0*
1,0,$1-$2,0,0*
21,0,$3,$4,0,0,45*
21,0,$3,$4,0,0,135*
%
*
*
G04 Annular Aperture macro.*
%AMANN*
1,1,$1,0,0*
1,0,$2,0,0*
%
*
*
G04 Odd Aperture macro.*
%AMODD*
1,1,$1,0,0*
1,0,$1-0.005,0,0*
%
*
*
G04 PC Custom Aperture Macros*
*
*
*
*
*
*
G04 PC Aperture Table*
*
%ADD023C,0.007*%
%ADD024C,0.001*%
%ADD029C,0.005*%
*
*
*
*
G04 PC Custom Flashes*
G04 Layer Name Untitled - flashes*
%LPD*%
*
*
G04 PC Circuitry*
G04 Layer Name Untitled - circuitry*
%LPD*%
*
G54D23*
G01X00110000Y00110000D02*
Y00110500D01*
Y00110000D02*
X00110500D01*
X00110000D02*
Y00109500D01*
Y00110000D02*
X00109500D01*
X00111500D02*
X00116500D01*
X00110000Y00108500D02*
Y00105100D01*
Y00111500D02*
Y00116000D01*
X00104000Y00110000D02*
X00108500D01*
X00113000D02*
G75*
G03X00113000I-00003000D01*
G01X00112000D02*
G03X00112000I-00002000D01*
G01X00530000D02*
Y00110500D01*
Y00110000D02*
X00530500D01*
X00530000D02*
Y00109500D01*
Y00110000D02*
X00529500D01*
X00531500D02*
X00536500D01*
X00530000Y00108500D02*
Y00105100D01*
Y00111500D02*
Y00116000D01*
X00524000Y00110000D02*
X00528500D01*
X00533000D02*
G03X00533000I-00003000D01*
G01X00532000D02*
G03X00532000I-00002000D01*
G01X00530000Y00450000D02*
Y00450500D01*
Y00450000D02*
X00530500D01*
X00530000D02*
Y00449500D01*
Y00450000D02*
X00529500D01*
X00531500D02*
X00536500D01*
X00530000Y00448500D02*
Y00445100D01*
Y00451500D02*
Y00456000D01*
X00524000Y00450000D02*
X00528500D01*
X00533000D02*
G03X00533000I-00003000D01*
G01X00532000D02*
G03X00532000I-00002000D01*
G54D24*
G01X00121000Y00121000D02*
X00121002D01*
X00519000D02*
X00519002D01*
X00519000D02*
X00519002D01*
X00519000Y00439000D02*
X00519002D01*
G54D29*
X00121000Y00121000D02*
X00519000D01*
Y00439000*
X00121000*
Y00121000*
Y00110000D02*
X00301431D01*
X00121000D02*
X00131000Y00112500D01*
Y00107500*
X00121000Y00110000*
X00519000D02*
X00338568D01*
X00519000D02*
X00509000Y00107500D01*
Y00112500*
X00519000Y00110000*
X00121000Y00116000D02*
Y00105000D01*
X00519000Y00116000D02*
Y00105000D01*
X00304886Y00112812D02*
X00307386D01*
X00307386D02*
X00306022Y00110312D01*
X00306022D02*
X00306704D01*
X00306704D02*
X00307159Y00110000D01*
X00307386Y00109687*
X00307386D02*
X00307613Y00108750D01*
X00307613D02*
Y00108125D01*
X00307613D02*
X00307386Y00107187D01*
X00307386D02*
X00306931Y00106562D01*
X00306931D02*
X00306250Y00106250D01*
X00305568*
X00304886Y00106562*
X00304886D02*
X00304659Y00106875D01*
X00304431Y00107500*
X00312613Y00110625D02*
X00312386Y00109687D01*
X00312386D02*
X00311931Y00109062D01*
X00311931D02*
X00311250Y00108750D01*
X00311022*
X00311022D02*
X00310340Y00109062D01*
X00310340D02*
X00309886Y00109687D01*
X00309886D02*
X00309659Y00110625D01*
Y00110937*
X00309659D02*
X00309886Y00111875D01*
X00310340Y00112500*
X00310340D02*
X00311022Y00112812D01*
X00311022D02*
X00311250D01*
X00311250D02*
X00311931Y00112500D01*
X00311931D02*
X00312386Y00111875D01*
X00312613Y00110625*
X00312613D02*
Y00109062D01*
X00312613D02*
X00312386Y00107500D01*
X00311931Y00106562*
X00311931D02*
X00311250Y00106250D01*
X00310795*
X00310113Y00106562*
X00310113D02*
X00309886Y00107187D01*
X00315795Y00112812D02*
X00315113Y00112500D01*
X00315113D02*
X00314886Y00111875D01*
Y00111250*
X00315113Y00110625*
X00315113D02*
X00315568Y00110312D01*
X00315568D02*
X00316477Y00110000D01*
X00317159Y00109687*
X00317159D02*
X00317613Y00109062D01*
X00317613D02*
X00317840Y00108437D01*
X00317840D02*
Y00107500D01*
X00317840D02*
X00317613Y00106875D01*
X00317613D02*
X00317386Y00106562D01*
X00317386D02*
X00316704Y00106250D01*
X00316704D02*
X00315795D01*
X00315113Y00106562*
X00315113D02*
X00314886Y00106875D01*
X00314659Y00107500*
Y00108437*
X00314659D02*
X00314886Y00109062D01*
X00314886D02*
X00315340Y00109687D01*
X00315340D02*
X00316022Y00110000D01*
X00316022D02*
X00316931Y00110312D01*
X00316931D02*
X00317386Y00110625D01*
X00317613Y00111250*
X00317613D02*
Y00111875D01*
X00317613D02*
X00317386Y00112500D01*
X00316704Y00112812*
X00316704D02*
X00315795D01*
X00321250D02*
X00320568Y00112500D01*
X00320113Y00111562*
X00320113D02*
X00319886Y00110000D01*
Y00109062*
X00319886D02*
X00320113Y00107500D01*
X00320113D02*
X00320568Y00106562D01*
X00320568D02*
X00321250Y00106250D01*
X00321704*
X00321704D02*
X00322386Y00106562D01*
X00322386D02*
X00322840Y00107500D01*
X00322840D02*
X00323068Y00109062D01*
X00323068D02*
Y00110000D01*
X00322840Y00111562*
X00322840D02*
X00322386Y00112500D01*
X00321704Y00112812*
X00321704D02*
X00321250D01*
X00325113Y00110625D02*
Y00106250D01*
Y00109375D02*
X00325795Y00110312D01*
X00325795D02*
X00326250Y00110625D01*
X00326931*
X00326931D02*
X00327386Y00110312D01*
X00327386D02*
X00327613Y00109375D01*
X00327613D02*
Y00106250D01*
Y00109375D02*
X00328295Y00110312D01*
X00328295D02*
X00328750Y00110625D01*
X00329431*
X00329431D02*
X00329886Y00110312D01*
X00329886D02*
X00330113Y00109375D01*
X00330113D02*
Y00106250D01*
X00332159Y00112812D02*
X00332386Y00112500D01*
X00332613Y00112812*
X00332613D02*
X00332386Y00113125D01*
X00332159Y00112812*
X00332386Y00110625D02*
Y00106250D01*
X00334659Y00112812D02*
Y00106250D01*
X00530000Y00121000D02*
Y00262340D01*
Y00121000D02*
X00527500Y00131000D01*
X00532500*
X00530000Y00121000*
Y00439000D02*
Y00297659D01*
Y00439000D02*
X00532500Y00429000D01*
X00527500*
X00530000Y00439000*
X00524000Y00121000D02*
X00535000D01*
X00524000Y00439000D02*
X00535000D01*
X00527187Y00265795D02*
Y00268295D01*
X00527187D02*
X00529687Y00266931D01*
X00529687D02*
Y00267613D01*
X00529687D02*
X00530000Y00268068D01*
X00530312Y00268295*
X00530312D02*
X00531250Y00268522D01*
X00531250D02*
X00531875D01*
X00531875D02*
X00532812Y00268295D01*
X00532812D02*
X00533437Y00267840D01*
X00533437D02*
X00533750Y00267159D01*
Y00266477*
X00533437Y00265795*
X00533437D02*
X00533125Y00265568D01*
X00532500Y00265340*
X00528437Y00270568D02*
X00528125Y00271022D01*
X00528125D02*
X00527187Y00271704D01*
X00527187D02*
X00533750D01*
X00527187Y00274886D02*
X00527500Y00274204D01*
X00527500D02*
X00528125Y00273977D01*
X00528750*
X00529375Y00274204*
X00529375D02*
X00529687Y00274659D01*
X00529687D02*
X00530000Y00275568D01*
X00530312Y00276250*
X00530312D02*
X00530937Y00276704D01*
X00530937D02*
X00531562Y00276931D01*
X00531562D02*
X00532500D01*
X00532500D02*
X00533125Y00276704D01*
X00533125D02*
X00533437Y00276477D01*
X00533437D02*
X00533750Y00275795D01*
Y00274886*
X00533437Y00274204*
X00533437D02*
X00533125Y00273977D01*
X00532500Y00273750*
X00531562*
X00531562D02*
X00530937Y00273977D01*
X00530937D02*
X00530312Y00274431D01*
X00530312D02*
X00530000Y00275113D01*
X00530000D02*
X00529687Y00276022D01*
X00529687D02*
X00529375Y00276477D01*
X00528750Y00276704*
X00528750D02*
X00528125D01*
X00528125D02*
X00527500Y00276477D01*
X00527187Y00275795*
X00527187D02*
Y00274886D01*
Y00280340D02*
X00527500Y00279659D01*
X00528437Y00279204*
X00528437D02*
X00530000Y00278977D01*
X00530937*
X00530937D02*
X00532500Y00279204D01*
X00532500D02*
X00533437Y00279659D01*
X00533437D02*
X00533750Y00280340D01*
X00533750D02*
Y00280795D01*
X00533437Y00281477*
X00533437D02*
X00532500Y00281931D01*
X00532500D02*
X00530937Y00282159D01*
X00530937D02*
X00530000D01*
X00528437Y00281931*
X00528437D02*
X00527500Y00281477D01*
X00527187Y00280795*
X00527187D02*
Y00280340D01*
X00529375Y00284204D02*
X00533750D01*
X00530625D02*
X00529687Y00284886D01*
X00529687D02*
X00529375Y00285340D01*
X00529375D02*
Y00286022D01*
X00529375D02*
X00529687Y00286477D01*
X00529687D02*
X00530625Y00286704D01*
X00530625D02*
X00533750D01*
X00530625D02*
X00529687Y00287386D01*
X00529687D02*
X00529375Y00287840D01*
X00529375D02*
Y00288522D01*
X00529375D02*
X00529687Y00288977D01*
X00529687D02*
X00530625Y00289204D01*
X00530625D02*
X00533750D01*
X00527187Y00291250D02*
X00527500Y00291477D01*
X00527187Y00291704*
X00527187D02*
X00526875Y00291477D01*
X00527187Y00291250*
X00529375Y00291477D02*
X00533750D01*
X00527187Y00293750D02*
X00533750D01*
G74*
X00000000Y00000000D02*
M02*
