*
*
G04 PowerPCB (Build Number 500.281.2.20) generated Gerber (RS-274-X) file*
G04 PC Version=2.1*
*
%IN "Untitled"*%
*
%MOIN*%
*
%FSLAX35Y35*%
*
*
*
*
G04 PC Standard Apertures*
*
*
G04 Thermal Relief Aperture macro.*
%AMTER*
1,1,$1,0,0*
1,0,$1-$2,0,0*
21,0,$3,$4,0,0,45*
21,0,$3,$4,0,0,135*
%
*
*
G04 Annular Aperture macro.*
%AMANN*
1,1,$1,0,0*
1,0,$2,0,0*
%
*
*
G04 Odd Aperture macro.*
%AMODD*
1,1,$1,0,0*
1,0,$1-0.005,0,0*
%
*
*
G04 PC Custom Aperture Macros*
*
*
*
*
*
*
G04 PC Aperture Table*
*
%ADD023C,0.007*%
%ADD038R,0.035X0.035*%
%ADD062R,0.036X0.036*%
%ADD063C,0.023*%
*
*
*
*
G04 PC Custom Flashes*
G04 Layer Name Untitled - flashes*
%LPD*%
*
*
G04 PC Circuitry*
G04 Layer Name Untitled - circuitry*
%LPD*%
*
G54D23*
G01X00110000Y00110000D02*
Y00110500D01*
Y00110000D02*
X00110500D01*
X00110000D02*
Y00109500D01*
Y00110000D02*
X00109500D01*
X00111500D02*
X00116500D01*
X00110000Y00108500D02*
Y00105100D01*
Y00111500D02*
Y00116000D01*
X00104000Y00110000D02*
X00108500D01*
X00113000D02*
G75*
G03X00113000I-00003000D01*
G01X00112000D02*
G03X00112000I-00002000D01*
G01X00530000D02*
Y00110500D01*
Y00110000D02*
X00530500D01*
X00530000D02*
Y00109500D01*
Y00110000D02*
X00529500D01*
X00531500D02*
X00536500D01*
X00530000Y00108500D02*
Y00105100D01*
Y00111500D02*
Y00116000D01*
X00524000Y00110000D02*
X00528500D01*
X00533000D02*
G03X00533000I-00003000D01*
G01X00532000D02*
G03X00532000I-00002000D01*
G01X00530000Y00450000D02*
Y00450500D01*
Y00450000D02*
X00530500D01*
X00530000D02*
Y00449500D01*
Y00450000D02*
X00529500D01*
X00531500D02*
X00536500D01*
X00530000Y00448500D02*
Y00445100D01*
Y00451500D02*
Y00456000D01*
X00524000Y00450000D02*
X00528500D01*
X00533000D02*
G03X00533000I-00003000D01*
G01X00532000D02*
G03X00532000I-00002000D01*
G54D38*
G01X00397150Y00245200D02*
X00398850D01*
X00397150Y00252800D02*
X00398850D01*
X00397150Y00230200D02*
X00398850D01*
X00397150Y00237800D02*
X00398850D01*
X00349150Y00245200D02*
X00350850D01*
X00349150Y00252800D02*
X00350850D01*
X00369200Y00263850D02*
Y00262150D01*
X00376800Y00263850D02*
Y00262150D01*
X00397150Y00215200D02*
X00398850D01*
X00397150Y00222800D02*
X00398850D01*
X00246800Y00342150D02*
Y00343850D01*
X00239200Y00342150D02*
Y00343850D01*
X00261200D02*
Y00342150D01*
X00268800Y00343850D02*
Y00342150D01*
X00427800Y00366150D02*
Y00367850D01*
X00420200Y00366150D02*
Y00367850D01*
X00472800Y00366150D02*
Y00367850D01*
X00465200Y00366150D02*
Y00367850D01*
X00195000Y00324850D02*
Y00323150D01*
X00202600Y00324850D02*
Y00323150D01*
X00192850Y00249800D02*
X00191150D01*
X00192850Y00242200D02*
X00191150D01*
X00168200Y00154850D02*
Y00153150D01*
X00175800Y00154850D02*
Y00153150D01*
X00168200Y00164850D02*
Y00163150D01*
X00175800Y00164850D02*
Y00163150D01*
X00341600Y00337800D02*
X00340400D01*
X00341600Y00330200D02*
X00340400D01*
X00322400Y00323200D02*
X00323600D01*
X00322400Y00330800D02*
X00323600D01*
X00311700Y00352900D02*
Y00354100D01*
X00304100Y00352900D02*
Y00354100D01*
X00168600Y00255800D02*
X00167400D01*
X00168600Y00248200D02*
X00167400D01*
X00191400Y00267200D02*
X00192600D01*
X00191400Y00274800D02*
X00192600D01*
X00393400Y00350200D02*
X00394600D01*
X00393400Y00357800D02*
X00394600D01*
X00410600Y00377800D02*
X00409400D01*
X00410600Y00370200D02*
X00409400D01*
X00429600Y00357800D02*
X00428400D01*
X00429600Y00350200D02*
X00428400D01*
X00257600Y00246800D02*
X00256400D01*
X00257600Y00239200D02*
X00256400D01*
X00454400Y00369200D02*
X00455600D01*
X00454400Y00376800D02*
X00455600D01*
X00449800Y00354400D02*
Y00355600D01*
X00442200Y00354400D02*
Y00355600D01*
X00265400Y00239200D02*
X00266600D01*
X00265400Y00246800D02*
X00266600D01*
X00331800Y00240400D02*
Y00241600D01*
X00324200Y00240400D02*
Y00241600D01*
X00168600Y00274800D02*
X00167400D01*
X00168600Y00267200D02*
X00167400D01*
G54D62*
X00411000Y00358000D03*
X00419000D03*
X00415000Y00350000D03*
X00458000Y00358000D03*
X00466000D03*
X00462000Y00350000D03*
G54D63*
X00206000Y00266700D02*
Y00262300D01*
X00211000Y00266700D02*
Y00262300D01*
X00216000Y00266700D02*
Y00262300D01*
X00221000Y00266700D02*
Y00262300D01*
X00226000Y00266700D02*
Y00262300D01*
X00231000Y00266700D02*
Y00262300D01*
X00236000Y00266700D02*
Y00262300D01*
X00241000Y00266700D02*
Y00262300D01*
X00246000Y00266700D02*
Y00262300D01*
Y00227700D02*
Y00223300D01*
X00241000Y00227700D02*
Y00223300D01*
X00236000Y00227700D02*
Y00223300D01*
X00231000Y00227700D02*
Y00223300D01*
X00226000Y00227700D02*
Y00223300D01*
X00221000Y00227700D02*
Y00223300D01*
X00216000Y00227700D02*
Y00223300D01*
X00211000Y00227700D02*
Y00223300D01*
X00206000Y00227700D02*
Y00223300D01*
X00385900Y00252500D02*
X00381500D01*
X00385900Y00247500D02*
X00381500D01*
X00385900Y00242500D02*
X00381500D01*
X00385900Y00237500D02*
X00381500D01*
X00385900Y00232500D02*
X00381500D01*
X00385900Y00227500D02*
X00381500D01*
X00385900Y00222500D02*
X00381500D01*
X00385900Y00217500D02*
X00381500D01*
X00364500D02*
X00360100D01*
X00364500Y00222500D02*
X00360100D01*
X00364500Y00227500D02*
X00360100D01*
X00364500Y00232500D02*
X00360100D01*
X00364500Y00237500D02*
X00360100D01*
X00364500Y00242500D02*
X00360100D01*
X00364500Y00247500D02*
X00360100D01*
X00364500Y00252500D02*
X00360100D01*
G74*
X00000000Y00000000D02*
M02*
