*
*
G04 PowerPCB (Build Number 500.281.2.20) generated Gerber (RS-274-X) file*
G04 PC Version=2.1*
*
%IN "Untitled"*%
*
%MOIN*%
*
%FSLAX35Y35*%
*
*
*
*
G04 PC Standard Apertures*
*
*
G04 Thermal Relief Aperture macro.*
%AMTER*
1,1,$1,0,0*
1,0,$1-$2,0,0*
21,0,$3,$4,0,0,45*
21,0,$3,$4,0,0,135*
%
*
*
G04 Annular Aperture macro.*
%AMANN*
1,1,$1,0,0*
1,0,$2,0,0*
%
*
*
G04 Odd Aperture macro.*
%AMODD*
1,1,$1,0,0*
1,0,$1-0.005,0,0*
%
*
*
G04 PC Custom Aperture Macros*
*
*
*
*
*
*
G04 PC Aperture Table*
*
%ADD023C,0.007*%
%ADD036C,0.008*%
*
*
*
*
G04 PC Custom Flashes*
G04 Layer Name Untitled - flashes*
%LPD*%
*
*
G04 PC Circuitry*
G04 Layer Name Untitled - circuitry*
%LPD*%
*
G54D23*
G01X00110000Y00110000D02*
Y00110500D01*
Y00110000D02*
X00110500D01*
X00110000D02*
Y00109500D01*
Y00110000D02*
X00109500D01*
X00111500D02*
X00116500D01*
X00110000Y00108500D02*
Y00105100D01*
Y00111500D02*
Y00116000D01*
X00104000Y00110000D02*
X00108500D01*
X00113000D02*
G75*
G03X00113000I-00003000D01*
G01X00112000D02*
G03X00112000I-00002000D01*
G01X00530000D02*
Y00110500D01*
Y00110000D02*
X00530500D01*
X00530000D02*
Y00109500D01*
Y00110000D02*
X00529500D01*
X00531500D02*
X00536500D01*
X00530000Y00108500D02*
Y00105100D01*
Y00111500D02*
Y00116000D01*
X00524000Y00110000D02*
X00528500D01*
X00533000D02*
G03X00533000I-00003000D01*
G01X00532000D02*
G03X00532000I-00002000D01*
G01X00530000Y00450000D02*
Y00450500D01*
Y00450000D02*
X00530500D01*
X00530000D02*
Y00449500D01*
Y00450000D02*
X00529500D01*
X00531500D02*
X00536500D01*
X00530000Y00448500D02*
Y00445100D01*
Y00451500D02*
Y00456000D01*
X00524000Y00450000D02*
X00528500D01*
X00533000D02*
G03X00533000I-00003000D01*
G01X00532000D02*
G03X00532000I-00002000D01*
G54D36*
G01X00401800Y00247400D02*
Y00242200D01*
X00394200*
Y00247400*
X00401800Y00250600D02*
Y00255800D01*
X00394200*
Y00250600*
X00401800Y00232400D02*
Y00227200D01*
X00394200*
Y00232400*
X00401800Y00235600D02*
Y00240800D01*
X00394200*
Y00235600*
X00353800Y00247400D02*
Y00242200D01*
X00346200*
Y00247400*
X00353800Y00250600D02*
Y00255800D01*
X00346200*
Y00250600*
X00371400Y00259200D02*
X00366200D01*
Y00266800*
X00371400*
X00374600Y00259200D02*
X00379800D01*
Y00266800*
X00374600*
X00401800Y00217400D02*
Y00212200D01*
X00394200*
Y00217400*
X00401800Y00220600D02*
Y00225800D01*
X00394200*
Y00220600*
X00244600Y00346800D02*
X00249800D01*
Y00339200*
X00244600*
X00241400Y00346800D02*
X00236200D01*
Y00339200*
X00241400*
X00263400D02*
X00258200D01*
Y00346800*
X00263400*
X00266600Y00339200D02*
X00271800D01*
Y00346800*
X00266600*
X00425600Y00370800D02*
X00430800D01*
Y00363200*
X00425600*
X00422400Y00370800D02*
X00417200D01*
Y00363200*
X00422400*
X00470600Y00370800D02*
X00475800D01*
Y00363200*
X00470600*
X00467400Y00370800D02*
X00462200D01*
Y00363200*
X00467400*
X00197200Y00320200D02*
X00192000D01*
Y00327800*
X00197200*
X00200400Y00320200D02*
X00205600D01*
Y00327800*
X00200400*
X00188200Y00247600D02*
Y00252800D01*
X00195800*
Y00247600*
X00188200Y00244400D02*
Y00239200D01*
X00195800*
Y00244400*
X00170400Y00150200D02*
X00165200D01*
Y00157800*
X00170400*
X00173600Y00150200D02*
X00178800D01*
Y00157800*
X00173600*
X00170400Y00160200D02*
X00165200D01*
Y00167800*
X00170400*
X00173600Y00160200D02*
X00178800D01*
Y00167800*
X00173600*
X00417000Y00361100D02*
X00422100D01*
Y00356000*
X00413000Y00361100D02*
X00407900D01*
Y00356000*
X00422100Y00350000D02*
Y00346900D01*
X00407900*
Y00350000*
X00464000Y00361100D02*
X00469100D01*
Y00356000*
X00460000Y00361100D02*
X00454900D01*
Y00356000*
X00469100Y00350000D02*
Y00346900D01*
X00454900*
Y00350000*
X00337500Y00335600D02*
Y00340800D01*
X00344500*
Y00335600*
X00337500Y00332400D02*
Y00327200D01*
X00344500*
Y00332400*
X00326500Y00325400D02*
Y00320200D01*
X00319500*
Y00325400*
X00326500Y00328600D02*
Y00333800D01*
X00319500*
Y00328600*
X00309500Y00357000D02*
X00314700D01*
Y00350000*
X00309500*
X00306300Y00357000D02*
X00301100D01*
Y00350000*
X00306300*
X00164500Y00253600D02*
Y00258800D01*
X00171500*
Y00253600*
X00164500Y00250400D02*
Y00245200D01*
X00171500*
Y00250400*
X00195500Y00269400D02*
Y00264200D01*
X00188500*
Y00269400*
X00195500Y00272600D02*
Y00277800D01*
X00188500*
Y00272600*
X00397500Y00352400D02*
Y00347200D01*
X00390500*
Y00352400*
X00397500Y00355600D02*
Y00360800D01*
X00390500*
Y00355600*
X00406500Y00375600D02*
Y00380800D01*
X00413500*
Y00375600*
X00406500Y00372400D02*
Y00367200D01*
X00413500*
Y00372400*
X00425500Y00355600D02*
Y00360800D01*
X00432500*
Y00355600*
X00425500Y00352400D02*
Y00347200D01*
X00432500*
Y00352400*
X00253500Y00244600D02*
Y00249800D01*
X00260500*
Y00244600*
X00253500Y00241400D02*
Y00236200D01*
X00260500*
Y00241400*
X00458500Y00371400D02*
Y00366200D01*
X00451500*
Y00371400*
X00458500Y00374600D02*
Y00379800D01*
X00451500*
Y00374600*
X00447600Y00358500D02*
X00452800D01*
Y00351500*
X00447600*
X00444400Y00358500D02*
X00439200D01*
Y00351500*
X00444400*
X00269500Y00241400D02*
Y00236200D01*
X00262500*
Y00241400*
X00269500Y00244600D02*
Y00249800D01*
X00262500*
Y00244600*
X00329600Y00244500D02*
X00334800D01*
Y00237500*
X00329600*
X00326400Y00244500D02*
X00321200D01*
Y00237500*
X00326400*
X00202000Y00230700D02*
Y00243000D01*
X00206000*
Y00247000*
X00202000*
Y00259300*
X00250000*
Y00230700*
X00202000*
X00367100Y00256500D02*
X00371000D01*
Y00252500*
X00375000*
Y00256500*
X00378900*
Y00213500*
X00367100*
Y00256500*
X00164500Y00272600D02*
Y00277800D01*
X00171500*
Y00272600*
X00164500Y00269400D02*
Y00264200D01*
X00171500*
Y00269400*
X00407000Y00247045D02*
X00407375Y00246909D01*
X00407750Y00246636*
X00407937Y00246363*
X00407937D02*
Y00245818D01*
X00407937D02*
X00407750Y00245545D01*
X00407375Y00245272*
X00407375D02*
X00407000Y00245136D01*
X00406437Y00245000*
X00406437D02*
X00405500D01*
X00404937Y00245136*
X00404937D02*
X00404562Y00245272D01*
X00404562D02*
X00404187Y00245545D01*
X00404187D02*
X00404000Y00245818D01*
Y00246363*
X00404000D02*
X00404187Y00246636D01*
X00404187D02*
X00404562Y00246909D01*
X00404562D02*
X00404937Y00247045D01*
X00407187Y00248272D02*
X00407375Y00248545D01*
X00407937Y00248954*
X00407937D02*
X00404000D01*
X00407937Y00251000D02*
X00407750Y00250590D01*
X00407750D02*
X00407187Y00250318D01*
X00407187D02*
X00406250Y00250181D01*
X00406250D02*
X00405687D01*
X00405687D02*
X00404750Y00250318D01*
X00404187Y00250590*
X00404187D02*
X00404000Y00251000D01*
Y00251272*
X00404000D02*
X00404187Y00251681D01*
X00404187D02*
X00404750Y00251954D01*
X00404750D02*
X00405687Y00252090D01*
X00405687D02*
X00406250D01*
X00406250D02*
X00407187Y00251954D01*
X00407187D02*
X00407750Y00251681D01*
X00407750D02*
X00407937Y00251272D01*
X00407937D02*
Y00251000D01*
X00407000Y00233045D02*
X00407375Y00232909D01*
X00407750Y00232636*
X00407937Y00232363*
X00407937D02*
Y00231818D01*
X00407937D02*
X00407750Y00231545D01*
X00407375Y00231272*
X00407375D02*
X00407000Y00231136D01*
X00406437Y00231000*
X00406437D02*
X00405500D01*
X00404937Y00231136*
X00404937D02*
X00404562Y00231272D01*
X00404562D02*
X00404187Y00231545D01*
X00404187D02*
X00404000Y00231818D01*
Y00232363*
X00404000D02*
X00404187Y00232636D01*
X00404187D02*
X00404562Y00232909D01*
X00404562D02*
X00404937Y00233045D01*
X00407187Y00234272D02*
X00407375Y00234545D01*
X00407937Y00234954*
X00407937D02*
X00404000D01*
X00407187Y00236181D02*
X00407375Y00236454D01*
X00407375D02*
X00407937Y00236863D01*
X00407937D02*
X00404000D01*
X00351000Y00261045D02*
X00351375Y00260909D01*
X00351750Y00260636*
X00351937Y00260363*
X00351937D02*
Y00259818D01*
X00351937D02*
X00351750Y00259545D01*
X00351375Y00259272*
X00351375D02*
X00351000Y00259136D01*
X00350437Y00259000*
X00350437D02*
X00349500D01*
X00348937Y00259136*
X00348937D02*
X00348562Y00259272D01*
X00348562D02*
X00348187Y00259545D01*
X00348187D02*
X00348000Y00259818D01*
Y00260363*
X00348000D02*
X00348187Y00260636D01*
X00348187D02*
X00348562Y00260909D01*
X00348562D02*
X00348937Y00261045D01*
X00351187Y00262272D02*
X00351375Y00262545D01*
X00351937Y00262954*
X00351937D02*
X00348000D01*
X00351000Y00264318D02*
X00351187D01*
X00351187D02*
X00351562Y00264454D01*
X00351562D02*
X00351750Y00264590D01*
X00351750D02*
X00351937Y00264863D01*
X00351937D02*
Y00265409D01*
X00351937D02*
X00351750Y00265681D01*
X00351750D02*
X00351562Y00265818D01*
X00351562D02*
X00351187Y00265954D01*
X00351187D02*
X00350812D01*
X00350812D02*
X00350437Y00265818D01*
X00350437D02*
X00349875Y00265545D01*
X00348000Y00264181*
X00348000D02*
Y00266090D01*
X00374954Y00273000D02*
X00375090Y00273375D01*
X00375090D02*
X00375363Y00273750D01*
X00375363D02*
X00375636Y00273937D01*
X00375636D02*
X00376181D01*
X00376181D02*
X00376454Y00273750D01*
X00376454D02*
X00376727Y00273375D01*
X00376863Y00273000*
X00376863D02*
X00377000Y00272437D01*
X00377000D02*
Y00271500D01*
X00376863Y00270937*
X00376863D02*
X00376727Y00270562D01*
X00376727D02*
X00376454Y00270187D01*
X00376454D02*
X00376181Y00270000D01*
X00376181D02*
X00375636D01*
X00375363Y00270187*
X00375363D02*
X00375090Y00270562D01*
X00375090D02*
X00374954Y00270937D01*
X00373727Y00273187D02*
X00373454Y00273375D01*
X00373454D02*
X00373045Y00273937D01*
X00373045D02*
Y00270000D01*
X00371545Y00273937D02*
X00370045D01*
X00370045D02*
X00370863Y00272437D01*
X00370863D02*
X00370454D01*
X00370454D02*
X00370181Y00272250D01*
X00370181D02*
X00370045Y00272062D01*
X00370045D02*
X00369909Y00271500D01*
Y00271125*
X00370045Y00270562*
X00370045D02*
X00370318Y00270187D01*
X00370318D02*
X00370727Y00270000D01*
X00371136*
X00371545Y00270187*
X00371545D02*
X00371681Y00270375D01*
X00371681D02*
X00371818Y00270750D01*
X00407000Y00218045D02*
X00407375Y00217909D01*
X00407750Y00217636*
X00407937Y00217363*
X00407937D02*
Y00216818D01*
X00407937D02*
X00407750Y00216545D01*
X00407375Y00216272*
X00407375D02*
X00407000Y00216136D01*
X00406437Y00216000*
X00406437D02*
X00405500D01*
X00404937Y00216136*
X00404937D02*
X00404562Y00216272D01*
X00404562D02*
X00404187Y00216545D01*
X00404187D02*
X00404000Y00216818D01*
Y00217363*
X00404000D02*
X00404187Y00217636D01*
X00404187D02*
X00404562Y00217909D01*
X00404562D02*
X00404937Y00218045D01*
X00407187Y00219272D02*
X00407375Y00219545D01*
X00407937Y00219954*
X00407937D02*
X00404000D01*
X00407937Y00222545D02*
X00405312Y00221181D01*
X00405312D02*
Y00223227D01*
X00407937Y00222545D02*
X00404000D01*
X00243954Y00336000D02*
X00244090Y00336375D01*
X00244090D02*
X00244363Y00336750D01*
X00244363D02*
X00244636Y00336937D01*
X00244636D02*
X00245181D01*
X00245181D02*
X00245454Y00336750D01*
X00245454D02*
X00245727Y00336375D01*
X00245863Y00336000*
X00245863D02*
X00246000Y00335437D01*
X00246000D02*
Y00334500D01*
X00245863Y00333937*
X00245863D02*
X00245727Y00333562D01*
X00245727D02*
X00245454Y00333187D01*
X00245454D02*
X00245181Y00333000D01*
X00245181D02*
X00244636D01*
X00244363Y00333187*
X00244363D02*
X00244090Y00333562D01*
X00244090D02*
X00243954Y00333937D01*
X00242590Y00336000D02*
Y00336187D01*
X00242590D02*
X00242454Y00336562D01*
X00242454D02*
X00242318Y00336750D01*
X00242045Y00336937*
X00242045D02*
X00241499D01*
X00241499D02*
X00241227Y00336750D01*
X00241090Y00336562*
X00241090D02*
X00240954Y00336187D01*
X00240954D02*
Y00335812D01*
X00240954D02*
X00241090Y00335437D01*
X00241090D02*
X00241363Y00334875D01*
X00241363D02*
X00242727Y00333000D01*
X00240818*
X00265954Y00336000D02*
X00266090Y00336375D01*
X00266090D02*
X00266363Y00336750D01*
X00266363D02*
X00266636Y00336937D01*
X00266636D02*
X00267181D01*
X00267181D02*
X00267454Y00336750D01*
X00267454D02*
X00267727Y00336375D01*
X00267863Y00336000*
X00267863D02*
X00267999Y00335437D01*
X00267999D02*
Y00334500D01*
X00267999D02*
X00267863Y00333937D01*
X00267863D02*
X00267727Y00333562D01*
X00267727D02*
X00267454Y00333187D01*
X00267454D02*
X00267181Y00333000D01*
X00267181D02*
X00266636D01*
X00266363Y00333187*
X00266363D02*
X00266090Y00333562D01*
X00266090D02*
X00265954Y00333937D01*
X00264454Y00336937D02*
X00262954D01*
X00262954D02*
X00263772Y00335437D01*
X00263772D02*
X00263363D01*
X00263363D02*
X00263090Y00335250D01*
X00263090D02*
X00262954Y00335062D01*
X00262954D02*
X00262818Y00334500D01*
Y00334125*
X00262954Y00333562*
X00262954D02*
X00263227Y00333187D01*
X00263227D02*
X00263636Y00333000D01*
X00264045*
X00264454Y00333187*
X00264454D02*
X00264590Y00333375D01*
X00264590D02*
X00264727Y00333750D01*
X00435954Y00372000D02*
X00436090Y00372375D01*
X00436090D02*
X00436363Y00372750D01*
X00436363D02*
X00436636Y00372937D01*
X00436636D02*
X00437181D01*
X00437181D02*
X00437454Y00372750D01*
X00437454D02*
X00437727Y00372375D01*
X00437863Y00372000*
X00437863D02*
X00438000Y00371437D01*
X00438000D02*
Y00370500D01*
X00437863Y00369937*
X00437863D02*
X00437727Y00369562D01*
X00437727D02*
X00437454Y00369187D01*
X00437454D02*
X00437181Y00369000D01*
X00437181D02*
X00436636D01*
X00436363Y00369187*
X00436363D02*
X00436090Y00369562D01*
X00436090D02*
X00435954Y00369937D01*
X00433363Y00372937D02*
X00434727Y00370312D01*
X00434727D02*
X00432681D01*
X00433363Y00372937D02*
Y00369000D01*
X00481954Y00368000D02*
X00482090Y00368375D01*
X00482090D02*
X00482363Y00368750D01*
X00482363D02*
X00482636Y00368937D01*
X00482636D02*
X00483181D01*
X00483181D02*
X00483454Y00368750D01*
X00483454D02*
X00483727Y00368375D01*
X00483863Y00368000*
X00483863D02*
X00484000Y00367437D01*
X00484000D02*
Y00366500D01*
X00483863Y00365937*
X00483863D02*
X00483727Y00365562D01*
X00483727D02*
X00483454Y00365187D01*
X00483454D02*
X00483181Y00365000D01*
X00483181D02*
X00482636D01*
X00482363Y00365187*
X00482363D02*
X00482090Y00365562D01*
X00482090D02*
X00481954Y00365937D01*
X00478954Y00368937D02*
X00480318D01*
X00480318D02*
X00480454Y00367250D01*
X00480454D02*
X00480318Y00367437D01*
X00480318D02*
X00479909Y00367625D01*
X00479499*
X00479499D02*
X00479090Y00367437D01*
X00479090D02*
X00478818Y00367062D01*
X00478818D02*
X00478681Y00366500D01*
X00478681D02*
X00478818Y00366125D01*
X00478954Y00365562*
X00478954D02*
X00479227Y00365187D01*
X00479227D02*
X00479636Y00365000D01*
X00480045*
X00480454Y00365187*
X00480454D02*
X00480590Y00365375D01*
X00480590D02*
X00480727Y00365750D01*
X00199954Y00333999D02*
X00200090Y00334374D01*
X00200090D02*
X00200363Y00334749D01*
X00200363D02*
X00200636Y00334937D01*
X00201181*
X00201181D02*
X00201454Y00334749D01*
X00201454D02*
X00201727Y00334374D01*
X00201727D02*
X00201863Y00333999D01*
X00201863D02*
X00202000Y00333437D01*
Y00332499*
X00202000D02*
X00201863Y00331937D01*
X00201863D02*
X00201727Y00331562D01*
X00201454Y00331187*
X00201454D02*
X00201181Y00330999D01*
X00201181D02*
X00200636D01*
X00200636D02*
X00200363Y00331187D01*
X00200363D02*
X00200090Y00331562D01*
X00200090D02*
X00199954Y00331937D01*
X00197090Y00334374D02*
X00197227Y00334749D01*
X00197227D02*
X00197636Y00334937D01*
X00197909*
X00198318Y00334749*
X00198318D02*
X00198590Y00334187D01*
X00198590D02*
X00198727Y00333249D01*
X00198727D02*
Y00332312D01*
X00198590Y00331562*
X00198590D02*
X00198318Y00331187D01*
X00197909Y00330999*
X00197909D02*
X00197772D01*
X00197772D02*
X00197363Y00331187D01*
X00197363D02*
X00197090Y00331562D01*
X00197090D02*
X00196954Y00332124D01*
X00196954D02*
Y00332312D01*
X00196954D02*
X00197090Y00332874D01*
X00197090D02*
X00197363Y00333249D01*
X00197363D02*
X00197772Y00333437D01*
X00197772D02*
X00197909D01*
X00198318Y00333249*
X00198318D02*
X00198590Y00332874D01*
X00198590D02*
X00198727Y00332312D01*
X00192000Y00258045D02*
X00192375Y00257909D01*
X00192750Y00257636*
X00192937Y00257363*
X00192937D02*
Y00256818D01*
X00192937D02*
X00192750Y00256545D01*
X00192375Y00256272*
X00192375D02*
X00192000Y00256136D01*
X00191437Y00256000*
X00191437D02*
X00190500D01*
X00189937Y00256136*
X00189937D02*
X00189562Y00256272D01*
X00189562D02*
X00189187Y00256545D01*
X00189187D02*
X00189000Y00256818D01*
Y00257363*
X00189000D02*
X00189187Y00257636D01*
X00189187D02*
X00189562Y00257909D01*
X00189562D02*
X00189937Y00258045D01*
X00192937Y00261181D02*
X00189000Y00259818D01*
X00192937Y00259272D02*
Y00261181D01*
X00159954Y00155000D02*
X00160090Y00155375D01*
X00160090D02*
X00160363Y00155750D01*
X00160363D02*
X00160636Y00155937D01*
X00160636D02*
X00161181D01*
X00161181D02*
X00161454Y00155750D01*
X00161454D02*
X00161727Y00155375D01*
X00161863Y00155000*
X00161863D02*
X00162000Y00154437D01*
X00162000D02*
Y00153500D01*
X00161863Y00152937*
X00161863D02*
X00161727Y00152562D01*
X00161727D02*
X00161454Y00152187D01*
X00161454D02*
X00161181Y00152000D01*
X00161181D02*
X00160636D01*
X00160363Y00152187*
X00160363D02*
X00160090Y00152562D01*
X00160090D02*
X00159954Y00152937D01*
X00158045Y00155937D02*
X00158454Y00155750D01*
X00158454D02*
X00158590Y00155375D01*
X00158590D02*
Y00155000D01*
X00158590D02*
X00158454Y00154625D01*
X00158454D02*
X00158181Y00154437D01*
X00158181D02*
X00157636Y00154250D01*
X00157227Y00154062*
X00157227D02*
X00156954Y00153687D01*
X00156954D02*
X00156818Y00153312D01*
X00156818D02*
Y00152750D01*
X00156954Y00152375*
X00156954D02*
X00157090Y00152187D01*
X00157090D02*
X00157499Y00152000D01*
X00157499D02*
X00158045D01*
X00158454Y00152187*
X00158454D02*
X00158590Y00152375D01*
X00158590D02*
X00158727Y00152750D01*
Y00153312*
X00158727D02*
X00158590Y00153687D01*
X00158590D02*
X00158318Y00154062D01*
X00158318D02*
X00157909Y00154250D01*
X00157363Y00154437*
X00157363D02*
X00157090Y00154625D01*
X00157090D02*
X00156954Y00155000D01*
X00156954D02*
Y00155375D01*
X00156954D02*
X00157090Y00155750D01*
X00157090D02*
X00157499Y00155937D01*
X00157499D02*
X00158045D01*
X00159954Y00165000D02*
X00160090Y00165375D01*
X00160090D02*
X00160363Y00165750D01*
X00160363D02*
X00160636Y00165937D01*
X00160636D02*
X00161181D01*
X00161181D02*
X00161454Y00165750D01*
X00161454D02*
X00161727Y00165375D01*
X00161863Y00165000*
X00161863D02*
X00162000Y00164437D01*
X00162000D02*
Y00163500D01*
X00161863Y00162937*
X00161863D02*
X00161727Y00162562D01*
X00161727D02*
X00161454Y00162187D01*
X00161454D02*
X00161181Y00162000D01*
X00161181D02*
X00160636D01*
X00160363Y00162187*
X00160363D02*
X00160090Y00162562D01*
X00160090D02*
X00159954Y00162937D01*
X00156954Y00164625D02*
X00157090Y00164062D01*
X00157090D02*
X00157363Y00163687D01*
X00157363D02*
X00157772Y00163500D01*
X00157772D02*
X00157909D01*
X00158318Y00163687*
X00158318D02*
X00158590Y00164062D01*
X00158590D02*
X00158727Y00164625D01*
Y00164812*
X00158727D02*
X00158590Y00165375D01*
X00158590D02*
X00158318Y00165750D01*
X00157909Y00165937*
X00157909D02*
X00157772D01*
X00157772D02*
X00157363Y00165750D01*
X00157363D02*
X00157090Y00165375D01*
X00157090D02*
X00156954Y00164625D01*
X00156954D02*
Y00163687D01*
X00156954D02*
X00157090Y00162750D01*
X00157090D02*
X00157363Y00162187D01*
X00157363D02*
X00157772Y00162000D01*
X00157772D02*
X00158045D01*
X00158454Y00162187*
X00158454D02*
X00158590Y00162562D01*
X00238000Y00432937D02*
Y00429000D01*
Y00432937D02*
X00236909Y00429000D01*
X00235818Y00432937D02*
X00236909Y00429000D01*
X00235818Y00432937D02*
Y00429000D01*
X00232818Y00432937D02*
X00234181D01*
X00234181D02*
X00234318Y00431250D01*
X00234181Y00431437*
X00234181D02*
X00233772Y00431625D01*
X00233772D02*
X00233363D01*
X00233363D02*
X00232954Y00431437D01*
X00232954D02*
X00232681Y00431062D01*
X00232681D02*
X00232545Y00430500D01*
X00232681Y00430125*
X00232681D02*
X00232818Y00429562D01*
X00232818D02*
X00233090Y00429187D01*
X00233090D02*
X00233499Y00429000D01*
X00233499D02*
X00233909D01*
X00234318Y00429187*
X00234318D02*
X00234454Y00429375D01*
X00234454D02*
X00234590Y00429750D01*
X00472000Y00151937D02*
Y00148000D01*
Y00151937D02*
X00470909Y00148000D01*
X00469818Y00151937D02*
X00470909Y00148000D01*
X00469818Y00151937D02*
Y00148000D01*
X00466954Y00151375D02*
X00467090Y00151750D01*
X00467090D02*
X00467499Y00151937D01*
X00467499D02*
X00467772D01*
X00467772D02*
X00468181Y00151750D01*
X00468181D02*
X00468454Y00151187D01*
X00468454D02*
X00468590Y00150250D01*
X00468590D02*
Y00149312D01*
X00468590D02*
X00468454Y00148562D01*
X00468454D02*
X00468181Y00148187D01*
X00468181D02*
X00467772Y00148000D01*
X00467772D02*
X00467636D01*
X00467227Y00148187*
X00467227D02*
X00466954Y00148562D01*
X00466954D02*
X00466818Y00149125D01*
Y00149312*
X00466818D02*
X00466954Y00149875D01*
X00466954D02*
X00467227Y00150250D01*
X00467636Y00150437*
X00467636D02*
X00467772D01*
X00467772D02*
X00468181Y00150250D01*
X00468181D02*
X00468454Y00149875D01*
X00468454D02*
X00468590Y00149312D01*
X00405937Y00352818D02*
X00405750Y00352545D01*
X00405375Y00352272*
X00405375D02*
X00405000Y00352136D01*
X00404437Y00352000*
X00404437D02*
X00403500D01*
X00402937Y00352136*
X00402937D02*
X00402562Y00352272D01*
X00402562D02*
X00402187Y00352545D01*
X00402187D02*
X00402000Y00352818D01*
Y00353363*
X00402000D02*
X00402187Y00353636D01*
X00402187D02*
X00402562Y00353909D01*
X00402562D02*
X00402937Y00354045D01*
X00402937D02*
X00403500Y00354181D01*
X00403500D02*
X00404437D01*
X00404437D02*
X00405000Y00354045D01*
X00405375Y00353909*
X00405750Y00353636*
X00405937Y00353363*
X00405937D02*
Y00352818D01*
X00402750Y00353227D02*
X00401625Y00354045D01*
X00405187Y00355409D02*
X00405375Y00355681D01*
X00405375D02*
X00405937Y00356090D01*
X00405937D02*
X00402000D01*
X00469937Y00339818D02*
X00469749Y00339545D01*
X00469749D02*
X00469374Y00339272D01*
X00469374D02*
X00468999Y00339136D01*
X00468999D02*
X00468437Y00339000D01*
X00467499*
X00467499D02*
X00466937Y00339136D01*
X00466562Y00339272*
X00466562D02*
X00466187Y00339545D01*
X00465999Y00339818*
X00465999D02*
Y00340363D01*
X00465999D02*
X00466187Y00340636D01*
X00466562Y00340909*
X00466937Y00341045*
X00467499Y00341181*
X00467499D02*
X00468437D01*
X00468437D02*
X00468999Y00341045D01*
X00468999D02*
X00469374Y00340909D01*
X00469374D02*
X00469749Y00340636D01*
X00469749D02*
X00469937Y00340363D01*
X00469937D02*
Y00339818D01*
X00466749Y00340227D02*
X00465624Y00341045D01*
X00468999Y00342545D02*
X00469187D01*
X00469562Y00342681*
X00469562D02*
X00469749Y00342818D01*
X00469749D02*
X00469937Y00343090D01*
X00469937D02*
Y00343636D01*
X00469749Y00343909*
X00469749D02*
X00469562Y00344045D01*
X00469187Y00344181*
X00469187D02*
X00468812D01*
X00468812D02*
X00468437Y00344045D01*
X00467874Y00343772*
X00467874D02*
X00465999Y00342409D01*
X00465999D02*
Y00344318D01*
X00342937Y00344000D02*
X00339000D01*
X00342937D02*
Y00345227D01*
X00342937D02*
X00342750Y00345636D01*
X00342562Y00345772*
X00342562D02*
X00342187Y00345909D01*
X00342187D02*
X00341812D01*
X00341812D02*
X00341437Y00345772D01*
X00341437D02*
X00341250Y00345636D01*
X00341062Y00345227*
X00341062D02*
Y00344000D01*
Y00344954D02*
X00339000Y00345909D01*
X00342187Y00347136D02*
X00342375Y00347409D01*
X00342937Y00347818*
X00342937D02*
X00339000D01*
X00323937Y00338000D02*
X00320000D01*
X00323937D02*
Y00339227D01*
X00323937D02*
X00323750Y00339636D01*
X00323562Y00339772*
X00323562D02*
X00323187Y00339909D01*
X00323187D02*
X00322812D01*
X00322812D02*
X00322437Y00339772D01*
X00322437D02*
X00322250Y00339636D01*
X00322062Y00339227*
X00322062D02*
Y00338000D01*
Y00338954D02*
X00320000Y00339909D01*
X00323187Y00341136D02*
X00323375Y00341409D01*
X00323937Y00341818*
X00323937D02*
X00320000D01*
X00323937Y00343863D02*
X00323750Y00343454D01*
X00323750D02*
X00323187Y00343181D01*
X00323187D02*
X00322250Y00343045D01*
X00321687*
X00321687D02*
X00320750Y00343181D01*
X00320750D02*
X00320187Y00343454D01*
X00320187D02*
X00320000Y00343863D01*
X00320000D02*
Y00344136D01*
X00320187Y00344545*
X00320187D02*
X00320750Y00344818D01*
X00321687Y00344954*
X00321687D02*
X00322250D01*
X00322250D02*
X00323187Y00344818D01*
X00323187D02*
X00323750Y00344545D01*
X00323937Y00344136*
X00323937D02*
Y00343863D01*
X00324000Y00354937D02*
Y00351000D01*
Y00354937D02*
X00322772D01*
X00322772D02*
X00322363Y00354750D01*
X00322363D02*
X00322227Y00354562D01*
X00322227D02*
X00322090Y00354187D01*
X00322090D02*
Y00353812D01*
X00322090D02*
X00322227Y00353437D01*
X00322227D02*
X00322363Y00353250D01*
X00322363D02*
X00322772Y00353062D01*
X00322772D02*
X00324000D01*
X00323045D02*
X00322090Y00351000D01*
X00320863Y00354187D02*
X00320590Y00354375D01*
X00320590D02*
X00320181Y00354937D01*
X00320181D02*
Y00351000D01*
X00318954Y00354187D02*
X00318681Y00354375D01*
X00318681D02*
X00318272Y00354937D01*
X00318272D02*
Y00351000D01*
X00177937Y00248000D02*
X00173999D01*
X00177937D02*
Y00249227D01*
X00177749Y00249636*
X00177749D02*
X00177562Y00249772D01*
X00177562D02*
X00177187Y00249909D01*
X00176812*
X00176437Y00249772*
X00176437D02*
X00176249Y00249636D01*
X00176249D02*
X00176062Y00249227D01*
Y00248000*
Y00248954D02*
X00173999Y00249909D01*
X00177187Y00251136D02*
X00177374Y00251409D01*
X00177374D02*
X00177937Y00251818D01*
X00173999*
X00176999Y00253181D02*
X00177187D01*
X00177187D02*
X00177562Y00253318D01*
X00177749Y00253454*
X00177749D02*
X00177937Y00253727D01*
Y00254272*
X00177937D02*
X00177749Y00254545D01*
X00177749D02*
X00177562Y00254681D01*
X00177562D02*
X00177187Y00254818D01*
X00176812*
X00176437Y00254681*
X00176437D02*
X00175874Y00254409D01*
X00175874D02*
X00173999Y00253045D01*
X00173999D02*
Y00254954D01*
X00193937Y00280000D02*
X00190000D01*
X00193937D02*
Y00281227D01*
X00193937D02*
X00193750Y00281636D01*
X00193562Y00281772*
X00193562D02*
X00193187Y00281909D01*
X00193187D02*
X00192812D01*
X00192812D02*
X00192437Y00281772D01*
X00192437D02*
X00192250Y00281636D01*
X00192062Y00281227*
X00192062D02*
Y00280000D01*
Y00280954D02*
X00190000Y00281909D01*
X00193187Y00283136D02*
X00193375Y00283409D01*
X00193937Y00283818*
X00193937D02*
X00190000D01*
X00193937Y00285318D02*
Y00286818D01*
X00193937D02*
X00192437Y00286000D01*
X00192437D02*
Y00286409D01*
X00192437D02*
X00192250Y00286681D01*
X00192250D02*
X00192062Y00286818D01*
X00192062D02*
X00191500Y00286954D01*
X00191500D02*
X00191125D01*
X00191125D02*
X00190562Y00286818D01*
X00190562D02*
X00190187Y00286545D01*
X00190187D02*
X00190000Y00286136D01*
Y00285727*
X00190187Y00285318*
X00190187D02*
X00190375Y00285181D01*
X00190375D02*
X00190750Y00285045D01*
X00395937Y00364000D02*
X00392000D01*
X00395937D02*
Y00365227D01*
X00395937D02*
X00395750Y00365636D01*
X00395562Y00365772*
X00395562D02*
X00395187Y00365909D01*
X00395187D02*
X00394812D01*
X00394812D02*
X00394437Y00365772D01*
X00394437D02*
X00394250Y00365636D01*
X00394062Y00365227*
X00394062D02*
Y00364000D01*
Y00364954D02*
X00392000Y00365909D01*
X00395000Y00367272D02*
X00395187D01*
X00395187D02*
X00395562Y00367409D01*
X00395562D02*
X00395750Y00367545D01*
X00395937Y00367818*
X00395937D02*
Y00368363D01*
X00395937D02*
X00395750Y00368636D01*
X00395562Y00368772*
X00395562D02*
X00395187Y00368909D01*
X00395187D02*
X00394812D01*
X00394812D02*
X00394437Y00368772D01*
X00394437D02*
X00393875Y00368500D01*
X00392000Y00367136*
Y00369045*
X00411937Y00384000D02*
X00408000D01*
X00411937D02*
Y00385227D01*
X00411937D02*
X00411750Y00385636D01*
X00411562Y00385772*
X00411562D02*
X00411187Y00385909D01*
X00411187D02*
X00410812D01*
X00410812D02*
X00410437Y00385772D01*
X00410437D02*
X00410250Y00385636D01*
X00410062Y00385227*
X00410062D02*
Y00384000D01*
Y00384954D02*
X00408000Y00385909D01*
X00411937Y00387409D02*
Y00388909D01*
X00411937D02*
X00410437Y00388090D01*
X00410437D02*
Y00388500D01*
X00410437D02*
X00410250Y00388772D01*
X00410250D02*
X00410062Y00388909D01*
X00410062D02*
X00409500Y00389045D01*
X00409125*
X00408562Y00388909*
X00408562D02*
X00408187Y00388636D01*
X00408187D02*
X00408000Y00388227D01*
Y00387818*
X00408187Y00387409*
X00408187D02*
X00408375Y00387272D01*
X00408375D02*
X00408750Y00387136D01*
X00437937Y00352000D02*
X00433999D01*
X00437937D02*
Y00353227D01*
X00437749Y00353636*
X00437749D02*
X00437562Y00353772D01*
X00437562D02*
X00437187Y00353909D01*
X00436812*
X00436437Y00353772*
X00436437D02*
X00436249Y00353636D01*
X00436249D02*
X00436062Y00353227D01*
Y00352000*
Y00352954D02*
X00433999Y00353909D01*
X00437937Y00356500D02*
X00435312Y00355136D01*
Y00357181*
X00437937Y00356500D02*
X00433999D01*
X00258937Y00253000D02*
X00255000D01*
X00258937D02*
Y00254227D01*
X00258937D02*
X00258750Y00254636D01*
X00258562Y00254772*
X00258562D02*
X00258187Y00254909D01*
X00258187D02*
X00257812D01*
X00257812D02*
X00257437Y00254772D01*
X00257437D02*
X00257250Y00254636D01*
X00257062Y00254227*
X00257062D02*
Y00253000D01*
Y00253954D02*
X00255000Y00254909D01*
X00258937Y00257909D02*
Y00256545D01*
X00258937D02*
X00257250Y00256409D01*
X00257437Y00256545*
X00257437D02*
X00257625Y00256954D01*
X00257625D02*
Y00257363D01*
X00257625D02*
X00257437Y00257772D01*
X00257437D02*
X00257062Y00258045D01*
X00257062D02*
X00256500Y00258181D01*
X00256500D02*
X00256125Y00258045D01*
X00255562Y00257909*
X00255562D02*
X00255187Y00257636D01*
X00255187D02*
X00255000Y00257227D01*
Y00256818*
X00255187Y00256409*
X00255187D02*
X00255375Y00256272D01*
X00255375D02*
X00255750Y00256136D01*
X00456937Y00383000D02*
X00453000D01*
X00456937D02*
Y00384227D01*
X00456937D02*
X00456750Y00384636D01*
X00456562Y00384772*
X00456562D02*
X00456187Y00384909D01*
X00456187D02*
X00455812D01*
X00455812D02*
X00455437Y00384772D01*
X00455437D02*
X00455250Y00384636D01*
X00455062Y00384227*
X00455062D02*
Y00383000D01*
Y00383954D02*
X00453000Y00384909D01*
X00456375Y00387772D02*
X00456750Y00387636D01*
X00456937Y00387227*
X00456937D02*
Y00386954D01*
X00456937D02*
X00456750Y00386545D01*
X00456187Y00386272*
X00456187D02*
X00455250Y00386136D01*
X00454312*
X00454312D02*
X00453562Y00386272D01*
X00453562D02*
X00453187Y00386545D01*
X00453187D02*
X00453000Y00386954D01*
X00453000D02*
Y00387090D01*
X00453000D02*
X00453187Y00387500D01*
X00453187D02*
X00453562Y00387772D01*
X00453562D02*
X00454125Y00387909D01*
X00454312*
X00454312D02*
X00454875Y00387772D01*
X00454875D02*
X00455250Y00387500D01*
X00455437Y00387090*
X00455437D02*
Y00386954D01*
X00455437D02*
X00455250Y00386545D01*
X00454875Y00386272*
X00454875D02*
X00454312Y00386136D01*
X00449000Y00363937D02*
Y00360000D01*
Y00363937D02*
X00447772D01*
X00447772D02*
X00447363Y00363750D01*
X00447363D02*
X00447227Y00363562D01*
X00447227D02*
X00447090Y00363187D01*
X00447090D02*
Y00362812D01*
X00447090D02*
X00447227Y00362437D01*
X00447227D02*
X00447363Y00362250D01*
X00447363D02*
X00447772Y00362062D01*
X00447772D02*
X00449000D01*
X00448045D02*
X00447090Y00360000D01*
X00443954Y00363937D02*
X00445318Y00360000D01*
X00445863Y00363937D02*
X00443954D01*
X00267937Y00253000D02*
X00264000D01*
X00267937D02*
Y00254227D01*
X00267937D02*
X00267750Y00254636D01*
X00267562Y00254772*
X00267562D02*
X00267187Y00254909D01*
X00267187D02*
X00266812D01*
X00266812D02*
X00266437Y00254772D01*
X00266437D02*
X00266250Y00254636D01*
X00266062Y00254227*
X00266062D02*
Y00253000D01*
Y00253954D02*
X00264000Y00254909D01*
X00267937Y00256818D02*
X00267750Y00256409D01*
X00267375Y00256272*
X00267375D02*
X00267000D01*
X00267000D02*
X00266625Y00256409D01*
X00266437Y00256681*
X00266437D02*
X00266250Y00257227D01*
X00266062Y00257636*
X00266062D02*
X00265687Y00257909D01*
X00265687D02*
X00265312Y00258045D01*
X00265312D02*
X00264750D01*
X00264375Y00257909*
X00264187Y00257772*
X00264187D02*
X00264000Y00257363D01*
X00264000D02*
Y00256818D01*
X00264187Y00256409*
X00264187D02*
X00264375Y00256272D01*
X00264375D02*
X00264750Y00256136D01*
X00265312*
X00265312D02*
X00265687Y00256272D01*
X00265687D02*
X00266062Y00256545D01*
X00266062D02*
X00266250Y00256954D01*
X00266250D02*
X00266437Y00257500D01*
X00266437D02*
X00266625Y00257772D01*
X00266625D02*
X00267000Y00257909D01*
X00267375*
X00267750Y00257772*
X00267750D02*
X00267937Y00257363D01*
X00267937D02*
Y00256818D01*
X00331000Y00250937D02*
Y00247000D01*
Y00250937D02*
X00329772D01*
X00329772D02*
X00329363Y00250750D01*
X00329363D02*
X00329227Y00250562D01*
X00329227D02*
X00329090Y00250187D01*
X00329090D02*
Y00249812D01*
X00329090D02*
X00329227Y00249437D01*
X00329227D02*
X00329363Y00249250D01*
X00329363D02*
X00329772Y00249062D01*
X00329772D02*
X00331000D01*
X00330045D02*
X00329090Y00247000D01*
X00326090Y00249625D02*
X00326227Y00249062D01*
X00326227D02*
X00326499Y00248687D01*
X00326499D02*
X00326909Y00248500D01*
X00327045*
X00327454Y00248687*
X00327454D02*
X00327727Y00249062D01*
X00327727D02*
X00327863Y00249625D01*
X00327863D02*
Y00249812D01*
X00327863D02*
X00327727Y00250375D01*
X00327454Y00250750*
X00327454D02*
X00327045Y00250937D01*
X00327045D02*
X00326909D01*
X00326909D02*
X00326499Y00250750D01*
X00326499D02*
X00326227Y00250375D01*
X00326090Y00249625*
X00326090D02*
Y00248687D01*
X00326090D02*
X00326227Y00247750D01*
X00326499Y00247187*
X00326499D02*
X00326909Y00247000D01*
X00327181*
X00327181D02*
X00327590Y00247187D01*
X00327590D02*
X00327727Y00247562D01*
X00208062Y00247000D02*
X00210875D01*
X00211437Y00246863*
X00211437D02*
X00211812Y00246590D01*
X00211812D02*
X00212000Y00246181D01*
X00212000D02*
Y00245909D01*
X00211812Y00245499*
X00211812D02*
X00211437Y00245227D01*
X00211437D02*
X00210875Y00245090D01*
X00210875D02*
X00208062D01*
Y00243590D02*
Y00242090D01*
X00208062D02*
X00209562Y00242909D01*
X00209562D02*
Y00242499D01*
X00209562D02*
X00209750Y00242227D01*
X00209937Y00242090*
X00209937D02*
X00210500Y00241954D01*
X00210500D02*
X00210875D01*
X00210875D02*
X00211437Y00242090D01*
X00211437D02*
X00211812Y00242363D01*
X00211812D02*
X00212000Y00242772D01*
X00212000D02*
Y00243181D01*
X00212000D02*
X00211812Y00243590D01*
X00211812D02*
X00211625Y00243727D01*
X00211250Y00243863*
X00375000Y00249937D02*
Y00247125D01*
X00374863Y00246562*
X00374863D02*
X00374590Y00246187D01*
X00374590D02*
X00374181Y00246000D01*
X00374181D02*
X00373909D01*
X00373499Y00246187*
X00373499D02*
X00373227Y00246562D01*
X00373227D02*
X00373090Y00247125D01*
X00373090D02*
Y00249937D01*
X00370499D02*
X00371863Y00247312D01*
X00371863D02*
X00369818D01*
X00370499Y00249937D02*
Y00246000D01*
X00177937Y00268000D02*
X00174000D01*
X00177937D02*
Y00269227D01*
X00177937D02*
X00177750Y00269636D01*
X00177562Y00269772*
X00177562D02*
X00177187Y00269909D01*
X00177187D02*
X00176812D01*
X00176812D02*
X00176437Y00269772D01*
X00176437D02*
X00176250Y00269636D01*
X00176062Y00269227*
X00176062D02*
Y00268000D01*
Y00268954D02*
X00174000Y00269909D01*
X00177187Y00271136D02*
X00177375Y00271409D01*
X00177937Y00271818*
X00177937D02*
X00174000D01*
X00177937Y00274409D02*
X00175312Y00273045D01*
X00175312D02*
Y00275090D01*
X00177937Y00274409D02*
X00174000D01*
G74*
X00000000Y00000000D02*
M02*
