*
*
G04 PowerPCB (Build Number 500.281.2.20) generated Gerber (RS-274-X) file*
G04 PC Version=2.1*
*
%IN "Untitled"*%
*
%MOIN*%
*
%FSLAX35Y35*%
*
*
*
*
G04 PC Standard Apertures*
*
*
G04 Thermal Relief Aperture macro.*
%AMTER*
1,1,$1,0,0*
1,0,$1-$2,0,0*
21,0,$3,$4,0,0,45*
21,0,$3,$4,0,0,135*
%
*
*
G04 Annular Aperture macro.*
%AMANN*
1,1,$1,0,0*
1,0,$2,0,0*
%
*
*
G04 Odd Aperture macro.*
%AMODD*
1,1,$1,0,0*
1,0,$1-0.005,0,0*
%
*
*
G04 PC Custom Aperture Macros*
*
*
*
*
*
*
G04 PC Aperture Table*
*
%ADD010R,0.039X0.039*%
%ADD011C,0.06*%
%ADD012R,0.07X0.07*%
%ADD013C,0.23622*%
%ADD014C,0.05*%
%ADD017C,0.02*%
%ADD020C,0.012*%
%ADD022C,0.055*%
%ADD023C,0.007*%
%ADD025C,0.01*%
%ADD040R,0.06X0.06*%
%ADD041C,0.08*%
%ADD042C,0.045*%
%ADD043C,0.14*%
%ADD044C,0.08268*%
%ADD045C,0.177*%
%ADD046C,0.081*%
%ADD047R,0.04X0.04*%
%ADD048C,0.1*%
%ADD049C,0.09*%
%ADD050C,0.17717*%
%ADD051C,0.025*%
*
*
*
*
G04 PC Custom Flashes*
G04 Layer Name Untitled - flashes*
%LPD*%
*
*
G04 PC Circuitry*
G04 Layer Name Untitled - circuitry*
%LPD*%
*
G54D10*
G01X00397150Y00245200D02*
X00398850D01*
X00397150Y00252800D02*
X00398850D01*
X00397150Y00230200D02*
X00398850D01*
X00397150Y00237800D02*
X00398850D01*
X00349150Y00245200D02*
X00350850D01*
X00349150Y00252800D02*
X00350850D01*
X00369200Y00263850D02*
Y00262150D01*
X00376800Y00263850D02*
Y00262150D01*
X00397150Y00215200D02*
X00398850D01*
X00397150Y00222800D02*
X00398850D01*
X00246800Y00342150D02*
Y00343850D01*
X00239200Y00342150D02*
Y00343850D01*
X00261200D02*
Y00342150D01*
X00268800Y00343850D02*
Y00342150D01*
X00427800Y00366150D02*
Y00367850D01*
X00420200Y00366150D02*
Y00367850D01*
X00472800Y00366150D02*
Y00367850D01*
X00465200Y00366150D02*
Y00367850D01*
X00195000Y00324850D02*
Y00323150D01*
X00202600Y00324850D02*
Y00323150D01*
X00192850Y00249800D02*
X00191150D01*
X00192850Y00242200D02*
X00191150D01*
X00168200Y00154850D02*
Y00153150D01*
X00175800Y00154850D02*
Y00153150D01*
X00168200Y00164850D02*
Y00163150D01*
X00175800Y00164850D02*
Y00163150D01*
X00341600Y00337800D02*
X00340400D01*
X00341600Y00330200D02*
X00340400D01*
X00322400Y00323200D02*
X00323600D01*
X00322400Y00330800D02*
X00323600D01*
X00311700Y00352900D02*
Y00354100D01*
X00304100Y00352900D02*
Y00354100D01*
X00168600Y00255800D02*
X00167400D01*
X00168600Y00248200D02*
X00167400D01*
X00191400Y00267200D02*
X00192600D01*
X00191400Y00274800D02*
X00192600D01*
X00393400Y00350200D02*
X00394600D01*
X00393400Y00357800D02*
X00394600D01*
X00410600Y00377800D02*
X00409400D01*
X00410600Y00370200D02*
X00409400D01*
X00429600Y00357800D02*
X00428400D01*
X00429600Y00350200D02*
X00428400D01*
X00257600Y00246800D02*
X00256400D01*
X00257600Y00239200D02*
X00256400D01*
X00454400Y00369200D02*
X00455600D01*
X00454400Y00376800D02*
X00455600D01*
X00449800Y00354400D02*
Y00355600D01*
X00442200Y00354400D02*
Y00355600D01*
X00265400Y00239200D02*
X00266600D01*
X00265400Y00246800D02*
X00266600D01*
X00331800Y00240400D02*
Y00241600D01*
X00324200Y00240400D02*
Y00241600D01*
X00168600Y00274800D02*
X00167400D01*
X00168600Y00267200D02*
X00167400D01*
G54D11*
X00162000Y00360000D03*
X00136500Y00388000D03*
X00171500D03*
X00183000Y00144141D03*
Y00163858D03*
G54D12*
X00194000Y00311500D03*
X00204000D03*
X00214000D03*
X00224000D03*
X00234000D03*
X00244000D03*
X00254000D03*
X00264000D03*
X00274000D03*
X00284000D03*
X00294000D03*
X00304000D03*
X00314000D03*
X00324000D03*
X00334000D03*
X00344000D03*
G54D13*
X00140000Y00140000D03*
X00500000D03*
Y00420000D03*
X00140000D03*
G54D14*
X00235000D03*
X00470000Y00140000D03*
G54D17*
X00398000Y00215200D02*
X00406000Y00223200D01*
Y00269000*
X00133500Y00294000D02*
X00176500D01*
X00194000Y00311500*
Y00317600*
X00195000Y00318600*
Y00324000*
X00192000Y00249800D02*
X00217800D01*
X00226000Y00258000*
X00192000Y00249800D02*
X00178200D01*
X00176000Y00252000*
X00226000Y00258000D02*
Y00264500D01*
X00277000Y00253000D02*
X00231000D01*
X00226000Y00258000*
X00277000Y00253000D02*
X00290600D01*
X00344000Y00306400*
Y00311500*
X00204000D02*
Y00317400D01*
X00202600Y00318800*
Y00324000*
X00266000Y00246800D02*
X00299800D01*
X00350000Y00297000*
Y00330200*
X00344000Y00311500D02*
Y00316600D01*
X00333600Y00327000*
X00330000*
X00331800Y00241000D02*
Y00241600D01*
X00343000Y00252800*
X00350000*
Y00268000*
Y00245200D02*
X00354999D01*
X00354999D02*
X00355000D01*
Y00246499*
X00355000D02*
X00356000Y00247500D01*
X00362300*
X00406000Y00269000D02*
X00463000D01*
X00488000Y00294000*
Y00329000*
X00362300Y00252500D02*
X00355500D01*
X00355200Y00252800*
X00350000*
X00362300Y00247500D02*
X00367999D01*
X00367999D02*
X00369200Y00248700D01*
Y00263000*
Y00269000*
X00406000*
X00244000Y00327800D02*
Y00337350D01*
X00239200Y00342150*
Y00343000*
X00264000Y00327800D02*
Y00337350D01*
X00268800Y00342150*
Y00343000*
Y00343850*
X00281800Y00356850*
Y00372700*
X00295400Y00386300*
X00298000*
X00350000Y00330200D02*
X00373200D01*
X00385000Y00342000*
Y00349400*
X00393400Y00357800*
X00394000*
X00319000Y00327000D02*
X00315000Y00331000D01*
Y00333000*
X00308000Y00340000*
X00311700Y00353500D02*
Y00375300D01*
X00300700Y00386300*
X00298000*
X00323000Y00330800D02*
X00322400D01*
X00316800Y00336400*
Y00342100*
X00311700Y00347200*
Y00353500*
X00341000Y00330200D02*
X00332300D01*
X00331700Y00330800*
X00323000*
X00341000Y00330200D02*
X00350000D01*
X00472800Y00367850D02*
X00476300Y00371350D01*
Y00386000*
X00475600Y00386700*
X00433300*
X00431000Y00389000*
X00404255*
X00404255D02*
X00395346Y00397909D01*
X00472500Y00358500D02*
X00473000Y00359000D01*
Y00367000*
X00472800*
X00466000Y00358000D02*
X00472000D01*
X00472500Y00358500*
X00488000Y00329000D02*
Y00343000D01*
X00472500Y00358500*
X00472800Y00367000D02*
Y00367850D01*
G54D20*
X00183000Y00132300D02*
X00158700D01*
X00155000Y00136000*
Y00154000*
X00144000Y00165000*
Y00201000*
X00155000Y00212000*
X00183000Y00132300D02*
X00188800D01*
X00207197Y00150697*
X00236000*
X00183000Y00135300D02*
X00159700D01*
X00158000Y00137000*
Y00155000*
X00147000Y00166000*
Y00197000*
X00154000Y00204000*
X00156000*
X00160000Y00208000*
Y00217000*
X00155000Y00222000*
X00183000Y00135300D02*
X00201700Y00154000D01*
X00216000*
X00222000Y00160000*
X00230000*
X00183000Y00144141D02*
X00221000Y00182141D01*
X00221000D02*
Y00225500D01*
X00183000Y00144141D02*
X00179000Y00148141D01*
X00179000D02*
Y00149950D01*
X00175800Y00153150*
Y00154000*
X00168200D02*
Y00164000D01*
X00236000Y00150697D02*
X00312697D01*
X00322000Y00160000*
X00330000*
X00236000Y00150697D02*
Y00225500D01*
X00177141Y00163858D02*
X00179000D01*
Y00163999*
X00179000D02*
X00178999Y00164000D01*
X00178999D02*
X00177141D01*
X00179000Y00163858D02*
X00183000D01*
X00177141Y00164000D02*
X00175800D01*
X00183000Y00163858D02*
X00216000Y00196858D01*
Y00225500*
X00155000Y00232000D02*
X00161000Y00238000D01*
Y00241800*
X00167400Y00248200*
X00168000*
X00155000Y00182000D02*
X00160000Y00187000D01*
Y00192000*
X00174000Y00206000*
X00197000*
X00211000Y00220000*
Y00225500*
X00155000Y00192000D02*
X00173000Y00210000D01*
X00193000*
X00206000Y00223000*
Y00225500*
X00168200Y00164000D02*
Y00164850D01*
X00161050Y00172000*
X00156000*
X00150000Y00178000*
Y00196000*
X00155000Y00201000*
X00157000*
X00163000Y00207000*
Y00223000*
X00159000Y00227000*
X00148000*
X00277000Y00232000D02*
X00319000D01*
X00319500Y00232500*
X00362300*
X00226000Y00228000D02*
X00211800Y00242200D01*
X00192000*
X00226000Y00228000D02*
X00244800Y00246800D01*
X00257000*
X00226000Y00225500D02*
Y00228000D01*
X00231000Y00225500D02*
Y00228000D01*
X00242200Y00239200*
X00257000*
X00236000Y00225500D02*
Y00228000D01*
X00243000Y00235000*
X00261800*
X00266000Y00239200*
X00241000Y00225500D02*
Y00228000D01*
X00245000Y00232000*
X00268000*
X00273000Y00237000*
X00308000*
X00312000Y00241000*
X00324200*
X00246000Y00225500D02*
X00354500D01*
X00356500Y00227500*
X00362300*
X00230000Y00160000D02*
Y00193000D01*
X00231000Y00194000*
Y00225500*
X00266000Y00239200D02*
X00266800Y00240000D01*
X00307000*
X00369000Y00302000*
X00412000*
X00460000Y00350000*
X00462000*
X00257000Y00239200D02*
X00257600D01*
X00261400Y00243000*
X00306000*
X00413000Y00350000*
X00415000*
X00410400Y00205000D02*
X00385600D01*
X00377000Y00213600*
Y00230300*
X00364800Y00242500*
X00362300*
X00410400Y00205000D02*
X00494000Y00288600D01*
Y00374000*
X00478500Y00389500*
X00435200*
X00432900Y00391800*
X00423109*
X00417000Y00397909*
X00410400Y00202000D02*
X00385000D01*
X00374000Y00213000*
Y00228300*
X00364800Y00237500*
X00362300*
X00410400Y00202000D02*
X00410800D01*
X00496400Y00287600*
Y00375000*
X00479500Y00391900*
X00436200*
X00430190Y00397909*
X00430190D02*
X00427826D01*
X00383700Y00237500D02*
X00391500D01*
X00391800Y00237800*
X00398000*
X00430000Y00160000D02*
X00422000D01*
X00392000Y00190000*
X00271000*
X00241000Y00220000*
Y00225500*
X00398000Y00222800D02*
X00393699D01*
X00393699D02*
X00388999Y00227500D01*
X00388999D02*
X00383700D01*
X00398000Y00230200D02*
X00392800D01*
X00390500Y00232500*
X00383700*
X00168000Y00267200D02*
X00168600D01*
X00173000Y00271600*
Y00277000*
X00169000Y00281000*
X00150500*
X00176000Y00252000D02*
X00155000D01*
X00192000Y00274800D02*
Y00289100D01*
X00204000Y00301100*
Y00311500*
X00168000Y00255800D02*
Y00267200D01*
X00155000Y00262000D02*
X00162000Y00269000D01*
Y00269400*
X00167400Y00274800*
X00168000*
X00192000Y00242200D02*
X00174000D01*
X00168000Y00248200*
X00277000Y00258000D02*
X00235000D01*
X00231000Y00262000*
Y00264500*
X00211000Y00255000D02*
X00214000D01*
X00221000Y00262000*
Y00264500*
X00211000Y00255000D02*
X00187000D01*
X00186200Y00255800*
X00168000*
X00246000Y00264500D02*
X00277000D01*
X00324000Y00311500*
X00241000Y00264500D02*
Y00267000D01*
X00252000Y00278000*
X00280500*
X00314000Y00311500*
X00236000Y00264500D02*
Y00267000D01*
X00250500Y00281500*
X00274000*
X00304000Y00311500*
X00216000Y00264500D02*
Y00267000D01*
X00244300Y00295300*
X00277800*
X00294000Y00311500*
X00211000Y00264500D02*
Y00267000D01*
X00213300Y00269300*
Y00280800*
X00244000Y00311500*
X00206000Y00264500D02*
Y00293500D01*
X00224000Y00311500*
X00234000D02*
X00239400Y00316900D01*
X00285900*
X00286200Y00317200*
X00308000Y00340000*
X00214000Y00311500D02*
X00221900Y00319400D01*
X00263900*
X00277300Y00332800*
Y00348300*
X00298000Y00369000*
Y00380000*
X00266000Y00246800D02*
X00257000D01*
X00211000Y00258000D02*
X00212000D01*
X00216000Y00262000*
Y00264500*
X00211000Y00258000D02*
X00201800D01*
X00192600Y00267200*
X00192000*
X00334000Y00311500D02*
X00328000Y00317500D01*
Y00318800*
X00323600Y00323200*
X00323000*
X00383700Y00242500D02*
X00390500D01*
X00393200Y00245200*
X00398000*
X00383700Y00247500D02*
X00381200D01*
X00376800Y00251900*
Y00263000*
X00383700Y00252500D02*
X00391500D01*
X00391800Y00252800*
X00398000*
X00254000Y00322000D02*
X00215500D01*
X00213500Y00324000*
X00202600*
X00254000Y00322000D02*
X00258200D01*
X00264000Y00327800*
X00261200Y00343000D02*
X00255000D01*
X00254000Y00353000*
X00246800Y00343000D02*
X00253000D01*
X00254000Y00353000*
X00330000Y00327000D02*
X00319000D01*
X00341000Y00337800D02*
X00344999D01*
X00344999D02*
X00345000D01*
Y00339999*
X00345000D02*
Y00340000D01*
X00351000*
X00288000D02*
X00295000Y00347000D01*
X00298200*
X00304100Y00352900*
Y00353500*
X00341000Y00380000D02*
X00322000D01*
X00305000Y00397000*
X00285000*
X00274000Y00408000*
Y00413000*
X00331000Y00340000D02*
Y00355000D01*
X00341000Y00365000*
Y00380000*
X00438000Y00367000D02*
X00444000Y00373000D01*
X00455000*
X00397000Y00385000D02*
X00414000D01*
X00415000Y00386000*
X00397000Y00385000D02*
X00390000Y00392000D01*
X00346000*
X00329000Y00409000*
Y00418000*
X00324000Y00423000*
X00419000Y00354000D02*
X00408000D01*
X00404200Y00357800*
X00394000*
X00419000Y00354000D02*
X00424600D01*
X00428400Y00357800*
X00429000*
X00410000Y00377800D02*
X00399000D01*
X00388000Y00389000*
X00343000*
X00324000Y00408000*
Y00413000*
X00410000Y00377800D02*
X00416800D01*
X00419000Y00380000*
X00427000*
X00419000Y00358000D02*
X00423000Y00362000D01*
X00423650*
X00427800Y00366150*
Y00367000*
X00411000Y00358000D02*
Y00364000D01*
X00410000Y00365000*
Y00370200*
X00437000Y00340000D02*
X00433000Y00344000D01*
Y00346800*
X00429600Y00350200*
X00429000*
X00384000Y00380000D02*
X00364000D01*
X00358000Y00386000*
X00320000*
X00306000Y00400000*
X00288000*
X00279000Y00409000*
Y00418000*
X00274000Y00423000*
X00394000Y00340000D02*
Y00350200D01*
X00374000Y00340000D02*
Y00355000D01*
X00384000Y00365000*
Y00380000*
X00437000Y00334000D02*
X00431000D01*
X00425000Y00340000*
X00417000*
X00437000Y00334000D02*
X00440000D01*
X00446000Y00340000*
Y00359000*
X00438000Y00367000*
X00420200D02*
X00413800D01*
X00410600Y00370200*
X00410000*
X00427800Y00367000D02*
X00438000D01*
X00472800Y00367850D02*
X00467650Y00373000D01*
X00455000*
X00442200Y00355000D02*
X00437000D01*
X00434200Y00357800*
X00429000*
X00455000Y00376800D02*
X00459800D01*
X00463000Y00380000*
X00470000*
X00455000Y00376800D02*
X00439200D01*
X00430000Y00386000*
X00415000*
X00458000Y00358000D02*
Y00362100D01*
X00455000Y00365100*
Y00369200*
X00480000Y00340000D02*
X00466000Y00354000D01*
X00454000*
X00453000Y00355000*
X00449800*
X00488000Y00329000D02*
X00479000D01*
X00468000Y00340000*
X00460000*
X00465200Y00367000D02*
X00461500D01*
X00459300Y00369200*
X00455000*
G54D22*
X00277000Y00232000D03*
Y00258000D03*
X00350000Y00268000D03*
Y00297000D03*
G54D23*
X00110000Y00110000D02*
Y00110500D01*
Y00110000D02*
X00110500D01*
X00110000D02*
Y00109500D01*
Y00110000D02*
X00109500D01*
X00111500D02*
X00116500D01*
X00110000Y00108500D02*
Y00105100D01*
Y00111500D02*
Y00116000D01*
X00104000Y00110000D02*
X00108500D01*
X00113000D02*
G75*
G03X00113000I-00003000D01*
G01X00112000D02*
G03X00112000I-00002000D01*
G01X00530000D02*
Y00110500D01*
Y00110000D02*
X00530500D01*
X00530000D02*
Y00109500D01*
Y00110000D02*
X00529500D01*
X00531500D02*
X00536500D01*
X00530000Y00108500D02*
Y00105100D01*
Y00111500D02*
Y00116000D01*
X00524000Y00110000D02*
X00528500D01*
X00533000D02*
G03X00533000I-00003000D01*
G01X00532000D02*
G03X00532000I-00002000D01*
G01X00530000Y00450000D02*
Y00450500D01*
Y00450000D02*
X00530500D01*
X00530000D02*
Y00449500D01*
Y00450000D02*
X00529500D01*
X00531500D02*
X00536500D01*
X00530000Y00448500D02*
Y00445100D01*
Y00451500D02*
Y00456000D01*
X00524000Y00450000D02*
X00528500D01*
X00533000D02*
G03X00533000I-00003000D01*
G01X00532000D02*
G03X00532000I-00002000D01*
G54D25*
G01X00485454Y00220500D02*
X00485818Y00221000D01*
X00486363Y00221250*
X00486363D02*
X00487090D01*
X00487090D02*
X00487636Y00221000D01*
X00488000Y00220500*
Y00220000*
X00487818Y00219500*
X00487636Y00219250*
X00487272Y00219000*
X00487272D02*
X00486181Y00218500D01*
X00486181D02*
X00485818Y00218250D01*
X00485636Y00218000*
X00485454Y00217500*
X00485454D02*
Y00216750D01*
X00485454D02*
X00485818Y00216250D01*
X00486363Y00216000*
X00486363D02*
X00487090D01*
X00487090D02*
X00487636Y00216250D01*
X00488000Y00216750*
X00482545Y00221250D02*
Y00216000D01*
X00483818Y00221250D02*
X00481272D01*
X00478545D02*
X00478909Y00221000D01*
X00479272Y00220500*
X00479272D02*
X00479454Y00220000D01*
X00479454D02*
X00479636Y00219250D01*
Y00218000*
X00479454Y00217250*
X00479454D02*
X00479272Y00216750D01*
X00479272D02*
X00478909Y00216250D01*
X00478545Y00216000*
X00477818*
X00477454Y00216250*
X00477454D02*
X00477090Y00216750D01*
X00477090D02*
X00476909Y00217250D01*
X00476727Y00218000*
Y00219250*
X00476909Y00220000*
X00477090Y00220500*
X00477090D02*
X00477454Y00221000D01*
X00477454D02*
X00477818Y00221250D01*
X00478545*
X00475090D02*
Y00216000D01*
Y00221250D02*
X00473454D01*
X00473454D02*
X00472909Y00221000D01*
X00472727Y00220750*
X00472545Y00220250*
Y00219500*
X00472727Y00219000*
X00472909Y00218750*
X00473454Y00218500*
X00473454D02*
X00475090D01*
X00470909Y00221250D02*
X00469999Y00216000D01*
X00469090Y00221250D02*
X00469999Y00216000D01*
X00469090Y00221250D02*
X00468181Y00216000D01*
X00467272Y00221250D02*
X00468181Y00216000D01*
X00464181Y00221250D02*
X00465636Y00216000D01*
X00464181Y00221250D02*
X00462727Y00216000D01*
X00465090Y00217750D02*
X00463272D01*
X00459818Y00221250D02*
Y00216000D01*
X00461090Y00221250D02*
X00458545D01*
X00454181Y00220000D02*
X00454363Y00220500D01*
X00454363D02*
X00454727Y00221000D01*
X00455090Y00221250*
X00455090D02*
X00455818D01*
X00456181Y00221000*
X00456181D02*
X00456545Y00220500D01*
X00456727Y00220000*
X00456909Y00219250*
Y00218000*
X00456727Y00217250*
X00456545Y00216750*
X00456181Y00216250*
X00456181D02*
X00455818Y00216000D01*
X00455090*
X00455090D02*
X00454727Y00216250D01*
X00454363Y00216750*
X00454363D02*
X00454181Y00217250D01*
X00452545Y00221250D02*
Y00216000D01*
X00449999Y00221250D02*
Y00216000D01*
X00452545Y00218750D02*
X00449999D01*
X00447272Y00221250D02*
X00447818Y00221000D01*
X00448181Y00220250*
X00448181D02*
X00448363Y00219000D01*
X00448363D02*
Y00218250D01*
X00448363D02*
X00448181Y00217000D01*
X00448181D02*
X00447818Y00216250D01*
X00447272Y00216000*
X00447272D02*
X00446909D01*
X00446363Y00216250*
X00446363D02*
X00445999Y00217000D01*
X00445999D02*
X00445818Y00218250D01*
Y00219000*
X00445999Y00220250*
X00445999D02*
X00446363Y00221000D01*
X00446363D02*
X00446909Y00221250D01*
X00447272*
X00444181Y00220250D02*
X00443818Y00220500D01*
X00443272Y00221250*
X00443272D02*
Y00216000D01*
X00441636Y00221250D02*
Y00216000D01*
Y00221250D02*
X00439999D01*
X00439999D02*
X00439454Y00221000D01*
X00439454D02*
X00439272Y00220750D01*
X00439272D02*
X00439090Y00220250D01*
X00439090D02*
Y00219750D01*
X00439090D02*
X00439272Y00219250D01*
X00439272D02*
X00439454Y00219000D01*
X00439454D02*
X00439999Y00218750D01*
X00441636D02*
X00439999D01*
X00439999D02*
X00439454Y00218500D01*
X00439454D02*
X00439272Y00218250D01*
X00439272D02*
X00439090Y00217750D01*
X00439090D02*
Y00217000D01*
X00439090D02*
X00439272Y00216500D01*
X00439272D02*
X00439454Y00216250D01*
X00439454D02*
X00439999Y00216000D01*
X00439999D02*
X00441636D01*
X00485727Y00210250D02*
X00486090Y00209750D01*
X00486090D02*
X00486454Y00209000D01*
X00486454D02*
X00486818Y00208000D01*
X00487000Y00206750*
Y00205750*
X00486818Y00204500*
X00486454Y00203500*
X00486454D02*
X00486090Y00202750D01*
X00486090D02*
X00485727Y00202250D01*
X00481909Y00206750D02*
X00482272Y00207250D01*
X00482272D02*
X00482636Y00207500D01*
X00483181*
X00483181D02*
X00483545Y00207250D01*
X00483909Y00206750*
X00484090Y00206000*
X00484090D02*
Y00205500D01*
X00484090D02*
X00483909Y00204750D01*
X00483545Y00204250*
X00483181Y00204000*
X00483181D02*
X00482636D01*
X00482272Y00204250*
X00482272D02*
X00481909Y00204750D01*
X00480272Y00210250D02*
X00479909Y00209750D01*
X00479545Y00209000*
X00479181Y00208000*
X00479181D02*
X00478999Y00206750D01*
X00478999D02*
Y00205750D01*
X00478999D02*
X00479181Y00204500D01*
X00479181D02*
X00479545Y00203500D01*
X00479909Y00202750*
X00480272Y00202250*
X00477363Y00207500D02*
Y00204000D01*
Y00206500D02*
X00476818Y00207250D01*
X00476454Y00207500*
X00476454D02*
X00475909D01*
X00475545Y00207250*
X00475363Y00206500*
X00475363D02*
Y00204000D01*
Y00206500D02*
X00474818Y00207250D01*
X00474454Y00207500*
X00474454D02*
X00473909D01*
X00473545Y00207250*
X00473363Y00206500*
X00473363D02*
Y00204000D01*
X00471727Y00209250D02*
X00471545Y00209000D01*
X00471363Y00209250*
X00471363D02*
X00471545Y00209500D01*
X00471727Y00209250*
X00471545Y00207500D02*
Y00204000D01*
X00469727Y00209250D02*
Y00204000D01*
Y00206500D02*
X00469181Y00207250D01*
X00469181D02*
X00468818Y00207500D01*
X00468272*
X00468272D02*
X00467909Y00207250D01*
X00467727Y00206500*
Y00204000*
X00465181Y00207500D02*
X00465545Y00207250D01*
X00465909Y00206750*
X00466090Y00206000*
X00466090D02*
Y00205500D01*
X00466090D02*
X00465909Y00204750D01*
X00465545Y00204250*
X00465181Y00204000*
X00465181D02*
X00464636D01*
X00464272Y00204250*
X00464272D02*
X00463909Y00204750D01*
X00463727Y00205500*
Y00206000*
X00463909Y00206750*
X00464272Y00207250*
X00464272D02*
X00464636Y00207500D01*
X00465181*
X00458636Y00208000D02*
Y00208250D01*
X00458454Y00208750*
X00458454D02*
X00458272Y00209000D01*
X00458272D02*
X00457909Y00209250D01*
X00457181*
X00457181D02*
X00456818Y00209000D01*
X00456636Y00208750*
X00456454Y00208250*
X00456454D02*
Y00207750D01*
X00456454D02*
X00456636Y00207250D01*
X00456999Y00206500*
X00456999D02*
X00458818Y00204000D01*
X00456272*
X00453545Y00209250D02*
X00454090Y00209000D01*
X00454090D02*
X00454454Y00208250D01*
X00454454D02*
X00454636Y00207000D01*
Y00206250*
X00454454Y00205000*
X00454454D02*
X00454090Y00204250D01*
X00454090D02*
X00453545Y00204000D01*
X00453181*
X00453181D02*
X00452636Y00204250D01*
X00452272Y00205000*
X00452272D02*
X00452090Y00206250D01*
X00452090D02*
Y00207000D01*
X00452090D02*
X00452272Y00208250D01*
X00452272D02*
X00452636Y00209000D01*
X00453181Y00209250*
X00453181D02*
X00453545D01*
X00449363D02*
X00449909Y00209000D01*
X00450272Y00208250*
X00450272D02*
X00450454Y00207000D01*
X00450454D02*
Y00206250D01*
X00450454D02*
X00450272Y00205000D01*
X00450272D02*
X00449909Y00204250D01*
X00449363Y00204000*
X00449363D02*
X00448999D01*
X00448999D02*
X00448454Y00204250D01*
X00448454D02*
X00448090Y00205000D01*
X00448090D02*
X00447909Y00206250D01*
Y00207000*
X00448090Y00208250*
X00448090D02*
X00448454Y00209000D01*
X00448454D02*
X00448999Y00209250D01*
X00448999D02*
X00449363D01*
X00444454D02*
X00446272Y00205750D01*
X00446272D02*
X00443545D01*
X00444454Y00209250D02*
Y00204000D01*
G54D40*
X00162000Y00340000D03*
X00254000Y00413000D03*
Y00423000D03*
X00264000Y00413000D03*
Y00423000D03*
X00274000Y00413000D03*
Y00423000D03*
X00284000Y00413000D03*
Y00423000D03*
X00294000Y00413000D03*
Y00423000D03*
X00304000Y00413000D03*
Y00423000D03*
X00314000Y00413000D03*
Y00423000D03*
X00324000Y00413000D03*
Y00423000D03*
X00334000Y00413000D03*
Y00423000D03*
X00344000Y00413000D03*
Y00423000D03*
X00155000Y00192000D03*
Y00182000D03*
Y00212000D03*
Y00222000D03*
Y00232000D03*
Y00252000D03*
Y00262000D03*
G54D41*
X00230000Y00140000D03*
Y00160000D03*
X00210000D03*
Y00140000D03*
X00330000D03*
Y00160000D03*
X00310000D03*
Y00140000D03*
X00430000D03*
Y00160000D03*
X00410000D03*
Y00140000D03*
X00264000Y00327800D03*
X00244000D03*
X00254000D03*
G54D42*
X00140000Y00140000D02*
Y00158000D01*
X00133500Y00164000*
Y00227000*
X00230000Y00127000D02*
X00153000D01*
X00140000Y00140000*
X00330000Y00127000D02*
X00230000D01*
Y00140000*
X00430000Y00127000D02*
X00330000D01*
Y00140000*
X00430000Y00127000D02*
X00490000D01*
X00500000Y00137000*
Y00140000*
X00430000Y00127000D02*
Y00140000D01*
X00500000D02*
Y00220000D01*
X00502000Y00222000*
Y00396000*
X00500000Y00398000*
Y00420000*
X00133500Y00252000D02*
Y00227000D01*
X00148000*
X00133500Y00294000D02*
Y00294500D01*
X00125000Y00303000*
Y00388000*
X00140000Y00403000*
Y00420000*
X00133500Y00281000D02*
Y00252000D01*
X00155000*
X00133500Y00281000D02*
Y00294000D01*
X00152000Y00322200D02*
X00155200D01*
X00162000Y00329000*
Y00340000*
X00152000Y00322200D02*
X00146800D01*
X00136500Y00332500*
Y00388000*
X00152000Y00354800D02*
Y00374999D01*
X00152000D02*
X00165000Y00388000D01*
X00171500*
X00152000Y00343000D02*
X00153000D01*
X00162000Y00352000*
X00171000*
X00172000Y00353000*
X00204000Y00385000*
X00184000Y00393000D02*
Y00409000D01*
X00162000Y00360000D02*
X00184000Y00382000D01*
Y00393000*
X00223200Y00327800D02*
X00211000Y00340000D01*
X00162000*
X00223200Y00327800D02*
X00244000D01*
X00254000Y00353000D02*
X00268000Y00367000D01*
Y00399000*
X00254000Y00413000*
Y00327800D02*
Y00353000D01*
X00395346Y00397909D02*
X00390000Y00403255D01*
X00390000D02*
Y00434000D01*
X00204000Y00409000D02*
X00184000D01*
X00173000Y00420000*
X00140000*
X00254000Y00434000D02*
X00264000D01*
X00294000*
X00264000D02*
Y00423000D01*
Y00413000*
X00254000Y00434000D02*
Y00423000D01*
Y00413000*
X00204000Y00409000D02*
X00229000Y00434000D01*
X00254000*
X00314000D02*
X00334000D01*
X00294000D02*
X00304000D01*
X00314000*
X00390000D02*
X00344000D01*
X00334000*
X00344000D02*
Y00423000D01*
Y00413000*
X00334000Y00434000D02*
Y00423000D01*
Y00413000*
X00314000Y00434000D02*
Y00423000D01*
Y00413000*
X00304000Y00434000D02*
Y00423000D01*
Y00413000*
X00294000Y00434000D02*
Y00423000D01*
Y00413000*
X00500000Y00420000D02*
X00486000Y00434000D01*
X00390000*
G54D43*
X00204000Y00385000D03*
Y00409000D03*
X00184000Y00393000D03*
G54D44*
X00438653Y00397909D03*
X00427826D03*
X00417000D03*
X00406173D03*
X00395346D03*
X00433240Y00409090D03*
X00422413D03*
X00411586D03*
X00400759D03*
G54D45*
X00465503Y00403500D03*
X00368496D03*
X00467500Y00310000D03*
Y00188000D03*
X00172500D03*
Y00310000D03*
G54D46*
X00331000Y00340000D03*
X00351000D03*
X00341000Y00380000D03*
X00374000Y00340000D03*
X00394000D03*
X00384000Y00380000D03*
X00417000Y00340000D03*
X00437000D03*
X00427000Y00380000D03*
X00460000Y00340000D03*
X00480000D03*
X00470000Y00380000D03*
X00288000Y00340000D03*
X00308000D03*
X00298000Y00380000D03*
G54D47*
X00411000Y00358000D03*
X00419000D03*
X00415000Y00350000D03*
X00458000Y00358000D03*
X00466000D03*
X00462000Y00350000D03*
G54D48*
X00152000Y00343000D03*
Y00354800D03*
Y00331200D03*
G54D49*
X00133500Y00281000D03*
X00150500D03*
Y00311000D03*
X00133500D03*
G54D50*
X00254944Y00394138D03*
G54D51*
X00206000Y00267000D02*
Y00262000D01*
X00211000Y00267000D02*
Y00262000D01*
X00216000Y00267000D02*
Y00262000D01*
X00221000Y00267000D02*
Y00262000D01*
X00226000Y00267000D02*
Y00262000D01*
X00231000Y00267000D02*
Y00262000D01*
X00236000Y00267000D02*
Y00262000D01*
X00241000Y00267000D02*
Y00262000D01*
X00246000Y00267000D02*
Y00262000D01*
Y00228000D02*
Y00223000D01*
X00241000Y00228000D02*
Y00223000D01*
X00236000Y00228000D02*
Y00223000D01*
X00231000Y00228000D02*
Y00223000D01*
X00226000Y00228000D02*
Y00223000D01*
X00221000Y00228000D02*
Y00223000D01*
X00216000Y00228000D02*
Y00223000D01*
X00211000Y00228000D02*
Y00223000D01*
X00206000Y00228000D02*
Y00223000D01*
X00386200Y00252500D02*
X00381200D01*
X00386200Y00247500D02*
X00381200D01*
X00386200Y00242500D02*
X00381200D01*
X00386200Y00237500D02*
X00381200D01*
X00386200Y00232500D02*
X00381200D01*
X00386200Y00227500D02*
X00381200D01*
X00386200Y00222500D02*
X00381200D01*
X00386200Y00217500D02*
X00381200D01*
X00364800D02*
X00359800D01*
X00364800Y00222500D02*
X00359800D01*
X00364800Y00227500D02*
X00359800D01*
X00364800Y00232500D02*
X00359800D01*
X00364800Y00237500D02*
X00359800D01*
X00364800Y00242500D02*
X00359800D01*
X00364800Y00247500D02*
X00359800D01*
X00364800Y00252500D02*
X00359800D01*
G74*
X00000000Y00000000D02*
M02*
