*
*
G04 PowerPCB (Build Number 500.281.2.20) generated Gerber (RS-274-X) file*
G04 PC Version=2.1*
*
%IN "CT01A.pcb"*%
*
%MOIN*%
*
%FSLAX35Y35*%
*
*
*
*
G04 PC Standard Apertures*
*
*
G04 Thermal Relief Aperture macro.*
%AMTER*
1,1,$1,0,0*
1,0,$1-$2,0,0*
21,0,$3,$4,0,0,45*
21,0,$3,$4,0,0,135*
%
*
*
G04 Annular Aperture macro.*
%AMANN*
1,1,$1,0,0*
1,0,$2,0,0*
%
*
*
G04 Odd Aperture macro.*
%AMODD*
1,1,$1,0,0*
1,0,$1-0.005,0,0*
%
*
*
G04 PC Custom Aperture Macros*
*
*
*
*
*
*
G04 PC Aperture Table*
*
%ADD010R,0.039X0.039*%
%ADD011C,0.06*%
%ADD012R,0.07X0.07*%
%ADD013C,0.23622*%
%ADD014C,0.05*%
%ADD017C,0.02*%
%ADD018C,0.015*%
%ADD019C,0.03*%
%ADD020C,0.012*%
%ADD023C,0.007*%
%ADD025C,0.01*%
%ADD031C,0.07*%
%ADD032R,0.08X0.08*%
%ADD035C,0.065*%
%ADD036C,0.008*%
%ADD040R,0.06X0.06*%
%ADD041C,0.08*%
%ADD043C,0.14*%
%ADD044C,0.07394*%
%ADD045C,0.177*%
%ADD046C,0.091*%
%ADD047C,0.085*%
%ADD048R,0.065X0.065*%
%ADD049C,0.025*%
%ADD050C,0.17717*%
%ADD051R,0.41X0.41*%
%ADD067C,0.08268*%
%ADD068R,0.085X0.085*%
*
*
*
*
G04 PC Custom Flashes*
G04 Layer Name CT01A.pcb - flashes*
%LPD*%
*
*
G04 PC Circuitry*
G04 Layer Name CT01A.pcb - circuitry*
%LPD*%
*
G54D10*
G01X00209150Y00371300D02*
X00210850D01*
X00209150Y00363700D02*
X00210850D01*
X00209150Y00386300D02*
X00210850D01*
X00209150Y00378700D02*
X00210850D01*
X00263350Y00363700D02*
X00261650D01*
X00263350Y00371300D02*
X00261650D01*
X00203350Y00348700D02*
X00201650D01*
X00203350Y00356300D02*
X00201650D01*
X00193350Y00348700D02*
X00191650D01*
X00193350Y00356300D02*
X00191650D01*
X00171200Y00354150D02*
Y00355850D01*
X00178800Y00354150D02*
Y00355850D01*
X00428800Y00305850D02*
Y00304150D01*
X00421200Y00305850D02*
Y00304150D01*
X00455850Y00373700D02*
X00454150D01*
X00455850Y00381300D02*
X00454150D01*
Y00363800D02*
X00455850D01*
X00454150Y00356200D02*
X00455850D01*
X00311650Y00466300D02*
X00313350D01*
X00311650Y00458700D02*
X00313350D01*
X00276650Y00463800D02*
X00278350D01*
X00276650Y00456200D02*
X00278350D01*
Y00438700D02*
X00276650D01*
X00278350Y00446300D02*
X00276650D01*
X00301650Y00466300D02*
X00303350D01*
X00301650Y00458700D02*
X00303350D01*
X00346650Y00468800D02*
X00348350D01*
X00346650Y00461200D02*
X00348350D01*
X00331650Y00456300D02*
X00333350D01*
X00331650Y00448700D02*
X00333350D01*
X00224400Y00371300D02*
X00225600D01*
X00224400Y00363700D02*
X00225600D01*
X00358100Y00461200D02*
X00356900D01*
X00358100Y00468800D02*
X00356900D01*
X00341200Y00451900D02*
Y00453100D01*
X00348800Y00451900D02*
Y00453100D01*
X00368100Y00461200D02*
X00366900D01*
X00368100Y00468800D02*
X00366900D01*
X00338800Y00468100D02*
Y00466900D01*
X00331200Y00468100D02*
Y00466900D01*
X00341300Y00440600D02*
Y00439400D01*
X00333700Y00440600D02*
Y00439400D01*
X00240600Y00333700D02*
X00239400D01*
X00240600Y00341300D02*
X00239400D01*
X00421200Y00329400D02*
Y00330600D01*
X00428800Y00329400D02*
Y00330600D01*
X00273100Y00363700D02*
X00271900D01*
X00273100Y00371300D02*
X00271900D01*
X00281900D02*
X00283100D01*
X00281900Y00363700D02*
X00283100D01*
X00321200Y00379400D02*
Y00380600D01*
X00328800Y00379400D02*
Y00380600D01*
X00221900Y00466300D02*
X00223100D01*
X00221900Y00458700D02*
X00223100D01*
X00321200Y00369400D02*
Y00370600D01*
X00328800Y00369400D02*
Y00370600D01*
X00256300Y00453100D02*
Y00451900D01*
X00248700Y00453100D02*
Y00451900D01*
X00256300Y00443100D02*
Y00441900D01*
X00248700Y00443100D02*
Y00441900D01*
X00258100Y00426200D02*
X00256900D01*
X00258100Y00433800D02*
X00256900D01*
X00311300Y00448100D02*
Y00446900D01*
X00303700Y00448100D02*
Y00446900D01*
X00311300Y00438100D02*
Y00436900D01*
X00303700Y00438100D02*
Y00436900D01*
X00350600Y00436200D02*
X00349400D01*
X00350600Y00443800D02*
X00349400D01*
X00381650D02*
X00383350D01*
X00381650Y00436200D02*
X00383350D01*
X00308350Y00363700D02*
X00306650D01*
X00308350Y00371300D02*
X00306650D01*
X00298350Y00363700D02*
X00296650D01*
X00298350Y00371300D02*
X00296650D01*
G54D11*
X00470000Y00392500D03*
X00277500Y00415000D03*
Y00470000D03*
G54D12*
X00410000Y00412500D03*
X00420000D03*
X00430000D03*
X00440000D03*
X00357500Y00377500D03*
Y00367500D03*
X00237500Y00400000D03*
X00292500Y00437500D03*
G54D13*
X00140000Y00140000D03*
X00460000D03*
Y00460000D03*
X00140000D03*
G54D14*
Y00410000D03*
X00430000Y00140000D03*
G54D17*
X00158500Y00326496D02*
X00171200Y00339196D01*
Y00355000*
Y00364400*
X00176800Y00370000*
X00179300*
X00261500Y00335100D02*
Y00342200D01*
X00265000Y00345700*
Y00352500*
X00235100Y00405500D02*
X00257500D01*
X00232000Y00400000D02*
Y00394200D01*
X00238600Y00387600*
X00232000Y00400000D02*
Y00404400D01*
X00233100Y00405500*
X00235100*
X00257500D02*
X00289800D01*
X00293000Y00402300*
Y00400000*
X00298500Y00394500*
X00311500*
X00315500Y00398500*
Y00430500*
X00322500Y00437500*
X00257500Y00405500D02*
Y00400000D01*
X00265000Y00392500*
Y00382500*
X00262500Y00371300D02*
Y00375000D01*
X00265000Y00377500*
Y00382500*
X00262500Y00363700D02*
Y00360000D01*
X00265000Y00357500*
Y00352500*
X00380600Y00402000D02*
X00382500Y00403900D01*
Y00413900*
X00385300Y00416700*
X00386700*
X00392500Y00422500*
X00391800Y00402700D02*
X00392500Y00403400D01*
Y00422500*
X00235000Y00465000D02*
Y00405600D01*
X00235100Y00405500*
G54D18*
X00178800Y00355000D02*
X00184300D01*
X00186800Y00352500*
X00210000*
X00221200Y00341300*
X00240000*
X00276800Y00368600D02*
X00277500Y00367900D01*
Y00367500*
X00287500*
X00291300Y00363700*
X00297500*
X00238600Y00387600D02*
X00240000Y00386200D01*
Y00341300*
X00270000Y00382500D02*
Y00392500D01*
X00277500Y00400000*
X00270000Y00382500D02*
Y00380000D01*
X00275000Y00375000*
X00275774*
X00275774D02*
X00276800Y00373974D01*
X00276800D02*
Y00368600D01*
X00262500Y00363700D02*
X00263350D01*
X00267150Y00367500*
X00275700*
X00276800Y00368600*
X00180772Y00447172D02*
X00179005Y00445405D01*
X00180772Y00437627D02*
X00179005Y00439394D01*
X00171227Y00437627D02*
X00172994Y00439394D01*
X00171227Y00447172D02*
X00172994Y00445405D01*
X00150119Y00150119D02*
X00148351Y00148351D01*
X00129880Y00150119D02*
X00131648Y00148351D01*
X00129880Y00129880D02*
X00131648Y00131648D01*
X00150119Y00129880D02*
X00148351Y00131648D01*
X00166525Y00334521D02*
X00164757Y00332753D01*
X00166525Y00318470D02*
X00164757Y00320238D01*
X00150474Y00318470D02*
X00152242Y00320238D01*
X00150474Y00334521D02*
X00152242Y00332753D01*
X00470119Y00150119D02*
X00468351Y00148351D01*
X00449880Y00150119D02*
X00451648Y00148351D01*
X00449880Y00129880D02*
X00451648Y00131648D01*
X00470119Y00129880D02*
X00468351Y00131648D01*
X00420232Y00292967D02*
X00423171Y00290028D01*
X00420232Y00281432D02*
X00423171Y00284371D01*
X00431767Y00281432D02*
X00428828Y00284371D01*
X00431767Y00292967D02*
X00428828Y00290028D01*
X00150119Y00470119D02*
X00148351Y00468351D01*
X00129880Y00470119D02*
X00131648Y00468351D01*
X00129880Y00449880D02*
X00131648Y00451648D01*
X00150119Y00449880D02*
X00148351Y00451648D01*
X00166525Y00415478D02*
X00164757Y00417246D01*
X00150474Y00415478D02*
X00152242Y00417246D01*
X00150474Y00431529D02*
X00152242Y00429761D01*
X00168472Y00401035D02*
X00166704Y00399267D01*
X00168472Y00392271D02*
X00166704Y00394039D01*
X00159708Y00401035D02*
X00161476Y00399267D01*
X00159708Y00392271D02*
X00161476Y00394039D01*
X00271403Y00291796D02*
X00273171Y00290028D01*
X00280596Y00282603D02*
X00278828Y00284371D01*
X00271403Y00282603D02*
X00273171Y00284371D01*
X00411692Y00356023D02*
X00409925Y00357791D01*
X00395629Y00356023D02*
X00397397Y00357791D01*
X00411692Y00372086D02*
X00409925Y00370318D01*
X00259985Y00460014D02*
X00258217Y00461782D01*
X00250014Y00460014D02*
X00251782Y00461782D01*
X00250014Y00469985D02*
X00251782Y00468217D01*
X00259985Y00469985D02*
X00258217Y00468217D01*
X00281389Y00473889D02*
X00279621Y00472121D01*
X00273610Y00473889D02*
X00275378Y00472121D01*
X00296742Y00463257D02*
X00294974Y00465025D01*
X00288257Y00463257D02*
X00290025Y00465025D01*
X00288257Y00471742D02*
X00290025Y00469974D01*
X00296742Y00471742D02*
X00294974Y00469974D01*
X00470119Y00470119D02*
X00468351Y00468351D01*
X00449880Y00470119D02*
X00451648Y00468351D01*
X00449880Y00449880D02*
X00451648Y00451648D01*
X00470119Y00449880D02*
X00468351Y00451648D01*
X00449217Y00426782D02*
X00447449Y00428550D01*
X00449217Y00440217D02*
X00447449Y00438449D01*
X00435782Y00440217D02*
X00437550Y00438449D01*
X00435782Y00426782D02*
X00437550Y00428550D01*
X00429217Y00442782D02*
X00427449Y00444550D01*
X00429217Y00456217D02*
X00427449Y00454449D01*
X00415782Y00456217D02*
X00417550Y00454449D01*
X00415782Y00442782D02*
X00417550Y00444550D01*
X00402267Y00405232D02*
X00399621Y00407878D01*
X00402267Y00414767D02*
X00399621Y00412121D01*
X00415267Y00407232D02*
X00412474Y00410025D01*
X00415267Y00417767D02*
X00412474Y00414974D01*
X00404732Y00417767D02*
X00407525Y00414974D01*
X00404732Y00407232D02*
X00407525Y00410025D01*
X00445267Y00407232D02*
X00442474Y00410025D01*
X00445267Y00417767D02*
X00442474Y00414974D01*
X00434732Y00417767D02*
X00437525Y00414974D01*
X00434732Y00407232D02*
X00437525Y00410025D01*
X00473889Y00388610D02*
X00472121Y00390378D01*
X00466110Y00388610D02*
X00467878Y00390378D01*
X00466110Y00396389D02*
X00467878Y00394621D01*
X00473889Y00396389D02*
X00472121Y00394621D01*
X00474596Y00360403D02*
X00472828Y00362171D01*
X00474596Y00369596D02*
X00472828Y00367828D01*
X00465403Y00360403D02*
X00467171Y00362171D01*
X00465403Y00369596D02*
X00467171Y00367828D01*
X00442514Y00305014D02*
X00444282Y00306782D01*
X00442514Y00314985D02*
X00444282Y00313217D01*
X00452485Y00314985D02*
X00450717Y00313217D01*
X00452485Y00305014D02*
X00450717Y00306782D01*
X00390596Y00282603D02*
X00388828Y00284371D01*
X00381403Y00282603D02*
X00383171Y00284371D01*
G54D19*
X00390000Y00330000D02*
Y00367500D01*
X00391600Y00369100*
Y00402500*
X00391800Y00402700*
X00390000Y00330000D02*
X00421200D01*
Y00330600*
X00434500Y00343900*
X00441850*
X00454150Y00356200*
X00455000*
X00377500Y00355000D02*
Y00361299D01*
X00377500D02*
X00387500Y00371299D01*
X00387500D02*
Y00410000D01*
X00455000Y00356200D02*
Y00355000D01*
X00470000*
X00342500Y00360000D02*
X00343250D01*
X00350750Y00367500*
X00357500*
X00342500Y00380000D02*
X00349600D01*
X00350700Y00378900*
Y00378700*
X00351900Y00377500*
X00357500*
X00297500Y00363700D02*
X00307500D01*
X00308350*
X00344550Y00327500*
X00345700*
X00386000Y00287200*
X00342000Y00410000D02*
Y00387500D01*
X00342499*
X00342499D02*
Y00380000D01*
X00342499D02*
X00342500D01*
X00322500Y00437500D02*
X00328100D01*
X00330700Y00434900*
X00348700*
X00350000Y00436200*
X00361100*
X00365500Y00431800*
Y00417100*
X00370000Y00412600*
Y00401900*
X00370100Y00402000*
X00380600*
X00357500Y00367500D02*
X00364000Y00361000D01*
X00371500*
X00377500Y00355000*
X00357500Y00377500D02*
X00364000Y00384000D01*
X00371500*
X00377500Y00390000*
X00382500Y00436200D02*
X00389500D01*
X00393300Y00440000*
X00402500*
X00382500Y00422500D02*
Y00436200D01*
X00377500Y00410000D02*
Y00417500D01*
X00382500Y00422500*
X00430000Y00412500D02*
X00420000D01*
Y00423000*
X00422500Y00425500*
X00410000Y00397500D02*
X00420000D01*
Y00412500*
X00460000Y00381300D02*
X00463700D01*
X00470000Y00375000*
X00460000Y00381300D02*
Y00392500D01*
X00445000Y00397500D02*
X00455000D01*
X00460000Y00392500*
X00455000Y00381300D02*
X00460000D01*
X00311300Y00447500D02*
Y00446900D01*
X00315700Y00442500*
X00317500*
X00322500Y00437500*
X00311300Y00447500D02*
Y00452499D01*
X00311300D02*
Y00452500D01*
X00312499*
X00312499D02*
X00312500D01*
Y00458700*
G54D20*
X00178800Y00355000D02*
Y00360500D01*
X00179300Y00361000*
Y00365000*
X00192500Y00356300D02*
Y00384300D01*
X00198200Y00390000*
X00200700*
X00255600Y00335100D02*
Y00341700D01*
X00259900Y00346000*
Y00352500*
X00255600Y00335100D02*
Y00332700D01*
X00268000Y00320300*
X00279600*
X00290300Y00309600*
Y00302900*
X00306000Y00287200*
X00225000Y00352500D02*
Y00363700D01*
X00275000Y00352500D02*
Y00345000D01*
X00278500Y00341500*
Y00335100*
X00240000Y00333700D02*
X00240600D01*
X00249500Y00324800*
Y00313600*
X00264700Y00298400*
X00274800*
X00286000Y00287200*
X00285000Y00352500D02*
X00300300Y00337200D01*
Y00302900*
X00316000Y00287200*
X00295000Y00352500D02*
X00307400Y00340100D01*
Y00305800*
X00326000Y00287200*
X00305000Y00352500D02*
X00337100Y00320400D01*
X00342800*
X00376000Y00287200*
X00406000D02*
Y00302600D01*
X00407500Y00304100*
Y00320000*
X00416000Y00287200D02*
Y00298950D01*
X00421200Y00304150*
Y00305000*
X00428800Y00330000D02*
X00447500D01*
X00421200Y00305000D02*
Y00330000D01*
X00195300Y00365000D02*
Y00367100D01*
X00198200Y00370000*
X00200700*
X00195300Y00365000D02*
Y00362650D01*
X00201650Y00356300*
X00202500*
X00158790Y00375000D02*
Y00377290D01*
X00158790D02*
X00161800Y00380300D01*
X00170100*
X00170400Y00380000*
X00179300*
X00158790Y00375000D02*
Y00369473D01*
X00158790D02*
X00164090Y00364173D01*
X00179300Y00385000D02*
X00181800D01*
X00190000Y00393200*
Y00395900*
X00197000Y00402900*
X00204600*
X00217500Y00390000*
Y00352500*
X00222500Y00347500*
X00230000*
X00235000Y00352500*
X00179300Y00390000D02*
X00182500D01*
X00187500Y00395000*
Y00397500*
X00197500Y00407500*
X00205000*
X00220000Y00392500*
Y00367500*
X00230000*
X00235000Y00372500*
Y00382500*
X00164090Y00375000D02*
X00179300D01*
X00200700Y00385000D02*
X00205700D01*
X00205800Y00385100*
Y00386100*
X00206000Y00386300*
X00210000*
X00200700Y00380000D02*
X00205700D01*
X00205800Y00379900*
Y00378900*
X00206000Y00378700*
X00210000*
X00200700Y00375000D02*
X00203200D01*
X00205600Y00372600*
Y00371700*
X00206000Y00371300*
X00210000*
X00200700Y00365000D02*
X00205700D01*
X00205800Y00364900*
Y00363900*
X00206000Y00363700*
X00210000*
X00255000Y00382500D02*
Y00361600D01*
X00259900Y00356700*
Y00352500*
X00245000Y00382500D02*
Y00368700D01*
X00250000Y00363700*
Y00335100*
X00267100Y00318000*
X00278700*
X00288000Y00308700*
Y00295200*
X00296000Y00287200*
X00277500Y00415000D02*
X00290300D01*
X00305300Y00400000*
X00257500Y00426200D02*
X00268700Y00415000D01*
X00277500*
X00272500Y00363700D02*
Y00360000D01*
X00275000Y00357500*
Y00352500*
X00272500Y00363700D02*
X00282500D01*
X00225000Y00371300D02*
X00225600D01*
X00230000Y00375700*
Y00382500*
X00245000Y00425000D02*
Y00432600D01*
X00248700Y00436300*
Y00442500*
X00202500Y00425000D02*
X00228500Y00399000D01*
Y00391000*
X00230000Y00389500*
Y00382500*
X00247500Y00400000D02*
X00255000Y00392500D01*
Y00382500*
X00237500Y00400000D02*
X00245000Y00392500D01*
Y00382500*
X00277500Y00438700D02*
X00283800D01*
X00285000Y00437500*
X00292500*
X00262500Y00371300D02*
X00272500D01*
X00328800Y00380000D02*
X00342500D01*
X00328800Y00370000D02*
Y00369400D01*
X00332000Y00366200*
X00335550*
X00341750Y00360000*
X00342500*
X00307500Y00371300D02*
X00316200D01*
X00317500Y00370000*
X00321200*
X00305300Y00420000D02*
Y00427800D01*
X00307500Y00430000*
Y00433100*
X00311300Y00436900*
Y00437500*
X00280000Y00377500D02*
X00282500Y00375000D01*
Y00371300*
X00280000Y00377500D02*
Y00392500D01*
X00287500Y00400000*
X00305000Y00382500D02*
Y00377500D01*
X00307500Y00375000*
Y00371300*
X00295000Y00382500D02*
X00300000Y00387500D01*
X00314300*
X00321200Y00380600*
Y00380000*
X00295000Y00382500D02*
Y00377500D01*
X00297500Y00375000*
Y00371300*
X00285000Y00382500D02*
X00290600Y00376900D01*
Y00371100*
X00294200Y00367500*
X00315700*
X00396000Y00287200*
X00292500Y00437500D02*
X00303700D01*
Y00447500*
X00159000Y00442400D02*
X00178900Y00422500D01*
X00195000*
X00225000Y00392500*
Y00382500*
X00192500Y00465000D02*
X00202500Y00455000D01*
Y00425000*
X00256300Y00442500D02*
X00265000D01*
X00268800Y00446300*
X00277500*
X00256300Y00442500D02*
Y00442499D01*
X00256300D02*
Y00437500D01*
X00257499*
X00257499D02*
X00257500Y00437499D01*
X00257500D02*
Y00433800D01*
X00256300Y00452500D02*
X00265000D01*
X00268700Y00456200*
X00277500*
X00222500Y00466300D02*
X00223100D01*
X00229300Y00472500*
X00237500*
X00242500Y00467500*
Y00459300*
X00248700Y00453100*
Y00452500*
X00212500Y00465000D02*
X00221200D01*
X00222500Y00466300*
X00277500Y00446300D02*
X00283800D01*
X00285000Y00447500*
X00292500*
X00277500Y00456200D02*
X00283700D01*
X00285000Y00457500*
X00292500*
X00322500Y00447500D02*
X00326300Y00443700D01*
X00330600*
X00333700Y00440600*
Y00440000*
X00322500Y00457500D02*
X00327500Y00452500D01*
X00341200*
X00322500Y00467500D02*
X00331200D01*
X00341300Y00440000D02*
X00362500D01*
X00372500Y00430000*
Y00422500*
X00338800Y00467500D02*
Y00466900D01*
X00341600Y00464100*
X00342500*
X00343200Y00464800*
X00363300*
X00366900Y00461200*
X00367500*
X00348800Y00452500D02*
Y00452499D01*
X00348800D02*
Y00447500D01*
X00349999*
X00349999D02*
X00350000Y00447499D01*
X00350000D02*
Y00443800D01*
X00332500Y00448700D02*
X00333350D01*
X00337050Y00445000*
X00337500*
Y00444400*
X00341300Y00440600*
Y00440000*
X00332500Y00456300D02*
X00333350D01*
X00338800Y00461750*
Y00467500*
X00357500Y00461200D02*
X00347500D01*
Y00457500*
X00347500*
X00348799*
X00348799D02*
X00348800Y00457499D01*
X00348800D02*
Y00452500D01*
X00302500Y00458700D02*
X00303350D01*
X00307050Y00455000*
X00307500*
Y00441900*
X00311300Y00438100*
Y00437500*
X00367500Y00461200D02*
Y00450000D01*
X00375000Y00442500*
Y00430000*
X00382500Y00422500*
G54D23*
X00110000Y00110000D02*
Y00110500D01*
Y00110000D02*
X00110500D01*
X00110000D02*
Y00109500D01*
Y00110000D02*
X00109500D01*
X00111500D02*
X00116500D01*
X00110000Y00108500D02*
Y00105100D01*
Y00111500D02*
Y00116000D01*
X00104000Y00110000D02*
X00108500D01*
X00113000D02*
G75*
G03X00113000I-00003000D01*
G01X00112000D02*
G03X00112000I-00002000D01*
G01X00490000D02*
Y00110500D01*
Y00110000D02*
X00490500D01*
X00490000D02*
Y00109500D01*
Y00110000D02*
X00489500D01*
X00491500D02*
X00496500D01*
X00490000Y00108500D02*
Y00105100D01*
Y00111500D02*
Y00116000D01*
X00484000Y00110000D02*
X00488500D01*
X00493000D02*
G03X00493000I-00003000D01*
G01X00492000D02*
G03X00492000I-00002000D01*
G01X00490000Y00490000D02*
Y00490500D01*
Y00490000D02*
X00490500D01*
X00490000D02*
Y00489500D01*
Y00490000D02*
X00489500D01*
X00491500D02*
X00496500D01*
X00490000Y00488500D02*
Y00485100D01*
Y00491500D02*
Y00496000D01*
X00484000Y00490000D02*
X00488500D01*
X00493000D02*
G03X00493000I-00003000D01*
G01X00492000D02*
G03X00492000I-00002000D01*
G54D25*
G01X00474311Y00140000D02*
G03X00474311I-00014311D01*
G01X00441130Y00139999D02*
G03X00441130I-00011130D01*
G01X00458850Y00163700D02*
G03X00458850I-00011350D01*
G01Y00285700D02*
G03X00458850I-00011350D01*
G01X00454550Y00310000D02*
G03X00454550I-00007050D01*
G01X00452000Y00433500D02*
G03X00452000I-00009500D01*
G01X00474311Y00460000D02*
G03X00474311I-00014311D01*
G01X00432000Y00449500D02*
G03X00432000I-00009500D01*
G01X00182750Y00442400D02*
G03X00182750I-00006750D01*
G01Y00467600D02*
G03X00182750I-00006750D01*
G01X00154311Y00140000D02*
G03X00154311I-00014311D01*
G01X00163850Y00163700D02*
G03X00163850I-00011350D01*
G01Y00285700D02*
G03X00163850I-00011350D01*
G01X00169850Y00326496D02*
G03X00169850I-00011350D01*
G01X00477500Y00375017D02*
Y00477000D01*
G03X00477000Y00477500I-00000500J00000000*
G01X00123000*
G03X00122500Y00477000I00000000J-00000500*
G01Y00123000*
G03X00123000Y00122500I00000500J00000000*
G01X00477000*
G03X00477500Y00123000I00000000J00000500*
G01Y00354982*
X00477500D02*
G03X00477499Y00354999I-00000500J00000000D01*
G01Y00355000D02*
G03X00477500Y00355017I-00000499J00000017D01*
G01Y00364982*
X00477500D02*
G03X00477499Y00364999I-00000500J00000000D01*
G01Y00365000D02*
G03X00477500Y00365017I-00000499J00000017D01*
G01Y00374982*
X00477500D02*
G03X00477499Y00374999I-00000500J00000000D01*
G01Y00375000D02*
G03X00477500Y00375017I-00000499J00000017D01*
G01X00465450Y00369642D02*
G03Y00370357I-00000349J00000358D01*
G01X00463524Y00375565D02*
G03X00465450Y00370357I00006476J-00000565D01*
G01X00463524Y00375565D02*
G03X00463380Y00375963I-00000497J00000044D01*
G01X00462189Y00377153*
X00462189D02*
G03X00461836Y00377299I-00000352J-00000353D01*
G01X00461836D02*
X00460570D01*
X00460570D02*
G03X00460109Y00376608I00000000J-00000499D01*
G01X00460300Y00375650D02*
G03X00460109Y00376608I-00002500J00000000D01*
G01X00460300Y00375650D02*
Y00371750D01*
X00457809Y00369249D02*
G03X00460300Y00371750I-00000009J00002501D01*
G01X00457809Y00369249D02*
G03Y00368250I00000002J-00000499D01*
G01X00460300Y00365750D02*
G03X00457809Y00368250I-00002500J00000000D01*
G01X00460300Y00365750D02*
Y00361850D01*
X00459768Y00360308D02*
G03X00460300Y00361850I-00001968J00001542D01*
G01X00459768Y00360308D02*
G03Y00359691I00000393J-00000308D01*
G01X00460032Y00359275D02*
G03X00459768Y00359691I-00002232J-00001125D01*
G01X00460032Y00359275D02*
G03X00460479Y00359000I00000447J00000225D01*
G01X00464638*
G03X00465021Y00359178I00000000J00000500*
G01X00465450Y00359642D02*
G03X00465021Y00359178I00004550J-00004642D01*
G01X00465450Y00359642D02*
G03Y00360357I-00000349J00000358D01*
G01Y00369642D02*
G03Y00360357I00004550J-00004642D01*
G01X00318666Y00462115D02*
G03Y00462884I-00000319J00000385D01*
G01X00318271Y00463242D02*
G03X00318666Y00462884I00004229J00004258D01*
G01X00318271Y00463242D02*
G03X00317483Y00463131I-00000351J-00000354D01*
G01X00317268Y00462808D02*
G03X00317483Y00463131I-00001968J00001542D01*
G01X00317268Y00462808D02*
G03Y00462191I00000393J-00000308D01*
G01X00317483Y00461868D02*
G03X00317268Y00462191I-00002183J-00001218D01*
G01X00317483Y00461868D02*
G03X00318271Y00461757I00000436J00000244D01*
G01X00318666Y00462115D02*
G03X00318271Y00461757I00003834J-00004615D01*
G01X00297731Y00462191D02*
G03Y00462808I-00000392J00000309D01*
G01X00297516Y00463131D02*
G03X00297731Y00462808I00002184J00001219D01*
G01X00297516Y00463131D02*
G03X00296728Y00463242I-00000435J-00000243D01*
G01X00296333Y00462884D02*
G03X00296728Y00463242I-00003833J00004616D01*
G01X00296333Y00462884D02*
G03Y00462115I00000320J-00000384D01*
G01X00296728Y00461757D02*
G03X00296333Y00462115I-00004228J-00004257D01*
G01X00296728Y00461757D02*
G03X00297516Y00461868I00000352J00000355D01*
G01X00297731Y00462191D02*
G03X00297516Y00461868I00001969J-00001541D01*
G01X00160442Y00390835D02*
G03Y00391644I-00000293J00000405D01*
G01X00159926Y00392063D02*
G03X00160442Y00391644I00004164J00004590D01*
G01X00159926Y00392063D02*
G03X00159092Y00391659I-00000335J-00000369D01*
G01Y00390820D02*
G03Y00391659I-00006182J00000420D01*
G01Y00390820D02*
G03X00159926Y00390416I00000498J-00000033D01*
G01X00160442Y00390835D02*
G03X00159926Y00390416I00003648J-00005008D01*
G01X00474311Y00140000D02*
G03X00474311I-00014311D01*
G01X00441130Y00139999D02*
G03X00441130I-00011130D01*
G01X00458850Y00163700D02*
G03X00458850I-00011350D01*
G01Y00285700D02*
G03X00458850I-00011350D01*
G01X00454550Y00310000D02*
G03X00454550I-00007050D01*
G01X00476500Y00375000D02*
G03Y00374984I00000500J-00000017D01*
G01X00474549Y00370357D02*
G03X00476500Y00374984I-00004549J00004643D01*
G01X00474549Y00370357D02*
G03Y00369642I00000350J-00000357D01*
G01X00476500Y00365015D02*
G03X00474549Y00369642I-00006500J-00000015D01*
G01X00476500Y00365015D02*
G03Y00365000I00000500J00000002D01*
Y00364984I00000500J-00000017*
G01X00474549Y00360357D02*
G03X00476500Y00364984I-00004549J00004643D01*
G01X00474549Y00360357D02*
G03Y00359642I00000350J-00000357D01*
G01X00476500Y00355015D02*
G03X00474549Y00359642I-00006500J-00000015D01*
G01X00476500Y00355015D02*
G03Y00355000I00000500J00000002D01*
Y00354984I00000500J-00000017*
G01X00465021Y00350821D02*
G03X00476500Y00354984I00004979J00004179D01*
G01X00465021Y00350821D02*
G03X00464638Y00350999I-00000382J-00000321D01*
G01X00464638D02*
X00455000D01*
X00454837Y00351003D02*
G03X00455000Y00350999I00000163J00003997D01*
G01X00454837Y00351003D02*
G03X00454464Y00350857I-00000019J-00000499D01*
G01X00444678Y00341071*
X00441850Y00339899D02*
G03X00444678Y00341071I00000000J00004001D01*
G01X00441850Y00339899D02*
X00436363D01*
X00436363D02*
G03X00436010Y00339753I00000000J-00000499D01*
G01X00436010D02*
X00431807Y00335550D01*
X00431807D02*
G03X00431926Y00334756I00000354J-00000352D01*
G01X00433091Y00333425D02*
G03X00431926Y00334756I-00002341J-00000875D01*
G01X00433091Y00333425D02*
G03X00433560Y00333100I00000469J00000175D01*
G01X00440863*
X00440863D02*
G03X00441303Y00333361I00000000J00000500D01*
G01Y00326638D02*
G03Y00333361I00006197J00003362D01*
G01Y00326638D02*
G03X00440863Y00326899I-00000439J-00000238D01*
G01X00440863D02*
X00433560D01*
X00433560D02*
G03X00433091Y00326574I00000000J-00000499D01*
G01X00430750Y00324949D02*
G03X00433091Y00326574I00000000J00002501D01*
G01X00430750Y00324949D02*
X00426850D01*
X00425308Y00325481D02*
G03X00426850Y00324949I00001542J00001969D01*
G01X00425308Y00325481D02*
G03X00424691I-00000308J-00000392D01*
G01X00424525Y00325362D02*
G03X00424691Y00325481I-00001375J00002088D01*
G01X00424525Y00325362D02*
G03X00424300Y00324944I00000275J-00000417D01*
G01Y00310305*
X00424300D02*
G03X00424525Y00309887I00000500J00000000D01*
G01X00424691Y00309768D02*
G03X00424525Y00309887I-00001541J-00001968D01*
G01X00424691Y00309768D02*
G03X00425308I00000309J00000393D01*
G01X00426850Y00310300D02*
G03X00425308Y00309768I00000000J-00002500D01*
G01X00426850Y00310300D02*
X00430750D01*
X00433250Y00307800D02*
G03X00430750Y00310300I-00002500J00000000D01*
G01X00433250Y00307800D02*
Y00302200D01*
X00430750Y00299699D02*
G03X00433250Y00302200I00000000J00002501D01*
G01X00430750Y00299699D02*
X00426850D01*
X00425308Y00300231D02*
G03X00426850Y00299699I00001542J00001969D01*
G01X00425308Y00300231D02*
G03X00424691I-00000308J-00000392D01*
G01X00423150Y00299699D02*
G03X00424691Y00300231I00000000J00002501D01*
G01X00423150Y00299699D02*
X00421341D01*
X00421341D02*
G03X00420987Y00299553I00000000J-00000499D01*
G01X00420987D02*
X00419246Y00297812D01*
G03X00419100Y00297458I00000354J-00000353*
G01X00419100D02*
Y00293203D01*
G03X00419342Y00292774I00000500J00000000*
G01X00419443Y00292712D02*
G03X00419342Y00292774I-00003443J-00005512D01*
G01X00419443Y00292712D02*
G03X00420090Y00292813I00000265J00000424D01*
G01X00422000Y00293700D02*
G03X00420090Y00292813I00000000J-00002500D01*
G01X00422000Y00293700D02*
X00430000D01*
X00432500Y00291200D02*
G03X00430000Y00293700I-00002500J00000000D01*
G01X00432500Y00291200D02*
Y00283200D01*
X00430000Y00280699D02*
G03X00432500Y00283200I00000000J00002501D01*
G01X00430000Y00280699D02*
X00422000D01*
X00420090Y00281586D02*
G03X00422000Y00280699I00001910J00001614D01*
G01X00420090Y00281586D02*
G03X00419443Y00281687I-00000381J-00000322D01*
G01X00411357Y00282650D02*
G03X00419443Y00281687I00004643J00004550D01*
G01X00411357Y00282650D02*
G03X00410642I-00000357J-00000349D01*
G01X00401357D02*
G03X00410642I00004643J00004550D01*
G01X00401357D02*
G03X00400642I-00000357J-00000349D01*
G01X00391357D02*
G03X00400642I00004643J00004550D01*
G01X00391357D02*
G03X00390642I-00000357J-00000349D01*
G01X00381357D02*
G03X00390642I00004643J00004550D01*
G01X00381357D02*
G03X00380642I-00000357J-00000349D01*
G01X00371357D02*
G03X00380642I00004643J00004550D01*
G01X00371357D02*
G03X00370642I-00000357J-00000349D01*
G01X00361357D02*
G03X00370642I00004643J00004550D01*
G01X00361357D02*
G03X00360642I-00000357J-00000349D01*
G01X00351357D02*
G03X00360642I00004643J00004550D01*
G01X00351357D02*
G03X00350642I-00000357J-00000349D01*
G01X00341357D02*
G03X00350642I00004643J00004550D01*
G01X00341357D02*
G03X00340642I-00000357J-00000349D01*
G01X00331357D02*
G03X00340642I00004643J00004550D01*
G01X00331357D02*
G03X00330642I-00000357J-00000349D01*
G01X00321357D02*
G03X00330642I00004643J00004550D01*
G01X00321357D02*
G03X00320642I-00000357J-00000349D01*
G01X00311357D02*
G03X00320642I00004643J00004550D01*
G01X00311357D02*
G03X00310642I-00000357J-00000349D01*
G01X00301357D02*
G03X00310642I00004643J00004550D01*
G01X00301357D02*
G03X00300642I-00000357J-00000349D01*
G01X00291357D02*
G03X00300642I00004643J00004550D01*
G01X00291357D02*
G03X00290642I-00000357J-00000349D01*
G01X00281357D02*
G03X00290642I00004643J00004550D01*
G01X00281357D02*
G03X00280642I-00000357J-00000349D01*
G01X00274287Y00293470D02*
G03X00280642Y00282650I00001713J-00006270D01*
G01X00274287Y00293470D02*
G03X00274509Y00294306I-00000130J00000482D01*
G01X00274509D02*
X00273662Y00295153D01*
X00273662D02*
G03X00273308Y00295299I-00000353J-00000353D01*
G01X00273308D02*
X00264700D01*
X00262507Y00296207D02*
G03X00264700Y00295299I00002193J00002193D01*
G01X00262507Y00296207D02*
X00247307Y00311407D01*
X00246399Y00313600D02*
G03X00247307Y00311407I00003101J00000000D01*
G01X00246399Y00313600D02*
Y00323308D01*
X00246399D02*
G03X00246253Y00323662I-00000499J00000000D01*
G01X00246253D02*
X00240812Y00329103D01*
X00240812D02*
G03X00240458Y00329249I-00000353J-00000353D01*
G01X00240458D02*
X00237450D01*
X00234949Y00331750D02*
G03X00237450Y00329249I00002501J00000000D01*
G01X00234949Y00331750D02*
Y00335650D01*
X00235481Y00337191D02*
G03X00234949Y00335650I00001969J-00001541D01*
G01X00235481Y00337191D02*
G03Y00337808I-00000392J00000309D01*
G01X00235449Y00337849D02*
G03X00235481Y00337808I00002001J00001501D01*
G01X00235449Y00337849D02*
G03X00235049Y00338049I-00000399J-00000299D01*
G01X00235049D02*
X00221200D01*
X00218901Y00339001D02*
G03X00221200Y00338049I00002299J00002299D01*
G01X00218901Y00339001D02*
X00208800Y00349103D01*
X00208800D02*
G03X00208446Y00349249I-00000353J-00000353D01*
G01X00208446D02*
X00208300D01*
X00208300D02*
G03X00207800Y00348749I00000000J-00000499D01*
G01X00207800D02*
Y00346750D01*
X00205300Y00344249D02*
G03X00207800Y00346750I00000000J00002501D01*
G01X00205300Y00344249D02*
X00199700D01*
X00197866Y00345050D02*
G03X00199700Y00344249I00001834J00001700D01*
G01X00197866Y00345050D02*
G03X00197133I-00000366J-00000339D01*
G01X00195300Y00344249D02*
G03X00197133Y00345050I00000000J00002501D01*
G01X00195300Y00344249D02*
X00189700D01*
X00187199Y00346750D02*
G03X00189700Y00344249I00002501J00000000D01*
G01X00187199Y00346750D02*
Y00348751D01*
X00187199D02*
G03X00186713Y00349251I-00000499J00000000D01*
G01X00184501Y00350201D02*
G03X00186713Y00349251I00002299J00002299D01*
G01X00184501Y00350201D02*
X00183682Y00351021D01*
X00183682D02*
G03X00182899Y00350922I-00000352J-00000353D01*
G01X00181356Y00349774D02*
G03X00182899Y00350922I-00000606J00002426D01*
G01X00181356Y00349774D02*
G03X00180988Y00349394I00000121J-00000484D01*
G01X00180500Y00348999D02*
G03X00180988Y00349394I00000000J00000501D01*
G01X00180500Y00348999D02*
X00169500D01*
X00169203Y00349097D02*
G03X00169500Y00348999I00000297J00000403D01*
G01X00169203Y00349097D02*
G03X00168548Y00349041I-00000295J-00000402D01*
G01X00157907Y00353765D02*
G03X00168548Y00349041I00006183J-00000418D01*
G01X00157907Y00353765D02*
G03X00157073Y00354170I-00000497J00000034D01*
G01X00149261Y00363769D02*
G03X00157073Y00354170I00003648J-00005009D01*
G01X00149261Y00363769D02*
G03Y00364577I-00000294J00000404D01*
G01Y00374595D02*
G03Y00364577I00003648J-00005008D01*
G01Y00374595D02*
G03Y00375404I-00000294J00000405D01*
G01Y00385422D02*
G03Y00375404I00003648J-00005008D01*
G01Y00385422D02*
G03Y00386230I-00000294J00000404D01*
G01X00157073Y00395829D02*
G03X00149261Y00386230I-00004163J-00004588D01*
G01X00157073Y00395829D02*
G03X00157907Y00396234I00000336J00000371D01*
G01X00167738Y00391644D02*
G03X00157907Y00396234I-00003647J00005009D01*
G01X00167738Y00391644D02*
G03Y00390835I00000295J-00000403D01*
G01X00170019Y00384023D02*
G03X00167738Y00390835I-00005928J00001803D01*
G01X00170019Y00384023D02*
G03X00170442Y00383381I00000478J-00000145D01*
G01X00171338Y00383141D02*
G03X00170442Y00383381I-00001238J-00002841D01*
G01X00171338Y00383141D02*
G03X00171538Y00383100I00000200J00000459D01*
G01X00171538D02*
X00172787D01*
G03X00173259Y00383764I00000000J00000500*
G01X00173767Y00387205D02*
G03X00173259Y00383764I00003033J-00002205D01*
G01X00173767Y00387205D02*
G03Y00387794I-00000403J00000295D01*
G01Y00392205D02*
G03Y00387794I00003033J-00002205D01*
G01Y00392205D02*
G03Y00392794I-00000403J00000295D01*
G01Y00397205D02*
G03Y00392794I00003033J-00002205D01*
G01Y00397205D02*
G03Y00397794I-00000403J00000295D01*
G01X00176800Y00403750D02*
G03X00173767Y00397794I00000000J-00003750D01*
G01X00176800Y00403750D02*
X00181800D01*
X00185440Y00400897D02*
G03X00181800Y00403750I-00003640J-00000897D01*
G01X00185440Y00400897D02*
G03X00186279Y00400664I00000486J00000120D01*
G01X00186279D02*
X00195307Y00409692D01*
X00197500Y00410600D02*
G03X00195307Y00409692I00000000J-00003100D01*
G01X00197500Y00410600D02*
X00201308D01*
X00201308D02*
G03X00201662Y00411453I00000000J00000500D01*
G01X00201662D02*
X00193862Y00419253D01*
X00193862D02*
G03X00193508Y00419399I-00000353J-00000353D01*
G01X00193508D02*
X00178900D01*
X00176707Y00420307D02*
G03X00178900Y00419399I00002193J00002193D01*
G01X00176707Y00420307D02*
X00170371Y00426644D01*
X00170371D02*
G03X00169531Y00426173I-00000353J-00000352D01*
G01X00151012Y00414974D02*
G03X00169531Y00426173I00007488J00008529D01*
G01X00151012Y00414974D02*
G03X00150223Y00414400I-00000329J-00000375D01*
G01X00147307Y00418395D02*
G03X00150223Y00414400I-00007307J-00008395D01*
G01X00147307Y00418395D02*
G03X00148093Y00418972I00000328J00000377D01*
G01X00157526Y00434812D02*
G03X00148093Y00418972I00000974J-00011308D01*
G01X00157526Y00434812D02*
G03X00157588Y00435799I-00000042J00000498D01*
G01X00165513Y00440627D02*
G03X00157588Y00435799I-00006513J00001773D01*
G01X00165513Y00440627D02*
G03X00165641Y00440142I00000482J-00000131D01*
G01X00165641D02*
X00180037Y00425746D01*
X00180037D02*
G03X00180391Y00425600I00000354J00000354D01*
G01X00195000*
X00195026Y00425599D02*
G03X00195000Y00425600I-00000026J-00003099D01*
G01X00195026Y00425599D02*
G03X00195525Y00426027I00000004J00000500D01*
G01X00199138Y00431196D02*
G03X00195525Y00426027I00003362J-00006196D01*
G01X00199138Y00431196D02*
G03X00199399Y00431636I-00000238J00000440D01*
G01X00199399D02*
Y00453508D01*
X00199399D02*
G03X00199253Y00453862I-00000499J00000000D01*
G01X00199253D02*
X00195000Y00458115D01*
X00195000D02*
G03X00194504Y00458241I-00000352J-00000353D01*
G01X00199258Y00462995D02*
G03X00194504Y00458241I-00006758J00002005D01*
G01X00199258Y00462995D02*
G03X00199384Y00462499I00000480J-00000142D01*
G01X00199384D02*
X00204692Y00457192D01*
X00205600Y00455000D02*
G03X00204692Y00457192I-00003100J00000000D01*
G01X00205600Y00455000D02*
Y00431636D01*
G03X00205861Y00431196I00000500J00000000*
G01X00209258Y00422995D02*
G03X00205861Y00431196I-00006758J00002005D01*
G01X00209258Y00422995D02*
G03X00209384Y00422499I00000480J-00000142D01*
G01X00209384D02*
X00227650Y00404233D01*
X00227650D02*
G03X00228503Y00404563I00000354J00000353D01*
G01X00228937Y00406094D02*
G03X00228503Y00404563I00003063J-00001694D01*
G01X00228937Y00406094D02*
G03X00228999Y00406336I-00000437J00000242D01*
G01X00228999D02*
Y00410500D01*
X00229500Y00411000D02*
G03X00228999Y00410500I00000000J-00000500D01*
G01X00229500Y00411000D02*
X00230999D01*
X00230999D02*
G03X00231499Y00411500I00000000J00000500D01*
G01X00231499D02*
Y00458596D01*
X00231499D02*
G03X00231264Y00459020I-00000499J00000000D01*
G01X00228204Y00463121D02*
G03X00231264Y00459020I00006796J00001879D01*
G01X00228204Y00463121D02*
G03X00227277Y00463214I-00000480J-00000133D01*
G01X00227018Y00462808D02*
G03X00227277Y00463214I-00001968J00001542D01*
G01X00227018Y00462808D02*
G03Y00462191I00000393J-00000308D01*
G01X00227550Y00460650D02*
G03X00227018Y00462191I-00002500J00000000D01*
G01X00227550Y00460650D02*
Y00456750D01*
X00225050Y00454249D02*
G03X00227550Y00456750I00000000J00002501D01*
G01X00225050Y00454249D02*
X00219950D01*
X00217449Y00456750D02*
G03X00219950Y00454249I00002501J00000000D01*
G01X00217449Y00456750D02*
Y00458900D01*
X00217449D02*
G03X00216655Y00459304I-00000499J00000000D01*
G01X00217465Y00470004D02*
G03X00216655Y00459304I-00004965J-00005004D01*
G01X00217465Y00470004D02*
G03X00218172Y00470008I00000352J00000355D01*
G01X00219950Y00470750D02*
G03X00218172Y00470008I00000000J-00002500D01*
G01X00219950Y00470750D02*
X00222958D01*
X00222958D02*
G03X00223312Y00470896I00000000J00000500D01*
G01X00227107Y00474692*
X00229300Y00475600D02*
G03X00227107Y00474692I00000000J-00003100D01*
G01X00229300Y00475600D02*
X00237500D01*
X00239692Y00474692D02*
G03X00237500Y00475600I-00002192J-00002192D01*
G01X00239692Y00474692D02*
X00244692Y00469692D01*
X00245600Y00467500D02*
G03X00244692Y00469692I-00003100J00000000D01*
G01X00245600Y00467500D02*
Y00460791D01*
G03X00245746Y00460437I00000500J00000000*
G01X00245746D02*
X00248487Y00457696D01*
X00248487D02*
G03X00248841Y00457550I00000354J00000354D01*
G01X00250650*
X00252191Y00457018D02*
G03X00250650Y00457550I-00001541J-00001968D01*
G01X00252191Y00457018D02*
G03X00252808I00000309J00000393D01*
G01X00253214Y00457277D02*
G03X00252808Y00457018I00001136J-00002227D01*
G01X00253214Y00457277D02*
G03X00253121Y00458204I-00000226J00000446D01*
G01X00257754Y00458510D02*
G03X00253121Y00458204I-00002754J00006490D01*
G01X00257754Y00458510D02*
G03X00257949Y00457550I00000195J-00000459D01*
G01X00257949D02*
X00258250D01*
X00260591Y00455925D02*
G03X00258250Y00457550I-00002341J-00000875D01*
G01X00260591Y00455925D02*
G03X00261060Y00455600I00000469J00000175D01*
G01X00263508*
X00263508D02*
G03X00263862Y00455746I00000000J00000500D01*
G01X00266507Y00458392*
X00268700Y00459300D02*
G03X00266507Y00458392I00000000J-00003100D01*
G01X00268700Y00459300D02*
X00272194D01*
G03X00272612Y00459525I00000000J00000500*
G01X00272731Y00459691D02*
G03X00272612Y00459525I00001969J-00001541D01*
G01X00272731Y00459691D02*
G03Y00460308I-00000392J00000309D01*
G01X00272199Y00461850D02*
G03X00272731Y00460308I00002501J00000000D01*
G01X00272199Y00461850D02*
Y00465750D01*
X00272564Y00467049D02*
G03X00272199Y00465750I00002136J-00001299D01*
G01X00272564Y00467049D02*
G03X00272583Y00467533I-00000426J00000260D01*
G01X00282415D02*
G03X00272584I-00004915J00002467D01*
G01X00282416D02*
G03X00282435Y00467049I00000446J-00000223D01*
G01X00282800Y00465750D02*
G03X00282435Y00467049I-00002500J00000000D01*
G01X00282800Y00465750D02*
Y00461850D01*
X00282519Y00460698D02*
G03X00282800Y00461850I-00002219J00001152D01*
G01X00282519Y00460698D02*
G03X00283245Y00460055I00000443J-00000229D01*
G01X00285000Y00460600D02*
G03X00283245Y00460055I00000000J-00003100D01*
G01X00285000Y00460600D02*
X00287087D01*
X00287087D02*
G03X00287504Y00460823I00000000J00000500D01*
G01X00288666Y00462115D02*
G03X00287504Y00460823I00003834J-00004615D01*
G01X00288666Y00462115D02*
G03Y00462884I-00000319J00000385D01*
G01X00297674Y00470537D02*
G03X00288666Y00462884I-00005174J-00003037D01*
G01X00297674Y00470537D02*
G03X00298371Y00470367I00000431J00000254D01*
G01X00299700Y00470750D02*
G03X00298371Y00470367I00000000J-00002500D01*
G01X00299700Y00470750D02*
X00305300D01*
X00307133Y00469949D02*
G03X00305300Y00470750I-00001833J-00001699D01*
G01X00307133Y00469949D02*
G03X00307866I00000367J00000340D01*
G01X00309700Y00470750D02*
G03X00307866Y00469949I00000000J-00002500D01*
G01X00309700Y00470750D02*
X00315300D01*
X00316628Y00470367D02*
G03X00315300Y00470750I-00001328J-00002117D01*
G01X00316628Y00470367D02*
G03X00317325Y00470537I00000266J00000424D01*
G01X00326723Y00471761D02*
G03X00317325Y00470537I-00004223J-00004261D01*
G01X00326723Y00471761D02*
G03X00327437Y00471772I00000352J00000355D01*
G01X00329250Y00472550D02*
G03X00327437Y00471772I00000000J-00002500D01*
G01X00329250Y00472550D02*
X00333150D01*
X00334691Y00472018D02*
G03X00333150Y00472550I-00001541J-00001968D01*
G01X00334691Y00472018D02*
G03X00335308I00000309J00000393D01*
G01X00336850Y00472550D02*
G03X00335308Y00472018I00000000J-00002500D01*
G01X00336850Y00472550D02*
X00340750D01*
X00342071Y00472172D02*
G03X00340750Y00472550I-00001321J-00002122D01*
G01X00342071Y00472172D02*
G03X00342729Y00472288I00000264J00000424D01*
G01X00344700Y00473250D02*
G03X00342729Y00472288I00000000J-00002500D01*
G01X00344700Y00473250D02*
X00350300D01*
X00352237Y00472329D02*
G03X00350300Y00473250I-00001937J-00001579D01*
G01X00352237Y00472329D02*
G03X00353012I00000388J00000316D01*
G01X00354950Y00473250D02*
G03X00353012Y00472329I00000000J-00002500D01*
G01X00354950Y00473250D02*
X00360050D01*
X00362091Y00472192D02*
G03X00360050Y00473250I-00002041J-00001442D01*
G01X00362091Y00472192D02*
G03X00362908I00000409J00000289D01*
G01X00364950Y00473250D02*
G03X00362908Y00472192I00000000J-00002500D01*
G01X00364950Y00473250D02*
X00370050D01*
X00372550Y00470750D02*
G03X00370050Y00473250I-00002500J00000000D01*
G01X00372550Y00470750D02*
Y00469033D01*
X00372550D02*
G03X00373448Y00468731I00000500J00000000D01*
G01X00372232Y00457013D02*
G03X00373448Y00468731I00010268J00004857D01*
G01X00372232Y00457013D02*
G03X00371492Y00457207I-00000451J-00000213D01*
G01X00370925Y00456908D02*
G03X00371492Y00457207I-00000875J00002342D01*
G01X00370925Y00456908D02*
G03X00370600Y00456439I00000175J-00000468D01*
G01X00370600D02*
Y00451491D01*
G03X00370746Y00451137I00000500J00000000*
G01X00370746D02*
X00376349Y00445534D01*
X00376349D02*
G03X00377202Y00445865I00000354J00000354D01*
G01X00379700Y00448250D02*
G03X00377202Y00445865I00000000J-00002500D01*
G01X00379700Y00448250D02*
X00385300D01*
X00387800Y00445750D02*
G03X00385300Y00448250I-00002500J00000000D01*
G01X00387800Y00445750D02*
Y00441850D01*
X00387760Y00441405D02*
G03X00387800Y00441850I-00002460J00000445D01*
G01X00387760Y00441405D02*
G03X00388605Y00440962I00000492J-00000088D01*
G01X00388605D02*
X00390471Y00442828D01*
X00393300Y00444000D02*
G03X00390471Y00442828I00000000J-00004000D01*
G01X00393300Y00444000D02*
X00394510D01*
G03X00395008Y00444458I00000000J00000500*
G01X00397500Y00446750D02*
G03X00395008Y00444458I00000000J-00002500D01*
G01X00397500Y00446750D02*
X00407500D01*
X00410000Y00444250D02*
G03X00407500Y00446750I-00002500J00000000D01*
G01X00410000Y00444250D02*
Y00435750D01*
X00407500Y00433249D02*
G03X00410000Y00435750I00000000J00002501D01*
G01X00407500Y00433249D02*
X00397500D01*
X00395091Y00435079D02*
G03X00397500Y00433249I00002409J00000671D01*
G01X00395091Y00435079D02*
G03X00394256Y00435299I-00000481J-00000133D01*
G01X00392328Y00433371*
X00389500Y00432199D02*
G03X00392328Y00433371I00000000J00004001D01*
G01X00389500Y00432199D02*
X00387000D01*
X00387000D02*
G03X00386500Y00431699I00000000J-00000499D01*
G01X00386500D02*
Y00427861D01*
X00386500D02*
G03X00386678Y00427478I00000500J00000000D01*
G01X00387142Y00427049D02*
G03X00386678Y00427478I-00004642J-00004549D01*
G01X00387142Y00427049D02*
G03X00387857I00000358J00000350D01*
G01X00396214Y00417165D02*
G03X00387857Y00427049I-00003714J00005335D01*
G01X00396214Y00417165D02*
G03X00396000Y00416755I00000286J-00000409D01*
G01Y00416000*
G03X00396500Y00415500I00000500J00000000*
G01X00400500*
X00402999Y00413013D02*
G03X00400500Y00415500I-00002499J-00000013D01*
G01X00402999Y00413013D02*
G03X00403999Y00413015I00000500J00000002D01*
G01X00403999D02*
Y00416000D01*
X00406500Y00418500D02*
G03X00403999Y00416000I00000000J-00002500D01*
G01X00406500Y00418500D02*
X00413500D01*
X00414750Y00418165D02*
G03X00413500Y00418500I-00001250J-00002165D01*
G01X00414750Y00418165D02*
G03X00415249I00000250J00000433D01*
G01X00415396Y00418243D02*
G03X00415250Y00418165I00001104J-00002243D01*
G01X00415396Y00418243D02*
G03X00415541Y00419032I-00000220J00000448D01*
G01X00429719Y00419325D02*
G03X00415541Y00419032I-00007219J00006175D01*
G01X00429719Y00419325D02*
G03X00430099Y00418500I00000380J-00000324D01*
G01X00433500*
X00434750Y00418165D02*
G03X00433500Y00418500I-00001250J-00002165D01*
G01X00434750Y00418165D02*
G03X00435249I00000250J00000433D01*
G01X00436500Y00418500D02*
G03X00435250Y00418165I00000000J-00002500D01*
G01X00436500Y00418500D02*
X00443500D01*
X00446000Y00416000D02*
G03X00443500Y00418500I-00002500J00000000D01*
G01X00446000Y00416000D02*
Y00409000D01*
X00443500Y00406499D02*
G03X00446000Y00409000I00000000J00002501D01*
G01X00443500Y00406499D02*
X00436500D01*
X00435250Y00406834D02*
G03X00436500Y00406499I00001250J00002166D01*
G01X00435249Y00406834D02*
G03X00434750I-00000249J-00000432D01*
G01X00433500Y00406499D02*
G03X00434750Y00406834I00000000J00002501D01*
G01X00433500Y00406499D02*
X00426500D01*
X00425250Y00406834D02*
G03X00426500Y00406499I00001250J00002166D01*
G01X00425249Y00406834D02*
G03X00424750I-00000249J-00000432D01*
G01X00424333Y00406642D02*
G03X00424750Y00406834I-00000833J00002358D01*
G01X00424333Y00406642D02*
G03X00424000Y00406171I00000167J-00000470D01*
G01X00424000D02*
Y00397500D01*
X00420000Y00393499D02*
G03X00424000Y00397500I00000000J00004001D01*
G01X00420000Y00393499D02*
X00415535D01*
X00415535D02*
G03X00415147Y00393315I00000000J-00000499D01*
G01X00415114Y00401724D02*
G03X00415147Y00393315I-00005114J-00004224D01*
G01X00415114Y00401724D02*
G03X00415999Y00402043I00000385J00000319D01*
G01X00415999D02*
Y00406171D01*
X00415999D02*
G03X00415666Y00406642I-00000499J00000000D01*
G01X00415250Y00406834D02*
G03X00415666Y00406642I00001250J00002166D01*
G01X00415249Y00406834D02*
G03X00414750I-00000249J-00000432D01*
G01X00413500Y00406499D02*
G03X00414750Y00406834I00000000J00002501D01*
G01X00413500Y00406499D02*
X00406500D01*
X00404000Y00408986D02*
G03X00406500Y00406499I00002500J00000014D01*
G01X00404000Y00408986D02*
G03X00403000Y00408984I-00000499J-00000001D01*
G01Y00407000*
X00400500Y00404499D02*
G03X00403000Y00407000I00000000J00002501D01*
G01X00400500Y00404499D02*
X00396500D01*
X00396500D02*
G03X00396000Y00403999I00000000J-00000499D01*
G01X00396000D02*
Y00403400D01*
X00395775Y00402167D02*
G03X00396000Y00403400I-00003275J00001233D01*
G01X00395775Y00402167D02*
G03X00395750Y00402070I00000468J-00000175D01*
G01X00395622Y00401520D02*
G03X00395750Y00402070I-00003822J00001180D01*
G01X00395622Y00401520D02*
G03X00395600Y00401373I00000478J-00000146D01*
G01Y00373189*
X00395600D02*
G03X00396418Y00372804I00000500J00000000D01*
G01X00394886Y00356843D02*
G03X00396418Y00372804I00008775J00007212D01*
G01X00394886Y00356843D02*
G03X00394000Y00356525I-00000385J-00000317D01*
G01X00394000D02*
Y00334500D01*
G03X00394500Y00334000I00000500J00000000*
G01X00416970*
G03X00417350Y00334175I00000000J00000500*
G01X00419250Y00335050D02*
G03X00417350Y00334175I00000000J-00002500D01*
G01X00419250Y00335050D02*
X00419786D01*
G03X00420139Y00335196I00000000J00000500*
G01X00420139D02*
X00431671Y00346728D01*
X00434500Y00347900D02*
G03X00431671Y00346728I00000000J-00004000D01*
G01X00434500Y00347900D02*
X00439986D01*
G03X00440339Y00348046I00000000J00000500*
G01X00440339D02*
X00449553Y00357260D01*
X00449553D02*
G03X00449699Y00357613I-00000353J00000353D01*
G01X00449699D02*
Y00358150D01*
X00450231Y00359691D02*
G03X00449699Y00358150I00001969J-00001541D01*
G01X00450231Y00359691D02*
G03Y00360308I-00000392J00000309D01*
G01X00449699Y00361850D02*
G03X00450231Y00360308I00002501J00000000D01*
G01X00449699Y00361850D02*
Y00365750D01*
X00452190Y00368250D02*
G03X00449699Y00365750I00000010J-00002500D01*
G01X00452190Y00368250D02*
G03Y00369249I-00000001J00000500D01*
G01X00449699Y00371750D02*
G03X00452190Y00369250I00002501J00000000D01*
G01X00449699Y00371750D02*
Y00375650D01*
X00450231Y00377191D02*
G03X00449699Y00375650I00001969J-00001541D01*
G01X00450231Y00377191D02*
G03Y00377808I-00000392J00000309D01*
G01X00449699Y00379350D02*
G03X00450231Y00377808I00002501J00000000D01*
G01X00449699Y00379350D02*
Y00383250D01*
X00452200Y00385750D02*
G03X00449699Y00383250I00000000J-00002500D01*
G01X00452200Y00385750D02*
X00455499D01*
X00455499D02*
G03X00455999Y00386250I00000000J00000500D01*
G01X00455999D02*
Y00386901D01*
X00455999D02*
G03X00455749Y00387334I-00000499J00000000D01*
G01X00454499Y00389500D02*
G03X00455749Y00387334I00002501J00000000D01*
G01X00454499Y00389500D02*
Y00392136D01*
X00454499D02*
G03X00454353Y00392489I-00000499J00000000D01*
G01X00454353D02*
X00453489Y00393353D01*
X00453489D02*
G03X00453136Y00393499I-00000352J-00000353D01*
G01X00453136D02*
X00450535D01*
X00450535D02*
G03X00450147Y00393315I00000000J-00000499D01*
G01Y00401684D02*
G03Y00393315I-00005147J-00004184D01*
G01Y00401684D02*
G03X00450535Y00401500I00000388J00000316D01*
G01X00450535D02*
X00455000D01*
X00457828Y00400328D02*
G03X00455000Y00401500I-00002828J-00002828D01*
G01X00457828Y00400328D02*
X00460010Y00398146D01*
G03X00460363Y00398000I00000353J00000354*
G01X00460363D02*
X00463000D01*
X00465282Y00396520D02*
G03X00463000Y00398000I-00002282J-00001020D01*
G01X00465282Y00396520D02*
G03X00466093Y00396372I00000456J00000204D01*
G01X00466094Y00388627D02*
G03Y00396372I00003906J00003873D01*
G01X00466093Y00388627D02*
G03X00465282Y00388479I-00000354J-00000351D01*
G01X00464250Y00387334D02*
G03X00465282Y00388479I-00001250J00002166D01*
G01X00464250Y00387334D02*
G03X00464000Y00386901I00000250J-00000432D01*
G01X00464000D02*
Y00385728D01*
G03X00464411Y00385236I00000500J00000000*
G01X00466528Y00384128D02*
G03X00464411Y00385236I-00002828J-00002828D01*
G01X00466528Y00384128D02*
X00469036Y00381619D01*
X00469036D02*
G03X00469434Y00381475I00000354J00000354D01*
G01X00476500Y00375015D02*
G03X00469434Y00381475I-00006500J-00000015D01*
G01X00476500Y00375015D02*
G03Y00375000I00000500J00000002D01*
G01X00452000Y00433500D02*
G03X00452000I-00009500D01*
G01X00474311Y00460000D02*
G03X00474311I-00014311D01*
G01X00432000Y00449500D02*
G03X00432000I-00009500D01*
G01X00410000Y00464250D02*
Y00455750D01*
X00407500Y00453249D02*
G03X00410000Y00455750I00000000J00002501D01*
G01X00407500Y00453249D02*
X00397500D01*
X00394999Y00455750D02*
G03X00397500Y00453249I00002501J00000000D01*
G01X00394999Y00455750D02*
Y00464250D01*
X00397500Y00466750D02*
G03X00394999Y00464250I00000000J-00002500D01*
G01X00397500Y00466750D02*
X00407500D01*
X00410000Y00464250D02*
G03X00407500Y00466750I-00002500J00000000D01*
G01X00182750Y00442400D02*
G03X00182750I-00006750D01*
G01Y00467600D02*
G03X00182750I-00006750D01*
G01X00155002Y00462161D02*
G03X00152354Y00468781I00003998J00005439D01*
G01X00155002Y00462161D02*
G03X00154209Y00461698I-00000295J-00000402D01*
G01X00151461Y00468569D02*
G03X00154209Y00461698I-00011461J-00008569D01*
G01X00151461Y00468569D02*
G03X00152354Y00468781I00000400J00000300D01*
G01X00154311Y00140000D02*
G03X00154311I-00014311D01*
G01X00163850Y00163700D02*
G03X00163850I-00011350D01*
G01Y00285700D02*
G03X00163850I-00011350D01*
G01X00169850Y00326496D02*
G03X00169850I-00011350D01*
G01X00244172Y00311650D02*
Y00302850D01*
X00242672Y00301349D02*
G03X00244172Y00302850I00000000J00001501D01*
G01X00242672Y00301349D02*
X00184600D01*
X00183099Y00302850D02*
G03X00184600Y00301349I00001501J00000000D01*
G01X00183099Y00302850D02*
Y00311650D01*
X00183169Y00312100D02*
G03X00183099Y00311650I00001431J-00000450D01*
G01X00183169Y00312100D02*
G03Y00312399I-00000476J00000150D01*
G01X00183099Y00312850D02*
G03X00183169Y00312400I00001501J00000000D01*
G01X00183099Y00312850D02*
Y00321650D01*
X00183169Y00322100D02*
G03X00183099Y00321650I00001431J-00000450D01*
G01X00183169Y00322100D02*
G03Y00322399I-00000476J00000150D01*
G01X00183099Y00322850D02*
G03X00183169Y00322400I00001501J00000000D01*
G01X00183099Y00322850D02*
Y00331650D01*
X00184600Y00333150D02*
G03X00183099Y00331650I00000000J-00001500D01*
G01X00184600Y00333150D02*
X00203945D01*
X00205445Y00331650D02*
G03X00203945Y00333150I-00001499J00000000D01*
G01X00205445Y00331650D02*
Y00323650D01*
G03X00205945Y00323150I00000500J00000000*
G01X00230490*
X00231990Y00321650D02*
G03X00230490Y00323150I-00001499J00000000D01*
G01X00231990Y00321650D02*
Y00313650D01*
X00231990D02*
G03X00232490Y00313150I00000500J00000000D01*
G01X00232490D02*
X00242672D01*
X00244172Y00311650D02*
G03X00242672Y00313150I-00001499J00000000D01*
G01X00159095Y00391598D02*
X00160496D01*
X00159098Y00390698D02*
X00160260D01*
X00296194Y00462698D02*
X00297797D01*
X00296685Y00461798D02*
X00297469D01*
X00317202Y00462698D02*
X00318805D01*
X00317530Y00461798D02*
X00318314D01*
X00459584Y00369998D02*
X00465600D01*
X00459671Y00360098D02*
X00465591D01*
X00460080Y00359198D02*
X00465038D01*
X00460150Y00370898D02*
X00464957D01*
X00457452Y00369098D02*
X00464955D01*
X00460150Y00360998D02*
X00464877D01*
X00460300Y00371798D02*
X00464342D01*
X00458304Y00368198D02*
X00464341D01*
X00460300Y00361898D02*
X00464287D01*
X00460300Y00372698D02*
X00463921D01*
X00459762Y00367298D02*
X00463920D01*
X00460300Y00362798D02*
X00463884D01*
X00460300Y00373598D02*
X00463652D01*
X00460214Y00366398D02*
X00463652D01*
X00460300Y00363698D02*
X00463631D01*
X00460300Y00374498D02*
X00463519D01*
X00460300Y00365498D02*
X00463519D01*
X00460300Y00364598D02*
X00463512D01*
X00460300Y00375398D02*
X00463512D01*
X00460214Y00376298D02*
X00463044D01*
X00460269Y00377198D02*
X00462137D01*
X00122500Y00476198D02*
X00477500D01*
X00278974Y00475298D02*
X00477500D01*
X00280801Y00474398D02*
X00477500D01*
X00464753Y00473498D02*
X00477500D01*
X00466788Y00472598D02*
X00477500D01*
X00468242Y00471698D02*
X00477500D01*
X00469391Y00470798D02*
X00477500D01*
X00470335Y00469898D02*
X00477500D01*
X00471127Y00468998D02*
X00477500D01*
X00471799Y00468098D02*
X00477500D01*
X00472368Y00467198D02*
X00477500D01*
X00472850Y00466298D02*
X00477500D01*
X00473253Y00465398D02*
X00477500D01*
X00473585Y00464498D02*
X00477500D01*
X00473851Y00463598D02*
X00477500D01*
X00474054Y00462698D02*
X00477500D01*
X00474197Y00461798D02*
X00477500D01*
X00474282Y00460898D02*
X00477500D01*
X00474311Y00459998D02*
X00477500D01*
X00474282Y00459098D02*
X00477500D01*
X00474197Y00458198D02*
X00477500D01*
X00474053Y00457298D02*
X00477500D01*
X00473850Y00456398D02*
X00477500D01*
X00473584Y00455498D02*
X00477500D01*
X00473252Y00454598D02*
X00477500D01*
X00472849Y00453698D02*
X00477500D01*
X00472367Y00452798D02*
X00477500D01*
X00471797Y00451898D02*
X00477500D01*
X00471125Y00450998D02*
X00477500D01*
X00470332Y00450098D02*
X00477500D01*
X00469388Y00449198D02*
X00477500D01*
X00468239Y00448298D02*
X00477500D01*
X00466783Y00447398D02*
X00477500D01*
X00464745Y00446498D02*
X00477500D01*
X00431162Y00445598D02*
X00477500D01*
X00430697Y00444698D02*
X00477500D01*
X00430099Y00443798D02*
X00477500D01*
X00443884Y00442898D02*
X00477500D01*
X00446745Y00441998D02*
X00477500D01*
X00448201Y00441098D02*
X00477500D01*
X00449236Y00440198D02*
X00477500D01*
X00450025Y00439298D02*
X00477500D01*
X00450639Y00438398D02*
X00477500D01*
X00451117Y00437498D02*
X00477500D01*
X00451480Y00436598D02*
X00477500D01*
X00451742Y00435698D02*
X00477500D01*
X00451910Y00434798D02*
X00477500D01*
X00451991Y00433898D02*
X00477500D01*
X00451986Y00432998D02*
X00477500D01*
X00451896Y00432098D02*
X00477500D01*
X00451717Y00431198D02*
X00477500D01*
X00451444Y00430298D02*
X00477500D01*
X00451069Y00429398D02*
X00477500D01*
X00450576Y00428498D02*
X00477500D01*
X00449944Y00427598D02*
X00477500D01*
X00449132Y00426698D02*
X00477500D01*
X00448062Y00425798D02*
X00477500D01*
X00446533Y00424898D02*
X00477500D01*
X00431880Y00423998D02*
X00477500D01*
X00431691Y00423098D02*
X00477500D01*
X00431407Y00422198D02*
X00477500D01*
X00431020Y00421298D02*
X00477500D01*
X00430514Y00420398D02*
X00477500D01*
X00429864Y00419498D02*
X00477500D01*
X00429801Y00418598D02*
X00477500D01*
X00445334Y00417698D02*
X00477500D01*
X00445869Y00416798D02*
X00477500D01*
X00446000Y00415898D02*
X00477500D01*
X00446000Y00414998D02*
X00477500D01*
X00446000Y00414098D02*
X00477500D01*
X00446000Y00413198D02*
X00477500D01*
X00446000Y00412298D02*
X00477500D01*
X00446000Y00411398D02*
X00477500D01*
X00446000Y00410498D02*
X00477500D01*
X00446000Y00409598D02*
X00477500D01*
X00445981Y00408698D02*
X00477500D01*
X00445692Y00407798D02*
X00477500D01*
X00444854Y00406898D02*
X00477500D01*
X00424000Y00405998D02*
X00477500D01*
X00424000Y00405098D02*
X00477500D01*
X00424000Y00404198D02*
X00477500D01*
X00448222Y00403298D02*
X00477500D01*
X00449473Y00402398D02*
X00477500D01*
X00455103Y00401498D02*
X00477500D01*
X00457529Y00400598D02*
X00477500D01*
X00458458Y00399698D02*
X00477500D01*
X00459358Y00398798D02*
X00477500D01*
X00471050Y00397898D02*
X00477500D01*
X00473164Y00396998D02*
X00477500D01*
X00474159Y00396098D02*
X00477500D01*
X00474792Y00395198D02*
X00477500D01*
X00475197Y00394298D02*
X00477500D01*
X00475426Y00393398D02*
X00477500D01*
X00475500Y00392498D02*
X00477500D01*
X00475425Y00391598D02*
X00477500D01*
X00475196Y00390698D02*
X00477500D01*
X00474790Y00389798D02*
X00477500D01*
X00474157Y00388898D02*
X00477500D01*
X00473160Y00387998D02*
X00477500D01*
X00471037Y00387098D02*
X00477500D01*
X00464000Y00386198D02*
X00477500D01*
X00464244Y00385298D02*
X00477500D01*
X00466229Y00384398D02*
X00477500D01*
X00467158Y00383498D02*
X00477500D01*
X00468058Y00382598D02*
X00477500D01*
X00468958Y00381698D02*
X00477500D01*
X00472936Y00380798D02*
X00477500D01*
X00474272Y00379898D02*
X00477500D01*
X00475124Y00378998D02*
X00477500D01*
X00475713Y00378098D02*
X00477500D01*
X00476116Y00377198D02*
X00477500D01*
X00476368Y00376298D02*
X00477500D01*
X00476487Y00375398D02*
X00477500D01*
X00476480Y00374498D02*
X00477500D01*
X00476347Y00373598D02*
X00477500D01*
X00476079Y00372698D02*
X00477500D01*
X00475657Y00371798D02*
X00477500D01*
X00475042Y00370898D02*
X00477500D01*
X00474399Y00369998D02*
X00477500D01*
X00475044Y00369098D02*
X00477500D01*
X00475658Y00368198D02*
X00477500D01*
X00476079Y00367298D02*
X00477500D01*
X00476347Y00366398D02*
X00477500D01*
X00476480Y00365498D02*
X00477500D01*
X00476487Y00364598D02*
X00477500D01*
X00476368Y00363698D02*
X00477500D01*
X00476115Y00362798D02*
X00477500D01*
X00475712Y00361898D02*
X00477500D01*
X00475122Y00360998D02*
X00477500D01*
X00474408Y00360098D02*
X00477500D01*
X00474961Y00359198D02*
X00477500D01*
X00475600Y00358298D02*
X00477500D01*
X00476041Y00357398D02*
X00477500D01*
X00476324Y00356498D02*
X00477500D01*
X00476472Y00355598D02*
X00477500D01*
X00476493Y00354698D02*
X00477500D01*
X00476388Y00353798D02*
X00477500D01*
X00476150Y00352898D02*
X00477500D01*
X00475765Y00351998D02*
X00477500D01*
X00475199Y00351098D02*
X00477500D01*
X00474381Y00350198D02*
X00477500D01*
X00473121Y00349298D02*
X00477500D01*
X00452005Y00348398D02*
X00477500D01*
X00451105Y00347498D02*
X00477500D01*
X00450205Y00346598D02*
X00477500D01*
X00449305Y00345698D02*
X00477500D01*
X00448405Y00344798D02*
X00477500D01*
X00447505Y00343898D02*
X00477500D01*
X00446605Y00342998D02*
X00477500D01*
X00445705Y00342098D02*
X00477500D01*
X00444805Y00341198D02*
X00477500D01*
X00443590Y00340298D02*
X00477500D01*
X00435655Y00339398D02*
X00477500D01*
X00434755Y00338498D02*
X00477500D01*
X00433855Y00337598D02*
X00477500D01*
X00449697Y00336698D02*
X00477500D01*
X00451509Y00335798D02*
X00477500D01*
X00452570Y00334898D02*
X00477500D01*
X00453306Y00333998D02*
X00477500D01*
X00453832Y00333098D02*
X00477500D01*
X00454198Y00332198D02*
X00477500D01*
X00454429Y00331298D02*
X00477500D01*
X00454538Y00330398D02*
X00477500D01*
X00454532Y00329498D02*
X00477500D01*
X00454409Y00328598D02*
X00477500D01*
X00454163Y00327698D02*
X00477500D01*
X00453781Y00326798D02*
X00477500D01*
X00453234Y00325898D02*
X00477500D01*
X00452468Y00324998D02*
X00477500D01*
X00451357Y00324098D02*
X00477500D01*
X00449356Y00323198D02*
X00477500D01*
X00424300Y00322298D02*
X00477500D01*
X00424300Y00321398D02*
X00477500D01*
X00424300Y00320498D02*
X00477500D01*
X00424300Y00319598D02*
X00477500D01*
X00424300Y00318698D02*
X00477500D01*
X00424300Y00317798D02*
X00477500D01*
X00448952Y00316898D02*
X00477500D01*
X00451203Y00315998D02*
X00477500D01*
X00452368Y00315098D02*
X00477500D01*
X00453163Y00314198D02*
X00477500D01*
X00453730Y00313298D02*
X00477500D01*
X00454129Y00312398D02*
X00477500D01*
X00454388Y00311498D02*
X00477500D01*
X00454524Y00310598D02*
X00477500D01*
X00454543Y00309698D02*
X00477500D01*
X00454446Y00308798D02*
X00477500D01*
X00454229Y00307898D02*
X00477500D01*
X00453879Y00306998D02*
X00477500D01*
X00453372Y00306098D02*
X00477500D01*
X00452662Y00305198D02*
X00477500D01*
X00451647Y00304298D02*
X00477500D01*
X00449974Y00303398D02*
X00477500D01*
X00433250Y00302498D02*
X00477500D01*
X00433176Y00301598D02*
X00477500D01*
X00432749Y00300698D02*
X00477500D01*
X00431445Y00299798D02*
X00477500D01*
X00420332Y00298898D02*
X00477500D01*
X00419432Y00297998D02*
X00477500D01*
X00419100Y00297098D02*
X00477500D01*
X00451812Y00296198D02*
X00477500D01*
X00453557Y00295298D02*
X00477500D01*
X00454790Y00294398D02*
X00477500D01*
X00455746Y00293498D02*
X00477500D01*
X00456512Y00292598D02*
X00477500D01*
X00457135Y00291698D02*
X00477500D01*
X00457640Y00290798D02*
X00477500D01*
X00458044Y00289898D02*
X00477500D01*
X00458360Y00288998D02*
X00477500D01*
X00458593Y00288098D02*
X00477500D01*
X00458750Y00287198D02*
X00477500D01*
X00458834Y00286298D02*
X00477500D01*
X00458846Y00285398D02*
X00477500D01*
X00458786Y00284498D02*
X00477500D01*
X00458653Y00283598D02*
X00477500D01*
X00458446Y00282698D02*
X00477500D01*
X00458158Y00281798D02*
X00477500D01*
X00457784Y00280898D02*
X00477500D01*
X00457314Y00279998D02*
X00477500D01*
X00456732Y00279098D02*
X00477500D01*
X00456017Y00278198D02*
X00477500D01*
X00455131Y00277298D02*
X00477500D01*
X00454004Y00276398D02*
X00477500D01*
X00452475Y00275498D02*
X00477500D01*
X00449863Y00274598D02*
X00477500D01*
X00122500Y00273698D02*
X00477500D01*
X00122500Y00272798D02*
X00477500D01*
X00122500Y00271898D02*
X00477500D01*
X00122500Y00270998D02*
X00477500D01*
X00122500Y00270098D02*
X00477500D01*
X00122500Y00269198D02*
X00477500D01*
X00122500Y00268298D02*
X00477500D01*
X00122500Y00267398D02*
X00477500D01*
X00122500Y00266498D02*
X00477500D01*
X00122500Y00265598D02*
X00477500D01*
X00122500Y00264698D02*
X00477500D01*
X00122500Y00263798D02*
X00477500D01*
X00122500Y00262898D02*
X00477500D01*
X00122500Y00261998D02*
X00477500D01*
X00122500Y00261098D02*
X00477500D01*
X00122500Y00260198D02*
X00477500D01*
X00122500Y00259298D02*
X00477500D01*
X00122500Y00258398D02*
X00477500D01*
X00122500Y00257498D02*
X00477500D01*
X00122500Y00256598D02*
X00477500D01*
X00122500Y00255698D02*
X00477500D01*
X00122500Y00254798D02*
X00477500D01*
X00122500Y00253898D02*
X00477500D01*
X00122500Y00252998D02*
X00477500D01*
X00122500Y00252098D02*
X00477500D01*
X00122500Y00251198D02*
X00477500D01*
X00122500Y00250298D02*
X00477500D01*
X00122500Y00249398D02*
X00477500D01*
X00122500Y00248498D02*
X00477500D01*
X00122500Y00247598D02*
X00477500D01*
X00122500Y00246698D02*
X00477500D01*
X00122500Y00245798D02*
X00477500D01*
X00122500Y00244898D02*
X00477500D01*
X00122500Y00243998D02*
X00477500D01*
X00122500Y00243098D02*
X00477500D01*
X00122500Y00242198D02*
X00477500D01*
X00122500Y00241298D02*
X00477500D01*
X00122500Y00240398D02*
X00477500D01*
X00122500Y00239498D02*
X00477500D01*
X00122500Y00238598D02*
X00477500D01*
X00122500Y00237698D02*
X00477500D01*
X00122500Y00236798D02*
X00477500D01*
X00122500Y00235898D02*
X00477500D01*
X00122500Y00234998D02*
X00477500D01*
X00122500Y00234098D02*
X00477500D01*
X00122500Y00233198D02*
X00477500D01*
X00122500Y00232298D02*
X00477500D01*
X00122500Y00231398D02*
X00477500D01*
X00122500Y00230498D02*
X00477500D01*
X00122500Y00229598D02*
X00477500D01*
X00122500Y00228698D02*
X00477500D01*
X00122500Y00227798D02*
X00477500D01*
X00122500Y00226898D02*
X00477500D01*
X00122500Y00225998D02*
X00477500D01*
X00122500Y00225098D02*
X00477500D01*
X00122500Y00224198D02*
X00477500D01*
X00122500Y00223298D02*
X00477500D01*
X00122500Y00222398D02*
X00477500D01*
X00122500Y00221498D02*
X00477500D01*
X00122500Y00220598D02*
X00477500D01*
X00122500Y00219698D02*
X00477500D01*
X00122500Y00218798D02*
X00477500D01*
X00122500Y00217898D02*
X00477500D01*
X00122500Y00216998D02*
X00477500D01*
X00122500Y00216098D02*
X00477500D01*
X00122500Y00215198D02*
X00477500D01*
X00122500Y00214298D02*
X00477500D01*
X00122500Y00213398D02*
X00477500D01*
X00122500Y00212498D02*
X00477500D01*
X00122500Y00211598D02*
X00477500D01*
X00122500Y00210698D02*
X00477500D01*
X00122500Y00209798D02*
X00477500D01*
X00122500Y00208898D02*
X00477500D01*
X00122500Y00207998D02*
X00477500D01*
X00122500Y00207098D02*
X00477500D01*
X00122500Y00206198D02*
X00477500D01*
X00122500Y00205298D02*
X00477500D01*
X00122500Y00204398D02*
X00477500D01*
X00122500Y00203498D02*
X00477500D01*
X00122500Y00202598D02*
X00477500D01*
X00122500Y00201698D02*
X00477500D01*
X00122500Y00200798D02*
X00477500D01*
X00122500Y00199898D02*
X00477500D01*
X00122500Y00198998D02*
X00477500D01*
X00122500Y00198098D02*
X00477500D01*
X00122500Y00197198D02*
X00477500D01*
X00122500Y00196298D02*
X00477500D01*
X00122500Y00195398D02*
X00477500D01*
X00122500Y00194498D02*
X00477500D01*
X00122500Y00193598D02*
X00477500D01*
X00122500Y00192698D02*
X00477500D01*
X00122500Y00191798D02*
X00477500D01*
X00122500Y00190898D02*
X00477500D01*
X00122500Y00189998D02*
X00477500D01*
X00122500Y00189098D02*
X00477500D01*
X00122500Y00188198D02*
X00477500D01*
X00122500Y00187298D02*
X00477500D01*
X00122500Y00186398D02*
X00477500D01*
X00122500Y00185498D02*
X00477500D01*
X00122500Y00184598D02*
X00477500D01*
X00122500Y00183698D02*
X00477500D01*
X00122500Y00182798D02*
X00477500D01*
X00122500Y00181898D02*
X00477500D01*
X00122500Y00180998D02*
X00477500D01*
X00122500Y00180098D02*
X00477500D01*
X00122500Y00179198D02*
X00477500D01*
X00122500Y00178298D02*
X00477500D01*
X00122500Y00177398D02*
X00477500D01*
X00122500Y00176498D02*
X00477500D01*
X00122500Y00175598D02*
X00477500D01*
X00450302Y00174698D02*
X00477500D01*
X00452680Y00173798D02*
X00477500D01*
X00454148Y00172898D02*
X00477500D01*
X00455243Y00171998D02*
X00477500D01*
X00456107Y00171098D02*
X00477500D01*
X00456805Y00170198D02*
X00477500D01*
X00457373Y00169298D02*
X00477500D01*
X00457831Y00168398D02*
X00477500D01*
X00458195Y00167498D02*
X00477500D01*
X00458473Y00166598D02*
X00477500D01*
X00458672Y00165698D02*
X00477500D01*
X00458796Y00164798D02*
X00477500D01*
X00458848Y00163898D02*
X00477500D01*
X00458828Y00162998D02*
X00477500D01*
X00458736Y00162098D02*
X00477500D01*
X00458570Y00161198D02*
X00477500D01*
X00458328Y00160298D02*
X00477500D01*
X00458003Y00159398D02*
X00477500D01*
X00457588Y00158498D02*
X00477500D01*
X00457070Y00157598D02*
X00477500D01*
X00456433Y00156698D02*
X00477500D01*
X00455648Y00155798D02*
X00477500D01*
X00454666Y00154898D02*
X00477500D01*
X00462973Y00153998D02*
X00477500D01*
X00465764Y00153098D02*
X00477500D01*
X00467483Y00152198D02*
X00477500D01*
X00468783Y00151298D02*
X00477500D01*
X00469832Y00150398D02*
X00477500D01*
X00470704Y00149498D02*
X00477500D01*
X00471439Y00148598D02*
X00477500D01*
X00472063Y00147698D02*
X00477500D01*
X00472593Y00146798D02*
X00477500D01*
X00473038Y00145898D02*
X00477500D01*
X00473409Y00144998D02*
X00477500D01*
X00473711Y00144098D02*
X00477500D01*
X00473948Y00143198D02*
X00477500D01*
X00474125Y00142298D02*
X00477500D01*
X00474242Y00141398D02*
X00477500D01*
X00474302Y00140498D02*
X00477500D01*
X00474305Y00139598D02*
X00477500D01*
X00474251Y00138698D02*
X00477500D01*
X00474140Y00137798D02*
X00477500D01*
X00473970Y00136898D02*
X00477500D01*
X00473740Y00135998D02*
X00477500D01*
X00473445Y00135098D02*
X00477500D01*
X00473082Y00134198D02*
X00477500D01*
X00472645Y00133298D02*
X00477500D01*
X00472125Y00132398D02*
X00477500D01*
X00471512Y00131498D02*
X00477500D01*
X00470789Y00130598D02*
X00477500D01*
X00469934Y00129698D02*
X00477500D01*
X00468907Y00128798D02*
X00477500D01*
X00467639Y00127898D02*
X00477500D01*
X00465980Y00126998D02*
X00477500D01*
X00463399Y00126098D02*
X00477500D01*
X00122500Y00125198D02*
X00477500D01*
X00122500Y00124298D02*
X00477500D01*
X00122500Y00123398D02*
X00477500D01*
X00122509Y00477098D02*
X00477490D01*
X00464040Y00387098D02*
X00468962D01*
X00463704Y00397898D02*
X00468949D01*
X00452905Y00349298D02*
X00466878D01*
X00464999Y00387998D02*
X00466839D01*
X00465001Y00396998D02*
X00466835D01*
X00453805Y00350198D02*
X00465618D01*
X00453391Y00153998D02*
X00457026D01*
X00143399Y00126098D02*
X00456600D01*
X00395600Y00386198D02*
X00455997D01*
X00395600Y00387098D02*
X00455959D01*
X00431513Y00446498D02*
X00455254D01*
X00322626Y00473498D02*
X00455246D01*
X00395600Y00387998D02*
X00455000D01*
X00395600Y00388898D02*
X00454573D01*
X00448030Y00391598D02*
X00454499D01*
X00395600Y00390698D02*
X00454499D01*
X00395600Y00389798D02*
X00454499D01*
X00449358Y00392498D02*
X00454344D01*
X00451554Y00153098D02*
X00454235D01*
X00145980Y00126998D02*
X00454019D01*
X00450233Y00393398D02*
X00453437D01*
X00431764Y00447398D02*
X00453216D01*
X00386229Y00472598D02*
X00453211D01*
X00413838Y00369098D02*
X00452547D01*
X00147483Y00152198D02*
X00452516D01*
X00147639Y00127898D02*
X00452360D01*
X00431923Y00448298D02*
X00451760D01*
X00388192Y00471698D02*
X00451757D01*
X00414236Y00368198D02*
X00451695D01*
X00148783Y00151298D02*
X00451216D01*
X00148907Y00128798D02*
X00451092D01*
X00395600Y00385298D02*
X00450767D01*
X00431995Y00449198D02*
X00450611D01*
X00389520Y00470798D02*
X00450608D01*
X00413340Y00369998D02*
X00450415D01*
X00414308Y00360098D02*
X00450328D01*
X00414546Y00367298D02*
X00450237D01*
X00395600Y00377198D02*
X00450237D01*
X00433968Y00150398D02*
X00450167D01*
X00434214Y00129698D02*
X00450065D01*
X00395600Y00378098D02*
X00450035D01*
X00395600Y00384398D02*
X00449979D01*
X00413929Y00359198D02*
X00449930D01*
X00412726Y00370898D02*
X00449849D01*
X00414600Y00360998D02*
X00449849D01*
X00395600Y00376298D02*
X00449785D01*
X00414775Y00366398D02*
X00449785D01*
X00395600Y00378998D02*
X00449724D01*
X00395600Y00383498D02*
X00449712D01*
X00413452Y00358298D02*
X00449704D01*
X00395600Y00382598D02*
X00449699D01*
X00395600Y00381698D02*
X00449699D01*
X00395600Y00380798D02*
X00449699D01*
X00395600Y00379898D02*
X00449699D01*
X00404239Y00375398D02*
X00449699D01*
X00408127Y00374498D02*
X00449699D01*
X00409820Y00373598D02*
X00449699D01*
X00411030Y00372698D02*
X00449699D01*
X00411970Y00371798D02*
X00449699D01*
X00414927Y00365498D02*
X00449699D01*
X00415006Y00364598D02*
X00449699D01*
X00415014Y00363698D02*
X00449699D01*
X00414950Y00362798D02*
X00449699D01*
X00414813Y00361898D02*
X00449699D01*
X00431981Y00450098D02*
X00449667D01*
X00390534Y00469898D02*
X00449664D01*
X00412864Y00357398D02*
X00449651D01*
X00435801Y00149498D02*
X00449295D01*
X00435957Y00130598D02*
X00449210D01*
X00431881Y00450998D02*
X00448874D01*
X00391342Y00468998D02*
X00448872D01*
X00412141Y00356498D02*
X00448791D01*
X00437067Y00148598D02*
X00448560D01*
X00437183Y00131498D02*
X00448487D01*
X00431692Y00451898D02*
X00448202D01*
X00391998Y00468098D02*
X00448200D01*
X00438038Y00147698D02*
X00447936D01*
X00411244Y00355598D02*
X00447891D01*
X00438130Y00132398D02*
X00447874D01*
X00431408Y00452798D02*
X00447632D01*
X00392530Y00467198D02*
X00447631D01*
X00438812Y00146798D02*
X00447406D01*
X00438886Y00133298D02*
X00447354D01*
X00431021Y00453698D02*
X00447150D01*
X00408932Y00466298D02*
X00447149D01*
X00410100Y00354698D02*
X00446991D01*
X00439438Y00145898D02*
X00446961D01*
X00439498Y00134198D02*
X00446917D01*
X00430515Y00454598D02*
X00446747D01*
X00409720Y00465398D02*
X00446746D01*
X00439944Y00144998D02*
X00446590D01*
X00439992Y00135098D02*
X00446554D01*
X00429866Y00455498D02*
X00446415D01*
X00409987Y00464498D02*
X00446414D01*
X00440348Y00144098D02*
X00446288D01*
X00440386Y00135998D02*
X00446259D01*
X00429031Y00456398D02*
X00446149D01*
X00410000Y00463598D02*
X00446148D01*
X00408541Y00353798D02*
X00446091D01*
X00440660Y00143198D02*
X00446051D01*
X00424300Y00316898D02*
X00446047D01*
X00440689Y00136898D02*
X00446029D01*
X00427925Y00457298D02*
X00445946D01*
X00410000Y00462698D02*
X00445945D01*
X00440890Y00142298D02*
X00445874D01*
X00440910Y00137798D02*
X00445859D01*
X00426318Y00458198D02*
X00445802D01*
X00410000Y00461798D02*
X00445802D01*
X00441041Y00141398D02*
X00445757D01*
X00441053Y00138698D02*
X00445748D01*
X00410000Y00459098D02*
X00445717D01*
X00410000Y00460898D02*
X00445717D01*
X00441118Y00140498D02*
X00445697D01*
X00441122Y00139598D02*
X00445694D01*
X00410000Y00459998D02*
X00445688D01*
X00424300Y00323198D02*
X00445643D01*
X00432955Y00336698D02*
X00445302D01*
X00405793Y00352898D02*
X00445191D01*
X00154863Y00274598D02*
X00445136D01*
X00433250Y00303398D02*
X00445025D01*
X00155302Y00174698D02*
X00444697D01*
X00394000Y00351998D02*
X00444291D01*
X00424300Y00315998D02*
X00443796D01*
X00424300Y00324098D02*
X00443642D01*
X00432055Y00335798D02*
X00443490D01*
X00156554Y00153098D02*
X00443445D01*
X00394000Y00351098D02*
X00443391D01*
X00433250Y00304298D02*
X00443352D01*
X00419100Y00296198D02*
X00443187D01*
X00424300Y00315098D02*
X00442631D01*
X00431241Y00324998D02*
X00442531D01*
X00157475Y00275498D02*
X00442524D01*
X00394000Y00350198D02*
X00442491D01*
X00431760Y00334898D02*
X00442429D01*
X00433250Y00305198D02*
X00442337D01*
X00157680Y00173798D02*
X00442319D01*
X00413030Y00391598D02*
X00441969D01*
X00424300Y00314198D02*
X00441836D01*
X00424000Y00403298D02*
X00441777D01*
X00432710Y00325898D02*
X00441765D01*
X00432787Y00333998D02*
X00441693D01*
X00433250Y00306098D02*
X00441627D01*
X00158391Y00153998D02*
X00441608D01*
X00394000Y00349298D02*
X00441591D01*
X00419100Y00295298D02*
X00441442D01*
X00424300Y00313298D02*
X00441269D01*
X00433258Y00326798D02*
X00441165D01*
X00433250Y00306998D02*
X00441120D01*
X00429331Y00442898D02*
X00441115D01*
X00159004Y00276398D02*
X00440995D01*
X00424300Y00312398D02*
X00440870D01*
X00159148Y00172898D02*
X00440851D01*
X00433248Y00307898D02*
X00440770D01*
X00394000Y00348398D02*
X00440691D01*
X00414358Y00392498D02*
X00440641D01*
X00424300Y00311498D02*
X00440611D01*
X00433041Y00308798D02*
X00440553D01*
X00424000Y00402398D02*
X00440526D01*
X00424300Y00310598D02*
X00440475D01*
X00432376Y00309698D02*
X00440456D01*
X00159666Y00154898D02*
X00440333D01*
X00419100Y00294398D02*
X00440209D01*
X00160131Y00277298D02*
X00439868D01*
X00415233Y00393398D02*
X00439785D01*
X00160243Y00171998D02*
X00439756D01*
X00424000Y00401498D02*
X00439706D01*
X00160648Y00155798D02*
X00439351D01*
X00430982Y00293498D02*
X00439253D01*
X00422398Y00394298D02*
X00439189D01*
X00424000Y00400598D02*
X00439134D01*
X00161017Y00278198D02*
X00438982D01*
X00161107Y00171098D02*
X00438892D01*
X00423271Y00395198D02*
X00438778D01*
X00424000Y00399698D02*
X00438741D01*
X00161433Y00156698D02*
X00438566D01*
X00423746Y00396098D02*
X00438515D01*
X00424000Y00398798D02*
X00438494D01*
X00432072Y00292598D02*
X00438487D01*
X00431980Y00424898D02*
X00438466D01*
X00423968Y00396998D02*
X00438385D01*
X00424000Y00397898D02*
X00438378D01*
X00161732Y00279098D02*
X00438267D01*
X00428329Y00441998D02*
X00438254D01*
X00161805Y00170198D02*
X00438194D01*
X00162070Y00157598D02*
X00437929D01*
X00432449Y00291698D02*
X00437864D01*
X00162314Y00279998D02*
X00437685D01*
X00162373Y00169298D02*
X00437626D01*
X00162588Y00158498D02*
X00437411D01*
X00432500Y00290798D02*
X00437359D01*
X00430976Y00280898D02*
X00437215D01*
X00162831Y00168398D02*
X00437168D01*
X00163003Y00159398D02*
X00436996D01*
X00432500Y00289898D02*
X00436955D01*
X00431995Y00425798D02*
X00436937D01*
X00432070Y00281798D02*
X00436841D01*
X00163195Y00167498D02*
X00436804D01*
X00426934Y00441098D02*
X00436798D01*
X00163328Y00160298D02*
X00436671D01*
X00432500Y00288998D02*
X00436639D01*
X00432449Y00282698D02*
X00436553D01*
X00163473Y00166598D02*
X00436526D01*
X00163570Y00161198D02*
X00436429D01*
X00432500Y00288098D02*
X00436406D01*
X00432500Y00283598D02*
X00436346D01*
X00163672Y00165698D02*
X00436327D01*
X00163736Y00162098D02*
X00436263D01*
X00432500Y00287198D02*
X00436249D01*
X00432500Y00284498D02*
X00436213D01*
X00163796Y00164798D02*
X00436203D01*
X00163828Y00162998D02*
X00436171D01*
X00432500Y00286298D02*
X00436165D01*
X00432500Y00285398D02*
X00436153D01*
X00163848Y00163898D02*
X00436151D01*
X00431924Y00426698D02*
X00435867D01*
X00424432Y00440198D02*
X00435763D01*
X00434943Y00406898D02*
X00435056D01*
X00431765Y00427598D02*
X00435055D01*
X00410000Y00439298D02*
X00434974D01*
X00431514Y00428498D02*
X00434423D01*
X00410000Y00438398D02*
X00434360D01*
X00431163Y00429398D02*
X00433930D01*
X00410000Y00437498D02*
X00433882D01*
X00430698Y00430298D02*
X00433555D01*
X00410000Y00436598D02*
X00433519D01*
X00430101Y00431198D02*
X00433282D01*
X00409999Y00435698D02*
X00433257D01*
X00429334Y00432098D02*
X00433103D01*
X00424445Y00434798D02*
X00433089D01*
X00428332Y00432998D02*
X00433013D01*
X00426939Y00433898D02*
X00433008D01*
X00394000Y00347498D02*
X00432753D01*
X00394000Y00346598D02*
X00431541D01*
X00394000Y00345698D02*
X00430641D01*
X00394000Y00344798D02*
X00429741D01*
X00394000Y00343898D02*
X00428841D01*
X00394000Y00342998D02*
X00427941D01*
X00394000Y00342098D02*
X00427041D01*
X00424302Y00324998D02*
X00426358D01*
X00423845Y00299798D02*
X00426154D01*
X00394000Y00341198D02*
X00426141D01*
X00149832Y00150398D02*
X00426031D01*
X00149934Y00129698D02*
X00425785D01*
X00394000Y00340298D02*
X00425241D01*
X00424811Y00309698D02*
X00425188D01*
X00424943Y00406898D02*
X00425056D01*
X00394000Y00339398D02*
X00424341D01*
X00150704Y00149498D02*
X00424198D01*
X00150789Y00130598D02*
X00424042D01*
X00394000Y00338498D02*
X00423441D01*
X00151439Y00148598D02*
X00422932D01*
X00151512Y00131498D02*
X00422816D01*
X00394000Y00337598D02*
X00422541D01*
X00152063Y00147698D02*
X00421961D01*
X00152125Y00132398D02*
X00421869D01*
X00394000Y00336698D02*
X00421641D01*
X00152593Y00146798D02*
X00421187D01*
X00152645Y00133298D02*
X00421113D01*
X00417594Y00280898D02*
X00421023D01*
X00419100Y00293498D02*
X00421017D01*
X00394000Y00335798D02*
X00420741D01*
X00410000Y00440198D02*
X00420567D01*
X00153038Y00145898D02*
X00420561D01*
X00409811Y00434798D02*
X00420554D01*
X00153082Y00134198D02*
X00420501D01*
X00153409Y00144998D02*
X00420055D01*
X00153445Y00135098D02*
X00420007D01*
X00153711Y00144098D02*
X00419651D01*
X00153740Y00135998D02*
X00419613D01*
X00153948Y00143198D02*
X00419339D01*
X00153970Y00136898D02*
X00419310D01*
X00154125Y00142298D02*
X00419109D01*
X00154140Y00137798D02*
X00419089D01*
X00154242Y00141398D02*
X00418958D01*
X00154251Y00138698D02*
X00418946D01*
X00154302Y00140498D02*
X00418881D01*
X00154305Y00139598D02*
X00418877D01*
X00410000Y00458198D02*
X00418681D01*
X00394000Y00334898D02*
X00418393D01*
X00410000Y00441098D02*
X00418065D01*
X00409180Y00433898D02*
X00418060D01*
X00410000Y00457298D02*
X00417074D01*
X00410000Y00441998D02*
X00416670D01*
X00391898Y00432998D02*
X00416667D01*
X00402790Y00405998D02*
X00415999D01*
X00402123Y00405098D02*
X00415999D01*
X00396041Y00404198D02*
X00415999D01*
X00413222Y00403298D02*
X00415999D01*
X00414473Y00402398D02*
X00415999D01*
X00410000Y00456398D02*
X00415968D01*
X00410000Y00442898D02*
X00415668D01*
X00397699Y00418598D02*
X00415666D01*
X00386698Y00432098D02*
X00415665D01*
X00398265Y00419498D02*
X00415135D01*
X00409987Y00455498D02*
X00415133D01*
X00414943Y00406898D02*
X00415056D01*
X00410000Y00443798D02*
X00414900D01*
X00386500Y00431198D02*
X00414898D01*
X00398650Y00420398D02*
X00414485D01*
X00409719Y00454598D02*
X00414484D01*
X00407594Y00280898D02*
X00414405D01*
X00409959Y00444698D02*
X00414302D01*
X00386500Y00430298D02*
X00414301D01*
X00398888Y00421298D02*
X00413979D01*
X00408929Y00453698D02*
X00413978D01*
X00409605Y00445598D02*
X00413837D01*
X00386500Y00429398D02*
X00413836D01*
X00398993Y00422198D02*
X00413592D01*
X00389335Y00452798D02*
X00413591D01*
X00408592Y00446498D02*
X00413486D01*
X00395003Y00428498D02*
X00413485D01*
X00398972Y00423098D02*
X00413308D01*
X00387938Y00451898D02*
X00413307D01*
X00387179Y00447398D02*
X00413235D01*
X00396531Y00427598D02*
X00413234D01*
X00398824Y00423998D02*
X00413119D01*
X00385789Y00450998D02*
X00413118D01*
X00373585Y00448298D02*
X00413076D01*
X00397461Y00426698D02*
X00413075D01*
X00398541Y00424898D02*
X00413019D01*
X00371785Y00450098D02*
X00413018D01*
X00372685Y00449198D02*
X00413004D01*
X00398100Y00425798D02*
X00413004D01*
X00409616Y00281798D02*
X00412383D01*
X00410696Y00282698D02*
X00411303D01*
X00395600Y00391598D02*
X00406969D01*
X00395998Y00403298D02*
X00406777D01*
X00395600Y00392498D02*
X00405641D01*
X00395853Y00402398D02*
X00405526D01*
X00402997Y00406898D02*
X00405145D01*
X00395600Y00393398D02*
X00404785D01*
X00395615Y00401498D02*
X00404706D01*
X00396881Y00417698D02*
X00404665D01*
X00397594Y00280898D02*
X00404405D01*
X00403000Y00407798D02*
X00404307D01*
X00395600Y00394298D02*
X00404189D01*
X00395600Y00400598D02*
X00404134D01*
X00396001Y00416798D02*
X00404130D01*
X00403000Y00408698D02*
X00404018D01*
X00396010Y00415898D02*
X00403999D01*
X00402001Y00414998D02*
X00403999D01*
X00402745Y00414098D02*
X00403999D01*
X00402992Y00413198D02*
X00403999D01*
X00395600Y00395198D02*
X00403778D01*
X00395600Y00399698D02*
X00403741D01*
X00395600Y00396098D02*
X00403515D01*
X00395600Y00398798D02*
X00403494D01*
X00395600Y00396998D02*
X00403385D01*
X00395600Y00397898D02*
X00403378D01*
X00395600Y00375398D02*
X00403083D01*
X00399616Y00281798D02*
X00402383D01*
X00394000Y00352898D02*
X00401529D01*
X00400696Y00282698D02*
X00401303D01*
X00395600Y00374498D02*
X00399195D01*
X00394000Y00353798D02*
X00398781D01*
X00395600Y00373598D02*
X00397502D01*
X00394000Y00354698D02*
X00397221D01*
X00387685Y00446498D02*
X00396407D01*
X00396006Y00372698D02*
X00396193D01*
X00394000Y00355598D02*
X00396078D01*
X00390389Y00453698D02*
X00396070D01*
X00392959Y00466298D02*
X00396067D01*
X00392855Y00433898D02*
X00395819D01*
X00387800Y00445598D02*
X00395394D01*
X00391225Y00454598D02*
X00395280D01*
X00393296Y00465398D02*
X00395279D01*
X00393755Y00434798D02*
X00395188D01*
X00394000Y00356498D02*
X00395181D01*
X00387800Y00444698D02*
X00395040D01*
X00391902Y00455498D02*
X00395012D01*
X00393549Y00464498D02*
X00395012D01*
X00393725Y00463598D02*
X00394999D01*
X00393828Y00462698D02*
X00394999D01*
X00393858Y00461798D02*
X00394999D01*
X00393816Y00460898D02*
X00394999D01*
X00393703Y00459998D02*
X00394999D01*
X00393514Y00459098D02*
X00394999D01*
X00393248Y00458198D02*
X00394999D01*
X00392897Y00457298D02*
X00394999D01*
X00392453Y00456398D02*
X00394999D01*
X00387594Y00280898D02*
X00394405D01*
X00389616Y00281798D02*
X00392383D01*
X00387800Y00443798D02*
X00392046D01*
X00390696Y00282698D02*
X00391303D01*
X00387800Y00442898D02*
X00390543D01*
X00386500Y00428498D02*
X00389996D01*
X00387800Y00441998D02*
X00389641D01*
X00387801Y00441098D02*
X00388741D01*
X00386574Y00427598D02*
X00388468D01*
X00377594Y00280898D02*
X00384405D01*
X00379616Y00281798D02*
X00382383D01*
X00380696Y00282698D02*
X00381303D01*
X00370885Y00450998D02*
X00379210D01*
X00371732Y00472598D02*
X00378770D01*
X00374485Y00447398D02*
X00377820D01*
X00375385Y00446498D02*
X00377314D01*
X00376285Y00445598D02*
X00377110D01*
X00370600Y00451898D02*
X00377061D01*
X00372363Y00471698D02*
X00376807D01*
X00370600Y00452798D02*
X00375664D01*
X00372549Y00470798D02*
X00375479D01*
X00370600Y00453698D02*
X00374610D01*
X00372550Y00469898D02*
X00374465D01*
X00367594Y00280898D02*
X00374405D01*
X00370600Y00454598D02*
X00373774D01*
X00372551Y00468998D02*
X00373657D01*
X00370600Y00455498D02*
X00373097D01*
X00370600Y00456398D02*
X00372546D01*
X00369616Y00281798D02*
X00372383D01*
X00371753Y00457298D02*
X00371807D01*
X00370696Y00282698D02*
X00371303D01*
X00357594Y00280898D02*
X00364405D01*
X00361732Y00472598D02*
X00363267D01*
X00359616Y00281798D02*
X00362383D01*
X00360696Y00282698D02*
X00361303D01*
X00347594Y00280898D02*
X00354405D01*
X00351982Y00472598D02*
X00353267D01*
X00349616Y00281798D02*
X00352383D01*
X00350696Y00282698D02*
X00351303D01*
X00337594Y00280898D02*
X00344405D01*
X00325662Y00472598D02*
X00343017D01*
X00339616Y00281798D02*
X00342383D01*
X00340696Y00282698D02*
X00341303D01*
X00327594Y00280898D02*
X00334405D01*
X00329616Y00281798D02*
X00332383D01*
X00330696Y00282698D02*
X00331303D01*
X00326801Y00471698D02*
X00327349D01*
X00317594Y00280898D02*
X00324405D01*
X00319616Y00281798D02*
X00322383D01*
X00292626Y00473498D02*
X00322373D01*
X00320696Y00282698D02*
X00321303D01*
X00295662Y00472598D02*
X00319337D01*
X00296786Y00471698D02*
X00318213D01*
X00297511Y00470798D02*
X00317488D01*
X00307594Y00280898D02*
X00314405D01*
X00309616Y00281798D02*
X00312383D01*
X00310696Y00282698D02*
X00311303D01*
X00307188Y00469898D02*
X00307811D01*
X00297594Y00280898D02*
X00304405D01*
X00299616Y00281798D02*
X00302383D01*
X00300696Y00282698D02*
X00301303D01*
X00287594Y00280898D02*
X00294405D01*
X00289616Y00281798D02*
X00292383D01*
X00281743Y00473498D02*
X00292373D01*
X00290696Y00282698D02*
X00291303D01*
X00282347Y00472598D02*
X00289337D01*
X00282800Y00462698D02*
X00288805D01*
X00282799Y00461798D02*
X00288314D01*
X00282731Y00471698D02*
X00288213D01*
X00282800Y00463598D02*
X00287941D01*
X00282611Y00460898D02*
X00287555D01*
X00282941Y00470798D02*
X00287488D01*
X00282800Y00464498D02*
X00287304D01*
X00282999Y00469898D02*
X00287000D01*
X00282800Y00465398D02*
X00286879D01*
X00282908Y00468998D02*
X00286690D01*
X00282739Y00466298D02*
X00286621D01*
X00282660Y00468098D02*
X00286529D01*
X00282375Y00467198D02*
X00286507D01*
X00277594Y00280898D02*
X00284405D01*
X00282790Y00459998D02*
X00283134D01*
X00279616Y00281798D02*
X00282383D01*
X00280696Y00282698D02*
X00281303D01*
X00238833Y00475298D02*
X00276025D01*
X00159790Y00294398D02*
X00274417D01*
X00162784Y00280898D02*
X00274405D01*
X00160746Y00293498D02*
X00274365D01*
X00239985Y00474398D02*
X00274198D01*
X00158557Y00295298D02*
X00273344D01*
X00240885Y00473498D02*
X00273256D01*
X00259968Y00459998D02*
X00272838D01*
X00241785Y00472598D02*
X00272652D01*
X00261698Y00467198D02*
X00272624D01*
X00260734Y00460898D02*
X00272388D01*
X00163158Y00281798D02*
X00272383D01*
X00161512Y00292598D02*
X00272379D01*
X00261332Y00468098D02*
X00272339D01*
X00257197Y00471698D02*
X00272268D01*
X00261929Y00466298D02*
X00272260D01*
X00261281Y00461798D02*
X00272200D01*
X00262038Y00465398D02*
X00272199D01*
X00262032Y00464498D02*
X00272199D01*
X00261909Y00463598D02*
X00272199D01*
X00261663Y00462698D02*
X00272199D01*
X00260806Y00468998D02*
X00272091D01*
X00259009Y00470798D02*
X00272058D01*
X00260070Y00469898D02*
X00272000D01*
X00163446Y00282698D02*
X00271310D01*
X00162135Y00291698D02*
X00271308D01*
X00163653Y00283598D02*
X00270588D01*
X00162640Y00290798D02*
X00270587D01*
X00163786Y00284498D02*
X00270087D01*
X00163044Y00289898D02*
X00270086D01*
X00163846Y00285398D02*
X00269754D01*
X00163360Y00288998D02*
X00269753D01*
X00163834Y00286298D02*
X00269562D01*
X00163593Y00288098D02*
X00269562D01*
X00163750Y00287198D02*
X00269499D01*
X00258857Y00459098D02*
X00267601D01*
X00257472Y00458198D02*
X00266314D01*
X00259342Y00457298D02*
X00265414D01*
X00260355Y00456398D02*
X00264514D01*
X00156812Y00296198D02*
X00262517D01*
X00122500Y00297098D02*
X00261617D01*
X00122500Y00297998D02*
X00260717D01*
X00122500Y00298898D02*
X00259817D01*
X00122500Y00299798D02*
X00258917D01*
X00122500Y00300698D02*
X00258017D01*
X00243499Y00301598D02*
X00257117D01*
X00244131Y00302498D02*
X00256217D01*
X00244172Y00303398D02*
X00255317D01*
X00244172Y00304298D02*
X00254417D01*
X00244172Y00305198D02*
X00253517D01*
X00251742Y00457298D02*
X00253252D01*
X00247985Y00458198D02*
X00253142D01*
X00242685Y00471698D02*
X00252802D01*
X00244172Y00306098D02*
X00252617D01*
X00244172Y00306998D02*
X00251717D01*
X00247085Y00459098D02*
X00251142D01*
X00243585Y00470798D02*
X00250990D01*
X00244172Y00307898D02*
X00250817D01*
X00246185Y00459998D02*
X00250031D01*
X00244485Y00469898D02*
X00249929D01*
X00244172Y00308798D02*
X00249917D01*
X00245600Y00460898D02*
X00249265D01*
X00245213Y00468998D02*
X00249193D01*
X00244172Y00309698D02*
X00249017D01*
X00245600Y00461798D02*
X00248718D01*
X00245541Y00468098D02*
X00248667D01*
X00245600Y00462698D02*
X00248336D01*
X00245600Y00467198D02*
X00248301D01*
X00244172Y00310598D02*
X00248117D01*
X00245600Y00463598D02*
X00248090D01*
X00245600Y00466298D02*
X00248070D01*
X00245600Y00464498D02*
X00247967D01*
X00245600Y00465398D02*
X00247961D01*
X00244172Y00311498D02*
X00247220D01*
X00243972Y00312398D02*
X00246642D01*
X00232135Y00313298D02*
X00246414D01*
X00205730Y00323198D02*
X00246399D01*
X00231843Y00322298D02*
X00246399D01*
X00231990Y00321398D02*
X00246399D01*
X00231990Y00320498D02*
X00246399D01*
X00231990Y00319598D02*
X00246399D01*
X00231990Y00318698D02*
X00246399D01*
X00231990Y00317798D02*
X00246399D01*
X00231990Y00316898D02*
X00246399D01*
X00231990Y00315998D02*
X00246399D01*
X00231990Y00315098D02*
X00246399D01*
X00231990Y00314198D02*
X00246399D01*
X00205445Y00324098D02*
X00245817D01*
X00205445Y00324998D02*
X00244917D01*
X00205445Y00325898D02*
X00244017D01*
X00205445Y00326798D02*
X00243117D01*
X00205445Y00327698D02*
X00242217D01*
X00205445Y00328598D02*
X00241317D01*
X00205445Y00329498D02*
X00236362D01*
X00160856Y00337598D02*
X00235578D01*
X00205445Y00330398D02*
X00235346D01*
X00163472Y00336698D02*
X00235180D01*
X00205445Y00331298D02*
X00234991D01*
X00165002Y00335798D02*
X00234954D01*
X00166130Y00334898D02*
X00234949D01*
X00167016Y00333998D02*
X00234949D01*
X00204334Y00333098D02*
X00234949D01*
X00205341Y00332198D02*
X00234949D01*
X00227550Y00458198D02*
X00231499D01*
X00227550Y00457298D02*
X00231499D01*
X00227525Y00456398D02*
X00231499D01*
X00227214Y00455498D02*
X00231499D01*
X00226323Y00454598D02*
X00231499D01*
X00205600Y00453698D02*
X00231499D01*
X00205600Y00452798D02*
X00231499D01*
X00205600Y00451898D02*
X00231499D01*
X00205600Y00450998D02*
X00231499D01*
X00205600Y00450098D02*
X00231499D01*
X00205600Y00449198D02*
X00231499D01*
X00205600Y00448298D02*
X00231499D01*
X00205600Y00447398D02*
X00231499D01*
X00205600Y00446498D02*
X00231499D01*
X00205600Y00445598D02*
X00231499D01*
X00205600Y00444698D02*
X00231499D01*
X00205600Y00443798D02*
X00231499D01*
X00205600Y00442898D02*
X00231499D01*
X00205600Y00441998D02*
X00231499D01*
X00205600Y00441098D02*
X00231499D01*
X00205600Y00440198D02*
X00231499D01*
X00205600Y00439298D02*
X00231499D01*
X00205600Y00438398D02*
X00231499D01*
X00205600Y00437498D02*
X00231499D01*
X00205600Y00436598D02*
X00231499D01*
X00205600Y00435698D02*
X00231499D01*
X00205600Y00434798D02*
X00231499D01*
X00205600Y00433898D02*
X00231499D01*
X00205600Y00432998D02*
X00231499D01*
X00205600Y00432098D02*
X00231499D01*
X00205858Y00431198D02*
X00231499D01*
X00207150Y00430298D02*
X00231499D01*
X00208009Y00429398D02*
X00231499D01*
X00208620Y00428498D02*
X00231499D01*
X00209053Y00427598D02*
X00231499D01*
X00209342Y00426698D02*
X00231499D01*
X00209504Y00425798D02*
X00231499D01*
X00209549Y00424898D02*
X00231499D01*
X00209478Y00423998D02*
X00231499D01*
X00209288Y00423098D02*
X00231499D01*
X00209685Y00422198D02*
X00231499D01*
X00210585Y00421298D02*
X00231499D01*
X00211485Y00420398D02*
X00231499D01*
X00212385Y00419498D02*
X00231499D01*
X00213285Y00418598D02*
X00231499D01*
X00214185Y00417698D02*
X00231499D01*
X00215085Y00416798D02*
X00231499D01*
X00215985Y00415898D02*
X00231499D01*
X00216885Y00414998D02*
X00231499D01*
X00217785Y00414098D02*
X00231499D01*
X00218685Y00413198D02*
X00231499D01*
X00219585Y00412298D02*
X00231499D01*
X00220485Y00411398D02*
X00231489D01*
X00227550Y00459098D02*
X00231142D01*
X00227550Y00459998D02*
X00230031D01*
X00227537Y00460898D02*
X00229265D01*
X00221385Y00410498D02*
X00228999D01*
X00222285Y00409598D02*
X00228999D01*
X00223185Y00408698D02*
X00228999D01*
X00224085Y00407798D02*
X00228999D01*
X00224985Y00406898D02*
X00228999D01*
X00225885Y00405998D02*
X00228886D01*
X00227270Y00461798D02*
X00228718D01*
X00226785Y00405098D02*
X00228570D01*
X00226952Y00462698D02*
X00228336D01*
X00227689Y00404198D02*
X00228319D01*
X00122500Y00475298D02*
X00227966D01*
X00122500Y00474398D02*
X00226814D01*
X00179281Y00473498D02*
X00225914D01*
X00180536Y00472598D02*
X00225014D01*
X00214697Y00471698D02*
X00224114D01*
X00216509Y00470798D02*
X00223173D01*
X00122500Y00338498D02*
X00219552D01*
X00205600Y00454598D02*
X00218676D01*
X00122500Y00339398D02*
X00218505D01*
X00217624Y00469898D02*
X00218010D01*
X00205559Y00455498D02*
X00217785D01*
X00122500Y00340298D02*
X00217605D01*
X00205266Y00456398D02*
X00217474D01*
X00214356Y00458198D02*
X00217449D01*
X00204585Y00457298D02*
X00217449D01*
X00216357Y00459098D02*
X00217409D01*
X00122500Y00341198D02*
X00216705D01*
X00122500Y00342098D02*
X00215805D01*
X00122500Y00342998D02*
X00214905D01*
X00122500Y00343898D02*
X00214005D01*
X00206862Y00344798D02*
X00213105D01*
X00207568Y00345698D02*
X00212205D01*
X00207795Y00346598D02*
X00211305D01*
X00203685Y00458198D02*
X00210643D01*
X00207800Y00347498D02*
X00210405D01*
X00194697Y00471698D02*
X00210302D01*
X00207800Y00348398D02*
X00209505D01*
X00202785Y00459098D02*
X00208642D01*
X00196509Y00470798D02*
X00208490D01*
X00201885Y00459998D02*
X00207531D01*
X00197570Y00469898D02*
X00207429D01*
X00200985Y00460898D02*
X00206765D01*
X00198306Y00468998D02*
X00206693D01*
X00200085Y00461798D02*
X00206218D01*
X00198832Y00468098D02*
X00206167D01*
X00199262Y00462698D02*
X00205836D01*
X00199198Y00467198D02*
X00205801D01*
X00199409Y00463598D02*
X00205590D01*
X00199429Y00466298D02*
X00205570D01*
X00199532Y00464498D02*
X00205467D01*
X00199538Y00465398D02*
X00205461D01*
X00151041Y00411398D02*
X00201709D01*
X00160307Y00412298D02*
X00200817D01*
X00163256Y00413198D02*
X00199917D01*
X00152367Y00452798D02*
X00199399D01*
X00151797Y00451898D02*
X00199399D01*
X00151125Y00450998D02*
X00199399D01*
X00150332Y00450098D02*
X00199399D01*
X00149388Y00449198D02*
X00199399D01*
X00179281Y00448298D02*
X00199399D01*
X00180536Y00447398D02*
X00199399D01*
X00181363Y00446498D02*
X00199399D01*
X00181944Y00445598D02*
X00199399D01*
X00182346Y00444698D02*
X00199399D01*
X00182603Y00443798D02*
X00199399D01*
X00182731Y00442898D02*
X00199399D01*
X00182738Y00441998D02*
X00199399D01*
X00182623Y00441098D02*
X00199399D01*
X00182380Y00440198D02*
X00199399D01*
X00181995Y00439298D02*
X00199399D01*
X00181436Y00438398D02*
X00199399D01*
X00180641Y00437498D02*
X00199399D01*
X00179450Y00436598D02*
X00199399D01*
X00176809Y00435698D02*
X00199399D01*
X00170985Y00434798D02*
X00199399D01*
X00171885Y00433898D02*
X00199399D01*
X00172785Y00432998D02*
X00199399D01*
X00173685Y00432098D02*
X00199399D01*
X00152849Y00453698D02*
X00199362D01*
X00174585Y00431198D02*
X00199141D01*
X00164853Y00414098D02*
X00199017D01*
X00153252Y00454598D02*
X00198517D01*
X00196862Y00344798D02*
X00198137D01*
X00166015Y00414998D02*
X00198117D01*
X00175485Y00430298D02*
X00197849D01*
X00153584Y00455498D02*
X00197617D01*
X00166925Y00415898D02*
X00197217D01*
X00176385Y00429398D02*
X00196990D01*
X00153850Y00456398D02*
X00196717D01*
X00151118Y00410498D02*
X00196713D01*
X00177285Y00428498D02*
X00196379D01*
X00167657Y00416798D02*
X00196317D01*
X00178185Y00427598D02*
X00195946D01*
X00154053Y00457298D02*
X00195817D01*
X00179085Y00426698D02*
X00195657D01*
X00179985Y00425798D02*
X00195429D01*
X00168253Y00417698D02*
X00195417D01*
X00151122Y00409598D02*
X00195214D01*
X00194356Y00458198D02*
X00194890D01*
X00168735Y00418598D02*
X00194517D01*
X00151053Y00408698D02*
X00194314D01*
X00150910Y00407798D02*
X00193414D01*
X00150689Y00406898D02*
X00192514D01*
X00150386Y00405998D02*
X00191614D01*
X00149992Y00405098D02*
X00190714D01*
X00154197Y00458198D02*
X00190643D01*
X00181363Y00471698D02*
X00190302D01*
X00149498Y00404198D02*
X00189814D01*
X00183583Y00403298D02*
X00188914D01*
X00154282Y00459098D02*
X00188642D01*
X00181944Y00470798D02*
X00188490D01*
X00122500Y00344798D02*
X00188137D01*
X00184682Y00402398D02*
X00188014D01*
X00154311Y00459998D02*
X00187531D01*
X00122500Y00345698D02*
X00187431D01*
X00182346Y00469898D02*
X00187429D01*
X00122500Y00346598D02*
X00187204D01*
X00167821Y00348398D02*
X00187199D01*
X00166141Y00347498D02*
X00187199D01*
X00185237Y00401498D02*
X00187114D01*
X00176809Y00460898D02*
X00186765D01*
X00182603Y00468998D02*
X00186693D01*
X00180957Y00349298D02*
X00186239D01*
X00179450Y00461798D02*
X00186218D01*
X00185653Y00400598D02*
X00186199D01*
X00182731Y00468098D02*
X00186167D01*
X00180641Y00462698D02*
X00185836D01*
X00182738Y00467198D02*
X00185801D01*
X00181436Y00463598D02*
X00185590D01*
X00182623Y00466298D02*
X00185570D01*
X00181995Y00464498D02*
X00185467D01*
X00182380Y00465398D02*
X00185461D01*
X00182248Y00350198D02*
X00184505D01*
X00167731Y00333098D02*
X00184210D01*
X00122500Y00301598D02*
X00183772D01*
X00183075Y00351098D02*
X00183582D01*
X00168313Y00332198D02*
X00183203D01*
X00169045Y00322298D02*
X00183189D01*
X00122500Y00312398D02*
X00183169D01*
X00122500Y00302498D02*
X00183141D01*
X00168783Y00331298D02*
X00183099D01*
X00169157Y00330398D02*
X00183099D01*
X00169445Y00329498D02*
X00183099D01*
X00169653Y00328598D02*
X00183099D01*
X00169786Y00327698D02*
X00183099D01*
X00169845Y00326798D02*
X00183099D01*
X00169834Y00325898D02*
X00183099D01*
X00169750Y00324998D02*
X00183099D01*
X00169593Y00324098D02*
X00183099D01*
X00169360Y00323198D02*
X00183099D01*
X00168640Y00321398D02*
X00183099D01*
X00168136Y00320498D02*
X00183099D01*
X00167513Y00319598D02*
X00183099D01*
X00166747Y00318698D02*
X00183099D01*
X00165792Y00317798D02*
X00183099D01*
X00164559Y00316898D02*
X00183099D01*
X00162816Y00315998D02*
X00183099D01*
X00122500Y00315098D02*
X00183099D01*
X00122500Y00314198D02*
X00183099D01*
X00122500Y00313298D02*
X00183099D01*
X00122500Y00311498D02*
X00183099D01*
X00122500Y00310598D02*
X00183099D01*
X00122500Y00309698D02*
X00183099D01*
X00122500Y00308798D02*
X00183099D01*
X00122500Y00307898D02*
X00183099D01*
X00122500Y00306998D02*
X00183099D01*
X00122500Y00306098D02*
X00183099D01*
X00122500Y00305198D02*
X00183099D01*
X00122500Y00304298D02*
X00183099D01*
X00122500Y00303398D02*
X00183099D01*
X00169119Y00419498D02*
X00178123D01*
X00169416Y00420398D02*
X00176617D01*
X00169633Y00421298D02*
X00175717D01*
X00159809Y00460898D02*
X00175190D01*
X00170085Y00435698D02*
X00175190D01*
X00148886Y00403298D02*
X00175016D01*
X00169774Y00422198D02*
X00174817D01*
X00166413Y00402398D02*
X00173917D01*
X00169842Y00423098D02*
X00173917D01*
X00168688Y00392498D02*
X00173863D01*
X00170161Y00397898D02*
X00173694D01*
X00170155Y00387098D02*
X00173692D01*
X00169894Y00387998D02*
X00173628D01*
X00170277Y00396998D02*
X00173627D01*
X00169363Y00393398D02*
X00173409D01*
X00167684Y00391598D02*
X00173407D01*
X00167953Y00401498D02*
X00173362D01*
X00170171Y00383498D02*
X00173276D01*
X00169904Y00398798D02*
X00173247D01*
X00170276Y00386198D02*
X00173246D01*
X00169472Y00388898D02*
X00173215D01*
X00170262Y00396098D02*
X00173214D01*
X00169822Y00394298D02*
X00173116D01*
X00167920Y00390698D02*
X00173115D01*
X00170120Y00384398D02*
X00173098D01*
X00168869Y00400598D02*
X00173098D01*
X00169487Y00399698D02*
X00173062D01*
X00170264Y00385298D02*
X00173061D01*
X00168847Y00389798D02*
X00173055D01*
X00170114Y00395198D02*
X00173055D01*
X00169839Y00423998D02*
X00173017D01*
X00162281Y00473498D02*
X00172718D01*
X00162281Y00448298D02*
X00172718D01*
X00162450Y00461798D02*
X00172549D01*
X00169185Y00436598D02*
X00172549D01*
X00169763Y00424898D02*
X00172117D01*
X00163536Y00472598D02*
X00171463D01*
X00163536Y00447398D02*
X00171463D01*
X00163641Y00462698D02*
X00171358D01*
X00168285Y00437498D02*
X00171358D01*
X00169615Y00425798D02*
X00171217D01*
X00164363Y00471698D02*
X00170636D01*
X00164363Y00446498D02*
X00170636D01*
X00164436Y00463598D02*
X00170563D01*
X00167385Y00438398D02*
X00170563D01*
X00169727Y00426698D02*
X00170307D01*
X00164944Y00470798D02*
X00170055D01*
X00164944Y00445598D02*
X00170055D01*
X00164995Y00464498D02*
X00170004D01*
X00166485Y00439298D02*
X00170004D01*
X00165346Y00469898D02*
X00169653D01*
X00165346Y00444698D02*
X00169653D01*
X00165380Y00465398D02*
X00169619D01*
X00165593Y00440198D02*
X00169619D01*
X00165603Y00468998D02*
X00169396D01*
X00165603Y00443798D02*
X00169396D01*
X00165623Y00466298D02*
X00169376D01*
X00165623Y00441098D02*
X00169376D01*
X00165731Y00468098D02*
X00169268D01*
X00165731Y00442898D02*
X00169268D01*
X00165738Y00467198D02*
X00169261D01*
X00165738Y00441998D02*
X00169261D01*
X00122500Y00347498D02*
X00162039D01*
X00148130Y00402398D02*
X00161767D01*
X00122500Y00348398D02*
X00160359D01*
X00147183Y00401498D02*
X00160227D01*
X00122500Y00349298D02*
X00159398D01*
X00145957Y00400598D02*
X00159311D01*
X00122500Y00350198D02*
X00158752D01*
X00144214Y00399698D02*
X00158693D01*
X00122500Y00351098D02*
X00158315D01*
X00122500Y00398798D02*
X00158276D01*
X00154282Y00460898D02*
X00158190D01*
X00122500Y00351998D02*
X00158042D01*
X00122500Y00397898D02*
X00158020D01*
X00154921Y00352898D02*
X00157909D01*
X00156622Y00353798D02*
X00157909D01*
X00155198Y00396998D02*
X00157903D01*
X00156755Y00396098D02*
X00157898D01*
X00122500Y00435698D02*
X00157798D01*
X00122500Y00434798D02*
X00157381D01*
X00150890Y00412298D02*
X00156692D01*
X00122500Y00337598D02*
X00156143D01*
X00144753Y00473498D02*
X00155718D01*
X00148239Y00448298D02*
X00155718D01*
X00154207Y00461798D02*
X00155549D01*
X00122500Y00436598D02*
X00155549D01*
X00146788Y00472598D02*
X00154463D01*
X00146783Y00447398D02*
X00154463D01*
X00122500Y00437498D02*
X00154358D01*
X00122500Y00315998D02*
X00154183D01*
X00122500Y00433898D02*
X00153942D01*
X00150660Y00413198D02*
X00153743D01*
X00148242Y00471698D02*
X00153636D01*
X00144745Y00446498D02*
X00153636D01*
X00122500Y00438398D02*
X00153563D01*
X00122500Y00336698D02*
X00153527D01*
X00149391Y00470798D02*
X00153055D01*
X00122500Y00445598D02*
X00153055D01*
X00122500Y00439298D02*
X00153004D01*
X00150335Y00469898D02*
X00152653D01*
X00122500Y00444698D02*
X00152653D01*
X00122500Y00440198D02*
X00152619D01*
X00122500Y00316898D02*
X00152440D01*
X00151127Y00468998D02*
X00152396D01*
X00122500Y00443798D02*
X00152396D01*
X00122500Y00441098D02*
X00152376D01*
X00122500Y00432998D02*
X00152281D01*
X00122500Y00442898D02*
X00152268D01*
X00122500Y00441998D02*
X00152261D01*
X00150348Y00414098D02*
X00152146D01*
X00122500Y00335798D02*
X00151997D01*
X00122500Y00317798D02*
X00151207D01*
X00122500Y00432098D02*
X00151086D01*
X00150383Y00414998D02*
X00150982D01*
X00122500Y00352898D02*
X00150897D01*
X00122500Y00334898D02*
X00150869D01*
X00122500Y00396998D02*
X00150620D01*
X00122500Y00318698D02*
X00150252D01*
X00122500Y00431198D02*
X00150156D01*
X00122500Y00274598D02*
X00150136D01*
X00122500Y00333998D02*
X00149983D01*
X00122500Y00174698D02*
X00149697D01*
X00122500Y00319598D02*
X00149486D01*
X00122500Y00430298D02*
X00149408D01*
X00122500Y00386198D02*
X00149301D01*
X00122500Y00375398D02*
X00149268D01*
X00122500Y00333098D02*
X00149268D01*
X00122500Y00364598D02*
X00149232D01*
X00122500Y00353798D02*
X00149196D01*
X00122500Y00363698D02*
X00149166D01*
X00122500Y00374498D02*
X00149131D01*
X00122500Y00385298D02*
X00149096D01*
X00122500Y00396098D02*
X00149062D01*
X00122500Y00320498D02*
X00148863D01*
X00122500Y00429398D02*
X00148800D01*
X00122500Y00332198D02*
X00148686D01*
X00145764Y00153098D02*
X00148445D01*
X00122500Y00321398D02*
X00148359D01*
X00122500Y00428498D02*
X00148308D01*
X00122500Y00387098D02*
X00148299D01*
X00122500Y00376298D02*
X00148275D01*
X00122500Y00365498D02*
X00148252D01*
X00122500Y00354698D02*
X00148228D01*
X00122500Y00331298D02*
X00148216D01*
X00122500Y00362798D02*
X00148209D01*
X00122500Y00296198D02*
X00148187D01*
X00122500Y00373598D02*
X00148186D01*
X00122500Y00384398D02*
X00148164D01*
X00122500Y00395198D02*
X00148141D01*
X00147067Y00418598D02*
X00148104D01*
X00122500Y00322298D02*
X00147954D01*
X00122500Y00427598D02*
X00147914D01*
X00145801Y00419498D02*
X00147880D01*
X00122500Y00330398D02*
X00147842D01*
X00122500Y00323198D02*
X00147639D01*
X00122500Y00387998D02*
X00147627D01*
X00122500Y00377198D02*
X00147611D01*
X00122500Y00426698D02*
X00147608D01*
X00122500Y00366398D02*
X00147595D01*
X00143968Y00420398D02*
X00147583D01*
X00122500Y00355598D02*
X00147579D01*
X00122500Y00361898D02*
X00147566D01*
X00122500Y00329498D02*
X00147554D01*
X00122500Y00372698D02*
X00147550D01*
X00122500Y00383498D02*
X00147535D01*
X00122500Y00275498D02*
X00147524D01*
X00122500Y00394298D02*
X00147519D01*
X00122500Y00324098D02*
X00147406D01*
X00122500Y00425798D02*
X00147384D01*
X00122500Y00421298D02*
X00147366D01*
X00122500Y00328598D02*
X00147346D01*
X00122500Y00173798D02*
X00147319D01*
X00122500Y00324998D02*
X00147249D01*
X00122500Y00424898D02*
X00147236D01*
X00122500Y00422198D02*
X00147225D01*
X00122500Y00327698D02*
X00147213D01*
X00122500Y00388898D02*
X00147171D01*
X00122500Y00325898D02*
X00147165D01*
X00122500Y00378098D02*
X00147161D01*
X00122500Y00423998D02*
X00147160D01*
X00122500Y00423098D02*
X00147157D01*
X00122500Y00326798D02*
X00147154D01*
X00122500Y00367298D02*
X00147150D01*
X00122500Y00356498D02*
X00147139D01*
X00122500Y00360998D02*
X00147131D01*
X00122500Y00371798D02*
X00147120D01*
X00122500Y00382598D02*
X00147110D01*
X00122500Y00393398D02*
X00147100D01*
X00122500Y00389798D02*
X00146882D01*
X00122500Y00378998D02*
X00146876D01*
X00122500Y00368198D02*
X00146870D01*
X00122500Y00357398D02*
X00146863D01*
X00122500Y00360098D02*
X00146858D01*
X00122500Y00370898D02*
X00146853D01*
X00122500Y00381698D02*
X00146847D01*
X00122500Y00392498D02*
X00146841D01*
X00122500Y00390698D02*
X00146736D01*
X00122500Y00379898D02*
X00146733D01*
X00122500Y00369098D02*
X00146731D01*
X00122500Y00358298D02*
X00146729D01*
X00122500Y00359198D02*
X00146728D01*
X00122500Y00369998D02*
X00146726D01*
X00122500Y00380798D02*
X00146724D01*
X00122500Y00391598D02*
X00146722D01*
X00142973Y00153998D02*
X00146608D01*
X00122500Y00295298D02*
X00146442D01*
X00122500Y00276398D02*
X00145995D01*
X00122500Y00172898D02*
X00145851D01*
X00122500Y00154898D02*
X00145333D01*
X00122500Y00294398D02*
X00145209D01*
X00122500Y00277298D02*
X00144868D01*
X00122500Y00171998D02*
X00144756D01*
X00122500Y00155798D02*
X00144351D01*
X00122500Y00293498D02*
X00144253D01*
X00122500Y00278198D02*
X00143982D01*
X00122500Y00171098D02*
X00143892D01*
X00122500Y00156698D02*
X00143566D01*
X00122500Y00292598D02*
X00143487D01*
X00122500Y00279098D02*
X00143267D01*
X00122500Y00170198D02*
X00143194D01*
X00122500Y00157598D02*
X00142929D01*
X00122500Y00291698D02*
X00142864D01*
X00122500Y00279998D02*
X00142685D01*
X00122500Y00169298D02*
X00142626D01*
X00122500Y00158498D02*
X00142411D01*
X00122500Y00290798D02*
X00142359D01*
X00122500Y00280898D02*
X00142215D01*
X00122500Y00168398D02*
X00142168D01*
X00122500Y00159398D02*
X00141996D01*
X00122500Y00289898D02*
X00141955D01*
X00122500Y00281798D02*
X00141841D01*
X00122500Y00167498D02*
X00141804D01*
X00122500Y00160298D02*
X00141671D01*
X00122500Y00288998D02*
X00141639D01*
X00122500Y00282698D02*
X00141553D01*
X00122500Y00166598D02*
X00141526D01*
X00122500Y00161198D02*
X00141429D01*
X00122500Y00288098D02*
X00141406D01*
X00122500Y00283598D02*
X00141346D01*
X00122500Y00165698D02*
X00141327D01*
X00122500Y00162098D02*
X00141263D01*
X00122500Y00287198D02*
X00141249D01*
X00122500Y00284498D02*
X00141213D01*
X00122500Y00164798D02*
X00141203D01*
X00122500Y00162998D02*
X00141171D01*
X00122500Y00286298D02*
X00141165D01*
X00122500Y00285398D02*
X00141153D01*
X00122500Y00163898D02*
X00141151D01*
X00122500Y00153998D02*
X00137026D01*
X00122500Y00126098D02*
X00136600D01*
X00122500Y00420398D02*
X00136031D01*
X00122500Y00399698D02*
X00135785D01*
X00122500Y00446498D02*
X00135254D01*
X00122500Y00473498D02*
X00135246D01*
X00122500Y00153098D02*
X00134235D01*
X00122500Y00419498D02*
X00134198D01*
X00122500Y00400598D02*
X00134042D01*
X00122500Y00126998D02*
X00134019D01*
X00122500Y00447398D02*
X00133216D01*
X00122500Y00472598D02*
X00133211D01*
X00122500Y00418598D02*
X00132932D01*
X00122500Y00401498D02*
X00132816D01*
X00122500Y00152198D02*
X00132516D01*
X00122500Y00127898D02*
X00132360D01*
X00122500Y00417698D02*
X00131961D01*
X00122500Y00402398D02*
X00131869D01*
X00122500Y00448298D02*
X00131760D01*
X00122500Y00471698D02*
X00131757D01*
X00122500Y00151298D02*
X00131216D01*
X00122500Y00416798D02*
X00131187D01*
X00122500Y00403298D02*
X00131113D01*
X00122500Y00128798D02*
X00131092D01*
X00122500Y00449198D02*
X00130611D01*
X00122500Y00470798D02*
X00130608D01*
X00122500Y00415898D02*
X00130561D01*
X00122500Y00404198D02*
X00130501D01*
X00122500Y00150398D02*
X00130167D01*
X00122500Y00129698D02*
X00130065D01*
X00122500Y00414998D02*
X00130055D01*
X00122500Y00405098D02*
X00130007D01*
X00122500Y00450098D02*
X00129667D01*
X00122500Y00469898D02*
X00129664D01*
X00122500Y00414098D02*
X00129651D01*
X00122500Y00405998D02*
X00129613D01*
X00122500Y00413198D02*
X00129339D01*
X00122500Y00406898D02*
X00129310D01*
X00122500Y00149498D02*
X00129295D01*
X00122500Y00130598D02*
X00129210D01*
X00122500Y00412298D02*
X00129109D01*
X00122500Y00407798D02*
X00129089D01*
X00122500Y00411398D02*
X00128958D01*
X00122500Y00408698D02*
X00128946D01*
X00122500Y00410498D02*
X00128881D01*
X00122500Y00409598D02*
X00128877D01*
X00122500Y00450998D02*
X00128874D01*
X00122500Y00468998D02*
X00128872D01*
X00122500Y00148598D02*
X00128560D01*
X00122500Y00131498D02*
X00128487D01*
X00122500Y00451898D02*
X00128202D01*
X00122500Y00468098D02*
X00128200D01*
X00122500Y00147698D02*
X00127936D01*
X00122500Y00132398D02*
X00127874D01*
X00122500Y00452798D02*
X00127632D01*
X00122500Y00467198D02*
X00127631D01*
X00122500Y00146798D02*
X00127406D01*
X00122500Y00133298D02*
X00127354D01*
X00122500Y00453698D02*
X00127150D01*
X00122500Y00466298D02*
X00127149D01*
X00122500Y00145898D02*
X00126961D01*
X00122500Y00134198D02*
X00126917D01*
X00122500Y00454598D02*
X00126747D01*
X00122500Y00465398D02*
X00126746D01*
X00122500Y00144998D02*
X00126590D01*
X00122500Y00135098D02*
X00126554D01*
X00122500Y00455498D02*
X00126415D01*
X00122500Y00464498D02*
X00126414D01*
X00122500Y00144098D02*
X00126288D01*
X00122500Y00135998D02*
X00126259D01*
X00122500Y00456398D02*
X00126149D01*
X00122500Y00463598D02*
X00126148D01*
X00122500Y00143198D02*
X00126051D01*
X00122500Y00136898D02*
X00126029D01*
X00122500Y00457298D02*
X00125946D01*
X00122500Y00462698D02*
X00125945D01*
X00122500Y00142298D02*
X00125874D01*
X00122500Y00137798D02*
X00125859D01*
X00122500Y00458198D02*
X00125802D01*
X00122500Y00461798D02*
X00125802D01*
X00122500Y00141398D02*
X00125757D01*
X00122500Y00138698D02*
X00125748D01*
X00122500Y00459098D02*
X00125717D01*
X00122500Y00460898D02*
X00125717D01*
X00122500Y00140498D02*
X00125697D01*
X00122500Y00139598D02*
X00125694D01*
X00122500Y00459998D02*
X00125688D01*
X00226817Y00462417D02*
X00224478Y00460078D01*
X00226817Y00454982D02*
X00224478Y00457321D01*
X00218182Y00454982D02*
X00220521Y00457321D01*
X00387067Y00447517D02*
X00384728Y00445178D01*
X00377932Y00447517D02*
X00380271Y00445178D01*
X00395732Y00453982D02*
X00398744Y00456994D01*
X00395732Y00466017D02*
X00398744Y00463005D01*
X00409267Y00466017D02*
X00406255Y00463005D01*
X00409267Y00453982D02*
X00406255Y00456994D01*
X00187932Y00344982D02*
X00190271Y00347321D01*
X00197067Y00344982D02*
X00194728Y00347321D01*
X00197932Y00344982D02*
X00200271Y00347321D01*
X00207067Y00344982D02*
X00204728Y00347321D01*
X00459567Y00367517D02*
X00457228Y00365178D01*
X00459567Y00360082D02*
X00457228Y00362421D01*
X00450432Y00360082D02*
X00452771Y00362421D01*
X00450432Y00367517D02*
X00452771Y00365178D01*
X00282067Y00467517D02*
X00279728Y00465178D01*
X00282067Y00460082D02*
X00279728Y00462421D01*
X00272932Y00460082D02*
X00275271Y00462421D01*
X00272932Y00467517D02*
X00275271Y00465178D01*
X00307067Y00470017D02*
X00304728Y00467678D01*
X00297932Y00470017D02*
X00300271Y00467678D01*
X00297932Y00462582D02*
X00300271Y00464921D01*
X00317067Y00470017D02*
X00314728Y00467678D01*
X00307932Y00470017D02*
X00310271Y00467678D01*
X00317067Y00462582D02*
X00314728Y00464921D01*
X00352067Y00472517D02*
X00349728Y00470178D01*
X00342932Y00472517D02*
X00345271Y00470178D01*
X00353182Y00472517D02*
X00355521Y00470178D01*
X00361817Y00472517D02*
X00359478Y00470178D01*
X00363182Y00472517D02*
X00365521Y00470178D01*
X00371817Y00472517D02*
X00369478Y00470178D01*
X00450432Y00369982D02*
X00452771Y00372321D01*
X00450432Y00377417D02*
X00452771Y00375078D01*
X00459567Y00369982D02*
X00457228Y00372321D01*
X00432517Y00300432D02*
X00430178Y00302771D01*
X00425082Y00300432D02*
X00427421Y00302771D01*
X00425082Y00309567D02*
X00427421Y00307228D01*
X00432517Y00309567D02*
X00430178Y00307228D01*
G54D31*
X00247500Y00400000D03*
X00257500D03*
X00277500D03*
X00287500D03*
X00292500Y00447500D03*
Y00457500D03*
Y00467500D03*
X00322500D03*
Y00457500D03*
Y00447500D03*
Y00437500D03*
G54D32*
X00426000Y00287200D03*
G54D35*
X00295000Y00352500D03*
X00285000D03*
X00275000D03*
X00265000D03*
X00255000D03*
X00245000D03*
X00235000D03*
X00225000D03*
Y00382500D03*
X00235000D03*
X00245000D03*
X00255000D03*
X00265000D03*
X00275000D03*
X00285000D03*
X00295000D03*
X00305000D03*
G54D36*
X00187727Y00329000D02*
X00187545Y00329500D01*
X00187181Y00330000*
X00187181D02*
X00186818Y00330250D01*
X00186090*
X00186090D02*
X00185727Y00330000D01*
X00185363Y00329500*
X00185363D02*
X00185181Y00329000D01*
X00185181D02*
X00185000Y00328250D01*
Y00327000*
X00185181Y00326250*
X00185181D02*
X00185363Y00325750D01*
X00185363D02*
X00185727Y00325250D01*
X00186090Y00325000*
X00186090D02*
X00186818D01*
X00187181Y00325250*
X00187181D02*
X00187545Y00325750D01*
X00187727Y00326250*
X00190636Y00330250D02*
Y00325000D01*
X00189363Y00330250D02*
X00191909D01*
X00194636D02*
X00194090Y00330000D01*
X00194090D02*
X00193727Y00329250D01*
X00193545Y00328000*
Y00327250*
X00193727Y00326000*
X00194090Y00325250*
X00194090D02*
X00194636Y00325000D01*
X00195000*
X00195545Y00325250*
X00195909Y00326000*
X00196090Y00327250*
X00196090D02*
Y00328000D01*
X00196090D02*
X00195909Y00329250D01*
X00195545Y00330000*
X00195000Y00330250*
X00194636*
X00197727Y00329250D02*
X00198090Y00329500D01*
X00198090D02*
X00198636Y00330250D01*
Y00325000*
X00200272Y00330250D02*
Y00325000D01*
Y00330250D02*
X00201909D01*
X00202454Y00330000*
X00202454D02*
X00202636Y00329750D01*
X00202818Y00329250*
Y00328750*
X00202636Y00328250*
X00202454Y00328000*
X00202454D02*
X00201909Y00327750D01*
X00200272D02*
X00201909D01*
X00202454Y00327500*
X00202454D02*
X00202636Y00327250D01*
X00202818Y00326750*
Y00326000*
X00202636Y00325500*
X00202454Y00325250*
X00202454D02*
X00201909Y00325000D01*
X00200272*
X00186272Y00321250D02*
X00185909Y00320750D01*
X00185545Y00320000*
X00185181Y00319000*
X00185181D02*
X00185000Y00317750D01*
Y00316750*
X00185181Y00315500*
X00185181D02*
X00185545Y00314500D01*
X00185909Y00313750*
X00186272Y00313250*
X00190090Y00317750D02*
X00189727Y00318250D01*
X00189363Y00318500*
X00189363D02*
X00188818D01*
X00188454Y00318250*
X00188454D02*
X00188090Y00317750D01*
X00188090D02*
X00187909Y00317000D01*
Y00316500*
X00188090Y00315750*
X00188090D02*
X00188454Y00315250D01*
X00188454D02*
X00188818Y00315000D01*
X00189363*
X00189363D02*
X00189727Y00315250D01*
X00190090Y00315750*
X00191727Y00321250D02*
X00192090Y00320750D01*
X00192090D02*
X00192454Y00320000D01*
X00192454D02*
X00192818Y00319000D01*
X00193000Y00317750*
Y00316750*
X00192818Y00315500*
X00192454Y00314500*
X00192454D02*
X00192090Y00313750D01*
X00192090D02*
X00191727Y00313250D01*
X00194636Y00318500D02*
Y00315000D01*
Y00317500D02*
X00195181Y00318250D01*
X00195181D02*
X00195545Y00318500D01*
X00196090*
X00196090D02*
X00196454Y00318250D01*
X00196454D02*
X00196636Y00317500D01*
Y00315000*
Y00317500D02*
X00197181Y00318250D01*
X00197181D02*
X00197545Y00318500D01*
X00198090*
X00198090D02*
X00198454Y00318250D01*
X00198454D02*
X00198636Y00317500D01*
Y00315000*
X00200272Y00320250D02*
X00200454Y00320000D01*
X00200454D02*
X00200636Y00320250D01*
X00200454Y00320500*
X00200454D02*
X00200272Y00320250D01*
X00200454Y00318500D02*
Y00315000D01*
X00202272Y00320250D02*
Y00315000D01*
Y00317500D02*
X00202818Y00318250D01*
X00203181Y00318500*
X00203181D02*
X00203727D01*
X00204090Y00318250*
X00204090D02*
X00204272Y00317500D01*
X00204272D02*
Y00315000D01*
X00206818Y00318500D02*
X00206454Y00318250D01*
X00206454D02*
X00206090Y00317750D01*
X00206090D02*
X00205909Y00317000D01*
Y00316500*
X00206090Y00315750*
X00206090D02*
X00206454Y00315250D01*
X00206454D02*
X00206818Y00315000D01*
X00207363*
X00207363D02*
X00207727Y00315250D01*
X00208090Y00315750*
X00208090D02*
X00208272Y00316500D01*
X00208272D02*
Y00317000D01*
X00208272D02*
X00208090Y00317750D01*
X00208090D02*
X00207727Y00318250D01*
X00207363Y00318500*
X00207363D02*
X00206818D01*
X00213363Y00319000D02*
Y00319250D01*
X00213363D02*
X00213545Y00319750D01*
X00213727Y00320000*
X00214090Y00320250*
X00214090D02*
X00214818D01*
X00215181Y00320000*
X00215181D02*
X00215363Y00319750D01*
X00215363D02*
X00215545Y00319250D01*
Y00318750*
X00215363Y00318250*
X00215363D02*
X00215000Y00317500D01*
X00213181Y00315000*
X00213181D02*
X00215727D01*
X00218454Y00320250D02*
X00217909Y00320000D01*
X00217545Y00319250*
X00217363Y00318000*
X00217363D02*
Y00317250D01*
X00217363D02*
X00217545Y00316000D01*
X00217909Y00315250*
X00218454Y00315000*
X00218454D02*
X00218818D01*
X00219363Y00315250*
X00219363D02*
X00219727Y00316000D01*
X00219909Y00317250*
Y00318000*
X00219727Y00319250*
X00219363Y00320000*
X00219363D02*
X00218818Y00320250D01*
X00218454*
X00222636D02*
X00222090Y00320000D01*
X00222090D02*
X00221727Y00319250D01*
X00221545Y00318000*
Y00317250*
X00221727Y00316000*
X00222090Y00315250*
X00222090D02*
X00222636Y00315000D01*
X00223000*
X00223545Y00315250*
X00223909Y00316000*
X00224090Y00317250*
X00224090D02*
Y00318000D01*
X00224090D02*
X00223909Y00319250D01*
X00223545Y00320000*
X00223000Y00320250*
X00222636*
X00228090D02*
X00226272D01*
X00226272D02*
X00226090Y00318000D01*
X00226090D02*
X00226272Y00318250D01*
X00226272D02*
X00226818Y00318500D01*
X00227363*
X00227363D02*
X00227909Y00318250D01*
X00228272Y00317750*
X00228272D02*
X00228454Y00317000D01*
X00228454D02*
X00228272Y00316500D01*
X00228272D02*
X00228090Y00315750D01*
X00228090D02*
X00227727Y00315250D01*
X00227181Y00315000*
X00227181D02*
X00226636D01*
X00226090Y00315250*
X00226090D02*
X00225909Y00315500D01*
X00225727Y00316000*
X00187545Y00309500D02*
X00187181Y00310000D01*
X00187181D02*
X00186636Y00310250D01*
X00185909*
X00185363Y00310000*
X00185363D02*
X00185000Y00309500D01*
Y00309000*
X00185181Y00308500*
X00185181D02*
X00185363Y00308250D01*
X00185363D02*
X00185727Y00308000D01*
X00186818Y00307500*
X00187181Y00307250*
X00187181D02*
X00187363Y00307000D01*
X00187363D02*
X00187545Y00306500D01*
Y00305750*
X00187181Y00305250*
X00187181D02*
X00186636Y00305000D01*
X00185909*
X00185363Y00305250*
X00185363D02*
X00185000Y00305750D01*
X00190090Y00308500D02*
X00189727Y00308250D01*
X00189363Y00307750*
X00189363D02*
X00189181Y00307000D01*
X00189181D02*
Y00306500D01*
X00189181D02*
X00189363Y00305750D01*
X00189363D02*
X00189727Y00305250D01*
X00190090Y00305000*
X00190090D02*
X00190636D01*
X00191000Y00305250*
X00191363Y00305750*
X00191363D02*
X00191545Y00306500D01*
Y00307000*
X00191363Y00307750*
X00191363D02*
X00191000Y00308250D01*
X00190636Y00308500*
X00190090*
X00193181Y00310250D02*
Y00305000D01*
X00197000Y00308500D02*
Y00305000D01*
Y00307750D02*
X00196636Y00308250D01*
X00196272Y00308500*
X00196272D02*
X00195727D01*
X00195363Y00308250*
X00195363D02*
X00195000Y00307750D01*
X00194818Y00307000*
Y00306500*
X00195000Y00305750*
X00195363Y00305250*
X00195363D02*
X00195727Y00305000D01*
X00196272*
X00196272D02*
X00196636Y00305250D01*
X00197000Y00305750*
X00198636Y00308500D02*
Y00305000D01*
Y00307000D02*
X00198818Y00307750D01*
X00199181Y00308250*
X00199181D02*
X00199545Y00308500D01*
X00200090*
X00207727Y00309000D02*
X00207545Y00309500D01*
X00207181Y00310000*
X00207181D02*
X00206818Y00310250D01*
X00206090*
X00206090D02*
X00205727Y00310000D01*
X00205363Y00309500*
X00205363D02*
X00205181Y00309000D01*
X00205181D02*
X00205000Y00308250D01*
Y00307000*
X00205181Y00306250*
X00205181D02*
X00205363Y00305750D01*
X00205363D02*
X00205727Y00305250D01*
X00206090Y00305000*
X00206090D02*
X00206818D01*
X00207181Y00305250*
X00207181D02*
X00207545Y00305750D01*
X00207727Y00306250*
X00209363Y00307000D02*
X00211545D01*
Y00307500*
X00211363Y00308000*
X00211363D02*
X00211181Y00308250D01*
X00211181D02*
X00210818Y00308500D01*
X00210272*
X00210272D02*
X00209909Y00308250D01*
X00209545Y00307750*
X00209363Y00307000*
X00209363D02*
Y00306500D01*
X00209363D02*
X00209545Y00305750D01*
X00209909Y00305250*
X00210272Y00305000*
X00210272D02*
X00210818D01*
X00211181Y00305250*
X00211181D02*
X00211545Y00305750D01*
X00213181Y00310250D02*
Y00305000D01*
X00214818Y00310250D02*
Y00305000D01*
X00221000Y00310250D02*
Y00305000D01*
X00219727Y00310250D02*
X00222272D01*
X00223909Y00307000D02*
X00226090D01*
X00226090D02*
Y00307500D01*
X00226090D02*
X00225909Y00308000D01*
X00225727Y00308250*
X00225363Y00308500*
X00225363D02*
X00224818D01*
X00224454Y00308250*
X00224454D02*
X00224090Y00307750D01*
X00224090D02*
X00223909Y00307000D01*
Y00306500*
X00224090Y00305750*
X00224090D02*
X00224454Y00305250D01*
X00224454D02*
X00224818Y00305000D01*
X00225363*
X00225363D02*
X00225727Y00305250D01*
X00226090Y00305750*
X00229727Y00307750D02*
X00229545Y00308250D01*
X00229000Y00308500*
X00228454*
X00228454D02*
X00227909Y00308250D01*
X00227727Y00307750*
X00227909Y00307250*
X00228272Y00307000*
X00228272D02*
X00229181Y00306750D01*
X00229181D02*
X00229545Y00306500D01*
X00229727Y00306000*
Y00305750*
X00229545Y00305250*
X00229000Y00305000*
X00228454*
X00228454D02*
X00227909Y00305250D01*
X00227727Y00305750*
X00231909Y00310250D02*
Y00306000D01*
X00232090Y00305250*
X00232090D02*
X00232454Y00305000D01*
X00232454D02*
X00232818D01*
X00231363Y00308500D02*
X00232636D01*
X00234454Y00307000D02*
X00236636D01*
Y00307500*
X00236454Y00308000*
X00236454D02*
X00236272Y00308250D01*
X00236272D02*
X00235909Y00308500D01*
X00235363*
X00235363D02*
X00235000Y00308250D01*
X00234636Y00307750*
X00234454Y00307000*
X00234454D02*
Y00306500D01*
X00234454D02*
X00234636Y00305750D01*
X00235000Y00305250*
X00235363Y00305000*
X00235363D02*
X00235909D01*
X00236272Y00305250*
X00236272D02*
X00236636Y00305750D01*
X00238272Y00308500D02*
Y00305000D01*
Y00307000D02*
X00238454Y00307750D01*
X00238454D02*
X00238818Y00308250D01*
X00239181Y00308500*
X00239181D02*
X00239727D01*
G54D40*
X00460000Y00392500D03*
X00377500Y00410000D03*
X00387500D03*
X00397500D03*
G54D41*
X00416000Y00287200D03*
X00406000D03*
X00396000D03*
X00386000D03*
X00376000D03*
X00366000D03*
X00356000D03*
X00346000D03*
X00336000D03*
X00326000D03*
X00316000D03*
X00306000D03*
X00296000D03*
X00286000D03*
X00276000D03*
X00470000Y00375000D03*
Y00355000D03*
Y00365000D03*
X00392500Y00422500D03*
X00372500D03*
X00382500D03*
G54D43*
X00422500Y00425500D03*
Y00449500D03*
X00442500Y00433500D03*
G54D44*
X00164090Y00353346D03*
Y00364173D03*
Y00375000D03*
Y00385826D03*
Y00396653D03*
X00152909Y00358759D03*
Y00369586D03*
Y00380413D03*
Y00391240D03*
G54D45*
X00158500Y00326496D03*
Y00423503D03*
X00152500Y00285700D03*
Y00163700D03*
X00447500D03*
Y00285700D03*
G54D46*
X00192500Y00465000D03*
X00212500D03*
X00202500Y00425000D03*
X00235000Y00465000D03*
X00255000D03*
X00245000Y00425000D03*
X00447500Y00330000D03*
Y00310000D03*
X00407500Y00320000D03*
G54D47*
X00261500Y00335100D03*
X00278500D03*
Y00309900D03*
X00261500D03*
X00176000Y00442400D03*
X00159000D03*
Y00467600D03*
X00176000D03*
G54D48*
X00305000Y00352500D03*
X00307300Y00420000D02*
X00303300D01*
X00307300Y00400000D02*
X00303300D01*
G54D49*
X00203200Y00365000D02*
X00198200D01*
X00203200Y00370000D02*
X00198200D01*
X00203200Y00375000D02*
X00198200D01*
X00203200Y00380000D02*
X00198200D01*
X00203200Y00385000D02*
X00198200D01*
X00203200Y00390000D02*
X00198200D01*
X00203200Y00395000D02*
X00198200D01*
X00203200Y00400000D02*
X00198200D01*
X00181800D02*
X00176800D01*
X00181800Y00395000D02*
X00176800D01*
X00181800Y00390000D02*
X00176800D01*
X00181800Y00385000D02*
X00176800D01*
X00181800Y00380000D02*
X00176800D01*
X00181800Y00375000D02*
X00176800D01*
X00181800Y00370000D02*
X00176800D01*
X00181800Y00365000D02*
X00176800D01*
G54D50*
X00403661Y00364055D03*
X00382500Y00461870D03*
G54D51*
X00342000Y00410750D02*
Y00409250D01*
G54D67*
X00445000Y00397500D03*
X00410000D03*
X00377500Y00390000D03*
Y00355000D03*
G54D68*
X00403250Y00440000D02*
X00401750D01*
X00403250Y00460000D02*
X00401750D01*
X00341750Y00380000D02*
X00343250D01*
X00341750Y00360000D02*
X00343250D01*
G74*
X00000000Y00000000D02*
M02*
