*
*
G04 PowerPCB (Build Number 500.281.2.20) generated Gerber (RS-274-X) file*
G04 PC Version=2.1*
*
%IN "CT01A.pcb"*%
*
%MOIN*%
*
%FSLAX35Y35*%
*
*
*
*
G04 PC Standard Apertures*
*
*
G04 Thermal Relief Aperture macro.*
%AMTER*
1,1,$1,0,0*
1,0,$1-$2,0,0*
21,0,$3,$4,0,0,45*
21,0,$3,$4,0,0,135*
%
*
*
G04 Annular Aperture macro.*
%AMANN*
1,1,$1,0,0*
1,0,$2,0,0*
%
*
*
G04 Odd Aperture macro.*
%AMODD*
1,1,$1,0,0*
1,0,$1-0.005,0,0*
%
*
*
G04 PC Custom Aperture Macros*
*
*
*
*
*
*
G04 PC Aperture Table*
*
%ADD023C,0.007*%
%ADD024C,0.001*%
%ADD025C,0.01*%
%ADD029C,0.005*%
%ADD036C,0.008*%
*
*
*
*
G04 PC Custom Flashes*
G04 Layer Name CT01A.pcb - flashes*
%LPD*%
*
*
G04 PC Circuitry*
G04 Layer Name CT01A.pcb - circuitry*
%LPD*%
*
G54D23*
G01X00110000Y00110000D02*
Y00110500D01*
Y00110000D02*
X00110500D01*
X00110000D02*
Y00109500D01*
Y00110000D02*
X00109500D01*
X00111500D02*
X00116500D01*
X00110000Y00108500D02*
Y00105100D01*
Y00111500D02*
Y00116000D01*
X00104000Y00110000D02*
X00108500D01*
X00113000D02*
G75*
G03X00113000I-00003000D01*
G01X00112000D02*
G03X00112000I-00002000D01*
G01X00490000D02*
Y00110500D01*
Y00110000D02*
X00490500D01*
X00490000D02*
Y00109500D01*
Y00110000D02*
X00489500D01*
X00491500D02*
X00496500D01*
X00490000Y00108500D02*
Y00105100D01*
Y00111500D02*
Y00116000D01*
X00484000Y00110000D02*
X00488500D01*
X00493000D02*
G03X00493000I-00003000D01*
G01X00492000D02*
G03X00492000I-00002000D01*
G01X00490000Y00490000D02*
Y00490500D01*
Y00490000D02*
X00490500D01*
X00490000D02*
Y00489500D01*
Y00490000D02*
X00489500D01*
X00491500D02*
X00496500D01*
X00490000Y00488500D02*
Y00485100D01*
Y00491500D02*
Y00496000D01*
X00484000Y00490000D02*
X00488500D01*
X00493000D02*
G03X00493000I-00003000D01*
G01X00492000D02*
G03X00492000I-00002000D01*
G54D24*
G01X00479000Y00121000D02*
X00479002D01*
X00479000Y00479000D02*
X00479002D01*
X00479000Y00121000D02*
X00479002D01*
X00121000D02*
X00121002D01*
G54D25*
X00484000D02*
X00495000D01*
X00484000Y00479000D02*
X00495000D01*
X00479000Y00116000D02*
Y00105000D01*
X00121000Y00116000D02*
Y00105000D01*
G54D29*
Y00479000D02*
X00479000D01*
Y00121000*
X00121000*
Y00479000*
G54D36*
X00490000Y00121000D02*
Y00284363D01*
Y00121000D02*
X00487500Y00131000D01*
X00492500*
X00490000Y00121000*
Y00479000D02*
Y00315636D01*
Y00479000D02*
X00492500Y00469000D01*
X00487500*
X00490000Y00479000*
X00487750Y00287727D02*
Y00289727D01*
X00489750Y00288636*
Y00289181*
X00489750D02*
X00490000Y00289545D01*
X00490250Y00289727*
X00491000Y00289909*
X00491500*
X00492250Y00289727*
X00492750Y00289363*
X00492750D02*
X00493000Y00288818D01*
Y00288272*
X00493000D02*
X00492750Y00287727D01*
X00492500Y00287545*
X00492000Y00287363*
X00487750Y00293909D02*
Y00292090D01*
X00487750D02*
X00490000Y00291909D01*
X00489750Y00292090*
X00489750D02*
X00489500Y00292636D01*
Y00293181*
X00489500D02*
X00489750Y00293727D01*
X00490250Y00294090*
X00490250D02*
X00491000Y00294272D01*
X00491000D02*
X00491500Y00294090D01*
X00491500D02*
X00492250Y00293909D01*
X00492750Y00293545*
X00493000Y00293000*
Y00292454*
X00493000D02*
X00492750Y00291909D01*
X00492500Y00291727*
X00492000Y00291545*
X00487750Y00296818D02*
X00488000Y00296272D01*
X00488000D02*
X00488500Y00296090D01*
X00488500D02*
X00489000D01*
X00489000D02*
X00489500Y00296272D01*
X00489500D02*
X00489750Y00296636D01*
X00490000Y00297363*
X00490000D02*
X00490250Y00297909D01*
X00490750Y00298272*
X00490750D02*
X00491250Y00298454D01*
X00491250D02*
X00492000D01*
X00492000D02*
X00492500Y00298272D01*
X00492500D02*
X00492750Y00298090D01*
X00492750D02*
X00493000Y00297545D01*
Y00296818*
X00492750Y00296272*
X00492750D02*
X00492500Y00296090D01*
X00492500D02*
X00492000Y00295909D01*
X00491250*
X00490750Y00296090*
X00490750D02*
X00490250Y00296454D01*
X00490250D02*
X00490000Y00297000D01*
X00489750Y00297727*
X00489500Y00298090*
X00489500D02*
X00489000Y00298272D01*
X00489000D02*
X00488500D01*
X00488500D02*
X00488000Y00298090D01*
X00488000D02*
X00487750Y00297545D01*
Y00296818*
Y00301181D02*
X00488000Y00300636D01*
X00488750Y00300272*
X00488750D02*
X00490000Y00300090D01*
X00490000D02*
X00490750D01*
X00490750D02*
X00492000Y00300272D01*
X00492000D02*
X00492750Y00300636D01*
X00493000Y00301181*
X00493000D02*
Y00301545D01*
X00492750Y00302090*
X00492750D02*
X00492000Y00302454D01*
X00492000D02*
X00490750Y00302636D01*
X00490000*
X00488750Y00302454*
X00488750D02*
X00488000Y00302090D01*
X00488000D02*
X00487750Y00301545D01*
Y00301181*
X00489500Y00304272D02*
X00493000D01*
X00490500D02*
X00489750Y00304818D01*
X00489500Y00305181*
X00489500D02*
Y00305727D01*
X00489750Y00306090*
X00489750D02*
X00490500Y00306272D01*
X00490500D02*
X00493000D01*
X00490500D02*
X00489750Y00306818D01*
X00489500Y00307181*
X00489500D02*
Y00307727D01*
X00489750Y00308090*
X00489750D02*
X00490500Y00308272D01*
X00490500D02*
X00493000D01*
X00487750Y00309909D02*
X00488000Y00310090D01*
X00488000D02*
X00487750Y00310272D01*
X00487750D02*
X00487500Y00310090D01*
X00487500D02*
X00487750Y00309909D01*
X00489500Y00310090D02*
X00493000D01*
X00487750Y00311909D02*
X00493000D01*
X00479000Y00110000D02*
X00315636D01*
X00479000D02*
X00469000Y00107500D01*
Y00112500*
X00479000Y00110000*
X00121000D02*
X00284363D01*
X00121000D02*
X00131000Y00112500D01*
Y00107500*
X00121000Y00110000*
X00287727Y00112250D02*
X00289727D01*
X00288636Y00110250*
X00289181*
X00289181D02*
X00289545Y00110000D01*
X00289727Y00109750*
X00289909Y00109000*
Y00108500*
X00289727Y00107750*
X00289363Y00107250*
X00289363D02*
X00288818Y00107000D01*
X00288272*
X00288272D02*
X00287727Y00107250D01*
X00287545Y00107500*
X00287363Y00108000*
X00293909Y00112250D02*
X00292090D01*
X00292090D02*
X00291909Y00110000D01*
X00292090Y00110250*
X00292090D02*
X00292636Y00110500D01*
X00293181*
X00293181D02*
X00293727Y00110250D01*
X00294090Y00109750*
X00294090D02*
X00294272Y00109000D01*
X00294272D02*
X00294090Y00108500D01*
X00294090D02*
X00293909Y00107750D01*
X00293545Y00107250*
X00293000Y00107000*
X00292454*
X00292454D02*
X00291909Y00107250D01*
X00291727Y00107500*
X00291545Y00108000*
X00296818Y00112250D02*
X00296272Y00112000D01*
X00296272D02*
X00296090Y00111500D01*
X00296090D02*
Y00111000D01*
X00296090D02*
X00296272Y00110500D01*
X00296272D02*
X00296636Y00110250D01*
X00297363Y00110000*
X00297363D02*
X00297909Y00109750D01*
X00298272Y00109250*
X00298272D02*
X00298454Y00108750D01*
X00298454D02*
Y00108000D01*
X00298454D02*
X00298272Y00107500D01*
X00298272D02*
X00298090Y00107250D01*
X00298090D02*
X00297545Y00107000D01*
X00296818*
X00296272Y00107250*
X00296272D02*
X00296090Y00107500D01*
X00296090D02*
X00295909Y00108000D01*
Y00108750*
X00296090Y00109250*
X00296090D02*
X00296454Y00109750D01*
X00296454D02*
X00297000Y00110000D01*
X00297727Y00110250*
X00298090Y00110500*
X00298090D02*
X00298272Y00111000D01*
X00298272D02*
Y00111500D01*
X00298272D02*
X00298090Y00112000D01*
X00298090D02*
X00297545Y00112250D01*
X00296818*
X00301181D02*
X00300636Y00112000D01*
X00300272Y00111250*
X00300272D02*
X00300090Y00110000D01*
X00300090D02*
Y00109250D01*
X00300090D02*
X00300272Y00108000D01*
X00300272D02*
X00300636Y00107250D01*
X00301181Y00107000*
X00301181D02*
X00301545D01*
X00302090Y00107250*
X00302090D02*
X00302454Y00108000D01*
X00302454D02*
X00302636Y00109250D01*
Y00110000*
X00302454Y00111250*
X00302454D02*
X00302090Y00112000D01*
X00302090D02*
X00301545Y00112250D01*
X00301181*
X00304272Y00110500D02*
Y00107000D01*
Y00109500D02*
X00304818Y00110250D01*
X00305181Y00110500*
X00305181D02*
X00305727D01*
X00306090Y00110250*
X00306090D02*
X00306272Y00109500D01*
X00306272D02*
Y00107000D01*
Y00109500D02*
X00306818Y00110250D01*
X00307181Y00110500*
X00307181D02*
X00307727D01*
X00308090Y00110250*
X00308090D02*
X00308272Y00109500D01*
X00308272D02*
Y00107000D01*
X00309909Y00112250D02*
X00310090Y00112000D01*
X00310090D02*
X00310272Y00112250D01*
X00310272D02*
X00310090Y00112500D01*
X00310090D02*
X00309909Y00112250D01*
X00310090Y00110500D02*
Y00107000D01*
X00311909Y00112250D02*
Y00107000D01*
G74*
X00000000Y00000000D02*
M02*
