*
*
G04 PowerPCB (Build Number 500.281.2.20) generated Gerber (RS-274-X) file*
G04 PC Version=2.1*
*
%IN "CT01A.pcb"*%
*
%MOIN*%
*
%FSLAX35Y35*%
*
*
*
*
G04 PC Standard Apertures*
*
*
G04 Thermal Relief Aperture macro.*
%AMTER*
1,1,$1,0,0*
1,0,$1-$2,0,0*
21,0,$3,$4,0,0,45*
21,0,$3,$4,0,0,135*
%
*
*
G04 Annular Aperture macro.*
%AMANN*
1,1,$1,0,0*
1,0,$2,0,0*
%
*
*
G04 Odd Aperture macro.*
%AMODD*
1,1,$1,0,0*
1,0,$1-0.005,0,0*
%
*
*
G04 PC Custom Aperture Macros*
*
*
*
*
*
*
G04 PC Aperture Table*
*
%ADD011C,0.06*%
%ADD012R,0.07X0.07*%
%ADD023C,0.007*%
%ADD030R,0.049X0.049*%
%ADD031C,0.07*%
%ADD032R,0.08X0.08*%
%ADD033C,0.24622*%
%ADD041C,0.08*%
%ADD052C,0.15*%
%ADD053C,0.08394*%
%ADD054C,0.187*%
%ADD055C,0.101*%
%ADD056C,0.095*%
%ADD057R,0.075X0.075*%
%ADD058C,0.075*%
%ADD059R,0.09X0.09*%
%ADD060C,0.09*%
%ADD061C,0.035*%
%ADD062C,0.18717*%
%ADD063R,0.42X0.42*%
*
*
*
*
G04 PC Custom Flashes*
G04 Layer Name CT01A.pcb - flashes*
%LPD*%
*
*
G04 PC Circuitry*
G04 Layer Name CT01A.pcb - circuitry*
%LPD*%
*
G54D11*
G01X00140000Y00410000D03*
X00430000Y00140000D03*
G54D12*
X00460000Y00392500D03*
X00377500Y00410000D03*
X00387500D03*
X00397500D03*
G54D23*
X00110000Y00110000D02*
Y00110500D01*
Y00110000D02*
X00110500D01*
X00110000D02*
Y00109500D01*
Y00110000D02*
X00109500D01*
X00111500D02*
X00116500D01*
X00110000Y00108500D02*
Y00105100D01*
Y00111500D02*
Y00116000D01*
X00104000Y00110000D02*
X00108500D01*
X00113000D02*
G75*
G03X00113000I-00003000D01*
G01X00112000D02*
G03X00112000I-00002000D01*
G01X00490000D02*
Y00110500D01*
Y00110000D02*
X00490500D01*
X00490000D02*
Y00109500D01*
Y00110000D02*
X00489500D01*
X00491500D02*
X00496500D01*
X00490000Y00108500D02*
Y00105100D01*
Y00111500D02*
Y00116000D01*
X00484000Y00110000D02*
X00488500D01*
X00493000D02*
G03X00493000I-00003000D01*
G01X00492000D02*
G03X00492000I-00002000D01*
G01X00490000Y00490000D02*
Y00490500D01*
Y00490000D02*
X00490500D01*
X00490000D02*
Y00489500D01*
Y00490000D02*
X00489500D01*
X00491500D02*
X00496500D01*
X00490000Y00488500D02*
Y00485100D01*
Y00491500D02*
Y00496000D01*
X00484000Y00490000D02*
X00488500D01*
X00493000D02*
G03X00493000I-00003000D01*
G01X00492000D02*
G03X00492000I-00002000D01*
G54D30*
G01X00209150Y00371300D02*
X00210850D01*
X00209150Y00363700D02*
X00210850D01*
X00209150Y00386300D02*
X00210850D01*
X00209150Y00378700D02*
X00210850D01*
X00263350Y00363700D02*
X00261650D01*
X00263350Y00371300D02*
X00261650D01*
X00203350Y00348700D02*
X00201650D01*
X00203350Y00356300D02*
X00201650D01*
X00193350Y00348700D02*
X00191650D01*
X00193350Y00356300D02*
X00191650D01*
X00171200Y00354150D02*
Y00355850D01*
X00178800Y00354150D02*
Y00355850D01*
X00428800Y00305850D02*
Y00304150D01*
X00421200Y00305850D02*
Y00304150D01*
X00455850Y00373700D02*
X00454150D01*
X00455850Y00381300D02*
X00454150D01*
Y00363800D02*
X00455850D01*
X00454150Y00356200D02*
X00455850D01*
X00311650Y00468800D02*
X00313350D01*
X00311650Y00461200D02*
X00313350D01*
X00276650Y00463800D02*
X00278350D01*
X00276650Y00456200D02*
X00278350D01*
Y00438700D02*
X00276650D01*
X00278350Y00446300D02*
X00276650D01*
X00301650Y00468800D02*
X00303350D01*
X00301650Y00461200D02*
X00303350D01*
X00346650Y00468800D02*
X00348350D01*
X00346650Y00461200D02*
X00348350D01*
X00333350Y00448700D02*
X00331650D01*
X00333350Y00456300D02*
X00331650D01*
X00224400Y00371300D02*
X00225600D01*
X00224400Y00363700D02*
X00225600D01*
X00358100Y00461200D02*
X00356900D01*
X00358100Y00468800D02*
X00356900D01*
X00341200Y00451900D02*
Y00453100D01*
X00348800Y00451900D02*
Y00453100D01*
X00368100Y00461200D02*
X00366900D01*
X00368100Y00468800D02*
X00366900D01*
X00338800Y00468100D02*
Y00466900D01*
X00331200Y00468100D02*
Y00466900D01*
X00341300Y00440600D02*
Y00439400D01*
X00333700Y00440600D02*
Y00439400D01*
X00240600Y00333700D02*
X00239400D01*
X00240600Y00341300D02*
X00239400D01*
X00421200Y00329400D02*
Y00330600D01*
X00428800Y00329400D02*
Y00330600D01*
X00273100Y00363700D02*
X00271900D01*
X00273100Y00371300D02*
X00271900D01*
X00281900D02*
X00283100D01*
X00281900Y00363700D02*
X00283100D01*
X00333700Y00379400D02*
Y00380600D01*
X00341300Y00379400D02*
Y00380600D01*
X00223100Y00461200D02*
X00221900D01*
X00223100Y00468800D02*
X00221900D01*
X00333700Y00366900D02*
Y00368100D01*
X00341300Y00366900D02*
Y00368100D01*
X00256300Y00455600D02*
Y00454400D01*
X00248700Y00455600D02*
Y00454400D01*
X00256300Y00443100D02*
Y00441900D01*
X00248700Y00443100D02*
Y00441900D01*
X00258100Y00426200D02*
X00256900D01*
X00258100Y00433800D02*
X00256900D01*
X00311300Y00450600D02*
Y00449400D01*
X00303700Y00450600D02*
Y00449400D01*
X00311300Y00438100D02*
Y00436900D01*
X00303700Y00438100D02*
Y00436900D01*
X00350600Y00436200D02*
X00349400D01*
X00350600Y00443800D02*
X00349400D01*
G54D31*
X00470000Y00392500D03*
X00445000Y00397500D03*
X00410000D03*
X00377500D03*
Y00362500D03*
X00277500Y00415000D03*
Y00470000D03*
G54D32*
X00410000Y00412500D03*
X00420000D03*
X00430000D03*
X00440000D03*
X00357500Y00377500D03*
Y00367500D03*
X00237500Y00400000D03*
X00292500Y00437500D03*
G54D33*
X00140000Y00140000D03*
X00460000D03*
Y00460000D03*
X00140000D03*
G54D41*
X00247500Y00400000D03*
X00257500D03*
X00277500D03*
X00287500D03*
X00292500Y00447500D03*
Y00457500D03*
Y00467500D03*
X00322500D03*
Y00457500D03*
Y00447500D03*
Y00437500D03*
G54D52*
X00422500Y00425500D03*
Y00449500D03*
X00442500Y00433500D03*
G54D53*
X00164090Y00353346D03*
Y00364173D03*
Y00375000D03*
Y00385826D03*
Y00396653D03*
X00152909Y00358759D03*
Y00369586D03*
Y00380413D03*
Y00391240D03*
G54D54*
X00158500Y00326496D03*
Y00423503D03*
X00152500Y00285700D03*
Y00163700D03*
X00447500D03*
Y00285700D03*
G54D55*
X00192500Y00465000D03*
X00212500D03*
X00202500Y00425000D03*
X00235000Y00465000D03*
X00255000D03*
X00245000Y00425000D03*
X00447500Y00330000D03*
Y00310000D03*
X00407500Y00320000D03*
G54D56*
X00261500Y00335100D03*
X00278500D03*
Y00309900D03*
X00261500D03*
X00176000Y00447400D03*
X00159000D03*
Y00472600D03*
X00176000D03*
G54D57*
X00305000Y00352500D03*
X00307300Y00420000D02*
X00303300D01*
X00307300Y00400000D02*
X00303300D01*
G54D58*
X00295000Y00352500D03*
X00285000D03*
X00275000D03*
X00265000D03*
X00255000D03*
X00245000D03*
X00235000D03*
X00225000D03*
Y00382500D03*
X00235000D03*
X00245000D03*
X00255000D03*
X00265000D03*
X00275000D03*
X00285000D03*
X00295000D03*
X00305000D03*
G54D59*
X00426000Y00287200D03*
G54D60*
X00416000D03*
X00406000D03*
X00396000D03*
X00386000D03*
X00376000D03*
X00366000D03*
X00356000D03*
X00346000D03*
X00336000D03*
X00326000D03*
X00316000D03*
X00306000D03*
X00296000D03*
X00286000D03*
X00276000D03*
X00470000Y00375000D03*
Y00355000D03*
Y00365000D03*
X00392500Y00422500D03*
X00372500D03*
X00382500D03*
G54D61*
X00203200Y00365000D02*
X00198200D01*
X00203200Y00370000D02*
X00198200D01*
X00203200Y00375000D02*
X00198200D01*
X00203200Y00380000D02*
X00198200D01*
X00203200Y00385000D02*
X00198200D01*
X00203200Y00390000D02*
X00198200D01*
X00203200Y00395000D02*
X00198200D01*
X00203200Y00400000D02*
X00198200D01*
X00181800D02*
X00176800D01*
X00181800Y00395000D02*
X00176800D01*
X00181800Y00390000D02*
X00176800D01*
X00181800Y00385000D02*
X00176800D01*
X00181800Y00380000D02*
X00176800D01*
X00181800Y00375000D02*
X00176800D01*
X00181800Y00370000D02*
X00176800D01*
X00181800Y00365000D02*
X00176800D01*
G54D62*
X00403661Y00364055D03*
X00382500Y00461870D03*
G54D63*
X00342000Y00410750D02*
Y00409250D01*
G74*
X00000000Y00000000D02*
M02*
