*
*
G04 PowerPCB (Build Number 500.281.2.20) generated Gerber (RS-274-X) file*
G04 PC Version=2.1*
*
%IN "CT01A.pcb"*%
*
%MOIN*%
*
%FSLAX35Y35*%
*
*
*
*
G04 PC Standard Apertures*
*
*
G04 Thermal Relief Aperture macro.*
%AMTER*
1,1,$1,0,0*
1,0,$1-$2,0,0*
21,0,$3,$4,0,0,45*
21,0,$3,$4,0,0,135*
%
*
*
G04 Annular Aperture macro.*
%AMANN*
1,1,$1,0,0*
1,0,$2,0,0*
%
*
*
G04 Odd Aperture macro.*
%AMODD*
1,1,$1,0,0*
1,0,$1-0.005,0,0*
%
*
*
G04 PC Custom Aperture Macros*
*
*
*
*
*
*
G04 PC Aperture Table*
*
%ADD023C,0.007*%
%ADD025C,0.01*%
%ADD038R,0.035X0.035*%
%ADD040R,0.06X0.06*%
%ADD066C,0.023*%
*
*
*
*
G04 PC Custom Flashes*
G04 Layer Name CT01A.pcb - flashes*
%LPD*%
*
*
G04 PC Circuitry*
G04 Layer Name CT01A.pcb - circuitry*
%LPD*%
*
G54D23*
G01X00110000Y00110000D02*
Y00110500D01*
Y00110000D02*
X00110500D01*
X00110000D02*
Y00109500D01*
Y00110000D02*
X00109500D01*
X00111500D02*
X00116500D01*
X00110000Y00108500D02*
Y00105100D01*
Y00111500D02*
Y00116000D01*
X00104000Y00110000D02*
X00108500D01*
X00113000D02*
G75*
G03X00113000I-00003000D01*
G01X00112000D02*
G03X00112000I-00002000D01*
G01X00490000D02*
Y00110500D01*
Y00110000D02*
X00490500D01*
X00490000D02*
Y00109500D01*
Y00110000D02*
X00489500D01*
X00491500D02*
X00496500D01*
X00490000Y00108500D02*
Y00105100D01*
Y00111500D02*
Y00116000D01*
X00484000Y00110000D02*
X00488500D01*
X00493000D02*
G03X00493000I-00003000D01*
G01X00492000D02*
G03X00492000I-00002000D01*
G01X00490000Y00490000D02*
Y00490500D01*
Y00490000D02*
X00490500D01*
X00490000D02*
Y00489500D01*
Y00490000D02*
X00489500D01*
X00491500D02*
X00496500D01*
X00490000Y00488500D02*
Y00485100D01*
Y00491500D02*
Y00496000D01*
X00484000Y00490000D02*
X00488500D01*
X00493000D02*
G03X00493000I-00003000D01*
G01X00492000D02*
G03X00492000I-00002000D01*
G54D25*
G01X00338100Y00400500D02*
X00361200D01*
Y00419100*
X00338100*
Y00400500*
Y00418498D02*
X00361200D01*
X00338100Y00417598D02*
X00361200D01*
X00338100Y00416698D02*
X00361200D01*
X00338100Y00415798D02*
X00361200D01*
X00338100Y00414898D02*
X00361200D01*
X00338100Y00413998D02*
X00361200D01*
X00338100Y00413098D02*
X00361200D01*
X00338100Y00412198D02*
X00361200D01*
X00338100Y00411298D02*
X00361200D01*
X00338100Y00410398D02*
X00361200D01*
X00338100Y00409498D02*
X00361200D01*
X00338100Y00408598D02*
X00361200D01*
X00338100Y00407698D02*
X00361200D01*
X00338100Y00406798D02*
X00361200D01*
X00338100Y00405898D02*
X00361200D01*
X00338100Y00404998D02*
X00361200D01*
X00338100Y00404098D02*
X00361200D01*
X00338100Y00403198D02*
X00361200D01*
X00338100Y00402298D02*
X00361200D01*
X00338100Y00401398D02*
X00361200D01*
G54D38*
X00209150Y00371300D02*
X00210850D01*
X00209150Y00363700D02*
X00210850D01*
X00209150Y00386300D02*
X00210850D01*
X00209150Y00378700D02*
X00210850D01*
X00263350Y00363700D02*
X00261650D01*
X00263350Y00371300D02*
X00261650D01*
X00203350Y00348700D02*
X00201650D01*
X00203350Y00356300D02*
X00201650D01*
X00193350Y00348700D02*
X00191650D01*
X00193350Y00356300D02*
X00191650D01*
X00171200Y00354150D02*
Y00355850D01*
X00178800Y00354150D02*
Y00355850D01*
X00428800Y00305850D02*
Y00304150D01*
X00421200Y00305850D02*
Y00304150D01*
X00455850Y00373700D02*
X00454150D01*
X00455850Y00381300D02*
X00454150D01*
Y00363800D02*
X00455850D01*
X00454150Y00356200D02*
X00455850D01*
X00311650Y00468800D02*
X00313350D01*
X00311650Y00461200D02*
X00313350D01*
X00276650Y00463800D02*
X00278350D01*
X00276650Y00456200D02*
X00278350D01*
Y00438700D02*
X00276650D01*
X00278350Y00446300D02*
X00276650D01*
X00301650Y00468800D02*
X00303350D01*
X00301650Y00461200D02*
X00303350D01*
X00346650Y00468800D02*
X00348350D01*
X00346650Y00461200D02*
X00348350D01*
X00333350Y00448700D02*
X00331650D01*
X00333350Y00456300D02*
X00331650D01*
X00224400Y00371300D02*
X00225600D01*
X00224400Y00363700D02*
X00225600D01*
X00358100Y00461200D02*
X00356900D01*
X00358100Y00468800D02*
X00356900D01*
X00341200Y00451900D02*
Y00453100D01*
X00348800Y00451900D02*
Y00453100D01*
X00368100Y00461200D02*
X00366900D01*
X00368100Y00468800D02*
X00366900D01*
X00338800Y00468100D02*
Y00466900D01*
X00331200Y00468100D02*
Y00466900D01*
X00341300Y00440600D02*
Y00439400D01*
X00333700Y00440600D02*
Y00439400D01*
X00240600Y00333700D02*
X00239400D01*
X00240600Y00341300D02*
X00239400D01*
X00421200Y00329400D02*
Y00330600D01*
X00428800Y00329400D02*
Y00330600D01*
X00273100Y00363700D02*
X00271900D01*
X00273100Y00371300D02*
X00271900D01*
X00281900D02*
X00283100D01*
X00281900Y00363700D02*
X00283100D01*
X00333700Y00379400D02*
Y00380600D01*
X00341300Y00379400D02*
Y00380600D01*
X00223100Y00461200D02*
X00221900D01*
X00223100Y00468800D02*
X00221900D01*
X00333700Y00366900D02*
Y00368100D01*
X00341300Y00366900D02*
Y00368100D01*
X00256300Y00455600D02*
Y00454400D01*
X00248700Y00455600D02*
Y00454400D01*
X00256300Y00443100D02*
Y00441900D01*
X00248700Y00443100D02*
Y00441900D01*
X00258100Y00426200D02*
X00256900D01*
X00258100Y00433800D02*
X00256900D01*
X00311300Y00450600D02*
Y00449400D01*
X00303700Y00450600D02*
Y00449400D01*
X00311300Y00438100D02*
Y00436900D01*
X00303700Y00438100D02*
Y00436900D01*
X00350600Y00436200D02*
X00349400D01*
X00350600Y00443800D02*
X00349400D01*
G54D40*
X00307300Y00420000D02*
X00303300D01*
X00307300Y00400000D02*
X00303300D01*
G54D66*
X00202900Y00365000D02*
X00198500D01*
X00202900Y00370000D02*
X00198500D01*
X00202900Y00375000D02*
X00198500D01*
X00202900Y00380000D02*
X00198500D01*
X00202900Y00385000D02*
X00198500D01*
X00202900Y00390000D02*
X00198500D01*
X00202900Y00395000D02*
X00198500D01*
X00202900Y00400000D02*
X00198500D01*
X00181500D02*
X00177100D01*
X00181500Y00395000D02*
X00177100D01*
X00181500Y00390000D02*
X00177100D01*
X00181500Y00385000D02*
X00177100D01*
X00181500Y00380000D02*
X00177100D01*
X00181500Y00375000D02*
X00177100D01*
X00181500Y00370000D02*
X00177100D01*
X00181500Y00365000D02*
X00177100D01*
G74*
X00000000Y00000000D02*
M02*
