*
*
G04 PowerPCB (Build Number 500.281.2.20) generated Gerber (RS-274-X) file*
G04 PC Version=2.1*
*
%IN "Untitled"*%
*
%MOIN*%
*
%FSLAX35Y35*%
*
*
*
*
G04 PC Standard Apertures*
*
*
G04 Thermal Relief Aperture macro.*
%AMTER*
1,1,$1,0,0*
1,0,$1-$2,0,0*
21,0,$3,$4,0,0,45*
21,0,$3,$4,0,0,135*
%
*
*
G04 Annular Aperture macro.*
%AMANN*
1,1,$1,0,0*
1,0,$2,0,0*
%
*
*
G04 Odd Aperture macro.*
%AMODD*
1,1,$1,0,0*
1,0,$1-0.005,0,0*
%
*
*
G04 PC Custom Aperture Macros*
*
*
*
*
*
*
G04 PC Aperture Table*
*
%ADD011C,0.06*%
%ADD013C,0.23622*%
%ADD014C,0.05*%
%ADD017C,0.02*%
%ADD018C,0.015*%
%ADD023C,0.007*%
%ADD025C,0.01*%
%ADD031C,0.07*%
%ADD035C,0.065*%
%ADD040R,0.06X0.06*%
%ADD042C,0.045*%
%ADD043C,0.177*%
%ADD044C,0.081*%
*
*
*
*
G04 PC Custom Flashes*
G04 Layer Name Untitled - flashes*
%LPD*%
*
*
G04 PC Circuitry*
G04 Layer Name Untitled - circuitry*
%LPD*%
*
G54D11*
G01X00152858Y00316000D03*
X00133141D03*
X00236000Y00184100D03*
X00290000Y00138000D03*
X00223000Y00225000D03*
X00209858Y00182000D03*
X00190141D03*
X00317141Y00188000D03*
X00336858D03*
X00360141Y00171000D03*
X00379858D03*
X00343900Y00163000D03*
X00261858Y00237000D03*
X00242141D03*
X00302000Y00316858D03*
Y00297141D03*
Y00325141D03*
Y00344858D03*
Y00261858D03*
Y00242141D03*
Y00270141D03*
Y00289858D03*
X00284000Y00272858D03*
Y00253141D03*
Y00282141D03*
Y00301858D03*
X00261000Y00199858D03*
Y00180141D03*
X00161500Y00301000D03*
X00126500D03*
X00264500Y00250000D03*
X00239500D03*
X00175000Y00343000D03*
X00185000D03*
X00335000Y00137000D03*
X00345000D03*
X00325000Y00343000D03*
X00335000D03*
X00345000D03*
X00355000D03*
X00220000D03*
X00329000Y00242000D03*
Y00232000D03*
Y00212000D03*
Y00202000D03*
X00222500Y00329000D03*
Y00319000D03*
X00227500Y00324000D03*
X00225500Y00280000D03*
Y00290000D03*
X00220500Y00285000D03*
X00180000Y00265500D03*
Y00300500D03*
X00316500Y00310000D03*
X00351500D03*
X00177500Y00239000D03*
X00212500D03*
X00208000Y00265500D03*
Y00300500D03*
X00212500Y00211000D03*
X00177500D03*
Y00197000D03*
X00212500D03*
X00276500Y00204000D03*
X00311500D03*
X00380500Y00189000D03*
X00345500D03*
X00177500Y00312000D03*
X00212500D03*
Y00326000D03*
X00177500D03*
X00194000Y00265500D03*
Y00300500D03*
X00177500Y00225000D03*
X00212500D03*
X00276500Y00229000D03*
X00311500D03*
X00315500Y00268000D03*
X00350500D03*
X00315500Y00282000D03*
X00350500D03*
X00315500Y00296000D03*
X00350500D03*
X00237000Y00335000D03*
Y00325000D03*
Y00315000D03*
Y00305000D03*
Y00295000D03*
Y00285000D03*
Y00275000D03*
Y00265000D03*
X00267000D03*
Y00275000D03*
Y00285000D03*
Y00295000D03*
Y00305000D03*
Y00315000D03*
Y00325000D03*
Y00335000D03*
Y00345000D03*
X00275900Y00179000D03*
Y00169000D03*
Y00159000D03*
X00305900D03*
Y00169000D03*
Y00179000D03*
Y00189000D03*
X00284000Y00318141D03*
Y00337858D03*
X00190000Y00251500D03*
X00200000D03*
X00195000Y00256500D03*
G54D13*
X00140000Y00140000D03*
X00380000D03*
Y00340000D03*
X00140000D03*
G54D14*
X00250000Y00140000D03*
X00321000Y00325000D03*
G54D17*
X00335000Y00137000D02*
Y00144600D01*
X00343900Y00153500*
Y00163000*
X00177500Y00197000D02*
Y00211000D01*
X00179000Y00151000D02*
X00232100D01*
X00250100Y00169000*
X00275900*
X00212500Y00211000D02*
X00217000Y00215500D01*
Y00219000*
X00223000Y00225000*
X00219000Y00161000D02*
Y00183300D01*
X00212500Y00189800*
Y00197000*
X00209858Y00182000D02*
X00194858Y00197000D01*
X00177500*
X00236000Y00197900D02*
X00247500D01*
X00249458Y00199858*
X00261000*
X00236000Y00197900D02*
X00225400D01*
X00219300Y00204000*
X00211700*
X00207000Y00208700*
Y00227300*
X00211700Y00232000*
X00213300*
X00218000Y00236700*
Y00263300*
X00210300Y00271000*
X00208000*
X00305900Y00169000D02*
X00311400Y00174500D01*
Y00191300*
X00293200Y00209500*
X00276500*
X00305900Y00159000D02*
X00316000D01*
X00320000Y00163000*
X00330100*
X00275900Y00189000D02*
Y00196200D01*
X00276500Y00196800*
Y00204000*
X00329000Y00202000D02*
X00319100Y00211900D01*
Y00221400*
X00311500Y00229000*
X00261000Y00199858D02*
X00270641Y00209500D01*
X00270641D02*
X00276500D01*
X00330100Y00163000D02*
Y00172100D01*
X00336858Y00178858*
Y00188000*
X00344500*
X00345500Y00189000*
X00317141Y00188000D02*
Y00198358D01*
X00317141D02*
X00311500Y00204000D01*
X00290000Y00146000D02*
Y00163100D01*
X00305900Y00179000*
X00379858Y00171000D02*
Y00177858D01*
X00380500Y00178500*
Y00189000*
X00362400Y00211500D02*
Y00218300D01*
X00350500Y00230200*
Y00268000*
X00177500Y00225000D02*
X00170000Y00232500D01*
Y00233517*
X00163590Y00240826*
X00177500Y00239000D02*
X00190000Y00251500D01*
X00195000Y00256500D02*
X00199500Y00261000D01*
Y00264800*
X00205700Y00271000*
X00208000*
X00200000Y00251500D02*
X00204000Y00255500D01*
Y00261500*
X00208000Y00265500*
X00190000Y00251500D02*
X00185000Y00256500D01*
Y00260500*
X00180000Y00265500*
X00212500Y00225000D02*
X00224000Y00236500D01*
Y00260000*
X00231000Y00267000*
Y00279000*
X00237000Y00285000*
X00194000Y00265500D02*
X00206500Y00278000D01*
X00213500*
X00220500Y00285000*
X00194000Y00265500D02*
X00167000Y00292500D01*
Y00321000*
X00172000Y00326000*
X00177500*
X00212500Y00239000D02*
X00200000Y00251500D01*
X00180000Y00265500D02*
Y00274000D01*
X00161500Y00292500*
Y00301000*
X00225500Y00290000D02*
X00221500Y00294000D01*
X00200500*
X00194000Y00300500*
X00225500Y00280000D02*
X00231200Y00285700D01*
Y00299200*
X00237000Y00305000*
X00239500Y00250000D02*
X00243000Y00253500D01*
Y00299000*
X00237000Y00305000*
X00242141Y00237000D02*
Y00242000D01*
X00242141D02*
X00239500Y00244641D01*
X00239500D02*
Y00250000D01*
X00231000Y00225000D02*
Y00252000D01*
X00237000Y00258000*
Y00265000*
X00276500Y00223500D02*
X00267500D01*
X00251400Y00239600*
Y00300600*
X00237000Y00315000*
X00276500Y00223500D02*
X00290100D01*
X00295600Y00229000*
X00311500*
X00284000Y00267300D02*
X00274700D01*
X00267000Y00275000*
X00284000Y00267300D02*
X00291729D01*
X00294570Y00270141*
X00294570D02*
X00302000D01*
X00276500Y00229000D02*
X00268500Y00237000D01*
X00261858*
X00329000Y00232000D02*
X00309000Y00252000D01*
X00298500*
X00291800Y00258700*
X00284000*
X00329000Y00242000D02*
X00334500Y00247500D01*
Y00292000*
X00316500Y00310000*
X00329000Y00252000D02*
Y00282500D01*
X00315500Y00296000*
X00264500Y00250000D02*
Y00257100D01*
X00261500Y00260100*
Y00299500*
X00267000Y00305000*
X00264500Y00250000D02*
X00273200Y00258700D01*
X00284000*
Y00282141D02*
X00277641Y00288500D01*
X00277641D02*
X00273500D01*
X00267000Y00295000*
X00284000Y00282141D02*
X00302141D01*
X00302141D02*
X00308700Y00288700D01*
Y00302200*
X00316500Y00310000*
X00284000Y00272858D02*
X00277958Y00278900D01*
X00273100*
X00267000Y00285000*
X00284000Y00272858D02*
X00289758D01*
X00294000Y00277100*
X00302100*
X00315500Y00290500*
Y00296000*
X00302000Y00270141D02*
X00307858Y00276000D01*
X00309500*
X00315500Y00282000*
X00302000Y00261858D02*
X00295141D01*
X00295141D02*
X00294000Y00263000D01*
X00274000*
X00272000Y00265000*
X00267000*
X00302000Y00261858D02*
X00308141Y00268000D01*
X00308141D02*
X00315500D01*
X00261858Y00237000D02*
Y00242158D01*
X00264500Y00244800*
Y00250000*
X00362400Y00271500D02*
Y00279100D01*
X00355200Y00286300*
Y00291300*
X00350500Y00296000*
X00362400Y00241500D02*
X00356300Y00247600D01*
Y00276200*
X00350500Y00282000*
Y00296000D02*
Y00301900D01*
X00345000Y00307400*
Y00343000*
X00350500Y00282000D02*
X00345000Y00287500D01*
Y00302400*
X00340400Y00307000*
Y00339600*
X00335000Y00343000*
X00350500Y00268000D02*
X00341500Y00277000D01*
Y00297800*
X00334672Y00304627*
X00334672D02*
Y00335327D01*
X00334672D02*
X00325000Y00343000D01*
X00177500Y00312000D02*
X00184000D01*
X00185000Y00313000*
X00187000*
X00193700Y00319700*
Y00338300*
X00205900Y00350500*
X00220000*
X00237000Y00335000D02*
X00232000Y00340000D01*
X00225000*
X00220000Y00343000*
X00212500Y00326000D02*
X00217099D01*
X00217099D02*
X00217500Y00326400D01*
Y00328599*
X00217500D02*
X00217900Y00329000D01*
X00222500*
X00212500Y00312000D02*
X00216800Y00316300D01*
Y00317899*
X00216800D02*
X00217900Y00319000D01*
X00222500*
X00208000Y00300500D02*
X00212600Y00305100D01*
X00217100*
X00237000Y00325000*
X00180000Y00300500D02*
Y00306750D01*
X00181000Y00307750*
Y00308500*
X00177500Y00312000*
X00227500Y00324000D02*
X00232200Y00328700D01*
Y00330200*
X00237000Y00335000*
X00267000Y00325000D02*
X00273400Y00331400D01*
X00277541*
X00277541D02*
X00284000Y00337858D01*
X00267000Y00315000D02*
X00273900D01*
X00277041Y00318141*
X00277041D02*
X00284000D01*
X00267000Y00305000D02*
X00252000Y00320000D01*
Y00339600*
X00241100Y00350500*
X00220000*
X00302000Y00325141D02*
X00295641Y00331500D01*
X00295641D02*
X00290358D01*
X00284000Y00337858*
X00302000Y00316858D02*
X00293641D01*
X00293641D02*
X00292358Y00318141D01*
X00292358D02*
X00284000D01*
X00362400Y00301500D02*
X00357500Y00306400D01*
Y00308599*
X00357500D02*
X00356099Y00310000D01*
X00356099D02*
X00351500D01*
Y00325800*
X00355000Y00329300*
Y00343000*
G54D18*
X00348889Y00140889D02*
X00347121Y00139121D01*
X00341110Y00140889D02*
X00342878Y00139121D01*
X00341110Y00133110D02*
X00342878Y00134878D01*
X00348889Y00133110D02*
X00347121Y00134878D01*
X00364030Y00174889D02*
X00362263Y00173121D01*
X00356252Y00174889D02*
X00358020Y00173121D01*
X00356252Y00167110D02*
X00358020Y00168878D01*
X00364030Y00167110D02*
X00362263Y00168878D01*
X00214368Y00145631D02*
X00216136Y00143863D01*
X00214368Y00136368D02*
X00216136Y00138136D01*
X00223631Y00136368D02*
X00221863Y00138136D01*
X00223631Y00145631D02*
X00221863Y00143863D01*
X00239889Y00180210D02*
X00238121Y00181978D01*
X00239889Y00187989D02*
X00238121Y00186221D01*
X00232110Y00187989D02*
X00233878Y00186221D01*
X00232110Y00180210D02*
X00233878Y00181978D01*
X00150119Y00150119D02*
X00148351Y00148351D01*
X00129880Y00150119D02*
X00131648Y00148351D01*
X00129880Y00129880D02*
X00131648Y00131648D01*
X00150119Y00129880D02*
X00148351Y00131648D01*
X00166025Y00173470D02*
X00164257Y00175238D01*
X00166025Y00189521D02*
X00164257Y00187753D01*
X00149974Y00189521D02*
X00151742Y00187753D01*
X00149974Y00173470D02*
X00151742Y00175238D01*
X00167833Y00204103D02*
X00166065Y00205871D01*
X00167833Y00212589D02*
X00166065Y00210821D01*
X00159347Y00204103D02*
X00161115Y00205871D01*
X00159347Y00212589D02*
X00161115Y00210821D01*
X00186252Y00178110D02*
X00188020Y00179878D01*
X00194030Y00178110D02*
X00192263Y00179878D01*
X00194030Y00185889D02*
X00192263Y00184121D01*
X00186252Y00185889D02*
X00188020Y00184121D01*
X00264889Y00176252D02*
X00263121Y00178020D01*
X00264889Y00184030D02*
X00263121Y00182263D01*
X00257110Y00184030D02*
X00258878Y00182263D01*
X00257110Y00176252D02*
X00258878Y00178020D01*
X00279789Y00182889D02*
X00278021Y00181121D01*
X00279789Y00175110D02*
X00278021Y00176878D01*
X00272010Y00182889D02*
X00273778Y00181121D01*
X00272010Y00175110D02*
X00273778Y00176878D01*
X00279789Y00162889D02*
X00278021Y00161121D01*
X00272010Y00162889D02*
X00273778Y00161121D01*
X00272010Y00155110D02*
X00273778Y00156878D01*
X00279789Y00155110D02*
X00278021Y00156878D01*
X00329767Y00141767D02*
X00327121Y00139121D01*
X00329767Y00132232D02*
X00327121Y00134878D01*
X00320232Y00132232D02*
X00322878Y00134878D01*
X00320232Y00141767D02*
X00322878Y00139121D01*
X00390119Y00150119D02*
X00388351Y00148351D01*
X00369880Y00150119D02*
X00371648Y00148351D01*
X00369880Y00129880D02*
X00371648Y00131648D01*
X00390119Y00129880D02*
X00388351Y00131648D01*
X00366465Y00232565D02*
X00364698Y00230798D01*
X00358334Y00232565D02*
X00360101Y00230798D01*
X00366465Y00224434D02*
X00364698Y00226201D01*
X00166025Y00270478D02*
X00164257Y00272246D01*
X00149974Y00286529D02*
X00151742Y00284761D01*
X00149974Y00270478D02*
X00151742Y00272246D01*
X00130389Y00297110D02*
X00128621Y00298878D01*
X00130389Y00304889D02*
X00128621Y00303121D01*
X00129252Y00312110D02*
X00131020Y00313878D01*
X00137030Y00312110D02*
X00135263Y00313878D01*
X00137030Y00319889D02*
X00135263Y00318121D01*
X00129252Y00319889D02*
X00131020Y00318121D01*
X00150119Y00350119D02*
X00148351Y00348351D01*
X00129880Y00350119D02*
X00131648Y00348351D01*
X00129880Y00329880D02*
X00131648Y00331648D01*
X00150119Y00329880D02*
X00148351Y00331648D01*
X00169767Y00347767D02*
X00167121Y00345121D01*
X00160232Y00338232D02*
X00162878Y00340878D01*
X00160232Y00347767D02*
X00162878Y00345121D01*
X00188889Y00346889D02*
X00187121Y00345121D01*
X00181110Y00346889D02*
X00182878Y00345121D01*
X00181110Y00339110D02*
X00182878Y00340878D01*
X00188889Y00339110D02*
X00187121Y00340878D01*
X00190110Y00304389D02*
X00191878Y00302621D01*
X00190110Y00296610D02*
X00191878Y00298378D01*
X00197889Y00296610D02*
X00196121Y00298378D01*
X00197889Y00304389D02*
X00196121Y00302621D01*
X00280110Y00305747D02*
X00281878Y00303979D01*
X00280110Y00297969D02*
X00281878Y00299736D01*
X00287889Y00297969D02*
X00286121Y00299736D01*
X00287889Y00305747D02*
X00286121Y00303979D01*
X00390119Y00350119D02*
X00388351Y00348351D01*
X00369880Y00350119D02*
X00371648Y00348351D01*
X00369880Y00329880D02*
X00371648Y00331648D01*
X00390119Y00329880D02*
X00388351Y00331648D01*
X00366465Y00322565D02*
X00364698Y00320798D01*
X00358334Y00322565D02*
X00360101Y00320798D01*
X00358334Y00314434D02*
X00360101Y00316201D01*
X00366465Y00314434D02*
X00364698Y00316201D01*
X00366465Y00292565D02*
X00364698Y00290798D01*
X00358334Y00292565D02*
X00360101Y00290798D01*
X00366465Y00284434D02*
X00364698Y00286201D01*
X00366465Y00262565D02*
X00364698Y00260798D01*
X00366465Y00254434D02*
X00364698Y00256201D01*
X00332889Y00208110D02*
X00331121Y00209878D01*
X00332889Y00215889D02*
X00331121Y00214121D01*
X00325110Y00215889D02*
X00326878Y00214121D01*
X00305889Y00238252D02*
X00304121Y00240020D01*
X00305889Y00246030D02*
X00304121Y00244263D01*
X00298110Y00246030D02*
X00299878Y00244263D01*
X00298110Y00238252D02*
X00299878Y00240020D01*
X00319767Y00347767D02*
X00317121Y00345121D01*
X00319767Y00338232D02*
X00317121Y00340878D01*
X00310232Y00338232D02*
X00312878Y00340878D01*
X00310232Y00347767D02*
X00312878Y00345121D01*
X00298110Y00348747D02*
X00299878Y00346979D01*
X00298110Y00340969D02*
X00299878Y00342736D01*
X00305889Y00340969D02*
X00304121Y00342736D01*
X00305889Y00348747D02*
X00304121Y00346979D01*
X00298110Y00301030D02*
X00299878Y00299263D01*
X00298110Y00293252D02*
X00299878Y00295020D01*
X00287889Y00249252D02*
X00286121Y00251020D01*
X00280110Y00249252D02*
X00281878Y00251020D01*
X00298110Y00293747D02*
X00299878Y00291979D01*
X00298110Y00285969D02*
X00299878Y00287736D01*
X00293889Y00134110D02*
X00292121Y00135878D01*
X00286110Y00134110D02*
X00287878Y00135878D01*
X00214767Y00338232D02*
X00212121Y00340878D01*
X00205232Y00338232D02*
X00207878Y00340878D01*
G54D23*
X00110000Y00110000D02*
Y00110500D01*
Y00110000D02*
X00110500D01*
X00110000D02*
Y00109500D01*
Y00110000D02*
X00109500D01*
X00111500D02*
X00116500D01*
X00110000Y00108500D02*
Y00105100D01*
Y00111500D02*
Y00116000D01*
X00104000Y00110000D02*
X00108500D01*
X00113000D02*
G75*
G03X00113000I-00003000D01*
G01X00112000D02*
G03X00112000I-00002000D01*
G01X00410000D02*
Y00110500D01*
Y00110000D02*
X00410500D01*
X00410000D02*
Y00109500D01*
Y00110000D02*
X00409500D01*
X00411500D02*
X00416500D01*
X00410000Y00108500D02*
Y00105100D01*
Y00111500D02*
Y00116000D01*
X00404000Y00110000D02*
X00408500D01*
X00413000D02*
G03X00413000I-00003000D01*
G01X00412000D02*
G03X00412000I-00002000D01*
G01X00410000Y00370000D02*
Y00370500D01*
Y00370000D02*
X00410500D01*
X00410000D02*
Y00369500D01*
Y00370000D02*
X00409500D01*
X00411500D02*
X00416500D01*
X00410000Y00368500D02*
Y00365100D01*
Y00371500D02*
Y00376000D01*
X00404000Y00370000D02*
X00408500D01*
X00413000D02*
G03X00413000I-00003000D01*
G01X00412000D02*
G03X00412000I-00002000D01*
G54D25*
G01X00128750Y00276000D02*
X00134000D01*
X00128750D02*
X00134000Y00274545D01*
X00128750Y00273090D02*
X00134000Y00274545D01*
X00128750Y00273090D02*
X00134000D01*
X00128750Y00271454D02*
X00134000D01*
X00128750D02*
Y00269818D01*
X00129000Y00269272*
X00129000D02*
X00129250Y00269090D01*
X00129250D02*
X00129750Y00268909D01*
X00130250*
X00130750Y00269090*
X00130750D02*
X00131000Y00269272D01*
X00131000D02*
X00131250Y00269818D01*
Y00271454D02*
Y00269818D01*
X00131500Y00269272*
X00131500D02*
X00131750Y00269090D01*
X00131750D02*
X00132250Y00268909D01*
X00133000*
X00133500Y00269090*
X00133500D02*
X00133750Y00269272D01*
X00133750D02*
X00134000Y00269818D01*
Y00271454*
X00128750Y00266181D02*
X00129000Y00266727D01*
X00129750Y00267090*
X00129750D02*
X00131000Y00267272D01*
X00131000D02*
X00131750D01*
X00131750D02*
X00133000Y00267090D01*
X00133000D02*
X00133750Y00266727D01*
X00134000Y00266181*
X00134000D02*
Y00265818D01*
X00133750Y00265272*
X00133750D02*
X00133000Y00264909D01*
X00131750Y00264727*
X00131000*
X00129750Y00264909*
X00129000Y00265272*
X00129000D02*
X00128750Y00265818D01*
Y00266181*
X00129750Y00263090D02*
X00129500Y00262727D01*
X00128750Y00262181*
X00128750D02*
X00134000D01*
X00128750Y00259090D02*
X00134000Y00260545D01*
X00128750Y00259090D02*
X00134000Y00257636D01*
X00132250Y00260000D02*
Y00258181D01*
X00127750Y00246727D02*
X00128250Y00247090D01*
X00128250D02*
X00129000Y00247454D01*
X00129000D02*
X00130000Y00247818D01*
X00131250Y00248000*
X00132250*
X00133500Y00247818*
X00134500Y00247454*
X00134500D02*
X00135250Y00247090D01*
X00135250D02*
X00135750Y00246727D01*
X00131250Y00242909D02*
X00130750Y00243272D01*
X00130750D02*
X00130500Y00243636D01*
Y00244181*
X00130500D02*
X00130750Y00244545D01*
X00131250Y00244909*
X00132000Y00245090*
X00132000D02*
X00132500D01*
X00132500D02*
X00133250Y00244909D01*
X00133750Y00244545*
X00134000Y00244181*
X00134000D02*
Y00243636D01*
X00133750Y00243272*
X00133750D02*
X00133250Y00242909D01*
X00127750Y00241272D02*
X00128250Y00240909D01*
X00129000Y00240545*
X00130000Y00240181*
X00130000D02*
X00131250Y00240000D01*
X00132250*
X00133500Y00240181*
X00133500D02*
X00134500Y00240545D01*
X00135250Y00240909*
X00135750Y00241272*
X00130500Y00238363D02*
X00134000D01*
X00131500D02*
X00130750Y00237818D01*
X00130500Y00237454*
X00130500D02*
Y00236909D01*
X00130750Y00236545*
X00131500Y00236363*
X00131500D02*
X00134000D01*
X00131500D02*
X00130750Y00235818D01*
X00130500Y00235454*
X00130500D02*
Y00234909D01*
X00130750Y00234545*
X00131500Y00234363*
X00131500D02*
X00134000D01*
X00128750Y00232727D02*
X00129000Y00232545D01*
X00128750Y00232363*
X00128750D02*
X00128500Y00232545D01*
X00128750Y00232727*
X00130500Y00232545D02*
X00134000D01*
X00128750Y00230727D02*
X00134000D01*
X00131500D02*
X00130750Y00230181D01*
X00130750D02*
X00130500Y00229818D01*
Y00229272*
X00130500D02*
X00130750Y00228909D01*
X00131500Y00228727*
X00134000*
X00130500Y00226181D02*
X00130750Y00226545D01*
X00131250Y00226909*
X00132000Y00227090*
X00132000D02*
X00132500D01*
X00132500D02*
X00133250Y00226909D01*
X00133750Y00226545*
X00134000Y00226181*
X00134000D02*
Y00225636D01*
X00133750Y00225272*
X00133750D02*
X00133250Y00224909D01*
X00132500Y00224727*
X00132000*
X00131250Y00224909*
X00130750Y00225272*
X00130750D02*
X00130500Y00225636D01*
Y00226181*
X00130000Y00219636D02*
X00129750D01*
X00129250Y00219454*
X00129250D02*
X00129000Y00219272D01*
X00129000D02*
X00128750Y00218909D01*
Y00218181*
X00128750D02*
X00129000Y00217818D01*
X00129250Y00217636*
X00129750Y00217454*
X00129750D02*
X00130250D01*
X00130250D02*
X00130750Y00217636D01*
X00131500Y00218000*
X00134000Y00219818*
Y00217272*
X00128750Y00214545D02*
X00129000Y00215090D01*
X00129000D02*
X00129750Y00215454D01*
X00129750D02*
X00131000Y00215636D01*
X00131750*
X00133000Y00215454*
X00133000D02*
X00133750Y00215090D01*
X00133750D02*
X00134000Y00214545D01*
Y00214181*
X00134000D02*
X00133750Y00213636D01*
X00133000Y00213272*
X00133000D02*
X00131750Y00213090D01*
X00131750D02*
X00131000D01*
X00131000D02*
X00129750Y00213272D01*
X00129750D02*
X00129000Y00213636D01*
X00128750Y00214181*
X00128750D02*
Y00214545D01*
Y00210363D02*
X00129000Y00210909D01*
X00129750Y00211272*
X00129750D02*
X00131000Y00211454D01*
X00131000D02*
X00131750D01*
X00131750D02*
X00133000Y00211272D01*
X00133000D02*
X00133750Y00210909D01*
X00134000Y00210363*
X00134000D02*
Y00210000D01*
X00133750Y00209454*
X00133750D02*
X00133000Y00209090D01*
X00133000D02*
X00131750Y00208909D01*
X00131000*
X00129750Y00209090*
X00129750D02*
X00129000Y00209454D01*
X00129000D02*
X00128750Y00210000D01*
Y00210363*
Y00205454D02*
X00132250Y00207272D01*
X00132250D02*
Y00204545D01*
X00128750Y00205454D02*
X00134000D01*
X00394311Y00140000D02*
G03X00394311I-00014311D01*
G01X00393350Y00211500D02*
G03X00393350I-00005750D01*
G01Y00228500D02*
G03X00393350I-00005750D01*
G01Y00241500D02*
G03X00393350I-00005750D01*
G01Y00258500D02*
G03X00393350I-00005750D01*
G01Y00271500D02*
G03X00393350I-00005750D01*
G01Y00288500D02*
G03X00393350I-00005750D01*
G01Y00301500D02*
G03X00393350I-00005750D01*
G01Y00318500D02*
G03X00393350I-00005750D01*
G01X00365641Y00171000D02*
G03X00365641I-00005499D01*
G01X00368150Y00318500D02*
G03X00368150I-00005750D01*
G01X00394311Y00340000D02*
G03X00394311I-00014311D01*
G01X00289500Y00301858D02*
G03X00289500I-00005500D01*
G01X00307500Y00344858D02*
G03X00307500I-00005500D01*
G01X00138641Y00316000D02*
G03X00138641I-00005499D01*
G01X00154311Y00340000D02*
G03X00154311I-00014311D01*
G01Y00140000D02*
G03X00154311I-00014311D01*
G01X00169350Y00181496D02*
G03X00169350I-00011350D01*
G01X00195641Y00182000D02*
G03X00195641I-00005499D01*
G01X00261130Y00140000D02*
G03X00261130I-00011130D01*
G01X00199500Y00300500D02*
G03X00199500I-00005500D01*
G01X00266500Y00180141D02*
G03X00266500I-00005500D01*
G01X00241500Y00184100D02*
G03X00241500I-00005500D01*
G01X00397500Y00123000D02*
Y00357000D01*
G03X00397000Y00357500I-00000500J00000000*
G01X00123000*
G03X00122500Y00357000I00000000J-00000500*
G01Y00305873*
G03X00123291Y00305467I00000500J00000000*
G01Y00296532D02*
G03Y00305467I00003209J00004468D01*
G01Y00296532D02*
G03X00122500Y00296126I-00000291J-00000405D01*
G01X00122500D02*
Y00123000D01*
G03X00123000Y00122500I00000500J00000000*
G01X00397000*
G03X00397500Y00123000I00000000J00000500*
G01X00233959Y00309583D02*
G03Y00310416I-00000275J00000417D01*
G01X00231668Y00313649D02*
G03X00233959Y00310416I00005332J00001351D01*
G01X00231668Y00313649D02*
G03X00230830Y00313880I-00000484J-00000122D01*
G01X00219574Y00302625*
X00217100Y00301599D02*
G03X00219574Y00302625I00000000J00003501D01*
G01X00217100Y00301599D02*
X00214256D01*
X00214256D02*
G03X00213903Y00301453I00000000J-00000499D01*
G01X00213903D02*
X00213637Y00301187D01*
G03X00213491Y00300806I00000353J-00000353*
G01X00208306Y00305991D02*
G03X00213491Y00300806I-00000306J-00005491D01*
G01X00208306Y00305991D02*
G03X00208687Y00306137I00000027J00000499D01*
G01X00209335Y00306785*
X00209335D02*
G03X00209275Y00307544I-00000352J00000354D01*
G01X00212775Y00317493D02*
G03X00209275Y00307544I-00000275J-00005493D01*
G01X00212775Y00317493D02*
G03X00213300Y00317980I00000026J00000499D01*
G01X00213862Y00319802D02*
G03X00213300Y00317980I00002938J-00001902D01*
G01X00213862Y00319802D02*
G03X00213364Y00320568I-00000419J00000272D01*
G01X00214598Y00331083D02*
G03X00213364Y00320568I-00002098J-00005083D01*
G01X00214598Y00331083D02*
G03X00215142Y00331192I00000191J00000463D01*
G01X00215142D02*
X00215425Y00331474D01*
X00217900Y00332500D02*
G03X00215425Y00331474I00000000J-00003500D01*
G01X00217900Y00332500D02*
X00218027D01*
X00218027D02*
G03X00218400Y00332666I00000000J00000500D01*
G01X00227760Y00330606D02*
G03X00218400Y00332666I-00005260J-00001606D01*
G01X00227760Y00330606D02*
G03X00228733Y00330683I00000478J00000146D01*
G01X00229725Y00332674D02*
G03X00228733Y00330683I00002475J-00002474D01*
G01X00229725Y00332674D02*
X00231362Y00334312D01*
X00231362D02*
G03X00231508Y00334693I-00000352J00000354D01*
G01Y00335306D02*
G03Y00334693I00005492J-00000306D01*
G01Y00335306D02*
G03X00231362Y00335687I-00000498J00000027D01*
G01X00231362D02*
X00230696Y00336353D01*
X00230696D02*
G03X00230343Y00336499I-00000352J-00000353D01*
G01X00230343D02*
X00225000D01*
X00223199Y00336998D02*
G03X00225000Y00336499I00001801J00003002D01*
G01X00223199Y00336998D02*
X00222034Y00337697D01*
X00222034D02*
G03X00221628Y00337746I-00000257J-00000427D01*
G01X00216093Y00339127D02*
G03X00221628Y00337746I00003907J00003873D01*
G01X00216093Y00339127D02*
G03X00215282Y00338979I-00000354J-00000351D01*
G01X00213000Y00337499D02*
G03X00215282Y00338979I00000000J00002501D01*
G01X00213000Y00337499D02*
X00207000D01*
X00204499Y00340000D02*
G03X00207000Y00337499I00002501J00000000D01*
G01X00204499Y00340000D02*
Y00342943D01*
X00204499D02*
G03X00203646Y00343296I-00000499J00000000D01*
G01X00203646D02*
X00197346Y00336996D01*
X00197346D02*
G03X00197200Y00336643I00000354J-00000352D01*
G01Y00319700*
X00196174Y00317225D02*
G03X00197200Y00319700I-00002474J00002475D01*
G01X00196174Y00317225D02*
X00189474Y00310525D01*
X00187000Y00309499D02*
G03X00189474Y00310525I00000000J00003501D01*
G01X00187000Y00309499D02*
X00186645D01*
X00186645D02*
G03X00186315Y00309374I00000000J-00000499D01*
G01X00184875Y00308611D02*
G03X00186315Y00309374I-00000875J00003389D01*
G01X00184875Y00308611D02*
G03X00184500Y00308127I00000125J-00000484D01*
G01Y00307750*
X00183625Y00305434D02*
G03X00184500Y00307750I-00002625J00002316D01*
G01X00183625Y00305434D02*
G03X00183500Y00305104I00000375J-00000329D01*
G01Y00304972*
G03X00183666Y00304599I00000500J00000000*
G01X00176333D02*
G03X00183666I00003667J-00004099D01*
G01X00176333D02*
G03X00176499Y00304972I-00000333J00000373D01*
G01X00176499D02*
Y00306190D01*
X00176499D02*
G03X00176124Y00306674I-00000499J00000000D01*
G01X00181599Y00315666D02*
G03X00176124Y00306674I-00004099J-00003666D01*
G01X00181599Y00315666D02*
G03X00181972Y00315500I00000373J00000334D01*
G01X00182354*
G03X00182684Y00315625I00000000J00000500*
G01X00185000Y00316500D02*
G03X00182684Y00315625I00000000J-00003500D01*
G01X00185000Y00316500D02*
X00185343D01*
G03X00185696Y00316646I00000000J00000500*
G01X00185696D02*
X00190053Y00321003D01*
X00190053D02*
G03X00190199Y00321356I-00000353J00000353D01*
G01X00190199D02*
Y00338300D01*
X00190368Y00339373D02*
G03X00190199Y00338300I00003332J-00001073D01*
G01X00190368Y00339373D02*
G03X00189485Y00339816I-00000475J00000154D01*
G01X00180645Y00339639D02*
G03X00189485Y00339816I00004355J00003361D01*
G01X00180645Y00339639D02*
G03X00179750Y00339334I-00000394J-00000304D01*
G01Y00336000*
X00178358Y00332641D02*
G03X00179750Y00336000I-00003358J00003359D01*
G01X00178358Y00332641D02*
X00178008Y00332291D01*
X00178008D02*
G03X00178290Y00331442I00000354J-00000353D01*
G01X00173683Y00322039D02*
G03X00178290Y00331442I00003817J00003961D01*
G01X00173683Y00322039D02*
G03X00172982Y00322033I-00000346J-00000359D01*
G01X00172982D02*
X00170646Y00319696D01*
X00170646D02*
G03X00170500Y00319343I00000354J-00000352D01*
G01Y00294156*
X00170500D02*
G03X00170646Y00293803I00000500J00000000D01*
G01X00193312Y00271137*
X00193312D02*
G03X00193693Y00270991I00000354J00000353D01*
G01X00194306D02*
G03X00193693I-00000306J-00005491D01*
G01X00194306D02*
G03X00194687Y00271137I00000027J00000499D01*
G01X00204025Y00280474*
X00206500Y00281500D02*
G03X00204025Y00280474I00000000J-00003500D01*
G01X00206500Y00281500D02*
X00211843D01*
G03X00212196Y00281646I00000000J00000500*
G01X00212196D02*
X00214862Y00284312D01*
X00214862D02*
G03X00215008Y00284693I-00000352J00000354D01*
G01X00219649Y00290433D02*
G03X00215008Y00284693I00000851J-00005433D01*
G01X00219649Y00290433D02*
G03X00220066Y00290850I-00000076J00000494D01*
G01X00227058Y00295274D02*
G03X00220066Y00290850I-00001558J-00005274D01*
G01X00227058Y00295274D02*
G03X00227699Y00295754I00000141J00000480D01*
G01X00227699D02*
Y00299200D01*
X00228725Y00301674D02*
G03X00227699Y00299200I00002475J-00002474D01*
G01X00228725Y00301674D02*
X00231362Y00304312D01*
X00231362D02*
G03X00231508Y00304693I-00000352J00000354D01*
G01X00233959Y00309583D02*
G03X00231508Y00304693I00003041J-00004583D01*
G01X00160269Y00213343D02*
G03Y00214176I-00000276J00000416D01*
G01X00159200Y00215083D02*
G03X00160269Y00214176I00004390J00004090D01*
G01X00159200Y00215083D02*
G03X00158340Y00214666I-00000365J-00000340D01*
G01Y00212852D02*
G03Y00214666I-00005930J00000907D01*
G01Y00212852D02*
G03X00159200Y00212436I00000494J-00000074D01*
G01X00160269Y00213343D02*
G03X00159200Y00212436I00003321J-00004996D01*
G01X00272859Y00173583D02*
G03Y00174416I-00000275J00000417D01*
G01X00272027Y00182906D02*
G03X00272859Y00174416I00003873J-00003906D01*
G01X00272027Y00182906D02*
G03X00271879Y00183717I-00000351J00000355D01*
G01X00270399Y00186000D02*
G03X00271879Y00183717I00002501J00000000D01*
G01X00270399Y00186000D02*
Y00192000D01*
X00272066Y00194357D02*
G03X00270399Y00192000I00000834J-00002357D01*
G01X00272066Y00194357D02*
G03X00272399Y00194828I-00000166J00000471D01*
G01X00272399D02*
Y00196200D01*
X00272924Y00198043D02*
G03X00272399Y00196200I00002976J-00001843D01*
G01X00272924Y00198043D02*
G03X00272999Y00198307I-00000424J00000264D01*
G01X00272999D02*
Y00199527D01*
X00272999D02*
G03X00272833Y00199900I-00000499J00000000D01*
G01X00271006Y00203732D02*
G03X00272833Y00199900I00005494J00000268D01*
G01X00271006Y00203732D02*
G03X00270153Y00204062I-00000498J-00000023D01*
G01X00270153D02*
X00266637Y00200545D01*
X00266637D02*
G03X00266491Y00200164I00000353J-00000352D01*
G01X00256900Y00196191D02*
G03X00266491Y00200164I00004100J00003667D01*
G01X00256900Y00196191D02*
G03X00256527Y00196358I-00000372J-00000332D01*
G01X00256527D02*
X00251115D01*
G03X00250761Y00196211I00000000J-00000499*
G01X00250761D02*
X00249974Y00195425D01*
X00247500Y00194399D02*
G03X00249974Y00195425I00000000J00003501D01*
G01X00247500Y00194399D02*
X00241828D01*
X00241828D02*
G03X00241357Y00194066I00000000J-00000499D01*
G01X00239000Y00192399D02*
G03X00241357Y00194066I00000000J00002501D01*
G01X00239000Y00192399D02*
X00233000D01*
X00230642Y00194066D02*
G03X00233000Y00192399I00002358J00000834D01*
G01X00230642Y00194066D02*
G03X00230171Y00194399I-00000470J-00000166D01*
G01X00230171D02*
X00225400D01*
X00222925Y00195425D02*
G03X00225400Y00194399I00002475J00002475D01*
G01X00222925Y00195425D02*
X00218117Y00200232D01*
X00218117D02*
G03X00217325Y00199638I-00000352J-00000353D01*
G01X00216166Y00192900D02*
G03X00217325Y00199638I-00003666J00004100D01*
G01X00216166Y00192900D02*
G03X00216000Y00192527I00000334J-00000372D01*
G01X00216000D02*
Y00191456D01*
X00216000D02*
G03X00216146Y00191103I00000500J00000000D01*
G01X00221474Y00185774*
X00222500Y00183300D02*
G03X00221474Y00185774I-00003500J00000000D01*
G01X00222500Y00183300D02*
Y00166805D01*
G03X00222716Y00166393I00000500J00000000*
G01X00222439Y00155425D02*
G03X00222716Y00166393I-00003439J00005575D01*
G01X00222439Y00155425D02*
G03X00222701Y00154500I00000262J-00000424D01*
G01X00222701D02*
X00230443D01*
G03X00230796Y00154646I00000000J00000500*
G01X00230796D02*
X00247625Y00171474D01*
X00250100Y00172500D02*
G03X00247625Y00171474I00000000J-00003500D01*
G01X00250100Y00172500D02*
X00271427D01*
X00271427D02*
G03X00271800Y00172666I00000000J00000500D01*
G01X00272859Y00173583D02*
G03X00271800Y00172666I00003041J-00004583D01*
G01X00394311Y00140000D02*
G03X00394311I-00014311D01*
G01X00384166Y00184900D02*
G03X00376833I-00003666J00004100D01*
G01X00384166D02*
G03X00384000Y00184527I00000334J-00000372D01*
G01X00384000D02*
Y00178500D01*
X00383438Y00176598D02*
G03X00384000Y00178500I-00002938J00001902D01*
G01X00383438Y00176598D02*
G03X00383358Y00176326I00000420J-00000271D01*
G01X00383358D02*
Y00175472D01*
G03X00383524Y00175099I00000500J00000000*
G01X00376191D02*
G03X00383524I00003667J-00004099D01*
G01X00376191D02*
G03X00376358Y00175472I-00000332J00000373D01*
G01Y00177858*
X00376919Y00179759D02*
G03X00376358Y00177858I00002939J-00001900D01*
G01X00376919Y00179759D02*
G03X00376999Y00180031I-00000419J00000272D01*
G01X00376999D02*
Y00184527D01*
X00376999D02*
G03X00376833Y00184900I-00000499J00000000D01*
G01X00393350Y00211500D02*
G03X00393350I-00005750D01*
G01Y00228500D02*
G03X00393350I-00005750D01*
G01Y00241500D02*
G03X00393350I-00005750D01*
G01Y00258500D02*
G03X00393350I-00005750D01*
G01Y00271500D02*
G03X00393350I-00005750D01*
G01Y00288500D02*
G03X00393350I-00005750D01*
G01Y00301500D02*
G03X00393350I-00005750D01*
G01Y00318500D02*
G03X00393350I-00005750D01*
G01X00365641Y00171000D02*
G03X00365641I-00005499D01*
G01X00356673Y00302021D02*
G03X00361878Y00307226I00005727J-00000521D01*
G01X00356673Y00302021D02*
G03X00356529Y00302420I-00000497J00000046D01*
G01X00356529D02*
X00355025Y00303925D01*
X00354406Y00304763D02*
G03X00355025Y00303925I00003094J00001637D01*
G01X00354406Y00304763D02*
G03X00353758Y00304985I-00000441J-00000233D01*
G01X00353452Y00304858D02*
G03X00353758Y00304985I-00001952J00005142D01*
G01X00353452Y00304858D02*
G03X00353238Y00304079I00000177J-00000467D01*
G01X00354000Y00301900D02*
G03X00353238Y00304079I-00003500J00000000D01*
G01X00354000Y00301900D02*
Y00300472D01*
G03X00354166Y00300099I00000500J00000000*
G01X00355991Y00295693D02*
G03X00354166Y00300099I-00005491J00000307D01*
G01X00355991Y00295693D02*
G03X00356137Y00295312I00000499J-00000026D01*
G01X00356137D02*
X00357674Y00293774D01*
X00358154Y00293176D02*
G03X00357674Y00293774I-00002954J-00001876D01*
G01X00358154Y00293176D02*
G03X00358882Y00293048I00000422J00000268D01*
G01X00364361Y00283094D02*
G03X00358882Y00293048I-00001961J00005406D01*
G01X00364361Y00283094D02*
G03X00364178Y00282271I00000171J-00000469D01*
G01X00364874Y00281574*
X00365900Y00279100D02*
G03X00364874Y00281574I-00003500J00000000D01*
G01X00365900Y00279100D02*
Y00276302D01*
G03X00366080Y00275918I00000500J00000000*
G01X00360468Y00266084D02*
G03X00366080Y00275918I00001932J00005416D01*
G01X00360468Y00266084D02*
G03X00359800Y00265613I-00000167J-00000470D01*
G01Y00264386*
X00359800D02*
G03X00360468Y00263915I00000500J00000000D01*
G01Y00253084D02*
G03Y00263915I00001932J00005416D01*
G01Y00253084D02*
G03X00359800Y00252613I-00000167J-00000470D01*
G01Y00249256*
X00359800D02*
G03X00359946Y00248903I00000500J00000000D01*
G01X00361479Y00247370*
X00361479D02*
G03X00361878Y00247226I00000353J00000354D01*
G01X00356673Y00242021D02*
G03X00361878Y00247226I00005727J-00000521D01*
G01X00356673Y00242021D02*
G03X00356529Y00242420I-00000497J00000046D01*
G01X00356529D02*
X00354853Y00244096D01*
X00354853D02*
G03X00354000Y00243743I-00000352J-00000352D01*
G01Y00231856*
X00354000D02*
G03X00354146Y00231503I00000500J00000000D01*
G01X00355983Y00229665*
X00355983D02*
G03X00356822Y00229897I00000354J00000354D01*
G01X00363797Y00222922D02*
G03X00356822Y00229897I-00001397J00005578D01*
G01X00363797Y00222922D02*
G03X00363565Y00222083I00000122J-00000484D01*
G01X00363565D02*
X00364874Y00220774D01*
X00365900Y00218300D02*
G03X00364874Y00220774I-00003500J00000000D01*
G01X00365900Y00218300D02*
Y00216302D01*
G03X00366080Y00215918I00000500J00000000*
G01X00358719D02*
G03X00366080I00003681J-00004418D01*
G01X00358719D02*
G03X00358899Y00216302I-00000319J00000384D01*
G01X00358899D02*
Y00216643D01*
X00358899D02*
G03X00358753Y00216996I-00000499J00000000D01*
G01X00358753D02*
X00348025Y00227725D01*
X00346999Y00230200D02*
G03X00348025Y00227725I00003501J00000000D01*
G01X00346999Y00230200D02*
Y00263527D01*
X00346999D02*
G03X00346833Y00263900I-00000499J00000000D01*
G01X00345008Y00268306D02*
G03X00346833Y00263900I00005492J-00000306D01*
G01X00345008Y00268306D02*
G03X00344862Y00268687I-00000498J00000027D01*
G01X00344862D02*
X00339025Y00274525D01*
X00338875Y00274684D02*
G03X00339025Y00274525I00002625J00002316D01*
G01X00338875Y00274684D02*
G03X00338000Y00274354I-00000374J-00000329D01*
G01Y00247500*
X00336974Y00245025D02*
G03X00338000Y00247500I-00002474J00002475D01*
G01X00336974Y00245025D02*
X00334637Y00242687D01*
G03X00334491Y00242306I00000353J-00000353*
G01X00332040Y00237416D02*
G03X00334491Y00242306I-00003040J00004584D01*
G01X00332040Y00237416D02*
G03Y00236583I00000276J-00000416D01*
G01X00323508Y00232306D02*
G03X00332040Y00236583I00005492J-00000306D01*
G01X00323508Y00232306D02*
G03X00323362Y00232687I-00000498J00000027D01*
G01X00323362D02*
X00307696Y00248353D01*
X00307696D02*
G03X00307343Y00248499I-00000352J-00000353D01*
G01X00307343D02*
X00303296D01*
X00303296D02*
G03X00303188Y00247511I00000000J-00000499D01*
G01X00300811D02*
G03X00303188I00001189J-00005369D01*
G01X00300811D02*
G03X00300703Y00248499I-00000107J00000488D01*
G01X00300703D02*
X00298500D01*
X00296025Y00249525D02*
G03X00298500Y00248499I00002475J00002475D01*
G01X00296025Y00249525D02*
X00290496Y00255053D01*
X00290496D02*
G03X00290143Y00255199I-00000352J-00000353D01*
G01X00290143D02*
X00289794D01*
X00289794D02*
G03X00289311Y00254570I00000000J-00000499D01*
G01X00278688D02*
G03X00289311I00005312J-00001428D01*
G01X00278688D02*
G03X00278205Y00255199I-00000482J00000129D01*
G01X00278205D02*
X00274856D01*
X00274856D02*
G03X00274503Y00255053I00000000J-00000499D01*
G01X00274503D02*
X00270137Y00250687D01*
G03X00269991Y00250306I00000353J-00000353*
G01X00268166Y00245900D02*
G03X00269991Y00250306I-00003666J00004100D01*
G01X00268166Y00245900D02*
G03X00268000Y00245527I00000334J-00000372D01*
G01X00268000D02*
Y00244800D01*
X00266974Y00242325D02*
G03X00268000Y00244800I-00002474J00002475D01*
G01X00266974Y00242325D02*
X00266003Y00241353D01*
X00266003D02*
G03X00266356Y00240500I00000353J-00000352D01*
G01X00266356D02*
X00268500D01*
X00270974Y00239474D02*
G03X00268500Y00240500I-00002474J-00002474D01*
G01X00270974Y00239474D02*
X00275812Y00234637D01*
X00275812D02*
G03X00276193Y00234491I00000354J00000353D01*
G01X00281825Y00227625D02*
G03X00276193Y00234491I-00005325J00001375D01*
G01X00281825Y00227625D02*
G03X00282309Y00227000I00000484J-00000124D01*
G01X00282309D02*
X00288443D01*
G03X00288796Y00227146I00000000J00000500*
G01X00288796D02*
X00293125Y00231474D01*
X00295600Y00232500D02*
G03X00293125Y00231474I00000000J-00003500D01*
G01X00295600Y00232500D02*
X00307027D01*
X00307027D02*
G03X00307400Y00232666I00000000J00000500D01*
G01X00316991Y00228693D02*
G03X00307400Y00232666I-00005491J00000307D01*
G01X00316991Y00228693D02*
G03X00317137Y00228312I00000499J-00000026D01*
G01X00317137D02*
X00321574Y00223874D01*
X00322600Y00221400D02*
G03X00321574Y00223874I-00003500J00000000D01*
G01X00322600Y00221400D02*
Y00213556D01*
X00322600D02*
G03X00322746Y00213203I00000500J00000000D01*
G01X00322830Y00213119*
X00322830D02*
G03X00323668Y00213350I00000353J00000354D01*
G01X00332040Y00207416D02*
G03X00323668Y00213350I-00003040J00004584D01*
G01X00332040Y00207416D02*
G03Y00206583I00000276J-00000416D01*
G01X00323508Y00202306D02*
G03X00332040Y00206583I00005492J-00000306D01*
G01X00323508Y00202306D02*
G03X00323362Y00202687I-00000498J00000027D01*
G01X00323362D02*
X00316625Y00209425D01*
X00315599Y00211900D02*
G03X00316625Y00209425I00003501J00000000D01*
G01X00315599Y00211900D02*
Y00219743D01*
X00315599D02*
G03X00315453Y00220096I-00000499J00000000D01*
G01X00315453D02*
X00312187Y00223362D01*
X00312187D02*
G03X00311806Y00223508I-00000353J-00000352D01*
G01X00307400Y00225333D02*
G03X00311806Y00223508I00004100J00003667D01*
G01X00307400Y00225333D02*
G03X00307027Y00225499I-00000372J-00000333D01*
G01X00307027D02*
X00297256D01*
X00297256D02*
G03X00296903Y00225353I00000000J-00000499D01*
G01X00296903D02*
X00292574Y00221025D01*
X00290100Y00219999D02*
G03X00292574Y00221025I00000000J00003501D01*
G01X00290100Y00219999D02*
X00276500D01*
X00276500D02*
X00267500D01*
X00265025Y00221025D02*
G03X00267500Y00219999I00002475J00002475D01*
G01X00265025Y00221025D02*
X00248925Y00237125D01*
X00248542Y00237578D02*
G03X00248925Y00237125I00002858J00002022D01*
G01X00248542Y00237578D02*
G03X00247635Y00237265I-00000407J-00000288D01*
G01X00237963Y00240576D02*
G03X00247635Y00237265I00004178J-00003576D01*
G01X00237963Y00240576D02*
G03X00237936Y00241255I-00000379J00000325D01*
G01X00237936D02*
X00237025Y00242166D01*
X00235999Y00244641D02*
G03X00237025Y00242166I00003501J00000000D01*
G01X00235999Y00244641D02*
Y00245527D01*
X00235999D02*
G03X00235833Y00245900I-00000499J00000000D01*
G01X00235375Y00246362D02*
G03X00235833Y00245900I00004125J00003638D01*
G01X00235375Y00246362D02*
G03X00234500Y00246031I-00000374J-00000330D01*
G01Y00230828*
G03X00234833Y00230357I00000500J00000000*
G01X00236500Y00228000D02*
G03X00234833Y00230357I-00002500J00000000D01*
G01X00236500Y00228000D02*
Y00222000D01*
X00234000Y00219499D02*
G03X00236500Y00222000I00000000J00002501D01*
G01X00234000Y00219499D02*
X00228000D01*
X00226310Y00220156D02*
G03X00228000Y00219499I00001690J00001844D01*
G01X00226310Y00220156D02*
G03X00225725Y00220222I-00000336J-00000367D01*
G01X00222693Y00219508D02*
G03X00225725Y00220222I00000307J00005492D01*
G01X00222693Y00219508D02*
G03X00222312Y00219362I-00000026J-00000498D01*
G01X00222312D02*
X00220646Y00217696D01*
X00220646D02*
G03X00220500Y00217343I00000354J-00000352D01*
G01Y00215500*
X00219474Y00213025D02*
G03X00220500Y00215500I-00002474J00002475D01*
G01X00219474Y00213025D02*
X00218137Y00211687D01*
G03X00217991Y00211306I00000353J-00000353*
G01X00217263Y00208250D02*
G03X00217991Y00211306I-00004763J00002750D01*
G01X00217263Y00208250D02*
G03X00217696Y00207500I00000433J-00000249D01*
G01X00219300*
X00221774Y00206474D02*
G03X00219300Y00207500I-00002474J-00002474D01*
G01X00221774Y00206474D02*
X00226703Y00201546D01*
G03X00227056Y00201400I00000353J00000354*
G01X00227056D02*
X00230171D01*
X00230171D02*
G03X00230642Y00201733I00000000J00000500D01*
G01X00233000Y00203400D02*
G03X00230642Y00201733I00000000J-00002500D01*
G01X00233000Y00203400D02*
X00239000D01*
X00241357Y00201733D02*
G03X00239000Y00203400I-00002357J-00000833D01*
G01X00241357Y00201733D02*
G03X00241828Y00201400I00000471J00000167D01*
G01X00245843*
G03X00246196Y00201546I00000000J00000500*
G01X00246196D02*
X00246983Y00202333D01*
X00249458Y00203358D02*
G03X00246983Y00202333I00000000J-00003499D01*
G01X00249458Y00203358D02*
X00256527D01*
X00256527D02*
G03X00256900Y00203524I00000000J00000500D01*
G01X00261306Y00205349D02*
G03X00256900Y00203524I-00000306J-00005490D01*
G01X00261306Y00205349D02*
G03X00261687Y00205495I00000027J00000499D01*
G01X00268166Y00211974*
X00270641Y00213000D02*
G03X00268166Y00211974I00000000J-00003500D01*
G01X00270641Y00213000D02*
X00276500D01*
X00293200*
X00295674Y00211974D02*
G03X00293200Y00213000I-00002474J-00002474D01*
G01X00295674Y00211974D02*
X00305284Y00202364D01*
X00305284D02*
G03X00306126Y00202825I00000354J00000354D01*
G01X00316991Y00203693D02*
G03X00306126Y00202825I-00005491J00000307D01*
G01X00316991Y00203693D02*
G03X00317137Y00203312I00000499J-00000026D01*
G01X00317137D02*
X00319616Y00200833D01*
X00320641Y00198358D02*
G03X00319616Y00200833I-00003499J00000000D01*
G01X00320641Y00198358D02*
Y00192472D01*
X00320641D02*
G03X00320808Y00192099I00000500J00000000D01*
G01X00315545Y00182736D02*
G03X00320808Y00192099I00001596J00005264D01*
G01X00315545Y00182736D02*
G03X00314900Y00182258I-00000144J-00000477D01*
G01Y00174500*
X00313874Y00172025D02*
G03X00314900Y00174500I-00002474J00002475D01*
G01X00313874Y00172025D02*
X00311537Y00169687D01*
G03X00311391Y00169306I00000353J-00000353*
G01X00308940Y00164416D02*
G03X00311391Y00169306I-00003040J00004584D01*
G01X00308940Y00164416D02*
G03Y00163583I00000276J-00000416D01*
G01X00309999Y00162666D02*
G03X00308940Y00163583I-00004099J-00003666D01*
G01X00309999Y00162666D02*
G03X00310372Y00162500I00000373J00000334D01*
G01X00314343*
G03X00314696Y00162646I00000000J00000500*
G01X00314696D02*
X00317525Y00165474D01*
X00320000Y00166500D02*
G03X00317525Y00165474I00000000J-00003500D01*
G01X00320000Y00166500D02*
X00324271D01*
X00324271D02*
G03X00324742Y00166833I00000000J00000500D01*
G01X00326266Y00168357D02*
G03X00324742Y00166833I00000834J-00002357D01*
G01X00326266Y00168357D02*
G03X00326599Y00168828I-00000166J00000471D01*
G01X00326599D02*
Y00172100D01*
X00327625Y00174574D02*
G03X00326599Y00172100I00002475J-00002474D01*
G01X00327625Y00174574D02*
X00333211Y00180161D01*
X00333211D02*
G03X00333358Y00180515I-00000352J00000354D01*
G01Y00183527*
X00333358D02*
G03X00333191Y00183900I-00000499J00000000D01*
G01X00340383Y00192221D02*
G03X00333191Y00183900I-00003524J-00004221D01*
G01X00340383Y00192221D02*
G03X00341103Y00192304I00000321J00000384D01*
G01X00342459Y00184416D02*
G03X00341103Y00192304I00003041J00004584D01*
G01X00342459Y00184416D02*
G03X00342183Y00184499I-00000275J-00000416D01*
G01X00342183D02*
X00341330D01*
X00341330D02*
G03X00340957Y00184333I00000000J-00000499D01*
G01X00340524Y00183900D02*
G03X00340957Y00184333I-00003665J00004100D01*
G01X00340524Y00183900D02*
G03X00340358Y00183527I00000334J-00000372D01*
G01X00340358D02*
Y00178858D01*
X00339333Y00176383D02*
G03X00340358Y00178858I-00002474J00002475D01*
G01X00339333Y00176383D02*
X00333746Y00170796D01*
X00333746D02*
G03X00333600Y00170443I00000354J-00000352D01*
G01Y00168828*
G03X00333933Y00168357I00000500J00000000*
G01X00335600Y00166000D02*
G03X00333933Y00168357I-00002500J00000000D01*
G01X00335600Y00166000D02*
Y00160000D01*
X00333100Y00157499D02*
G03X00335600Y00160000I00000000J00002501D01*
G01X00333100Y00157499D02*
X00327100D01*
X00324742Y00159166D02*
G03X00327100Y00157499I00002358J00000834D01*
G01X00324742Y00159166D02*
G03X00324271Y00159499I-00000470J-00000166D01*
G01X00324271D02*
X00321656D01*
X00321656D02*
G03X00321303Y00159353I00000000J-00000499D01*
G01X00321303D02*
X00318474Y00156525D01*
X00316000Y00155499D02*
G03X00318474Y00156525I00000000J00003501D01*
G01X00316000Y00155499D02*
X00310372D01*
X00310372D02*
G03X00309999Y00155333I00000000J-00000499D01*
G01X00302859Y00163583D02*
G03X00309999Y00155333I00003041J-00004583D01*
G01X00302859Y00163583D02*
G03Y00164416I-00000275J00000417D01*
G01X00300568Y00167649D02*
G03X00302859Y00164416I00005332J00001351D01*
G01X00300568Y00167649D02*
G03X00299730Y00167880I-00000484J-00000122D01*
G01X00293646Y00161796*
X00293646D02*
G03X00293500Y00161443I00000354J-00000352D01*
G01Y00151828*
G03X00293833Y00151357I00000500J00000000*
G01X00295500Y00149000D02*
G03X00293833Y00151357I-00002500J00000000D01*
G01X00295500Y00149000D02*
Y00143000D01*
X00294843Y00141310D02*
G03X00295500Y00143000I-00001843J00001690D01*
G01X00294843Y00141310D02*
G03X00294777Y00140725I00000368J-00000336D01*
G01X00285222D02*
G03X00294777I00004778J-00002725D01*
G01X00285222D02*
G03X00285156Y00141310I-00000433J00000248D01*
G01X00284499Y00143000D02*
G03X00285156Y00141310I00002501J00000000D01*
G01X00284499Y00143000D02*
Y00149000D01*
X00286166Y00151357D02*
G03X00284499Y00149000I00000834J-00002357D01*
G01X00286166Y00151357D02*
G03X00286499Y00151828I-00000166J00000471D01*
G01X00286499D02*
Y00163100D01*
X00287525Y00165574D02*
G03X00286499Y00163100I00002475J-00002474D01*
G01X00287525Y00165574D02*
X00300262Y00178312D01*
X00300262D02*
G03X00300408Y00178693I-00000352J00000354D01*
G01X00302859Y00183583D02*
G03X00300408Y00178693I00003041J-00004583D01*
G01X00302859Y00183583D02*
G03Y00184416I-00000275J00000417D01*
G01X00303119Y00193745D02*
G03X00302859Y00184416I00002781J-00004745D01*
G01X00303119Y00193745D02*
G03X00303220Y00194530I-00000252J00000431D01*
G01X00291896Y00205853*
X00291896D02*
G03X00291543Y00205999I-00000352J-00000353D01*
G01X00291543D02*
X00282309D01*
X00282309D02*
G03X00281825Y00205374I00000000J-00000499D01*
G01X00280166Y00199900D02*
G03X00281825Y00205374I-00003666J00004100D01*
G01X00280166Y00199900D02*
G03X00280000Y00199527I00000334J-00000372D01*
G01X00280000D02*
Y00196800D01*
X00279533Y00195053D02*
G03X00280000Y00196800I-00003033J00001747D01*
G01X00279533Y00195053D02*
G03X00279788Y00194336I00000433J-00000248D01*
G01X00281400Y00192000D02*
G03X00279788Y00194336I-00002500J00000000D01*
G01X00281400Y00192000D02*
Y00186000D01*
X00279920Y00183717D02*
G03X00281400Y00186000I-00001020J00002283D01*
G01X00279920Y00183717D02*
G03X00279772Y00182906I00000204J-00000455D01*
G01X00278940Y00174416D02*
G03X00279772Y00182906I-00003040J00004584D01*
G01X00278940Y00174416D02*
G03Y00173583I00000276J-00000416D01*
G01Y00164416D02*
G03Y00173583I-00003040J00004584D01*
G01Y00164416D02*
G03Y00163583I00000276J-00000416D01*
G01X00272859D02*
G03X00278940I00003041J-00004583D01*
G01X00272859D02*
G03Y00164416I-00000275J00000417D01*
G01X00271800Y00165333D02*
G03X00272859Y00164416I00004100J00003667D01*
G01X00271800Y00165333D02*
G03X00271427Y00165499I-00000372J-00000333D01*
G01X00271427D02*
X00251756D01*
X00251756D02*
G03X00251403Y00165353I00000000J-00000499D01*
G01X00251403D02*
X00234574Y00148525D01*
X00232100Y00147499D02*
G03X00234574Y00148525I00000000J00003501D01*
G01X00232100Y00147499D02*
X00222701D01*
X00222701D02*
G03X00222439Y00146574I00000000J-00000499D01*
G01X00215560D02*
G03X00222439I00003440J-00005574D01*
G01X00215560D02*
G03X00215298Y00147499I-00000261J00000425D01*
G01X00215298D02*
X00184805D01*
X00184805D02*
G03X00184393Y00147283I00000000J-00000499D01*
G01Y00154716D02*
G03Y00147283I-00005393J-00003716D01*
G01Y00154716D02*
G03X00184805Y00154500I00000412J00000284D01*
G01X00215298*
G03X00215560Y00155425I00000000J00000500*
G01X00215283Y00166393D02*
G03X00215560Y00155425I00003717J-00005393D01*
G01X00215283Y00166393D02*
G03X00215499Y00166805I-00000283J00000412D01*
G01X00215499D02*
Y00178907D01*
X00215499D02*
G03X00214571Y00179165I-00000499J00000000D01*
G01X00204366Y00182306D02*
G03X00214571Y00179165I00005492J-00000306D01*
G01X00204366Y00182306D02*
G03X00204221Y00182687I-00000498J00000027D01*
G01X00193554Y00193353*
X00193554D02*
G03X00193201Y00193499I-00000352J-00000353D01*
G01X00193201D02*
X00181972D01*
X00181972D02*
G03X00181599Y00193333I00000000J-00000499D01*
G01X00173833Y00201099D02*
G03X00181599Y00193333I00003667J-00004099D01*
G01X00173833Y00201099D02*
G03X00173999Y00201472I-00000333J00000373D01*
G01X00173999D02*
Y00206527D01*
X00173999D02*
G03X00173833Y00206900I-00000499J00000000D01*
G01X00181166D02*
G03X00173833I-00003666J00004100D01*
G01X00181166D02*
G03X00181000Y00206527I00000334J-00000372D01*
G01X00181000D02*
Y00201472D01*
G03X00181166Y00201099I00000500J00000000*
G01X00181599Y00200666D02*
G03X00181166Y00201099I-00004099J-00003666D01*
G01X00181599Y00200666D02*
G03X00181972Y00200500I00000373J00000334D01*
G01X00194858*
X00197333Y00199474D02*
G03X00194858Y00200500I-00002474J-00002474D01*
G01X00197333Y00199474D02*
X00208245Y00188562D01*
X00208245D02*
G03X00209086Y00189026I00000353J00000354D01*
G01X00208999Y00189800D02*
G03X00209086Y00189026I00003501J00000000D01*
G01X00208999Y00189800D02*
Y00192527D01*
X00208999D02*
G03X00208833Y00192900I-00000499J00000000D01*
G01X00208867Y00201130D02*
G03X00208833Y00192900I00003633J-00004130D01*
G01X00208867Y00201130D02*
G03X00208891Y00201859I-00000329J00000375D01*
G01X00204525Y00206225*
X00203499Y00208700D02*
G03X00204525Y00206225I00003501J00000000D01*
G01X00203499Y00208700D02*
Y00227300D01*
X00204525Y00229774D02*
G03X00203499Y00227300I00002475J-00002474D01*
G01X00204525Y00229774D02*
X00208891Y00234140D01*
X00208891D02*
G03X00208867Y00234869I-00000353J00000354D01*
G01X00207008Y00239306D02*
G03X00208867Y00234869I00005492J-00000306D01*
G01X00207008Y00239306D02*
G03X00206862Y00239687I-00000498J00000027D01*
G01X00206862D02*
X00200687Y00245862D01*
X00200687D02*
G03X00200306Y00246008I-00000353J-00000352D01*
G01X00195416Y00248459D02*
G03X00200306Y00246008I00004584J00003041D01*
G01X00195416Y00248459D02*
G03X00194583I-00000416J-00000275D01*
G01X00189693Y00246008D02*
G03X00194583Y00248459I00000307J00005492D01*
G01X00189693Y00246008D02*
G03X00189312Y00245862I-00000026J-00000498D01*
G01X00189312D02*
X00183137Y00239687D01*
G03X00182991Y00239306I00000353J-00000353*
G01X00174385Y00234467D02*
G03X00182991Y00239306I00003115J00004533D01*
G01X00174385Y00234467D02*
G03X00173748Y00233701I-00000283J-00000412D01*
G01X00176812Y00230637*
X00176812D02*
G03X00177193Y00230491I00000354J00000353D01*
G01X00172008Y00225306D02*
G03X00177193Y00230491I00005492J-00000306D01*
G01X00172008Y00225306D02*
G03X00171862Y00225687I-00000498J00000027D01*
G01X00171862D02*
X00169869Y00227680D01*
X00169869D02*
G03X00169059Y00227532I-00000353J-00000352D01*
G01X00166911Y00225003D02*
G03X00169059Y00227532I-00003320J00004997D01*
G01X00166911Y00225003D02*
G03Y00224170I00000277J-00000416D01*
G01Y00214176D02*
G03Y00224170I-00003320J00004997D01*
G01Y00214176D02*
G03Y00213343I00000277J-00000416D01*
G01X00157659Y00209253D02*
G03X00166911Y00213343I00005931J-00000906D01*
G01X00157659Y00209253D02*
G03X00156799Y00209669I-00000493J00000075D01*
G01X00149088Y00218756D02*
G03X00156799Y00209669I00003321J-00004996D01*
G01X00149088Y00218756D02*
G03Y00219589I-00000276J00000417D01*
G01Y00229583D02*
G03Y00219589I00003321J-00004996D01*
G01Y00229583D02*
G03Y00230416I-00000276J00000417D01*
G01Y00240410D02*
G03Y00230416I00003321J-00004996D01*
G01Y00240410D02*
G03Y00241243I-00000276J00000416D01*
G01X00156799Y00250330D02*
G03X00149088Y00241243I-00004389J-00004089D01*
G01X00156799Y00250330D02*
G03X00157659Y00250746I00000366J00000341D01*
G01X00166911Y00246656D02*
G03X00157659Y00250746I-00003320J00004997D01*
G01X00166911Y00246656D02*
G03Y00245823I00000277J-00000415D01*
G01X00169484Y00239705D02*
G03X00166911Y00245823I-00005893J00001121D01*
G01X00169484Y00239705D02*
G03X00169600Y00239282I00000492J-00000093D01*
G01X00171263Y00237385*
G03X00172127Y00237822I00000376J00000330*
G01X00177806Y00244491D02*
G03X00172127Y00237822I-00000306J-00005491D01*
G01X00177806Y00244491D02*
G03X00178187Y00244637I00000027J00000499D01*
G01X00184362Y00250812*
X00184362D02*
G03X00184508Y00251193I-00000352J00000354D01*
G01Y00251806D02*
G03Y00251193I00005492J-00000306D01*
G01Y00251806D02*
G03X00184362Y00252187I-00000498J00000027D01*
G01X00184362D02*
X00182525Y00254025D01*
X00181499Y00256500D02*
G03X00182525Y00254025I00003501J00000000D01*
G01X00181499Y00256500D02*
Y00258843D01*
X00181499D02*
G03X00181353Y00259196I-00000499J00000000D01*
G01X00181353D02*
X00180687Y00259862D01*
X00180687D02*
G03X00180306Y00260008I-00000353J-00000352D01*
G01X00176333Y00269599D02*
G03X00180306Y00260008I00003667J-00004099D01*
G01X00176333Y00269599D02*
G03X00176499Y00269972I-00000333J00000373D01*
G01X00176499D02*
Y00272343D01*
X00176499D02*
G03X00176353Y00272696I-00000499J00000000D01*
G01X00176353D02*
X00170203Y00278846D01*
X00170203D02*
G03X00169350Y00278493I-00000352J-00000352D01*
G01X00158119Y00289853D02*
G03X00169350Y00278493I-00000119J-00011349D01*
G01X00158119Y00289853D02*
G03X00158546Y00290621I00000005J00000500D01*
G01X00157999Y00292500D02*
G03X00158546Y00290621I00003501J00000000D01*
G01X00157999Y00292500D02*
Y00296527D01*
X00157999D02*
G03X00157833Y00296900I-00000499J00000000D01*
G01X00156214Y00299479D02*
G03X00157833Y00296900I00005286J00001521D01*
G01X00156214Y00299479D02*
G03X00156087Y00299695I-00000480J-00000137D01*
G01X00149499Y00306282*
X00148108Y00309641D02*
G03X00149499Y00306282I00004750J00000000D01*
G01X00148108Y00309641D02*
Y00313095D01*
G03X00148045Y00313337I-00000499J00000000*
G01X00151338Y00321285D02*
G03X00148045Y00313337I00001520J-00005285D01*
G01X00151338Y00321285D02*
G03X00151553Y00321412I-00000138J00000481D01*
G01X00151553D02*
X00166499Y00336358D01*
X00166781Y00336619D02*
G03X00166499Y00336358I00003077J-00003619D01*
G01X00166781Y00336619D02*
G03X00166457Y00337499I-00000323J00000380D01*
G01X00166457D02*
X00162000D01*
X00159499Y00340000D02*
G03X00162000Y00337499I00002501J00000000D01*
G01X00159499Y00340000D02*
Y00346000D01*
X00162000Y00348500D02*
G03X00159499Y00346000I00000000J-00002500D01*
G01X00162000Y00348500D02*
X00168000D01*
X00170282Y00347020D02*
G03X00168000Y00348500I-00002282J-00001020D01*
G01X00170282Y00347020D02*
G03X00171093Y00346872I00000456J00000204D01*
G01X00179583Y00346040D02*
G03X00171094Y00346872I-00004583J-00003040D01*
G01X00179583Y00346040D02*
G03X00180416I00000417J00000276D01*
G01X00190121Y00340993D02*
G03X00180416Y00346040I-00005121J00002007D01*
G01X00190121Y00340993D02*
G03X00190975Y00340497I00000465J-00000181D01*
G01X00191225Y00340774D02*
G03X00190975Y00340497I00002475J-00002474D01*
G01X00191225Y00340774D02*
X00203425Y00352974D01*
X00205900Y00354000D02*
G03X00203425Y00352974I00000000J-00003500D01*
G01X00205900Y00354000D02*
X00220000D01*
X00241100*
X00243574Y00352974D02*
G03X00241100Y00354000I-00002474J-00002474D01*
G01X00243574Y00352974D02*
X00254474Y00342074D01*
X00255500Y00339600D02*
G03X00254474Y00342074I-00003500J00000000D01*
G01X00255500Y00339600D02*
Y00321656D01*
X00255500D02*
G03X00255646Y00321303I00000500J00000000D01*
G01X00260830Y00316119*
X00260830D02*
G03X00261668Y00316350I00000353J00000354D01*
G01X00263959Y00319583D02*
G03X00261668Y00316350I00003041J-00004583D01*
G01X00263959Y00319583D02*
G03Y00320416I-00000275J00000417D01*
G01Y00329583D02*
G03Y00320416I00003041J-00004583D01*
G01Y00329583D02*
G03Y00330416I-00000275J00000417D01*
G01Y00339583D02*
G03Y00330416I00003041J-00004583D01*
G01Y00339583D02*
G03Y00340416I-00000275J00000417D01*
G01X00270040D02*
G03X00263959I-00003040J00004584D01*
G01X00270040D02*
G03Y00339583I00000276J-00000416D01*
G01X00272489Y00335347D02*
G03X00270040Y00339583I-00005489J-00000347D01*
G01X00272489Y00335347D02*
G03X00273039Y00334881I00000499J00000031D01*
G01X00273400Y00334900D02*
G03X00273039Y00334881I00000000J-00003500D01*
G01X00273400Y00334900D02*
X00275884D01*
X00275884D02*
G03X00276238Y00335046I00000000J00000500D01*
G01X00278362Y00337170*
X00278362D02*
G03X00278508Y00337552I-00000352J00000354D01*
G01X00289491D02*
G03X00278508I-00005491J00000306D01*
G01X00289491D02*
G03X00289637Y00337170I00000499J-00000027D01*
G01X00289637D02*
X00291661Y00335146D01*
X00291661D02*
G03X00292015Y00335000I00000354J00000354D01*
G01X00295641*
X00298116Y00333974D02*
G03X00295641Y00335000I-00002474J-00002474D01*
G01X00298116Y00333974D02*
X00301312Y00330778D01*
X00301312D02*
G03X00301693Y00330633I00000354J00000354D01*
G01X00305979Y00321345D02*
G03X00301693Y00330633I-00003979J00003796D01*
G01X00305979Y00321345D02*
G03Y00320654I00000362J-00000345D01*
G01X00297900Y00313191D02*
G03X00305979Y00320654I00004100J00003667D01*
G01X00297900Y00313191D02*
G03X00297527Y00313358I-00000372J-00000332D01*
G01X00297527D02*
X00293641D01*
X00291166Y00314383D02*
G03X00293641Y00313358I00002475J00002475D01*
G01X00291166Y00314383D02*
X00291054Y00314495D01*
X00291054D02*
G03X00290701Y00314641I-00000352J-00000353D01*
G01X00290701D02*
X00288472D01*
X00288472D02*
G03X00288099Y00314475I00000000J-00000499D01*
G01X00279900D02*
G03X00288099I00004100J00003666D01*
G01X00279900D02*
G03X00279527Y00314641I-00000372J-00000333D01*
G01X00279527D02*
X00278698D01*
X00278698D02*
G03X00278345Y00314495I00000000J-00000499D01*
G01X00276374Y00312525*
X00273900Y00311499D02*
G03X00276374Y00312525I00000000J00003501D01*
G01X00273900Y00311499D02*
X00271472D01*
X00271472D02*
G03X00271099Y00311333I00000000J-00000499D01*
G01X00270040Y00310416D02*
G03X00271099Y00311333I-00003040J00004584D01*
G01X00270040Y00310416D02*
G03Y00309583I00000276J-00000416D01*
G01Y00300416D02*
G03Y00309583I-00003040J00004584D01*
G01Y00300416D02*
G03Y00299583I00000276J-00000416D01*
G01X00272491Y00294693D02*
G03X00270040Y00299583I-00005491J00000307D01*
G01X00272491Y00294693D02*
G03X00272637Y00294312I00000499J-00000026D01*
G01X00272637D02*
X00274803Y00292146D01*
G03X00275156Y00292000I00000353J00000354*
G01X00275156D02*
X00277641D01*
X00280116Y00290974D02*
G03X00277641Y00292000I-00002474J-00002474D01*
G01X00280116Y00290974D02*
X00283312Y00287778D01*
X00283312D02*
G03X00283693Y00287633I00000354J00000354D01*
G01X00288099Y00285808D02*
G03X00283693Y00287633I-00004099J-00003666D01*
G01X00288099Y00285808D02*
G03X00288472Y00285641I00000373J00000333D01*
G01X00288472D02*
X00297289D01*
X00297289D02*
G03X00297682Y00286451I00000000J00000500D01*
G01X00297628Y00293196D02*
G03X00297682Y00286451I00004372J-00003337D01*
G01X00297628Y00293196D02*
G03Y00293803I-00000396J00000304D01*
G01X00304484Y00302048D02*
G03X00297628Y00293803I-00002484J-00004906D01*
G01X00304484Y00302048D02*
G03X00305209Y00302457I00000226J00000446D01*
G01X00306225Y00304674D02*
G03X00305209Y00302457I00002475J-00002474D01*
G01X00306225Y00304674D02*
X00310862Y00309312D01*
X00310862D02*
G03X00311008Y00309693I-00000352J00000354D01*
G01X00314410Y00315087D02*
G03X00311008Y00309693I00002090J-00005087D01*
G01X00314410Y00315087D02*
G03X00314511Y00315956I-00000189J00000463D01*
G01X00330256Y00331180D02*
G03X00314511Y00315956I-00009256J-00006180D01*
G01X00330256Y00331180D02*
G03X00331172Y00331457I00000416J00000277D01*
G01X00331172D02*
Y00333394D01*
X00331172D02*
G03X00330983Y00333786I-00000499J00000000D01*
G01X00330983D02*
X00326328Y00337478D01*
X00326328D02*
G03X00325933Y00337579I-00000310J-00000391D01*
G01X00321093Y00339127D02*
G03X00325933Y00337579I00003907J00003873D01*
G01X00321093Y00339127D02*
G03X00320282Y00338979I-00000354J-00000351D01*
G01X00318000Y00337499D02*
G03X00320282Y00338979I00000000J00002501D01*
G01X00318000Y00337499D02*
X00312000D01*
X00309499Y00340000D02*
G03X00312000Y00337499I00002501J00000000D01*
G01X00309499Y00340000D02*
Y00346000D01*
X00312000Y00348500D02*
G03X00309499Y00346000I00000000J-00002500D01*
G01X00312000Y00348500D02*
X00318000D01*
X00320282Y00347020D02*
G03X00318000Y00348500I-00002282J-00001020D01*
G01X00320282Y00347020D02*
G03X00321093Y00346872I00000456J00000204D01*
G01X00329583Y00346040D02*
G03X00321094Y00346872I-00004583J-00003040D01*
G01X00329583Y00346040D02*
G03X00330416I00000417J00000276D01*
G01X00339583D02*
G03X00330416I-00004583J-00003040D01*
G01X00339583D02*
G03X00340416I00000417J00000276D01*
G01X00349583D02*
G03X00340416I-00004583J-00003040D01*
G01X00349583D02*
G03X00350416I00000417J00000276D01*
G01X00358666Y00338900D02*
G03X00350416Y00346040I-00003666J00004100D01*
G01X00358666Y00338900D02*
G03X00358500Y00338527I00000334J-00000372D01*
G01X00358500D02*
Y00329300D01*
X00357474Y00326825D02*
G03X00358500Y00329300I-00002474J00002475D01*
G01X00357474Y00326825D02*
X00355146Y00324496D01*
X00355146D02*
G03X00355000Y00324143I00000354J-00000352D01*
G01Y00314472*
G03X00355166Y00314099I00000500J00000000*
G01X00355599Y00313666D02*
G03X00355166Y00314099I-00004099J-00003666D01*
G01X00355599Y00313666D02*
G03X00355972Y00313500I00000373J00000334D01*
G01X00356099*
X00358574Y00312474D02*
G03X00356099Y00313500I-00002474J-00002474D01*
G01X00358574Y00312474D02*
X00359974Y00311074D01*
X00361000Y00308599D02*
G03X00359974Y00311074I-00003500J00000000D01*
G01X00361000Y00308599D02*
Y00308056D01*
X00361000D02*
G03X00361146Y00307703I00000500J00000000D01*
G01X00361479Y00307370*
X00361479D02*
G03X00361878Y00307226I00000353J00000354D01*
G01X00199500Y00300500D02*
G03X00199500I-00005500D01*
G01X00266500Y00180141D02*
G03X00266500I-00005500D01*
G01X00241500Y00184100D02*
G03X00241500I-00005500D01*
G01X00368150Y00318500D02*
G03X00368150I-00005750D01*
G01X00394311Y00340000D02*
G03X00394311I-00014311D01*
G01X00289500Y00301858D02*
G03X00289500I-00005500D01*
G01X00307500Y00344858D02*
G03X00307500I-00005500D01*
G01X00138250Y00248500D02*
Y00202409D01*
X00136250Y00200409D02*
G03X00138250Y00202409I00000000J00002000D01*
G01X00136250Y00200409D02*
X00127250D01*
X00125249Y00202409D02*
G03X00127250Y00200409I00002001J00000000D01*
G01X00125249Y00202409D02*
Y00248500D01*
X00127250Y00250500D02*
G03X00125249Y00248500I00000000J-00002000D01*
G01X00127250Y00250500D02*
X00136250D01*
X00138250Y00248500D02*
G03X00136250Y00250500I-00002000J00000000D01*
G01X00138250Y00276500D02*
Y00256409D01*
X00136250Y00254409D02*
G03X00138250Y00256409I00000000J00002000D01*
G01X00136250Y00254409D02*
X00127250D01*
X00125249Y00256409D02*
G03X00127250Y00254409I00002001J00000000D01*
G01X00125249Y00256409D02*
Y00276500D01*
X00127250Y00278500D02*
G03X00125249Y00276500I00000000J-00002000D01*
G01X00127250Y00278500D02*
X00136250D01*
X00138250Y00276500D02*
G03X00136250Y00278500I-00002000J00000000D01*
G01X00138641Y00316000D02*
G03X00138641I-00005499D01*
G01X00154311Y00340000D02*
G03X00154311I-00014311D01*
G01Y00140000D02*
G03X00154311I-00014311D01*
G01X00169350Y00181496D02*
G03X00169350I-00011350D01*
G01X00195641Y00182000D02*
G03X00195641I-00005499D01*
G01X00261130Y00140000D02*
G03X00261130I-00011130D01*
G01X00340416Y00133959D02*
G03Y00140040I00004584J00003041D01*
G01Y00133959D02*
G03X00339583I-00000416J-00000275D01*
G01X00331093Y00133127D02*
G03X00339583Y00133959I00003907J00003873D01*
G01X00331093Y00133127D02*
G03X00330282Y00132979I-00000354J-00000351D01*
G01X00328000Y00131499D02*
G03X00330282Y00132979I00000000J00002501D01*
G01X00328000Y00131499D02*
X00322000D01*
X00319499Y00134000D02*
G03X00322000Y00131499I00002501J00000000D01*
G01X00319499Y00134000D02*
Y00140000D01*
X00322000Y00142500D02*
G03X00319499Y00140000I00000000J-00002500D01*
G01X00322000Y00142500D02*
X00328000D01*
X00330282Y00141020D02*
G03X00328000Y00142500I-00002282J-00001020D01*
G01X00330282Y00141020D02*
G03X00331093Y00140872I00000456J00000204D01*
G01X00331333Y00141099D02*
G03X00331094Y00140872I00003667J-00004099D01*
G01X00331333Y00141099D02*
G03X00331499Y00141472I-00000333J00000373D01*
G01X00331499D02*
Y00144600D01*
X00332525Y00147074D02*
G03X00331499Y00144600I00002475J-00002474D01*
G01X00332525Y00147074D02*
X00340253Y00154803D01*
X00340253D02*
G03X00340399Y00155156I-00000353J00000353D01*
G01X00340399D02*
Y00158527D01*
X00340399D02*
G03X00340233Y00158900I-00000499J00000000D01*
G01X00347566D02*
G03X00340233I-00003666J00004100D01*
G01X00347566D02*
G03X00347400Y00158527I00000334J-00000372D01*
G01X00347400D02*
Y00153500D01*
X00346374Y00151025D02*
G03X00347400Y00153500I-00002474J00002475D01*
G01X00346374Y00151025D02*
X00338646Y00143296D01*
X00338646D02*
G03X00338500Y00142943I00000354J-00000352D01*
G01Y00141472*
G03X00338666Y00141099I00000500J00000000*
G01X00339583Y00140040D02*
G03X00338666Y00141099I-00004583J-00003040D01*
G01X00339583Y00140040D02*
G03X00340416I00000417J00000276D01*
G01X00222500Y00173798D02*
X00273041D01*
X00266432Y00198998D02*
X00272999D01*
X00266210Y00198098D02*
X00272954D01*
X00266499Y00199898D02*
X00272835D01*
X00265814Y00197198D02*
X00272545D01*
X00261789Y00174698D02*
X00272472D01*
X00265192Y00196298D02*
X00272401D01*
X00264219Y00195398D02*
X00272399D01*
X00262234Y00194498D02*
X00272275D01*
X00266890Y00200798D02*
X00272027D01*
X00222500Y00172898D02*
X00272020D01*
X00265815Y00182798D02*
X00271922D01*
X00265195Y00183698D02*
X00271917D01*
X00264100Y00175598D02*
X00271577D01*
X00267790Y00201698D02*
X00271504D01*
X00266211Y00181898D02*
X00271225D01*
X00268690Y00202598D02*
X00271181D01*
X00269590Y00203498D02*
X00271022D01*
X00265120Y00176498D02*
X00271001D01*
X00241134Y00193598D02*
X00270977D01*
X00264222Y00184598D02*
X00270829D01*
X00266432Y00180998D02*
X00270775D01*
X00265767Y00177398D02*
X00270638D01*
X00266499Y00180098D02*
X00270510D01*
X00240185Y00192698D02*
X00270499D01*
X00262246Y00185498D02*
X00270450D01*
X00266182Y00178298D02*
X00270444D01*
X00266418Y00179198D02*
X00270403D01*
X00216000Y00191798D02*
X00270399D01*
X00216351Y00190898D02*
X00270399D01*
X00217251Y00189998D02*
X00270399D01*
X00238294Y00189098D02*
X00270399D01*
X00239667Y00188198D02*
X00270399D01*
X00240474Y00187298D02*
X00270399D01*
X00240996Y00186398D02*
X00270399D01*
X00222500Y00174698D02*
X00260210D01*
X00248325Y00194498D02*
X00259765D01*
X00241319Y00185498D02*
X00259753D01*
X00222500Y00175598D02*
X00257899D01*
X00249948Y00195398D02*
X00257780D01*
X00241477Y00184598D02*
X00257777D01*
X00222500Y00176498D02*
X00256879D01*
X00241485Y00183698D02*
X00256804D01*
X00250878Y00196298D02*
X00256764D01*
X00222500Y00177398D02*
X00256232D01*
X00241343Y00182798D02*
X00256184D01*
X00222500Y00178298D02*
X00255817D01*
X00241040Y00181898D02*
X00255788D01*
X00238495Y00179198D02*
X00255581D01*
X00240542Y00180998D02*
X00255567D01*
X00239773Y00180098D02*
X00255500D01*
X00222500Y00171998D02*
X00248295D01*
X00222500Y00171098D02*
X00247248D01*
X00222500Y00170198D02*
X00246348D01*
X00222500Y00169298D02*
X00245448D01*
X00222500Y00168398D02*
X00244548D01*
X00222500Y00167498D02*
X00243648D01*
X00222544Y00166598D02*
X00242748D01*
X00223563Y00165698D02*
X00241848D01*
X00224335Y00164798D02*
X00240948D01*
X00224873Y00163898D02*
X00240048D01*
X00225237Y00162998D02*
X00239148D01*
X00225457Y00162098D02*
X00238248D01*
X00225547Y00161198D02*
X00237348D01*
X00225512Y00160298D02*
X00236448D01*
X00225351Y00159398D02*
X00235548D01*
X00225053Y00158498D02*
X00234648D01*
X00224597Y00157598D02*
X00233748D01*
X00218151Y00189098D02*
X00233705D01*
X00222500Y00179198D02*
X00233504D01*
X00223939Y00156698D02*
X00232848D01*
X00219051Y00188198D02*
X00232332D01*
X00222500Y00180098D02*
X00232226D01*
X00222981Y00155798D02*
X00231948D01*
X00216030Y00192698D02*
X00231814D01*
X00219951Y00187298D02*
X00231525D01*
X00222500Y00180998D02*
X00231457D01*
X00222212Y00154898D02*
X00231048D01*
X00220851Y00186398D02*
X00231003D01*
X00222500Y00181898D02*
X00230959D01*
X00216822Y00193598D02*
X00230865D01*
X00221723Y00185498D02*
X00230680D01*
X00222500Y00182798D02*
X00230656D01*
X00222250Y00184598D02*
X00230522D01*
X00222477Y00183698D02*
X00230514D01*
X00217398Y00194498D02*
X00224574D01*
X00217761Y00195398D02*
X00222951D01*
X00217955Y00196298D02*
X00222051D01*
X00217996Y00197198D02*
X00221151D01*
X00217889Y00198098D02*
X00220251D01*
X00217624Y00198998D02*
X00219351D01*
X00217264Y00199898D02*
X00218451D01*
X00158398Y00213398D02*
X00160338D01*
X00158385Y00214298D02*
X00160092D01*
X00158419Y00212498D02*
X00159259D01*
X00158630Y00215198D02*
X00159039D01*
X00226648Y00309698D02*
X00234082D01*
X00227548Y00310598D02*
X00233701D01*
X00225748Y00308798D02*
X00233022D01*
X00228448Y00311498D02*
X00232758D01*
X00224848Y00307898D02*
X00232325D01*
X00229348Y00312398D02*
X00232154D01*
X00223948Y00306998D02*
X00231875D01*
X00230248Y00313298D02*
X00231769D01*
X00223048Y00306098D02*
X00231610D01*
X00222148Y00305198D02*
X00231503D01*
X00197200Y00334898D02*
X00231500D01*
X00221248Y00304298D02*
X00231348D01*
X00197200Y00335798D02*
X00231251D01*
X00224794Y00333998D02*
X00231048D01*
X00220348Y00303398D02*
X00230448D01*
X00226167Y00333098D02*
X00230148D01*
X00219441Y00302498D02*
X00229548D01*
X00226974Y00332198D02*
X00229326D01*
X00227496Y00331298D02*
X00228876D01*
X00214220Y00301598D02*
X00228651D01*
X00227885Y00330398D02*
X00228591D01*
X00213496Y00300698D02*
X00228037D01*
X00213455Y00299798D02*
X00227751D01*
X00213261Y00298898D02*
X00227699D01*
X00212898Y00297998D02*
X00227699D01*
X00212322Y00297098D02*
X00227699D01*
X00211427Y00296198D02*
X00227699D01*
X00226974Y00295298D02*
X00227406D01*
X00209787D02*
X00224025D01*
X00197203Y00336698D02*
X00223837D01*
X00221037Y00337598D02*
X00222199D01*
X00170500Y00294398D02*
X00222198D01*
X00170951Y00293498D02*
X00221256D01*
X00171851Y00292598D02*
X00220652D01*
X00172751Y00291698D02*
X00220268D01*
X00197200Y00333998D02*
X00220205D01*
X00173651Y00290798D02*
X00220055D01*
X00213695Y00337598D02*
X00218962D01*
X00197200Y00333098D02*
X00218832D01*
X00174551Y00289898D02*
X00217999D01*
X00214999Y00338498D02*
X00216839D01*
X00175451Y00288998D02*
X00216723D01*
X00197200Y00332198D02*
X00216479D01*
X00176351Y00288098D02*
X00215955D01*
X00177251Y00287198D02*
X00215458D01*
X00213974Y00331298D02*
X00215248D01*
X00178151Y00286298D02*
X00215155D01*
X00179051Y00285398D02*
X00215014D01*
X00179951Y00284498D02*
X00214980D01*
X00180851Y00283598D02*
X00214148D01*
X00197198Y00319598D02*
X00213739D01*
X00197200Y00320498D02*
X00213707D01*
X00197053Y00318698D02*
X00213392D01*
X00196638Y00317798D02*
X00213261D01*
X00181751Y00282698D02*
X00213248D01*
X00182651Y00281798D02*
X00212348D01*
X00197200Y00331298D02*
X00211025D01*
X00195848Y00316898D02*
X00209999D01*
X00197200Y00321398D02*
X00209487D01*
X00184418Y00306998D02*
X00209462D01*
X00197200Y00330398D02*
X00209198D01*
X00184500Y00307898D02*
X00208835D01*
X00194948Y00315998D02*
X00208723D01*
X00184085Y00306098D02*
X00208644D01*
X00197200Y00322298D02*
X00208431D01*
X00197200Y00329498D02*
X00208256D01*
X00185414Y00308798D02*
X00208027D01*
X00194048Y00315098D02*
X00207955D01*
X00197200Y00323198D02*
X00207766D01*
X00197200Y00328598D02*
X00207652D01*
X00188162Y00309698D02*
X00207504D01*
X00193148Y00314198D02*
X00207458D01*
X00197200Y00324098D02*
X00207339D01*
X00197200Y00327698D02*
X00207268D01*
X00189548Y00310598D02*
X00207181D01*
X00192248Y00313298D02*
X00207155D01*
X00197200Y00324998D02*
X00207091D01*
X00197200Y00326798D02*
X00207058D01*
X00190448Y00311498D02*
X00207022D01*
X00191348Y00312398D02*
X00207014D01*
X00197200Y00325898D02*
X00207000D01*
X00197948Y00337598D02*
X00206304D01*
X00195787Y00295298D02*
X00206212D01*
X00196858Y00305198D02*
X00205141D01*
X00198848Y00338498D02*
X00205000D01*
X00199748Y00339398D02*
X00204573D01*
X00197427Y00296198D02*
X00204572D01*
X00183551Y00280898D02*
X00204538D01*
X00202448Y00342098D02*
X00204499D01*
X00201548Y00341198D02*
X00204499D01*
X00200648Y00340298D02*
X00204499D01*
X00203348Y00342998D02*
X00204496D01*
X00197977Y00304298D02*
X00204022D01*
X00198322Y00297098D02*
X00203677D01*
X00184451Y00279998D02*
X00203548D01*
X00198674Y00303398D02*
X00203325D01*
X00198898Y00297998D02*
X00203101D01*
X00199124Y00302498D02*
X00202875D01*
X00199261Y00298898D02*
X00202738D01*
X00185351Y00279098D02*
X00202648D01*
X00199389Y00301598D02*
X00202610D01*
X00199455Y00299798D02*
X00202544D01*
X00199496Y00300698D02*
X00202503D01*
X00186251Y00278198D02*
X00201748D01*
X00187151Y00277298D02*
X00200848D01*
X00188051Y00276398D02*
X00199948D01*
X00188951Y00275498D02*
X00199048D01*
X00189851Y00274598D02*
X00198148D01*
X00190751Y00273698D02*
X00197248D01*
X00191651Y00272798D02*
X00196348D01*
X00192551Y00271898D02*
X00195448D01*
X00194121Y00270998D02*
X00194422D01*
X00193577D02*
X00193878D01*
X00181787Y00295298D02*
X00192212D01*
X00183509Y00305198D02*
X00191141D01*
X00183427Y00296198D02*
X00190572D01*
X00189157Y00339398D02*
X00190376D01*
X00188160Y00338498D02*
X00190205D01*
X00186037Y00337598D02*
X00190199D01*
X00179750Y00336698D02*
X00190199D01*
X00179745Y00335798D02*
X00190199D01*
X00179620Y00334898D02*
X00190199D01*
X00179307Y00333998D02*
X00190199D01*
X00178760Y00333098D02*
X00190199D01*
X00177935Y00332198D02*
X00190199D01*
X00178974Y00331298D02*
X00190199D01*
X00180801Y00330398D02*
X00190199D01*
X00181743Y00329498D02*
X00190199D01*
X00182347Y00328598D02*
X00190199D01*
X00182731Y00327698D02*
X00190199D01*
X00182941Y00326798D02*
X00190199D01*
X00182999Y00325898D02*
X00190199D01*
X00182908Y00324998D02*
X00190199D01*
X00182660Y00324098D02*
X00190199D01*
X00182233Y00323198D02*
X00190199D01*
X00181568Y00322298D02*
X00190199D01*
X00180512Y00321398D02*
X00190199D01*
X00183977Y00304298D02*
X00190022D01*
X00184322Y00297098D02*
X00189677D01*
X00171448Y00320498D02*
X00189548D01*
X00184674Y00303398D02*
X00189325D01*
X00184898Y00297998D02*
X00189101D01*
X00185124Y00302498D02*
X00188875D01*
X00185261Y00298898D02*
X00188738D01*
X00170570Y00319598D02*
X00188648D01*
X00185389Y00301598D02*
X00188610D01*
X00185455Y00299798D02*
X00188544D01*
X00185496Y00300698D02*
X00188503D01*
X00170500Y00318698D02*
X00187748D01*
X00170500Y00317798D02*
X00186848D01*
X00180000Y00316898D02*
X00185948D01*
X00179750Y00337598D02*
X00183962D01*
X00181276Y00315998D02*
X00183195D01*
X00179750Y00338498D02*
X00181839D01*
X00179754Y00339398D02*
X00180842D01*
X00170500Y00295298D02*
X00178212D01*
X00170500Y00296198D02*
X00176572D01*
X00170500Y00306098D02*
X00176499D01*
X00170500Y00305198D02*
X00176499D01*
X00170500Y00304298D02*
X00176022D01*
X00170500Y00297098D02*
X00175677D01*
X00170500Y00303398D02*
X00175325D01*
X00170500Y00306998D02*
X00175211D01*
X00170500Y00297998D02*
X00175101D01*
X00170500Y00316898D02*
X00174999D01*
X00170500Y00302498D02*
X00174875D01*
X00170500Y00298898D02*
X00174738D01*
X00170500Y00301598D02*
X00174610D01*
X00170500Y00299798D02*
X00174544D01*
X00170500Y00300698D02*
X00174503D01*
X00172348Y00321398D02*
X00174487D01*
X00170500Y00307898D02*
X00173835D01*
X00170500Y00315998D02*
X00173723D01*
X00170500Y00308798D02*
X00173027D01*
X00170500Y00315098D02*
X00172955D01*
X00170500Y00309698D02*
X00172504D01*
X00170500Y00314198D02*
X00172458D01*
X00170500Y00310598D02*
X00172181D01*
X00170500Y00313298D02*
X00172155D01*
X00170500Y00311498D02*
X00172022D01*
X00170500Y00312398D02*
X00172014D01*
X00122500Y00356498D02*
X00397500D01*
X00122500Y00355598D02*
X00397500D01*
X00122500Y00354698D02*
X00397500D01*
X00383795Y00353798D02*
X00397500D01*
X00386199Y00352898D02*
X00397500D01*
X00387799Y00351998D02*
X00397500D01*
X00389034Y00351098D02*
X00397500D01*
X00390039Y00350198D02*
X00397500D01*
X00390878Y00349298D02*
X00397500D01*
X00391587Y00348398D02*
X00397500D01*
X00392189Y00347498D02*
X00397500D01*
X00392698Y00346598D02*
X00397500D01*
X00393127Y00345698D02*
X00397500D01*
X00393482Y00344798D02*
X00397500D01*
X00393769Y00343898D02*
X00397500D01*
X00393993Y00342998D02*
X00397500D01*
X00394156Y00342098D02*
X00397500D01*
X00394260Y00341198D02*
X00397500D01*
X00394307Y00340298D02*
X00397500D01*
X00394298Y00339398D02*
X00397500D01*
X00394232Y00338498D02*
X00397500D01*
X00394108Y00337598D02*
X00397500D01*
X00393925Y00336698D02*
X00397500D01*
X00393680Y00335798D02*
X00397500D01*
X00393370Y00334898D02*
X00397500D01*
X00392991Y00333998D02*
X00397500D01*
X00392537Y00333098D02*
X00397500D01*
X00391997Y00332198D02*
X00397500D01*
X00391361Y00331298D02*
X00397500D01*
X00390612Y00330398D02*
X00397500D01*
X00389722Y00329498D02*
X00397500D01*
X00388649Y00328598D02*
X00397500D01*
X00387313Y00327698D02*
X00397500D01*
X00385525Y00326798D02*
X00397500D01*
X00382441Y00325898D02*
X00397500D01*
X00355648Y00324998D02*
X00397500D01*
X00388910Y00324098D02*
X00397500D01*
X00390914Y00323198D02*
X00397500D01*
X00391916Y00322298D02*
X00397500D01*
X00392565Y00321398D02*
X00397500D01*
X00392991Y00320498D02*
X00397500D01*
X00393244Y00319598D02*
X00397500D01*
X00393346Y00318698D02*
X00397500D01*
X00393307Y00317798D02*
X00397500D01*
X00393122Y00316898D02*
X00397500D01*
X00392777Y00315998D02*
X00397500D01*
X00392236Y00315098D02*
X00397500D01*
X00391415Y00314198D02*
X00397500D01*
X00390051Y00313298D02*
X00397500D01*
X00358651Y00312398D02*
X00397500D01*
X00359551Y00311498D02*
X00397500D01*
X00360373Y00310598D02*
X00397500D01*
X00360823Y00309698D02*
X00397500D01*
X00360994Y00308798D02*
X00397500D01*
X00361025Y00307898D02*
X00397500D01*
X00389281Y00306998D02*
X00397500D01*
X00391051Y00306098D02*
X00397500D01*
X00392002Y00305198D02*
X00397500D01*
X00392622Y00304298D02*
X00397500D01*
X00393027Y00303398D02*
X00397500D01*
X00393262Y00302498D02*
X00397500D01*
X00393349Y00301598D02*
X00397500D01*
X00393293Y00300698D02*
X00397500D01*
X00393092Y00299798D02*
X00397500D01*
X00392727Y00298898D02*
X00397500D01*
X00392161Y00297998D02*
X00397500D01*
X00391300Y00297098D02*
X00397500D01*
X00389826Y00296198D02*
X00397500D01*
X00356151Y00295298D02*
X00397500D01*
X00357051Y00294398D02*
X00397500D01*
X00390441Y00293498D02*
X00397500D01*
X00391632Y00292598D02*
X00397500D01*
X00392378Y00291698D02*
X00397500D01*
X00392870Y00290798D02*
X00397500D01*
X00393177Y00289898D02*
X00397500D01*
X00393328Y00288998D02*
X00397500D01*
X00393336Y00288098D02*
X00397500D01*
X00393200Y00287198D02*
X00397500D01*
X00392911Y00286298D02*
X00397500D01*
X00392441Y00285398D02*
X00397500D01*
X00391729Y00284498D02*
X00397500D01*
X00390606Y00283598D02*
X00397500D01*
X00364037Y00282698D02*
X00397500D01*
X00364651Y00281798D02*
X00397500D01*
X00365402Y00280898D02*
X00397500D01*
X00365782Y00279998D02*
X00397500D01*
X00365900Y00279098D02*
X00397500D01*
X00365900Y00278198D02*
X00397500D01*
X00365900Y00277298D02*
X00397500D01*
X00390610Y00276398D02*
X00397500D01*
X00391731Y00275498D02*
X00397500D01*
X00392443Y00274598D02*
X00397500D01*
X00392913Y00273698D02*
X00397500D01*
X00393201Y00272798D02*
X00397500D01*
X00393336Y00271898D02*
X00397500D01*
X00393328Y00270998D02*
X00397500D01*
X00393176Y00270098D02*
X00397500D01*
X00392869Y00269198D02*
X00397500D01*
X00392376Y00268298D02*
X00397500D01*
X00391630Y00267398D02*
X00397500D01*
X00390437Y00266498D02*
X00397500D01*
X00359800Y00265598D02*
X00397500D01*
X00359800Y00264698D02*
X00397500D01*
X00389833Y00263798D02*
X00397500D01*
X00391303Y00262898D02*
X00397500D01*
X00392163Y00261998D02*
X00397500D01*
X00392729Y00261098D02*
X00397500D01*
X00393093Y00260198D02*
X00397500D01*
X00393294Y00259298D02*
X00397500D01*
X00393349Y00258398D02*
X00397500D01*
X00393262Y00257498D02*
X00397500D01*
X00393026Y00256598D02*
X00397500D01*
X00392621Y00255698D02*
X00397500D01*
X00392000Y00254798D02*
X00397500D01*
X00391048Y00253898D02*
X00397500D01*
X00389272Y00252998D02*
X00397500D01*
X00359800Y00252098D02*
X00397500D01*
X00359800Y00251198D02*
X00397500D01*
X00359800Y00250298D02*
X00397500D01*
X00359800Y00249398D02*
X00397500D01*
X00360351Y00248498D02*
X00397500D01*
X00361251Y00247598D02*
X00397500D01*
X00390056Y00246698D02*
X00397500D01*
X00391418Y00245798D02*
X00397500D01*
X00392238Y00244898D02*
X00397500D01*
X00392778Y00243998D02*
X00397500D01*
X00393123Y00243098D02*
X00397500D01*
X00393307Y00242198D02*
X00397500D01*
X00393346Y00241298D02*
X00397500D01*
X00393243Y00240398D02*
X00397500D01*
X00392990Y00239498D02*
X00397500D01*
X00392564Y00238598D02*
X00397500D01*
X00391914Y00237698D02*
X00397500D01*
X00390910Y00236798D02*
X00397500D01*
X00388899Y00235898D02*
X00397500D01*
X00354000Y00234998D02*
X00397500D01*
X00388910Y00234098D02*
X00397500D01*
X00390914Y00233198D02*
X00397500D01*
X00391916Y00232298D02*
X00397500D01*
X00392565Y00231398D02*
X00397500D01*
X00392991Y00230498D02*
X00397500D01*
X00393244Y00229598D02*
X00397500D01*
X00393346Y00228698D02*
X00397500D01*
X00393307Y00227798D02*
X00397500D01*
X00393122Y00226898D02*
X00397500D01*
X00392777Y00225998D02*
X00397500D01*
X00392236Y00225098D02*
X00397500D01*
X00391415Y00224198D02*
X00397500D01*
X00390051Y00223298D02*
X00397500D01*
X00363420Y00222398D02*
X00397500D01*
X00364151Y00221498D02*
X00397500D01*
X00365039Y00220598D02*
X00397500D01*
X00365608Y00219698D02*
X00397500D01*
X00365864Y00218798D02*
X00397500D01*
X00365900Y00217898D02*
X00397500D01*
X00389281Y00216998D02*
X00397500D01*
X00391051Y00216098D02*
X00397500D01*
X00392002Y00215198D02*
X00397500D01*
X00392622Y00214298D02*
X00397500D01*
X00393027Y00213398D02*
X00397500D01*
X00393262Y00212498D02*
X00397500D01*
X00393349Y00211598D02*
X00397500D01*
X00393293Y00210698D02*
X00397500D01*
X00393092Y00209798D02*
X00397500D01*
X00392727Y00208898D02*
X00397500D01*
X00392161Y00207998D02*
X00397500D01*
X00391300Y00207098D02*
X00397500D01*
X00389826Y00206198D02*
X00397500D01*
X00333401Y00205298D02*
X00397500D01*
X00333949Y00204398D02*
X00397500D01*
X00334291Y00203498D02*
X00397500D01*
X00334467Y00202598D02*
X00397500D01*
X00334491Y00201698D02*
X00397500D01*
X00334367Y00200798D02*
X00397500D01*
X00334082Y00199898D02*
X00397500D01*
X00333608Y00198998D02*
X00397500D01*
X00332876Y00198098D02*
X00397500D01*
X00331682Y00197198D02*
X00397500D01*
X00320641Y00196298D02*
X00397500D01*
X00320641Y00195398D02*
X00397500D01*
X00380621Y00194498D02*
X00397500D01*
X00383517Y00193598D02*
X00397500D01*
X00384570Y00192698D02*
X00397500D01*
X00385234Y00191798D02*
X00397500D01*
X00385661Y00190898D02*
X00397500D01*
X00385908Y00189998D02*
X00397500D01*
X00385999Y00189098D02*
X00397500D01*
X00385941Y00188198D02*
X00397500D01*
X00385730Y00187298D02*
X00397500D01*
X00385345Y00186398D02*
X00397500D01*
X00384741Y00185498D02*
X00397500D01*
X00384005Y00184598D02*
X00397500D01*
X00384000Y00183698D02*
X00397500D01*
X00384000Y00182798D02*
X00397500D01*
X00384000Y00181898D02*
X00397500D01*
X00384000Y00180998D02*
X00397500D01*
X00384000Y00180098D02*
X00397500D01*
X00384000Y00179198D02*
X00397500D01*
X00383994Y00178298D02*
X00397500D01*
X00383822Y00177398D02*
X00397500D01*
X00383388Y00176498D02*
X00397500D01*
X00383358Y00175598D02*
X00397500D01*
X00383928Y00174698D02*
X00397500D01*
X00384592Y00173798D02*
X00397500D01*
X00385020Y00172898D02*
X00397500D01*
X00385266Y00171998D02*
X00397500D01*
X00385357Y00171098D02*
X00397500D01*
X00385299Y00170198D02*
X00397500D01*
X00385088Y00169298D02*
X00397500D01*
X00384704Y00168398D02*
X00397500D01*
X00384099Y00167498D02*
X00397500D01*
X00383156Y00166598D02*
X00397500D01*
X00381323Y00165698D02*
X00397500D01*
X00349097Y00164798D02*
X00397500D01*
X00349326Y00163898D02*
X00397500D01*
X00349400Y00162998D02*
X00397500D01*
X00349325Y00162098D02*
X00397500D01*
X00349096Y00161198D02*
X00397500D01*
X00348690Y00160298D02*
X00397500D01*
X00348057Y00159398D02*
X00397500D01*
X00347400Y00158498D02*
X00397500D01*
X00347400Y00157598D02*
X00397500D01*
X00347400Y00156698D02*
X00397500D01*
X00347400Y00155798D02*
X00397500D01*
X00347400Y00154898D02*
X00397500D01*
X00382973Y00153998D02*
X00397500D01*
X00385764Y00153098D02*
X00397500D01*
X00387483Y00152198D02*
X00397500D01*
X00388783Y00151298D02*
X00397500D01*
X00389832Y00150398D02*
X00397500D01*
X00390704Y00149498D02*
X00397500D01*
X00391439Y00148598D02*
X00397500D01*
X00392063Y00147698D02*
X00397500D01*
X00392593Y00146798D02*
X00397500D01*
X00393038Y00145898D02*
X00397500D01*
X00393409Y00144998D02*
X00397500D01*
X00393711Y00144098D02*
X00397500D01*
X00393948Y00143198D02*
X00397500D01*
X00394125Y00142298D02*
X00397500D01*
X00394242Y00141398D02*
X00397500D01*
X00394302Y00140498D02*
X00397500D01*
X00394305Y00139598D02*
X00397500D01*
X00394251Y00138698D02*
X00397500D01*
X00394140Y00137798D02*
X00397500D01*
X00393970Y00136898D02*
X00397500D01*
X00393740Y00135998D02*
X00397500D01*
X00393445Y00135098D02*
X00397500D01*
X00393082Y00134198D02*
X00397500D01*
X00392645Y00133298D02*
X00397500D01*
X00392125Y00132398D02*
X00397500D01*
X00391512Y00131498D02*
X00397500D01*
X00390789Y00130598D02*
X00397500D01*
X00389934Y00129698D02*
X00397500D01*
X00388907Y00128798D02*
X00397500D01*
X00387639Y00127898D02*
X00397500D01*
X00385980Y00126998D02*
X00397500D01*
X00383399Y00126098D02*
X00397500D01*
X00122500Y00125198D02*
X00397500D01*
X00122500Y00124298D02*
X00397500D01*
X00122500Y00123398D02*
X00397500D01*
X00122698Y00357398D02*
X00397301D01*
X00363699Y00235898D02*
X00386300D01*
X00363710Y00324098D02*
X00386289D01*
X00363710Y00234098D02*
X00386289D01*
X00364072Y00252998D02*
X00385927D01*
X00364081Y00306998D02*
X00385918D01*
X00365900Y00216998D02*
X00385918D01*
X00364626Y00296198D02*
X00385373D01*
X00364626Y00206198D02*
X00385373D01*
X00364633Y00263798D02*
X00385366D01*
X00364851Y00313298D02*
X00385148D01*
X00364851Y00223298D02*
X00385148D01*
X00364856Y00246698D02*
X00385143D01*
X00365237Y00266498D02*
X00384762D01*
X00365241Y00293498D02*
X00384758D01*
X00365406Y00283598D02*
X00384593D01*
X00365900Y00276398D02*
X00384589D01*
X00365710Y00236798D02*
X00384289D01*
X00365714Y00323198D02*
X00384285D01*
X00365714Y00233198D02*
X00384285D01*
X00365848Y00253898D02*
X00384151D01*
X00365851Y00306098D02*
X00384148D01*
X00365943Y00216098D02*
X00384148D01*
X00366100Y00297098D02*
X00383899D01*
X00366100Y00207098D02*
X00383899D01*
X00366103Y00262898D02*
X00383896D01*
X00366215Y00314198D02*
X00383784D01*
X00366215Y00224198D02*
X00383784D01*
X00366218Y00245798D02*
X00383781D01*
X00366430Y00267398D02*
X00383569D01*
X00366432Y00292598D02*
X00383567D01*
X00366529Y00284498D02*
X00383470D01*
X00366531Y00275498D02*
X00383468D01*
X00366714Y00237698D02*
X00383285D01*
X00366716Y00322298D02*
X00383283D01*
X00366716Y00232298D02*
X00383283D01*
X00366800Y00254798D02*
X00383199D01*
X00366802Y00305198D02*
X00383197D01*
X00366802Y00215198D02*
X00383197D01*
X00366961Y00297998D02*
X00383038D01*
X00366961Y00207998D02*
X00383038D01*
X00366963Y00261998D02*
X00383036D01*
X00367036Y00315098D02*
X00382963D01*
X00367036Y00225098D02*
X00382963D01*
X00367038Y00244898D02*
X00382961D01*
X00367176Y00268298D02*
X00382823D01*
X00367178Y00291698D02*
X00382821D01*
X00367241Y00285398D02*
X00382758D01*
X00367243Y00274598D02*
X00382756D01*
X00367364Y00238598D02*
X00382635D01*
X00367365Y00321398D02*
X00382634D01*
X00367365Y00231398D02*
X00382634D01*
X00367421Y00255698D02*
X00382578D01*
X00367422Y00304298D02*
X00382577D01*
X00367422Y00214298D02*
X00382577D01*
X00367527Y00298898D02*
X00382472D01*
X00367527Y00208898D02*
X00382472D01*
X00367529Y00261098D02*
X00382470D01*
X00367577Y00315998D02*
X00382422D01*
X00367577Y00225998D02*
X00382422D01*
X00367578Y00243998D02*
X00382421D01*
X00367669Y00269198D02*
X00382330D01*
X00367670Y00290798D02*
X00382329D01*
X00367711Y00286298D02*
X00382288D01*
X00367713Y00273698D02*
X00382286D01*
X00367790Y00239498D02*
X00382209D01*
X00367791Y00320498D02*
X00382208D01*
X00367791Y00230498D02*
X00382208D01*
X00367826Y00256598D02*
X00382173D01*
X00367827Y00303398D02*
X00382172D01*
X00367827Y00213398D02*
X00382172D01*
X00367892Y00299798D02*
X00382107D01*
X00367892Y00209798D02*
X00382107D01*
X00367893Y00260198D02*
X00382106D01*
X00367922Y00316898D02*
X00382077D01*
X00367922Y00226898D02*
X00382077D01*
X00367923Y00243098D02*
X00382076D01*
X00367976Y00270098D02*
X00382023D01*
X00367977Y00289898D02*
X00382022D01*
X00368000Y00287198D02*
X00381999D01*
X00368001Y00272798D02*
X00381998D01*
X00368043Y00240398D02*
X00381956D01*
X00368044Y00319598D02*
X00381955D01*
X00368044Y00229598D02*
X00381955D01*
X00368062Y00257498D02*
X00381937D01*
X00368062Y00302498D02*
X00381937D01*
X00368062Y00212498D02*
X00381937D01*
X00368093Y00300698D02*
X00381906D01*
X00368093Y00210698D02*
X00381906D01*
X00368094Y00259298D02*
X00381905D01*
X00368107Y00317798D02*
X00381892D01*
X00368107Y00227798D02*
X00381892D01*
X00368107Y00242198D02*
X00381892D01*
X00368128Y00270998D02*
X00381871D01*
X00368128Y00288998D02*
X00381871D01*
X00368136Y00288098D02*
X00381864D01*
X00368136Y00271898D02*
X00381863D01*
X00368146Y00241298D02*
X00381853D01*
X00368146Y00318698D02*
X00381853D01*
X00368146Y00228698D02*
X00381853D01*
X00368149Y00258398D02*
X00381850D01*
X00368149Y00301598D02*
X00381850D01*
X00368149Y00211598D02*
X00381850D01*
X00345621Y00194498D02*
X00380378D01*
X00361606Y00165698D02*
X00378393D01*
X00356548Y00325898D02*
X00377558D01*
X00348517Y00193598D02*
X00377482D01*
X00347400Y00153998D02*
X00377026D01*
X00346965Y00183698D02*
X00376999D01*
X00340358Y00182798D02*
X00376999D01*
X00340358Y00181898D02*
X00376999D01*
X00340358Y00180998D02*
X00376999D01*
X00340358Y00180098D02*
X00376999D01*
X00348798Y00184598D02*
X00376994D01*
X00340358Y00179198D02*
X00376625D01*
X00143399Y00126098D02*
X00376600D01*
X00363440Y00166598D02*
X00376559D01*
X00349570Y00192698D02*
X00376429D01*
X00340313Y00178298D02*
X00376386D01*
X00340039Y00177398D02*
X00376358D01*
X00360262Y00176498D02*
X00376358D01*
X00363158Y00175598D02*
X00376358D01*
X00349741Y00185498D02*
X00376258D01*
X00242269Y00353798D02*
X00376204D01*
X00364212Y00174698D02*
X00375787D01*
X00350234Y00191798D02*
X00375765D01*
X00350345Y00186398D02*
X00375654D01*
X00364383Y00167498D02*
X00375616D01*
X00350661Y00190898D02*
X00375338D01*
X00350730Y00187298D02*
X00375269D01*
X00364876Y00173798D02*
X00375123D01*
X00350908Y00189998D02*
X00375091D01*
X00350941Y00188198D02*
X00375058D01*
X00364987Y00168398D02*
X00375012D01*
X00350999Y00189098D02*
X00375000D01*
X00365303Y00172898D02*
X00374696D01*
X00365372Y00169298D02*
X00374627D01*
X00357448Y00326798D02*
X00374474D01*
X00365550Y00171998D02*
X00374449D01*
X00365583Y00170198D02*
X00374416D01*
X00365640Y00171098D02*
X00374359D01*
X00347376Y00153098D02*
X00374235D01*
X00145980Y00126998D02*
X00374019D01*
X00243651Y00352898D02*
X00373800D01*
X00358112Y00327698D02*
X00372686D01*
X00347149Y00152198D02*
X00372516D01*
X00147639Y00127898D02*
X00372360D01*
X00244551Y00351998D02*
X00372200D01*
X00358429Y00328598D02*
X00371350D01*
X00346621Y00151298D02*
X00371216D01*
X00148907Y00128798D02*
X00371092D01*
X00245451Y00351098D02*
X00370965D01*
X00358500Y00329498D02*
X00370277D01*
X00345748Y00150398D02*
X00370167D01*
X00254214Y00129698D02*
X00370065D01*
X00303315Y00350198D02*
X00369960D01*
X00358500Y00330398D02*
X00369387D01*
X00344848Y00149498D02*
X00369295D01*
X00255957Y00130598D02*
X00369210D01*
X00305245Y00349298D02*
X00369121D01*
X00358500Y00331298D02*
X00368638D01*
X00343948Y00148598D02*
X00368560D01*
X00257183Y00131498D02*
X00368487D01*
X00356050Y00348398D02*
X00368412D01*
X00358500Y00332198D02*
X00368002D01*
X00343048Y00147698D02*
X00367936D01*
X00348012Y00132398D02*
X00367874D01*
X00358164Y00347498D02*
X00367810D01*
X00358500Y00333098D02*
X00367462D01*
X00342148Y00146798D02*
X00367406D01*
X00349068Y00133298D02*
X00367354D01*
X00359159Y00346598D02*
X00367301D01*
X00358500Y00333998D02*
X00367008D01*
X00341248Y00145898D02*
X00366961D01*
X00349733Y00134198D02*
X00366917D01*
X00359792Y00345698D02*
X00366872D01*
X00358500Y00334898D02*
X00366629D01*
X00340348Y00144998D02*
X00366590D01*
X00350160Y00135098D02*
X00366554D01*
X00360197Y00344798D02*
X00366517D01*
X00358500Y00335798D02*
X00366319D01*
X00339448Y00144098D02*
X00366288D01*
X00350408Y00135998D02*
X00366259D01*
X00360426Y00343898D02*
X00366230D01*
X00358500Y00336698D02*
X00366074D01*
X00338570Y00143198D02*
X00366051D01*
X00350499Y00136898D02*
X00366029D01*
X00360500Y00342998D02*
X00366006D01*
X00358500Y00337598D02*
X00365891D01*
X00346474Y00142298D02*
X00365874D01*
X00350441Y00137798D02*
X00365859D01*
X00360425Y00342098D02*
X00365843D01*
X00358500Y00338498D02*
X00365767D01*
X00348301Y00141398D02*
X00365757D01*
X00350231Y00138698D02*
X00365748D01*
X00360196Y00341198D02*
X00365739D01*
X00359157Y00339398D02*
X00365701D01*
X00349243Y00140498D02*
X00365697D01*
X00349847Y00139598D02*
X00365694D01*
X00359790Y00340298D02*
X00365692D01*
X00354000Y00235898D02*
X00361100D01*
X00355000Y00324098D02*
X00361089D01*
X00354000Y00234098D02*
X00361089D01*
X00359981Y00252998D02*
X00360727D01*
X00355996Y00296198D02*
X00360173D01*
X00332552Y00206198D02*
X00360173D01*
X00339443Y00176498D02*
X00360020D01*
X00357269Y00313298D02*
X00359948D01*
X00357923Y00293498D02*
X00359558D01*
X00354000Y00236798D02*
X00359089D01*
X00355000Y00323198D02*
X00359085D01*
X00354000Y00233198D02*
X00359085D01*
X00332667Y00216098D02*
X00358856D01*
X00331294Y00216998D02*
X00358751D01*
X00355889Y00297098D02*
X00358699D01*
X00331826Y00207098D02*
X00358699D01*
X00348692Y00165698D02*
X00358676D01*
X00355081Y00314198D02*
X00358584D01*
X00354000Y00237698D02*
X00358085D01*
X00355000Y00322298D02*
X00358083D01*
X00354000Y00232298D02*
X00358083D01*
X00333474Y00215198D02*
X00357997D01*
X00322600Y00217898D02*
X00357851D01*
X00355624Y00297998D02*
X00357838D01*
X00332773Y00207998D02*
X00357838D01*
X00355000Y00315098D02*
X00357763D01*
X00354000Y00238598D02*
X00357435D01*
X00355000Y00321398D02*
X00357434D01*
X00354251Y00231398D02*
X00357434D01*
X00333996Y00214298D02*
X00357377D01*
X00355174Y00298898D02*
X00357272D01*
X00333542Y00208898D02*
X00357272D01*
X00355000Y00315998D02*
X00357222D01*
X00338548Y00175598D02*
X00357124D01*
X00354000Y00239498D02*
X00357009D01*
X00355000Y00320498D02*
X00357008D01*
X00355151Y00230498D02*
X00357008D01*
X00334319Y00213398D02*
X00356972D01*
X00322600Y00218798D02*
X00356951D01*
X00354477Y00299798D02*
X00356907D01*
X00334040Y00209798D02*
X00356907D01*
X00355000Y00316898D02*
X00356877D01*
X00348059Y00166598D02*
X00356843D01*
X00354000Y00240398D02*
X00356756D01*
X00355000Y00319598D02*
X00356755D01*
X00334477Y00212498D02*
X00356737D01*
X00354000Y00300698D02*
X00356706D01*
X00334343Y00210698D02*
X00356706D01*
X00355000Y00317798D02*
X00356692D01*
X00354000Y00242198D02*
X00356658D01*
X00354000Y00241298D02*
X00356653D01*
X00355000Y00318698D02*
X00356653D01*
X00354000Y00301598D02*
X00356650D01*
X00334485Y00211598D02*
X00356650D01*
X00356067Y00229598D02*
X00356607D01*
X00353948Y00302498D02*
X00356451D01*
X00337648Y00174698D02*
X00356071D01*
X00322600Y00219698D02*
X00356051D01*
X00347064Y00167498D02*
X00355900D01*
X00354000Y00243098D02*
X00355851D01*
X00353662Y00303398D02*
X00355551D01*
X00336748Y00173798D02*
X00355407D01*
X00344950Y00168398D02*
X00355295D01*
X00322600Y00220598D02*
X00355151D01*
X00335848Y00172898D02*
X00354979D01*
X00354070Y00243998D02*
X00354951D01*
X00333600Y00169298D02*
X00354911D01*
X00334948Y00171998D02*
X00354733D01*
X00353138Y00304298D02*
X00354700D01*
X00333600Y00170198D02*
X00354700D01*
X00334048Y00171098D02*
X00354642D01*
X00322598Y00221498D02*
X00354251D01*
X00346050Y00348398D02*
X00353949D01*
X00322454Y00222398D02*
X00353351D01*
X00322040Y00223298D02*
X00352451D01*
X00348164Y00347498D02*
X00351835D01*
X00321251Y00224198D02*
X00351551D01*
X00349159Y00346598D02*
X00350840D01*
X00320351Y00225098D02*
X00350651D01*
X00319451Y00225998D02*
X00349751D01*
X00331055Y00226898D02*
X00348851D01*
X00332549Y00227798D02*
X00347953D01*
X00333399Y00228698D02*
X00347338D01*
X00333948Y00229598D02*
X00347052D01*
X00338000Y00262898D02*
X00346999D01*
X00338000Y00261998D02*
X00346999D01*
X00338000Y00261098D02*
X00346999D01*
X00338000Y00260198D02*
X00346999D01*
X00338000Y00259298D02*
X00346999D01*
X00338000Y00258398D02*
X00346999D01*
X00338000Y00257498D02*
X00346999D01*
X00338000Y00256598D02*
X00346999D01*
X00338000Y00255698D02*
X00346999D01*
X00338000Y00254798D02*
X00346999D01*
X00338000Y00253898D02*
X00346999D01*
X00338000Y00252998D02*
X00346999D01*
X00338000Y00252098D02*
X00346999D01*
X00338000Y00251198D02*
X00346999D01*
X00338000Y00250298D02*
X00346999D01*
X00338000Y00249398D02*
X00346999D01*
X00338000Y00248498D02*
X00346999D01*
X00338000Y00247598D02*
X00346999D01*
X00337907Y00246698D02*
X00346999D01*
X00337558Y00245798D02*
X00346999D01*
X00336848Y00244898D02*
X00346999D01*
X00335948Y00243998D02*
X00346999D01*
X00335048Y00243098D02*
X00346999D01*
X00334496Y00242198D02*
X00346999D01*
X00334455Y00241298D02*
X00346999D01*
X00334261Y00240398D02*
X00346999D01*
X00333898Y00239498D02*
X00346999D01*
X00333322Y00238598D02*
X00346999D01*
X00332427Y00237698D02*
X00346999D01*
X00331858Y00236798D02*
X00346999D01*
X00332879Y00235898D02*
X00346999D01*
X00333610Y00234998D02*
X00346999D01*
X00334083Y00234098D02*
X00346999D01*
X00334367Y00233198D02*
X00346999D01*
X00334491Y00232298D02*
X00346999D01*
X00334467Y00231398D02*
X00346999D01*
X00334291Y00230498D02*
X00346999D01*
X00338000Y00263798D02*
X00346920D01*
X00338000Y00264698D02*
X00346100D01*
X00338000Y00265598D02*
X00345551D01*
X00320641Y00194498D02*
X00345378D01*
X00338000Y00266498D02*
X00345208D01*
X00338000Y00267398D02*
X00345032D01*
X00338000Y00268298D02*
X00345008D01*
X00338000Y00269198D02*
X00344351D01*
X00340388Y00183698D02*
X00344034D01*
X00336050Y00348398D02*
X00343949D01*
X00338500Y00142298D02*
X00343525D01*
X00338000Y00270098D02*
X00343451D01*
X00333844Y00168398D02*
X00342849D01*
X00338000Y00270998D02*
X00342551D01*
X00320641Y00193598D02*
X00342482D01*
X00338012Y00132398D02*
X00341987D01*
X00338164Y00347498D02*
X00341835D01*
X00338505Y00141398D02*
X00341698D01*
X00338000Y00271898D02*
X00341651D01*
X00339717Y00192698D02*
X00341429D01*
X00339068Y00133298D02*
X00340931D01*
X00339159Y00346598D02*
X00340840D01*
X00339243Y00140498D02*
X00340756D01*
X00338000Y00272798D02*
X00340751D01*
X00335101Y00167498D02*
X00340735D01*
X00335099Y00158498D02*
X00340399D01*
X00333795Y00157598D02*
X00340399D01*
X00318648Y00156698D02*
X00340399D01*
X00317414Y00155798D02*
X00340399D01*
X00309564Y00154898D02*
X00340328D01*
X00338000Y00273698D02*
X00339851D01*
X00335526Y00159398D02*
X00339742D01*
X00335527Y00166598D02*
X00339740D01*
X00308188Y00153998D02*
X00339448D01*
X00335600Y00160298D02*
X00339109D01*
X00335600Y00165698D02*
X00339107D01*
X00338063Y00274598D02*
X00338953D01*
X00335600Y00161198D02*
X00338703D01*
X00335600Y00164798D02*
X00338702D01*
X00293500Y00153098D02*
X00338548D01*
X00335600Y00162098D02*
X00338474D01*
X00335600Y00163898D02*
X00338473D01*
X00335600Y00162998D02*
X00338399D01*
X00293500Y00152198D02*
X00337648D01*
X00293982Y00151298D02*
X00336748D01*
X00295072Y00150398D02*
X00335848D01*
X00295449Y00149498D02*
X00334948D01*
X00295500Y00148598D02*
X00334048D01*
X00320641Y00192698D02*
X00333999D01*
X00326050Y00348398D02*
X00333949D01*
X00318929Y00182798D02*
X00333358D01*
X00314900Y00181898D02*
X00333358D01*
X00314900Y00180998D02*
X00333358D01*
X00320569Y00183698D02*
X00333328D01*
X00314900Y00180098D02*
X00333148D01*
X00295500Y00147698D02*
X00333148D01*
X00321119Y00191798D02*
X00332880D01*
X00321463Y00184598D02*
X00332536D01*
X00295500Y00146798D02*
X00332276D01*
X00314900Y00179198D02*
X00332248D01*
X00321815Y00190898D02*
X00332184D01*
X00329919Y00132398D02*
X00331987D01*
X00322040Y00185498D02*
X00331959D01*
X00328164Y00347498D02*
X00331835D01*
X00295500Y00145898D02*
X00331749D01*
X00322265Y00189998D02*
X00331734D01*
X00322403Y00186398D02*
X00331596D01*
X00295500Y00144998D02*
X00331522D01*
X00295500Y00144098D02*
X00331499D01*
X00295500Y00143198D02*
X00331499D01*
X00328982Y00142298D02*
X00331499D01*
X00330072Y00141398D02*
X00331494D01*
X00322530Y00189098D02*
X00331469D01*
X00322596Y00187298D02*
X00331403D01*
X00322638Y00188198D02*
X00331361D01*
X00314900Y00178298D02*
X00331348D01*
X00328634Y00333098D02*
X00331172D01*
X00329488Y00332198D02*
X00331172D01*
X00330176Y00331298D02*
X00331146D01*
X00329159Y00346598D02*
X00330840D01*
X00327550Y00333998D02*
X00330715D01*
X00314900Y00177398D02*
X00330448D01*
X00326088Y00334898D02*
X00329581D01*
X00314900Y00176498D02*
X00329548D01*
X00314900Y00175598D02*
X00328648D01*
X00323696Y00335798D02*
X00328446D01*
X00314900Y00174698D02*
X00327748D01*
X00290109Y00336698D02*
X00327311D01*
X00314829Y00173798D02*
X00327039D01*
X00318551Y00226898D02*
X00326944D01*
X00322600Y00216998D02*
X00326705D01*
X00314512Y00172898D02*
X00326692D01*
X00313848Y00171998D02*
X00326599D01*
X00312948Y00171098D02*
X00326599D01*
X00312048Y00170198D02*
X00326599D01*
X00311391Y00169298D02*
X00326599D01*
X00319548Y00157598D02*
X00326404D01*
X00311367Y00168398D02*
X00326355D01*
X00320641Y00197198D02*
X00326317D01*
X00317651Y00227798D02*
X00325450D01*
X00322600Y00216098D02*
X00325332D01*
X00320641Y00198098D02*
X00325123D01*
X00320448Y00158498D02*
X00325100D01*
X00311191Y00167498D02*
X00325098D01*
X00316991Y00228698D02*
X00324600D01*
X00321355Y00159398D02*
X00324573D01*
X00310848Y00166598D02*
X00324569D01*
X00322600Y00215198D02*
X00324525D01*
X00320582Y00198998D02*
X00324391D01*
X00316967Y00229598D02*
X00324051D01*
X00322600Y00214298D02*
X00324003D01*
X00318695Y00337598D02*
X00323962D01*
X00318704Y00348398D02*
X00323949D01*
X00320284Y00199898D02*
X00323917D01*
X00316791Y00230498D02*
X00323708D01*
X00322625Y00213398D02*
X00323680D01*
X00319650Y00200798D02*
X00323632D01*
X00316449Y00231398D02*
X00323532D01*
X00318751Y00201698D02*
X00323508D01*
X00315901Y00232298D02*
X00323508D01*
X00317851Y00202598D02*
X00323433D01*
X00315052Y00233198D02*
X00322851D01*
X00317019Y00203498D02*
X00322551D01*
X00313562Y00234098D02*
X00321951D01*
X00319999Y00338498D02*
X00321839D01*
X00320001Y00347498D02*
X00321835D01*
X00316985Y00204398D02*
X00321651D01*
X00275451Y00234998D02*
X00321051D01*
X00295399Y00142298D02*
X00321017D01*
X00316844Y00205298D02*
X00320751D01*
X00274551Y00235898D02*
X00320151D01*
X00258130Y00132398D02*
X00320080D01*
X00294919Y00141398D02*
X00319927D01*
X00316541Y00206198D02*
X00319851D01*
X00292854Y00133298D02*
X00319600D01*
X00294899Y00140498D02*
X00319550D01*
X00295262Y00139598D02*
X00319499D01*
X00295455Y00138698D02*
X00319499D01*
X00295496Y00137798D02*
X00319499D01*
X00295388Y00136898D02*
X00319499D01*
X00295122Y00135998D02*
X00319499D01*
X00294672Y00135098D02*
X00319499D01*
X00293974Y00134198D02*
X00319499D01*
X00303304Y00236798D02*
X00319251D01*
X00316044Y00207098D02*
X00318951D01*
X00305241Y00237698D02*
X00318351D01*
X00291009Y00335798D02*
X00318303D01*
X00315276Y00207998D02*
X00318051D01*
X00310299Y00165698D02*
X00317771D01*
X00306206Y00238598D02*
X00317451D01*
X00314000Y00208898D02*
X00317151D01*
X00309449Y00164798D02*
X00316848D01*
X00306823Y00239498D02*
X00316551D01*
X00297851Y00209798D02*
X00316300D01*
X00308727Y00163898D02*
X00315948D01*
X00296477Y00334898D02*
X00315911D01*
X00296951Y00210698D02*
X00315812D01*
X00307216Y00240398D02*
X00315651D01*
X00296051Y00211598D02*
X00315612D01*
X00234976Y00219698D02*
X00315599D01*
X00221748Y00218798D02*
X00315599D01*
X00220848Y00217898D02*
X00315599D01*
X00220500Y00216998D02*
X00315599D01*
X00220500Y00216098D02*
X00315599D01*
X00220487Y00215198D02*
X00315599D01*
X00220287Y00214298D02*
X00315599D01*
X00219799Y00213398D02*
X00315599D01*
X00295004Y00212498D02*
X00315599D01*
X00309676Y00162998D02*
X00315048D01*
X00292057Y00220598D02*
X00314951D01*
X00307435Y00241298D02*
X00314751D01*
X00307432Y00315998D02*
X00314453D01*
X00298092Y00333998D02*
X00314449D01*
X00307210Y00315098D02*
X00314435D01*
X00293048Y00221498D02*
X00314051D01*
X00307499Y00242198D02*
X00313851D01*
X00307499Y00316898D02*
X00313367D01*
X00298992Y00333098D02*
X00313365D01*
X00293948Y00222398D02*
X00313151D01*
X00307416Y00243098D02*
X00312951D01*
X00306814Y00314198D02*
X00312947D01*
X00307419Y00317798D02*
X00312513D01*
X00299892Y00332198D02*
X00312511D01*
X00294848Y00223298D02*
X00312251D01*
X00306192Y00313298D02*
X00312098D01*
X00307177Y00243998D02*
X00312051D01*
X00307182Y00318698D02*
X00311825D01*
X00300792Y00331298D02*
X00311823D01*
X00305219Y00312398D02*
X00311550D01*
X00289493Y00337598D02*
X00311304D01*
X00306208Y00348398D02*
X00311295D01*
X00306768Y00319598D02*
X00311268D01*
X00303616Y00330398D02*
X00311266D01*
X00303234Y00311498D02*
X00311208D01*
X00306759Y00244898D02*
X00311151D01*
X00270298Y00310598D02*
X00311032D01*
X00269917Y00309698D02*
X00311008D01*
X00306122Y00320498D02*
X00310820D01*
X00305356Y00329498D02*
X00310819D01*
X00306029Y00321398D02*
X00310468D01*
X00306277Y00328598D02*
X00310467D01*
X00270977Y00308798D02*
X00310348D01*
X00306108Y00245798D02*
X00310251D01*
X00306708Y00322298D02*
X00310202D01*
X00306869Y00327698D02*
X00310201D01*
X00307145Y00323198D02*
X00310016D01*
X00307244Y00326798D02*
X00310016D01*
X00289462Y00338498D02*
X00310000D01*
X00306824Y00347498D02*
X00309998D01*
X00307400Y00324098D02*
X00309906D01*
X00307447Y00325898D02*
X00309906D01*
X00307498Y00324998D02*
X00309869D01*
X00302665Y00339398D02*
X00309573D01*
X00307217Y00346598D02*
X00309572D01*
X00307435Y00345698D02*
X00309499D01*
X00307499Y00344798D02*
X00309499D01*
X00307415Y00343898D02*
X00309499D01*
X00307176Y00342998D02*
X00309499D01*
X00306757Y00342098D02*
X00309499D01*
X00306105Y00341198D02*
X00309499D01*
X00305075Y00340298D02*
X00309499D01*
X00271674Y00307898D02*
X00309448D01*
X00278562Y00234098D02*
X00309437D01*
X00305079Y00246698D02*
X00309351D01*
X00298751Y00208898D02*
X00308999D01*
X00295748Y00224198D02*
X00308817D01*
X00285956Y00306998D02*
X00308548D01*
X00302998Y00247598D02*
X00308451D01*
X00280052Y00233198D02*
X00307947D01*
X00299651Y00207998D02*
X00307723D01*
X00287502Y00306098D02*
X00307648D01*
X00296648Y00225098D02*
X00307623D01*
X00303260Y00248498D02*
X00307379D01*
X00300551Y00207098D02*
X00306955D01*
X00288369Y00305198D02*
X00306748D01*
X00301451Y00206198D02*
X00306458D01*
X00302351Y00205298D02*
X00306155D01*
X00305051Y00202598D02*
X00306123D01*
X00304151Y00203498D02*
X00306022D01*
X00303251Y00204398D02*
X00306014D01*
X00288928Y00304298D02*
X00305898D01*
X00289279Y00303398D02*
X00305411D01*
X00303246Y00302498D02*
X00305212D01*
X00293500Y00153998D02*
X00303611D01*
X00279570Y00194498D02*
X00303248D01*
X00295748Y00163898D02*
X00303072D01*
X00279882Y00183698D02*
X00302982D01*
X00280822Y00193598D02*
X00302882D01*
X00280970Y00184598D02*
X00302601D01*
X00279707Y00195398D02*
X00302351D01*
X00296648Y00164798D02*
X00302350D01*
X00293500Y00154898D02*
X00302235D01*
X00294848Y00162998D02*
X00302123D01*
X00279877Y00182798D02*
X00301922D01*
X00281300Y00192698D02*
X00301829D01*
X00281349Y00185498D02*
X00301658D01*
X00297548Y00165698D02*
X00301500D01*
X00279963Y00196298D02*
X00301451D01*
X00293500Y00155798D02*
X00301427D01*
X00293948Y00162098D02*
X00301355D01*
X00289279Y00339398D02*
X00301334D01*
X00280574Y00181898D02*
X00301225D01*
X00281400Y00191798D02*
X00301165D01*
X00281400Y00186398D02*
X00301054D01*
X00269448Y00247598D02*
X00301001D01*
X00298448Y00166598D02*
X00300951D01*
X00293500Y00156698D02*
X00300904D01*
X00293500Y00161198D02*
X00300858D01*
X00281024Y00180998D02*
X00300775D01*
X00271436Y00311498D02*
X00300765D01*
X00289462Y00302498D02*
X00300753D01*
X00286948Y00248498D02*
X00300739D01*
X00281400Y00190898D02*
X00300738D01*
X00273651Y00236798D02*
X00300695D01*
X00268795Y00350198D02*
X00300684D01*
X00281400Y00187298D02*
X00300669D01*
X00299348Y00167498D02*
X00300608D01*
X00293500Y00157598D02*
X00300581D01*
X00293500Y00160298D02*
X00300555D01*
X00280000Y00197198D02*
X00300551D01*
X00281289Y00180098D02*
X00300510D01*
X00281400Y00189998D02*
X00300491D01*
X00281400Y00188198D02*
X00300458D01*
X00293500Y00158498D02*
X00300422D01*
X00293500Y00159398D02*
X00300414D01*
X00281396Y00179198D02*
X00300403D01*
X00281400Y00189098D02*
X00300400D01*
X00281355Y00178298D02*
X00300248D01*
X00280000Y00198098D02*
X00299651D01*
X00281161Y00177398D02*
X00299348D01*
X00288928Y00340298D02*
X00298924D01*
X00268899Y00246698D02*
X00298920D01*
X00276241Y00312398D02*
X00298780D01*
X00289493Y00301598D02*
X00298777D01*
X00272751Y00237698D02*
X00298758D01*
X00270430Y00349298D02*
X00298754D01*
X00280000Y00198998D02*
X00298751D01*
X00280798Y00176498D02*
X00298448D01*
X00288369Y00341198D02*
X00297894D01*
X00268079Y00245798D02*
X00297891D01*
X00280164Y00199898D02*
X00297851D01*
X00289376Y00300698D02*
X00297804D01*
X00271851Y00238598D02*
X00297793D01*
X00271324Y00348398D02*
X00297791D01*
X00286606Y00313298D02*
X00297764D01*
X00287601Y00286298D02*
X00297764D01*
X00273451Y00293498D02*
X00297731D01*
X00280222Y00175598D02*
X00297548D01*
X00287502Y00342098D02*
X00297242D01*
X00268000Y00244898D02*
X00297240D01*
X00272568Y00294398D02*
X00297232D01*
X00274351Y00292598D02*
X00297231D01*
X00286162Y00287198D02*
X00297185D01*
X00289099Y00299798D02*
X00297184D01*
X00270950Y00239498D02*
X00297176D01*
X00271899Y00347498D02*
X00297175D01*
X00280972Y00200798D02*
X00296951D01*
X00285956Y00342998D02*
X00296823D01*
X00267907Y00243998D02*
X00296822D01*
X00272491Y00295298D02*
X00296817D01*
X00279062Y00291698D02*
X00296817D01*
X00282992Y00288098D02*
X00296789D01*
X00288635Y00298898D02*
X00296788D01*
X00269336Y00240398D02*
X00296783D01*
X00272262Y00346598D02*
X00296782D01*
X00279327Y00174698D02*
X00296648D01*
X00272388Y00343898D02*
X00296584D01*
X00267558Y00243098D02*
X00296583D01*
X00272367Y00296198D02*
X00296581D01*
X00280292Y00290798D02*
X00296580D01*
X00282092Y00288998D02*
X00296567D01*
X00287918Y00297998D02*
X00296567D01*
X00265955Y00241298D02*
X00296564D01*
X00272455Y00345698D02*
X00296564D01*
X00272496Y00344798D02*
X00296500D01*
X00266848Y00242198D02*
X00296500D01*
X00286756Y00297098D02*
X00296500D01*
X00281192Y00289898D02*
X00296500D01*
X00288029Y00249398D02*
X00296158D01*
X00281495Y00201698D02*
X00296051D01*
X00278758Y00173798D02*
X00295748D01*
X00288708Y00250298D02*
X00295251D01*
X00281818Y00202598D02*
X00295151D01*
X00279779Y00172898D02*
X00294848D01*
X00280901Y00232298D02*
X00294430D01*
X00289145Y00251198D02*
X00294351D01*
X00281977Y00203498D02*
X00294251D01*
X00280510Y00171998D02*
X00293948D01*
X00289400Y00252098D02*
X00293451D01*
X00281985Y00204398D02*
X00293351D01*
X00281449Y00231398D02*
X00293048D01*
X00280983Y00171098D02*
X00293048D01*
X00289498Y00252998D02*
X00292551D01*
X00281844Y00205298D02*
X00292451D01*
X00281791Y00230498D02*
X00292148D01*
X00281267Y00170198D02*
X00292148D01*
X00289447Y00253898D02*
X00291651D01*
X00287834Y00314198D02*
X00291366D01*
X00281967Y00229598D02*
X00291248D01*
X00281391Y00169298D02*
X00291248D01*
X00289303Y00254798D02*
X00290751D01*
X00281991Y00228698D02*
X00290348D01*
X00281367Y00168398D02*
X00290348D01*
X00281867Y00227798D02*
X00289448D01*
X00281191Y00167498D02*
X00289448D01*
X00280848Y00166598D02*
X00288548D01*
X00280299Y00165698D02*
X00287648D01*
X00258886Y00133298D02*
X00287145D01*
X00279449Y00164798D02*
X00286939D01*
X00278727Y00163898D02*
X00286592D01*
X00279676Y00162998D02*
X00286499D01*
X00280444Y00162098D02*
X00286499D01*
X00280941Y00161198D02*
X00286499D01*
X00281244Y00160298D02*
X00286499D01*
X00281385Y00159398D02*
X00286499D01*
X00281377Y00158498D02*
X00286499D01*
X00281218Y00157598D02*
X00286499D01*
X00280895Y00156698D02*
X00286499D01*
X00280372Y00155798D02*
X00286499D01*
X00279564Y00154898D02*
X00286499D01*
X00278188Y00153998D02*
X00286499D01*
X00239148Y00153098D02*
X00286499D01*
X00238248Y00152198D02*
X00286499D01*
X00259498Y00134198D02*
X00286025D01*
X00237348Y00151298D02*
X00286017D01*
X00259992Y00135098D02*
X00285327D01*
X00261118Y00140498D02*
X00285100D01*
X00261041Y00141398D02*
X00285080D01*
X00253968Y00150398D02*
X00284927D01*
X00260386Y00135998D02*
X00284877D01*
X00261122Y00139598D02*
X00284737D01*
X00260689Y00136898D02*
X00284611D01*
X00260890Y00142298D02*
X00284600D01*
X00255801Y00149498D02*
X00284550D01*
X00261053Y00138698D02*
X00284544D01*
X00260910Y00137798D02*
X00284503D01*
X00257067Y00148598D02*
X00284499D01*
X00258038Y00147698D02*
X00284499D01*
X00258812Y00146798D02*
X00284499D01*
X00259438Y00145898D02*
X00284499D01*
X00259944Y00144998D02*
X00284499D01*
X00260348Y00144098D02*
X00284499D01*
X00260660Y00143198D02*
X00284499D01*
X00272122Y00342998D02*
X00282043D01*
X00272124Y00306998D02*
X00282043D01*
X00277148Y00313298D02*
X00281393D01*
X00272083Y00297098D02*
X00281243D01*
X00269791Y00248498D02*
X00281051D01*
X00271672Y00342098D02*
X00280497D01*
X00272389Y00306098D02*
X00280497D01*
X00278048Y00314198D02*
X00280165D01*
X00271610Y00297998D02*
X00280081D01*
X00269967Y00249398D02*
X00279970D01*
X00270974Y00341198D02*
X00279630D01*
X00272496Y00305198D02*
X00279630D01*
X00270879Y00298898D02*
X00279364D01*
X00269991Y00250298D02*
X00279291D01*
X00269915Y00340298D02*
X00279071D01*
X00272455Y00304298D02*
X00279071D01*
X00269858Y00299798D02*
X00278900D01*
X00270648Y00251198D02*
X00278854D01*
X00270301Y00339398D02*
X00278720D01*
X00272261Y00303398D02*
X00278720D01*
X00274248Y00254798D02*
X00278696D01*
X00270427Y00300698D02*
X00278623D01*
X00271548Y00252098D02*
X00278599D01*
X00273348Y00253898D02*
X00278552D01*
X00271243Y00338498D02*
X00278537D01*
X00271898Y00302498D02*
X00278537D01*
X00271847Y00337598D02*
X00278506D01*
X00271322Y00301598D02*
X00278506D01*
X00272448Y00252998D02*
X00278501D01*
X00272231Y00336698D02*
X00277890D01*
X00272441Y00335798D02*
X00276990D01*
X00240048Y00153998D02*
X00273611D01*
X00272848Y00334898D02*
X00273303D01*
X00249948Y00163898D02*
X00273072D01*
X00250848Y00164798D02*
X00272350D01*
X00240948Y00154898D02*
X00272235D01*
X00249048Y00162998D02*
X00272123D01*
X00241848Y00155798D02*
X00271427D01*
X00248148Y00162098D02*
X00271355D01*
X00242748Y00156698D02*
X00270904D01*
X00247248Y00161198D02*
X00270858D01*
X00243648Y00157598D02*
X00270581D01*
X00246348Y00160298D02*
X00270555D01*
X00244548Y00158498D02*
X00270422D01*
X00245448Y00159398D02*
X00270414D01*
X00218948Y00212498D02*
X00268836D01*
X00218066Y00211598D02*
X00267790D01*
X00217991Y00210698D02*
X00266890D01*
X00217867Y00209798D02*
X00265990D01*
X00236070Y00220598D02*
X00265542D01*
X00246351Y00350198D02*
X00265204D01*
X00217582Y00208898D02*
X00265090D01*
X00236449Y00221498D02*
X00264551D01*
X00217196Y00207998D02*
X00264190D01*
X00255429Y00340298D02*
X00264084D01*
X00255500Y00330398D02*
X00263985D01*
X00257351Y00319598D02*
X00263981D01*
X00256451Y00320498D02*
X00263839D01*
X00255500Y00329498D02*
X00263835D01*
X00255500Y00339398D02*
X00263698D01*
X00236500Y00222398D02*
X00263651D01*
X00247251Y00349298D02*
X00263569D01*
X00220927Y00207098D02*
X00263290D01*
X00255113Y00341198D02*
X00263025D01*
X00255500Y00331298D02*
X00262931D01*
X00258251Y00318698D02*
X00262929D01*
X00255571Y00321398D02*
X00262842D01*
X00255500Y00328598D02*
X00262840D01*
X00255500Y00338498D02*
X00262756D01*
X00236500Y00223298D02*
X00262751D01*
X00248151Y00348398D02*
X00262675D01*
X00222051Y00206198D02*
X00262390D01*
X00254451Y00342098D02*
X00262327D01*
X00255500Y00332198D02*
X00262266D01*
X00259151Y00317798D02*
X00262265D01*
X00255500Y00322298D02*
X00262209D01*
X00255500Y00327698D02*
X00262207D01*
X00255500Y00337598D02*
X00262152D01*
X00249051Y00347498D02*
X00262100D01*
X00253551Y00342998D02*
X00261877D01*
X00236500Y00224198D02*
X00261851D01*
X00255500Y00333098D02*
X00261839D01*
X00260051Y00316898D02*
X00261838D01*
X00255500Y00323198D02*
X00261803D01*
X00255500Y00326798D02*
X00261802D01*
X00255500Y00336698D02*
X00261768D01*
X00249951Y00346598D02*
X00261737D01*
X00252651Y00343898D02*
X00261611D01*
X00255500Y00333998D02*
X00261591D01*
X00255500Y00324098D02*
X00261574D01*
X00255500Y00325898D02*
X00261573D01*
X00255500Y00335798D02*
X00261558D01*
X00250851Y00345698D02*
X00261544D01*
X00251751Y00344798D02*
X00261503D01*
X00255500Y00334898D02*
X00261500D01*
X00255500Y00324998D02*
X00261499D01*
X00261026Y00315998D02*
X00261341D01*
X00236500Y00225098D02*
X00260951D01*
X00222951Y00205298D02*
X00260192D01*
X00236500Y00225998D02*
X00260051D01*
X00236500Y00226898D02*
X00259151D01*
X00236500Y00227798D02*
X00258251D01*
X00223851Y00204398D02*
X00257896D01*
X00236400Y00228698D02*
X00257351D01*
X00224751Y00203498D02*
X00256875D01*
X00235922Y00229598D02*
X00256451D01*
X00234624Y00230498D02*
X00255551D01*
X00234500Y00231398D02*
X00254651D01*
X00244996Y00232298D02*
X00253751D01*
X00246116Y00233198D02*
X00252851D01*
X00246814Y00234098D02*
X00251951D01*
X00247264Y00234998D02*
X00251051D01*
X00247530Y00235898D02*
X00250151D01*
X00247638Y00236798D02*
X00249251D01*
X00247847Y00237698D02*
X00248422D01*
X00240834Y00202598D02*
X00247281D01*
X00241370Y00201698D02*
X00246348D01*
X00236448Y00150398D02*
X00246031D01*
X00149934Y00129698D02*
X00245785D01*
X00235548Y00149498D02*
X00244198D01*
X00150789Y00130598D02*
X00244042D01*
X00234648Y00148598D02*
X00242932D01*
X00151512Y00131498D02*
X00242816D01*
X00233262Y00147698D02*
X00241961D01*
X00152125Y00132398D02*
X00241869D01*
X00222244Y00146798D02*
X00241187D01*
X00152645Y00133298D02*
X00241113D01*
X00223348Y00145898D02*
X00240561D01*
X00153082Y00134198D02*
X00240501D01*
X00224187Y00144998D02*
X00240055D01*
X00221842Y00135098D02*
X00240007D01*
X00224770Y00144098D02*
X00239651D01*
X00223229Y00135998D02*
X00239613D01*
X00225169Y00143198D02*
X00239339D01*
X00224107Y00136898D02*
X00239310D01*
X00234500Y00232298D02*
X00239287D01*
X00225419Y00142298D02*
X00239109D01*
X00224714Y00137798D02*
X00239089D01*
X00225537Y00141398D02*
X00238958D01*
X00225132Y00138698D02*
X00238946D01*
X00225530Y00140498D02*
X00238881D01*
X00225398Y00139598D02*
X00238877D01*
X00234500Y00233198D02*
X00238166D01*
X00234500Y00241298D02*
X00237893D01*
X00234500Y00240398D02*
X00237817D01*
X00234500Y00234098D02*
X00237469D01*
X00234500Y00239498D02*
X00237242D01*
X00234500Y00234998D02*
X00237018D01*
X00234500Y00242198D02*
X00236993D01*
X00234500Y00238598D02*
X00236879D01*
X00234500Y00235898D02*
X00236753D01*
X00234500Y00237698D02*
X00236686D01*
X00234500Y00236798D02*
X00236645D01*
X00234500Y00243098D02*
X00236358D01*
X00234500Y00243998D02*
X00236059D01*
X00234500Y00244898D02*
X00235999D01*
X00234500Y00245798D02*
X00235920D01*
X00225651Y00202598D02*
X00231165D01*
X00226551Y00201698D02*
X00230629D01*
X00224465Y00219698D02*
X00227023D01*
X00153445Y00135098D02*
X00216157D01*
X00184263Y00154898D02*
X00215787D01*
X00184025Y00146798D02*
X00215755D01*
X00213926Y00178298D02*
X00215499D01*
X00212871Y00177398D02*
X00215499D01*
X00168190Y00176498D02*
X00215499D01*
X00167697Y00175598D02*
X00215499D01*
X00167089Y00174698D02*
X00215499D01*
X00166341Y00173798D02*
X00215499D01*
X00165410Y00172898D02*
X00215499D01*
X00164214Y00171998D02*
X00215499D01*
X00162551Y00171098D02*
X00215499D01*
X00159091Y00170198D02*
X00215499D01*
X00122500Y00169298D02*
X00215499D01*
X00122500Y00168398D02*
X00215499D01*
X00122500Y00167498D02*
X00215499D01*
X00122500Y00166598D02*
X00215455D01*
X00214593Y00179198D02*
X00215406D01*
X00183458Y00155798D02*
X00215018D01*
X00153740Y00135998D02*
X00214770D01*
X00183108Y00145898D02*
X00214651D01*
X00122500Y00165698D02*
X00214436D01*
X00182229Y00156698D02*
X00214060D01*
X00153970Y00136898D02*
X00213892D01*
X00181624Y00144998D02*
X00213812D01*
X00122500Y00164798D02*
X00213664D01*
X00122500Y00157598D02*
X00213402D01*
X00154140Y00137798D02*
X00213285D01*
X00153711Y00144098D02*
X00213229D01*
X00122500Y00163898D02*
X00213126D01*
X00122500Y00158498D02*
X00212946D01*
X00154251Y00138698D02*
X00212867D01*
X00153948Y00143198D02*
X00212830D01*
X00122500Y00162998D02*
X00212762D01*
X00122500Y00159398D02*
X00212648D01*
X00154305Y00139598D02*
X00212601D01*
X00154125Y00142298D02*
X00212580D01*
X00122500Y00162098D02*
X00212542D01*
X00122500Y00160298D02*
X00212487D01*
X00154302Y00140498D02*
X00212469D01*
X00154242Y00141398D02*
X00212462D01*
X00122500Y00161198D02*
X00212452D01*
X00207709Y00189098D02*
X00209070D01*
X00205009Y00191798D02*
X00208999D01*
X00205909Y00190898D02*
X00208999D01*
X00206809Y00189998D02*
X00208999D01*
X00181000Y00201698D02*
X00208998D01*
X00204109Y00192698D02*
X00208969D01*
X00179995Y00234098D02*
X00208848D01*
X00181273Y00234998D02*
X00208726D01*
X00181477Y00200798D02*
X00208522D01*
X00203209Y00193598D02*
X00208177D01*
X00181000Y00202598D02*
X00208151D01*
X00182042Y00235898D02*
X00207957D01*
X00174251Y00233198D02*
X00207948D01*
X00196819Y00199898D02*
X00207825D01*
X00202309Y00194498D02*
X00207601D01*
X00182540Y00236798D02*
X00207459D01*
X00197809Y00198998D02*
X00207375D01*
X00181000Y00203498D02*
X00207251D01*
X00201409Y00195398D02*
X00207238D01*
X00182843Y00237698D02*
X00207156D01*
X00198709Y00198098D02*
X00207110D01*
X00175151Y00232298D02*
X00207048D01*
X00200509Y00196298D02*
X00207044D01*
X00182985Y00238598D02*
X00207014D01*
X00199609Y00197198D02*
X00207003D01*
X00183018Y00239498D02*
X00206981D01*
X00193154Y00177398D02*
X00206845D01*
X00181000Y00204398D02*
X00206351D01*
X00183848Y00240398D02*
X00206151D01*
X00176051Y00231398D02*
X00206148D01*
X00194209Y00178298D02*
X00205790D01*
X00181000Y00205298D02*
X00205451D01*
X00184748Y00241298D02*
X00205251D01*
X00177621Y00230498D02*
X00205248D01*
X00194874Y00179198D02*
X00205125D01*
X00143795Y00353798D02*
X00204730D01*
X00195302Y00180098D02*
X00204697D01*
X00181000Y00206198D02*
X00204551D01*
X00195549Y00180998D02*
X00204450D01*
X00180517Y00229598D02*
X00204360D01*
X00195640Y00181898D02*
X00204359D01*
X00185648Y00242198D02*
X00204351D01*
X00195583Y00182798D02*
X00204109D01*
X00181376Y00207098D02*
X00203887D01*
X00181570Y00228698D02*
X00203791D01*
X00182108Y00207998D02*
X00203570D01*
X00182234Y00227798D02*
X00203535D01*
X00182661Y00226898D02*
X00203499D01*
X00182908Y00225998D02*
X00203499D01*
X00182999Y00225098D02*
X00203499D01*
X00182941Y00224198D02*
X00203499D01*
X00182730Y00223298D02*
X00203499D01*
X00182345Y00222398D02*
X00203499D01*
X00181741Y00221498D02*
X00203499D01*
X00180798Y00220598D02*
X00203499D01*
X00178965Y00219698D02*
X00203499D01*
X00169578Y00218798D02*
X00203499D01*
X00169453Y00217898D02*
X00203499D01*
X00169182Y00216998D02*
X00203499D01*
X00179562Y00216098D02*
X00203499D01*
X00181052Y00215198D02*
X00203499D01*
X00181901Y00214298D02*
X00203499D01*
X00182449Y00213398D02*
X00203499D01*
X00182791Y00212498D02*
X00203499D01*
X00182967Y00211598D02*
X00203499D01*
X00182991Y00210698D02*
X00203499D01*
X00182867Y00209798D02*
X00203499D01*
X00182582Y00208898D02*
X00203499D01*
X00186548Y00243098D02*
X00203451D01*
X00146199Y00352898D02*
X00203348D01*
X00195372Y00183698D02*
X00203209D01*
X00187448Y00243998D02*
X00202551D01*
X00147799Y00351998D02*
X00202448D01*
X00194989Y00184598D02*
X00202309D01*
X00188348Y00244898D02*
X00201651D01*
X00149034Y00351098D02*
X00201548D01*
X00194385Y00185498D02*
X00201409D01*
X00189248Y00245798D02*
X00200751D01*
X00150039Y00350198D02*
X00200648D01*
X00193443Y00186398D02*
X00200509D01*
X00150878Y00349298D02*
X00199748D01*
X00191616Y00187298D02*
X00199609D01*
X00186050Y00348398D02*
X00198848D01*
X00167159Y00188198D02*
X00198709D01*
X00188164Y00347498D02*
X00197948D01*
X00166427Y00189098D02*
X00197809D01*
X00192682Y00246698D02*
X00197317D01*
X00189159Y00346598D02*
X00197048D01*
X00165518Y00189998D02*
X00196909D01*
X00189792Y00345698D02*
X00196148D01*
X00193876Y00247598D02*
X00196123D01*
X00164357Y00190898D02*
X00196009D01*
X00194611Y00248498D02*
X00195388D01*
X00190197Y00344798D02*
X00195248D01*
X00179287Y00191798D02*
X00195109D01*
X00190426Y00343898D02*
X00194348D01*
X00180927Y00192698D02*
X00194209D01*
X00190500Y00342998D02*
X00193448D01*
X00190425Y00342098D02*
X00192548D01*
X00190196Y00341198D02*
X00191648D01*
X00167754Y00187298D02*
X00188667D01*
X00168584Y00177398D02*
X00187128D01*
X00168236Y00186398D02*
X00186839D01*
X00168890Y00178298D02*
X00186073D01*
X00168620Y00185498D02*
X00185897D01*
X00169115Y00179198D02*
X00185408D01*
X00168917Y00184598D02*
X00185294D01*
X00169263Y00180098D02*
X00184980D01*
X00169134Y00183698D02*
X00184910D01*
X00169339Y00180998D02*
X00184733D01*
X00169275Y00182798D02*
X00184700D01*
X00169342Y00181898D02*
X00184642D01*
X00169573Y00251198D02*
X00184508D01*
X00169574Y00252098D02*
X00184433D01*
X00176050Y00348398D02*
X00183949D01*
X00169435Y00250298D02*
X00183848D01*
X00169437Y00252998D02*
X00183551D01*
X00169150Y00249398D02*
X00182948D01*
X00169154Y00253898D02*
X00182651D01*
X00168694Y00248498D02*
X00182048D01*
X00168700Y00254798D02*
X00181941D01*
X00178164Y00347498D02*
X00181835D01*
X00168021Y00255698D02*
X00181592D01*
X00138250Y00258398D02*
X00181499D01*
X00164945Y00257498D02*
X00181499D01*
X00166988Y00256598D02*
X00181499D01*
X00138250Y00259298D02*
X00181251D01*
X00168013Y00247598D02*
X00181148D01*
X00179159Y00346598D02*
X00180840D01*
X00166974Y00246698D02*
X00180248D01*
X00166949Y00245798D02*
X00179348D01*
X00138250Y00260198D02*
X00178534D01*
X00167997Y00244898D02*
X00178448D01*
X00177077Y00230498D02*
X00177378D01*
X00138250Y00261098D02*
X00176701D01*
X00167230Y00271898D02*
X00176499D01*
X00166514Y00270998D02*
X00176499D01*
X00165627Y00270098D02*
X00176499D01*
X00153409Y00144998D02*
X00176375D01*
X00167811Y00272798D02*
X00176251D01*
X00169567Y00219698D02*
X00176034D01*
X00164498Y00269198D02*
X00175929D01*
X00122500Y00156698D02*
X00175770D01*
X00138250Y00261998D02*
X00175758D01*
X00162762Y00191798D02*
X00175712D01*
X00168742Y00216098D02*
X00175437D01*
X00168282Y00273698D02*
X00175351D01*
X00162967Y00268298D02*
X00175265D01*
X00168683Y00243998D02*
X00175205D01*
X00138250Y00262898D02*
X00175154D01*
X00173603Y00234098D02*
X00175004D01*
X00153038Y00145898D02*
X00174891D01*
X00160344Y00267398D02*
X00174838D01*
X00138250Y00263798D02*
X00174769D01*
X00138250Y00266498D02*
X00174591D01*
X00138250Y00264698D02*
X00174558D01*
X00122500Y00155798D02*
X00174541D01*
X00138250Y00265598D02*
X00174500D01*
X00168657Y00274598D02*
X00174451D01*
X00169418Y00220598D02*
X00174201D01*
X00159823Y00192698D02*
X00174072D01*
X00169192Y00206198D02*
X00173999D01*
X00168758Y00205298D02*
X00173999D01*
X00168108Y00204398D02*
X00173999D01*
X00167125Y00203498D02*
X00173999D01*
X00165312Y00202598D02*
X00173999D01*
X00138119Y00201698D02*
X00173999D01*
X00152593Y00146798D02*
X00173974D01*
X00168704Y00348398D02*
X00173949D01*
X00168085Y00215198D02*
X00173947D01*
X00169143Y00243098D02*
X00173832D01*
X00122500Y00154898D02*
X00173736D01*
X00169459Y00207098D02*
X00173623D01*
X00168944Y00275498D02*
X00173551D01*
X00137436Y00200798D02*
X00173522D01*
X00152063Y00147698D02*
X00173342D01*
X00169121Y00221498D02*
X00173258D01*
X00122500Y00193598D02*
X00173177D01*
X00142973Y00153998D02*
X00173176D01*
X00167088Y00214298D02*
X00173098D01*
X00169431Y00242198D02*
X00173025D01*
X00151439Y00148598D02*
X00172906D01*
X00169580Y00207998D02*
X00172891D01*
X00122500Y00199898D02*
X00172825D01*
X00145764Y00153098D02*
X00172795D01*
X00168649Y00222398D02*
X00172654D01*
X00169153Y00276398D02*
X00172651D01*
X00150704Y00149498D02*
X00172624D01*
X00122500Y00194498D02*
X00172601D01*
X00147483Y00152198D02*
X00172560D01*
X00166842Y00213398D02*
X00172550D01*
X00169571Y00241298D02*
X00172503D01*
X00149832Y00150398D02*
X00172477D01*
X00148783Y00151298D02*
X00172456D01*
X00169565Y00208898D02*
X00172417D01*
X00122500Y00198998D02*
X00172375D01*
X00167947Y00223298D02*
X00172269D01*
X00122500Y00195398D02*
X00172238D01*
X00167921Y00212498D02*
X00172208D01*
X00169575Y00240398D02*
X00172180D01*
X00170988Y00237698D02*
X00172138D01*
X00169412Y00209798D02*
X00172132D01*
X00122500Y00198098D02*
X00172110D01*
X00166873Y00224198D02*
X00172058D01*
X00122500Y00196298D02*
X00172044D01*
X00168632Y00211598D02*
X00172032D01*
X00169488Y00239498D02*
X00172022D01*
X00170199Y00238598D02*
X00172014D01*
X00169110Y00210698D02*
X00172008D01*
X00122500Y00197198D02*
X00172003D01*
X00167051Y00225098D02*
X00172000D01*
X00170001Y00347498D02*
X00171835D01*
X00169285Y00277298D02*
X00171751D01*
X00168061Y00225998D02*
X00171551D01*
X00169345Y00278198D02*
X00170851D01*
X00168726Y00226898D02*
X00170651D01*
X00169348Y00227798D02*
X00169682D01*
X00153925Y00336698D02*
X00166856D01*
X00153680Y00335798D02*
X00165939D01*
X00153370Y00334898D02*
X00165039D01*
X00152991Y00333998D02*
X00164139D01*
X00152537Y00333098D02*
X00163239D01*
X00151997Y00332198D02*
X00162339D01*
X00138250Y00257498D02*
X00162236D01*
X00138250Y00202598D02*
X00161869D01*
X00151361Y00331298D02*
X00161439D01*
X00154108Y00337598D02*
X00161304D01*
X00151587Y00348398D02*
X00161295D01*
X00150612Y00330398D02*
X00160539D01*
X00138250Y00256598D02*
X00160192D01*
X00138250Y00203498D02*
X00160055D01*
X00154232Y00338498D02*
X00160000D01*
X00152189Y00347498D02*
X00159998D01*
X00149722Y00329498D02*
X00159639D01*
X00154298Y00339398D02*
X00159573D01*
X00152698Y00346598D02*
X00159572D01*
X00153127Y00345698D02*
X00159499D01*
X00153482Y00344798D02*
X00159499D01*
X00153769Y00343898D02*
X00159499D01*
X00153993Y00342998D02*
X00159499D01*
X00154156Y00342098D02*
X00159499D01*
X00154260Y00341198D02*
X00159499D01*
X00154307Y00340298D02*
X00159499D01*
X00138119Y00255698D02*
X00159159D01*
X00138250Y00204398D02*
X00159072D01*
X00148649Y00328598D02*
X00158739D01*
X00137436Y00254798D02*
X00158480D01*
X00122500Y00290798D02*
X00158441D01*
X00138250Y00205298D02*
X00158422D01*
X00122500Y00289898D02*
X00158332D01*
X00122500Y00291698D02*
X00158092D01*
X00122500Y00253898D02*
X00158026D01*
X00129182Y00296198D02*
X00157999D01*
X00122500Y00295298D02*
X00157999D01*
X00122500Y00294398D02*
X00157999D01*
X00122500Y00293498D02*
X00157999D01*
X00122500Y00292598D02*
X00157999D01*
X00138250Y00206198D02*
X00157988D01*
X00147313Y00327698D02*
X00157839D01*
X00122500Y00252998D02*
X00157743D01*
X00138250Y00207098D02*
X00157721D01*
X00130376Y00297098D02*
X00157623D01*
X00155926Y00208898D02*
X00157615D01*
X00155787Y00251198D02*
X00157607D01*
X00153704Y00252098D02*
X00157607D01*
X00154085Y00207998D02*
X00157600D01*
X00156831Y00250298D02*
X00157498D01*
X00156993Y00209798D02*
X00157336D01*
X00145525Y00326798D02*
X00156939D01*
X00122500Y00170198D02*
X00156908D01*
X00131108Y00297998D02*
X00156891D01*
X00131582Y00298898D02*
X00156417D01*
X00122500Y00192698D02*
X00156176D01*
X00142441Y00325898D02*
X00156039D01*
X00131867Y00299798D02*
X00155983D01*
X00138250Y00267398D02*
X00155655D01*
X00122500Y00324998D02*
X00155139D01*
X00131991Y00300698D02*
X00155083D01*
X00122500Y00324098D02*
X00154239D01*
X00131967Y00301598D02*
X00154183D01*
X00122500Y00288998D02*
X00153677D01*
X00122500Y00171098D02*
X00153448D01*
X00122500Y00323198D02*
X00153339D01*
X00131791Y00302498D02*
X00153283D01*
X00122500Y00191798D02*
X00153237D01*
X00138250Y00268298D02*
X00153032D01*
X00122500Y00322298D02*
X00152439D01*
X00131449Y00303398D02*
X00152383D01*
X00122500Y00288098D02*
X00151936D01*
X00122500Y00171998D02*
X00151785D01*
X00122500Y00190898D02*
X00151642D01*
X00134192Y00321398D02*
X00151538D01*
X00138250Y00269198D02*
X00151501D01*
X00130901Y00304298D02*
X00151483D01*
X00122500Y00252098D02*
X00151114D01*
X00138250Y00207998D02*
X00150733D01*
X00122500Y00287198D02*
X00150704D01*
X00122500Y00172898D02*
X00150590D01*
X00130052Y00305198D02*
X00150583D01*
X00122500Y00189998D02*
X00150481D01*
X00138250Y00270098D02*
X00150372D01*
X00122500Y00286298D02*
X00149749D01*
X00136305Y00320498D02*
X00149694D01*
X00128562Y00306098D02*
X00149683D01*
X00122500Y00173798D02*
X00149658D01*
X00122500Y00189098D02*
X00149572D01*
X00138250Y00270998D02*
X00149485D01*
X00138250Y00218798D02*
X00149142D01*
X00138250Y00229598D02*
X00149109D01*
X00138250Y00240398D02*
X00149070D01*
X00122500Y00251198D02*
X00149031D01*
X00138250Y00241298D02*
X00149006D01*
X00122500Y00285398D02*
X00148984D01*
X00138250Y00230498D02*
X00148967D01*
X00138250Y00219698D02*
X00148929D01*
X00122500Y00306998D02*
X00148911D01*
X00122500Y00174698D02*
X00148910D01*
X00138250Y00208898D02*
X00148892D01*
X00122500Y00188198D02*
X00148840D01*
X00138250Y00271898D02*
X00148769D01*
X00137301Y00319598D02*
X00148698D01*
X00122500Y00307898D02*
X00148439D01*
X00122500Y00284498D02*
X00148362D01*
X00122500Y00175598D02*
X00148302D01*
X00122500Y00187298D02*
X00148245D01*
X00138250Y00272798D02*
X00148188D01*
X00122500Y00308798D02*
X00148183D01*
X00137298Y00312398D02*
X00148108D01*
X00136302Y00311498D02*
X00148108D01*
X00134179Y00310598D02*
X00148108D01*
X00122500Y00309698D02*
X00148108D01*
X00137934Y00318698D02*
X00148065D01*
X00138250Y00217898D02*
X00148065D01*
X00137932Y00313298D02*
X00148064D01*
X00138250Y00228698D02*
X00148040D01*
X00138250Y00239498D02*
X00148015D01*
X00137124Y00250298D02*
X00147990D01*
X00138250Y00242198D02*
X00147974D01*
X00138250Y00231398D02*
X00147950D01*
X00138250Y00220598D02*
X00147926D01*
X00138250Y00209798D02*
X00147902D01*
X00122500Y00283598D02*
X00147857D01*
X00122500Y00176498D02*
X00147809D01*
X00122500Y00186398D02*
X00147763D01*
X00138250Y00273698D02*
X00147717D01*
X00138338Y00314198D02*
X00147661D01*
X00138339Y00317798D02*
X00147660D01*
X00122500Y00282698D02*
X00147453D01*
X00138567Y00315098D02*
X00147432D01*
X00138567Y00316898D02*
X00147432D01*
X00122500Y00177398D02*
X00147415D01*
X00122500Y00185498D02*
X00147379D01*
X00138250Y00216998D02*
X00147358D01*
X00138641Y00315998D02*
X00147358D01*
X00138250Y00274598D02*
X00147342D01*
X00138250Y00227798D02*
X00147341D01*
X00138250Y00238598D02*
X00147324D01*
X00138036Y00249398D02*
X00147308D01*
X00138250Y00243098D02*
X00147297D01*
X00138250Y00232298D02*
X00147281D01*
X00138250Y00221498D02*
X00147265D01*
X00138250Y00210698D02*
X00147249D01*
X00122500Y00281798D02*
X00147138D01*
X00122500Y00178298D02*
X00147109D01*
X00122500Y00184598D02*
X00147082D01*
X00138250Y00275498D02*
X00147055D01*
X00122500Y00280898D02*
X00146905D01*
X00122500Y00179198D02*
X00146884D01*
X00138250Y00216098D02*
X00146884D01*
X00138250Y00226898D02*
X00146872D01*
X00122500Y00183698D02*
X00146865D01*
X00138250Y00237698D02*
X00146861D01*
X00138250Y00248498D02*
X00146850D01*
X00138250Y00276398D02*
X00146846D01*
X00138250Y00243998D02*
X00146843D01*
X00138250Y00233198D02*
X00146833D01*
X00138250Y00222398D02*
X00146822D01*
X00138250Y00211598D02*
X00146812D01*
X00122500Y00279998D02*
X00146748D01*
X00122500Y00180098D02*
X00146736D01*
X00122500Y00182798D02*
X00146724D01*
X00138083Y00277298D02*
X00146714D01*
X00122500Y00279098D02*
X00146665D01*
X00122500Y00180998D02*
X00146660D01*
X00122500Y00181898D02*
X00146657D01*
X00137305Y00278198D02*
X00146654D01*
X00138250Y00215198D02*
X00146584D01*
X00138250Y00225998D02*
X00146577D01*
X00138250Y00236798D02*
X00146571D01*
X00138250Y00247598D02*
X00146565D01*
X00138250Y00244898D02*
X00146561D01*
X00138250Y00234098D02*
X00146555D01*
X00138250Y00223298D02*
X00146549D01*
X00138250Y00212498D02*
X00146543D01*
X00138250Y00214298D02*
X00146433D01*
X00138250Y00225098D02*
X00146431D01*
X00138250Y00235898D02*
X00146429D01*
X00138250Y00246698D02*
X00146426D01*
X00138250Y00245798D02*
X00146425D01*
X00138250Y00234998D02*
X00146423D01*
X00138250Y00224198D02*
X00146421D01*
X00138250Y00213398D02*
X00146420D01*
X00122500Y00325898D02*
X00137558D01*
X00122500Y00153998D02*
X00137026D01*
X00122500Y00126098D02*
X00136600D01*
X00122500Y00353798D02*
X00136204D01*
X00122500Y00326798D02*
X00134474D01*
X00122500Y00153098D02*
X00134235D01*
X00122500Y00126998D02*
X00134019D01*
X00122500Y00352898D02*
X00133800D01*
X00122500Y00327698D02*
X00132686D01*
X00122500Y00152198D02*
X00132516D01*
X00122500Y00127898D02*
X00132360D01*
X00122500Y00351998D02*
X00132200D01*
X00122500Y00310598D02*
X00132104D01*
X00122500Y00321398D02*
X00132090D01*
X00122500Y00328598D02*
X00131350D01*
X00122500Y00151298D02*
X00131216D01*
X00122500Y00128798D02*
X00131092D01*
X00122500Y00351098D02*
X00130965D01*
X00122500Y00329498D02*
X00130277D01*
X00122500Y00150398D02*
X00130167D01*
X00122500Y00129698D02*
X00130065D01*
X00122500Y00311498D02*
X00129981D01*
X00122500Y00320498D02*
X00129977D01*
X00122500Y00350198D02*
X00129960D01*
X00122500Y00330398D02*
X00129387D01*
X00122500Y00149498D02*
X00129295D01*
X00122500Y00130598D02*
X00129210D01*
X00122500Y00349298D02*
X00129121D01*
X00122500Y00312398D02*
X00128984D01*
X00122500Y00319598D02*
X00128982D01*
X00122500Y00331298D02*
X00128638D01*
X00122500Y00148598D02*
X00128560D01*
X00122500Y00131498D02*
X00128487D01*
X00122500Y00348398D02*
X00128412D01*
X00122500Y00313298D02*
X00128350D01*
X00122500Y00318698D02*
X00128349D01*
X00122500Y00332198D02*
X00128002D01*
X00122500Y00314198D02*
X00127945D01*
X00122500Y00317798D02*
X00127944D01*
X00122500Y00147698D02*
X00127936D01*
X00122500Y00132398D02*
X00127874D01*
X00122500Y00347498D02*
X00127810D01*
X00122500Y00315098D02*
X00127716D01*
X00122500Y00316898D02*
X00127715D01*
X00122500Y00315998D02*
X00127641D01*
X00122500Y00333098D02*
X00127462D01*
X00122500Y00146798D02*
X00127406D01*
X00122500Y00133298D02*
X00127354D01*
X00122500Y00346598D02*
X00127301D01*
X00122500Y00333998D02*
X00127008D01*
X00122500Y00145898D02*
X00126961D01*
X00122500Y00134198D02*
X00126917D01*
X00122500Y00345698D02*
X00126872D01*
X00122500Y00334898D02*
X00126629D01*
X00122500Y00144998D02*
X00126590D01*
X00122500Y00135098D02*
X00126554D01*
X00122500Y00344798D02*
X00126517D01*
X00122500Y00250298D02*
X00126375D01*
X00122500Y00335798D02*
X00126319D01*
X00122500Y00144098D02*
X00126288D01*
X00122500Y00135998D02*
X00126259D01*
X00122500Y00343898D02*
X00126230D01*
X00122500Y00278198D02*
X00126194D01*
X00122500Y00336698D02*
X00126074D01*
X00122500Y00254798D02*
X00126063D01*
X00122500Y00200798D02*
X00126063D01*
X00122500Y00143198D02*
X00126051D01*
X00122500Y00136898D02*
X00126029D01*
X00122500Y00342998D02*
X00126006D01*
X00122500Y00337598D02*
X00125891D01*
X00122500Y00142298D02*
X00125874D01*
X00122500Y00137798D02*
X00125859D01*
X00122500Y00342098D02*
X00125843D01*
X00122500Y00338498D02*
X00125767D01*
X00122500Y00141398D02*
X00125757D01*
X00122500Y00138698D02*
X00125748D01*
X00122500Y00341198D02*
X00125739D01*
X00122500Y00339398D02*
X00125701D01*
X00122500Y00140498D02*
X00125697D01*
X00122500Y00139598D02*
X00125694D01*
X00122500Y00340298D02*
X00125692D01*
X00122500Y00249398D02*
X00125463D01*
X00122500Y00277298D02*
X00125416D01*
X00122500Y00255698D02*
X00125380D01*
X00122500Y00201698D02*
X00125380D01*
X00122500Y00276398D02*
X00125249D01*
X00122500Y00275498D02*
X00125249D01*
X00122500Y00274598D02*
X00125249D01*
X00122500Y00273698D02*
X00125249D01*
X00122500Y00272798D02*
X00125249D01*
X00122500Y00271898D02*
X00125249D01*
X00122500Y00270998D02*
X00125249D01*
X00122500Y00270098D02*
X00125249D01*
X00122500Y00269198D02*
X00125249D01*
X00122500Y00268298D02*
X00125249D01*
X00122500Y00267398D02*
X00125249D01*
X00122500Y00266498D02*
X00125249D01*
X00122500Y00265598D02*
X00125249D01*
X00122500Y00264698D02*
X00125249D01*
X00122500Y00263798D02*
X00125249D01*
X00122500Y00262898D02*
X00125249D01*
X00122500Y00261998D02*
X00125249D01*
X00122500Y00261098D02*
X00125249D01*
X00122500Y00260198D02*
X00125249D01*
X00122500Y00259298D02*
X00125249D01*
X00122500Y00258398D02*
X00125249D01*
X00122500Y00257498D02*
X00125249D01*
X00122500Y00256598D02*
X00125249D01*
X00122500Y00248498D02*
X00125249D01*
X00122500Y00247598D02*
X00125249D01*
X00122500Y00246698D02*
X00125249D01*
X00122500Y00245798D02*
X00125249D01*
X00122500Y00244898D02*
X00125249D01*
X00122500Y00243998D02*
X00125249D01*
X00122500Y00243098D02*
X00125249D01*
X00122500Y00242198D02*
X00125249D01*
X00122500Y00241298D02*
X00125249D01*
X00122500Y00240398D02*
X00125249D01*
X00122500Y00239498D02*
X00125249D01*
X00122500Y00238598D02*
X00125249D01*
X00122500Y00237698D02*
X00125249D01*
X00122500Y00236798D02*
X00125249D01*
X00122500Y00235898D02*
X00125249D01*
X00122500Y00234998D02*
X00125249D01*
X00122500Y00234098D02*
X00125249D01*
X00122500Y00233198D02*
X00125249D01*
X00122500Y00232298D02*
X00125249D01*
X00122500Y00231398D02*
X00125249D01*
X00122500Y00230498D02*
X00125249D01*
X00122500Y00229598D02*
X00125249D01*
X00122500Y00228698D02*
X00125249D01*
X00122500Y00227798D02*
X00125249D01*
X00122500Y00226898D02*
X00125249D01*
X00122500Y00225998D02*
X00125249D01*
X00122500Y00225098D02*
X00125249D01*
X00122500Y00224198D02*
X00125249D01*
X00122500Y00223298D02*
X00125249D01*
X00122500Y00222398D02*
X00125249D01*
X00122500Y00221498D02*
X00125249D01*
X00122500Y00220598D02*
X00125249D01*
X00122500Y00219698D02*
X00125249D01*
X00122500Y00218798D02*
X00125249D01*
X00122500Y00217898D02*
X00125249D01*
X00122500Y00216998D02*
X00125249D01*
X00122500Y00216098D02*
X00125249D01*
X00122500Y00215198D02*
X00125249D01*
X00122500Y00214298D02*
X00125249D01*
X00122500Y00213398D02*
X00125249D01*
X00122500Y00212498D02*
X00125249D01*
X00122500Y00211598D02*
X00125249D01*
X00122500Y00210698D02*
X00125249D01*
X00122500Y00209798D02*
X00125249D01*
X00122500Y00208898D02*
X00125249D01*
X00122500Y00207998D02*
X00125249D01*
X00122500Y00207098D02*
X00125249D01*
X00122500Y00206198D02*
X00125249D01*
X00122500Y00205298D02*
X00125249D01*
X00122500Y00204398D02*
X00125249D01*
X00122500Y00203498D02*
X00125249D01*
X00122500Y00202598D02*
X00125249D01*
X00122500Y00306098D02*
X00124437D01*
X00122505Y00296198D02*
X00123817D01*
G54D31*
X00163590Y00251653D03*
Y00240826D03*
Y00230000D03*
Y00219173D03*
Y00208346D03*
X00152409Y00246240D03*
Y00235413D03*
Y00224586D03*
Y00213759D03*
G54D35*
X00362400Y00228500D03*
Y00211500D03*
X00387600D03*
Y00228500D03*
X00362400Y00258500D03*
Y00241500D03*
X00387600D03*
Y00258500D03*
X00362400Y00288500D03*
Y00271500D03*
X00387600D03*
Y00288500D03*
X00362400Y00318500D03*
Y00301500D03*
X00387600D03*
Y00318500D03*
G54D40*
X00236000Y00197900D03*
X00290000Y00146000D03*
X00231000Y00225000D03*
X00330100Y00163000D03*
X00165000Y00343000D03*
X00325000Y00137000D03*
X00315000Y00343000D03*
X00210000D03*
X00329000Y00252000D03*
X00237000Y00345000D03*
X00275900Y00189000D03*
G54D42*
X00161500Y00301000D02*
X00152858Y00309641D01*
X00152858D02*
Y00316000D01*
X00169858Y00333000*
X00172000*
X00175000Y00336000*
Y00343000*
G54D43*
X00158000Y00278503D03*
Y00181496D03*
G54D44*
X00219000Y00141000D03*
Y00161000D03*
X00179000Y00151000D03*
G74*
X00000000Y00000000D02*
M02*
